<?xml version="1.0" encoding="utf-8"?>
<!-- Generator: Adobe Illustrator 25.4.1, SVG Export Plug-In . SVG Version: 6.00 Build 0)  -->
<svg version="1.1" id="Слой_1" xmlns="http://www.w3.org/2000/svg" xmlns:xlink="http://www.w3.org/1999/xlink" x="0px" y="0px"
	 viewBox="0 0 1000 1000" style="enable-background:new 0 0 1000 1000;" xml:space="preserve">
<style type="text/css">
	.st0{opacity:0.3;}
	.st1{fill:url(#SVGID_1_);}
	.st2{fill:#89462D;}
	.st3{fill:#38372E;}
	.st4{fill:url(#SVGID_00000075144816334082505570000007877313678238861242_);}
	.st5{fill:url(#SVGID_00000181077625450558880320000004952108221494880927_);}
	.st6{fill:url(#SVGID_00000013901785145618527960000010986263005415306123_);}
	.st7{fill:url(#SVGID_00000028296130406061568200000007459979724320714149_);}
	.st8{fill:url(#SVGID_00000181046740393824244470000012569988077460877217_);}
	.st9{fill:url(#SVGID_00000078046611615530154860000002689657159109566616_);}
	.st10{fill:url(#SVGID_00000155864100900196949670000007829292254478612646_);}
	.st11{fill:url(#SVGID_00000053525004119582455590000007274084649864272543_);}
	.st12{fill:url(#SVGID_00000000911523312041088910000016668549904674216354_);}
	.st13{fill:url(#SVGID_00000088134528955412731800000014843465384959879088_);}
	.st14{fill:url(#SVGID_00000129897673805202385420000012630649418835393952_);}
	.st15{fill:#FF8939;}
	.st16{fill:#E25E24;}
	.st17{fill:url(#SVGID_00000051353987259623938800000002592061636099292599_);}
	.st18{fill:url(#SVGID_00000040540297131584441140000000782871831790703020_);}
	.st19{fill:url(#SVGID_00000097498702613486637160000007185083159659102612_);}
	.st20{fill:url(#SVGID_00000001624601877161978550000004254566209124949694_);}
	.st21{fill:#2D2929;}
	.st22{fill:url(#SVGID_00000112602321730791909140000004280557153112091527_);}
	.st23{fill:url(#SVGID_00000051345280731088276740000015720521817091431089_);}
	.st24{fill:url(#SVGID_00000049924997389631355130000008274710752976368532_);}
	.st25{opacity:0.51;fill:#E25E24;enable-background:new    ;}
	.st26{fill:url(#SVGID_00000011014533724070861280000017782069423348611212_);}
	.st27{opacity:0.46;}
	.st28{fill:#2B190E;}
	.st29{opacity:0.5;fill:#E25E24;enable-background:new    ;}
	.st30{opacity:0.41;fill:#E25E24;enable-background:new    ;}
	.st31{opacity:0.36;fill:#E25E24;enable-background:new    ;}
	.st32{opacity:0.29;fill:#E25E24;enable-background:new    ;}
	.st33{fill:url(#SVGID_00000071549754701472760310000001249359604992837014_);}
	.st34{opacity:0.54;fill:url(#SVGID_00000156545182539665323430000000254509387287174025_);enable-background:new    ;}
	.st35{fill:url(#SVGID_00000038402842870723819110000004124884547834916540_);}
	.st36{fill:#B95F3B;}
	.st37{fill:url(#SVGID_00000059277820747131056710000011476075127156869257_);}
	.st38{fill:url(#SVGID_00000170262924108111184730000002052728331315564735_);}
	.st39{fill:url(#SVGID_00000079468803129496034340000007799924291287756956_);}
	.st40{fill:url(#SVGID_00000082335981200175613520000016175458099841476501_);}
	.st41{fill:url(#SVGID_00000029739264324972549460000008073941675991179953_);}
	.st42{opacity:0.54;fill:#432918;enable-background:new    ;}
	.st43{fill:#752B1F;}
	.st44{fill:#602221;}
	.st45{opacity:0.46;fill:#89462D;enable-background:new    ;}
	.st46{opacity:0.25;fill:#432918;enable-background:new    ;}
	.st47{opacity:0.15;fill:#432918;enable-background:new    ;}
	.st48{opacity:0.24;fill:#432918;enable-background:new    ;}
	.st49{opacity:0.36;fill:#681F1B;enable-background:new    ;}
	.st50{fill:#F6F6F6;}
	.st51{opacity:0.51;clip-path:url(#SVGID_00000111171657302845739440000005560811586365804936_);}
	.st52{fill:#706F6F;}
	.st53{fill:#3C3C3B;}
</style>
<g>
	<g id="Слой_8" class="st0">
		<linearGradient id="SVGID_1_" gradientUnits="userSpaceOnUse" x1="1082.3965" y1="804.6075" x2="57.1164" y2="862.2072">
			<stop  offset="0" style="stop-color:#575756"/>
			<stop  offset="0.2155" style="stop-color:#616160;stop-opacity:0.7845"/>
			<stop  offset="0.5935" style="stop-color:#6C6B6B;stop-opacity:0.4065"/>
			<stop  offset="1" style="stop-color:#706F6F;stop-opacity:0"/>
		</linearGradient>
		<path class="st1" d="M743.74,870.92c1.86,18.64-108.11,49.21-209.46,58.64c-75.14,7-264.51,24.63-347.76-84.24
			c-15.63-20.44-38.97-60.31-25.92-77.76c20.04-26.8,107.43,24.05,233.28,58.32C597.68,881.38,741.62,849.65,743.74,870.92z"/>
	</g>
	<g id="Слой_3">
		<path class="st2" d="M842.42,119.6c0.89-0.75,7.35-5.96,15.36-4.08c1.04,0.24,8.55,2,10.08,7.92c1.53,5.91-3.75,12.73-8.88,13.68
			C852.88,138.25,844.45,131.56,842.42,119.6z"/>
		<path class="st2" d="M167.12,418.73c-2.63,4.97,2.41,12.83,7.14,18.74c4.14,6.53,10.74,8.89,14.76,6.84
			c2.39-1.22,3.48-3.79,3.96-5.4c-1.48-10.71,0.47-14.24,2.52-15.48c3.33-2.02,6.92,2,12.24,0.36c5.29-1.63,10.06-8.15,9.36-14.76
			c-0.8-7.55-8.52-13.17-14.76-12.96c-8.28,0.28-8.78,10.67-22.68,16.92C172.79,416.08,168.91,415.35,167.12,418.73z"/>
		<path class="st3" d="M795.28,830.43c-1-1.02-2.7-2.42-5-2.72c-3.06-0.4-5.58,1.36-6.27,1.82c-9.78,6.49-22.17,7.81-32.86,12.65
			c-30.59,13.88-62.28-2.82-78.04,15.98c-2.04,2.43-4.67,7.87-6.02,13.68c-0.44,1.91-1.55,6.85,0.36,8.08c0.87,0.56,1.36,0,3.84,0
			c2.71,0.01,3.13,0.95,5.52,1.2c3.17,0.33,3.93-1.19,7.2-1.44c3.56-0.27,6.21,1.26,7.2,1.68c2.73,1.16,8.36,0.43,20.65-6.56
			c3.6-0.21,7.27-0.5,11.03-0.88c11.45-1.17,21.93-3.02,31.31-5.16c3.49,1.51,7.5,2.49,10.38,0.68c2.06-1.29,1.71-2.92,3.94-4.17
			c4.13-2.29,7.8,1.18,10.58-1.02c2.45-1.95,1.03-5.73,3.48-6.9c2.01-0.96,4,1.1,5.52,0.09c1.39-0.92,1.23-3.66,0.82-5.99
			c1.28-2.36,2.62-5.23,3.74-8.58C794.27,838.13,794.97,833.85,795.28,830.43z"/>
		
			<linearGradient id="SVGID_00000150062184779244129750000000233174884000686231_" gradientUnits="userSpaceOnUse" x1="729.7089" y1="820.5879" x2="734.0287" y2="908.428">
			<stop  offset="0" style="stop-color:#929077"/>
			<stop  offset="0.1945" style="stop-color:#888670"/>
			<stop  offset="0.5255" style="stop-color:#6D6C5D"/>
			<stop  offset="0.9503" style="stop-color:#42413F"/>
			<stop  offset="1" style="stop-color:#3C3C3B"/>
		</linearGradient>
		<path style="fill:url(#SVGID_00000150062184779244129750000000233174884000686231_);" d="M673.46,848.8
			c-1.64,2.14-3.91,5.66-5.29,10.48c-1.92,6.72-1.11,12.45-0.48,15.36c14.33,0.9,33.99,0.37,56.16-5.76
			c10.38-2.87,19.44-6.45,27.12-10.08c3.4-5.9,6.9-7.93,9.6-8.64c2.55-0.67,4.56-0.2,6.48-1.92c2.51-2.25,1.26-5.04,3.36-6.48
			c2.75-1.89,5.98,2.19,9.84,0.72c3.59-1.37,2.97-5.73,7.2-8.64c2.65-1.82,5.7-2.04,7.92-1.92c-0.27-0.92-0.8-2.3-1.92-3.6
			c-5.93-6.92-21.04-3.1-26.96-1.61c-7.98,2.01-10.03,4.03-21.28,6.65c-3.54,0.83-6.47,1.36-8.4,1.68
			c-8.48-1.04-16.96-2.08-25.44-3.12c-2.61-0.98-10.13-3.4-18.96-0.72C679.31,835.17,674.17,847.08,673.46,848.8z"/>
		
			<linearGradient id="SVGID_00000171707106517340252930000002587998764673061520_" gradientUnits="userSpaceOnUse" x1="206.2308" y1="493.9008" x2="186.7908" y2="431.2609">
			<stop  offset="0" style="stop-color:#929077"/>
			<stop  offset="0.4332" style="stop-color:#6F6E5F"/>
			<stop  offset="1" style="stop-color:#3C3C3B"/>
		</linearGradient>
		<path style="fill:url(#SVGID_00000171707106517340252930000002587998764673061520_);" d="M243.23,499.37
			c2.87-3.49,6.08-7.99,9.03-13.53c2.36-4.43,4.05-8.6,5.28-12.24c-0.95-0.16-2.34-0.55-3.12-1.68c-1.32-1.92,0.53-3.89-0.48-6
			c-1.22-2.54-4.64-1.23-7.2-4.08c-2.37-2.63-1.05-5.53-2.88-6.72c-1.26-0.82-3.8-0.69-9.36,3.36c-2.15-1.97-5.23-2.44-7.68-1.2
			c-3.1,1.56-3.57,5-3.6,5.28c-4.64,1.81-10.72,3.71-18,4.8c-7.11,1.07-13.35,1.06-18.24,0.72c0.63-3.09-1.37-6.1-4.32-6.72
			c-3.08-0.65-6.25,1.53-6.72,4.8c-1.71,0.69-4.27,1.66-7.44,2.64c-6.99,2.16-10.48,2.38-11.76,5.04c-0.41,0.85-0.75,2.27,0,4.56
			c-1.46,1.3-5.52,5.26-6.72,11.76c-0.22,1.19-1.29,7,1.17,11.1c3.76,6.28,15.72,8.43,28.59,3.06c1.97,1.05,4.87,2.57,8.4,4.32
			c10.74,5.32,16.12,7.98,18.12,8.04c9.69,0.31,12.25-9.99,29.4-15.48C238.85,500.19,241.51,499.66,243.23,499.37z"/>
		
			<linearGradient id="SVGID_00000060026246034198704820000014815949126135490232_" gradientUnits="userSpaceOnUse" x1="274.5685" y1="603.3951" x2="191.4085" y2="426.2751">
			<stop  offset="0" style="stop-color:#7A3636"/>
			<stop  offset="0.4686" style="stop-color:#572924"/>
			<stop  offset="1" style="stop-color:#2B190E"/>
		</linearGradient>
		<path style="fill:url(#SVGID_00000060026246034198704820000014815949126135490232_);" d="M232.58,597.44
			c-0.26-4.43-0.76-10.4-1.8-17.4c-2.65-17.76-7.17-31.26-9.72-38.16c-2.05-5.54-4.94-12.58-9-20.52c-1.92-1.56-3.84-3.12-5.76-4.68
			c-0.54-1.39-3.11-8.43,0.36-15.48c4.58-9.31,15.59-10.29,17.28-10.44c9.42-0.84,16.13,4.5,17.64,5.76
			c1.12,2.01,2.92,5.08,5.4,8.64c5.67,8.13,9.03,10.43,16.92,19.8c7.87,9.35,5.88,8.68,10.8,13.68c5.83,5.92,9.69,7.95,14.4,14.4
			c2.72,3.72,4.41,7.13,5.4,9.36c-3.13,4.01-6.92,8.19-11.52,12.24C264.89,590.58,244.48,595.62,232.58,597.44z"/>
		
			<linearGradient id="SVGID_00000119816092186152064440000003713746833355162039_" gradientUnits="userSpaceOnUse" x1="673.0118" y1="754.2511" x2="724.8517" y2="890.331">
			<stop  offset="0" style="stop-color:#7A3636"/>
			<stop  offset="0.4686" style="stop-color:#572924"/>
			<stop  offset="1" style="stop-color:#2B190E"/>
		</linearGradient>
		<path style="fill:url(#SVGID_00000119816092186152064440000003713746833355162039_);" d="M629.66,711.8
			c0.36,8.4,0.72,16.8,1.08,25.2c2.38,3.84,5.78,9.63,9.36,16.92c6.79,13.84,10.21,24.91,11.88,30.24
			c5.34,17.02,13.47,41.15,24.12,72.36c3.16,0.26,7.02,0.13,11.16-1.08c15.59-4.54,22.01-20.37,23.04-23.04
			c-1.68-1.44-3.36-2.88-5.04-4.32c-7.42-24.15-8.82-43.45-8.64-56.88c0.13-10.25,1.22-19.78-0.36-34.92
			c-1.48-14.16-4.48-25.57-6.84-33.12c-5.03-2.16-13.93-5.15-25.2-4.68C646.29,699.23,633.98,708.28,629.66,711.8z"/>
		
			<linearGradient id="SVGID_00000019638487870942197020000000872407900642450320_" gradientUnits="userSpaceOnUse" x1="690.478" y1="673.9966" x2="631.0781" y2="725.8365">
			<stop  offset="0" style="stop-color:#706F6F"/>
			<stop  offset="0.6869" style="stop-color:#4D4D4C"/>
			<stop  offset="1" style="stop-color:#3C3C3B"/>
		</linearGradient>
		<path style="fill:url(#SVGID_00000019638487870942197020000000872407900642450320_);" d="M630.38,688.76
			c-0.24,7.68-0.48,15.36-0.72,23.04c4.1-2.59,9.39-5.21,15.84-6.84c22.31-5.64,41.41,4.92,46.91,8.23
			c-0.28-7.78-0.55-15.57-0.83-23.35c-0.68-1.47-8.11-16.87-24.84-19.8C652.6,667.56,637.79,675.03,630.38,688.76z"/>
		
			<linearGradient id="SVGID_00000151523004911469749160000006338585734602869648_" gradientUnits="userSpaceOnUse" x1="232.58" y1="588.8075" x2="305.66" y2="588.8075">
			<stop  offset="0" style="stop-color:#706F6F"/>
			<stop  offset="0.6869" style="stop-color:#4D4D4C"/>
			<stop  offset="1" style="stop-color:#3C3C3B"/>
		</linearGradient>
		<path style="fill:url(#SVGID_00000151523004911469749160000006338585734602869648_);" d="M232.58,597.44
			c6.72,6.44,13.44,12.88,20.16,19.32c17.64-11.4,35.28-22.8,52.92-34.2c-0.24-2.7-1.07-7.77-4.44-12.96
			c-2.25-3.47-4.84-5.78-6.72-7.2c-5.17-1.24-18.51-3.68-33.12,2.4c-11.34,4.72-17.79,12.23-19.2,13.92
			C236.17,585.93,233.67,593.26,232.58,597.44z"/>
		
			<linearGradient id="SVGID_00000168079503445904239730000001878322864271739791_" gradientUnits="userSpaceOnUse" x1="363.0052" y1="571.1273" x2="275.5251" y2="653.2072">
			<stop  offset="0" style="stop-color:#89462D"/>
			<stop  offset="0.0499" style="stop-color:#944C30"/>
			<stop  offset="0.1573" style="stop-color:#A55435"/>
			<stop  offset="0.2911" style="stop-color:#B05A38"/>
			<stop  offset="0.4788" style="stop-color:#B75E3A"/>
			<stop  offset="1" style="stop-color:#B95F3B"/>
		</linearGradient>
		<path style="fill:url(#SVGID_00000168079503445904239730000001878322864271739791_);" d="M331.22,569.6
			c-7.44,5.64-14.88,11.28-22.32,16.92c-1.08-1.32-2.16-2.64-3.24-3.96c-5.01-0.61-14.84-1.08-25.56,3.6
			c-19.47,8.5-26.19,27.16-27.36,30.6c6.48,10.56,12.96,21.12,19.44,31.68c2.12,3.03,5.88,7.48,11.88,10.8
			c13.66,7.56,27.77,3.11,30.6,2.16c27.48-18.6,54.96-37.2,82.44-55.8c-7.8-8.68-21.78-21.71-42.84-29.88
			C345.82,572.45,337.96,570.62,331.22,569.6z"/>
		
			<linearGradient id="SVGID_00000070829433982286976800000001972223798367119241_" gradientUnits="userSpaceOnUse" x1="593.5814" y1="568.3755" x2="663.7814" y2="721.7354">
			<stop  offset="0" style="stop-color:#89462D"/>
			<stop  offset="0.0499" style="stop-color:#944C30"/>
			<stop  offset="0.1573" style="stop-color:#A55435"/>
			<stop  offset="0.2911" style="stop-color:#B05A38"/>
			<stop  offset="0.4788" style="stop-color:#B75E3A"/>
			<stop  offset="1" style="stop-color:#B95F3B"/>
		</linearGradient>
		<path style="fill:url(#SVGID_00000070829433982286976800000001972223798367119241_);" d="M556.58,625.4
			c10.97,7.85,22.73,15.81,35.28,23.76c13.62,8.62,26.87,16.4,39.6,23.4c-0.36,5.4-0.72,10.8-1.08,16.2
			c4.46-2.9,12.94-7.52,24.48-8.64c18.73-1.81,32.57,6.88,36.72,9.72c0-9.48,0-18.96,0-28.44c0.79-3.03,1.58-7.63,0.72-12.96
			c-1.66-10.27-8.13-14.95-16.92-27.36c-6.29-8.88-4.53-8.68-12.6-21.6c-4.43-7.1-11.22-17.19-20.88-28.8
			c-23.06-8.91-38.43-3.3-42.84-1.44c-20.79,8.76-31.81,32.56-39.24,48.6C558.37,620.95,557.29,623.59,556.58,625.4z"/>
		
			<linearGradient id="SVGID_00000110470326168603438950000004466555988284668563_" gradientUnits="userSpaceOnUse" x1="641.05" y1="176.96" x2="872.9" y2="176.96">
			<stop  offset="0" style="stop-color:#89462D"/>
			<stop  offset="0.0499" style="stop-color:#944C30"/>
			<stop  offset="0.1573" style="stop-color:#A55435"/>
			<stop  offset="0.2911" style="stop-color:#B05A38"/>
			<stop  offset="0.4788" style="stop-color:#B75E3A"/>
			<stop  offset="1" style="stop-color:#B95F3B"/>
		</linearGradient>
		<path style="fill:url(#SVGID_00000110470326168603438950000004466555988284668563_);" d="M646.51,210.68
			c12.26-4.52,24.53-9.04,36.79-13.56c5.92-4.96,11.84-9.92,17.76-14.88c15.08-5.57,27.72-8.96,36.48-11.04
			c26.49-6.28,40.3-5.86,61.92-14.88c9.76-4.07,17.29-8.48,22.08-11.52c3.84-8.64,7.68-17.28,11.52-25.92
			c2.4-0.48,4.8-0.96,7.2-1.44c1.62-2.42,3.52-5.01,5.76-7.68c1.96-2.34,3.91-4.42,5.76-6.24c2.74,0.75,7.1,2.33,11.52,5.76
			c5.49,4.27,8.31,9.26,9.6,12c-0.48,4.16-0.96,8.32-1.44,12.48c-0.42,0.18-3.17,1.3-5.28,0c-2.46-1.51-3.39-5.87-0.96-9.84
			c-4.11-3.46-5.81-2.74-6.2-2.53c-0.9,0.49-1,1.55-2.45,5.41c-0.59,1.56-1.11,2.82-1.44,3.6c4.59,1.83,10.22,7.42,15.84,10.56
			c1.64,0.92,2.28,2.95,1.5,4.56c-0.72,1.49-2.48,2.28-4.14,1.8c-3.28-0.52-6.56-1.04-9.84-1.56c-3.2,4-6.4,8-9.6,12
			c-9.12,3.36-18.24,6.72-27.36,10.08c-22.72,14.4-45.44,28.8-68.16,43.2c-8.28,2.65-16.6,5.37-24.96,8.16
			c-30.03,10.02-59.15,20.45-87.36,31.2C642.87,237.16,644.69,223.92,646.51,210.68z"/>
		
			<linearGradient id="SVGID_00000088846400136389781120000012910366435096005527_" gradientUnits="userSpaceOnUse" x1="413.2216" y1="275.0203" x2="189.6616" y2="427.3002">
			<stop  offset="0" style="stop-color:#89462D"/>
			<stop  offset="0.0499" style="stop-color:#944C30"/>
			<stop  offset="0.1573" style="stop-color:#A55435"/>
			<stop  offset="0.2911" style="stop-color:#B05A38"/>
			<stop  offset="0.4788" style="stop-color:#B75E3A"/>
			<stop  offset="1" style="stop-color:#B95F3B"/>
		</linearGradient>
		<path style="fill:url(#SVGID_00000088846400136389781120000012910366435096005527_);" d="M373.15,282.61
			c-10.86,9.42-21.71,18.85-32.57,28.27c-7.03,1.39-17.44,4.14-28.8,10.08c-17.98,9.41-26.31,20.53-41.76,35.04
			c-9.33,8.76-23.37,20.74-42.72,33.12c-10.88,0.48-21.76,0.96-32.64,1.44c-10.88,6.08-21.76,12.16-32.64,18.24
			c3.04,5.92,6.08,11.84,9.12,17.76c5.44,1.76,10.88,3.52,16.32,5.28c2.57-3.2,2.92-7.47,0.96-10.56c-2.03-3.19-5.66-3.76-6.24-3.84
			c3.2-3.36,6.4-6.72,9.6-10.08c4.96,0,9.92,0,14.88,0c0.48,2.72,0.96,5.44,1.44,8.16c-1.11,0.61-7.27,4.09-9.12,11.52
			c-1.14,4.57-0.1,8.39,0.48,10.08c1.26-1.24,3.34-3.09,6.24-4.8c3.94-2.32,6.84-2.87,12.48-4.8c2.44-0.84,6.06-2.15,10.41-4.07
			c6.77-6.32,13.54-12.65,20.31-18.97c5.26-3.46,13.42-8.37,24-12.96c14.17-6.14,25.1-8.41,29.76-9.6
			c13.33-3.39,32.22-12.42,55.2-37.92c17.6-11.2,35.2-22.4,52.8-33.6c0.15-3,0.15-11.1-5.28-18.24
			C398.51,283.13,385.77,279.34,373.15,282.61z"/>
		
			<linearGradient id="SVGID_00000137095898102730986130000000845043110704243633_" gradientUnits="userSpaceOnUse" x1="567.7357" y1="646.4973" x2="608.7755" y2="629.2173">
			<stop  offset="0" style="stop-color:#89462D"/>
			<stop  offset="1" style="stop-color:#89462D;stop-opacity:0"/>
		</linearGradient>
		<path style="fill:url(#SVGID_00000137095898102730986130000000845043110704243633_);" d="M582.98,588.8
			c6.52,6.24,13.46,13.85,20.16,23.04c16.36,22.45,24.27,44.74,28.32,60.72c-10.47-8.27-19.52-14.39-25.92-18.48
			c-16.47-10.54-26.45-14.75-37.92-26.88c-7.18-7.59-12.5-13.38-11.52-20.16C557.32,598.54,568.04,591.46,582.98,588.8z"/>
		<path class="st15" d="M480.7,576.4c-0.03,0.03-0.05,0.07-0.08,0.1c1.15-0.43,2.3-0.87,3.45-1.31c0.26-0.79,0.55-1.57,0.85-2.33
			C483.43,573.97,482.02,575.14,480.7,576.4z"/>
		<path class="st16" d="M550.7,525.4c-22.86,11.89-55.73,22.11-65.79,47.47C507.07,556.39,546.01,555.39,550.7,525.4z"/>
		
			<linearGradient id="SVGID_00000136377820193900387650000006697188386543770251_" gradientUnits="userSpaceOnUse" x1="478.8221" y1="526.5656" x2="453.9821" y2="399.1256">
			<stop  offset="0" style="stop-color:#FF8939"/>
			<stop  offset="0.1623" style="stop-color:#F07B37"/>
			<stop  offset="0.4652" style="stop-color:#D96733"/>
			<stop  offset="0.751" style="stop-color:#CB5B31"/>
			<stop  offset="1" style="stop-color:#C65730"/>
		</linearGradient>
		<path style="fill:url(#SVGID_00000136377820193900387650000006697188386543770251_);" d="M641.54,566.72
			c-17.18-23.79-38.13-38.09-53.64-46.44c-4.32-7.56-8.64-15.12-12.96-22.68c0.56-3.72,0.23-6.93-0.72-9.72
			c-12.57-37.04-140.93-22.63-159.48-20.44c-4.2,6.21-8.4,12.42-12.6,18.64c-11.54,9.55-23.42,19.16-35.64,28.8
			c-14.5,11.44-28.85,22.43-43,32.97c-0.45,4.06-2.93,29.83,15.28,49.47c13.6,14.67,31.54,18.64,36.36,19.08
			c3.96,0.36,7.92,0.72,11.88,1.08c4.26-3.04,9.3-6.26,15.13-9.33c5.43-2.86,10.57-5.09,15.2-6.82c9.23-3.75,18.55-7.49,27.98-11.21
			c11.86-4.67,23.61-9.21,35.28-13.62c1.32-0.5,2.64-1,3.96-1.5c4.45,5.92,10.72,13.89,18.72,22.92
			c8.04,9.07,16.17,18.2,28.32,28.32c5.61,4.67,10.69,8.39,14.77,11.22c2.56-4.72,6.61-8.7,10.58-11.76
			c-0.13-0.1-0.26-0.19-0.39-0.29c4.96-6.73,34.81-46.04,77.04-44.28c5.55,0.23,11.99,1.2,19.08,3.6
			C649.65,578.93,645.98,572.86,641.54,566.72z"/>
		
			<linearGradient id="SVGID_00000052791865427735403290000012074024633091955611_" gradientUnits="userSpaceOnUse" x1="484.7711" y1="363.3804" x2="694.291" y2="348.2604">
			<stop  offset="0" style="stop-color:#2D2929"/>
			<stop  offset="0.0614" style="stop-color:#352F2F"/>
			<stop  offset="0.21" style="stop-color:#403838"/>
			<stop  offset="0.4192" style="stop-color:#473D3D"/>
			<stop  offset="1" style="stop-color:#493E3E"/>
		</linearGradient>
		<path style="fill:url(#SVGID_00000052791865427735403290000012074024633091955611_);" d="M570.26,230.84
			c-16.32-10.96-36.7-12.37-52.56-3.44c-15.5,8.72-20.75,23.97-22,28c-3,2-6,5-7,7c-6,12-3,27-7,38c-5,13-18,23-30,32
			c12,19,9,41,15,62c6.8,24.65-3.74,51.47-15.04,76.77c7.63,1.23,15.62,2.81,23.92,4.83c21.45,5.22,39.68,12.09,54.36,18.72
			c6.61,1.25,15.64,2.27,26.28,1.44c10.02-0.78,18.34-2.95,24.48-5.04c4.34-26.41,6.64-47.82,7.92-61.92
			c2.93-32.26,1.83-40.89,5.76-86.04c1.43-16.42,3.8-40.83,3.96-42.48c1.39-14.28,2.61-26.28,3.52-35.04c1.01-0.2,2.04-0.4,3.06-0.6
			c-2.16-4.43-5.28-9.74-9.82-15.12C586.39,239.59,576.62,233.87,570.26,230.84z"/>
		
			<linearGradient id="SVGID_00000079457536110751369020000016208510095644204470_" gradientUnits="userSpaceOnUse" x1="509.3024" y1="250.1839" x2="499.9424" y2="129.2239">
			<stop  offset="0" style="stop-color:#FF8939"/>
			<stop  offset="0.1623" style="stop-color:#F07B37"/>
			<stop  offset="0.4652" style="stop-color:#D96733"/>
			<stop  offset="0.751" style="stop-color:#CB5B31"/>
			<stop  offset="1" style="stop-color:#C65730"/>
		</linearGradient>
		<path style="fill:url(#SVGID_00000079457536110751369020000016208510095644204470_);" d="M650.54,231.92
			c-0.69-10.64-3.18-19.27-5.4-25.2c-4.44,1.06-11.34,2.32-19.8,2.16c-9.6-0.18-15.51-2.07-28.44-4.68c0,0-5.94-1.2-25.92-4.32
			c-31.8-4.97-75.62-4.64-83.59-4.57c-10.13,5.32-18.74,7.88-24.77,9.25c-5.86,1.32-7.4,1.08-15.12,2.88
			c-6.77,1.58-13.76,3.2-21.6,6.84c-3.03,1.41-10.99,5.04-18.36,11.88c-10.5,9.75-11.22,17.2-21.6,33.12
			c-3.52,5.41-8.99,13.06-16.92,21.6c5.07,1.91,13.49,5.83,21.6,13.68c8.9,8.61,13.16,17.84,15.12,23.04
			c8.5-4.88,16.99-9.76,25.49-14.64c0.4,1.4,0.81,2.8,1.21,4.2c1.7,6.99,3.4,13.97,5.1,20.96c0.94,3.86,1.88,7.72,2.82,11.57
			c4.71-0.98,9.61-1.42,14.52-1.5c-0.92-1.96-1.97-3.89-3.17-5.79c12-9,25-19,30-32c4-11,1-26,7-38c1-2,4-5,7-7
			c1.8-5.3,7.48-19.68,22-28c24-13.74,51.07,1.16,56.52,4.16c18.4,10.13,27.22,26.04,30.7,33.48c3.76-0.74,7.56-1.47,11.42-2.16
			c10.96-1.97,21.65-3.64,32.04-5.04C649.84,251.63,651.23,242.67,650.54,231.92z"/>
		<path class="st16" d="M440.7,271.4c-1-6-10-15-12-9c-3.47,12.16,2.1,26.57,1.66,40.64c0.31-0.19,0.63-0.37,0.94-0.56
			c0.38,1.56,0.76,3.12,1.14,4.68C439.18,296.34,444.23,284.65,440.7,271.4z"/>
		
			<linearGradient id="SVGID_00000004505881465655294930000003832836431285385345_" gradientUnits="userSpaceOnUse" x1="461.4935" y1="294.285" x2="388.7735" y2="369.1649">
			<stop  offset="0" style="stop-color:#FF8939"/>
			<stop  offset="0.1623" style="stop-color:#F07B37"/>
			<stop  offset="0.4652" style="stop-color:#D96733"/>
			<stop  offset="0.751" style="stop-color:#CB5B31"/>
			<stop  offset="1" style="stop-color:#C65730"/>
		</linearGradient>
		<path style="fill:url(#SVGID_00000004505881465655294930000003832836431285385345_);" d="M463.7,291.4
			c-11.14,4.28-21.53,10.04-31.2,16c1.68,6.91,3.36,13.81,5.04,20.72c0.73-0.19,1.45-0.42,2.16-0.72
			C453.7,321.4,468.7,308.4,463.7,291.4z"/>
		<path class="st21" d="M453.98,395.72c-7.2,12.25-14.4,24.61-21.6,37.08c-6.68,11.56-13.28,23.09-19.8,34.56
			c11.42,0.39,24.6,1.47,39.08,3.81c11.3-25.3,21.84-52.12,15.04-76.77c-5.4-18.9-3.52-38.6-11.83-56.21
			c-4.91,0.08-9.81,0.51-14.52,1.5C444.89,358.37,449.43,377.04,453.98,395.72z"/>
		<g id="Слой_4">
			<g>
				<g>
					<path class="st15" d="M503.3,231.2c-8.34,8.59-15.57,16.04-18.72,26.88c-1.98,6.82-0.66,9.16-3.84,16.32
						c-2.08,4.67-3.63,5.91-3.84,9.6c-0.3,5.26,2.61,7.16,2.4,12.48c-0.15,3.86-1.84,6.62-3.36,9.12
						c-3.16,5.19-8.98,12.85-32.64,28.8c-1.61,1.09-2.92,1.95-3.64,2.43c0.69,2.82,1.37,5.64,2.06,8.47
						c2.13-0.91,4.26-1.82,6.39-2.74c4.67,11.37,7.87,21.36,10.08,29.28c0.2,0.71,0.14,0.53,5.76,26.4c0.52,2.38,1,4.6,0.96,7.68
						c-0.07,5.62-1.81,8.24-3.36,15.36c-1.05,4.83-0.56,5.07-1.44,10.08c-0.64,3.67-1.66,7.85-5.76,18.72
						c-2.24,5.93-5.24,13.44-9.12,22.08c3.52,0.8,7.04,1.6,10.56,2.4c4.64-13.92,9.28-27.84,13.92-41.76
						c-0.32-2.87-0.48-7.52,0.96-12.96c1.48-5.6,4.02-9.65,5.76-12c-5.76-24.48-11.52-48.96-17.28-73.44
						c4.87-5.05,9.85-10.48,14.88-16.32c4.65-5.39,8.96-10.69,12.96-15.84c0.52-2.79,0.94-6.2,0.96-10.08
						c0.02-4.09-0.42-7.66-0.96-10.56c1.62-7.05,4.9-17.59,12-28.8c6.84-10.8,14.61-18.1,20.16-22.56
						c-2.72-2.08-5.44-4.16-8.16-6.24C509.04,225.64,506.33,228.07,503.3,231.2z"/>
					<path class="st15" d="M586.82,234.44c-7.38-5.59-14.59-8.91-20.16-10.92c-1.28,2.24-2.56,4.48-3.84,6.72
						c6.55,4.35,13.91,9.87,21.48,16.8c7.05,6.46,12.85,12.82,17.56,18.6c2.84-0.55,5.67-1.1,8.51-1.65
						C607.16,256.99,600.3,244.65,586.82,234.44z"/>
				</g>
			</g>
			<g>
				
					<linearGradient id="SVGID_00000082365385464267429900000003275140174274036913_" gradientUnits="userSpaceOnUse" x1="357.8316" y1="552.4335" x2="389.3368" y2="552.4335" gradientTransform="matrix(0.7344 0.6788 -0.6788 0.7344 484.0952 -107.4307)">
					<stop  offset="0" style="stop-color:#9D9D9C"/>
					<stop  offset="0.056" style="stop-color:#A5A5A4"/>
					<stop  offset="0.3125" style="stop-color:#C4C4C4"/>
					<stop  offset="0.5607" style="stop-color:#DBDBDB"/>
					<stop  offset="0.7947" style="stop-color:#E8E8E8"/>
					<stop  offset="1" style="stop-color:#EDEDED"/>
				</linearGradient>
				<path style="fill:url(#SVGID_00000082365385464267429900000003275140174274036913_);" d="M352.74,561.9l3.13-3.39l7.73-0.65
					c18.41-1.36,27.47-2.76,33.2-8.86c3.83-4.14,5.58-9.62,0.17-14.61c-3.29-3.04-7.76-3.68-10.88-3.66l2.03-5.33
					c4.71-0.07,9.9,1.48,14.08,5.34c7.8,7.21,5.53,16.28,0.14,22.11c-6.96,7.53-17.43,9.13-32.72,10.35l-5.68,0.33l-0.12,0.13
					l16.28,15.05l-4.23,4.58L352.74,561.9z"/>
			</g>
		</g>
		<path class="st21" d="M493.76,185.3c-4.44,3.3-8.88,6.6-13.32,9.9c6.58,14.93,15.92,23.21,20.88,27
			c15.9,12.15,39.21,18.16,57.42,10.44c4.19-1.77,12.02-5.1,14.94-13.14c2.68-7.38-0.35-14.45-1.44-16.74
			C546.08,196.94,519.92,191.12,493.76,185.3z"/>
		
			<linearGradient id="SVGID_00000175299051075327731530000015314196509882761879_" gradientUnits="userSpaceOnUse" x1="543.1339" y1="189.2879" x2="513.8539" y2="219.5279">
			<stop  offset="0" style="stop-color:#38160D"/>
			<stop  offset="0.4865" style="stop-color:#5D2C1C"/>
			<stop  offset="1" style="stop-color:#89462D"/>
		</linearGradient>
		<path style="fill:url(#SVGID_00000175299051075327731530000015314196509882761879_);" d="M513.38,165.86
			c-2.86,6.08-6.92,12.87-12.78,19.44c-1.2,1.34-2.4,2.6-3.6,3.78c1.07,3.8,6.62,21.97,25.02,32.04
			c13.96,7.64,35.11,10.5,39.19,3.43C564.57,218.72,557.56,204.08,513.38,165.86z"/>
		
			<linearGradient id="SVGID_00000039834909771206025090000001732070778144534173_" gradientUnits="userSpaceOnUse" x1="567.5287" y1="624.4919" x2="553.3087" y2="636.7319">
			<stop  offset="0" style="stop-color:#FF8939"/>
			<stop  offset="1" style="stop-color:#C65730"/>
		</linearGradient>
		<path style="fill:url(#SVGID_00000039834909771206025090000001732070778144534173_);" d="M546.38,637.45
			c0.97,0.67,1.9,1.31,2.75,1.87c2.88-0.39,6.43-1.12,10.32-2.53c3.17-1.14,5.86-2.48,8.04-3.73c-3.64-2.56-7.28-5.11-10.92-7.67
			c-1.7,1.51-3.56,3.35-5.43,5.55C549.2,633.25,547.63,635.46,546.38,637.45z"/>
		<path class="st25" d="M484.06,575.19c6.32-4.23,20.18-12.16,38.92-12.32c8.08-0.07,14.95,1.33,20.16,2.88
			c-6.33,1.15-12.73,2.28-19.2,3.36C510.4,571.38,497.11,573.4,484.06,575.19z"/>
		
			<linearGradient id="SVGID_00000020368288998023635020000002454505769474153611_" gradientUnits="userSpaceOnUse" x1="306.6597" y1="578.4636" x2="276.8997" y2="606.7836">
			<stop  offset="0" style="stop-color:#89462D"/>
			<stop  offset="0.8281" style="stop-color:#89462D;stop-opacity:0"/>
		</linearGradient>
		<path style="fill:url(#SVGID_00000020368288998023635020000002454505769474153611_);" d="M308.9,586.52
			c-4.25,2.68-9.48,6.58-14.64,12.12c-7.54,8.11-11.79,16.36-14.16,22.08c-1.36-6.4-2.36-15.12-0.96-25.2
			c0.5-3.6,1.23-6.88,2.07-9.82c3.56-1.41,8.56-2.94,14.68-3.39c3.72-0.28,7.03-0.1,9.77,0.25l0,0
			C306.74,583.88,307.82,585.2,308.9,586.52z"/>
		<g class="st27">
			<path class="st28" d="M453.98,395.72c40.35-60.85,52.62-74.5,55.08-73.08c2.41,1.39-4.3,17.4-8.64,25.92
				C486.46,375.94,464.37,390.01,453.98,395.72z"/>
			<path class="st28" d="M453.98,395.72c12.01,5.42,22.12,7.44,29.16,8.28c15.06,1.79,25.16-0.75,33.12,6.48
				c3.7,3.36,7.34,9.2,5.76,11.52C519.68,425.44,505.06,422.29,453.98,395.72z"/>
			<path class="st28" d="M453.98,395.72c29.5,25.11,33.82,33.47,32.04,36.36c-2.59,4.21-21.61,2.43-30.23-10.94
				C448.33,409.56,453.5,396.83,453.98,395.72z"/>
			<path class="st28" d="M573.14,399.68c-10.34,12.94-27.27,30.47-52.56,43.92c-9.72,5.17-19.01,8.86-27.36,11.52
				c6.4,0.75,26.5,2.26,46.8-10.08C565.02,429.83,571.85,404.84,573.14,399.68z"/>
		</g>
		<path class="st29" d="M402.14,486.08c-6.79,19.5-14.75,40.07-24.12,61.44c-6.6,15.05-13.36,29.29-20.16,42.72
			c0.45-11.78,2.33-27.34,8.16-44.64C375.74,516.72,391.72,496.99,402.14,486.08z"/>
		<path class="st16" d="M601.86,265.64c0.61-6.5,0.76-17.39-3.52-29.76c-2.68-7.75-6.31-13.76-9.36-18
			c3.06,1.2,10.74,4.71,15.48,12.96C610.37,241.14,609.29,254.65,601.86,265.64z"/>
		<path class="st30" d="M639.02,216.44c-3.14,7.97-7.79,17.49-14.76,27.36c-3.61,5.1-7.28,9.53-10.8,13.32
			c3.81-1.65,10.5-5.17,16.2-12.24C639,233.29,639.13,220.3,639.02,216.44z"/>
		<path class="st31" d="M469.7,233.12c-0.88-0.12-1.18,6.68-6.24,21.12c-8.19,23.36-18.38,36.8-16.8,37.92
			c1.16,0.82,8.14-5.37,13.44-13.44C473.44,258.4,471.37,233.35,469.7,233.12z"/>
		<path class="st32" d="M445.22,472.16c-2.11,1.65,6.43,24.24,26.4,35.52c18.3,10.33,39.87,7.59,40.32,5.04
			c0.38-2.15-14.39-3.18-33.84-14.4C456,485.57,447.04,470.73,445.22,472.16z"/>
	</g>
	<g id="Слой_2_00000072990423902967101460000018320694920243943569_">
		
			<linearGradient id="SVGID_00000090295991364748501810000003743226400836765095_" gradientUnits="userSpaceOnUse" x1="505.46" y1="173.6265" x2="600.5" y2="173.6265">
			<stop  offset="0" style="stop-color:#89462D"/>
			<stop  offset="0.0499" style="stop-color:#944C30"/>
			<stop  offset="0.1573" style="stop-color:#A55435"/>
			<stop  offset="0.2911" style="stop-color:#B05A38"/>
			<stop  offset="0.4788" style="stop-color:#B75E3A"/>
			<stop  offset="1" style="stop-color:#B95F3B"/>
		</linearGradient>
		<path style="fill:url(#SVGID_00000090295991364748501810000003743226400836765095_);" d="M512.06,140.24
			c3.69,12.32,4.92,22.4,5.88,30.48c0.77,6.53,1.13,12,1.32,15.84c2.78,5.79,5.66,10.33,7.92,13.56c3.7,5.3,8.86,12.54,17.88,18.84
			c3.33,2.32,6.31,3.91,8.4,4.92c3.64,1.84,7.98,1.41,11.04-1.08c4.2-3.41,3.64-8.78,3.6-9.12c3.48-6.35,7.01-10.98,9.6-14.04
			c6.13-7.24,10.19-9.47,13.2-15.84c2.43-5.15,2.81-10.1,2.76-13.44c1.84-2.36,3.68-4.72,5.52-7.08c0.44-8.32,0.88-16.64,1.32-24.96
			c-17.48-5.36-34.96-10.72-52.44-16.08c-14.2,0.08-28.4,0.16-42.6,0.24C508.63,129.59,510.71,135.73,512.06,140.24z"/>
		
			<linearGradient id="SVGID_00000036240276148209106830000013190381691580458935_" gradientUnits="userSpaceOnUse" x1="555.6928" y1="132.7307" x2="555.2128" y2="171.1307">
			<stop  offset="0" style="stop-color:#432918"/>
			<stop  offset="1" style="stop-color:#432918;stop-opacity:0"/>
		</linearGradient>
		<path style="opacity:0.54;fill:url(#SVGID_00000036240276148209106830000013190381691580458935_);enable-background:new    ;" d="
			M506.18,133.28c1.9,0.17,6.87,0.87,11.04,4.8c7.7,7.25,5.17,18.44,5.04,18.96c2.16,1.6,4.32,3.2,6.48,4.8c0.8-3.2,1.6-6.4,2.4-9.6
			c4.08-2.88,8.16-5.76,12.24-8.64c1.35-1.76,3.06-4.4,4.32-7.92c1.58-4.43,1.76-8.33,1.68-10.8c5.4-0.95,16.64-2.18,29.76,2.16
			c13.7,4.53,22.21,12.74,25.92,16.8c-1.86-3.48-4.86-8.19-9.6-12.72c-19.92-19.02-49.27-14.42-54-13.68
			C524.76,120.05,512.75,128.01,506.18,133.28z"/>
		
			<linearGradient id="SVGID_00000119083500626367893240000015867644430200471731_" gradientUnits="userSpaceOnUse" x1="539.6135" y1="57.2743" x2="565.5336" y2="155.1943">
			<stop  offset="0" style="stop-color:#B85F3B"/>
			<stop  offset="0.0261" style="stop-color:#AA5836"/>
			<stop  offset="0.0989" style="stop-color:#88472C"/>
			<stop  offset="0.1797" style="stop-color:#6B3922"/>
			<stop  offset="0.269" style="stop-color:#532D1B"/>
			<stop  offset="0.3706" style="stop-color:#412415"/>
			<stop  offset="0.4916" style="stop-color:#351E11"/>
			<stop  offset="0.6511" style="stop-color:#2D1A0F"/>
			<stop  offset="1" style="stop-color:#2B190E"/>
		</linearGradient>
		<path style="fill:url(#SVGID_00000119083500626367893240000015867644430200471731_);" d="M553.94,125.84
			c-0.22,3.26-2.74,5.32-4.8,5.04c-1.36-0.18-2.52-1.37-3.12-2.88c-0.14,0.2-2.77,3.97-6.72,3.6c-1.4-0.13-2.47-0.74-3.12-1.2
			c-0.19,2.43-1.58,4.47-3.6,5.28c-1.31,0.52-3.46,0.76-4.8-0.48c-1.58-1.47-1.66-4.68,0.48-7.2c-2.93,1.02-5.21,1.21-6.72,1.2
			c-1.36-0.01-3.73-0.19-4.32-0.24c-1.09-0.08-2-0.17-2.64-0.24c0.16,0.1,2.61,1.59,2.4,3.36c-0.13,1.06-1.15,1.74-2.88,2.88
			c-1.4,0.92-1.89,0.99-3.02,1.65c-2.97,1.72-4.58,4.1-4.87,4.54c-1.34,2.05-1.79,3.99-1.95,4.85c-0.56,3.01,0.06,5.47,0.48,6.72
			c-3.06,3.06-4.98,4.34-5.76,3.84c-0.94-0.6-0.22-3.8,2.16-9.6c0.87-1.59,1.74-3.18,2.61-4.77c-1.69,1.33-2.84,2.58-3.6,3.51
			c-1,1.22-1.59,2.22-2.43,2.16c-0.93-0.06-1.49-1.35-1.53-1.44c-0.58-1.38,0.02-3.19,1.44-4.68c-0.46,0.29-1.16,0.74-1.98,1.35
			c-1.18,0.88-1.51,1.26-1.98,1.17c-0.85-0.16-1.2-1.7-1.26-1.98c-0.31-1.38,0.16-2.57,0.45-3.15c-0.33,0.3-0.83,0.69-1.53,0.99
			c-0.22,0.1-2.3,0.99-3.15,0.18c-0.65-0.61-0.3-1.94-0.09-2.7c0.39-1.41,1.5-4.23,5.31-7.2c-2.28,0.19-3.63-0.11-4.05-0.9
			c-0.75-1.4,1.38-4.34,6.39-8.82c0.27-0.6,0.54-1.2,0.81-1.8c-2.89,0.55-5.1-1.12-5.22-2.52c-0.12-1.34,1.6-3.24,4.32-3.42
			c-0.32-0.5-0.85-1.21-1.71-1.8c-2.53-1.75-4.84-0.38-7.65-2.07c-0.39-0.23-2.39-1.44-2.25-2.7c0.08-0.73,0.91-1.8,6.66-3.06
			c3.15-0.69,7.66-1.42,13.32-1.44c-0.11-0.19-2.36-4.08-1.17-5.22c0.16-0.15,0.6-0.46,2.88,0c2.07,0.42,3.77,1.09,5.04,1.71
			c0.19-0.69,0.37-1.73,0.09-2.88c-0.8-3.25-4.45-3.85-5.31-7.02c-0.21-0.78-0.32-1.96,0.27-3.6c-2.25-1.69-3.12-3.72-2.52-4.77
			c0.45-0.77,1.62-0.88,1.89-0.91c2.38-0.22,3.97,2.23,4.05,2.35c1.14-0.4,3.13-0.92,5.58-0.63c4.25,0.5,6.93,3.1,7.74,3.96
			c-1.72-1.91-3.49-3.83-5.31-5.76c-0.63-0.67-1.26-1.33-1.89-1.98c-0.93-1.2-1.32-2.57-0.81-3.33c0.75-1.13,3.16-0.51,4.32,0
			c2.01,0.89,2.93,2.66,3.24,3.33c-0.15-0.37-0.44-1.23-0.09-2.07c0,0,0.53-1.29,2.25-1.62c3.14-0.61,8.01,10.16,9.09,12.6
			c-1.85-3.31-2.29-6-1.26-6.84c0.67-0.55,1.8-0.2,2.16-0.09c1.8,0.55,3.1,2.44,3.42,4.86c0.42-0.7,1.06-1.91,1.44-3.51
			c0.97-4.03-0.67-6.37,0.99-8.73c0.19-0.27,1.37-1.89,2.7-1.62c1.27,0.25,1.77,2.04,1.8,2.16c0.93-1.43,1.64-1.64,2.07-1.62
			c2.24,0.12,3.41,6.97,3.6,8.1c1.15-7.81,2.42-9.92,3.51-9.99c1.1-0.07,2.38,1.9,2.88,3.33c0.52,1.51,0.31,2.83,0.18,3.42
			c1.2-1.74,3.31-2.18,4.59-1.35c1.25,0.81,1.26,2.56,1.26,2.7c1.33-1.45,3.37-2.02,5.22-1.44c1.73,0.54,3.04,1.99,3.42,3.78
			c3.05-0.52,4.39-1.69,5.04-2.7c0.88-1.37,0.67-2.68,1.71-3.15c0.94-0.42,2.41,0.08,3.15,1.17c0.92,1.36,0.22,2.89,0.18,2.97
			c0.91-1.22,2.35-1.75,3.51-1.35c1.55,0.53,1.85,2.43,1.89,2.7c0.29,1.83-0.83,3.79-2.79,5.04c0.94-0.36,2.4-1.03,3.78-2.34
			c2.01-1.91,2.55-3.93,3.69-3.87c0.89,0.05,1.5,1.34,1.8,1.98c1.54,3.28,0.48,6.89-0.18,8.64c2.07-1.24,4.27-0.59,4.86,0.63
			c0.57,1.19-0.49,2.72-0.54,2.79c2.13-0.25,4.18,0.98,4.95,2.97c0.78,2.02,0.08,4.34-1.71,5.58c8.13-4.25,12.9-5.57,14.31-3.96
			c0.84,0.96,0.48,2.97-1.08,6.03c3.63-0.28,6.75,2.23,7.2,5.4c0.37,2.57-1.07,5.25-3.6,6.57c4.49,1.6,7.12,1.21,8.73,0.45
			c0.5-0.23,1.29-0.69,1.8-0.36c0.87,0.56,0.81,3.3-0.54,4.86c-2.51,2.91-9.45,1.71-9.45,1.71c-1.85-2.13,3.81,4.25,5.13,6.75
			c0.84,1.58,2.1,3.96,1.17,5.13c-0.59,0.75-1.83,0.68-2.52,0.63c-4.18-0.29-6.82-4.19-7.2-3.87c-0.27,0.23,0.75,2.59,2.88,4.5
			c1.89,1.69,3.28,1.81,3.69,3.24c0.3,1.04,0.02,2.57-0.9,3.15c-2.4,1.51-8.16-4.15-8.91-3.33c-0.28,0.31,0.54,1.08,0.99,2.7
			c0.81,2.89-0.17,6.26-1.17,6.39c-0.49,0.06-1.27-0.61-2.52-3.87c0.66,1.42,0.5,3-0.36,3.87c-1.2,1.22-3.85,1.12-5.4-0.9
			c2.55,0.96,4.05,3.02,3.78,4.5c-0.32,1.76-3.33,3.54-6.95,2.4c0.13-3.98,0.25-7.96,0.38-11.94c-4.93,0.37-11.51,0.3-18.99-1.35
			C568.13,136.07,558.93,129.84,553.94,125.84z"/>
		<path class="st36" d="M502.46,148.16c0.84,1.58,2.14,4.19,3.36,7.56c2.3,6.37,2.18,9.52,4.92,12.12c1.18,1.12,3.29,2.52,7.2,2.88
			c0.72-1.77,1.69-4.31,2.64-7.44c0.92-3.01,1.44-4.73,1.76-6.82c0.32-2.09,1.13-7.46-1.36-13.11c-1.01-2.28-3.29-7.46-7.55-7.96
			c-2.56-0.3-4.65,1.22-5.69,1.98C503,140.82,502.53,146.87,502.46,148.16z"/>
		
			<linearGradient id="SVGID_00000075157683351443045840000006654761371369426840_" gradientUnits="userSpaceOnUse" x1="410.0243" y1="241.9572" x2="377.3843" y2="308.6772">
			<stop  offset="0" style="stop-color:#9D9D9C"/>
			<stop  offset="0.056" style="stop-color:#A5A5A4"/>
			<stop  offset="0.3125" style="stop-color:#C4C4C4"/>
			<stop  offset="0.5607" style="stop-color:#DBDBDB"/>
			<stop  offset="0.7947" style="stop-color:#E8E8E8"/>
			<stop  offset="1" style="stop-color:#EDEDED"/>
		</linearGradient>
		<path style="fill:url(#SVGID_00000075157683351443045840000006654761371369426840_);" d="M393.61,297.66
			c3.41-3.65,8.11-9.17,12.73-16.55c6.74-10.78,12.27-19.61,9.6-28.8c-1.4-4.8-5.36-10.82-10.08-11.04
			c-4.63-0.22-6.52,5.29-16.8,19.2c-10.25,13.86-16.08,18.82-14.12,22.99c1.19,2.54,3.99,2.07,10.07,6.28
			C389.13,292.59,391.94,295.64,393.61,297.66z"/>
		
			<linearGradient id="SVGID_00000065072545712213011800000002307601032890288295_" gradientUnits="userSpaceOnUse" x1="544.3802" y1="260.9872" x2="532.1739" y2="285.9385">
			<stop  offset="0" style="stop-color:#9D9D9C"/>
			<stop  offset="0.056" style="stop-color:#A5A5A4"/>
			<stop  offset="0.3125" style="stop-color:#C4C4C4"/>
			<stop  offset="0.5607" style="stop-color:#DBDBDB"/>
			<stop  offset="0.7947" style="stop-color:#E8E8E8"/>
			<stop  offset="1" style="stop-color:#EDEDED"/>
		</linearGradient>
		<path style="fill:url(#SVGID_00000065072545712213011800000002307601032890288295_);" d="M560.14,268.99
			c-3.97,1.51-10.5,3.43-18.72,3.36c-9.07-0.08-16.13-2.55-20.16-4.32c0.64,1.3,4.96,9.74,14.4,12
			C544.67,282.19,554.64,277.81,560.14,268.99z"/>
		
			<linearGradient id="SVGID_00000031197325414393111910000003905254551383927181_" gradientUnits="userSpaceOnUse" x1="565.2191" y1="271.1699" x2="550.3817" y2="301.499">
			<stop  offset="0" style="stop-color:#9D9D9C"/>
			<stop  offset="0.056" style="stop-color:#A5A5A4"/>
			<stop  offset="0.3125" style="stop-color:#C4C4C4"/>
			<stop  offset="0.5607" style="stop-color:#DBDBDB"/>
			<stop  offset="0.7947" style="stop-color:#E8E8E8"/>
			<stop  offset="1" style="stop-color:#EDEDED"/>
		</linearGradient>
		<path style="fill:url(#SVGID_00000031197325414393111910000003905254551383927181_);" d="M565.9,271.87
			c-0.8-0.15-1.15,4.46-4.8,9.6c-3.82,5.39-9.13,8.36-13.44,10.08c5.14,2.1,10.9,1.39,14.88-1.92
			C569.84,283.56,567.12,272.1,565.9,271.87z"/>
		
			<linearGradient id="SVGID_00000088120321315940716960000006916541544259973506_" gradientUnits="userSpaceOnUse" x1="490.82" y1="249.92" x2="490.82" y2="249.92">
			<stop  offset="0" style="stop-color:#9D9D9C"/>
			<stop  offset="0.056" style="stop-color:#A5A5A4"/>
			<stop  offset="0.3125" style="stop-color:#C4C4C4"/>
			<stop  offset="0.5607" style="stop-color:#DBDBDB"/>
			<stop  offset="0.7947" style="stop-color:#E8E8E8"/>
			<stop  offset="1" style="stop-color:#EDEDED"/>
		</linearGradient>
		<path style="fill:url(#SVGID_00000088120321315940716960000006916541544259973506_);" d="M490.82,249.92"/>
		
			<linearGradient id="SVGID_00000160889056459293295600000002449659155577436060_" gradientUnits="userSpaceOnUse" x1="556.6612" y1="185.6714" x2="556.6612" y2="223.6184">
			<stop  offset="0" style="stop-color:#B85F3B"/>
			<stop  offset="0.2003" style="stop-color:#964E30"/>
			<stop  offset="0.5747" style="stop-color:#5D321E"/>
			<stop  offset="0.8522" style="stop-color:#392012"/>
			<stop  offset="1" style="stop-color:#2B190E"/>
		</linearGradient>
		<path style="fill:url(#SVGID_00000160889056459293295600000002449659155577436060_);" d="M561.38,190.76
			c-1.48,0.28-3,0.59-4.56,0.96c-7.47,1.76-11.2,2.63-12.84,3.96c-4.05,3.28-2.41,11.31-0.6,20.16c0.12,0.6,0.63,1.55,0.62,2.97
			c-0.01,1.16-0.31,1.56-0.02,2.43c0.13,0.4,0.49,0.91,1.2,1.91c0.75,1.06,0.77,0.99,0.94,1.29c1.13,1.88-0.18,3.55,0.86,4.72
			c0.47,0.53,0.71,0.16,1.92,0.84c1.2,0.68,1.34,1.26,2.88,2.64c1.15,1.03,1.73,1.55,2.24,1.66c0.87,0.19,2.16-0.42,4.72-1.66
			c1.48-0.72,1.8-0.94,2.5-0.94c1.35,0.01,1.77,0.85,2.66,0.58c1.12-0.34,1.09-1.87,2.16-2.04c0.65-0.1,0.79,0.45,1.56,0.48
			c1.24,0.04,2.21-1.34,3.12-2.64c0.8-1.15,1.29-1.84,1.06-2.49c-0.3-0.83-1.43-0.67-1.9-1.59c-0.42-0.84,0.18-1.65,0.36-2.64
			c0.2-1.1-0.07-2.75-2.23-5.11c-0.87,0.88-4.13,3.99-8.57,3.79c-5.14-0.23-8.25-4.73-10.08-7.38c-4.1-5.94-4.15-12.38-3.96-15.3
			c2.06-1.24,4.51-2.53,7.32-3.72C555.89,192.3,558.83,191.39,561.38,190.76z"/>
	</g>
	<g id="Слой_5">
		<path class="st42" d="M562.52,184.4c-1.11,0.78-2.49,1.61-4.14,2.34c-2.92,1.29-5.6,1.79-7.56,1.98c2.32-1.06,4.9-2.45,7.56-4.32
			c1.11-0.78,2.13-1.56,3.06-2.34C561.8,182.84,562.16,183.62,562.52,184.4z"/>
		<path class="st28" d="M543.71,159.47c3.15,0.15,6.3,0.3,9.45,0.45c4.79,1.67,7.99,2.46,10.08,2.88c0.51,0.1,1.45,0.28,2.61,0.81
			c2.31,1.05,3.79,2.73,4.68,3.96c0.39-1.32,0.78-2.64,1.17-3.96c-2.85-2.34-5.7-4.68-8.55-7.02c-1.28-0.26-3.14-0.58-5.4-0.72
			c-2.99-0.19-5.61-0.35-8.64,0.63C547.81,156.91,545.83,157.74,543.71,159.47z"/>
		<path class="st28" d="M582.14,170c0.17-1.06,0.5-1.92,0.9-2.61c2.49-4.34,9.52-5.88,17.64-4.5c-0.28,0.65-0.74,1.51-1.53,2.34
			c-1.76,1.85-3.93,2.3-4.77,2.43c-1.38-0.2-3.28-0.32-5.49,0C585.86,168.1,583.55,169.18,582.14,170z"/>
		<path class="st42" d="M566.57,181.25c0.7,0.16,1.71,0.5,2.7,1.26c2.4,1.85,2.73,4.69,2.79,5.31c-0.44-0.95-1.31-2.51-2.97-3.87
			c-0.91-0.74-1.8-1.22-2.52-1.53C566.57,182.03,566.57,181.64,566.57,181.25z"/>
		<path class="st43" d="M562.22,190.76c0.94,0.19,2.37,0.6,3.83,1.55c2.9,1.89,3.22,4.15,5.89,5.89c0.97,0.63,2.52,1.37,4.9,1.54
			c-1.59,2.46-3.15,2.91-3.82,3.02C569.4,203.36,564.57,198.78,562.22,190.76z"/>
		<path class="st44" d="M550.76,199.68c0.85,0.66,2.25,1.58,4.14,2c2.39,0.53,3.67-0.16,6,0.12c1.35,0.16,3.32,0.67,5.64,2.4
			c0.73-0.26,2.87-0.92,5.16,0c0.76,0.31,1.36,0.71,1.8,1.08c-0.58,0.63-1.57,1.5-3,1.92c-1.58,0.47-2.91,0.14-4.08-0.12
			c-5.26-1.17-5.02-0.5-7.68-1.32c-1.96-0.6-6.09-2.19-10.44-6.6C549.12,199.33,549.94,199.51,550.76,199.68z"/>
		<path class="st45" d="M552.98,212.17c0.11,0.2,0.28,0.48,0.5,0.8c0,0,1.44,2.06,3.58,3.16c2.24,1.14,5.66,1.06,8.88-0.6
			c0.39-0.38,0.55-0.7,0.48-0.96c-0.21-0.8-2.57-1.04-7.08-0.72"/>
		<path class="st42" d="M508.1,142.88c2.66-2.66,4.67-2.72,5.52-2.64c6.29,0.62,8.45,14.97,8.04,15.12c-0.3,0.11-1.61-7.35-7.8-10.8
			C511.83,143.43,509.78,143.01,508.1,142.88z"/>
		<path class="st42" d="M509.93,146.17c-0.48-0.09-1.11,1.09-1.32,1.56c-1.97,4.37,3,11.45,3.72,11.16c0.44-0.18-1.23-2.97-1.68-9
			C510.52,148.16,510.5,146.29,509.93,146.17z"/>
		<path class="st46" d="M517.8,161c0.41-0.23,1.88,1.23,2.76,3c0.38,0.76,2.03,4.07,0.48,5.76c-1.28,1.39-4.18,1.1-4.44,0.36
			c-0.18-0.5,0.98-0.86,1.68-2.16C519.82,165.11,517.17,161.35,517.8,161z"/>
		<path class="st47" d="M561.44,145.52c0.02-0.17,7.07-0.79,14.58,2.34c2.81,1.17,2.79,1.66,4.86,2.16
			c4.22,1.01,6.92-0.4,10.98,1.26c1.07,0.44,1.88,0.94,2.34,1.26c-1.24-0.32-3.18-0.76-5.58-0.99c-4.61-0.44-6.11,0.34-9.27-0.36
			c-3.03-0.67-3.01-1.68-6.84-3.33C566.44,145.25,561.42,145.66,561.44,145.52z"/>
		<path class="st48" d="M565.22,171.73c0.2,0.4-2.47,2.21-4.8,3.24c-3.56,1.58-6.77,1.56-8.4,1.44
			C562.51,172,565.04,171.37,565.22,171.73z"/>
		<path class="st48" d="M579.15,172.44c-0.24,0.33,1.14,2.54,2.49,3.95c2.06,2.16,4.3,2.77,5.46,2.97
			C580.96,173.22,579.37,172.15,579.15,172.44z"/>
		<path class="st28" d="M548.88,163.52c2.59,2.9,5.19,5.79,7.78,8.68c0.91,0.11,2.32,0.17,3.96-0.27c2.53-0.68,4.15-2.14,4.86-2.88
			c-0.42-0.38-0.84-0.75-1.26-1.12c-2.64,0.85-4.64,0.55-5.62,0.32c-1.74-0.41-2.98-1.24-4.95-2.57c-1.46-0.98-2.59-1.91-3.33-2.57
			C549.84,163.25,549.36,163.38,548.88,163.52z"/>
		<path class="st28" d="M582.23,171.53c0.87,0.75,1.74,1.5,2.61,2.25c0.81,0.15,1.62,0.3,2.43,0.45c0.66-0.28,1.6-0.77,2.52-1.62
			c1.29-1.18,1.94-2.48,2.25-3.24c0.21,0.63,0.42,1.26,0.63,1.89c-0.48,1.13-1.88,3.99-4.95,5.31c-0.63,0.27-1.24,0.44-1.8,0.54
			c-1.47-1.14-2.94-2.28-4.41-3.42C581.75,172.97,581.99,172.25,582.23,171.53z"/>
		<path class="st2" d="M583.04,168.02c-0.97,0.43-2.83,1.44-3.6,3.42c-0.4,1.03-0.36,1.95-0.18,3.78c0.38,3.78,0.72,4.89,0.9,6.66
			c0.39,3.81-0.59,4.42-0.54,9.18c0.03,2.48,0.31,4.49,0.54,5.76"/>
		<path class="st49" d="M548.3,199.16c2.17,3.51,4.33,7.01,6.5,10.52c1.05,0.74,4.31,2.84,8.62,2.44
			c6.16-0.58,10.62-5.91,10.08-6.84c-0.35-0.61-2.78,0.75-5.76,1.26C563.35,207.29,557.02,206.33,548.3,199.16z"/>
	</g>
	<g id="Слой_7">
		<circle class="st50" cx="522.98" cy="832.28" r="58.91"/>
		<g>
			<g>
				
					<ellipse id="XMLID_00000038380758240011741360000002978488679117792437_" class="st50" cx="522.98" cy="832.28" rx="58.56" ry="58.91"/>
			</g>
			<g>
				<g>
					<defs>
						<ellipse id="SVGID_00000141436129996452937470000006761457208613702809_" cx="522.98" cy="832.28" rx="58.56" ry="58.91"/>
					</defs>
					<clipPath id="SVGID_00000052100286628075623320000002401594811384986000_">
						<use xlink:href="#SVGID_00000141436129996452937470000006761457208613702809_"  style="overflow:visible;"/>
					</clipPath>
					<g style="opacity:0.51;clip-path:url(#SVGID_00000052100286628075623320000002401594811384986000_);">
						<path class="st52" d="M563.93,787.33c-5.87,18.61-12.36,38.19-26.95,51.06c-16.9,14.9-41.01,17.64-63.47,18.24
							c-1.13,0.03-2.32,0.07-3.31,0.64c-1.63,0.95-2.19,3.04-2.27,4.93c-0.35,7.67,4.48,14.48,9.09,20.59
							c4.78,6.35,9.67,12.81,16.11,17.44c10.46,7.52,23.8,9.42,36.61,10.56c10.07,0.9,20.5,1.42,30.01-2.04
							c6.3-2.29,11.87-6.23,17.14-10.41c3.69-2.93,7.33-6.06,9.93-9.99c3.48-5.26,4.89-11.58,6.25-17.75
							c2.35-10.72,4.7-21.82,2.52-32.57c-1.02-5.04-3.01-9.82-4.99-14.56c-5.78-13.87-12.07-28.41-24-37.48"/>
					</g>
				</g>
			</g>
		</g>
		<g>
			<path class="st53" d="M483.14,811.76c0.97-3.4,2.28-7.21,4.08-11.28c1.47-3.33,3.03-6.29,4.56-8.88
				c2.16-1.12,4.81-2.25,7.92-3.12c6.63-1.85,12.45-1.67,16.32-1.2c0.17,1.56,0.52,3.45,1.2,5.52c1.08,3.26,2.6,5.74,3.84,7.44
				c-3.16,1.95-6.95,4.68-10.8,8.4c-3.51,3.39-6.18,6.74-8.16,9.6c-2.56-1.15-5.36-2.29-8.4-3.36
				C489.95,813.56,486.4,812.54,483.14,811.76z"/>
			<path class="st53" d="M506.42,841.28c2.76,1.41,6.04,2.85,9.84,4.08c4.95,1.61,9.46,2.45,13.2,2.88c0.19,2.85,0.49,5.9,0.96,9.12
				c0.58,4,1.33,7.69,2.16,11.04c-4.66,1.58-9.46,3.33-14.4,5.28c-3.39,1.34-6.67,2.7-9.84,4.08c-1.78-2.74-3.85-5.65-6.24-8.64
				c-2.94-3.68-5.88-6.87-8.64-9.6c2-2.79,4-5.59,6-8.4C501.79,847.83,504.11,844.55,506.42,841.28z"/>
			<path class="st53" d="M542.42,807.92c1.3,2.73,2.74,6.46,3.6,11.04c1.05,5.55,0.87,10.32,0.48,13.68
				c1.97-0.38,5.56-0.81,9.84,0.24c4.48,1.1,7.56,3.28,9.12,4.56c1.08-2.84,2.13-5.89,3.12-9.12c1.16-3.78,2.11-7.39,2.88-10.8
				c-1.49-3.06-3.94-7.2-7.92-11.28c-2.7-2.77-5.41-4.79-7.68-6.24c-2.03,1.42-4.27,2.88-6.72,4.32
				C546.8,805.69,544.55,806.88,542.42,807.92z"/>
			<path class="st53" d="M524.42,773.6c0.6,0.06,2.53,0.32,4.08,1.92c0.85,0.88,1.25,1.82,1.44,2.4c1.88-0.42,5.19-0.88,9.12,0
				c5.63,1.27,9.17,4.55,10.56,6c1.76-0.32,3.52-0.64,5.28-0.96c-2.52-2.14-6.43-4.93-11.76-6.96
				C535.23,772.99,528.23,773.2,524.42,773.6z"/>
			<path class="st53" d="M566.66,862.64c-1.44,1.98-3.33,4.24-5.76,6.48c-3.98,3.67-7.98,5.99-11.04,7.44c0.13,1,0.19,2.32,0,3.84
				c-0.23,1.83-0.75,3.29-1.2,4.32c4.04-2.27,8.9-5.45,13.92-9.84c5.11-4.47,8.95-8.96,11.76-12.72
				C571.78,862.32,569.22,862.48,566.66,862.64z"/>
			<path class="st53" d="M473.06,864.56c-0.37-1.25-1.05-4.21,0-7.68c0.69-2.28,1.85-3.88,2.64-4.8c-1.24-2.14-2.74-5.31-3.6-9.36
				c-1.2-5.65-0.59-10.39,0-13.2c-0.43,0.12-2.33,0.58-4.32-0.48c-1.73-0.92-2.44-2.42-2.64-2.88c-0.28,4.15-0.26,9.11,0.48,14.64
				C466.98,850.97,470.25,859.05,473.06,864.56z"/>
		</g>
	</g>
</g>
</svg>
