<svg width="70" height="70" viewBox="0 0 70 70" fill="none" xmlns="http://www.w3.org/2000/svg">
<path d="M35 0C15.7011 0 0 15.7005 0 35C0 54.2995 15.7011 70 35 70C54.2995 70 70 54.2995 70 35C70 15.7005 54.2995 0 35 0ZM50.3346 42.1246L36.9071 55.5521C36.3943 56.0649 35.7074 56.3477 34.9733 56.3477L34.9641 56.8946L34.9659 56.3477C34.9653 56.3483 34.9567 56.3483 34.9562 56.3483C34.222 56.3483 33.5351 56.0654 33.0218 55.5527L19.5989 42.1292C18.5324 41.0627 18.5324 39.3275 19.5989 38.2615L21.8924 35.9669C22.4057 35.4536 23.0875 35.1702 23.8097 35.1702C24.5319 35.1702 25.2137 35.4536 25.7259 35.9658L29.6885 39.9615C29.8439 40.1191 30.0801 40.1663 30.285 40.0821C30.4898 39.9979 30.6236 39.7981 30.6236 39.5762V16.9485C30.6236 15.466 31.9063 14.2134 33.4247 14.2134H36.6692C38.1614 14.2134 39.3759 15.4398 39.3759 16.9485V39.4111C39.3759 39.6325 39.5085 39.8317 39.7128 39.9165C39.9171 40.0002 40.1521 39.9541 40.3092 39.7987L44.1592 35.9629C44.6731 35.449 45.3611 35.1656 46.0964 35.1656C46.8317 35.1656 47.5198 35.449 48.0337 35.9635L50.3311 38.257C50.8456 38.7715 51.129 39.4584 51.1296 40.1908C51.1302 40.9244 50.8479 41.6107 50.3346 42.1246Z" fill="white"/>
</svg>
