<svg version="1.1" id="Uploaded to svgrepo.com" xmlns="http://www.w3.org/2000/svg" xmlns:xlink="http://www.w3.org/1999/xlink" x="0px" y="0px"
	 width="32px" height="32px" viewBox="0 0 32 32" style="enable-background:new 0 0 32 32;" xml:space="preserve">
<style type="text/css">
	.blueprint_een{fill:#fff;}
</style>
<path class="blueprint_een" d="M29,0H4C3.448,0,3,0.448,3,1v30c0,0.552,0.448,1,1,1h25c0.552,0,1-0.448,1-1V1
	C30,0.448,29.552,0,29,0z M5,2h23v8H5V2z M22,15h-5v-4h5V15z M16,15h-5v-4h5V15z M16,16v4h-5v-4H16z M16,21v4h-5v-4H16z M17,21h5v4
	h-5V21z M17,20v-4h5v4H17z M23,16h5v4h-5V16z M23,15v-4h5v4H23z M5,11h5v4H5V11z M5,16h5v4H5V16z M5,21h5v4H5V21z M5,30v-4h5h1h5v4
	H5z M17,30v-4h5v4H17z M23,30v-4v-1v-4h5v9H23z M7,4h1v4H7V4z M9,4h1v4H9V4z M11,4h1v4h-1V4z M14,4v4h-1V4H14z"/>
</svg>