<svg width="35" height="35" viewBox="0 0 35 35" fill="none" xmlns="http://www.w3.org/2000/svg">
<path d="M30.7248 5.61938H4.27517C1.91795 5.61938 0 7.53733 0 9.89456V25.1052C0 27.4624 1.91795 29.3804 4.27517 29.3804H30.7248C33.0821 29.3804 35 27.4624 35 25.1052V9.89502C35.0005 7.53733 33.0825 5.61938 30.7248 5.61938ZM28.6358 8.40845L17.5 15.5829L6.36419 8.40845H28.6358ZM30.7248 26.5918H4.27517C3.45565 26.5918 2.78907 25.9247 2.78907 25.1057V9.97405L16.6396 18.8805C16.6582 18.8921 16.6782 18.9 16.6972 18.9107C16.7172 18.9218 16.7377 18.9325 16.7581 18.9428C16.8655 18.9981 16.9761 19.0427 17.0891 19.072C17.1007 19.0752 17.1123 19.0766 17.1239 19.0794C17.2481 19.1087 17.3736 19.1268 17.4991 19.1268C17.4995 19.1268 17.5 19.1268 17.5 19.1268C17.5009 19.1268 17.5014 19.1268 17.5019 19.1268C17.6274 19.1268 17.7529 19.1092 17.877 19.0794C17.8886 19.0766 17.9002 19.0752 17.9119 19.072C18.0248 19.0427 18.135 18.9981 18.2428 18.9428C18.2633 18.9325 18.2837 18.9218 18.3037 18.9107C18.3228 18.9 18.3428 18.8921 18.3614 18.8805L32.2119 9.97405V25.1052C32.2114 25.9247 31.5443 26.5918 30.7248 26.5918Z" fill="#35464D"/>
</svg>
