<svg width="32" height="32" viewBox="0 0 32 32" fill="none" xmlns="http://www.w3.org/2000/svg">
<path d="M16 0C9.33985 0 3.92139 5.41846 3.92139 12.0785C3.92139 14.8316 5.85753 18.911 9.67608 24.2032C12.4637 28.0666 15.2919 31.214 15.32 31.2454L15.9999 32L16.6798 31.2454C16.7081 31.2141 19.5361 28.0667 22.3238 24.2032C26.1423 18.9109 28.0785 14.8316 28.0785 12.0785C28.0785 5.41846 22.6601 0 16 0ZM15.9999 29.2505C12.6085 25.3434 5.75182 16.5252 5.75182 12.0785C5.75173 6.42771 10.3491 1.83034 16 1.83034C21.6509 1.83034 26.2482 6.42771 26.2482 12.0785C26.2482 16.5225 19.3914 25.3425 15.9999 29.2505Z" fill="#35464D"/>
<path d="M16.0001 16.6268C18.5119 16.6268 20.5481 14.5906 20.5481 12.0788C20.5481 9.56699 18.5119 7.53076 16.0001 7.53076C13.4883 7.53076 11.452 9.56699 11.452 12.0788C11.452 14.5906 13.4883 16.6268 16.0001 16.6268Z" fill="#35464D"/>
</svg>
