<svg width="73" height="73" viewBox="0 0 73 73" fill="none" xmlns="http://www.w3.org/2000/svg">
<path d="M62.9432 23.9H52.9766C48.9153 18.2659 42.3732 14.9066 35.4658 14.9066C28.162 14.9066 21.4141 18.5566 17.4058 24.6725H10.0593C4.51269 24.6725 0 29.1852 0 34.7308V38.2718C0 43.8185 4.51269 48.326 10.0593 48.326H17.4058C21.413 54.4449 28.1605 58.0934 35.4658 58.0934C42.9862 58.0934 50.0672 54.0599 53.9679 47.5549H62.9429C68.4921 47.5549 72.9996 43.0434 72.9996 37.4982V33.9583C73 28.4101 68.4925 23.9 62.9432 23.9ZM62.9432 46.4731L45.3171 46.4772C41.6723 46.4772 38.4698 46.4772 36.7987 46.3923C38.4817 45.5986 41.1178 44.2965 41.1178 41.946V33.9583C41.1178 29.0087 45.1436 24.9819 50.0968 24.9819H62.9447C67.8954 24.9819 71.9237 29.0087 71.9237 33.9583V37.4982C71.9223 42.4448 67.8939 46.4731 62.9432 46.4731ZM10.0593 25.7529H17.9951L18.1557 25.5033C21.9489 19.5453 28.4209 15.9895 35.4673 15.9895C41.8236 15.9895 47.6996 18.8696 51.6256 23.9H50.0965C44.5472 23.9 40.0345 28.4101 40.0345 33.9583V41.946C40.0345 43.6768 37.6295 44.805 36.1879 45.4833C35.1684 45.9598 34.6562 46.2039 34.7849 46.7787C34.947 47.5153 34.9574 47.5564 45.4099 47.5564H52.6992C48.8845 53.484 42.4644 57.0131 35.4658 57.0131C28.4179 57.0131 21.9474 53.4561 18.1542 47.4993L17.9936 47.2486H10.0582C5.10867 47.2486 1.08181 43.2229 1.08181 38.2737V34.7326C1.08181 29.7812 5.10867 25.7529 10.0593 25.7529Z" fill="#010002"/>
<path d="M16.8948 43.3289H18.9123L20.8408 36.2717C21.2284 34.9233 21.5073 33.7832 21.7446 32.5846C21.9104 33.6237 22.1466 34.7482 22.5182 36.2665L24.225 43.3289H26.2425L30.0572 29.8691L30.105 29.6967H28.053L26.2625 36.5362L26.1894 36.8373C25.8698 38.1153 25.563 39.3325 25.3186 40.5126C25.1102 39.2635 24.7983 37.8913 24.4879 36.581L22.8632 29.8012L22.8353 29.6978H20.8178L19.0062 36.5373C18.6253 37.984 18.2603 39.3603 18.0252 40.563C17.7982 39.4003 17.493 38.004 17.1518 36.5599L15.5656 29.8012L15.5389 29.6978H13.4287L16.8637 43.2266L16.8948 43.3289Z" fill="#010002"/>
<path d="M33.1023 33.4606H31.0874V43.3289H33.1023V33.4606Z" fill="#010002"/>
<path d="M32.0535 32.1095C32.4251 32.1095 32.757 31.9808 32.984 31.7457C33.2002 31.5239 33.3118 31.2228 33.3 30.9042C33.3 30.1914 32.7915 29.6766 32.0935 29.6766C31.3915 29.6766 30.866 30.2047 30.866 30.9042C30.8671 31.5918 31.3766 32.1095 32.0535 32.1095Z" fill="#010002"/>
<path d="M45.9183 43.0315H47.8453V37.2538H52.6766V35.6146H47.8453V31.6448H53.0734V29.9885H45.9183V43.0315Z" fill="#010002"/>
<path d="M56.5458 33.5893H54.608V43.0315H56.5458V33.5893Z" fill="#010002"/>
<path d="M55.5741 29.9696C54.904 29.9696 54.3955 30.4766 54.3955 31.1482C54.3955 31.8091 54.8839 32.3083 55.5396 32.3083C55.8979 32.3083 56.2139 32.1837 56.433 31.9578C56.6374 31.7442 56.7449 31.4575 56.7342 31.1482C56.7342 30.4647 56.2498 29.9696 55.5741 29.9696Z" fill="#010002"/>
</svg>
