<svg xmlns="http://www.w3.org/2000/svg" width="30" height="30" viewBox="0 0 30 30"><g><g><path fill="#a60000" d="M30.017 15.016c0 8.284-6.717 15-15.001 15-8.284 0-15.001-6.716-15.001-15 0-8.284 6.717-15.001 15-15.001 8.285 0 15.002 6.717 15.002 15zm-11.62 7.197a4.44 4.44 0 0 1-.643.215c-.297.083-.56.126-.796.126-.496 0-.848-.084-1.05-.247-.202-.165-.303-.474-.303-.924 0-.182.03-.448.093-.798.063-.349.134-.66.212-.933l.961-3.404c.095-.315.159-.656.194-1.03.034-.373.052-.636.052-.784 0-.716-.253-1.3-.754-1.747-.505-.447-1.221-.674-2.15-.674-.514 0-1.06.092-1.638.277-.578.183-1.184.404-1.816.662l-.255 1.052c.185-.072.411-.145.672-.224a2.7 2.7 0 0 1 .768-.114c.509 0 .85.083 1.032.255.18.171.27.477.27.91 0 .244-.028.512-.087.804-.058.29-.132.601-.217.93l-.966 3.414c-.085.36-.147.679-.187.963a6.35 6.35 0 0 0-.057.837c0 .703.258 1.28.776 1.737.518.453 1.245.684 2.18.684.609 0 1.144-.08 1.603-.24.461-.16 1.076-.392 1.848-.696zm.245-14.28c0-.59-.225-1.097-.673-1.517a2.279 2.279 0 0 0-1.62-.632c-.629 0-1.173.21-1.625.632-.448.42-.677.927-.677 1.518 0 .592.227 1.098.677 1.515a2.32 2.32 0 0 0 1.625.625c.631 0 1.172-.208 1.62-.625.448-.417.673-.922.673-1.515z"/></g></g></svg>