<svg xmlns="http://www.w3.org/2000/svg" width="31" height="31" viewBox="0 0 31 31"><defs><linearGradient id="h421a" x1="16" x2="15" y1="31" y2="0" gradientUnits="userSpaceOnUse"><stop offset="0" stop-color="#d8af27"/><stop offset="1" stop-color="#f6c729"/></linearGradient></defs><g><g><path d="M31 15.5c0 8.546-6.954 15.499-15.5 15.499S0 24.046 0 15.499C0 6.954 6.954 0 15.5 0S31 6.953 31 15.5zm-6.837-6.294a1.549 1.549 0 0 0-2.215 0l-8.857 8.857-4.156-3.806a1.536 1.536 0 0 0-2.176.077 1.576 1.576 0 0 0 .117 2.176l5.244 4.778a1.524 1.524 0 0 0 2.137-.039l9.906-9.828a1.549 1.549 0 0 0 0-2.215z"/><path fill="url(#h421a)" d="M31 15.5c0 8.546-6.954 15.499-15.5 15.499S0 24.046 0 15.499C0 6.954 6.954 0 15.5 0S31 6.953 31 15.5zm-6.837-6.294a1.549 1.549 0 0 0-2.215 0l-8.857 8.857-4.156-3.806a1.536 1.536 0 0 0-2.176.077 1.576 1.576 0 0 0 .117 2.176l5.244 4.778a1.524 1.524 0 0 0 2.137-.039l9.906-9.828a1.549 1.549 0 0 0 0-2.215z"/></g></g></svg>