<svg xmlns="http://www.w3.org/2000/svg" width="32" height="34" viewBox="0 0 32 34"><g><g opacity=".75"><path d="M16.787-.01c2.17 0 3.928 1.779 3.928 3.974 0 2.196-1.758 3.976-3.928 3.976S12.86 6.16 12.86 3.964c0-2.195 1.759-3.975 3.928-3.975zm0 29.22c1.3 0 2.356 1.068 2.356 2.386s-1.055 2.385-2.356 2.385c-1.302 0-2.357-1.067-2.357-2.385 0-1.318 1.055-2.386 2.357-2.386zM7.134 4.432c1.953 0 3.535 1.602 3.535 3.578 0 1.977-1.582 3.579-3.535 3.579-1.952 0-3.536-1.602-3.536-3.579 0-1.976 1.584-3.578 3.536-3.578zm19.303 21.127c1.085 0 1.964.89 1.964 1.988a1.975 1.975 0 0 1-1.964 1.988 1.976 1.976 0 0 1-1.964-1.988c0-1.097.88-1.988 1.964-1.988zM3.137 14.6c1.734 0 3.14 1.423 3.14 3.18 0 1.756-1.406 3.18-3.14 3.18-1.736 0-3.143-1.424-3.143-3.18 0-1.757 1.407-3.18 3.142-3.18zm27.297 1.589c.867 0 1.571.712 1.571 1.59a1.58 1.58 0 0 1-1.57 1.588 1.58 1.58 0 0 1-1.571-1.588c0-.878.703-1.59 1.57-1.59zM9.077 25.583a2.803 2.803 0 0 1 0 3.934 2.721 2.721 0 0 1-3.887 0 2.804 2.804 0 0 1 0-3.934 2.713 2.713 0 0 1 3.887 0zm17.36-18.765c.65 0 1.177.534 1.177 1.192 0 .658-.528 1.192-1.177 1.192a1.184 1.184 0 0 1-1.178-1.192c0-.658.527-1.192 1.178-1.192z"/></g></g></svg>