<svg width="37" height="45" viewBox="0 0 37 45" fill="none" xmlns="http://www.w3.org/2000/svg">
<path d="M1.22582 7.48585L1.22144 7.42033L1.20852 7.35596C0.826797 5.45268 1.0255 4.71812 1.35259 4.27675C1.53716 4.02769 1.82478 3.78557 2.29741 3.50157C2.71623 3.2499 3.21549 3.00183 3.84103 2.69102C3.93362 2.64501 4.02899 2.59763 4.12727 2.54865C5.45589 1.88658 7.96372 1.20094 10.8548 1.03674C13.7377 0.872995 16.8778 1.23532 19.5142 2.5487C19.8981 2.73994 20.2565 2.90653 20.5788 3.05608L20.5981 3.06504C20.9172 3.21308 21.1932 3.34115 21.4438 3.46776C21.9607 3.72887 22.2773 3.94018 22.4923 4.17387C22.8582 4.57171 23.1532 5.28444 22.9127 7.44179C22.5193 10.9694 22.5215 15.6978 22.6179 19.5091C22.6663 21.4222 22.7389 23.1178 22.7994 24.3353C22.8296 24.9441 22.8569 25.4338 22.8766 25.7717C22.8865 25.9407 22.8944 26.0717 22.9 26.1608L22.9063 26.2624L22.9065 26.2648C22.9062 27.0035 22.893 28.0398 22.4852 29.0558C22.091 30.0378 21.306 31.0529 19.6101 31.6865C15.2809 33.3039 8.78023 33.5554 4.11171 31.7182C2.76819 30.9559 0.81831 29.1589 1.21791 26.3748C1.4606 24.6839 1.54057 21.1674 1.52415 17.5277C1.50761 13.8614 1.39212 9.97165 1.22582 7.48585Z" stroke="#BF271A" stroke-width="2" stroke-linecap="round"/>
<path d="M12 34.3106C13.5 48.6214 29.6 45.7592 30 34.3106V23.0664C30 18.978 36 18.9778 36 23.0664V31.2442" stroke="#BF271A" stroke-width="2" stroke-linecap="round"/>
<path d="M9 7H15M10 12H14M9 17H15M10 22H14M9 27H15" stroke="#BF271A" stroke-width="2" stroke-linecap="round"/>
</svg>
