<svg width="35" height="38" viewBox="0 0 35 38" fill="none" xmlns="http://www.w3.org/2000/svg">
<path d="M29.4329 0.0778809H5.60311C2.53687 0.0778809 0.0429688 2.56677 0.0429688 5.6256V32.445C0.0429688 35.5044 2.53744 37.9927 5.60311 37.9927H29.4329C32.4991 37.9927 34.993 35.5038 34.993 32.445V5.6256C34.993 2.56677 32.4991 0.0778809 29.4329 0.0778809ZM31.816 5.6256V25.5738H11.4486V3.24794H29.433C30.7434 3.24794 31.8162 4.30995 31.8162 5.62517L31.816 5.6256ZM5.60325 3.24837H8.27219V25.5743L5.60325 25.5737C4.7533 25.5737 3.94325 25.7716 3.22013 26.1205V5.62452C3.22013 4.30931 4.29283 3.24729 5.60325 3.24729V3.24837ZM31.816 32.4454C31.816 33.7529 30.7439 34.8232 29.4329 34.8232L5.60311 34.8226C4.29271 34.8226 3.21999 33.7529 3.21999 32.4448V31.1213C3.21999 29.8139 4.29213 28.7435 5.60311 28.7435H31.8159L31.816 32.4454Z" fill="#BF271A"/>
</svg>
