<svg width="47" height="31" viewBox="0 0 47 31" fill="none" xmlns="http://www.w3.org/2000/svg">
<path d="M11.9466 17.1836C14.9787 -0.309483 32.5331 -0.762739 41.2572 6.18802C46.1582 10.0928 46.3107 15.6844 45.8054 23.1812C43.2406 22.9697 39.591 22.7582 35.6978 22.3199M11.9466 17.1836C13.968 17.1836 16.4948 16.6836 20.5376 18.6827C24.6203 20.7016 30.3858 21.7219 35.6978 22.3199M11.9466 17.1836L1.33415 23.1812M1.33415 23.1812C-0.182522 24.6802 3.65878 28.4786 8.91447 23.6806M1.33415 23.1812C3.35517 22.3481 8.22963 22.5059 13.9674 27.1792C22.5585 34.1763 32.6656 26.457 35.6978 22.3199" stroke="#BF271A" stroke-width="2"/>
<path d="M31 1.79306C31.5 0.585762 36 0.585732 36 3" stroke="#BF271A" stroke-width="2"/>
<path d="M37 19L42 19.5" stroke="#BF271A" stroke-width="2" stroke-linecap="round"/>
</svg>
