<svg width="42" height="42" viewBox="0 0 42 42" fill="none" xmlns="http://www.w3.org/2000/svg">
<path d="M32.3917 28.9793L40.5796 37.1508L37.1748 40.5556L29.0033 32.3677L27.9885 31.3509L27.3873 32.6556L24.8341 38.1959L16.4623 16.4379L38.22 24.8101L32.6796 27.3633L31.3749 27.9645L32.3917 28.9793Z" stroke="#BF271A" stroke-width="2"/>
<path d="M11.226 21.5348C11.2124 21.5405 11.1948 21.5508 11.1753 21.5703L5.55733 27.1882C5.50483 27.2408 5.50482 27.3164 5.55729 27.3689L11.226 21.5348ZM11.226 21.5348C11.2399 21.529 11.2531 21.5266 11.2656 21.5266C11.2782 21.5266 11.2914 21.529 11.3052 21.5348C11.3188 21.5405 11.3365 21.5508 11.356 21.5703C11.4081 21.6224 11.4086 21.6984 11.3557 21.7514L5.73805 27.369C5.68604 27.421 5.6103 27.4216 5.55733 27.369L11.226 21.5348ZM27.2137 5.53245L26.5066 4.82534L27.2137 5.53245C27.2332 5.51295 27.2509 5.50258 27.2645 5.4969C27.2784 5.49111 27.2915 5.48871 27.3041 5.48871C27.3166 5.48871 27.3298 5.49111 27.3437 5.4969C27.3573 5.50258 27.375 5.51295 27.3945 5.53245C27.447 5.58496 27.447 5.66066 27.3945 5.71317L21.7765 11.3311C21.724 11.3836 21.6483 11.3836 21.5958 11.3311C21.5438 11.2791 21.5432 11.2033 21.5958 11.1504C21.5959 11.1503 21.596 11.1502 21.5961 11.1501L27.2137 5.53245ZM16.3427 1.13945C16.3427 1.06533 16.4027 1.00537 16.4768 1.00537C16.5509 1.00537 16.6108 1.06538 16.6108 1.13945V10.2131C16.6108 10.2872 16.5508 10.3471 16.4768 10.3471C16.4026 10.3471 16.3427 10.2871 16.3427 10.2131V1.13945ZM1.03027 16.4506C1.03027 16.3765 1.09029 16.3166 1.16435 16.3166H10.2023C10.2764 16.3166 10.3364 16.3766 10.3364 16.4506C10.3364 16.5248 10.2764 16.5847 10.2023 16.5847H1.16435C1.09023 16.5847 1.03027 16.5247 1.03027 16.4506Z" stroke="#BF271A" stroke-width="2"/>
</svg>
