<svg width="2316" height="1167" viewBox="0 0 2316 1167" fill="none" xmlns="http://www.w3.org/2000/svg">
<g filter="url(#filter0_f_212_28)">
<path d="M2109 702C2201.78 702 2277 626.784 2277 534C2277 441.216 2201.78 366 2109 366C2016.22 366 1941 441.216 1941 534C1941 626.784 2016.22 702 2109 702Z" fill="url(#paint0_linear_212_28)"/>
</g>
<path d="M423.5 780C466.854 780 502 744.854 502 701.5C502 658.146 466.854 623 423.5 623C380.146 623 345 658.146 345 701.5C345 744.854 380.146 780 423.5 780Z" fill="url(#paint1_linear_212_28)" fill-opacity="0.19"/>
<path d="M1842.5 1155C1885.85 1155 1921 1119.85 1921 1076.5C1921 1033.15 1885.85 998 1842.5 998C1799.15 998 1764 1033.15 1764 1076.5C1764 1119.85 1799.15 1155 1842.5 1155Z" fill="url(#paint2_linear_212_28)" fill-opacity="0.19"/>
<path d="M355.5 209C297.786 209 251 162.214 251 104.5C251 46.7862 297.786 0 355.5 0C413.214 0 460 46.7862 460 104.5C460 162.214 413.214 209 355.5 209Z" fill="url(#paint3_linear_212_28)"/>
<defs>
<filter id="filter0_f_212_28" x="1921" y="346" width="376" height="376" filterUnits="userSpaceOnUse" color-interpolation-filters="sRGB">
<feFlood flood-opacity="0" result="BackgroundImageFix"/>
<feBlend mode="normal" in="SourceGraphic" in2="BackgroundImageFix" result="shape"/>
<feGaussianBlur stdDeviation="10" result="effect1_foregroundBlur_212_28"/>
</filter>
<linearGradient id="paint0_linear_212_28" x1="1942.55" y1="594.323" x2="2363.06" y2="441.916" gradientUnits="userSpaceOnUse">
<stop stop-color="white"/>
<stop offset="1" stop-color="#EC008C"/>
</linearGradient>
<linearGradient id="paint1_linear_212_28" x1="345.714" y1="729.69" x2="542.214" y2="658.476" gradientUnits="userSpaceOnUse">
<stop stop-color="white"/>
<stop offset="0.78" stop-color="#EF1B11"/>
</linearGradient>
<linearGradient id="paint2_linear_212_28" x1="1764.71" y1="1104.69" x2="1961.21" y2="1033.48" gradientUnits="userSpaceOnUse">
<stop stop-color="white"/>
<stop offset="0.78" stop-color="#EF1B11"/>
</linearGradient>
<linearGradient id="paint3_linear_212_28" x1="459.033" y1="142.007" x2="197.476" y2="47.2255" gradientUnits="userSpaceOnUse">
<stop stop-color="white"/>
<stop offset="1" stop-color="#F15A29"/>
</linearGradient>
</defs>
</svg>
