<svg width="66" height="65" viewBox="0 0 66 65" fill="none" xmlns="http://www.w3.org/2000/svg">
<path d="M51.8621 31.199C50.1869 31.0332 46.5005 31.0332 46.5005 28.707C46.5005 25.551 51.1913 21.3972 58.7311 16.9114C61.0759 15.4158 65.9361 13.0905 65.9361 9.93313C65.9361 7.44114 64.0927 5.61407 60.2392 6.11225C56.5533 6.61046 50.8564 9.10243 43.3185 15.4158C35.4443 21.8954 28.0732 32.694 28.0732 43.3265C28.0732 54.1257 35.4445 64.9249 47.3402 64.9249C56.8891 64.9249 65.0985 57.7808 65.0985 47.9775C65.0971 40.5015 59.9035 31.8633 51.8623 31.198L51.8621 31.199Z" fill="url(#paint0_linear_128_50)"/>
<path d="M28.3097 26.5275C26.9337 25.8144 25.4242 25.3475 23.7956 25.2131C22.1203 25.0474 18.434 25.0474 18.434 22.7211C18.434 19.5652 23.1247 15.4114 30.6646 10.9256C33.0103 9.42995 37.8687 7.10469 37.8687 3.94729C37.8687 1.4553 36.0253 -0.371775 32.1718 0.126409C28.4859 0.624616 22.789 3.11659 15.2511 9.42995C7.37791 15.9096 0.00585938 26.7081 0.00585938 37.3419C0.00585938 48.1411 7.37707 58.9402 19.2728 58.9402C22.0696 58.9402 24.7497 58.3236 27.1431 57.2105C24.7959 53.0024 23.545 48.1335 23.545 43.327C23.5455 37.393 25.4729 31.6377 28.3108 26.5271L28.3097 26.5275Z" fill="url(#paint1_linear_128_50)"/>
<defs>
<linearGradient id="paint0_linear_128_50" x1="28.2455" y1="46.0524" x2="79.098" y2="34.2042" gradientUnits="userSpaceOnUse">
<stop stop-color="white"/>
<stop offset="0.78" stop-color="#EF1B11"/>
</linearGradient>
<linearGradient id="paint1_linear_128_50" x1="0.178119" y1="40.0674" x2="51.0308" y2="28.2194" gradientUnits="userSpaceOnUse">
<stop stop-color="white"/>
<stop offset="0.78" stop-color="#EF1B11"/>
</linearGradient>
</defs>
</svg>
