<svg width="35" height="46" viewBox="0 0 35 46" fill="none" xmlns="http://www.w3.org/2000/svg">
<path fill-rule="evenodd" clip-rule="evenodd" d="M11.332 0.000494062C11.121 -0.000566064 10.9186 0.144368 10.7695 0.293842C10.6204 0.44296 10.5366 0.645442 10.5377 0.856409L10.5376 3.0005H3.99955C1.84646 3.0005 0 4.2102 0 6.35551V42.0908C0 44.2361 1.84691 46.0005 4 46.0005H31.2698C33.4229 46.0005 34.9995 44.2361 34.9995 42.0908L34.9992 6.35551C34.9992 4.2102 33.4051 3.0005 31.252 3.0005H24.6957V0.856409C24.6964 0.645451 24.613 0.442969 24.4639 0.293842C24.3148 0.144372 24.1118 -0.000564346 23.9008 0.000494062H11.332ZM12.4995 2.0005H22.4996V4.5005H12.4995V2.0005ZM3.99955 5.0005C4.99955 5.0005 10.5376 5.0005 10.5376 5.0005V5.6601C10.5366 5.87106 10.6203 6.07354 10.7694 6.22267C10.9186 6.37179 11.121 6.45518 11.332 6.45448H23.9008C24.1118 6.45518 24.3146 6.37179 24.4637 6.22267C24.6129 6.07355 24.6963 5.87072 24.6955 5.65975V5.0005H31.4996C32.4995 5.0005 32.9995 5.5005 32.9995 6.35551V42.0908C32.9995 43.0005 31.9996 44.0005 31.2525 44.0005H3.99955C2.99955 44.0005 1.99955 43.0005 1.99955 42.0908V6.35558C1.99955 5.5005 2.99955 5.0005 3.99955 5.0005ZM13.5924 11.9833C13.3818 11.99 13.1825 12.0798 13.0387 12.2335L9.52797 15.9841L7.75618 14.2077C7.44876 13.8993 6.95015 13.8971 6.63988 14.2028C6.49041 14.3509 6.40595 14.5519 6.40524 14.7622C6.40418 14.9728 6.48722 15.1746 6.63528 15.3237L8.98377 17.6781C9.13537 17.8308 9.34208 17.9149 9.55693 17.9117C9.77178 17.9085 9.97638 17.8181 10.123 17.6612L14.1953 13.314C14.4932 12.996 14.478 12.497 14.1613 12.1977C14.0076 12.0532 13.8031 11.9763 13.5924 11.9833ZM19.3605 14.0008C18.9763 13.9996 18.5006 14.398 18.4996 15.0005C18.4985 15.603 18.9996 16.0005 19.3605 16.0005H27.9996C28.4996 16.0005 29.0005 15.5924 28.9996 15.0005C28.9986 14.4086 28.4735 14.0023 28.0382 14.0005L19.3605 14.0008ZM13.5924 21.8695C13.3818 21.8762 13.1825 21.9663 13.0387 22.12L9.5277 25.8707L7.75591 24.0943C7.44848 23.7858 6.95023 23.7836 6.63996 24.0893C6.49049 24.2374 6.40604 24.4384 6.40532 24.649C6.40426 24.8593 6.4873 25.0611 6.63537 25.2102L8.98385 27.5646C9.13545 27.7173 9.34217 27.8014 9.55701 27.7982C9.77186 27.795 9.97646 27.7046 10.1231 27.5477L14.1954 23.2005C14.4932 22.8825 14.478 22.3835 14.1614 22.0842C14.0077 21.9397 13.8031 21.8624 13.5924 21.8695ZM19.3605 24.0005C18.9996 24.0005 18.498 24.5252 18.4996 25.0005C18.4996 25.5005 18.9996 26.0005 19.3605 26.0005H28.0382C28.4735 25.9987 28.9988 25.4358 28.9996 25.0005C29.0011 24.5501 28.4806 24.002 28.0382 24.0005L19.3605 24.0005ZM13.5924 31.756C13.3818 31.7627 13.1825 31.8528 13.0387 32.0065L9.52797 35.7572L7.75618 33.9808C7.44734 33.6737 6.94874 33.6737 6.63988 33.9808C6.33175 34.2882 6.32962 34.7868 6.63529 35.0971L8.98377 37.458C9.13537 37.6106 9.34209 37.6944 9.55693 37.6912C9.77178 37.688 9.97638 37.5975 10.123 37.4406L14.1953 33.0935C14.3402 32.9405 14.4182 32.7359 14.4119 32.5253C14.4052 32.3143 14.3151 32.115 14.1613 31.9712C14.0076 31.8263 13.8031 31.7493 13.5924 31.756ZM19.3605 34.0001C18.9197 33.9979 18.5012 34.5253 18.4996 35.0005C18.4996 35.5005 18.9996 36.0005 19.3605 36.0005H28.0382C28.4996 36.0005 29.0018 35.5454 28.9996 35.0005C28.9973 34.4556 28.4728 34.0023 28.0382 34.0005L19.3605 34.0001Z" fill="#BF271A"/>
</svg>
