<svg width="193" height="75" viewBox="0 0 193 75" fill="none" xmlns="http://www.w3.org/2000/svg">
<path d="M106.53 38.2375H104.659L103.819 40.6368H105.171L106.53 38.2375ZM185.084 38.2375H183.214L182.374 40.6368H183.726L185.084 38.2375ZM61.1217 23.4486H59.3955V24.7859C55.3456 24.7859 53.3896 27.2769 53.3896 29.9122C53.3896 32.5474 55.3325 35.0385 59.3955 35.0385V36.3758H61.1217V35.0385C65.1847 35.0385 67.1275 32.5474 67.1275 29.9122C67.1275 27.2769 65.165 24.7859 61.1217 24.7859V23.4486ZM55.1881 29.9122C55.1881 27.2573 56.9734 26.156 59.3955 26.156V33.6684C56.9669 33.6684 55.1881 32.5605 55.1881 29.9122ZM65.3291 29.9122C65.3291 32.5671 63.5437 33.6684 61.1217 33.6684V26.156C63.5503 26.156 65.3291 27.2573 65.3291 29.9122ZM79.323 29.9122C79.323 32.9604 77.6492 35.163 74.8334 35.163C72.0175 35.163 70.3438 32.9211 70.3438 29.8728C70.3438 26.8246 72.0175 24.6548 74.8334 24.6548C77.6492 24.6613 79.323 26.8639 79.323 29.9122ZM81.1214 29.9122C81.1214 27.1196 79.6577 23.1143 74.8268 23.1143C69.9959 23.1143 68.5322 27.1196 68.5322 29.9122C68.5322 32.7048 69.9959 36.7167 74.8268 36.7167C79.6643 36.7101 81.1214 32.7048 81.1214 29.9122ZM84.994 23.4486H83.2481V36.3758H84.994V30.3383H91.7481V36.3758H93.4941V23.4486H91.7481V28.7912H84.994V23.4486ZM97.6095 23.4486V27.5457C97.6095 30.5546 97.4848 32.2656 96.2574 34.8287H95.1744V39.1749H96.7759V36.3823H105.617H107.219V34.8353H106.077V23.4486H97.6095ZM104.331 34.8222H98.023C99.1454 32.5933 99.362 30.7447 99.362 27.88V24.9957H104.337V34.8222H104.331ZM113.94 23.4486V36.3758H119.946C122.283 36.3758 123.779 34.8287 123.779 32.7441C123.779 30.9479 122.709 28.7912 119.893 28.7912H115.686V25.0022H123.051V23.4551H113.94V23.4486ZM115.686 30.3383H119.303C120.871 30.3383 121.974 30.9807 121.974 32.7244C121.974 34.3436 120.871 34.8287 119.427 34.8287H115.686V30.3383ZM136.171 29.9122C136.171 32.9604 134.498 35.163 131.682 35.163C128.866 35.163 127.186 32.9211 127.186 29.8728C127.186 26.8246 128.859 24.6548 131.682 24.6548C134.491 24.6613 136.171 26.8639 136.171 29.9122ZM137.97 29.9122C137.97 27.1196 136.506 23.1143 131.675 23.1143C126.844 23.1143 125.381 27.1196 125.381 29.9122C125.381 32.7048 126.844 36.7167 131.675 36.7167C136.506 36.7101 137.97 32.7048 137.97 29.9122ZM141.836 24.9432H145.387C146.831 24.9432 147.953 25.4807 147.953 27.0999C147.953 28.8437 146.883 29.4336 145.315 29.4336H141.836V24.9432ZM141.836 30.9283H145.919C148.715 30.9283 149.752 28.883 149.752 27.0803C149.752 24.9957 148.308 23.4486 145.919 23.4486H140.09V36.3758H141.836V30.9283ZM153.624 23.4486H151.878V36.3758H157.884C160.221 36.3758 161.717 34.8287 161.717 32.7441C161.717 30.9479 160.648 28.7912 157.832 28.7912H153.624V23.4486ZM153.624 30.3383H157.241C158.81 30.3383 159.912 30.9807 159.912 32.7244C159.912 34.3436 158.81 34.8287 157.366 34.8287H153.624V30.3383ZM163.838 23.4486V36.3758H169.843C172.18 36.3758 173.677 34.8287 173.677 32.7441C173.677 30.9479 172.607 28.7912 169.791 28.7912H165.584V25.0022H172.948V23.4551H163.838V23.4486ZM165.584 30.3383H169.2C170.769 30.3383 171.872 30.9807 171.872 32.7244C171.872 34.3436 170.769 34.8287 169.325 34.8287H165.584V30.3383ZM177.543 23.4486H175.797V36.3758H181.803C184.139 36.3758 185.636 34.8287 185.636 32.7441C185.636 30.9479 184.566 28.7912 181.75 28.7912H177.543V23.4486ZM177.543 30.3383H181.159C182.728 30.3383 183.831 30.9807 183.831 32.7244C183.831 34.3436 182.728 34.8287 181.284 34.8287H177.543V30.3383ZM189.003 23.4486H187.257V36.3758H189.003V23.4486ZM65.06 46.1433C64.9156 44.2357 63.3468 41.5676 59.4808 41.5676C56.1464 41.5676 53.5472 43.862 53.5472 48.3852C53.5472 52.8363 56.0086 55.17 59.448 55.17C62.6905 55.17 64.5283 53.21 65.06 50.3977H62.3688C62.0472 51.9841 60.997 52.8888 59.5005 52.8888C57.2163 52.8888 56.2383 50.732 56.2383 48.418C56.2383 44.7666 58.2009 43.8423 59.5005 43.8423C61.7322 43.8423 62.1588 45.3566 62.3688 46.1367H65.06V46.1433ZM76.4349 41.9085V49.3685C76.4349 52.1611 76.133 53.0199 74.9187 53.0199C74.5643 53.0199 74.2754 52.9674 74.1179 52.915V54.9799C74.5774 55.1241 75.1484 55.1766 75.7589 55.1766C78.3056 55.1766 79.126 53.0068 79.126 49.657V44.1373H82.782V54.8357H85.4732V41.9085H76.4349ZM87.9674 41.9085V54.8357H97.8064V52.6069H90.6585V49.0276H96.9531V46.7988H90.6585V44.1308H97.5242V41.902H87.9674V41.9085ZM102.552 41.9085H99.8609V54.8357H102.749L108.026 45.632H108.059V54.8357H110.75V41.9085H107.718L102.585 50.9156H102.552V41.9085ZM115.935 41.9085H113.244V54.8357H115.935V50.4567L117.202 49.1587L121.193 54.8357H124.672L119.093 47.1987L124.37 41.9085H120.878L115.942 47.1594V41.9085H115.935ZM126.011 41.9085V54.8357H135.85V52.6069H128.702V49.0276H134.997V46.7988H128.702V44.1308H135.568V41.902H126.011V41.9085ZM137.898 41.9085V54.8357H140.412V44.0259H140.444L142.794 54.8291H145.453L147.881 44.0259H147.901V54.8291H150.415V41.9085H146.509L144.212 52.089H144.179L141.843 41.9085H137.898ZM155.6 41.9085H152.909V54.8357H155.797L161.074 45.632H161.107V54.8357H163.798V41.9085H160.766L155.613 50.9156H155.594V41.9085H155.6ZM166.299 41.9085V54.8357H176.138V52.6069H168.99V49.0276H175.285V46.7988H168.99V44.1308H175.856V41.902H166.299V41.9085ZM180.877 41.9085H178.186V54.8357H181.074L186.351 45.632H186.384V54.8357H189.075V41.9085H186.043L180.91 50.9156H180.877V41.9085Z" fill="black"/>
<path d="M39.3759 36.1855H6.12402V38.8142H39.3759V36.1855Z" fill="#EB2026"/>
<path d="M39.3759 36.1855H6.12402V38.8142H39.3759V36.1855Z" fill="#EB2026"/>
<path d="M39.3759 36.1855H6.12402V38.8142H39.3759V36.1855Z" fill="#EB2026"/>
<path d="M39.3759 36.1855H6.12402V38.8142H39.3759V36.1855Z" fill="#EB2026"/>
<path d="M30.8694 45.9404H11.9199V48.1168H30.8694V45.9404Z" fill="#EB2026"/>
<path d="M30.8694 45.9404H11.9199V48.1168H30.8694V45.9404Z" fill="#EB2026"/>
<path d="M30.8694 45.9404H11.9199V48.1168H30.8694V45.9404Z" fill="#EB2026"/>
<path d="M30.8694 45.9404H11.9199V48.1168H30.8694V45.9404Z" fill="#EB2026"/>
<path d="M34.9856 39.5944C28.7829 46.8512 26.5906 48.6015 21.5496 54.403C16.5021 60.1979 14.8743 67.3433 22.0747 71.4601C21.3199 67.4744 24.1948 61.3714 34.0273 50.3977C38.3397 45.527 43.676 39.7976 40.7026 32.082C37.7292 24.3728 34.7427 22.7209 32.045 20.5576C35.3466 24.327 41.1883 32.3376 34.9856 39.5944Z" fill="#EB2026"/>
<path d="M33.5735 26.8838H14.624V29.0602H33.5735V26.8838Z" fill="#EB2026"/>
<path d="M33.5735 26.8838H14.624V29.0602H33.5735V26.8838Z" fill="#EB2026"/>
<path d="M33.5735 26.8838H14.624V29.0602H33.5735V26.8838Z" fill="#EB2026"/>
<path d="M33.5735 26.8838H14.624V29.0602H33.5735V26.8838Z" fill="#EB2026"/>
<path d="M11.4607 24.609C7.14836 29.4796 1.81205 35.209 4.78542 42.9247C7.75879 50.6338 10.7453 52.2858 13.443 54.4425C10.1414 50.6732 4.2997 42.6625 10.5024 35.4057C16.7052 28.1489 18.8974 26.3986 23.9384 20.5971C28.9859 14.8022 30.6137 7.65681 23.4133 3.54004C24.1681 7.53226 21.2932 13.6353 11.4607 24.609Z" fill="#EB2026"/>
</svg>
