<svg width="177" height="147" viewBox="0 0 177 147" fill="none" xmlns="http://www.w3.org/2000/svg">
<g clip-path="url(#clip0_108_38)">
<path d="M111.139 43.1707H67.8633V46.5903H111.139V43.1707Z" fill="#EB2026"/>
<path d="M111.139 43.1707H67.8633V46.5903H111.139V43.1707Z" fill="#EB2026"/>
<path d="M111.139 43.1707H67.8633V46.5903H111.139V43.1707Z" fill="#EB2026"/>
<path d="M111.139 43.1707H67.8633V46.5903H111.139V43.1707Z" fill="#EB2026"/>
<path d="M100.068 55.8601H75.4062V58.6913H100.068V55.8601Z" fill="#EB2026"/>
<path d="M100.068 55.8601H75.4062V58.6913H100.068V55.8601Z" fill="#EB2026"/>
<path d="M100.068 55.8601H75.4062V58.6913H100.068V55.8601Z" fill="#EB2026"/>
<path d="M100.068 55.8601H75.4062V58.6913H100.068V55.8601Z" fill="#EB2026"/>
<path d="M105.425 47.6052C97.3528 57.0454 94.4996 59.3223 87.9389 66.8694C81.3698 74.408 79.2512 83.7033 88.6223 89.0587C87.64 83.8738 91.3816 75.9345 104.178 61.6589C109.791 55.3228 116.736 47.8695 112.866 37.8323C108.996 27.8036 105.109 25.6546 101.598 22.8405C105.895 27.744 113.498 38.1649 105.425 47.6052Z" fill="#EB2026"/>
<path d="M103.588 31.0698H78.9258V33.901H103.588V31.0698Z" fill="#EB2026"/>
<path d="M103.588 31.0698H78.9258V33.901H103.588V31.0698Z" fill="#EB2026"/>
<path d="M103.588 31.0698H78.9258V33.901H103.588V31.0698Z" fill="#EB2026"/>
<path d="M103.588 31.0698H78.9258V33.901H103.588V31.0698Z" fill="#EB2026"/>
<path d="M74.809 28.1106C69.1966 34.4468 62.2516 41.9001 66.1213 51.9373C69.9911 61.9659 73.8779 64.1149 77.3889 66.9206C73.092 62.0171 65.4892 51.5962 73.5618 42.1559C81.6345 32.7156 84.4877 30.4387 91.0483 22.8916C97.6174 15.3531 99.736 6.05779 90.3649 0.702347C91.3473 5.89577 87.6057 13.8351 74.809 28.1106Z" fill="#EB2026"/>
<path d="M70.1599 123.744H67.7253L66.6318 126.866H68.3916L70.1599 123.744ZM172.396 123.744H169.962L168.868 126.866H170.628L172.396 123.744ZM11.063 104.506H8.81637V106.245C3.54566 106.245 1 109.486 1 112.914C1 116.342 3.52857 119.583 8.81637 119.583V121.323H11.063V119.583C16.3508 119.583 18.8794 116.342 18.8794 112.914C18.8794 109.486 16.3252 106.245 11.063 106.245V104.506ZM3.34064 112.914C3.34064 109.46 5.66419 108.028 8.81637 108.028V117.801C5.65565 117.801 3.34064 116.359 3.34064 112.914ZM16.5388 112.914C16.5388 116.368 14.2152 117.801 11.063 117.801V108.028C14.2238 108.028 16.5388 109.46 16.5388 112.914ZM34.7513 112.914C34.7513 116.88 32.573 119.745 28.9083 119.745C25.2436 119.745 23.0652 116.828 23.0652 112.863C23.0652 108.898 25.2436 106.075 28.9083 106.075C32.573 106.083 34.7513 108.949 34.7513 112.914ZM37.092 112.914C37.092 109.281 35.187 104.071 28.8997 104.071C22.6125 104.071 20.7075 109.281 20.7075 112.914C20.7075 116.547 22.6125 121.766 28.8997 121.766C35.1955 121.757 37.092 116.547 37.092 112.914ZM42.132 104.506H39.8597V121.323H42.132V113.468H50.9222V121.323H53.1945V104.506H50.9222V111.456H42.132V104.506ZM58.5507 104.506V109.836C58.5507 113.75 58.3884 115.976 56.7909 119.31H55.3814V124.964H57.4658V121.331H68.9725H71.0569V119.318H69.5705V104.506H58.5507ZM67.2982 119.301H59.0888C60.5496 116.402 60.8315 113.997 60.8315 110.27V106.518H67.3067V119.301H67.2982ZM79.8043 104.506V121.323H87.6207C90.6618 121.323 92.6095 119.31 92.6095 116.598C92.6095 114.261 91.2171 111.456 87.5524 111.456H82.0766V106.527H91.6613V104.514H79.8043V104.506ZM82.0766 113.468H86.7835C88.8252 113.468 90.2603 114.304 90.2603 116.573C90.2603 118.679 88.8252 119.31 86.9459 119.31H82.0766V113.468ZM108.738 112.914C108.738 116.88 106.559 119.745 102.895 119.745C99.2299 119.745 97.0431 116.828 97.0431 112.863C97.0431 108.898 99.2214 106.075 102.895 106.075C106.551 106.083 108.738 108.949 108.738 112.914ZM111.078 112.914C111.078 109.281 109.173 104.071 102.886 104.071C96.5989 104.071 94.6939 109.281 94.6939 112.914C94.6939 116.547 96.5989 121.766 102.886 121.766C109.173 121.757 111.078 116.547 111.078 112.914ZM116.11 106.45H120.731C122.611 106.45 124.071 107.149 124.071 109.256C124.071 111.524 122.679 112.292 120.637 112.292H116.11V106.45ZM116.11 114.236H121.423C125.062 114.236 126.412 111.575 126.412 109.23C126.412 106.518 124.533 104.506 121.423 104.506H113.838V121.323H116.11V114.236ZM131.452 104.506H129.18V121.323H136.996C140.037 121.323 141.985 119.31 141.985 116.598C141.985 114.261 140.593 111.456 136.928 111.456H131.452V104.506ZM131.452 113.468H136.159C138.201 113.468 139.636 114.304 139.636 116.573C139.636 118.679 138.201 119.31 136.321 119.31H131.452V113.468ZM144.744 104.506V121.323H152.561C155.602 121.323 157.549 119.31 157.549 116.598C157.549 114.261 156.157 111.456 152.492 111.456H147.017V106.527H156.601V104.514H144.744V104.506ZM147.017 113.468H151.723C153.765 113.468 155.2 114.304 155.2 116.573C155.2 118.679 153.765 119.31 151.886 119.31H147.017V113.468ZM162.581 104.506H160.309V121.323H168.125C171.166 121.323 173.114 119.31 173.114 116.598C173.114 114.261 171.721 111.456 168.057 111.456H162.581V104.506ZM162.581 113.468H167.288C169.329 113.468 170.765 114.304 170.765 116.573C170.765 118.679 169.329 119.31 167.45 119.31H162.581V113.468ZM177.496 104.506H175.224V121.323H177.496V104.506ZM16.1885 134.029C16.0006 131.547 13.9589 128.077 8.92742 128.077C4.58785 128.077 1.20502 131.061 1.20502 136.945C1.20502 142.736 4.40845 145.772 8.88471 145.772C13.1047 145.772 15.4966 143.222 16.1885 139.563H12.6861C12.2675 141.627 10.9007 142.804 8.95305 142.804C5.98027 142.804 4.70744 139.998 4.70744 136.988C4.70744 132.238 7.26164 131.036 8.95305 131.036C11.8575 131.036 12.4127 133.006 12.6861 134.02H16.1885V134.029ZM30.9926 128.52V138.225C30.9926 141.857 30.5997 142.975 29.0193 142.975C28.558 142.975 28.1822 142.906 27.9771 142.838V145.524C28.5751 145.712 29.3183 145.78 30.1128 145.78C33.4272 145.78 34.4951 142.957 34.4951 138.6V131.419H39.2532V145.337H42.7556V128.52H30.9926ZM46.0018 128.52V145.337H58.8069V142.437H49.5042V137.781H57.6964V134.882H49.5042V131.411H58.4396V128.511H46.0018V128.52ZM64.9832 128.52H61.4807V145.337H65.2394L72.1076 133.364H72.1503V145.337H75.6527V128.52H71.7061L65.0259 140.237H64.9832V128.52ZM82.4013 128.52H78.8988V145.337H82.4013V139.64L84.05 137.952L89.2438 145.337H93.7713L86.5102 135.402L93.3783 128.52H88.8337L82.4098 135.351V128.52H82.4013ZM95.514 128.52V145.337H108.319V142.437H99.0164V137.781H107.209V134.882H99.0164V131.411H107.952V128.511H95.514V128.52ZM110.984 128.52V145.337H114.256V131.274H114.299L117.357 145.328H120.817L123.977 131.274H124.003V145.328H127.275V128.52H122.192L119.202 141.764H119.16L116.118 128.52H110.984ZM134.023 128.52H130.521V145.337H134.28L141.148 133.364H141.191V145.337H144.693V128.52H140.746L134.041 140.237H134.015V128.52H134.023ZM147.948 128.52V145.337H160.753V142.437H151.45V137.781H159.642V134.882H151.45V131.411H160.386V128.511H147.948V128.52ZM166.921 128.52H163.418V145.337H167.177L174.045 133.364H174.088V145.337H177.59V128.52H173.643L166.963 140.237H166.921V128.52Z" fill="black"/>
</g>
<defs>
<clipPath id="clip0_108_38">
<rect width="177" height="147" fill="white"/>
</clipPath>
</defs>
</svg>
