<svg width="747" height="106" viewBox="0 0 747 106" fill="none" xmlns="http://www.w3.org/2000/svg">
<path d="M30.4415 84.0131C30.4415 81.4614 34.1154 72.4234 36.3102 66.4616C24.8352 76.0005 19.2288 81.5807 14.5768 86.0877C13.9135 86.4734 13.1455 86.6403 12.382 86.5647C10.5689 86.5647 4.70013 80.8414 2.83931 79.4106C2.38416 78.8926 2.08623 78.2556 1.98047 77.5744C2.10857 76.8484 2.49914 76.1949 3.07788 75.7381C3.43573 75.3804 24.3103 59.4029 33.4474 50.6272C35.1651 49.0533 37.2406 47.3363 38.8152 46.1201C38.0696 44.701 37.4162 43.2353 36.8589 41.7323C30.8948 28.4257 20.1593 10.2542 20.1593 9.30035C20.207 7.15412 27.1493 4.76941 30.68 4.76941C37.6462 4.76941 37.1691 11.9235 48.7395 32.8135L58.6162 6.22408C59.3558 4.03016 59.976 3.05243 61.5506 3.05243C66.799 3.05243 76.0793 6.82026 76.0793 9.87268C76.0793 12.2574 74.7195 14.499 69.8527 28.6641C86.9341 16.3352 90.942 11.5897 94.1149 11.5897C96.3097 11.5897 103.658 18.4099 103.658 20.9615C103.658 21.1046 71.8328 46.0963 67.1807 47.9325L69.2563 52.7019C74.1469 63.91 84.5007 81.6045 85.121 83.4169C85.2402 83.6792 85.9798 85.1339 85.2402 85.8016C81.8574 88.3408 77.7566 89.7434 73.5266 89.8079C70.6161 89.8079 65.2484 77.8844 57.8051 62.1453C54.8707 70.3487 51.7932 78.6952 48.8588 86.9462C48.3817 88.4009 47.7614 89.3309 45.9483 89.4979C38.6243 89.4979 30.4415 86.827 30.4415 84.0131ZM15.0778 70.7303L14.3144 70.4679V71.3264L15.0778 70.7303ZM17.2726 69.8718L16.7 69.371L16.3422 68.6556L14.9585 69.1564L15.8173 70.0149L16.6523 70.2533L17.2726 69.8718ZM18.2507 70.7303L15.0778 72.1849L15.8173 72.6619H15.3163L19.4674 75.5951L20.207 73.6396H19.2288L18.4893 72.9003C18.4893 73.1627 17.7497 73.1627 17.3919 73.0434L18.4893 72.0657L18.2507 70.7303ZM17.3919 68.6556C18.1032 68.713 18.8024 68.8736 19.4674 69.1325L20.0877 66.7478C18.871 66.5093 18.2507 67.3678 17.1533 67.8448L17.3919 68.6556ZM23.857 65.7224C24.3342 65.4839 24.5966 64.7447 24.9544 64.0054L23.857 63.8862L23.2368 64.6254V65.1024L23.857 65.7224ZM30.4415 63.1708L28.6284 62.9084C28.4852 63.4092 27.8888 64.2677 28.2467 64.9831L27.2685 65.9609C27.6101 66.1178 27.9913 66.1676 28.3618 66.1038C28.7323 66.0399 29.0748 65.8654 29.3441 65.6032C29.2248 64.7447 29.9643 63.8862 30.3222 63.1708H30.4415ZM28.9862 18.5291L28.8669 19.5069L29.5826 20.6038L30.2029 19.7453L29.9643 18.7676L28.9862 18.5291ZM34.2347 62.5507L32.8749 61.8115C32.2026 62.8544 31.7481 64.0225 31.5389 65.2454L32.517 65.6032L34.4733 64.2677L34.2347 62.5507ZM32.517 66.7717L31.5389 66.414L32.0399 67.6301L32.517 66.7717ZM33.1373 18.4815V19.2207L33.853 19.0776L33.1373 18.4815ZM35.5229 60.9291C36.0001 60.6668 36.7396 60.3091 37.4792 59.8322C38.6959 58.8545 37.5985 58.2344 37.0975 57.4475L37.3599 56.2313L36.1194 55.1343L34.6641 56.2313L35.6422 57.209L34.4255 59.5937L35.5229 60.9291ZM36.2625 20.5561L35.7854 20.9615V21.7008L36.2625 20.5561ZM37.0975 30.6911V31.9073H38.0756L37.837 31.0488L37.0975 30.6911ZM39.674 31.1681L38.8152 32.0266C39.4523 32.2415 40.1068 32.4011 40.7714 32.5035L40.3897 31.645L39.674 31.1681ZM39.674 23.7278L39.3162 24.3478L39.4354 25.1825L40.1511 25.3255L40.5328 24.2286L39.674 23.7278ZM40.2704 27.0187C40.2402 27.4278 40.0719 27.8145 39.7933 28.1156C39.5547 28.4734 39.674 28.8549 39.674 29.3318L40.1511 29.2126L40.6521 28.1156L40.2704 27.0187ZM42.6561 66.0324L43.3718 67.5109L42.7754 68.9656L43.3718 67.9879V66.7717L42.6561 66.0324ZM44.4692 62.8607L43.3718 63.1231L43.1332 64.3393L44.3499 64.22L44.4692 62.8607ZM45.5666 57.4952L44.4692 58.3537L46.5447 59.6891L45.5666 57.4952ZM45.8052 63.8385L44.9702 65.6747C45.2088 66.0324 46.1869 66.1516 46.7833 66.1516C46.7384 65.3039 46.3915 64.5003 45.8052 63.8862V63.8385ZM47.2843 68.6079L46.4254 69.9433L47.2843 69.8241V68.6079ZM56.1828 56.3982L57.3995 58.2344C58.2584 57.8767 57.5188 54.7051 57.1609 54.085C56.8031 54.5858 55.825 54.7051 55.324 54.9435L52.652 54.085L52.8906 52.6304L53.7494 51.6526L54.9661 51.8911L55.324 53.3696L56.0635 52.9881C56.5407 51.7719 56.0635 50.6034 56.5407 49.6972L57.5188 49.3395L57.0417 46.6448L60.0953 47.8848L59.642 46.3348L57.5665 45.1186V43.6639L56.4214 42.9246L56.0635 39.0137H55.0854L54.6083 39.8722L53.7494 39.3714H52.652C52.3091 39.5312 52.0091 39.7703 51.7768 40.0688C51.5445 40.3673 51.3866 40.7168 51.3161 41.0884L52.652 41.4461V42.8054L51.7932 43.5208L50.0994 41.7084L49.4791 42.1854L51.4353 43.6639L51.9125 44.8801L51.4353 46.3348L53.821 48.8864L52.7236 45.8578L53.5824 44.4985L54.8707 48.8864L53.654 50.8419L51.817 50.3649L51.0775 49.3872L52.5566 51.9388L51.2206 52.3204C50.3618 53.6558 49.2644 55.6113 47.7853 56.2074L46.9503 58.4014L47.7853 59.1406V62.193L49.6222 61.573L50.0039 60.3568L50.3618 60.8576C50.3618 60.3568 50.0039 58.4729 49.2644 58.4729L48.8827 55.9213L49.6222 56.5174L50.7196 54.7051L52.1988 55.0628L52.7952 55.9213C54.1073 55.8497 55.0854 56.4459 56.1828 56.4459V56.3982ZM50.3379 64.387L47.9523 64.5062L48.8111 66.8909L49.9085 67.6301L50.3379 64.387ZM49.7177 50.6034L48.7395 50.9611L50.6958 51.8196L49.7177 50.6034ZM50.0994 44.0216L48.9781 44.2601L49.2405 45.8578L50.3379 46.0963C50.3768 45.3962 50.2961 44.6946 50.0994 44.0216ZM49.3598 53.0358L49.2405 53.775L49.4791 53.6558L49.3598 53.0358ZM50.8151 56.8274C51.3161 57.5429 51.7932 57.5429 52.652 57.9244C52.8488 57.2514 52.9295 56.5498 52.8906 55.8497C52.1744 56.1212 51.4804 56.4481 50.8151 56.8274ZM55.7057 35.9613C56.1828 34.2682 54.9661 34.5066 53.988 33.8866L53.6302 32.7897L51.9125 32.5512L51.3161 34.0297L52.8906 34.6259L52.652 37.3206L54.7276 38.1552C55.1774 37.4856 55.5083 36.7434 55.7057 35.9613ZM56.0635 28.6164L54.7276 28.7595L53.988 29.7372L52.8906 29.8565L51.7932 30.8342L55.7057 29.8565L56.0635 28.6164ZM52.8906 38.1552L52.5327 39.2522C52.7401 38.9213 52.8629 38.5447 52.8906 38.1552ZM54.2266 60.9768L53.6302 59.0214L52.652 59.7368V61.8115L53.6302 61.9546L54.2266 60.9768ZM53.5109 44.1408L53.7494 42.6862L53.1292 42.0661L52.8906 40.7307L54.7276 39.9915C54.7276 40.2299 54.6083 40.6115 54.6083 40.7307C54.5983 41.4125 54.7625 42.0856 55.0854 42.6862C55.0854 43.4016 53.988 44.1408 53.5109 44.1408ZM55.324 32.432L55.5864 31.0011L57.9721 30.1426C57.5904 30.1426 57.1132 29.9042 56.8747 29.9042C55.759 30.2126 54.6601 30.5787 53.5824 31.0011L53.821 32.6943L55.324 32.432ZM54.2266 56.9467L54.1073 57.6859L54.7276 57.4236L54.2266 56.9467ZM58.2584 25.9456V24.4909C57.1609 24.9678 55.8727 24.9678 54.9661 25.8263L55.825 26.4225L56.8031 25.9456H58.2584ZM56.8031 33.3858L55.7057 34.3636L56.8031 34.602V33.3858ZM57.9005 37.416H56.1828C56.5631 38.678 56.7717 39.9854 56.8031 41.303L58.2584 40.9453L59.2365 38.5606L57.9005 37.416ZM57.9005 36.1998L57.2564 35.7705L57.7574 37.106L57.9005 36.1998ZM58.6162 42.1615L57.6619 42.4L58.8786 43.497L58.6162 42.1615ZM62.0277 23.6563C61.151 24.3653 60.3514 25.1646 59.642 26.041L60.0237 27.8772L61.1212 27.2572L62.0277 23.6563ZM60.3339 21.4623C60.659 22.0142 61.0258 22.5404 61.4313 23.0362L61.312 21.9393L60.3339 21.4623ZM62.0277 28.9026H61.0734L60.9303 29.8803H61.5506L62.0277 28.9026ZM63.8647 22.2016L62.648 22.0585L61.9084 22.917L64.2941 23.6563L63.8647 22.2016ZM67.7772 69.1564H66.799C66.0595 70.0149 65.0814 70.1341 64.2225 70.9926L67.3955 70.1341L67.7772 69.1564ZM67.0376 61.4776L65.9402 61.2392L65.3438 61.9784L67.4193 62.6938L67.0376 61.4776ZM67.0376 72.5665V71.3503L69.1131 70.6349C67.875 70.7466 66.6518 70.9864 65.4631 71.3503L65.5823 72.8288L67.0376 72.5665ZM67.4193 67.2248C68.1389 67.0363 68.8731 66.9086 69.6141 66.8432V65.627L67.4193 66.1039L66.799 66.8432L67.4193 67.2248ZM69.1847 63.1708C69.1847 64.0054 69.805 64.387 70.2821 64.7447L69.9243 63.6477L69.1847 63.1708ZM71.5704 33.052L70.7354 32.7897L70.8547 33.6482H71.0932L71.5704 33.052ZM71.8328 68.274C72.3861 67.396 72.7215 66.3985 72.8109 65.3647C72.006 65.8257 71.3005 66.4417 70.7354 67.1771L70.974 68.5363L71.8328 68.274ZM72.6678 69.7525L71.9521 69.6333V70.3487L72.4292 70.4679L72.6678 69.7525ZM76.461 31.5973L75.3636 32.4558L76.2224 33.3143L76.5803 32.3366L76.461 31.5973ZM77.797 29.4034L76.8188 29.9042V30.2619L77.797 29.4034ZM78.0355 34.1728L77.0574 33.9343V35.1505L78.298 35.8659C78.2741 35.2459 77.8924 34.8644 78.0117 34.2682L78.0355 34.1728ZM80.1111 27.0187L79.5146 26.7802L78.8944 27.4002L80.1111 27.0187ZM84.5007 27.9964H83.4987L83.117 28.7357L83.3556 29.5942L84.5723 28.7357L84.5007 27.9964ZM85.2402 22.7501L84.2621 23.7278L83.9043 25.3255L85.2402 25.0632L85.7412 23.847L85.2402 22.7501ZM95.6179 22.3924L94.2819 22.8693L93.4231 23.847L93.9002 24.3478L95.2362 23.6086L95.6179 22.3924Z" fill="#BF271A"/>
<path d="M139.801 89.1402V59.6175H139.443L104.731 90.6187H102.799V31.0011H120.143V60.1899H120.5C132.095 49.7449 143.522 39.8245 155.045 29.1888H157.073V89.0448L139.801 89.1402Z" fill="#BF271A"/>
<path d="M165.231 87.2801V72.9719C170.643 75.4691 176.52 76.8016 182.48 76.8828C190.472 76.8828 194.17 74.045 194.17 70.0625C194.17 66.0801 190.281 64.3869 185.51 64.3869H177.971V53.2027H184.961C189.136 53.2027 192.762 51.1518 192.762 48.4333C192.762 44.9039 188.683 43.3062 183.219 43.3062C177.7 43.3947 172.228 44.3358 166.997 46.0963V32.2889C173.19 30.4245 179.615 29.445 186.082 29.3795C196.603 29.3795 209.366 32.9089 209.366 45.2139C209.217 47.8937 208.317 50.4775 206.769 52.6702C205.221 54.863 203.087 56.5763 200.611 57.6144V57.7813C203.65 58.5668 206.337 60.3504 208.241 62.8457C210.145 65.341 211.154 68.4033 211.108 71.541C211.108 82.8684 200.993 90.404 184.531 90.404C177.973 90.3993 171.457 89.3446 165.231 87.2801Z" fill="#BF271A"/>
<path d="M254.742 89.1402V65.5793H237.207V89.1402H219.863V30.7865H237.207V52.4634H254.742V30.7865H272.205V89.1402H254.742Z" fill="#BF271A"/>
<path d="M324.977 89.1402H282.56V30.7865H323.736V43.807H299.879V52.7496H320.611V65.2216H299.879V76.0243H324.953L324.977 89.1402Z" fill="#BF271A"/>
<path d="M333.469 30.7865H357.469C373.333 30.7865 380.419 40.5399 380.419 50.6272C380.419 61.3345 372.427 70.5395 358.542 70.5395H350.836V89.1402H333.469V30.7865ZM350.693 43.4493V58.139H353.27C361.047 58.139 363.266 54.872 363.266 50.9849C363.266 47.0979 360.88 43.5447 355.035 43.5447L350.693 43.4493Z" fill="#BF271A"/>
<path d="M413.437 82.5822H393.158L390.224 89.1402H373.524L402.653 29.3795H404.681L433.309 89.1402H416.299L413.437 82.5822ZM398.121 71.5411H408.57L403.608 59.9514H403.178L398.121 71.5411Z" fill="#BF271A"/>
<path d="M498.102 76.1197H506.237V102.948H492.066V89.1402H448.504V102.948H434.429V76.1197H441.848C447.621 70.8018 449.005 63.9815 450.174 53.7273L452.941 30.7865H498.102V76.1197ZM465.872 53.7273C464.536 65.2216 463.033 70.9926 459.216 76.1197H480.472V43.0916H467.088L465.872 53.7273Z" fill="#BF271A"/>
<path d="M511.01 59.9275C511.01 43.02 524.298 29.5464 543.264 29.5464C562.23 29.5464 575.232 43.02 575.232 59.9275C575.232 76.8351 562.039 90.1894 543.073 90.1894C523.511 90.1894 511.01 77.0974 511.01 59.9275ZM528.377 59.9275C528.377 69.4664 534.318 76.4774 543.336 76.4774C552.353 76.4774 558.246 69.1563 558.246 59.9275C558.246 50.6988 552.759 43.7116 543.455 43.7116C534.151 43.7116 528.377 50.8895 528.377 59.9275Z" fill="#BF271A"/>
<path d="M631.199 87.3755C625.804 89.3537 620.103 90.3707 614.357 90.3802C593.721 90.3802 582.389 77.2643 582.389 60.1899C582.389 43.9024 594.174 29.5464 614.81 29.5464C619.833 29.5829 624.821 30.3871 629.601 31.9311V46.0247C625.718 44.3297 621.528 43.4529 617.291 43.4493C608.082 43.4493 599.852 48.8625 599.852 60.2614C599.852 71.0641 606.746 76.4774 616.408 76.4774C621.504 76.3527 626.515 75.1413 631.104 72.9242L631.199 87.3755Z" fill="#BF271A"/>
<path d="M668.56 43.807V89.1163H651.288V43.807H635.447V30.715H684.592V43.807H668.56Z" fill="#BF271A"/>
<path d="M727.629 89.1401V59.6175H727.271L692.56 90.6186H690.604V31.0011H707.947V60.1898H708.305C719.923 49.7449 731.351 39.8245 742.85 29.1887H744.901V89.0447L727.629 89.1401Z" fill="#BF271A"/>
</svg>
