<svg width="41" height="38" viewBox="0 0 41 38" fill="none" xmlns="http://www.w3.org/2000/svg">
<path d="M40.4211 33.2851C40.713 32.8327 40.751 32.2617 40.5228 31.7747L37.9871 26.19C39.0246 23.8882 39.5606 21.3914 39.5588 18.8666C39.5588 8.49669 30.6832 0.0568848 19.8422 0.0568848C9.00126 0.0568848 0.112305 8.49669 0.112305 18.8666C0.112305 29.2365 8.9879 37.6507 19.8164 37.6507C23.9779 37.6711 28.0429 36.4033 31.4569 34.0208H39.0652H39.0643C39.6127 34.0252 40.1248 33.7472 40.4211 33.2851L40.4211 33.2851ZM30.9369 30.8353C30.5999 30.8353 30.2709 30.9415 29.9985 31.1399C27.0647 33.316 23.5055 34.4829 19.8544 34.4652C10.7372 34.4652 3.37052 27.4596 3.37052 18.8541C3.37052 10.2486 10.7886 3.21743 19.8544 3.21743C28.9202 3.21743 36.4011 10.223 36.4011 18.8541H36.4019C36.3975 21.1489 35.8642 23.4117 34.8417 25.4667C34.633 25.8952 34.633 26.3963 34.8417 26.8248L36.6169 30.8353H30.9369Z" fill="#BF271A"/>
<path d="M10.8527 14.8928C11.233 14.5626 13.2107 13.0141 14.8346 14.7662L14.8337 14.7653C15.4316 15.4054 16.4319 15.4453 17.0785 14.8547C17.3872 14.5714 17.5711 14.1757 17.5879 13.756C17.6039 13.3364 17.4526 12.9283 17.1669 12.621C16.072 11.4807 14.5667 10.8273 12.9869 10.8052C11.4081 10.784 9.88512 11.3966 8.76002 12.5068C8.44427 12.7804 8.25145 13.1699 8.2258 13.5878C8.19926 14.0057 8.34166 14.4156 8.62027 14.7272C9.19519 15.3824 10.1876 15.455 10.8527 14.8928V14.8928Z" fill="#BF271A"/>
<path d="M21.8975 12.6218C21.5702 12.921 21.3827 13.3442 21.3818 13.7887C21.3801 14.2331 21.5649 14.6572 21.8913 14.9582C22.2177 15.2601 22.6546 15.4106 23.0968 15.3743C23.5391 15.3371 23.9459 15.1175 24.2183 14.7661C25.8413 13.0149 27.8323 14.5633 28.2127 14.8927V14.8936C28.8707 15.4717 29.8728 15.4062 30.4504 14.7475C31.0279 14.0888 30.9625 13.0857 30.3044 12.5076C28.4656 10.883 24.7005 9.57525 21.8975 12.6218L21.8975 12.6218Z" fill="#BF271A"/>
<path d="M28.5405 20.5793C27.7011 20.3421 26.8264 20.8219 26.5752 21.6586C26.1604 22.8245 25.4537 23.8648 24.5214 24.6793C23.1416 25.8656 21.3825 26.5181 19.5632 26.5181C17.7447 26.5181 15.9855 25.8656 14.6056 24.6793C13.6646 23.871 12.9446 22.8351 12.5139 21.671C12.2786 20.8264 11.4047 20.3324 10.5609 20.567C9.71716 20.8016 9.22274 21.6772 9.45801 22.5218C10.0435 24.2633 11.081 25.8179 12.4627 27.0273C14.412 28.7519 16.9239 29.7037 19.5251 29.7037C22.1271 29.7037 24.6391 28.752 26.5884 27.0273C27.9787 25.8259 29.0172 24.2686 29.593 22.5218C29.8238 21.6958 29.3577 20.8361 28.5405 20.5794L28.5405 20.5793Z" fill="#BF271A"/>
</svg>
