<svg width="46" height="38" viewBox="0 0 46 38" fill="none" xmlns="http://www.w3.org/2000/svg">
<path fill-rule="evenodd" clip-rule="evenodd" d="M23.0094 0.0498047C19.1544 0.0498047 16.0234 3.18241 16.0234 7.03941C16.0234 10.8964 19.1544 14.029 23.0094 14.029C26.8645 14.029 29.9955 10.8964 29.9955 7.03941C29.9955 3.18241 26.8645 0.0498047 23.0094 0.0498047ZM23.0094 2.04703C25.7638 2.04703 27.9993 4.28364 27.9993 7.03941C27.9993 9.79518 25.7638 12.0318 23.0094 12.0318C20.2551 12.0318 18.0196 9.79518 18.0196 7.03941C18.0196 4.28364 20.2551 2.04703 23.0094 2.04703Z" fill="#BF271A"/>
<path fill-rule="evenodd" clip-rule="evenodd" d="M12.1063 21.0744C11.2339 20.3944 10.1552 20.02 9.03851 20.02H5.04645C3.72321 20.02 2.45377 20.5462 1.51752 21.4816C0.582551 22.4184 0.0566406 23.6884 0.0566406 25.0124V31.0034C0.0566406 32.6579 1.39691 33.9989 3.0506 33.9989H11.0344C11.3846 33.9989 11.72 33.939 12.0325 33.828V34.9975C12.0325 35.7921 12.3476 36.5541 12.9096 37.115C13.4703 37.6773 14.2318 37.993 15.0264 37.993H30.9936C31.7882 37.993 32.5497 37.6774 33.1104 37.115C33.6725 36.554 33.9876 35.7921 33.9876 34.9975V33.828C34.3 33.939 34.6355 33.9989 34.9857 33.9989H42.9694C44.6231 33.9989 45.9634 32.6579 45.9634 31.0034V25.0124C45.9634 23.6884 45.4375 22.4184 44.5025 21.4816C43.5663 20.5462 42.2968 20.02 40.9736 20.02H36.9815C35.8648 20.02 34.7862 20.3944 33.9138 21.0744C33.4627 18.2136 30.9866 16.0259 27.9997 16.0259H18.0204C15.0334 16.0259 12.5574 18.2136 12.1063 21.0744ZM31.9921 22.0169V34.9976C31.9921 35.2621 31.8872 35.5168 31.6998 35.7034C31.513 35.8913 31.2587 35.9959 30.994 35.9959H15.0269C14.7622 35.9959 14.5079 35.8913 14.3211 35.7034C14.1337 35.5168 14.0288 35.2621 14.0288 34.9976V22.0169C14.0288 19.8111 15.8161 18.0228 18.0208 18.0228H28.0001C30.2048 18.0228 31.9921 19.8111 31.9921 22.0169ZM43.968 25.0124V31.0034C43.968 31.5546 43.5209 32.002 42.9699 32.002H34.9861C34.4351 32.002 33.988 31.5546 33.988 31.0034V25.0124C33.988 24.2177 34.3034 23.4557 34.8655 22.8945C35.4262 22.3325 36.1877 22.0169 36.982 22.0169H40.974C41.7683 22.0169 42.5298 22.3325 43.0908 22.8945C43.6525 23.4558 43.968 24.2177 43.968 25.0124ZM12.0327 25.0124V31.0034C12.0327 31.5546 11.5856 32.002 11.0346 32.002H3.05085C2.49985 32.002 2.05275 31.5546 2.05275 31.0034V25.0124C2.05275 24.2177 2.36819 23.4557 2.9299 22.8945C3.49093 22.3325 4.25246 22.0169 5.04671 22.0169H9.03877C9.83304 22.0169 10.5946 22.3325 11.1552 22.8945C11.7173 23.4558 12.0327 24.2177 12.0327 25.0124Z" fill="#BF271A"/>
<path fill-rule="evenodd" clip-rule="evenodd" d="M7.04255 8.03809C4.28819 8.03809 2.05273 10.2747 2.05273 13.0305C2.05273 15.7862 4.28819 18.0228 7.04255 18.0228C9.79724 18.0228 12.0327 15.7862 12.0327 13.0305C12.0327 10.2747 9.79724 8.03809 7.04255 8.03809ZM7.04255 10.035C8.69521 10.035 10.0365 11.377 10.0365 13.0305C10.0365 14.684 8.69521 16.026 7.04255 16.026C5.38988 16.026 4.04859 14.684 4.04859 13.0305C4.04859 11.377 5.38988 10.035 7.04255 10.035Z" fill="#BF271A"/>
<path fill-rule="evenodd" clip-rule="evenodd" d="M38.9784 8.03809C36.2237 8.03809 33.9883 10.2747 33.9883 13.0305C33.9883 15.7862 36.2237 18.0228 38.9784 18.0228C41.7328 18.0228 43.9683 15.7862 43.9683 13.0305C43.9683 10.2747 41.7328 8.03809 38.9784 8.03809ZM38.9784 10.035C40.6311 10.035 41.9724 11.377 41.9724 13.0305C41.9724 14.684 40.6311 16.026 38.9784 16.026C37.3258 16.026 35.9845 14.684 35.9845 13.0305C35.9845 11.377 37.3258 10.035 38.9784 10.035Z" fill="#BF271A"/>
</svg>
