<svg width="30" height="38" viewBox="0 0 30 38" fill="none" xmlns="http://www.w3.org/2000/svg">
<path d="M24.3701 30.2728C23.3427 27.9371 22.5718 24.6549 22.3891 20.84H27.8238C28.678 20.84 29.3712 20.1869 29.488 19.3518H29.5057V19.1018C29.5057 18.1512 28.7619 17.3636 27.8238 17.3636H22.3793C22.5383 13.4843 23.3053 10.1398 24.3382 7.75789C24.8664 6.53974 25.4596 5.58396 26.0677 4.93693C26.6787 4.28673 27.2785 3.97457 27.8242 3.97457C28.7623 3.97457 29.506 3.18701 29.506 2.23637C29.506 1.28573 28.7623 0.498169 27.8242 0.498169C25.3329 0.498169 23.1956 2.39595 21.66 5.43117C20.1448 8.42626 19.1789 12.5906 19.0119 17.3634H11.8193C11.6523 12.5909 10.6865 8.42652 9.17123 5.43138C7.63569 2.39609 5.49829 0.498169 3.00703 0.498169C2.0693 0.498169 1.32518 1.28569 1.32518 2.23637C1.32518 3.18705 2.06927 3.97457 3.00703 3.97457C3.55246 3.97457 4.15224 4.2867 4.76323 4.93689C5.37123 5.5839 5.96446 6.53966 6.49272 7.75779C7.52565 10.1396 8.29273 13.4841 8.45158 17.3636H2.17209C1.23436 17.3636 0.490234 18.1511 0.490234 19.1018C0.490234 20.0528 1.23437 20.84 2.17209 20.84H8.44211C8.25936 24.6549 7.48839 27.9371 6.46099 30.2728C5.93529 31.4679 5.34706 32.4047 4.74509 33.0386C4.14029 33.6754 3.5472 33.981 3.00737 33.981C2.06968 33.981 1.32552 34.7682 1.32552 35.7192C1.32552 36.6703 2.06965 37.4574 3.00737 37.4574C5.47723 37.4574 7.59931 35.5917 9.1315 32.6023C10.6431 29.6531 11.6167 25.5501 11.8097 20.8402H19.0215C19.2147 25.5501 20.1883 29.6531 21.6999 32.6023C23.232 35.5917 25.354 37.4574 27.8238 37.4574C28.7619 37.4574 29.5057 36.6703 29.5057 35.7192C29.5057 34.7682 28.7619 33.981 27.8238 33.981C27.2839 33.981 26.6908 33.6754 26.086 33.0386C25.484 32.4047 24.8958 31.4679 24.3701 30.2728Z" fill="#BF271A" stroke="#BF271A" stroke-width="0.5"/>
</svg>
