<svg width="25" height="25" viewBox="0 0 25 25" fill="none" xmlns="http://www.w3.org/2000/svg">
<circle cx="12.5" cy="12.5" r="12.5" fill="#FFCDCD"/>
<path d="M16.9888 10.04C17.019 10.928 16.7625 11.802 16.2573 12.5319C15.7522 13.2617 15.0256 13.8083 14.1856 14.0902C14.1856 14.0902 14.0652 14.1329 14.0652 14.2036V15.1679C14.0652 15.6003 13.8352 15.9999 13.462 16.2161C13.0887 16.4323 12.6288 16.4323 12.2556 16.2161C11.8823 15.9999 11.6524 15.6003 11.6524 15.1679V14.2036C11.6581 13.6682 11.8311 13.1481 12.1471 12.7165C12.463 12.2849 12.906 11.9636 13.4135 11.7979C13.7629 11.6799 14.065 11.452 14.2749 11.148C14.4849 10.844 14.5915 10.4802 14.5789 10.1106C14.554 9.66388 14.3611 9.24333 14.0392 8.93367C13.7172 8.62404 13.2901 8.44852 12.8441 8.44245C12.5225 8.44389 12.2077 8.53642 11.9361 8.70936C11.6645 8.8823 11.4471 9.12867 11.3089 9.42014C11.1218 9.80956 10.7416 10.0693 10.3118 10.1014C9.8819 10.1336 9.46769 9.93322 9.22495 9.57583C8.98232 9.21843 8.94814 8.75834 9.13537 8.36891C9.46797 7.66831 9.99101 7.07602 10.6442 6.66041C11.2974 6.2447 12.0544 6.02243 12.8279 6.01904H12.8558C13.9284 6.02633 14.9567 6.44843 15.7266 7.19741C16.4965 7.94649 16.9485 8.96477 16.9887 10.04L16.9888 10.04ZM14.0711 18.7781C14.0711 18.4557 13.9434 18.1466 13.7163 17.9185C13.4892 17.6905 13.1811 17.5622 12.8598 17.562C12.5384 17.5617 12.2301 17.6894 12.0026 17.9171C11.7751 18.1448 11.647 18.4537 11.6465 18.7761C11.6459 19.0985 11.773 19.4078 11.9998 19.6362C12.2266 19.8646 12.5344 19.9934 12.8557 19.9942C13.1777 19.9945 13.4866 19.8667 13.7145 19.6386C13.9424 19.4106 14.0706 19.101 14.071 18.7781L14.0711 18.7781Z" fill="#BF271A"/>
</svg>
