<svg width="34" height="38" viewBox="0 0 34 38" fill="none" xmlns="http://www.w3.org/2000/svg">
<path d="M33.0003 5.7C33.0003 8.30128 30.9055 10.4 28.3337 10.4C25.7619 10.4 23.667 8.30128 23.667 5.7C23.667 3.09872 25.7619 1 28.3337 1C30.9055 1 33.0003 3.09872 33.0003 5.7Z" stroke="#BF271A" stroke-width="2"/>
<path d="M10.3333 18.9998C10.3333 21.6011 8.23847 23.6998 5.66667 23.6998C3.09486 23.6998 1 21.6011 1 18.9998C1 16.3985 3.09486 14.2998 5.66667 14.2998C8.23847 14.2998 10.3333 16.3985 10.3333 18.9998Z" stroke="#BF271A" stroke-width="2"/>
<path d="M33.0003 32.3001C33.0003 34.9014 30.9055 37.0001 28.3337 37.0001C25.7619 37.0001 23.667 34.9014 23.667 32.3001C23.667 29.6988 25.7619 27.6001 28.3337 27.6001C30.9055 27.6001 33.0003 29.6988 33.0003 32.3001Z" stroke="#BF271A" stroke-width="2"/>
<path d="M23.611 29.4501L9.44434 21.8501" stroke="#BF271A" stroke-width="2"/>
<path d="M9.44434 16.1498L23.611 8.5498" stroke="#BF271A" stroke-width="2"/>
</svg>
