<svg width="70" height="70" viewBox="0 0 70 70" fill="none" xmlns="http://www.w3.org/2000/svg">
<path d="M0 6C0 2.68629 2.68629 0 6 0H64C67.3137 0 70 2.68629 70 6V64C70 67.3137 67.3137 70 64 70H6C2.68629 70 0 67.3137 0 64V6Z" fill="#374246"/>
<circle cx="35" cy="21.9375" r="9.5" stroke="white" stroke-width="3" stroke-linecap="round"/>
<path fill-rule="evenodd" clip-rule="evenodd" d="M53.02 57.5625C53.5497 57.5625 53.9901 57.1494 53.9977 56.6197C53.9992 56.5151 54 56.4102 54 56.3051C54 55.8006 53.9825 55.3004 53.948 54.8051C53.2233 44.395 45.0169 36.1875 35 36.1875C24.9831 36.1875 16.7767 44.395 16.052 54.8051C16.0175 55.3004 16 55.8006 16 56.3051C16 56.4102 16.0008 56.5151 16.0023 56.6197C16.0099 57.1494 16.4503 57.5625 16.98 57.5625H53.02ZM35 39.1875C42.8848 39.1875 49.6512 45.3801 50.8213 53.7272C50.9024 54.3054 50.4403 54.8051 49.8564 54.8051H20.1436C19.5597 54.8051 19.0976 54.3054 19.1787 53.7272C20.3488 45.3801 27.1152 39.1875 35 39.1875Z" fill="white"/>
</svg>
