<svg width="118" height="118" viewBox="0 0 118 118" fill="none" xmlns="http://www.w3.org/2000/svg">
<mask id="path-1-inside-1_40_1946" fill="white">
<path d="M92.3754 92.3754C96.9836 96.9836 104.576 97.0311 108.176 91.5992C113.821 83.0837 117.197 73.1876 117.874 62.8588C118.81 48.5755 114.522 34.439 105.808 23.0831C97.0941 11.7271 84.5492 3.92617 70.5103 1.13367C56.4715 -1.65883 41.8962 0.747558 29.5 7.9045C17.1038 15.0614 7.73217 26.4808 3.13112 40.0351C-1.46993 53.5893 -0.98658 68.354 4.49111 81.5783C9.96879 94.8026 20.0672 105.585 32.905 111.915C42.1885 116.494 52.4466 118.518 62.6435 117.888C69.1481 117.485 72.903 110.887 71.2163 104.592C69.5295 98.2968 62.9699 94.7753 56.4696 94.3095C51.9412 93.9849 47.4808 92.7898 43.343 90.7493C35.6403 86.9508 29.5813 80.4816 26.2947 72.547C23.0081 64.6124 22.718 55.7536 25.4787 47.621C28.2393 39.4885 33.8623 32.6369 41.3 28.3427C48.7377 24.0485 57.4829 22.6047 65.9062 24.2802C74.3295 25.9557 81.8565 30.6363 87.0847 37.4498C92.313 44.2634 94.8859 52.7453 94.3242 61.3153C94.0225 65.919 92.8272 70.3794 90.8441 74.4634C87.9974 80.3257 87.7673 87.7673 92.3754 92.3754Z"/>
</mask>
<path d="M92.3754 92.3754C96.9836 96.9836 104.576 97.0311 108.176 91.5992C113.821 83.0837 117.197 73.1876 117.874 62.8588C118.81 48.5755 114.522 34.439 105.808 23.0831C97.0941 11.7271 84.5492 3.92617 70.5103 1.13367C56.4715 -1.65883 41.8962 0.747558 29.5 7.9045C17.1038 15.0614 7.73217 26.4808 3.13112 40.0351C-1.46993 53.5893 -0.98658 68.354 4.49111 81.5783C9.96879 94.8026 20.0672 105.585 32.905 111.915C42.1885 116.494 52.4466 118.518 62.6435 117.888C69.1481 117.485 72.903 110.887 71.2163 104.592C69.5295 98.2968 62.9699 94.7753 56.4696 94.3095C51.9412 93.9849 47.4808 92.7898 43.343 90.7493C35.6403 86.9508 29.5813 80.4816 26.2947 72.547C23.0081 64.6124 22.718 55.7536 25.4787 47.621C28.2393 39.4885 33.8623 32.6369 41.3 28.3427C48.7377 24.0485 57.4829 22.6047 65.9062 24.2802C74.3295 25.9557 81.8565 30.6363 87.0847 37.4498C92.313 44.2634 94.8859 52.7453 94.3242 61.3153C94.0225 65.919 92.8272 70.3794 90.8441 74.4634C87.9974 80.3257 87.7673 87.7673 92.3754 92.3754Z" stroke="url(#paint0_angular_40_1946)" stroke-width="50" mask="url(#path-1-inside-1_40_1946)"/>
<defs>
<radialGradient id="paint0_angular_40_1946" cx="0" cy="0" r="1" gradientUnits="userSpaceOnUse" gradientTransform="translate(59 59) rotate(-9.6808) scale(59.8523)">
<stop stop-color="#FDD05A"/>
<stop offset="0.248599" stop-color="#FDD05A" stop-opacity="0"/>
<stop offset="0.298161" stop-color="#FDD05A" stop-opacity="0"/>
</radialGradient>
</defs>
</svg>
