<svg width="24" height="24" viewBox="0 0 24 24" fill="none" xmlns="http://www.w3.org/2000/svg">
<path d="M0 13C0 11.1778 0.308571 9.47778 0.925714 7.9C1.56571 6.32222 2.46857 4.94444 3.63429 3.76667C4.8 2.58889 6.17143 1.66667 7.74857 1C9.34857 0.333334 11.1086 0 13.0286 0C14.8571 0 16.4571 0.3 17.8286 0.9C19.2 1.5 20.3429 2.31111 21.2571 3.33333C22.1714 4.35556 22.8571 5.5 23.3143 6.76667C23.7714 8.03333 24 9.33333 24 10.6667C24 12.1333 23.8057 13.3778 23.4171 14.4C23.0286 15.4222 22.5143 16.2444 21.8743 16.8667C21.2571 17.4889 20.5943 17.9444 19.8857 18.2333C19.1771 18.5222 18.5029 18.6667 17.8629 18.6667C17.0171 18.6667 16.3086 18.4111 15.7371 17.9C15.1886 17.3667 14.8686 16.7 14.7771 15.9C14.2286 16.7 13.5429 17.3111 12.72 17.7333C11.8971 18.1333 11.0057 18.3333 10.0457 18.3333C9.22286 18.3333 8.44571 18.1333 7.71429 17.7333C7.00571 17.3111 6.42286 16.7111 5.96571 15.9333C5.53143 15.1333 5.31429 14.1889 5.31429 13.1C5.31429 11.5444 5.64571 10.2444 6.30857 9.2C6.99429 8.15556 7.82857 7.36667 8.81143 6.83333C9.81714 6.27778 10.8 6 11.76 6C12.6743 6 13.44 6.24444 14.0571 6.73333C14.6743 7.22222 15.1314 7.83333 15.4286 8.56667L15.7714 6.33333H18.3429L16.9371 14.0333C16.8914 14.3444 16.8686 14.6444 16.8686 14.9333C16.8686 15.3333 16.9486 15.6889 17.1086 16C17.2686 16.3111 17.6343 16.4667 18.2057 16.4667C18.5486 16.4667 18.9829 16.2778 19.5086 15.9C20.0571 15.5222 20.5371 14.9111 20.9486 14.0667C21.3829 13.2 21.6 12.0667 21.6 10.6667C21.6 9.17778 21.28 7.78889 20.64 6.5C20.0229 5.21111 19.0743 4.16667 17.7943 3.36667C16.5371 2.56667 14.9486 2.16667 13.0286 2.16667C10.88 2.16667 9.00571 2.64444 7.40571 3.6C5.82857 4.55556 4.59429 5.85556 3.70286 7.5C2.83429 9.12222 2.4 10.9556 2.4 13C2.4 14.8 2.76571 16.3667 3.49714 17.7C4.22857 19.0111 5.25714 20.0333 6.58286 20.7667C7.93143 21.4778 9.50857 21.8333 11.3143 21.8333C12.5257 21.8333 13.6914 21.7222 14.8114 21.5C15.9543 21.2556 17.0857 20.7889 18.2057 20.1L19.4057 22C18.3771 22.6 17.2571 23.0889 16.0457 23.4667C14.8571 23.8222 13.28 24 11.3143 24C8.86857 24 6.8 23.5444 5.10857 22.6333C3.44 21.7222 2.17143 20.4444 1.30286 18.8C0.434286 17.1333 0 15.2 0 13ZM7.92 13C7.92 13.9333 8.14857 14.6667 8.60571 15.2C9.08571 15.7333 9.79429 16 10.7314 16C11.3029 16 11.8971 15.8556 12.5143 15.5667C13.1314 15.2778 13.6571 14.8 14.0914 14.1333C14.5257 13.4444 14.7429 12.5111 14.7429 11.3333C14.7429 10.4 14.4571 9.66667 13.8857 9.13333C13.3371 8.6 12.6286 8.33333 11.76 8.33333C11.1429 8.33333 10.5371 8.52222 9.94286 8.9C9.34857 9.27778 8.85714 9.82222 8.46857 10.5333C8.10286 11.2222 7.92 12.0444 7.92 13Z" fill="white"/>
</svg>
