<svg width="140" height="70" viewBox="0 0 140 70" fill="none" xmlns="http://www.w3.org/2000/svg">
<g opacity="0.2">
<path d="M17.9629 37.6588C17.5315 38.124 16.9724 38.4514 16.3556 38.6002C15.7389 38.749 15.092 38.7125 14.4959 38.4953C13.8998 38.2781 13.381 37.8898 13.0046 37.3791C12.6282 36.8684 12.4109 36.258 12.3798 35.6243C12.3488 34.9906 12.5054 34.3619 12.8301 33.8168C13.1548 33.2718 13.6331 32.8346 14.2051 32.5602C14.777 32.2857 15.4173 32.1861 16.0456 32.2739C16.674 32.3617 17.2624 32.633 17.7373 33.0537C18.0588 33.3385 18.3201 33.6847 18.5059 34.072C18.6918 34.4593 18.7983 34.8797 18.8193 35.3088C18.8403 35.7378 18.7754 36.1667 18.6284 36.5702C18.4813 36.9738 18.2551 37.3439 17.9629 37.6588Z" fill="white"/>
<path d="M16.4254 24.3822C16.6901 24.6386 16.9407 24.9091 17.1761 25.1927C17.9581 26.1291 18.6017 27.1728 19.0872 28.292C19.8547 28.4382 20.637 28.4923 21.4174 28.4532H21.5555H21.6799C23.8048 28.2578 25.7881 27.303 27.2659 25.7638L27.4594 25.5565C27.1692 25.2065 26.8653 24.8611 26.5383 24.5296C23.9028 21.8998 20.409 20.3061 16.6954 20.0397C12.9818 19.7734 9.29634 20.8522 6.3125 23.0789C11.0788 20.7718 14.3761 22.3652 16.4254 24.3822Z" fill="white"/>
<path d="M5.4554 40.118C5.54751 39.7496 5.66263 39.3996 5.78237 39.0635C6.199 37.9119 6.77905 36.8263 7.5047 35.8399C7.2465 35.1018 6.90178 34.3969 6.47775 33.7399L6.40406 33.6248C6.38214 33.5892 6.3575 33.5553 6.33038 33.5235C5.10396 31.7888 3.29453 30.5531 1.23248 30.042L0.95617 29.9729C0.799595 30.4058 0.65223 30.8387 0.527891 31.29C-0.429552 34.8865 -0.0618374 38.7074 1.56392 42.0553C3.18969 45.4032 5.96509 48.0548 9.3836 49.5264C5.0041 46.556 4.73239 42.9042 5.4554 40.118Z" fill="white"/>
<path d="M24.6087 41.7667C24.2543 41.8679 23.8945 41.9494 23.5311 42.0108C22.3308 42.2172 21.1071 42.2497 19.8976 42.1075C19.3861 42.6994 18.947 43.3502 18.5898 44.0462L18.5299 44.166L18.4746 44.2811C17.5865 46.2164 17.4231 48.4063 18.0141 50.452C18.0141 50.5395 18.0648 50.6316 18.0924 50.7237C18.5529 50.6454 19.0134 50.5533 19.4463 50.4336C23.0335 49.462 26.1523 47.2339 28.2342 44.1553C30.3162 41.0768 31.2228 37.3527 30.7888 33.6616C30.3974 38.9391 27.3764 41.0022 24.6087 41.7667Z" fill="white"/>
<path d="M6.31163 23.079C4.04288 24.6646 2.26911 26.8599 1.19531 29.411C2.79388 29.7524 4.27384 30.5102 5.48529 31.6076C6.69673 32.705 7.59663 34.1031 8.09383 35.6602C8.5175 35.3885 9.82997 34.3524 10.7142 31.5156C11.7779 28.0617 13.7996 25.5289 16.4245 24.4099C16.4245 24.3822 13.1042 19.6435 6.31163 23.079Z" fill="white"/>
<path d="M16.9686 47.9331C16.9661 45.6196 17.8322 43.3894 19.3955 41.6839V41.6517C19.0778 41.3109 17.9679 40.4774 15.1127 41.1267C11.5898 41.9326 7.70305 41.8359 5.44192 40.1182C5.44192 40.1182 3.00119 45.3634 9.37011 49.5265C11.8755 50.699 14.6612 51.1396 17.4061 50.7975C17.1037 49.8733 16.9559 48.9055 16.9686 47.9331Z" fill="white"/>
<path d="M27.8688 26.0632C27.0112 27.0374 25.9564 27.8183 24.7743 28.3541C23.5921 28.89 22.3097 29.1687 21.0118 29.1717C20.3277 29.1685 19.6457 29.0959 18.9763 28.9553H18.9395C18.8105 29.4158 18.7 30.7973 20.6434 32.8881C23.0979 35.536 24.9584 38.9484 24.6084 41.7714C24.6084 41.7714 30.3694 41.2648 30.7885 33.6663C30.5523 30.9072 29.5401 28.2713 27.8688 26.0632Z" fill="white"/>
<path d="M39.6604 43.0258H36.3838V28.2893H41.6478C45.4795 28.2893 47.8967 29.8287 47.8967 33.2188C47.8967 36.6088 45.4079 38.3558 41.2718 38.3558H39.6604V43.0258ZM39.6604 35.6403H41.4509C43.4025 35.6403 44.5843 34.8965 44.5843 33.3398C44.5843 31.7832 43.4741 31.074 41.4688 31.074H39.6783L39.6604 35.6403Z" fill="white"/>
<path d="M50.1992 35.7198C50.1992 30.6369 53.2584 27.8289 57.3026 27.8289C61.8481 27.8289 64.4752 30.7969 64.4752 35.6665C64.4752 40.9982 61.4333 43.4864 57.3891 43.4864C53.3448 43.4864 50.1992 40.8027 50.1992 35.7198ZM61.0877 35.7198C61.0877 32.272 59.5495 30.7435 57.2508 30.7435C54.9521 30.7435 53.5349 32.3431 53.5349 35.7198C53.5349 39.0966 55.2632 40.6961 57.4409 40.6961C59.6186 40.6961 61.1395 39.1144 61.1395 35.7198H61.0877Z" fill="white"/>
<path d="M79.1757 42.5925C77.9003 43.2447 76.4698 43.5451 75.0355 43.4619C73.9971 43.5471 72.9523 43.409 71.9733 43.0574C70.9943 42.7057 70.1043 42.1488 69.365 41.4251C68.6256 40.7014 68.0544 39.8282 67.6908 38.8657C67.3273 37.9032 67.1799 36.8743 67.2591 35.8503C67.2591 30.6516 70.3552 27.8305 75.3595 27.8305C76.6809 27.8063 77.9929 28.0541 79.2117 28.5579L78.4916 31.3258C77.6314 31.044 76.7337 30.8885 75.8275 30.8645C75.1845 30.8645 74.5478 30.9893 73.9538 31.2319C73.3598 31.4744 72.82 31.8299 72.3653 32.278C71.9107 32.7262 71.55 33.2582 71.304 33.8437C71.0579 34.4292 70.9313 35.0568 70.9313 35.6906C70.9313 36.3243 71.0579 36.9519 71.304 37.5374C71.55 38.123 71.9107 38.655 72.3653 39.1031C72.82 39.5513 73.3598 39.9067 73.9538 40.1493C74.5478 40.3918 75.1845 40.5166 75.8275 40.5166C76.747 40.4617 77.6492 40.2454 78.4916 39.8779L79.1757 42.5925Z" fill="white"/>
<path d="M90.9588 39.0822H84.5036L83.0276 43.0258H81.0537L86.8331 28.2893H88.7715L94.4086 43.0258H92.417L90.9588 39.0822ZM85.126 37.3526H90.3364L87.8112 30.434L85.126 37.3526Z" fill="white"/>
<path d="M100.917 43.0258H98.9518V30.023H94.4082V28.2893H105.461V30.023H100.917V43.0258Z" fill="white"/>
<path d="M107.303 35.6576C107.303 30.7781 110.116 27.8289 114.148 27.8289C118.681 27.8289 121.118 31.0462 121.118 35.6576C121.118 40.8232 118.197 43.4864 114.219 43.4864C110.241 43.4864 107.303 40.4836 107.303 35.6576ZM119.022 35.6576C119.022 31.4751 117.23 29.652 114.148 29.652C111.46 29.652 109.399 31.5824 109.399 35.6576C109.399 39.7329 111.406 41.6632 114.399 41.6632C117.391 41.6632 118.95 39.5899 118.95 35.6576H119.022Z" fill="white"/>
<path d="M139.999 43.0258H138.017L137.08 31.4372L133.171 43.0258H131.135L127.279 31.5583L126.324 43.0258H124.342L125.657 28.2893H128.071L132.216 40.9502L136.27 28.2893H138.684L139.999 43.0258Z" fill="white"/>
</g>
</svg>
