<svg width="140" height="70" viewBox="0 0 140 70" fill="none" xmlns="http://www.w3.org/2000/svg">
<g opacity="0.2">
<path fill-rule="evenodd" clip-rule="evenodd" d="M16.9123 19.0853C13.767 18.7498 10.5963 19.409 7.83598 20.9721C5.07567 22.5352 2.86127 24.9256 1.49716 27.8147C0.133042 30.7037 -0.313822 33.9497 0.217985 37.1063C0.749792 40.263 2.23416 43.1754 4.46707 45.4432C6.69998 47.711 9.57181 49.2229 12.6878 49.7712C15.8038 50.3194 19.0111 49.877 21.8687 48.5047C24.7263 47.1325 27.094 44.8978 28.6463 42.1079C30.1987 39.3179 30.8595 36.1096 30.5379 32.9239C30.184 29.3829 28.6358 26.0735 26.1541 23.5529C23.6723 21.0323 20.4085 19.4546 16.9123 19.0853ZM16.4162 42.7026C14.7246 42.9324 13.0044 42.6197 11.4973 41.8085C9.99028 40.9972 8.77217 39.7283 8.0142 38.1799C7.25623 36.6315 6.9965 34.8816 7.27152 33.1761C7.54653 31.4705 8.34247 29.8951 9.54746 28.6712C10.7525 27.4473 12.3059 26.6365 13.9895 26.3527C15.6732 26.0689 17.4023 26.3264 18.9339 27.089C20.4655 27.8516 21.7226 29.081 22.5285 30.6043C23.3345 32.1277 23.6487 33.8684 23.427 35.5819C23.1944 37.3842 22.3815 39.0586 21.1141 40.3459C19.8467 41.6331 18.1955 42.4615 16.4162 42.7026ZM38.7258 19.6985C38.1949 19.6998 37.6709 19.8209 37.192 20.053C36.7131 20.2852 36.2913 20.6225 35.9574 21.0405C35.6234 21.4584 35.3857 21.9465 35.2615 22.4692C35.1374 22.9919 35.1298 23.536 35.2395 24.062C35.5754 25.7661 37.1474 26.9304 38.8599 26.9304H48.798L33.3321 47.6533C33.2177 47.8062 33.1477 47.9885 33.1299 48.1795C33.112 48.3705 33.1471 48.5628 33.2311 48.7348C33.3152 48.9068 33.4449 49.0516 33.6057 49.1532C33.7665 49.2547 33.952 49.3089 34.1416 49.3096H58.4013C60.1126 49.3096 61.6858 48.1456 62.0217 46.4412C62.1314 45.9153 62.1239 45.3712 61.9999 44.8486C61.8758 44.326 61.6382 43.8379 61.3044 43.4199C60.9707 43.002 60.5491 42.6646 60.0703 42.4323C59.5916 42.2 59.0677 42.0787 58.5368 42.0771H46.4281L61.8821 21.3704C61.9976 21.2159 62.0683 21.0319 62.0863 20.839C62.1043 20.6461 62.0688 20.452 61.9839 20.2784C61.8989 20.1047 61.7679 19.9585 61.6055 19.8561C61.443 19.7537 61.2556 19.6991 61.0643 19.6985H38.7258ZM135.666 19.7819C134.863 19.9753 134.149 20.4404 133.642 21.1003C133.136 21.7603 132.867 22.5756 132.88 23.4113V35.4522L113.61 19.9259C113.459 19.8045 113.277 19.7287 113.085 19.7073C112.893 19.6858 112.699 19.7197 112.526 19.8049C112.352 19.8901 112.206 20.0231 112.104 20.1888C112.001 20.3545 111.947 20.546 111.948 20.7414V45.6032C111.935 46.439 112.204 47.2543 112.71 47.9143C113.217 48.5742 113.931 49.0393 114.734 49.2326C115.256 49.3488 115.796 49.345 116.316 49.2214C116.836 49.0978 117.322 48.8576 117.738 48.5186C118.154 48.1795 118.49 47.7502 118.72 47.2623C118.95 46.7745 119.069 46.2405 119.068 45.6998V33.5547L138.339 49.0813C138.49 49.2027 138.672 49.2785 138.863 49.2998C139.055 49.3212 139.249 49.2874 139.422 49.2023C139.596 49.1171 139.742 48.9841 139.844 48.8185C139.947 48.6529 140 48.4614 140 48.2662V23.3136C140.001 22.773 139.881 22.2392 139.651 21.7515C139.421 21.2638 139.085 20.8347 138.669 20.4958C138.253 20.1568 137.768 19.9167 137.248 19.7932C136.728 19.6696 136.188 19.6658 135.666 19.7819ZM85.4925 26.2382C93.6432 26.2382 99.7333 30.5994 99.7333 34.5004C99.7333 38.4014 93.6432 42.7626 85.4925 42.7626C77.3419 42.7626 71.2518 38.4014 71.2518 34.5004C71.2518 30.5994 77.3419 26.2382 85.4925 26.2382ZM85.4925 19.0066C73.6948 19.0066 64.1311 25.9434 64.1311 34.5004C64.1311 43.0574 73.6948 49.9942 85.4925 49.9942C97.2902 49.9942 106.854 43.0574 106.854 34.5004C106.854 25.9434 97.29 19.0066 85.4925 19.0066Z" fill="white"/>
</g>
</svg>
