<svg width="140" height="70" viewBox="0 0 140 70" fill="none" xmlns="http://www.w3.org/2000/svg">
<g opacity="0.2">
<path d="M48.0127 36.1597H55.3137V38.5452H51.8406V55.3068H48.0127V36.1597Z" fill="white"/>
<path d="M59.6424 48.1188L60.2984 38.5452H60.5181L61.1741 48.1188H59.6424ZM55.4033 55.3068H59.1511L59.5058 50.2218H61.3107L61.6669 55.3068H65.4132L63.4169 36.1597H57.3996L55.4033 55.3068Z" fill="white"/>
<path d="M70.8949 48.6053V52.215C70.8949 52.7015 71.2715 52.8428 71.4912 52.8428C71.8522 52.8428 72.1033 52.5446 72.1033 52.215V47.7578C72.1033 47.1614 71.9935 46.5023 70.5653 46.5023H69.0115V44.3992H70.628C71.711 44.3992 72.1033 44.1481 72.1033 42.971V39.173C72.1033 38.8434 71.8522 38.5452 71.4912 38.5452C71.2715 38.5452 70.8949 38.6708 70.8949 39.173V42.2962H67.0654V39.581C67.0654 38.247 67.2224 36.1597 69.9061 36.1597H73.0764C75.7601 36.1597 75.9327 38.247 75.9327 39.581V42.6414C75.9327 44.7288 74.4732 45.2938 73.3275 45.2467V45.435C75.9013 45.3723 75.9327 47.3498 75.9327 48.0246V51.8854C75.9327 53.2352 75.7601 55.3068 73.0764 55.3068H69.9061C67.2224 55.3068 67.0654 53.2352 67.0654 51.8854V48.6053H70.8949Z" fill="white"/>
<path d="M78.4443 36.1597H87.3117V55.3068H83.4822V38.5452H82.2738V55.3068H78.4443V36.1597Z" fill="white"/>
<path d="M93.6517 46.6906V38.5452H94.1539C94.562 38.5452 94.8602 38.8905 94.8602 39.5026V45.7332C94.8602 46.3453 94.562 46.6906 94.1539 46.6906H93.6517ZM89.8223 55.3068H93.6517V48.7936H95.8489C98.5169 48.7936 98.6896 46.722 98.6896 45.3723V39.581C98.6896 38.247 98.5169 36.1597 95.8489 36.1597H89.8223V55.3068Z" fill="white"/>
<path d="M106.239 52.215C106.239 52.5446 105.988 52.8428 105.627 52.8428C105.407 52.8428 105.031 52.7015 105.031 52.215V39.173C105.031 38.6708 105.407 38.5452 105.627 38.5452C105.988 38.5452 106.239 38.8434 106.239 39.173V52.215ZM101.201 51.8854C101.201 53.2352 101.374 55.3068 104.042 55.3068H107.228C109.896 55.3068 110.068 53.2352 110.068 51.8854V39.581C110.068 38.247 109.896 36.1597 107.228 36.1597H104.042C101.374 36.1597 101.201 38.247 101.201 39.581V51.8854Z" fill="white"/>
<path d="M122.529 36.1597H127.52V55.3068H123.691V43.3006H123.549L121.572 55.3068H118.512L116.55 43.3006H116.409V55.3068H112.579V36.1597H117.554L120.05 49.6254L122.529 36.1597Z" fill="white"/>
<path d="M43.0502 9.98161C41.8778 4.84956 38.9399 0.674858 38.5349 0C37.8946 0.957357 35.5514 4.64553 34.3602 8.72607C33.0592 13.2931 32.8677 17.3423 33.3165 21.3129C33.7623 25.2993 35.4463 29.3956 35.4463 29.3956C36.3409 31.53 37.6812 33.8371 38.5538 34.9671C39.8329 33.3035 42.7724 28.344 43.689 21.878C44.199 18.2682 44.221 15.1137 43.0502 9.98161ZM38.5349 33.6801C37.959 32.5972 37.0644 30.5413 36.9796 27.3396C36.9576 24.2635 38.1928 21.6111 38.5538 21.0618C38.8755 21.6111 39.9396 23.9182 40.0667 27.0728C40.153 30.1489 39.1298 32.5815 38.5349 33.6801ZM42.7096 18.692C42.6657 20.6538 42.4318 22.7254 42.1336 23.9653C42.2404 21.8309 41.9846 18.8332 41.4949 16.4791C41.0052 14.1406 39.6194 10.217 38.513 8.41218C37.4913 10.1386 36.2326 13.5285 35.5734 16.4634C34.9111 19.3982 34.8923 22.9609 34.8923 24.0281C34.7165 23.1335 34.277 19.9162 34.401 16.6988C34.5046 14.0465 35.1261 11.3 35.4667 10.0444C36.7662 5.854 38.2367 3.17026 38.513 2.74651C38.7892 3.17026 40.6411 6.48177 41.6016 9.95023C42.5574 13.4187 42.7504 16.7459 42.7096 18.692Z" fill="white"/>
<path d="M40.5232 36.1597H31.6103V42.1392C31.6182 42.1392 31.6245 42.1236 31.6323 42.1236C33.7322 40.0205 37.1379 40.0205 39.2394 42.1236C41.3393 44.2109 41.3393 47.6166 39.2394 49.7196C39.23 49.7353 39.2205 49.7353 39.2111 49.751C39.2001 49.751 39.1891 49.7667 39.1797 49.7824C37.0845 51.8541 34.3474 52.8899 31.6103 52.8899C28.8607 52.8899 26.111 51.8541 24.0143 49.751C20.3167 46.0628 19.8788 40.3344 22.6975 36.1597C23.0773 35.5947 23.5152 35.0611 24.0143 34.5589C26.111 32.4558 28.8607 31.42 31.6103 31.42V17.0439C21.0449 17.0439 12.4805 25.5974 12.4805 36.1597C12.4805 46.722 21.0449 55.2911 31.6103 55.2911C37.1191 55.2911 42.0816 52.9527 45.572 49.2331V36.1597H40.5232Z" fill="white"/>
</g>
</svg>
