<svg width="140" height="70" viewBox="0 0 140 70" fill="none" xmlns="http://www.w3.org/2000/svg">
<g opacity="0.2">
<path d="M14.3936 35.8538H9.74984L12.2231 27.7842L14.3936 35.8538ZM7.3412 44.7467L8.92655 39.4328H15.1829L16.6662 44.7331H22.4496L16.7036 24.525C16.3634 23.3309 15.649 22.7798 14.3936 22.7798H6.19131V24.6883H6.87172C7.72903 24.6883 8.19171 25.0285 8.19171 25.6783C8.19171 26.1104 8.09645 26.471 7.75625 27.4542L2 44.7467H7.3412Z" fill="white"/>
<path d="M29.1413 44.7467V24.4638C29.1413 23.4058 28.5222 22.7798 27.4982 22.7798H22.4121V24.6883H22.7523C23.6062 24.6883 23.9702 25.0523 23.9702 25.9165V44.7467H29.1413Z" fill="white"/>
<path d="M37.9324 44.7467V24.4638C37.9324 23.4058 37.303 22.7798 36.2858 22.7798H31.2168V24.6883H31.557C32.4143 24.6883 32.7783 25.0523 32.7783 25.9165V44.7467H37.9324Z" fill="white"/>
<path d="M46.9513 24.7835C46.9513 23.3104 45.8592 22.4021 43.9881 22.4021C42.117 22.4021 41.0181 23.2934 41.0181 24.7835C41.0181 26.2736 42.1442 27.165 43.9881 27.165C45.832 27.165 46.9513 26.2804 46.9513 24.7835ZM46.8526 44.7467V29.9614C46.8526 28.9068 46.2267 28.2842 45.2026 28.2842H40.1982V30.1553H40.4942C41.3481 30.1553 41.7121 30.55 41.7121 31.4073V44.7467H46.8526Z" fill="white"/>
<path d="M58.1748 36.8407V40.042C57.3141 40.9299 56.2663 41.4742 55.3784 41.4742C54.4904 41.4742 54.1264 41.0184 54.1264 39.7732C54.1264 38.5281 54.385 38.0007 55.3103 37.6435C56.2317 37.2684 57.1927 36.9991 58.1748 36.8407ZM51.2211 32.9964C52.8014 32.2123 54.5306 31.774 56.2935 31.7104C57.6815 31.7104 58.1748 32.2037 58.1748 33.6427V34.0102C56.069 34.3504 55.409 34.4796 54.2217 34.7416C53.5567 34.8881 52.9056 35.0918 52.2757 35.3506C50.1971 36.1841 49.2139 37.7898 49.2139 40.2563C49.2139 43.3862 50.5747 44.8967 53.361 44.8967C54.3087 44.9006 55.2485 44.7239 56.1302 44.3762C56.9299 44.0122 57.6734 43.5356 58.3381 42.9609V43.1923C58.3381 44.2129 58.862 44.7334 59.8861 44.7334H64.5979V42.9745H64.3665C63.4786 42.9745 63.152 42.5765 63.152 41.5253V33.6836C63.152 29.5025 61.6993 28.0464 57.5114 28.0464C56.1838 28.053 54.8611 28.2094 53.5685 28.5125C52.3472 28.7848 51.1708 29.2293 50.0746 29.8325L51.2211 32.9964Z" fill="white"/>
<path d="M72.0987 44.7472V33.6157C72.9594 32.6597 73.844 32.2277 74.8646 32.2277C75.9566 32.2277 76.2254 32.6597 76.2254 34.3165V44.7472H81.3625V33.5545C81.3625 30.9485 81.1754 30.1252 80.3419 29.2407C79.6614 28.4752 78.5966 28.0874 77.2392 28.0874C75.2286 28.0874 73.8133 28.71 71.9116 30.4892V29.8326C71.9116 28.812 71.3775 28.2847 70.3263 28.2847H65.4443V30.1558H65.7403C66.5942 30.1558 66.9616 30.5505 66.9616 31.4078V44.7472H72.0987Z" fill="white"/>
<path d="M96.601 41.2904H89.4329L96.288 31.6796V28.2776H85.5375C84.3196 28.2776 83.7583 28.8355 83.7583 30.0569V33.0506H85.6668V32.7581C85.6668 31.9994 86.0615 31.6388 86.8813 31.6388H90.576L83.6494 41.3584V44.7605H96.5772L96.601 41.2904Z" fill="white"/>
<path d="M123.569 44.3284V25.7158C123.569 24.2325 123.041 23.7324 121.602 23.7324H117.244V25.8247H117.506C118.5 25.8247 118.694 26.0492 118.694 27.2467V44.3284H123.569ZM125.719 44.3284H130.557V29.8323C130.557 28.3762 129.995 27.8523 128.577 27.8523H125.719V44.3284ZM116.557 44.3284V27.8659H113.689C112.271 27.8659 111.716 28.3898 111.716 29.8459V44.3284H116.557ZM135.136 34.8673C135.136 43.0696 129.237 49.0334 121.136 49.0334C113.036 49.0334 107.123 43.0696 107.123 34.8673C107.123 26.665 113.033 20.7012 121.136 20.7012C129.24 20.7012 135.136 26.699 135.136 34.8673ZM138 34.8673C138 25.2225 130.785 18 121.136 18C111.488 18 104.266 25.2225 104.266 34.8673C104.266 44.5121 111.481 51.7312 121.136 51.7312C130.791 51.7312 138 44.5359 138 34.8673Z" fill="white"/>
</g>
</svg>
