<svg width="52" height="52" viewBox="0 0 52 52" fill="none" xmlns="http://www.w3.org/2000/svg">
<path d="M0 26C0 11.6406 11.6406 0 26 0C40.3594 0 52 11.6406 52 26C52 40.3594 40.3594 52 26 52C11.6406 52 0 40.3594 0 26Z" fill="#374246"/>
<path opacity="0.3" fill-rule="evenodd" clip-rule="evenodd" d="M30.6128 24.4288C31.998 23.2368 32.8751 21.4708 32.8751 19.5C32.8751 15.9101 29.9649 13 26.3751 13C22.7852 13 19.8751 15.9101 19.8751 19.5C19.8751 21.4708 20.7522 23.2368 22.1374 24.4288C18.3428 26.1813 15.7145 30.2002 15.0501 34.6361C14.6222 37.493 17.0098 39.5 19.3751 39.5H33.3751C35.7403 39.5 38.128 37.493 37.7001 34.6361C37.0356 30.2002 34.4074 26.1813 30.6128 24.4288ZM26.3751 23.5C28.5842 23.5 30.3751 21.7091 30.3751 19.5C30.3751 17.2909 28.5842 15.5 26.3751 15.5C24.1659 15.5 22.3751 17.2909 22.3751 19.5C22.3751 21.7091 24.1659 23.5 26.3751 23.5ZM26.3751 26C21.9615 26 18.2899 29.883 17.5225 35.0064C17.3589 36.0988 18.2705 37 19.3751 37H33.3751C34.4797 37 35.3913 36.0988 35.2276 35.0064C34.4602 29.883 30.7887 26 26.3751 26Z" fill="white"/>
</svg>
