<svg width="200" height="200" viewBox="0 0 200 200" fill="none" xmlns="http://www.w3.org/2000/svg">
<path fill-rule="evenodd" clip-rule="evenodd" d="M75.8852 52.374C81.3252 26.4602 91.212 9.1333 102.506 9.1333C113.8 9.1333 123.687 26.4602 129.127 52.374C154.289 44.1283 174.238 44.0271 179.885 53.8082C185.532 63.5892 175.47 80.8149 155.748 98.483C175.47 116.151 185.533 133.377 179.885 143.158C174.238 152.939 154.289 152.838 129.127 144.592C123.687 170.506 113.801 187.833 102.506 187.833C91.212 187.833 81.3252 170.506 75.8852 144.592C50.7231 152.838 30.7741 152.939 25.127 143.158C19.4799 133.377 29.542 116.151 49.264 98.483C29.542 80.8149 19.4799 63.5892 25.127 53.8082C30.7742 44.0271 50.7231 44.1283 75.8852 52.374ZM102.506 15.1333C104.279 15.1333 106.832 16.1532 109.967 19.9655C113.067 23.7361 116.126 29.5546 118.811 37.2741C120.571 42.3346 122.122 48.0724 123.411 54.3554C116.695 56.8072 109.674 59.7983 102.506 63.2985C95.3387 59.7984 88.3177 56.8072 81.6018 54.3554C82.8908 48.0725 84.4417 42.3346 86.2016 37.2741C88.8861 29.5546 91.9457 23.7361 95.0459 19.9655C98.1804 16.1532 100.734 15.1333 102.506 15.1333ZM81.6018 142.611C82.8908 148.894 84.4417 154.632 86.2016 159.692C88.8861 167.412 91.9457 173.23 95.0459 177.001C98.1804 180.813 100.734 181.833 102.506 181.833C104.279 181.833 106.832 180.813 109.967 177.001C113.067 173.23 116.126 167.412 118.811 159.692C120.571 154.632 122.122 148.894 123.411 142.611C116.695 140.159 109.674 137.168 102.506 133.668C95.3387 137.168 88.3177 140.159 81.6018 142.611ZM130.27 138.651C136.355 140.676 142.1 142.202 147.362 143.208C155.39 144.743 161.959 145.002 166.774 144.203C171.643 143.394 173.803 141.693 174.689 140.158C175.576 138.623 175.969 135.902 174.235 131.281C172.519 126.711 169.01 121.152 163.667 114.967C160.165 110.913 155.971 106.701 151.174 102.443C145.693 107.033 139.592 111.618 132.977 116.075C132.424 124.033 131.504 131.609 130.27 138.651ZM126.631 120.211C126.119 125.951 125.41 131.445 124.53 136.629C119.601 134.799 114.488 132.666 109.261 130.239C112.176 128.704 115.107 127.088 118.043 125.393C120.979 123.698 123.844 121.968 126.631 120.211ZM133.386 108.511C138.101 105.198 142.504 101.837 146.553 98.483C142.504 95.129 138.101 91.7683 133.386 88.4547C133.513 91.7468 133.579 95.0929 133.579 98.4831C133.579 101.873 133.513 105.219 133.386 108.511ZM127.177 84.2395C127.441 88.8644 127.579 93.6224 127.579 98.4831C127.579 103.344 127.441 108.102 127.177 112.727C123.304 115.268 119.252 117.766 115.043 120.197C110.833 122.627 106.644 124.886 102.506 126.97C98.3688 124.886 94.1793 122.627 89.9698 120.197C85.7603 117.766 81.7089 115.268 77.8356 112.727C77.5715 108.102 77.4335 103.344 77.4335 98.4831C77.4335 93.6223 77.5715 88.8644 77.8356 84.2394C81.7089 81.6982 85.7603 79.1997 89.9697 76.7694C94.1793 74.339 98.3688 72.0796 102.506 69.9958C106.644 72.0796 110.833 74.339 115.043 76.7693C119.252 79.1997 123.304 81.6983 127.177 84.2395ZM132.977 80.8908C139.592 85.348 145.693 89.9328 151.174 94.523C155.971 90.2653 160.164 86.0532 163.667 81.9988C169.01 75.8142 172.519 70.2553 174.235 65.6851C175.969 61.0644 175.575 58.3432 174.689 56.8082C173.803 55.2731 171.643 53.5718 166.774 52.7634C161.959 51.9638 155.39 52.2234 147.362 53.7582C142.1 54.7644 136.355 56.2902 130.27 58.3154C131.504 65.3574 132.424 72.9334 132.977 80.8908ZM124.53 60.337C125.41 65.5206 126.119 71.0146 126.631 76.755C123.844 74.9982 120.979 73.2683 118.043 71.5732C115.107 69.8781 112.176 68.2619 109.261 66.7266C114.488 64.2997 119.601 62.1666 124.53 60.337ZM72.0356 80.8907C65.4206 85.3479 59.3196 89.9328 53.8383 94.523C49.0416 90.2653 44.8479 86.0532 41.3453 81.9988C36.0023 75.8142 32.4931 70.2553 30.7778 65.6851C29.0435 61.0644 29.4369 58.3432 30.3232 56.8082C31.2095 55.2731 33.3694 53.5718 38.2381 52.7634C43.0537 51.9638 49.6225 52.2234 57.65 53.7582C62.9125 54.7644 68.6572 56.2902 74.7429 58.3154C73.5083 65.3574 72.5881 72.9334 72.0356 80.8907ZM78.3818 76.7549C78.8937 71.0145 79.6026 65.5206 80.4827 60.3371C85.4118 62.1667 90.5241 64.2997 95.7514 66.7266C92.8364 68.2619 89.9058 69.8781 86.9697 71.5732C84.0338 73.2683 81.1688 74.9982 78.3818 76.7549ZM71.627 88.4546C71.4991 91.7467 71.4335 95.0928 71.4335 98.4831C71.4335 101.873 71.4991 105.219 71.627 108.511C66.9116 105.198 62.5081 101.837 58.459 98.483C62.5081 95.129 66.9116 91.7682 71.627 88.4546ZM72.0356 116.075C65.4206 111.618 59.3196 107.033 53.8383 102.443C49.0416 106.701 44.8479 110.913 41.3452 114.967C36.0023 121.152 32.493 126.711 30.7777 131.281C29.0434 135.902 29.4369 138.623 30.3231 140.158C31.2094 141.693 33.3693 143.394 38.2381 144.203C43.0536 145.002 49.6224 144.743 57.65 143.208C62.9125 142.202 68.6571 140.676 74.7428 138.651C73.5082 131.609 72.5881 124.033 72.0356 116.075ZM78.3818 120.211C78.8937 125.952 79.6026 131.445 80.4827 136.629C85.4118 134.799 90.5241 132.666 95.7514 130.239C92.8364 128.704 89.9058 127.088 86.9698 125.393C84.0338 123.698 81.1689 121.968 78.3818 120.211Z" fill="url(#paint0_linear_802_629)"/>
<circle cx="100" cy="100" r="8" fill="url(#paint1_linear_802_629)"/>
<g filter="url(#filter0_b_802_629)">
<circle cx="100" cy="100" r="13" fill="#58523B" fill-opacity="0.5"/>
</g>
<g filter="url(#filter1_b_802_629)">
<circle cx="84" cy="161" r="13" fill="#58523B" fill-opacity="0.5"/>
</g>
<g filter="url(#filter2_b_802_629)">
<circle cx="37" cy="82" r="13" fill="#58523B" fill-opacity="0.5"/>
</g>
<g filter="url(#filter3_b_802_629)">
<circle cx="168" cy="82" r="13" fill="#58523B" fill-opacity="0.5"/>
</g>
<defs>
<filter id="filter0_b_802_629" x="69" y="69" width="62" height="62" filterUnits="userSpaceOnUse" color-interpolation-filters="sRGB">
<feFlood flood-opacity="0" result="BackgroundImageFix"/>
<feGaussianBlur in="BackgroundImage" stdDeviation="9"/>
<feComposite in2="SourceAlpha" operator="in" result="effect1_backgroundBlur_802_629"/>
<feBlend mode="normal" in="SourceGraphic" in2="effect1_backgroundBlur_802_629" result="shape"/>
</filter>
<filter id="filter1_b_802_629" x="53" y="130" width="62" height="62" filterUnits="userSpaceOnUse" color-interpolation-filters="sRGB">
<feFlood flood-opacity="0" result="BackgroundImageFix"/>
<feGaussianBlur in="BackgroundImage" stdDeviation="9"/>
<feComposite in2="SourceAlpha" operator="in" result="effect1_backgroundBlur_802_629"/>
<feBlend mode="normal" in="SourceGraphic" in2="effect1_backgroundBlur_802_629" result="shape"/>
</filter>
<filter id="filter2_b_802_629" x="6" y="51" width="62" height="62" filterUnits="userSpaceOnUse" color-interpolation-filters="sRGB">
<feFlood flood-opacity="0" result="BackgroundImageFix"/>
<feGaussianBlur in="BackgroundImage" stdDeviation="9"/>
<feComposite in2="SourceAlpha" operator="in" result="effect1_backgroundBlur_802_629"/>
<feBlend mode="normal" in="SourceGraphic" in2="effect1_backgroundBlur_802_629" result="shape"/>
</filter>
<filter id="filter3_b_802_629" x="137" y="51" width="62" height="62" filterUnits="userSpaceOnUse" color-interpolation-filters="sRGB">
<feFlood flood-opacity="0" result="BackgroundImageFix"/>
<feGaussianBlur in="BackgroundImage" stdDeviation="9"/>
<feComposite in2="SourceAlpha" operator="in" result="effect1_backgroundBlur_802_629"/>
<feBlend mode="normal" in="SourceGraphic" in2="effect1_backgroundBlur_802_629" result="shape"/>
</filter>
<linearGradient id="paint0_linear_802_629" x1="23.5674" y1="9.1333" x2="116.032" y2="216.939" gradientUnits="userSpaceOnUse">
<stop stop-color="#FFEBB6"/>
<stop offset="1" stop-color="#EDB216"/>
</linearGradient>
<linearGradient id="paint1_linear_802_629" x1="92" y1="92" x2="99.5895" y2="111.306" gradientUnits="userSpaceOnUse">
<stop stop-color="#FFEBB6"/>
<stop offset="1" stop-color="#EDB216"/>
</linearGradient>
</defs>
</svg>
