<svg width="324" height="324" viewBox="0 0 324 324" fill="none" xmlns="http://www.w3.org/2000/svg">
<path d="M147.676 69.4311C149.991 60.7889 158.874 55.6603 167.516 57.9759L256.71 81.8753C265.352 84.191 270.481 93.074 268.165 101.716L223.301 269.15C220.986 277.792 212.103 282.921 203.461 280.605L114.267 256.706C105.625 254.39 100.496 245.507 102.812 236.865L147.676 69.4311Z" fill="url(#paint0_linear_35_1766)"/>
<mask id="mask0_35_1766" style="mask-type:alpha" maskUnits="userSpaceOnUse" x="74" y="66" width="156" height="224">
<rect x="106.781" y="66.4199" width="124.74" height="205.74" transform="rotate(9.02111 106.781 66.4199)" fill="#58523B" fill-opacity="0.5"/>
</mask>
<g mask="url(#mask0_35_1766)">
<g filter="url(#filter0_b_35_1766)">
<path d="M90.5216 272.155L181.719 286.634C190.556 288.037 198.856 282.011 200.259 273.174L219.112 154.428C219.422 152.472 219.41 150.467 218.743 148.603C215.816 140.426 207.5 127.653 200.072 115.02C194.025 104.736 189.542 95.5799 183.872 86.6699C180.73 82.3808 178.258 80.2491 176.247 78.8491C174.379 77.5492 172.18 76.8028 169.933 76.446L122.781 68.9601C113.945 67.5572 105.644 73.5832 104.242 82.4196L77.0621 253.615C75.6593 262.452 81.6853 270.752 90.5216 272.155Z" fill="#58523B" fill-opacity="0.5"/>
</g>
<path d="M167.274 117.954C166.211 129.507 172.922 140.369 183.729 144.589L208.728 154.351C214.437 156.58 217.818 162.489 216.846 168.54L215.569 176.487L216.73 174.049C221.809 163.376 221.292 150.885 215.35 140.668L185.252 88.9228C179.105 78.3553 167.555 72.1241 155.348 72.7902L149.691 73.099L159.384 74.9184C165.986 76.1575 170.56 82.2158 169.945 88.9042L167.274 117.954Z" fill="#4E4A41"/>
<path d="M105.317 200.73C108.839 201.289 111.1 199.806 113.054 195.621L115.694 190.367L133.446 193.185L134.295 199.214C134.771 203.637 136.474 205.676 140.283 206.281C144.129 206.891 147.312 204.707 147.9 201.005C148.117 199.64 148.059 198.378 147.716 196.592L140.394 159.398C139.273 153.694 136.476 150.892 131.049 150.03C125.91 149.214 122.33 151.114 119.587 156.095L101.214 189.21C100.388 190.7 99.7719 192.26 99.595 193.374C98.9732 197.291 101.148 200.068 105.317 200.73ZM119.897 180.829L128.963 161.783L129.25 161.829L132.152 182.774L119.897 180.829Z" fill="url(#paint1_linear_35_1766)"/>
<path d="M172.569 210.153C176.127 210.718 178.565 208.821 179.164 205.047L180.601 195.991L189.19 197.355C192.82 197.931 195.337 196.23 195.885 192.78C196.427 189.366 194.596 186.976 191.002 186.405L182.341 185.03L183.784 175.938C184.383 172.165 182.653 169.606 179.095 169.041C175.609 168.488 173.135 170.38 172.536 174.153L171.093 183.245L162.396 181.864C158.803 181.294 156.357 183.006 155.815 186.42C155.267 189.87 157.063 192.255 160.656 192.825L169.353 194.206L167.921 203.226C167.316 207.035 169.047 209.594 172.569 210.153Z" fill="url(#paint2_linear_35_1766)"/>
</g>
<defs>
<filter id="filter0_b_35_1766" x="44.4594" y="36.3573" width="207.249" height="282.88" filterUnits="userSpaceOnUse" color-interpolation-filters="sRGB">
<feFlood flood-opacity="0" result="BackgroundImageFix"/>
<feGaussianBlur in="BackgroundImage" stdDeviation="16.2"/>
<feComposite in2="SourceAlpha" operator="in" result="effect1_backgroundBlur_35_1766"/>
<feBlend mode="normal" in="SourceGraphic" in2="effect1_backgroundBlur_35_1766" result="shape"/>
</filter>
<linearGradient id="paint0_linear_35_1766" x1="151.868" y1="53.7828" x2="226.018" y2="282.558" gradientUnits="userSpaceOnUse">
<stop stop-color="#FFEBB6"/>
<stop offset="1" stop-color="#EDB216"/>
</linearGradient>
<linearGradient id="paint1_linear_35_1766" x1="106.404" y1="132.84" x2="120.648" y2="237.77" gradientUnits="userSpaceOnUse">
<stop stop-color="#FFEBB6"/>
<stop offset="1" stop-color="#EDB216"/>
</linearGradient>
<linearGradient id="paint2_linear_35_1766" x1="106.404" y1="132.84" x2="120.648" y2="237.77" gradientUnits="userSpaceOnUse">
<stop stop-color="#FFEBB6"/>
<stop offset="1" stop-color="#EDB216"/>
</linearGradient>
</defs>
</svg>
