<svg width="200" height="200" viewBox="0 0 200 200" fill="none" xmlns="http://www.w3.org/2000/svg">
<path d="M127 37C132.523 37 137 41.4772 137 47L137 153C137 158.523 132.523 163 127 163H53C47.4771 163 43 158.523 43 153L43 47C43 41.4772 47.4772 37 53 37L127 37Z" fill="url(#paint0_linear_802_577)"/>
<g filter="url(#filter0_b_802_577)">
<path d="M90 158C87.2386 158 85 155.761 85 153C85 150.239 87.2386 148 90 148C92.7614 148 95 150.239 95 153C95 155.761 92.7614 158 90 158Z" fill="#58523B" fill-opacity="0.5"/>
</g>
<g filter="url(#filter1_b_802_577)">
<path d="M177 87.5C177 118.704 151.704 144 120.5 144C89.2959 144 64 118.704 64 87.5C64 56.2959 89.2959 31 120.5 31C151.704 31 177 56.2959 177 87.5Z" fill="#58523B" fill-opacity="0.5"/>
</g>
<path d="M130 26.0002V79.0002C130 80.6571 131.343 82.0002 133 82.0002H184C185.657 82.0002 187.009 80.6556 186.916 79.0014C185.26 49.3858 159.331 24.8544 132.998 23.1005C131.345 22.9904 130 24.3434 130 26.0002Z" fill="url(#paint1_linear_802_577)"/>
<defs>
<filter id="filter0_b_802_577" x="65" y="128" width="50" height="50" filterUnits="userSpaceOnUse" color-interpolation-filters="sRGB">
<feFlood flood-opacity="0" result="BackgroundImageFix"/>
<feGaussianBlur in="BackgroundImage" stdDeviation="10"/>
<feComposite in2="SourceAlpha" operator="in" result="effect1_backgroundBlur_802_577"/>
<feBlend mode="normal" in="SourceGraphic" in2="effect1_backgroundBlur_802_577" result="shape"/>
</filter>
<filter id="filter1_b_802_577" x="44" y="11" width="153" height="153" filterUnits="userSpaceOnUse" color-interpolation-filters="sRGB">
<feFlood flood-opacity="0" result="BackgroundImageFix"/>
<feGaussianBlur in="BackgroundImage" stdDeviation="10"/>
<feComposite in2="SourceAlpha" operator="in" result="effect1_backgroundBlur_802_577"/>
<feBlend mode="normal" in="SourceGraphic" in2="effect1_backgroundBlur_802_577" result="shape"/>
</filter>
<linearGradient id="paint0_linear_802_577" x1="137" y1="37" x2="16.4187" y2="72.3631" gradientUnits="userSpaceOnUse">
<stop stop-color="#FFEBB6"/>
<stop offset="1" stop-color="#EDB216"/>
</linearGradient>
<linearGradient id="paint1_linear_802_577" x1="130" y1="23" x2="158.694" y2="93.5178" gradientUnits="userSpaceOnUse">
<stop stop-color="#FFEBB6"/>
<stop offset="1" stop-color="#EDB216"/>
</linearGradient>
</defs>
</svg>
