<svg width="70" height="70" viewBox="0 0 70 70" fill="none" xmlns="http://www.w3.org/2000/svg">
<rect width="70" height="70" rx="6" fill="#374246"/>
<path d="M38.9082 38.422C38.2377 39.1443 37.3689 39.6528 36.4105 39.8839C35.4522 40.1149 34.4469 40.0583 33.5207 39.721C32.5944 39.3836 31.7883 38.7807 31.2034 37.9876C30.6185 37.1945 30.2808 36.2466 30.2326 35.2626C30.1843 34.2786 30.4277 33.3022 30.9322 32.4558C31.4367 31.6094 32.1799 30.9306 33.0688 30.5044C33.9576 30.0782 34.9525 29.9236 35.9288 30.0599C36.9052 30.1962 37.8196 30.6174 38.5575 31.2707C39.0571 31.7131 39.4632 32.2507 39.7519 32.8521C40.0407 33.4534 40.2062 34.1064 40.2389 34.7726C40.2716 35.4388 40.1707 36.1049 39.9421 36.7316C39.7136 37.3583 39.3621 37.933 38.9082 38.422Z" fill="white"/>
<path d="M36.5113 17.8051C36.9227 18.2032 37.3121 18.6233 37.6778 19.0637C38.8929 20.5177 39.893 22.1385 40.6475 23.8765C41.8402 24.1036 43.0557 24.1877 44.2684 24.1268H44.4831H44.6763C47.9782 23.8235 51.06 22.3407 53.3564 19.9505L53.657 19.6286C53.2062 19.0851 52.7339 18.5488 52.2258 18.0339C48.1305 13.9501 42.7015 11.4753 36.9309 11.0617C31.1603 10.6481 25.4335 12.3233 20.7969 15.7813C28.2033 12.1985 33.3269 14.6728 36.5113 17.8051Z" fill="white"/>
<path d="M19.4681 42.2411C19.6112 41.669 19.7901 41.1255 19.9761 40.6034C20.6235 38.8152 21.5249 37.1294 22.6524 35.5975C22.2512 34.4514 21.7156 33.3568 21.0567 32.3366L20.9422 32.1578C20.9081 32.1025 20.8698 32.0499 20.8277 32.0005C18.9219 29.3067 16.1103 27.3878 12.906 26.5941L12.4767 26.4868C12.2334 27.159 12.0044 27.8313 11.8112 28.5321C10.3234 34.117 10.8948 40.0504 13.4211 45.2493C15.9474 50.4483 20.2601 54.566 25.5721 56.8511C18.7668 52.2386 18.3446 46.5676 19.4681 42.2411Z" fill="white"/>
<path d="M49.2311 44.8011C48.6804 44.9583 48.1214 45.0848 47.5567 45.1801C45.6916 45.5006 43.7901 45.5512 41.9106 45.3303C41.1157 46.2495 40.4335 47.2602 39.8783 48.341L39.7853 48.5269L39.6994 48.7057C38.3194 51.711 38.0654 55.1117 38.9838 58.2884C38.9838 58.4243 39.0625 58.5673 39.1055 58.7103C39.8211 58.5888 40.5367 58.4457 41.2093 58.2598C46.7835 56.751 51.6297 53.2911 54.8649 48.5104C58.1001 43.7297 59.5088 37.9466 58.8344 32.2148C58.2262 40.4102 53.5319 43.614 49.2311 44.8011Z" fill="white"/>
<path d="M20.8018 15.7814C17.2764 18.2438 14.5201 21.6527 12.8516 25.6144C15.3356 26.1445 17.6353 27.3212 19.5178 29.0254C21.4002 30.7295 22.7986 32.9006 23.5712 35.3187C24.2295 34.8968 26.269 33.2878 27.6429 28.8826C29.2959 23.5191 32.4374 19.5859 36.5163 17.8481C36.5163 17.8052 31.3568 10.4466 20.8018 15.7814Z" fill="white"/>
<path d="M37.3558 54.3772C37.3519 50.7845 38.6978 47.3213 41.127 44.6729V44.6228C40.6332 44.0936 38.9087 42.7993 34.472 43.8076C28.9977 45.0591 22.9581 44.9089 19.4445 42.2415C19.4445 42.2415 15.6518 50.3868 25.5485 56.8515C29.4416 58.6723 33.7703 59.3565 38.0356 58.8253C37.5658 57.39 37.3361 55.8871 37.3558 54.3772Z" fill="white"/>
<path d="M54.2952 20.4155C52.9625 21.9283 51.3234 23.1409 49.4865 23.9731C47.6496 24.8052 45.6568 25.238 43.64 25.2426C42.577 25.2376 41.5173 25.125 40.4771 24.9065H40.4198C40.2195 25.6217 40.0477 27.767 43.0675 31.0137C46.8817 35.1257 49.7727 40.4248 49.2288 44.8085C49.2288 44.8085 58.1809 44.0219 58.8321 32.2223C58.465 27.9377 56.8921 23.8444 54.2952 20.4155Z" fill="white"/>
</svg>
