<svg width="70" height="70" viewBox="0 0 70 70" fill="none" xmlns="http://www.w3.org/2000/svg">
<path d="M0 6C0 2.68629 2.68629 0 6 0H64C67.3137 0 70 2.68629 70 6V64C70 67.3137 67.3137 70 64 70H6C2.68629 70 0 67.3137 0 64V6Z" fill="#374246"/>
<path d="M33.9252 15.7701C34.2635 14.7433 35.7365 14.7433 36.0748 15.7701L39.3132 25.5995C39.4645 26.0587 39.8984 26.3696 40.388 26.3696H50.8678C51.9625 26.3696 52.4177 27.7511 51.532 28.3857L43.0537 34.4606C42.6576 34.7444 42.4919 35.2475 42.6431 35.7067L45.8816 45.5361C46.2199 46.5629 45.0282 47.4167 44.1426 46.7821L35.6642 40.7072C35.2682 40.4234 34.7318 40.4234 34.3358 40.7072L25.8574 46.7821C24.9718 47.4167 23.7801 46.5629 24.1184 45.5361L27.3569 35.7067C27.5081 35.2475 27.3424 34.7444 26.9463 34.4606L18.468 28.3857C17.5823 27.7511 18.0375 26.3696 19.1322 26.3696H29.612C30.1016 26.3696 30.5355 26.0587 30.6868 25.5995L33.9252 15.7701Z" stroke="white" stroke-width="3" stroke-linecap="round"/>
<path d="M48 18L55 11" stroke="white" stroke-width="3" stroke-linecap="round"/>
<path d="M21 18L14 11" stroke="white" stroke-width="3" stroke-linecap="round"/>
<path d="M34.9487 58.8995L34.9487 49" stroke="white" stroke-width="3" stroke-linecap="round"/>
</svg>
