<svg width="24" height="24" viewBox="0 0 24 24" fill="none" xmlns="http://www.w3.org/2000/svg">
<path d="M22.5147 6.01831C21.145 6.01831 19.8813 5.56456 18.8664 4.79909C17.7025 3.92159 16.8663 2.6344 16.571 1.15081C16.4978 0.784248 16.4585 0.405967 16.4547 0.0183105H12.5421V10.7096L12.5374 16.5657C12.5374 18.1313 11.5178 19.4588 10.1046 19.9257C9.69441 20.0611 9.25144 20.1253 8.79019 20.1C8.20144 20.0677 7.64972 19.89 7.17019 19.6032C6.14972 18.9928 5.45784 17.8857 5.43909 16.6191C5.40956 14.6396 7.00987 13.0257 8.988 13.0257C9.37847 13.0257 9.75347 13.0894 10.1046 13.2052V10.283V9.23253C9.73425 9.17769 9.35737 9.14909 8.97628 9.14909C6.81112 9.14909 4.78612 10.0491 3.33862 11.6705C2.24456 12.8958 1.58831 14.4591 1.48706 16.0983C1.3544 18.2517 2.14237 20.2988 3.6705 21.8091C3.89503 22.0308 4.13081 22.2366 4.37737 22.4264C5.68753 23.4347 7.28925 23.9813 8.97628 23.9813C9.35737 23.9813 9.73425 23.9532 10.1046 23.8983C11.6805 23.6649 13.1346 22.9435 14.2821 21.8091C15.6921 20.4155 16.4711 18.5653 16.4796 16.5961L16.4594 7.85112C17.1321 8.37003 17.8675 8.7994 18.6569 9.13269C19.8846 9.65065 21.1863 9.91315 22.526 9.91269V7.07159V6.01737C22.5269 6.01831 22.5157 6.01831 22.5147 6.01831V6.01831Z" fill="white"/>
</svg>
