<svg width="24" height="24" viewBox="0 0 24 24" fill="none" xmlns="http://www.w3.org/2000/svg">
<g clip-path="url(#clip0_61_4276)">
<path fill-rule="evenodd" clip-rule="evenodd" d="M2.03687 17.8036L0 23.6471L6.4365 22.3949C8.88948 23.8445 11.772 24.3344 14.5504 23.774C17.3288 23.2135 19.8149 21.6407 21.5485 19.3466C23.2822 17.0525 24.1459 14.1926 23.9798 11.2962C23.8138 8.39987 22.6291 5.66324 20.6453 3.59293C18.6614 1.52263 16.0126 0.258866 13.1893 0.0356005C10.3659 -0.187665 7.55925 0.644683 5.28881 2.37856C3.01836 4.11244 1.43791 6.63042 0.840033 9.46637C0.242153 12.3023 0.667335 15.2642 2.03687 17.8036ZM9.69938 10.8125C10.6186 12.3878 11.9997 13.6258 13.6458 14.3498C13.728 14.3829 13.8183 14.3881 13.9036 14.3646C13.9888 14.3411 14.0645 14.2902 14.1194 14.2194L15.0665 12.9933C15.1261 12.9178 15.209 12.8654 15.3015 12.8445C15.394 12.8236 15.4907 12.8356 15.5757 12.8785C15.7523 12.9662 15.9916 13.0863 16.2539 13.2179C16.9905 13.5873 17.9078 14.0474 18.1218 14.1359C18.7584 14.402 18.1218 15.4455 18.1218 15.4455C16.3039 18.8316 13.2945 17.9081 11.9043 17.2142C10.3053 16.4159 8.52818 15.3151 6.63899 12.0594C4.74979 8.80377 7.70834 6.43508 7.70834 6.43508C8.83371 5.69421 9.38367 6.55508 9.38367 6.55508L10.6262 8.98116C10.6583 9.05616 10.6682 9.13918 10.6546 9.21989C10.641 9.30061 10.6046 9.37544 10.5498 9.43508L9.76049 10.3168C9.7009 10.3825 9.66295 10.4656 9.65199 10.5546C9.64102 10.6435 9.6576 10.7337 9.69938 10.8125Z" fill="white"/>
</g>
<defs>
<clipPath id="clip0_61_4276">
<rect width="24" height="24" fill="white"/>
</clipPath>
</defs>
</svg>
