<svg width="24" height="24" viewBox="0 0 24 24" fill="none" xmlns="http://www.w3.org/2000/svg">
<path d="M22.5467 5.81657C22.2932 4.7152 21.5501 3.84701 20.6078 3.55045C18.8862 3 11.9998 3 11.9998 3C11.9998 3 5.11359 3 3.39202 3.52958C2.46779 3.82583 1.70657 4.71536 1.45305 5.81657C1 7.82818 1 12 1 12C1 12 1 16.1928 1.45305 18.1834C1.70684 19.2846 2.44966 20.1528 3.39216 20.4494C5.13172 21 12 21 12 21C12 21 18.8862 21 20.6078 20.4704C21.5502 20.174 22.2932 19.3058 22.547 18.2046C22.9999 16.1928 22.9999 12.0212 22.9999 12.0212C22.9999 12.0212 23.018 7.82818 22.5467 5.81657V5.81657ZM9.80727 15.8541V8.14593L15.5337 12L9.80727 15.8541Z" fill="white"/>
</svg>
