<svg width="32" height="32" viewBox="0 0 32 32" fill="none" xmlns="http://www.w3.org/2000/svg">
<path d="M15.875 8.125C16.6209 8.125 17.3363 8.42132 17.8637 8.94876C18.3912 9.47621 18.6875 10.1916 18.6875 10.9375V11.5H13.0625V10.9375C13.0625 10.1916 13.3588 9.47621 13.8863 8.94876C14.4137 8.42132 15.1291 8.125 15.875 8.125ZM19.8125 11.5V10.9375C19.8125 9.89321 19.3977 8.89169 18.6592 8.15327C17.9208 7.41484 16.9193 7 15.875 7C14.8307 7 13.8292 7.41484 13.0908 8.15327C12.3523 8.89169 11.9375 9.89321 11.9375 10.9375V11.5H8V22.75C8 23.3467 8.23705 23.919 8.65901 24.341C9.08097 24.7629 9.65326 25 10.25 25H21.5C22.0967 25 22.669 24.7629 23.091 24.341C23.5129 23.919 23.75 23.3467 23.75 22.75V11.5H19.8125ZM9.125 12.625H22.625V22.75C22.625 23.0484 22.5065 23.3345 22.2955 23.5455C22.0845 23.7565 21.7984 23.875 21.5 23.875H10.25C9.95163 23.875 9.66548 23.7565 9.4545 23.5455C9.24353 23.3345 9.125 23.0484 9.125 22.75V12.625Z" fill="#393939"/>
</svg>
