<svg width="84" height="80" viewBox="0 0 84 80" fill="none" xmlns="http://www.w3.org/2000/svg">
<path d="M28.222 62.5938C28.222 62.8827 28.0831 63.0325 27.7946 63.0325H27.4313C27.1427 63.0325 27.0038 62.8827 27.0038 62.5938V58.2716L23.4134 62.7115C23.221 62.9469 22.9645 63.0646 22.6333 63.0646C22.3127 63.0646 22.0456 62.9469 21.8532 62.7115L18.1879 58.2502V62.5938C18.1879 62.8827 18.049 63.0325 17.7605 63.0325H17.3972C17.1087 63.0325 16.9697 62.8827 16.9697 62.5938V56.977C16.9697 56.7952 17.0445 56.6347 17.1941 56.517C17.3331 56.3993 17.5041 56.3458 17.6964 56.3458C17.9528 56.3458 18.1772 56.4528 18.3696 56.6775L22.644 61.7486L26.8329 56.6668C27.0038 56.4635 27.2389 56.3565 27.5488 56.3565C27.9976 56.3565 28.222 56.5812 28.222 57.0199V62.5938Z" fill="#393939"/>
<path d="M38.3562 62.412C38.3669 62.4655 38.3669 62.519 38.3669 62.5725C38.3669 62.7544 38.3135 62.9041 38.1852 63.0112C38.0677 63.1288 37.9181 63.1823 37.7364 63.1823C37.544 63.1823 37.3731 63.0647 37.2235 62.84L36.1335 61.2673H30.9936L29.9036 62.84C29.8716 62.9148 29.8395 62.9577 29.8074 62.9898C29.7327 63.0647 29.6365 63.0967 29.5296 63.0967C29.2945 63.0967 29.1236 63.0112 29.0167 62.84C28.9632 62.7758 28.9419 62.7009 28.9419 62.6367C28.9419 62.5939 28.9526 62.5511 28.9632 62.5297L32.8209 56.6241C32.9918 56.3673 33.2376 56.2496 33.5689 56.2603C33.9536 56.271 34.1887 56.3887 34.2742 56.6241L38.3562 62.412ZM35.4175 60.2616L33.5582 57.5334L31.6989 60.2616H35.4175Z" fill="#393939"/>
<path d="M46.8943 61.1496C46.8943 62.4013 45.8044 63.0326 43.6244 63.0326H41.9147C40.2156 63.0326 39.1897 62.7223 38.8371 62.0911C38.7089 61.8664 38.6448 61.5454 38.6448 61.1496V56.7632C38.6448 56.4743 38.7837 56.3352 39.0722 56.3352H39.4355C39.7241 56.3352 39.863 56.4743 39.863 56.7632V61.064C39.863 61.4813 40.1301 61.7701 40.643 61.9092C40.9316 61.9841 41.359 62.0269 41.9254 62.0269H43.6137C44.2121 62.0269 44.6396 61.9948 44.8961 61.9199C45.4197 61.7808 45.6761 61.5026 45.6761 61.0747V56.7632C45.6761 56.4743 45.8257 56.3352 46.1143 56.3352H46.4669C46.7554 56.3352 46.8943 56.4743 46.8943 56.7632V61.1496Z" fill="#393939"/>
<path d="M56.3339 62.3156C56.3339 62.6259 56.2591 62.8292 56.0988 62.9468C55.9813 63.0217 55.7889 63.0645 55.5218 63.0645C55.4149 63.0645 55.2973 63.011 55.1478 62.9147C55.1264 62.8933 55.0729 62.8506 54.9661 62.7542L49.2705 57.9078V62.5938C49.2705 62.8827 49.1315 63.0324 48.843 63.0324H48.4797C48.1912 63.0324 48.0522 62.8827 48.0522 62.5938V56.7737C48.0522 56.624 48.1591 56.4849 48.3622 56.3672C48.4583 56.3137 48.5652 56.2816 48.6827 56.2816C48.843 56.2816 49.0354 56.3351 49.2384 56.4635C49.3346 56.5169 49.4201 56.5704 49.4949 56.6347L55.1157 61.4276V56.763C55.1157 56.4742 55.2653 56.3351 55.5538 56.3351H55.9064C56.195 56.3351 56.3339 56.4742 56.3339 56.763V62.3156Z" fill="#393939"/>
<path d="M66.4751 62.412C66.4858 62.4655 66.4858 62.519 66.4858 62.5725C66.4858 62.7544 66.4324 62.9041 66.3041 63.0112C66.1866 63.1288 66.037 63.1823 65.8553 63.1823C65.6629 63.1823 65.492 63.0647 65.3424 62.84L64.2524 61.2673H59.1125L58.0225 62.84C57.9905 62.9148 57.9584 62.9577 57.9263 62.9898C57.8516 63.0647 57.7554 63.0967 57.6485 63.0967C57.4134 63.0967 57.2424 63.0112 57.1356 62.84C57.0821 62.7758 57.0608 62.7009 57.0608 62.6367C57.0608 62.5939 57.0715 62.5511 57.0821 62.5297L60.9398 56.6241C61.1107 56.3673 61.3565 56.2496 61.6878 56.2603C62.0725 56.271 62.3076 56.3887 62.3931 56.6241L66.4751 62.412ZM63.5365 60.2616L61.6771 57.5334L59.8178 60.2616H63.5365Z" fill="#393939"/>
<path d="M5.28394 41.2105C10.8517 37.3478 16.2625 32.2049 21.5341 26.3293C21.9573 25.8577 26.5859 21.3471 32.3167 19.2143C34.4165 18.4328 35.0326 16.6358 36.3795 16.2148C37.1741 15.9662 39.9116 16.1448 40.6841 15.9593C42.5485 15.5118 42.4937 13.7687 45.7866 14.5143C47.2046 14.8353 48.9496 15.9821 50.2803 16.6222C50.9973 16.967 53.3824 15.6332 54.6494 16.5353C55.4647 17.1157 55.5363 18.0129 56.2809 18.6705C56.7156 19.0545 57.1142 18.6251 58.2013 19.3927C58.7581 19.7858 58.8437 20.675 59.3004 21.17C59.5417 21.4316 60.3299 20.4697 61.1442 20.8567C62.5758 21.5369 64.2549 23.172 64.8103 24.6667C64.9497 25.0423 64.7768 25.7315 65.1 25.9168C66.0264 26.4475 66.5867 25.9419 67.3286 26.7824C67.9199 27.4521 67.9088 29.1791 68.2026 29.9345C68.621 31.0102 69.5965 31.6702 70.3512 33.1823C70.6463 33.7737 70.1664 34.733 69.5034 34.397C68.7517 34.016 66.4971 31.3747 66.0556 32.0201C65.7113 32.5233 64.4708 32.2513 63.2585 30.8849C62.848 30.4221 62.8644 28.5483 62.397 27.9805C62.0496 27.5586 61.3269 27.4807 60.9666 27.0289C60.4479 26.3781 61.1496 24.457 60.4725 23.9135C58.9731 22.7096 57.1646 24.6103 56.3494 23.9842C55.5049 23.3357 55.3111 21.854 54.6679 21.0863C53.8993 20.169 53.785 21.61 51.9957 21.0574C50.9337 20.7295 50.6612 18.36 50.03 18.3054C49.5608 18.2648 50.1609 21.5499 49.6895 21.5421C48.376 21.5205 48.9103 18.5202 43.7535 18.5598C40.8784 18.5818 39.0243 20.2483 36.6702 21.5238C33.3743 23.3095 32.0286 20.5756 30.9604 21.0959C27.4615 22.7997 25.1051 25.4869 23.8173 27.3117C23.4746 27.7975 21.5542 32.5014 23.7873 36.586C24.4981 37.8859 27.2044 40.0687 29.4787 40.8997C32.2289 41.9044 36.4569 42.0213 39.1014 41.9875C39.7865 41.9787 41.5559 44.6329 45.8998 45.1731C50.7346 45.7745 55.1587 43.6722 58.8081 44.2912" stroke="#393939" stroke-width="1.4111" stroke-miterlimit="22.9256" stroke-linecap="round" stroke-linejoin="round"/>
<path d="M69.3452 35.7585C68.2708 34.4907 67.0277 34.2416 65.3233 34.9616C64.5875 33.0201 63.6909 32.9996 62.0155 33.0393C60.9799 29.9846 61.4541 30.5985 58.6512 28.9982C51.9758 28.8225 52.9204 33.1945 53.1983 34.9107C53.5909 37.3346 57.2652 40.313 62.0044 41.9375C66.0703 43.331 70.4646 42.6131 73.8768 43.0545C75.9799 43.3266 77.5515 44.3501 78.5553 45.0828" stroke="#393939" stroke-width="0.8399" stroke-miterlimit="22.9256" stroke-linecap="round" stroke-linejoin="round"/>
<path d="M32.9071 24.2838C31.9613 24.4688 31.1812 24.9893 30.4806 25.4406C23.3435 30.0395 20.9086 38.4221 12.925 43.1949C11.7514 43.8966 10.3482 44.0152 8.7402 44.7553C8.65841 44.793 13.9089 44.6867 21.5036 48.5061C22.679 49.0972 25.276 49.9242 26.8217 49.8435C33.4954 49.495 41.7392 47.0779 49.5657 47.1856C49.5657 47.1856 46.02 50.5409 55.626 50.899C59.128 51.0295 63.7175 48.5006 68.1386 46.9071C71.8835 45.5573 76.0472 45.4887 75.9292 45.8879C75.1913 48.3852 76.4853 49.1541 78.6304 48.9664" stroke="#393939" stroke-width="1.5835" stroke-miterlimit="22.9256" stroke-linecap="round" stroke-linejoin="round"/>
<path d="M78.5553 45.0828C76.405 44.4358 74.8342 43.3539 67.1825 44.8878C65.9266 45.1396 62.2481 45.425 58.6799 44.1628C55.2421 42.9467 51.9384 40.2377 49.3411 37.5938C46.4765 34.6781 43.4783 30.3172 44.607 26.0068C44.6568 25.9569 42.8058 27.5576 42.61 29.7204C42.4392 31.6067 42.7318 34.0034 43.0715 34.3357C43.223 34.4839 40.6818 32.5863 39.942 29.4993C39.0275 25.6835 41.7512 22.8216 41.4533 22.9268C37.2903 24.3959 36.5852 27.5649 36.6568 29.6C36.7327 31.7585 37.8437 35.5328 41.7246 38.2334C44.7047 40.3072 50.0554 40.2948 50.9701 42.5181C50.9701 42.5181 48.5446 41.3258 46.0007 41.2492C42.8596 41.1545 39.5341 41.7686 38.4087 41.8243" stroke="#393939" stroke-width="0.7055" stroke-miterlimit="22.9256" stroke-linecap="round" stroke-linejoin="round"/>
<path d="M69.4444 35.6593C68.7132 33.7778 67.3242 34.0844 64.136 32.489C61.8645 31.3524 60.2901 27.43 58.3229 26.597C57.4398 26.2231 56.3449 25.9226 55.4611 26.3662C55.3547 25.3307 54.5355 24.2214 53.5337 23.66C49.8659 21.6055 46.0512 27.3066 48.6246 31.9563C51.2442 36.6893 56.2366 42.3255 58.9529 44.1854" stroke="#393939" stroke-width="0.7056" stroke-miterlimit="22.9256"/>
<path d="M78.6763 49.0135C73.4284 69.0413 52.9575 81.0179 32.9534 75.7637C12.9493 70.5095 0.986961 50.0144 6.23481 29.9865C11.4828 9.95867 31.9537 -2.0178 51.9579 3.23628" stroke="#393939" stroke-width="1.5834" stroke-miterlimit="22.9256" stroke-linecap="round" stroke-linejoin="round"/>
<path d="M33.6703 66.2468C33.6367 66.3327 33.6106 66.4038 33.5882 66.4561C33.5621 66.5271 33.5322 66.6131 33.4986 66.7065C33.4277 66.8971 33.3531 67.1176 33.2709 67.368C33.1888 67.6184 33.1216 67.8389 33.0693 68.0332L33.0245 68.0295L32.9872 68.022L32.9499 68.0295L32.9088 68.0332C32.8827 67.9211 32.8491 67.7754 32.8043 67.596L32.7409 67.3605C32.7296 67.3082 32.7222 67.2783 32.7184 67.2746C32.7184 67.2671 32.7035 67.2148 32.6699 67.1139L32.6027 66.8784L32.543 66.6766C32.5094 66.7513 32.4721 66.8597 32.4235 66.998C32.4123 67.0429 32.3899 67.1138 32.3638 67.2035C32.334 67.297 32.3078 67.3904 32.2817 67.4801C32.2556 67.5698 32.2257 67.6819 32.1921 67.8127L32.1324 68.0332L32.0913 68.0295L32.054 68.022L32.0129 68.0295L31.9719 68.0332C31.9159 67.8127 31.8599 67.5997 31.8001 67.3941C31.7703 67.2895 31.7442 67.1886 31.7106 67.084C31.6807 66.9793 31.6471 66.8747 31.6172 66.7738C31.5538 66.5682 31.4941 66.3926 31.4456 66.2468L31.5052 66.2543L31.5762 66.258L31.6397 66.2543L31.7068 66.2468L31.774 66.5308L31.8188 66.7102L31.8674 66.8934C31.8786 66.9457 31.8935 66.9868 31.9009 67.0204C31.9159 67.0765 31.9308 67.1288 31.9495 67.1849C31.9905 67.3306 32.0353 67.4801 32.0876 67.6371C32.1174 67.5549 32.1511 67.4577 32.1846 67.3456L32.3041 66.9681L32.4161 66.572L32.5056 66.2468L32.5393 66.2506L32.5803 66.258C32.599 66.258 32.6102 66.2543 32.6214 66.2543L32.6587 66.2468C32.6811 66.3477 32.7035 66.4561 32.7296 66.5682C32.7595 66.6841 32.7931 66.8112 32.8342 66.9494C32.8678 67.069 32.9013 67.1923 32.9424 67.3232C32.9835 67.454 33.0171 67.5586 33.0432 67.6371C33.1141 67.424 33.1515 67.3119 33.1552 67.3007C33.2149 67.1176 33.2485 67.0167 33.2523 67.0055C33.2597 66.9793 33.2858 66.8934 33.3306 66.7551C33.3978 66.5421 33.4501 66.3701 33.4837 66.2468L33.521 66.2506L33.577 66.258L33.6218 66.2543L33.6703 66.2468Z" fill="#393939"/>
<path d="M34.0061 67.125C34.0061 67.0316 34.0136 66.9494 34.0285 66.8747C34.0434 66.7999 34.0696 66.7289 34.1032 66.6541C34.1704 66.5159 34.2637 66.4112 34.3794 66.3365C34.4951 66.2617 34.6257 66.2244 34.7639 66.2244C34.902 66.2244 35.0214 66.2617 35.126 66.3327C35.2267 66.4075 35.3089 66.5121 35.3686 66.6504C35.4283 66.7924 35.4582 66.9531 35.4582 67.1325C35.4582 67.1961 35.4545 67.2521 35.447 67.3082C35.4395 67.3643 35.4283 67.424 35.4097 67.4801C35.3798 67.5885 35.3313 67.6894 35.2678 67.7791C35.2342 67.824 35.2006 67.8613 35.1596 67.8986C35.1222 67.9323 35.0775 67.9622 35.0289 67.9846C34.9356 68.0369 34.8311 68.0631 34.7116 68.0631C34.6146 68.0631 34.5212 68.0407 34.4354 67.9996C34.3943 67.9772 34.3533 67.951 34.3159 67.9211C34.2786 67.8912 34.245 67.8538 34.2114 67.8127C34.1479 67.7343 34.0994 67.6371 34.0621 67.5175C34.0248 67.3979 34.0061 67.2671 34.0061 67.125ZM34.7602 66.3402C34.6407 66.3402 34.5474 66.3813 34.4727 66.4598C34.3981 66.542 34.3458 66.6467 34.3159 66.77C34.2824 66.8971 34.2674 67.0316 34.2674 67.1811C34.2674 67.2858 34.2786 67.3829 34.2936 67.4726C34.3122 67.5586 34.3421 67.6446 34.3832 67.7193C34.4615 67.8725 34.5773 67.9472 34.7377 67.9472C34.8423 67.9472 34.9318 67.9024 34.9991 67.8127C35.0663 67.723 35.1148 67.6109 35.1484 67.4801C35.182 67.353 35.1969 67.2297 35.1969 67.1176C35.1969 66.9905 35.182 66.8672 35.1558 66.7476C35.126 66.628 35.0775 66.5308 35.014 66.4561C34.9468 66.3776 34.8647 66.3402 34.7602 66.3402Z" fill="#393939"/>
<path d="M35.9558 68.0332V66.2468L36.0081 66.2542L36.0752 66.258L36.1312 66.2542L36.191 66.2468V66.5682C36.2992 66.3402 36.4485 66.2244 36.6352 66.2244C36.7359 66.2244 36.8255 66.2542 36.904 66.3215C36.9861 66.385 37.042 66.4747 37.0757 66.5944C37.1914 66.3477 37.3481 66.2244 37.5422 66.2244C37.7177 66.2244 37.8409 66.2842 37.9155 66.4038C37.9865 66.5233 38.0238 66.7065 38.0238 66.9532V68.0332L37.9603 68.0295L37.9044 68.022L37.8446 68.0295L37.7849 68.0332V67.0391C37.7849 66.841 37.7625 66.6878 37.7177 66.5794C37.6729 66.471 37.5871 66.4187 37.4564 66.4187C37.3183 66.4187 37.2287 66.4747 37.1802 66.5906C37.1316 66.7027 37.1093 66.8485 37.1093 67.0241V68.0332L37.0458 68.0295L36.9898 68.022L36.9301 68.0295L36.8703 68.0332V66.9382C36.8703 66.7588 36.8442 66.628 36.792 66.542C36.7434 66.4598 36.6613 66.4187 36.553 66.4187C36.4112 66.4187 36.3179 66.4673 36.2656 66.5607C36.2171 66.6579 36.191 66.785 36.191 66.9457V68.0332L36.1312 68.0295L36.0752 68.022L36.0118 68.0295L35.9558 68.0332Z" fill="#393939"/>
<path d="M39.6439 66.8522V67.7193C39.6439 67.7903 39.6476 67.8389 39.6588 67.865C39.6663 67.8912 39.6887 67.9062 39.726 67.9062H39.7708L39.8118 67.8912V67.9734C39.7783 67.9883 39.7447 68.0033 39.711 68.0108C39.6849 68.0183 39.6551 68.022 39.6289 68.022C39.5692 68.022 39.5169 68.0033 39.4796 67.9622C39.446 67.9248 39.4274 67.8688 39.4161 67.794L39.39 67.8277C39.2631 67.9846 39.1175 68.0631 38.9496 68.0631C38.8376 68.0631 38.7443 68.0183 38.6659 67.9323C38.5875 67.8463 38.5464 67.738 38.5464 67.6034C38.5464 67.4763 38.5726 67.3755 38.6173 67.3044C38.6659 67.2335 38.7293 67.1849 38.8002 67.1512C38.8749 67.1213 38.9757 67.0952 39.0989 67.069C39.1922 67.0503 39.2594 67.0316 39.2967 67.0167C39.3378 67.0017 39.3677 66.9793 39.39 66.9494C39.4087 66.9195 39.4161 66.8747 39.4161 66.8186C39.4161 66.6803 39.3863 66.5756 39.3266 66.4972C39.2631 66.4187 39.1773 66.3813 39.069 66.3813C38.9682 66.3813 38.8898 66.4112 38.8264 66.4673C38.7667 66.5233 38.7256 66.5794 38.7144 66.6392H38.6808V66.4299C38.8376 66.2916 38.9981 66.2244 39.1586 66.2244C39.4834 66.2244 39.6439 66.4336 39.6439 66.8522ZM39.4049 67.6483V67.1026L39.3004 67.1288L39.0877 67.1811C39.069 67.1849 39.0504 67.1923 39.0317 67.1998C39.0093 67.2073 38.9869 67.2222 38.9608 67.2372C38.9122 67.2633 38.8712 67.3007 38.8413 67.3568C38.8077 67.4053 38.7928 67.4726 38.7928 67.5549C38.7928 67.6109 38.8002 67.6632 38.8114 67.7043C38.8226 67.7492 38.8413 67.7828 38.8712 67.8164C38.9234 67.8763 38.9943 67.9062 39.0839 67.9062C39.125 67.9062 39.1661 67.8912 39.2108 67.865C39.2557 67.8351 39.293 67.8015 39.3266 67.7641C39.3788 67.7006 39.4049 67.6632 39.4049 67.6483Z" fill="#393939"/>
<path d="M40.313 68.0332V66.2468L40.369 66.2542L40.4324 66.258L40.4922 66.2542L40.5519 66.2468V66.5869C40.6601 66.3439 40.8244 66.2244 41.0334 66.2244C41.2051 66.2244 41.3283 66.2842 41.403 66.4C41.4776 66.5196 41.515 66.7027 41.515 66.9532V68.0332L41.4515 68.0295L41.3955 68.022L41.3358 68.0295L41.2761 68.0332V67.0391C41.2761 66.8335 41.2536 66.6803 41.2051 66.5756C41.1603 66.471 41.0745 66.4187 40.9438 66.4187C40.7945 66.4187 40.6937 66.4822 40.6377 66.6056C40.5818 66.7327 40.5519 66.9195 40.5519 67.1661V68.0332L40.4884 68.0295L40.4324 68.022L40.3727 68.0295L40.313 68.0332Z" fill="#393939"/>
<path d="M42.0837 66.4599L42.2928 65.6339C42.304 65.5741 42.3227 65.5218 42.3413 65.4807C42.3637 65.4396 42.3898 65.4209 42.4272 65.4209C42.4608 65.4209 42.4906 65.4321 42.513 65.4583C42.5392 65.4844 42.5504 65.5181 42.5504 65.5592C42.5504 65.5966 42.5466 65.6302 42.5354 65.6526L42.4869 65.7573L42.136 66.486L42.0837 66.4599Z" fill="#393939"/>
<path d="M43.1257 67.6707H43.1518C43.1892 67.7492 43.2377 67.8127 43.3011 67.865C43.3646 67.9211 43.428 67.9472 43.4915 67.9472C43.54 67.9472 43.5848 67.9323 43.6334 67.9024C43.6782 67.8725 43.7155 67.8314 43.7454 67.7791C43.7715 67.7268 43.7864 67.6707 43.7864 67.6072C43.7864 67.4988 43.7603 67.4203 43.7043 67.3792C43.6483 67.3343 43.5625 67.2932 43.443 67.2521C43.3273 67.211 43.2377 67.1587 43.1742 67.0914C43.1107 67.0279 43.0809 66.9232 43.0809 66.7775C43.0809 66.6056 43.1294 66.471 43.219 66.3701C43.3123 66.273 43.428 66.2244 43.5699 66.2244C43.6446 66.2244 43.7117 66.2319 43.7715 66.2542C43.8312 66.273 43.876 66.2953 43.9058 66.3215C43.876 66.4038 43.8536 66.4897 43.8349 66.5869H43.8088C43.7864 66.5196 43.7528 66.4636 43.7043 66.415C43.6558 66.3664 43.6072 66.3402 43.555 66.3402C43.4766 66.3402 43.4131 66.3664 43.3609 66.4224C43.3086 66.4785 43.2825 66.5533 43.2825 66.6504C43.2825 66.755 43.3086 66.8335 43.3646 66.8747C43.4206 66.9195 43.5064 66.9644 43.6221 67.0129C43.7416 67.0615 43.8312 67.1138 43.8909 67.1774C43.9544 67.2409 43.9843 67.3381 43.9843 67.4726C43.9843 67.5997 43.9582 67.7043 43.9058 67.794C43.8536 67.8837 43.7864 67.9472 43.6968 67.9958C43.6109 68.0407 43.5251 68.0631 43.4355 68.0631C43.2937 68.0631 43.1705 68.022 43.0623 67.9435C43.0809 67.88 43.0921 67.8239 43.1033 67.7828C43.1107 67.7417 43.1182 67.7043 43.1257 67.6707Z" fill="#393939"/>
<path d="M45.114 68.0219H45.3081V65.2264L45.3716 65.2339L45.4313 65.2377L45.4649 65.2339L45.5097 65.2302L45.547 65.2264V66.6092C45.6852 66.3514 45.8569 66.2243 46.0659 66.2243C46.1965 66.2243 46.3048 66.2654 46.3981 66.3476C46.4914 66.4336 46.5586 66.542 46.5997 66.6728C46.6445 66.8036 46.6669 66.9456 46.6669 67.0913C46.6669 67.181 46.6594 67.2633 46.6482 67.338C46.637 67.4128 46.6146 67.4875 46.5848 67.5697C46.5325 67.7155 46.4541 67.835 46.3496 67.9285C46.2451 68.0182 46.1293 68.063 45.9912 68.063C45.8046 68.063 45.6627 67.9733 45.5694 67.7977L45.5209 67.8425L45.4761 67.8948L45.3641 68.0219H45.114ZM45.9912 66.3812C45.8344 66.3812 45.7224 66.4635 45.6515 66.6354C45.5806 66.8036 45.5433 67.0091 45.5433 67.2595C45.5433 67.3604 45.5545 67.4539 45.5694 67.5361C45.5881 67.6145 45.6179 67.6893 45.6553 67.7528C45.7336 67.8799 45.8344 67.9434 45.9614 67.9434C46.1107 67.9434 46.2226 67.8575 46.2973 67.6818C46.3683 67.5099 46.4056 67.3156 46.4056 67.1063C46.4056 66.8895 46.372 66.7139 46.3048 66.5794C46.2338 66.4485 46.1293 66.3812 45.9912 66.3812Z" fill="#393939"/>
<path d="M48.1866 66.8522V67.7193C48.1866 67.7903 48.1903 67.8389 48.2015 67.865C48.209 67.8912 48.2314 67.9062 48.2687 67.9062H48.3135L48.3546 67.8912V67.9734C48.321 67.9883 48.2874 68.0033 48.2538 68.0108C48.2276 68.0183 48.1978 68.022 48.1717 68.022C48.1119 68.022 48.0597 68.0033 48.0223 67.9622C47.9888 67.9248 47.9701 67.8688 47.9589 67.794L47.9327 67.8277C47.8058 67.9846 47.6603 68.0631 47.4923 68.0631C47.3803 68.0631 47.287 68.0183 47.2086 67.9323C47.1302 67.8463 47.0891 67.738 47.0891 67.6034C47.0891 67.4763 47.1153 67.3755 47.1601 67.3044C47.2086 67.2335 47.2721 67.1849 47.343 67.1512C47.4176 67.1213 47.5184 67.0952 47.6416 67.069C47.7349 67.0503 47.8021 67.0316 47.8394 67.0167C47.8805 67.0017 47.9104 66.9793 47.9327 66.9494C47.9514 66.9195 47.9589 66.8747 47.9589 66.8186C47.9589 66.6803 47.929 66.5756 47.8693 66.4972C47.8058 66.4187 47.72 66.3813 47.6117 66.3813C47.5109 66.3813 47.4325 66.4112 47.3691 66.4673C47.3094 66.5233 47.2683 66.5794 47.2571 66.6392H47.2235V66.4299C47.3803 66.2916 47.5408 66.2244 47.7013 66.2244C48.0261 66.2244 48.1866 66.4336 48.1866 66.8522ZM47.9477 67.6483V67.1026L47.8432 67.1288L47.6304 67.1811C47.6117 67.1849 47.5931 67.1923 47.5744 67.1998C47.552 67.2073 47.5296 67.2222 47.5035 67.2372C47.455 67.2633 47.4139 67.3007 47.384 67.3568C47.3504 67.4053 47.3355 67.4726 47.3355 67.5549C47.3355 67.6109 47.343 67.6632 47.3542 67.7043C47.3654 67.7492 47.384 67.7828 47.4139 67.8164C47.4662 67.8763 47.5371 67.9062 47.6266 67.9062C47.6678 67.9062 47.7088 67.8912 47.7536 67.865C47.7984 67.8351 47.8357 67.8015 47.8693 67.7641C47.9215 67.7006 47.9477 67.6632 47.9477 67.6483Z" fill="#393939"/>
<path d="M48.8564 68.0332V66.2468L48.9124 66.2542L48.9759 66.258L49.0356 66.2542L49.0953 66.2468V66.5869C49.2036 66.3439 49.3679 66.2244 49.5769 66.2244C49.7486 66.2244 49.8718 66.2842 49.9464 66.4C50.0211 66.5196 50.0584 66.7027 50.0584 66.9532V68.0332L49.995 68.0295L49.9389 68.022L49.8793 68.0295L49.8195 68.0332V67.0391C49.8195 66.8335 49.7971 66.6803 49.7486 66.5756C49.7038 66.471 49.6179 66.4187 49.4873 66.4187C49.338 66.4187 49.2372 66.4822 49.1812 66.6056C49.1252 66.7327 49.0953 66.9195 49.0953 67.1661V68.0332L49.0319 68.0295L48.9759 68.022L48.9161 68.0295L48.8564 68.0332Z" fill="#393939"/>
<path d="M51.9218 65.2264V68.0331L51.8583 68.0294L51.8023 68.0219L51.7426 68.0294L51.6829 68.0331V67.6744C51.5634 67.9322 51.3917 68.063 51.1715 68.063C51.0558 68.063 50.955 68.0294 50.8654 67.9621C50.7795 67.8986 50.7086 67.7939 50.6564 67.6594C50.6003 67.5211 50.5742 67.3567 50.5742 67.1586C50.5742 66.9867 50.6003 66.8297 50.6526 66.684C50.6787 66.613 50.7123 66.5494 50.7497 66.4934C50.787 66.4373 50.8281 66.3887 50.8803 66.3476C50.9774 66.2654 51.0893 66.2243 51.2163 66.2243C51.4104 66.2243 51.5672 66.3439 51.6829 66.5868V65.2264L51.7426 65.2339L51.8023 65.2377L51.8397 65.2339L51.8844 65.2264H51.9218ZM51.6829 67.0913C51.6829 66.9045 51.6493 66.7363 51.5858 66.5943C51.5224 66.4485 51.4179 66.3775 51.2797 66.3775C50.9848 66.3775 50.8356 66.6541 50.8356 67.2109C50.8356 67.3268 50.8505 67.4389 50.8766 67.5473C50.9027 67.6556 50.9438 67.7491 51.0072 67.8201C51.067 67.8911 51.1454 67.9285 51.2424 67.9285C51.3992 67.9285 51.5112 67.8425 51.5783 67.6706C51.6493 67.4987 51.6829 67.3044 51.6829 67.0913Z" fill="#393939"/>
</svg>
