<svg width="15" height="15" viewBox="0 0 15 15" fill="none" xmlns="http://www.w3.org/2000/svg">
<path d="M9.37466 4.68701L4.49334 9.64939C4.31752 9.8252 4.21875 10.0637 4.21875 10.3123C4.21875 10.5609 4.31752 10.7994 4.49334 10.9752C4.66915 11.151 4.90761 11.2498 5.15625 11.2498C5.40489 11.2498 5.64335 11.151 5.81916 10.9752L11.638 5.07534C11.8121 4.90123 11.9502 4.69453 12.0444 4.46704C12.1387 4.23956 12.1872 3.99574 12.1872 3.74951C12.1872 3.50328 12.1387 3.25947 12.0444 3.03198C11.9502 2.80449 11.8121 2.5978 11.638 2.42369C11.4639 2.24958 11.2572 2.11147 11.0297 2.01724C10.8022 1.92301 10.5584 1.87451 10.3122 1.87451C10.0659 1.87451 9.82211 1.92301 9.59462 2.01724C9.36714 2.11147 9.16044 2.24958 8.98633 2.42369L3.16751 8.32356C2.64007 8.85101 2.34375 9.56638 2.34375 10.3123C2.34375 11.0582 2.64007 11.7736 3.16751 12.301C3.69496 12.8285 4.41033 13.1248 5.15625 13.1248C5.90217 13.1248 6.61754 12.8285 7.14499 12.301L11.9528 7.49951" stroke="black" stroke-linecap="round" stroke-linejoin="round"/>
</svg>
