<svg width="32" height="31" viewBox="0 0 32 31" fill="none" xmlns="http://www.w3.org/2000/svg">
<path fill-rule="evenodd" clip-rule="evenodd" d="M25.5893 0.145608L25.4359 0.291156V2.10553V3.9199L25.5893 4.06545C25.6737 4.14552 25.8156 4.21106 25.9046 4.21106C25.9937 4.21106 26.1356 4.14552 26.2199 4.06545L26.3734 3.9199V2.40475V0.889661H26.8421H27.3109V15.1835V29.4774H26.8421H26.3734V17.4347V5.39188L26.2199 5.24633C26.1356 5.16626 25.9937 5.10072 25.9046 5.10072C25.8156 5.10072 25.6737 5.16626 25.5893 5.24633L25.4359 5.39188V17.7339V30.0759L25.5893 30.2215L25.7427 30.3671H28.7171H31.6916L31.8449 30.2215L31.9984 30.0759V15.1835V0.291156L31.8449 0.145608L31.6916 0H28.7171H25.7427L25.5893 0.145608ZM31.0609 2.55036V4.21106H29.6546H28.2484V2.55036V0.889661H29.6546H31.0609V2.55036ZM14.4429 2.41163C13.9416 2.6535 13.6234 3.17876 13.6234 3.76451C13.6234 4.39516 13.2511 5.19342 12.7286 5.68309C12.5493 5.85112 10.9406 6.96296 9.15363 8.15392L5.90463 10.3193L3.07894 10.3196L0.253251 10.3201L0.125814 10.4499C-0.000186265 10.5782 -0.00162376 10.631 0.000376241 15.1799C0.00250124 20.143 -0.0129363 19.9189 0.335689 20.0447C0.444439 20.0839 1.50281 20.1063 3.24913 20.1063H5.99169L7.19044 20.907C8.44681 21.7462 8.60119 21.8102 8.87019 21.6035C9.05094 21.4646 9.06094 21.1476 8.88981 20.9852C8.8195 20.9185 8.27375 20.539 7.67706 20.1419L6.59213 19.4199V15.1839V10.9479L9.77963 8.82715C11.5328 7.66075 13.1148 6.57803 13.2953 6.42116L13.6234 6.13587V15.1851V24.2345L13.3203 23.9646C13.1536 23.8161 12.4031 23.2876 11.6525 22.7901C10.1534 21.7966 10.0048 21.738 9.75294 22.0419C9.59894 22.2277 9.59013 22.348 9.71794 22.5212C9.76994 22.5916 10.4103 23.0489 11.141 23.5372C11.8717 24.0256 12.618 24.5742 12.7995 24.7563C13.2008 25.159 13.4889 25.7214 13.5693 26.2589C13.7364 27.3758 13.8194 27.5632 14.2796 27.862C14.5013 28.0059 14.5869 28.0243 15.0342 28.0243C15.4804 28.0243 15.5689 28.0054 15.7993 27.8607C15.9426 27.7707 16.1374 27.5859 16.2322 27.4499L16.4046 27.2027L16.4359 23.2558L16.4671 19.3088L17.2171 18.8179C17.6296 18.5479 18.0445 18.2627 18.139 18.1841L18.3109 18.0411V15.1835V12.326L18.139 12.183C18.0445 12.1044 17.6296 11.8192 17.2171 11.5492L16.4671 11.0582L16.4359 7.11129L16.4046 3.16435L16.2322 2.9172C15.9553 2.52017 15.6232 2.34734 15.0978 2.32682C14.7734 2.31413 14.5979 2.3369 14.4429 2.41163ZM15.3734 3.3214C15.4976 3.43925 15.4984 3.51908 15.4984 15.1835C15.4984 26.848 15.4976 26.9278 15.3734 27.0457C15.1873 27.2223 14.8528 27.2039 14.6904 27.008L14.5609 26.8517V15.1835V3.51535L14.6904 3.35906C14.8528 3.16322 15.1873 3.14477 15.3734 3.3214ZM31.0609 6.76142V8.42212H29.6546H28.2484V6.76142V5.10072H29.6546H31.0609V6.76142ZM31.0609 10.9725V12.6332H29.6546H28.2484V10.9725V9.31178H29.6546H31.0609V10.9725ZM22.0727 11.0934C21.8453 11.2944 21.8927 11.5311 22.2367 11.9134C22.8088 12.549 23.1555 13.1532 23.3846 13.9134C23.5861 14.5822 23.5871 15.7815 23.3868 16.446C23.1909 17.0954 22.817 17.7688 22.3424 18.3267C21.8922 18.8559 21.8334 19.0622 22.0727 19.2737C22.2471 19.4279 22.4993 19.428 22.7056 19.274C22.9441 19.0959 23.6009 18.2472 23.8229 17.83C24.9774 15.6613 24.6009 13.0083 22.894 11.2839C22.5476 10.9339 22.3143 10.8798 22.0727 11.0934ZM1.87338 15.2132V19.2167H1.40463H0.935876V15.2132V11.2097H1.40463H1.87338V15.2132ZM5.62338 15.2132V19.2167H4.21713H2.81088V15.2132V11.2097H4.21713H5.62338V15.2132ZM16.9554 12.4552L17.3694 12.7221V15.1835V17.6449L16.9554 17.9118C16.7277 18.0586 16.5177 18.1876 16.4886 18.1985C16.4596 18.2094 16.4359 16.8527 16.4359 15.1835C16.4359 13.5144 16.4596 12.1577 16.4886 12.1686C16.5177 12.1795 16.7277 12.3085 16.9554 12.4552ZM20.8298 12.289C20.6581 12.3677 20.5606 12.6187 20.6313 12.8C20.6606 12.8751 20.7944 13.0618 20.9286 13.2149C21.2435 13.574 21.4758 14.019 21.5916 14.4855C21.8235 15.4187 21.576 16.4139 20.9286 17.1522C20.6272 17.4959 20.5608 17.6567 20.636 17.8614C20.7019 18.0408 20.9893 18.1786 21.1784 18.1217C21.3476 18.0707 21.8435 17.5413 22.0686 17.1713C22.1681 17.0078 22.3248 16.6604 22.4167 16.3994C22.5623 15.9861 22.5838 15.8294 22.5838 15.1835C22.5838 14.5395 22.562 14.3798 22.4177 13.9677C22.2058 13.3625 21.8623 12.8137 21.4866 12.4802C21.1843 12.2118 21.0704 12.1787 20.8298 12.289ZM19.5184 13.5327C19.4436 13.5678 19.3471 13.677 19.3042 13.7754C19.2399 13.9227 19.2419 13.9781 19.3154 14.0888C19.7794 14.7879 19.7796 14.7885 19.7796 15.1835C19.7796 15.5786 19.7794 15.5791 19.3154 16.2783C19.1158 16.5791 19.522 16.9823 19.8908 16.8492C20.2799 16.7088 20.7484 15.7984 20.7484 15.1826C20.7484 14.6713 20.3953 13.8702 20.0502 13.5983C19.9179 13.4941 19.667 13.4632 19.5184 13.5327ZM31.0609 15.1835V16.8442H29.6546H28.2484V15.1835V13.5228H29.6546H31.0609V15.1835ZM31.0609 19.3946V21.0553H29.6546H28.2484V19.3946V17.7339H29.6546H31.0609V19.3946ZM31.0609 23.6057V25.2664H29.6546H28.2484V23.6057V21.945H29.6546H31.0609V23.6057ZM31.0609 27.8167V29.4774H29.6546H28.2484V27.8167V26.156H29.6546H31.0609V27.8167Z" fill="white"/>
</svg>
