<svg width="33" height="31" viewBox="0 0 33 31" fill="none" xmlns="http://www.w3.org/2000/svg">
<path fill-rule="evenodd" clip-rule="evenodd" d="M10.3796 0.104008C8.65007 0.500967 7.10504 2.01196 6.73471 3.66863C6.67094 3.95414 6.61809 4.55079 6.6173 4.99444C6.61602 5.77672 6.62232 5.80596 6.82598 5.95775C6.99528 6.084 7.14984 6.11437 7.62308 6.11437H8.21014V6.89975V7.68506L7.27355 7.71498C6.22162 7.7486 5.85989 7.86933 5.45807 8.32099C4.77854 9.08491 4.86551 10.2641 5.64667 10.8765C6.19308 11.3049 6.40623 11.3276 9.87864 11.3271C11.9354 11.3269 13.143 11.2977 13.3499 11.2433C13.8828 11.103 14.3131 10.7678 14.5504 10.308C14.9853 9.46548 14.6781 8.46228 13.8339 7.9674C13.4644 7.75079 13.3922 7.73734 12.4611 7.71211L11.4783 7.68544V6.8999V6.11437H12.1195C12.6942 6.11437 12.7812 6.09511 12.9565 5.92889C13.1297 5.76479 13.1522 5.6779 13.1522 5.17335V4.6033H17.9373C22.0761 4.6033 22.7624 4.58751 23.0177 4.48634C24.4095 3.93518 24.3228 2.04793 22.8849 1.59158C22.6944 1.53114 21.2078 1.5056 17.8831 1.5056H13.1522V0.901174C13.1522 0.0182546 13.1144 -0.00728256 11.817 0.000952779C11.2581 0.0045038 10.6113 0.0508939 10.3796 0.104008ZM2.43698 0.868686C2.26002 1.03642 2.20701 1.29624 2.2499 1.78606C2.30617 2.42917 2.69022 2.66497 3.13779 2.33118C3.33101 2.18717 3.34783 2.12968 3.34783 1.61342C3.34783 1.15299 3.31921 1.02516 3.18841 0.901174C2.99782 0.720525 2.61099 0.703753 2.43698 0.868686ZM12.0362 3.01668V5.05662H9.88406H7.73188V4.57928C7.73188 3.65246 8.13554 2.76916 8.87804 2.0712C9.62851 1.36583 10.5204 1.0179 11.6576 0.987003L12.0362 0.976728V3.01668ZM0.589855 2.62115C0.471247 2.69625 0.318841 2.97958 0.318841 3.12502C0.318841 3.19007 0.39058 3.31133 0.478261 3.39444C0.61058 3.51986 0.743935 3.54555 1.26301 3.54555C1.97036 3.54555 2.15217 3.44242 2.15217 3.04131C2.15217 2.67343 1.94796 2.5632 1.26907 2.56449C0.943768 2.56517 0.63808 2.59063 0.589855 2.62115ZM3.58696 2.71446C3.39581 2.89564 3.38234 3.14859 3.55165 3.37759C3.66308 3.52848 3.74375 3.54555 4.3442 3.54555C4.94466 3.54555 5.02533 3.52848 5.13676 3.37759C5.30607 3.14859 5.29259 2.89564 5.10145 2.71446C4.97041 2.59025 4.83578 2.56335 4.3442 2.56335C3.85263 2.56335 3.718 2.59025 3.58696 2.71446ZM22.7971 2.71446C22.8848 2.79757 22.9565 2.95057 22.9565 3.05445C22.9565 3.15834 22.8848 3.31133 22.7971 3.39444C22.6413 3.54215 22.5314 3.54555 17.8949 3.54555H13.1522V3.05445V2.56335H17.8949C22.5314 2.56335 22.6413 2.56675 22.7971 2.71446ZM2.46583 3.76095C2.3214 3.87187 2.27628 3.99713 2.24815 4.36561C2.22742 4.63738 2.25293 4.92229 2.30952 5.05186C2.47875 5.43915 3.06382 5.49408 3.26293 5.14139C3.30964 5.05866 3.34783 4.76619 3.34783 4.49148C3.34783 4.06188 3.32041 3.96608 3.15214 3.80659C2.91859 3.58514 2.71278 3.57147 2.46583 3.76095ZM30.4448 5.49816C30.2207 5.67012 30.2028 6.0491 30.4085 6.2645C30.6001 6.46517 31.0351 6.4657 31.2464 6.26548C31.7454 5.79244 30.9961 5.07506 30.4448 5.49816ZM10.442 6.90769V7.701H9.88406H9.32609V6.90769V6.11437H9.88406H10.442V6.90769ZM22.8768 6.3677C22.4646 6.56717 22.0438 7.04844 21.924 7.45734C21.5839 8.61792 22.4837 9.74095 23.7536 9.74095C25.0563 9.74095 25.9724 8.54138 25.5455 7.39455C25.2578 6.62141 24.6062 6.18834 23.7363 6.19204C23.3745 6.19363 23.136 6.24236 22.8768 6.3677ZM24.3315 7.47532C24.6317 7.78758 24.6274 8.14609 24.3197 8.47248C24.1286 8.67526 24.031 8.71757 23.7536 8.71757C22.9305 8.71757 22.653 7.64025 23.3856 7.2887C23.7195 7.12845 24.0633 7.1963 24.3315 7.47532ZM13.4081 8.9777C13.6221 9.15888 13.6667 9.25136 13.6667 9.51429C13.6667 9.77721 13.6221 9.86969 13.4081 10.0509L13.1496 10.2698H9.87481H6.6L6.32899 10.0129C5.94733 9.65119 5.97691 9.2222 6.40607 8.89263C6.56094 8.77371 6.8691 8.76192 9.86285 8.76041L13.1496 8.75875L13.4081 8.9777ZM28.6735 9.60873C28.6007 9.66071 28.2856 10.1452 27.9733 10.6854C27.6609 11.2256 27.3639 11.708 27.3132 11.7574C27.2625 11.8068 26.7547 12.0898 26.1848 12.3863C25.6149 12.6829 25.1038 12.9804 25.0489 13.0476C24.9058 13.223 24.9262 13.5511 25.0888 13.6895C25.1655 13.7549 25.7021 14.052 26.2811 14.3497L27.3339 14.8911L27.9329 15.9316C28.2623 16.5039 28.5868 17.0153 28.6539 17.0681C28.8317 17.2081 29.1675 17.1855 29.3343 17.0224C29.414 16.9445 29.7358 16.4369 30.0493 15.8943L30.6193 14.9079L31.5506 14.4294C32.8376 13.7681 33 13.6455 33 13.3352C33 13.1969 32.951 13.0452 32.891 12.9981C32.8311 12.9509 32.302 12.6625 31.7153 12.3571L30.6486 11.802L30.0328 10.7529C29.6941 10.1759 29.3554 9.66124 29.2802 9.60911C29.1055 9.48799 28.8429 9.48784 28.6735 9.60873ZM29.524 12.0249C29.7454 12.4084 29.9001 12.5776 30.1534 12.7132C30.338 12.8122 30.6814 12.9953 30.9164 13.1203L31.3435 13.3475L30.5845 13.7449L29.8254 14.1424L29.4115 14.8505C29.1839 15.2399 28.9866 15.5586 28.9731 15.5586C28.9596 15.5586 28.7667 15.2388 28.5444 14.848L28.1402 14.1374L27.3701 13.7439L26.5999 13.3504L27.3269 12.9767C28.1013 12.5787 28.1798 12.5004 28.6593 11.6494L28.9675 11.1024L29.0989 11.3094C29.1712 11.4233 29.3625 11.7452 29.524 12.0249ZM2.25468 11.744C2.15999 11.8069 1.93313 12.1148 1.75059 12.4283C1.47057 12.9091 1.35643 13.0302 1.02141 13.2018C0.209558 13.6177 0 13.7979 0 14.0806C0 14.3716 0.107449 14.4633 0.929341 14.8738C1.3593 15.0886 1.4524 15.1768 1.67894 15.5843C2.10762 16.3555 2.21036 16.4652 2.50394 16.4652C2.81847 16.4652 2.92991 16.3576 3.32575 15.6718C3.6037 15.1903 3.67575 15.1235 4.26322 14.8036C5.3574 14.2076 5.36688 13.892 4.30674 13.3542C3.67679 13.0347 3.65463 13.0137 3.29928 12.4C3.05672 11.9809 2.87028 11.7487 2.7382 11.7011C2.47914 11.6077 2.45707 11.6097 2.25468 11.744ZM9.43409 12.9159C8.68801 13.0588 7.81598 13.6685 7.49706 14.2703C7.41878 14.4179 6.86097 15.7886 6.25741 17.3163C5.24333 19.8832 5.14417 20.0975 4.95135 20.1413C4.39681 20.267 3.8508 20.6775 3.56001 21.1873C3.39342 21.4794 3.38768 21.5716 3.38768 23.945C3.38768 26.3331 3.39254 26.4091 3.56368 26.7124C3.90516 27.3176 4.66942 27.7983 5.29004 27.7983C5.49872 27.7983 5.5 27.8017 5.50048 28.3838C5.5012 29.3791 5.75882 29.9172 6.37825 30.2167C6.65062 30.3484 6.84862 30.3671 7.97101 30.3671C9.09341 30.3671 9.29141 30.3484 9.56378 30.2167C10.1832 29.9172 10.4408 29.3791 10.4416 28.3838L10.442 27.7983H15.8623H21.2826L21.2831 28.3838C21.2838 29.3791 21.5414 29.9172 22.1609 30.2167C22.4332 30.3484 22.6312 30.3671 23.7536 30.3671C24.876 30.3671 25.074 30.3484 25.3464 30.2167C25.9658 29.9172 26.2234 29.3791 26.2242 28.3838C26.2246 27.8017 26.2259 27.7983 26.4346 27.7983C27.0552 27.7983 27.8195 27.3176 28.161 26.7124C28.3321 26.4091 28.337 26.3331 28.337 23.945C28.337 21.5716 28.3312 21.4794 28.1646 21.1873C27.8557 20.6458 27.2885 20.2365 26.7001 20.1306L26.4239 20.0808L25.3953 17.4609C24.8295 16.0198 24.2753 14.6597 24.1637 14.4383C23.8973 13.9096 23.1804 13.2823 22.5807 13.0528L22.1196 12.8764L15.942 12.8645C12.5444 12.8579 9.61583 12.881 9.43409 12.9159ZM2.71317 13.5256C2.77288 13.6623 2.92584 13.8092 3.08159 13.8795C3.41064 14.0283 3.41414 14.0867 3.10312 14.2391C2.96849 14.3051 2.7838 14.4788 2.69269 14.6252L2.52705 14.8913L2.36954 14.6299C2.28282 14.4862 2.08785 14.3014 1.93624 14.2192L1.66052 14.0699L1.94126 13.9129C2.09566 13.8266 2.27891 13.6515 2.34858 13.5239C2.50808 13.2316 2.58484 13.232 2.71317 13.5256ZM22.3205 14.1042C22.5563 14.2184 22.852 14.4348 22.9776 14.585C23.1242 14.7602 23.5744 15.7877 24.234 17.4526C24.7993 18.8797 25.2511 20.0576 25.2377 20.0702C25.2244 20.0828 23.3588 20.0844 21.0919 20.0736L16.9702 20.054L18.8674 19.0791C21.1402 17.911 21.2826 17.8191 21.2826 17.5191C21.2826 17.2556 21.0357 16.9941 20.7868 16.9941C20.6895 16.9941 19.26 17.6911 17.6102 18.5429L14.6106 20.0918H10.4937C7.85408 20.0918 6.37681 20.0652 6.37681 20.0177C6.37681 19.9019 8.27551 15.1259 8.45151 14.799C8.6295 14.4683 9.0412 14.1291 9.42485 13.9973C9.61583 13.9316 11.3038 13.9064 15.7883 13.9021L21.8917 13.8964L22.3205 14.1042ZM26.9899 21.4064L27.2609 21.6633V23.9317V26.2001L27.0565 26.4303C26.944 26.5569 26.7199 26.6953 26.5583 26.7379C26.1524 26.8447 5.57222 26.8447 5.16633 26.7379C5.00476 26.6953 4.78062 26.5569 4.66815 26.4303L4.46377 26.2001V23.9317V21.6633L4.73478 21.4064L5.0058 21.1495H15.8623H26.7188L26.9899 21.4064ZM6.73551 21.8961C6.09408 22.0563 5.5169 22.496 5.21049 23.0577C5.01209 23.4214 4.97423 24.2239 5.13405 24.6799C5.4285 25.5201 6.30252 26.1028 7.25362 26.0929C8.16766 26.0834 8.83236 25.6887 9.24175 24.9121C9.64397 24.1492 9.56522 23.3787 9.01458 22.688C8.51902 22.0666 7.48749 21.7082 6.73551 21.8961ZM23.6244 21.9636C22.7259 22.2681 22.0797 23.1127 22.0797 23.9828C22.0797 24.718 22.673 25.5777 23.4166 25.9198C24.2214 26.2902 25.3124 26.0862 25.9615 25.4439C26.5769 24.835 26.7602 23.8315 26.39 23.0985C26.1844 22.6914 25.6256 22.1709 25.223 22.0115C24.7589 21.8276 24.0851 21.8075 23.6244 21.9636ZM7.91235 23.0829C8.21995 23.2999 8.38288 23.6115 8.38288 23.9828C8.38288 24.4017 8.1895 24.7168 7.80793 24.9201C7.07587 25.3101 6.25581 24.9142 6.10101 24.0961C6.03254 23.7341 6.32141 23.2115 6.69565 23.0204C7.04008 22.8445 7.61646 22.8741 7.91235 23.0829ZM24.9574 23.0588C25.7084 23.5343 25.6574 24.5624 24.8639 24.946C23.8584 25.432 22.7706 24.3424 23.3547 23.4344C23.6991 22.8989 24.4332 22.7269 24.9574 23.0588ZM9.32609 28.426C9.32609 29.3584 9.34267 29.3471 7.97101 29.3471C6.59936 29.3471 6.61594 29.3584 6.61594 28.426V27.7983H7.97101H9.32609V28.426ZM25.1087 28.426C25.1087 29.3584 25.1253 29.3471 23.7536 29.3471C22.382 29.3471 22.3986 29.3584 22.3986 28.426V27.7983H23.7536H25.1087V28.426Z" fill="white"/>
</svg>
