<svg width="33" height="31" viewBox="0 0 33 31" fill="none" xmlns="http://www.w3.org/2000/svg">
<path fill-rule="evenodd" clip-rule="evenodd" d="M3.40609 0.118884C3.22153 0.293788 3.16625 0.564732 3.21098 1.0755C3.26967 1.74612 3.6702 1.99201 4.13699 1.64394C4.3385 1.49377 4.35604 1.43382 4.35604 0.895475C4.35604 0.415355 4.32619 0.282049 4.18977 0.152762C3.99101 -0.0356149 3.58757 -0.0531053 3.40609 0.118884ZM29.8522 1.10694C29.4542 1.32635 29.52 1.94939 29.9593 2.12185C30.1478 2.19583 30.241 2.19008 30.4409 2.09215C30.8502 1.89156 30.9123 1.52017 30.588 1.21282C30.3725 1.00853 30.1014 0.969533 29.8522 1.10694ZM15.662 1.49677C15.2069 1.69413 14.8661 1.98981 14.6634 2.3631C14.5798 2.51712 14.3 3.42119 14.0417 4.37213C13.5932 6.0234 13.5765 6.12015 13.6693 6.52464C13.7442 6.85065 13.8471 7.02453 14.1162 7.27964C14.5468 7.68767 14.9456 7.79498 16.0314 7.79498H16.8259V8.5733V9.3517L15.8075 9.38723C15.1488 9.41024 14.6842 9.46578 14.4921 9.54449C14.0695 9.71758 13.6023 10.1296 13.4023 10.5056C13.308 10.683 13.2184 10.8413 13.2035 10.8572C13.1884 10.8731 12.8096 10.5945 12.3616 10.2379C11.3982 9.47114 10.965 9.25811 10.516 9.32996C10.0932 9.39763 9.7095 9.63076 9.50973 9.94118C9.11577 10.5533 9.22176 11.1565 9.8184 11.6983C10.1888 12.0346 10.1955 12.0491 10.0616 12.2241C9.59669 12.8316 9.49792 13.0109 9.41055 13.4056C9.29126 13.9444 9.41587 14.5744 9.72787 15.0101C9.84201 15.1695 9.91766 15.3397 9.89588 15.3883C9.8741 15.4369 7.70103 17.8825 5.06682 20.8231C2.43261 23.7637 0.215312 26.2809 0.139579 26.4168C-0.0681682 26.7899 -0.0412333 27.3856 0.201845 27.7946C0.596307 28.4582 1.5219 28.7246 2.25463 28.3853C2.49006 28.2763 3.70204 26.9742 7.09715 23.1824C9.58779 20.4007 11.6336 18.1324 11.6433 18.1415C11.6575 18.1551 11.2121 20.2602 10.5038 23.5267L10.4154 23.9345L9.22858 23.96C8.06905 23.9849 8.03463 23.9906 7.72979 24.2112C7.34979 24.4862 7.12691 24.819 7.05592 25.2174C7.01244 25.4611 7.09932 25.7865 7.5203 26.9573C8.37173 29.325 8.59711 29.6825 9.53376 30.1504L9.96745 30.3671H19.4029H28.8384L29.2574 30.1574C29.6629 29.9546 30.2628 29.4155 30.448 29.0875C30.4977 28.9995 30.8053 28.2094 31.1316 27.3315C31.6612 25.9067 31.721 25.687 31.6901 25.2819C31.6489 24.7416 31.3741 24.3449 30.8737 24.1029C30.5991 23.9702 30.3835 23.946 29.4708 23.946C28.5158 23.946 28.3875 23.9303 28.3487 23.8082C28.3248 23.7323 27.6872 20.772 26.9321 17.2296C26.1769 13.6872 25.5033 10.6868 25.4352 10.5619C25.2145 10.1574 24.8771 9.84009 24.4424 9.62824C24.0682 9.44585 23.8937 9.41662 22.9984 9.38621L21.98 9.3517V8.58165V7.8116L22.9568 7.78355C23.8467 7.7581 23.9686 7.73612 24.3263 7.5368C24.8508 7.24458 25.1391 6.77951 25.1391 6.22509C25.1391 5.82037 24.4196 3.00819 24.1701 2.43755C24.015 2.08278 23.6876 1.75826 23.2686 1.54396C22.9451 1.37859 22.842 1.37339 19.4861 1.35424C16.1561 1.33518 16.023 1.34014 15.662 1.49677ZM1.47967 1.94632C1.35597 2.02463 1.19702 2.32008 1.19702 2.47174C1.19702 2.53957 1.27184 2.66603 1.36328 2.75269C1.50128 2.88347 1.64036 2.91026 2.18172 2.91026C2.91943 2.91026 3.10906 2.80272 3.10906 2.38445C3.10906 2.00084 2.89607 1.88589 2.18804 1.88723C1.84877 1.88794 1.52996 1.91449 1.47967 1.94632ZM4.60544 2.04362C4.40608 2.23255 4.39204 2.49632 4.56861 2.73512C4.68483 2.89246 4.76896 2.91026 5.39519 2.91026C6.02142 2.91026 6.10555 2.89246 6.22177 2.73512C6.39834 2.49632 6.3843 2.23255 6.18495 2.04362C6.04828 1.9141 5.90787 1.88605 5.39519 1.88605C4.88251 1.88605 4.7421 1.9141 4.60544 2.04362ZM22.864 2.57716C23.1308 2.782 23.1749 2.89805 23.6439 4.6322L24.0777 6.23596L23.9136 6.44427L23.7495 6.65258L19.4155 6.67299C15.1712 6.69292 15.0781 6.69008 14.9146 6.53511C14.8227 6.44806 14.7476 6.31057 14.7476 6.22958C14.7476 6.14859 14.9512 5.34206 15.2002 4.43721C15.5811 3.05318 15.6874 2.76396 15.8699 2.61482L16.087 2.43755L19.3868 2.43928C22.3878 2.44086 22.7027 2.45338 22.864 2.57716ZM3.43618 3.13488C3.28555 3.25054 3.23849 3.38116 3.20915 3.7654C3.18753 4.04879 3.21414 4.34589 3.27316 4.48101C3.44965 4.88487 4.05984 4.94215 4.2675 4.57437C4.31622 4.4881 4.35604 4.18312 4.35604 3.89666C4.35604 3.44868 4.32744 3.34878 4.15195 3.18247C3.90837 2.95155 3.69373 2.93728 3.43618 3.13488ZM30.7505 4.10836C28.9527 4.7039 29.3943 7.24348 31.2957 7.24348C31.8247 7.24348 32.1987 7.08094 32.573 6.68835C33.7196 5.48545 32.3683 3.57238 30.7505 4.10836ZM31.7065 5.27383C31.9335 5.48892 31.9152 5.79224 31.6608 6.03341C31.4148 6.26653 31.0964 6.24187 30.8544 5.97085C30.4007 5.46268 31.2085 4.80191 31.7065 5.27383ZM20.8162 8.58283V9.37069H19.4029H17.9897V8.58283V7.79498H19.4029H20.8162V8.58283ZM4.80952 9.80047C4.6973 9.90683 4.60544 10.0857 4.60544 10.1979C4.60544 10.42 4.93796 10.7888 5.13806 10.7888C5.76903 10.7888 6.01935 10.0735 5.50734 9.73365C5.24106 9.55686 5.04687 9.57545 4.80952 9.80047ZM14.1258 13.0289C16.7332 15.0853 17.4103 15.6572 17.3908 15.7864C17.3281 16.2023 17.0598 16.0272 13.7225 13.392C11.5863 11.7051 10.4247 10.7372 10.4247 10.6439C10.4247 10.456 10.508 10.3828 10.6894 10.4113C10.7701 10.424 12.3165 11.6018 14.1258 13.0289ZM16.1564 10.6904C16.1487 11.0695 15.9377 12.9175 15.8978 12.9552C15.8767 12.9752 15.4971 12.7059 15.0541 12.3568C14.1837 11.6708 14.1384 11.5855 14.3685 11.0638C14.5484 10.6554 14.9265 10.4743 15.5997 10.474C16.1576 10.4737 16.1608 10.4749 16.1564 10.6904ZM21.4813 10.5773C21.4813 10.6343 21.7804 13.5858 22.1461 17.1362C22.5118 20.6866 22.811 23.6712 22.8111 23.7688L22.8114 23.946H19.4029H15.9945V23.69C15.9945 23.436 16.5276 18.0975 16.623 17.3955L16.6728 17.0296L16.989 17.0698C17.6532 17.1542 18.2879 16.7331 18.4979 16.0688C18.6908 15.4585 18.3714 14.9417 17.2939 14.1206L16.9722 13.8754L17.1082 12.5488C17.1831 11.8191 17.2659 11.0538 17.2922 10.8479L17.3403 10.4737H19.4108C21.0665 10.4737 21.4813 10.4944 21.4813 10.5773ZM23.9455 10.6025C24.1031 10.6733 24.2889 10.8356 24.3585 10.9632C24.428 11.0907 25.0806 13.9843 25.8085 17.3933C26.5365 20.8023 27.152 23.6712 27.1763 23.7688L27.2205 23.946H25.5979C24.7054 23.946 23.975 23.9195 23.9747 23.887C23.9745 23.8544 23.6753 20.9207 23.3099 17.3674C22.9445 13.8142 22.6454 10.8095 22.6453 10.6904C22.6451 10.4776 22.6544 10.4737 23.1521 10.4737C23.4492 10.4737 23.7777 10.527 23.9455 10.6025ZM13.0147 14.2276C14.0364 15.0356 14.862 15.7358 14.8495 15.7836C14.8369 15.8314 14.6766 16.0006 14.4931 16.1595C14.0879 16.5106 13.6554 16.6036 13.2233 16.4325C12.8166 16.2715 10.8336 14.6931 10.6533 14.3867C10.4862 14.103 10.4669 13.5821 10.6146 13.3448C10.7792 13.0805 11.0441 12.7636 11.1026 12.7609C11.1326 12.7596 11.993 13.4196 13.0147 14.2276ZM11.1932 16.3347L11.5044 16.5955L6.68515 21.9844C3.83987 25.166 1.78111 27.4033 1.65873 27.4467C1.39063 27.5417 1.09443 27.3118 1.13076 27.0368C1.14556 26.9245 3.08362 24.6943 5.97711 21.4597C8.62903 18.495 10.8175 16.0705 10.8403 16.0717C10.8632 16.073 11.022 16.1913 11.1932 16.3347ZM15.1652 20.4521C14.9782 22.2654 14.8089 23.7934 14.789 23.8476C14.7617 23.9217 14.3617 23.946 13.1706 23.946C12.3005 23.946 11.5885 23.9302 11.5885 23.9108C11.5885 23.8599 12.9152 17.6964 12.9447 17.6104C12.9583 17.5707 13.2354 17.5464 13.5604 17.5564C14.2516 17.5776 14.8312 17.3831 15.2158 17.0009L15.4542 16.7641L15.4797 16.9596C15.4937 17.067 15.3522 18.6386 15.1652 20.4521ZM30.3223 25.0446C30.4357 25.0854 30.5511 25.1866 30.5789 25.2695C30.6279 25.416 29.7024 28.0775 29.4268 28.5827C29.2721 28.8662 28.8673 29.1674 28.4727 29.2926C28.0846 29.4157 10.7776 29.4195 10.3102 29.2965C10.133 29.2499 9.84276 29.0817 9.66519 28.9228C9.37855 28.6661 9.27746 28.4586 8.76129 27.0675C8.44165 26.206 8.18012 25.4526 8.18012 25.3933C8.18012 25.3339 8.25493 25.2145 8.34638 25.1278C8.5109 24.9719 8.62346 24.9703 19.3144 24.9703C25.8768 24.9703 30.1971 24.9994 30.3223 25.0446Z" fill="white"/>
</svg>
