<svg width="33" height="31" viewBox="0 0 33 31" fill="none" xmlns="http://www.w3.org/2000/svg">
<path fill-rule="evenodd" clip-rule="evenodd" d="M11.7398 0.0353534C11.2568 0.189695 11.2745 0.82727 11.7663 0.989258C12.2568 1.1507 12.6648 0.692202 12.4073 0.268895C12.2614 0.0289554 12.022 -0.0547701 11.7398 0.0353534ZM5.3441 1.17216C5.24918 1.2473 5.04716 1.62473 4.89515 2.01097L4.61872 2.71323L3.843 2.98633C3.05637 3.26326 2.83135 3.42845 2.83135 3.72894C2.83135 3.87766 3.13904 4.2348 3.26713 4.2348C3.29463 4.2348 3.61424 4.341 3.97726 4.47084L4.63739 4.7068L4.86915 5.33017C5.14467 6.07129 5.34927 6.34158 5.6347 6.34158C6.00681 6.34158 6.13574 6.20308 6.4125 5.50628C6.56243 5.12885 6.72744 4.78194 6.77919 4.73535C6.83095 4.68885 7.20339 4.53388 7.60683 4.39101C8.34921 4.12821 8.49839 4.00703 8.49839 3.66682C8.49839 3.39755 8.30021 3.2631 7.46382 2.96495L6.72461 2.70145L6.45976 2.01323C6.10832 1.10022 5.76354 0.840223 5.3441 1.17216ZM21.4421 1.22069C20.85 1.48545 20.558 1.90391 20.5168 2.5468C20.4918 2.93842 20.5226 3.0891 20.6866 3.37648C21.2526 4.36807 22.6752 4.52335 23.4481 3.6779C24.6426 2.37139 23.0985 0.479963 21.4421 1.22069ZM22.5826 2.28407C22.9208 2.60064 22.67 3.14372 22.1868 3.14122C21.911 3.13974 21.8049 3.08005 21.6784 2.85493C21.5481 2.62311 21.5557 2.57114 21.7553 2.33362C21.9666 2.08206 22.3428 2.0595 22.5826 2.28407ZM5.93931 3.48338L6.23716 3.74634L6.0319 3.83388C5.91905 3.88203 5.7973 3.99579 5.76138 4.0867C5.69746 4.24853 5.69304 4.24759 5.55061 4.04409C5.47061 3.92978 5.32293 3.80665 5.22251 3.77045C5.04466 3.70639 5.04608 3.70241 5.2771 3.61767C5.40752 3.56983 5.53378 3.46083 5.55761 3.37554C5.58145 3.29026 5.61012 3.22042 5.62128 3.22042C5.63245 3.22042 5.77555 3.33871 5.93931 3.48338ZM29.1725 5.61084C29.0775 5.7239 28.9997 5.84914 28.9997 5.88909C28.9997 6.0137 29.1778 6.29359 29.3975 6.51418L29.6082 6.7258L29.304 7.04111C29.1367 7.21449 28.9997 7.38974 28.9997 7.43055C28.9997 7.60901 29.2008 7.89178 29.3829 7.9695C29.6324 8.07593 29.8041 8.01967 30.1452 7.71989L30.4157 7.48213L30.6453 7.68259C31.0966 8.07671 31.3455 8.11417 31.6874 7.83919C31.922 7.6506 31.8677 7.31406 31.5493 6.98415L31.2655 6.6899L31.5493 6.39987C31.8738 6.06832 31.9125 5.79155 31.6666 5.56129C31.4095 5.32057 31.077 5.36224 30.7524 5.67584L30.4724 5.94636L30.1525 5.67584C29.7529 5.33774 29.4203 5.31573 29.1725 5.61084ZM6.94262 7.57772C6.70577 7.65473 6.37367 7.81656 6.20466 7.93727C5.63045 8.34732 5.47319 8.69501 4.91466 10.7899L4.3947 12.74H3.08454C1.25458 12.74 0.742548 12.9076 0.269017 13.6619C0.056003 14.0012 0.0375017 14.1002 0.011 15.0418C-0.0154184 15.9856 -0.00483455 16.0711 0.162926 16.2708C0.341522 16.4832 0.352939 16.4854 1.32884 16.4854H2.31432L1.76028 17.5015L1.20625 18.5178V22.638V26.7583L1.43543 27.0396C1.65269 27.3063 1.66461 27.3648 1.66511 28.165C1.66561 29.132 1.74928 29.491 2.0528 29.8287C2.49283 30.3183 2.5855 30.3355 4.78981 30.3355C7.03721 30.3355 7.21231 30.3006 7.64883 29.7651C7.8551 29.5121 7.87677 29.4163 7.91502 28.5862L7.95669 27.6825L9.35445 27.6611C10.6297 27.6416 10.7568 27.6519 10.8047 27.7782C10.8336 27.8543 10.9135 27.978 10.9825 28.0532C11.0993 28.1806 11.4663 28.1897 16.4702 28.1897C21.7215 28.1897 21.836 28.1865 21.9993 28.0337C22.091 27.9478 22.166 27.8249 22.166 27.7606C22.166 27.6611 22.379 27.6435 23.5827 27.6435H24.9995L25 28.3263C25.0005 29.1346 25.0958 29.504 25.3877 29.8287C25.8112 30.3 25.9562 30.3314 27.8522 30.361C30.2137 30.3981 30.7096 30.2799 31.0851 29.5908C31.2222 29.3392 31.2499 29.1307 31.2499 28.3512C31.2499 27.4196 31.2516 27.4118 31.5207 27.0543L31.7916 26.6946L31.8153 22.7799C31.8423 18.3268 31.8789 18.6074 31.0955 17.2656C30.8824 16.9009 30.6957 16.5761 30.6804 16.5439C30.6651 16.5117 31.103 16.4854 31.6536 16.4854C32.6356 16.4854 32.6578 16.4815 32.8272 16.2797C32.9814 16.0963 33 15.9676 33 15.0843C33 14.1592 32.985 14.0668 32.7708 13.6708C32.5269 13.2201 32.1802 12.9503 31.6764 12.8192C31.5106 12.7761 30.7482 12.7407 29.9822 12.7404L28.5895 12.74L28.508 12.4474C28.463 12.2865 28.2203 11.3896 27.9684 10.4545C27.4181 8.41138 27.2815 8.17885 26.3781 7.7461L25.8081 7.473L16.5907 7.45537C7.91202 7.43875 7.34815 7.44585 6.94262 7.57772ZM25.7769 8.63283C26.3854 8.87089 26.4041 8.91896 27.4929 13.0522C28.1845 15.6774 28.4843 16.9474 28.4468 17.0927C28.3605 17.4267 28.0985 17.7226 27.7218 17.9112L27.3746 18.0849L16.7987 18.1062C9.89815 18.1201 6.06356 18.0999 5.76488 18.0482C5.05575 17.9255 4.49813 17.4353 4.49813 16.9347C4.49813 16.5844 6.49701 9.22062 6.64344 9.03148C6.72402 8.92739 6.93995 8.77117 7.1233 8.68433C7.45182 8.52881 7.58833 8.52655 16.4807 8.52647C23.914 8.52639 25.5528 8.54512 25.7769 8.63283ZM7.78709 9.06807C7.69384 9.10389 7.5755 9.18098 7.52408 9.23942C7.37515 9.40875 5.6557 15.399 5.71004 15.5594C5.84655 15.962 5.19692 15.9392 16.4919 15.9392C26.8091 15.9392 26.9761 15.9367 27.1221 15.7857C27.2037 15.7012 27.2705 15.5513 27.2705 15.4526C27.2705 15.1286 25.5551 9.36989 25.4079 9.19971L25.2642 9.03358L16.6105 9.01829C11.8509 9.00986 7.88035 9.03226 7.78709 9.06807ZM24.703 10.4966C25.249 12.2892 25.9665 14.8517 25.9314 14.8845C25.9078 14.9067 25.5586 14.9248 25.1555 14.9248H24.4225L24.3283 14.5932C23.9961 13.4228 22.8047 12.4402 21.5167 12.2742C19.8503 12.0594 18.1807 13.0883 17.7534 14.5932L17.6592 14.9248H12.3287C9.39703 14.9248 6.99829 14.9093 6.99829 14.8904C6.99829 14.8433 8.32113 10.3062 8.37038 10.1845C8.40155 10.1074 10.1032 10.087 16.494 10.087H24.5781L24.703 10.4966ZM21.7169 13.4014C22.2133 13.5394 22.7768 13.9702 23.0022 14.3839C23.3118 14.9519 23.4095 14.9248 21.0548 14.9248C19.8936 14.9248 18.9202 14.9029 18.8917 14.8762C18.7893 14.7804 19.2495 14.0782 19.5974 13.7994C20.1901 13.3245 20.9362 13.1843 21.7169 13.4014ZM4.07935 13.9299C4.07827 13.9836 3.99151 14.3435 3.88659 14.7297C3.73891 15.2734 3.66416 15.4305 3.55532 15.4255C3.47798 15.4219 2.90844 15.4131 2.28965 15.406L1.16458 15.3929V14.8407C1.16458 14.3345 1.18483 14.2696 1.40817 14.0604L1.65177 13.8324H2.8666C3.784 13.8324 4.08093 13.8562 4.07935 13.9299ZM31.6508 13.9915C31.809 14.1294 31.8333 14.2332 31.8333 14.7718V15.3929L30.6665 15.4047C30.0248 15.4111 29.4553 15.4199 29.4008 15.4242C29.3154 15.4309 28.9246 14.2202 28.9185 13.9299C28.9169 13.856 29.2261 13.8324 30.1924 13.8324C31.3614 13.8324 31.4838 13.8457 31.6508 13.9915ZM3.8215 18.124C4.17569 18.5375 4.70706 18.8868 5.18367 19.0193C5.50753 19.1094 6.03423 19.1383 7.34682 19.1383H9.08176V21.6353C9.08176 24.0282 9.08868 24.1387 9.24844 24.2883C9.41253 24.4419 9.52537 24.4443 16.4781 24.4431C20.3628 24.4424 23.5823 24.4161 23.6327 24.3846C23.8892 24.2243 23.9161 23.9566 23.9161 21.5624V19.1383H25.651C27.6029 19.1383 28.0023 19.0716 28.598 18.6462C29.0637 18.3137 29.4004 17.8559 29.5305 17.3786L29.6354 16.9933L29.938 17.5001C30.4337 18.3309 30.6698 18.8688 30.7229 19.2884L30.7731 19.6845H28.0908H25.4086L25.2041 19.8761C25.0043 20.0631 24.9995 20.0965 24.9995 21.2841C24.9995 22.4717 25.0043 22.5052 25.2041 22.6922L25.4086 22.8837H28.0793H30.7499V24.5275C30.7499 26.1336 30.7105 26.4169 30.4665 26.5694C30.4161 26.601 28.5278 26.6273 26.2704 26.628L22.166 26.6291V25.9716C22.166 24.8973 22.7015 24.9905 16.5332 24.9905C12.7417 24.9905 11.2819 25.0152 11.1255 25.0819C10.8772 25.1879 10.8402 25.301 10.8114 26.0439L10.7902 26.5901L6.68652 26.6103C2.67276 26.6301 2.57925 26.6272 2.41541 26.4738C2.2579 26.3263 2.24798 26.2157 2.24798 24.6004V22.8837H4.89624C7.1583 22.8837 7.57158 22.866 7.72976 22.7622C7.9091 22.6447 7.91502 22.5976 7.91502 21.2841C7.91502 19.9707 7.9091 19.9236 7.72976 19.806C7.57158 19.7023 7.1583 19.6845 4.89624 19.6845H2.24798L2.24998 19.3529C2.25231 18.9591 2.49675 18.3775 2.99386 17.5828L3.3568 17.0026L3.47223 17.4268C3.53565 17.66 3.69282 17.9738 3.8215 18.124ZM10.7902 21.2841V23.3909L10.5194 23.4153L10.2485 23.4398V21.2841V19.1284L10.5194 19.1529L10.7902 19.1774V21.2841ZM12.4987 21.2841V23.4299H12.207H11.9153V21.2841V19.1383H12.207H12.4987V21.2841ZM14.2071 21.2841V23.3909L13.9362 23.4153L13.6654 23.4398V21.2841V19.1284L13.9362 19.1529L14.2071 19.1774V21.2841ZM15.9155 21.2841V23.4299H15.6239H15.3322V21.2841V19.1383H15.6239H15.9155V21.2841ZM17.624 21.2841V23.3909L17.3531 23.4153L17.0823 23.4398V21.2841V19.1284L17.3531 19.1529L17.624 19.1774V21.2841ZM19.3324 21.2841V23.4299H19.0407H18.7491V21.2841V19.1383H19.0407H19.3324V21.2841ZM20.9992 21.2841V23.4299H20.7492H20.4992V21.2841V19.1383H20.7492H20.9992V21.2841ZM22.7493 21.2841V23.4299H22.4576H22.166V21.2841V19.1383H22.4576H22.7493V21.2841ZM6.83161 21.2841V21.7913H4.5398H2.24798V21.2841V20.777H4.5398H6.83161V21.2841ZM30.7499 21.2841V21.7913H28.458H26.1662V21.2841V20.777H28.458H30.7499V21.2841ZM20.9992 26.6298V27.1767L16.4781 27.1565L11.957 27.1363L11.9323 26.6096L11.9077 26.0829H16.4534H20.9992V26.6298ZM6.81386 28.3568C6.84837 29.3269 6.94429 29.2821 4.83148 29.2821C3.36239 29.2821 3.07303 29.2632 2.96228 29.1595C2.86277 29.0663 2.83135 28.8693 2.83135 28.3387V27.6407L4.81065 27.6616L6.78995 27.6825L6.81386 28.3568ZM30.1491 28.3359C30.1858 29.3187 30.2616 29.2821 28.1896 29.2821C27.1765 29.2821 26.4234 29.2494 26.3274 29.2014C26.1855 29.1302 26.1662 29.0323 26.1662 28.3806V27.6407L28.1455 27.6616L30.1248 27.6825L30.1491 28.3359Z" fill="white"/>
</svg>
