<svg width="326" height="204" viewBox="0 0 326 204" fill="none" xmlns="http://www.w3.org/2000/svg">
<path d="M6.69425 79.5311L8.38505 79.2091C8.99715 80.3352 9.79485 81.0656 10.7781 81.4002C12.0572 81.8525 13.9918 81.832 16.582 81.3387C18.2368 81.0236 23.4571 79.8554 32.2429 77.8343C37.55 76.5999 40.8631 75.8571 42.1822 75.6059C46.1634 74.8477 49.6751 74.8872 52.7175 75.7245C55.7839 76.5571 58.4619 78.2217 60.7516 80.7183C63.0413 83.2149 64.9467 86.8906 66.4677 91.7455C67.5377 95.1453 69.3448 102.742 71.8889 114.534C67.774 118.375 64.6629 121.614 62.5558 124.252C54.5227 123.57 47.5922 123.784 41.7643 124.894C37.8071 125.648 34.2291 126.826 31.0302 128.43C27.8267 130.009 24.529 132.203 21.137 135.011L19.8334 133.842C24.2658 130.364 28.0872 126.94 31.2976 123.57C34.5079 120.2 36.502 117.359 37.2798 115.049C38.0771 112.71 38.1674 109.922 37.5508 106.684C37.327 105.509 36.9719 103.775 36.4854 101.482C36.1314 99.8838 35.79 98.2216 35.4612 96.4948C34.8811 93.4489 34.6219 91.1746 34.6837 89.6716C34.7694 88.1641 35.1977 86.3677 35.9686 84.2824L35.0333 84.4605C32.4271 86.6965 30.7648 88.6037 30.0464 90.182C29.3474 91.7317 29.2012 93.5738 29.6077 95.7083L32.3276 108.424C32.9762 111.83 32.5392 115.082 31.0168 118.18C29.4898 121.255 25.3372 126.072 18.5589 132.631L17.2485 131.427C20.637 127.948 22.7882 125.215 23.7019 123.227C24.6156 121.238 24.8897 119.285 24.5243 117.366C24.2092 115.712 23.4143 114.409 22.1399 113.459C20.8608 112.485 19.5857 112.119 18.3146 112.361C17.6671 112.484 17.1018 112.778 16.6187 113.243C16.1356 113.708 15.5337 114.593 14.813 115.898L13.4426 114.966C13.8652 112.748 14.6567 111.032 15.8171 109.817C17.0014 108.597 18.5409 107.807 20.4355 107.446C20.9872 107.341 21.5982 107.287 22.2685 107.283C22.9629 107.275 23.7166 107.318 24.5298 107.412C24.2169 106.03 23.9623 104.823 23.7659 103.792C23.0488 100.027 23.2219 96.825 24.2852 94.1869C25.368 91.5203 27.8234 88.4928 31.6517 85.1045C27.7721 86.2658 24.3934 87.1206 21.5154 87.6686C18.4696 88.2487 15.7732 88.3149 13.4263 87.8671C11.6676 87.5062 10.2652 86.6673 9.21912 85.3505C8.16848 84.0097 7.32686 82.0699 6.69425 79.5311ZM37.7314 83.9467C37.0335 85.8938 36.628 87.5492 36.5149 88.9128C36.3733 90.7789 36.4486 92.4794 36.7409 94.0143L39.728 108.133C40.0752 109.956 39.9735 111.902 39.4229 113.97C38.9969 115.517 38.0187 117.493 36.4883 119.897C39.8802 118.655 42.5017 117.869 44.353 117.542L46.4104 117.187L39.9978 83.5151L37.7314 83.9467ZM44.4633 96.9799C46.1227 97.7325 47.5285 98.198 48.6808 98.3762C49.8571 98.5498 51.0808 98.5156 52.3519 98.2735C53.623 98.0314 54.7736 97.6135 55.8038 97.0196C56.8293 96.4018 57.9897 95.4477 59.2848 94.1572C57.8015 88.8478 55.7162 85.4673 53.029 84.0157C50.3373 82.5401 46.6051 82.2567 41.8325 83.1657L44.4633 96.9799ZM46.7242 108.851C48.1769 107.606 49.4469 106.705 50.5341 106.15C51.6168 105.571 52.8416 105.151 54.2087 104.891C55.5277 104.64 56.7828 104.575 57.974 104.696C59.1606 104.793 60.6298 105.135 62.3816 105.72L59.9134 96.0879C58.5566 97.3155 57.3489 98.2165 56.2902 98.791C55.2509 99.3368 54.0718 99.7354 52.7527 99.9866C51.4816 100.229 50.1837 100.265 48.8589 100.094C47.5342 99.9242 46.1945 99.5455 44.8401 98.9585L46.7242 108.851ZM48.2657 116.946C51.2373 116.628 53.6687 116.476 55.5599 116.489C57.4705 116.473 60.4855 116.644 64.6048 117.003C63.9631 113.372 63.6309 111.497 63.608 111.377C63.5532 111.089 63.31 109.943 62.8784 107.937C61.1425 107.174 59.6481 106.701 58.3953 106.517C57.1665 106.328 55.8686 106.364 54.5015 106.625C53.1105 106.89 51.8543 107.34 50.7328 107.976C49.6352 108.608 48.4315 109.595 47.1215 110.938L48.2657 116.946Z" fill="black"/>
<path d="M6.69425 79.5311L5.94593 75.6017L1.79004 76.3932L2.81293 80.4983L6.69425 79.5311ZM8.38505 79.2091L11.8994 77.2988L10.505 74.7335L7.63673 75.2797L8.38505 79.2091ZM10.7781 81.4002L12.1116 77.629L12.0893 77.6211L12.0669 77.6135L10.7781 81.4002ZM32.2429 77.8343L33.1397 81.7325L33.1491 81.7303L32.2429 77.8343ZM52.7175 75.7245L51.6562 79.5811L51.6693 79.5847L52.7175 75.7245ZM66.4677 91.7455L62.6507 92.9413L62.6522 92.9462L66.4677 91.7455ZM71.8889 114.534L74.6181 117.459L76.2776 115.91L75.7989 113.691L71.8889 114.534ZM62.5558 124.252L62.2174 128.238L64.3472 128.419L65.6812 126.749L62.5558 124.252ZM31.0302 128.43L32.7989 132.017L32.8107 132.011L32.8225 132.006L31.0302 128.43ZM21.137 135.011L18.4673 137.99L21.0335 140.289L23.6879 138.092L21.137 135.011ZM19.8334 133.842L17.3639 130.696L13.6134 133.639L17.1637 136.821L19.8334 133.842ZM37.2798 115.049L33.4937 113.759L33.4913 113.766L33.4889 113.773L37.2798 115.049ZM36.4854 101.482L40.3984 100.652L40.3946 100.634L40.3907 100.616L36.4854 101.482ZM34.6837 89.6716L30.6901 89.4446L30.6883 89.476L30.687 89.5075L34.6837 89.6716ZM35.9686 84.2824L39.7204 85.6694L42.1756 79.0284L35.2203 80.353L35.9686 84.2824ZM35.0333 84.4605L34.285 80.5311L33.2378 80.7306L32.4287 81.4247L35.0333 84.4605ZM30.0464 90.182L26.4058 88.5249L26.4001 88.5374L30.0464 90.182ZM29.6077 95.7083L25.6783 96.4566L25.6867 96.5009L25.6961 96.545L29.6077 95.7083ZM32.3276 108.424L36.257 107.676L36.2485 107.632L36.2391 107.588L32.3276 108.424ZM31.0168 118.18L34.5992 119.96L34.603 119.952L34.6068 119.944L31.0168 118.18ZM18.5589 132.631L15.8523 135.576L18.6298 138.129L21.3406 135.506L18.5589 132.631ZM17.2485 131.427L14.3832 128.636L11.5098 131.586L14.5418 134.372L17.2485 131.427ZM22.1399 113.459L19.7162 116.641L19.7325 116.653L19.749 116.666L22.1399 113.459ZM14.813 115.898L12.5637 119.206L16.1933 121.674L18.3148 117.831L14.813 115.898ZM13.4426 114.966L9.51329 114.217L9.02172 116.797L11.1932 118.274L13.4426 114.966ZM15.8171 109.817L12.9474 107.03L12.9357 107.042L12.9242 107.054L15.8171 109.817ZM22.2685 107.283L22.2888 111.283L22.3016 111.283L22.3145 111.283L22.2685 107.283ZM24.5298 107.412L24.072 111.386L29.6769 112.031L28.431 106.528L24.5298 107.412ZM24.2852 94.1869L20.5791 92.6821L20.5753 92.6916L24.2852 94.1869ZM31.6517 85.1045L34.3028 88.0998L30.5046 81.2725L31.6517 85.1045ZM13.4263 87.8671L12.6222 91.7854L12.6494 91.791L12.6767 91.7962L13.4263 87.8671ZM9.21912 85.3505L6.07061 87.8176L6.07882 87.8281L6.0871 87.8385L9.21912 85.3505ZM37.7314 83.9467L36.9831 80.0173L34.7372 80.445L33.9659 82.5972L37.7314 83.9467ZM36.5149 88.9128L32.5286 88.5822L32.5275 88.5961L32.5264 88.61L36.5149 88.9128ZM36.7409 94.0143L32.8115 94.7626L32.8191 94.8025L32.8275 94.8423L36.7409 94.0143ZM39.728 108.133L43.6574 107.385L43.6498 107.345L43.6414 107.306L39.728 108.133ZM39.4229 113.97L43.2794 115.032L43.284 115.015L43.2883 114.999L39.4229 113.97ZM36.4883 119.897L33.114 117.749L26.7678 127.717L37.864 123.653L36.4883 119.897ZM44.353 117.542L43.6737 113.6L43.6647 113.601L43.6558 113.603L44.353 117.542ZM46.4104 117.187L47.0897 121.129L51.1013 120.438L50.3398 116.439L46.4104 117.187ZM39.9978 83.5151L43.9271 82.7667L43.1788 78.8374L39.2494 79.5857L39.9978 83.5151ZM44.4633 96.9799L40.5339 97.7282L40.922 99.7658L42.811 100.623L44.4633 96.9799ZM48.6808 98.3762L48.0695 102.329L48.0831 102.331L48.0967 102.333L48.6808 98.3762ZM55.8038 97.0196L57.8014 100.485L57.8348 100.466L57.8678 100.446L55.8038 97.0196ZM59.2848 94.1572L62.1081 96.9907L63.7676 95.3372L63.1373 93.0809L59.2848 94.1572ZM53.029 84.0157L51.1062 87.5232L51.117 87.5291L51.1279 87.535L53.029 84.0157ZM41.8325 83.1657L41.0841 79.2363L37.1548 79.9846L37.9031 83.914L41.8325 83.1657ZM46.7242 108.851L42.7948 109.6L44.0866 116.383L49.3282 111.888L46.7242 108.851ZM50.5341 106.15L52.3527 109.713L52.3867 109.695L52.4204 109.677L50.5341 106.15ZM57.974 104.696L57.5694 108.675L57.6085 108.679L57.6477 108.683L57.974 104.696ZM62.3816 105.72L61.1129 109.514L68.08 111.844L66.2565 104.728L62.3816 105.72ZM59.9134 96.0879L63.7883 95.095L62.1434 88.6757L57.2297 93.1218L59.9134 96.0879ZM56.2902 98.791L58.1502 102.332L58.1741 102.32L58.1978 102.307L56.2902 98.791ZM44.8401 98.9585L46.4308 95.2884L39.4969 92.283L40.9107 99.7068L44.8401 98.9585ZM48.2657 116.946L44.3363 117.694L45.0258 121.315L48.6905 120.923L48.2657 116.946ZM55.5599 116.489L55.5332 120.488L55.5632 120.489L55.5932 120.488L55.5599 116.489ZM64.6048 117.003L64.2578 120.988L69.4511 121.44L68.5438 116.307L64.6048 117.003ZM62.8784 107.937L66.7888 107.096L66.3588 105.098L64.4878 104.275L62.8784 107.937ZM58.3953 106.517L57.7889 110.471L57.8016 110.473L57.8144 110.475L58.3953 106.517ZM50.7328 107.976L48.7594 104.497L48.7486 104.503L48.7378 104.509L50.7328 107.976ZM47.1215 110.938L44.2581 108.145L42.802 109.638L43.1921 111.686L47.1215 110.938ZM7.44257 83.4605L9.13338 83.1385L7.63673 75.2797L5.94593 75.6017L7.44257 83.4605ZM4.87069 81.1194C5.84502 82.9119 7.34489 84.4571 9.48938 85.1869L12.0669 77.6135C12.0872 77.6204 12.1092 77.6305 12.1284 77.642C12.1472 77.6533 12.1522 77.6591 12.1436 77.6513C12.1256 77.6348 12.032 77.5427 11.8994 77.2988L4.87069 81.1194ZM9.44462 85.1714C11.7691 85.9933 14.5879 85.7904 17.3303 85.2681L15.8337 77.4093C13.3957 77.8736 12.3453 77.7116 12.1116 77.629L9.44462 85.1714ZM17.3303 85.2681C19.0796 84.935 24.3953 83.7441 33.1397 81.7325L31.3462 73.9361C22.519 75.9668 17.3941 77.1122 15.8337 77.4093L17.3303 85.2681ZM33.1491 81.7303C38.4863 80.4889 41.7089 79.768 42.9305 79.5353L41.4339 71.6765C40.0174 71.9463 36.6137 72.7109 31.3367 73.9383L33.1491 81.7303ZM42.9305 79.5353C46.4761 78.8601 49.3467 78.9456 51.6562 79.5811L53.7788 71.8678C50.0035 70.8289 45.8506 70.8354 41.4339 71.6765L42.9305 79.5353ZM51.6693 79.5847C53.957 80.2059 55.9898 81.4442 57.8037 83.4219L63.6995 78.0146C60.934 74.9992 57.6108 72.9083 53.7657 71.8642L51.6693 79.5847ZM57.8037 83.4219C59.5481 85.324 61.2249 88.3905 62.6507 92.9413L70.2848 90.5496C68.6685 85.3906 66.5345 81.1057 63.6995 78.0146L57.8037 83.4219ZM62.6522 92.9462C63.6559 96.1353 65.4247 103.539 67.9788 115.378L75.7989 113.691C73.2648 101.945 71.4196 94.1554 70.2833 90.5447L62.6522 92.9462ZM69.1596 111.61C64.9828 115.509 61.7124 118.899 59.4304 121.756L65.6812 126.749C67.6135 124.33 70.5651 121.242 74.6181 117.459L69.1596 111.61ZM62.8942 120.267C54.6185 119.564 47.3039 119.767 41.016 120.965L42.5127 128.824C47.8805 127.801 54.4268 127.577 62.2174 128.238L62.8942 120.267ZM41.016 120.965C36.741 121.779 32.8052 123.066 29.2379 124.854L32.8225 132.006C35.6529 130.587 38.8733 129.517 42.5127 128.824L41.016 120.965ZM29.2614 124.842C25.7226 126.587 22.165 128.967 18.5862 131.93L23.6879 138.092C26.893 135.438 29.9308 133.431 32.7989 132.017L29.2614 124.842ZM23.8067 132.032L22.5031 130.864L17.1637 136.821L18.4673 137.99L23.8067 132.032ZM22.3029 136.989C26.8563 133.416 30.8265 129.863 34.1938 126.329L28.4014 120.811C25.3479 124.016 21.6752 127.312 17.3639 130.696L22.3029 136.989ZM34.1938 126.329C37.5059 122.852 40.0049 119.491 41.0708 116.325L33.4889 113.773C32.9992 115.227 31.51 117.547 28.4014 120.811L34.1938 126.329ZM41.066 116.34C42.1491 113.162 42.1846 109.635 41.4802 105.936L33.6214 107.432C34.1502 110.209 34.005 112.258 33.4937 113.759L41.066 116.34ZM41.4802 105.936C41.2483 104.719 40.8862 102.951 40.3984 100.652L32.5725 102.312C33.0575 104.598 33.4056 106.299 33.6214 107.432L41.4802 105.936ZM40.3907 100.616C40.0459 99.0602 39.7125 97.437 39.3905 95.7465L31.5318 97.2431C31.8675 99.0061 32.2169 100.707 32.5801 102.347L40.3907 100.616ZM39.3905 95.7465C38.8207 92.7544 38.6384 90.8561 38.6803 89.8358L30.687 89.5075C30.6055 91.493 30.9415 94.1434 31.5318 97.2431L39.3905 95.7465ZM38.6772 89.8987C38.7324 88.927 39.0286 87.5408 39.7204 85.6694L32.2168 82.8953C31.3667 85.1947 30.8063 87.4013 30.6901 89.4446L38.6772 89.8987ZM35.2203 80.353L34.285 80.5311L35.7816 88.3899L36.7169 88.2118L35.2203 80.353ZM32.4287 81.4247C29.7305 83.7397 27.5021 86.1163 26.4058 88.5249L33.687 91.8391C34.0274 91.0911 35.1236 89.6534 37.6379 87.4963L32.4287 81.4247ZM26.4001 88.5374C25.2798 91.0212 25.1607 93.739 25.6783 96.4566L33.537 94.96C33.2416 93.4087 33.415 92.4423 33.6927 91.8266L26.4001 88.5374ZM25.6961 96.545L28.4161 109.261L36.2391 107.588L33.5192 94.8716L25.6961 96.545ZM28.3982 109.173C28.8853 111.73 28.5649 114.1 27.4268 116.416L34.6068 119.944C36.5135 116.064 37.0671 111.93 36.257 107.676L28.3982 109.173ZM27.4344 116.401C26.2577 118.77 22.6116 123.143 15.7772 129.757L21.3406 135.506C28.0627 129 32.7219 123.739 34.5992 119.96L27.4344 116.401ZM21.2656 129.686L19.9551 128.482L14.5418 134.372L15.8523 135.576L21.2656 129.686ZM20.1137 134.218C23.5281 130.713 26.1127 127.56 27.3364 124.897L20.0673 121.556C19.4636 122.87 17.7459 125.184 14.3832 128.636L20.1137 134.218ZM27.3364 124.897C28.5539 122.248 28.9932 119.451 28.4537 116.618L20.5949 118.115C20.7862 119.119 20.6772 120.229 20.0673 121.556L27.3364 124.897ZM28.4537 116.618C27.9636 114.044 26.6585 111.838 24.5307 110.252L19.749 116.666C20.1702 116.98 20.4548 117.379 20.5949 118.115L28.4537 116.618ZM24.5635 110.277C22.6171 108.794 20.2144 107.927 17.5663 108.431L19.0629 116.29C19.0671 116.289 19.0694 116.284 19.1205 116.298C19.1913 116.319 19.3902 116.393 19.7162 116.641L24.5635 110.277ZM17.5663 108.431C16.1429 108.702 14.8775 109.367 13.8454 110.36L19.392 116.125C19.3722 116.144 19.3248 116.184 19.2508 116.222C19.1763 116.261 19.1083 116.281 19.0629 116.29L17.5663 108.431ZM13.8454 110.36C12.8926 111.277 12.0479 112.63 11.3112 113.965L18.3148 117.831C18.6366 117.248 18.9022 116.814 19.1126 116.505C19.3382 116.173 19.4318 116.087 19.392 116.125L13.8454 110.36ZM17.0624 112.59L15.6919 111.658L11.1932 118.274L12.5637 119.206L17.0624 112.59ZM17.3719 115.715C17.6986 114 18.2358 113.076 18.7099 112.579L12.9242 107.054C11.0776 108.988 10.0319 111.496 9.51329 114.217L17.3719 115.715ZM18.6867 112.603C19.2231 112.051 19.9842 111.604 21.1839 111.375L19.6872 103.517C17.0976 104.01 14.7796 105.143 12.9474 107.03L18.6867 112.603ZM21.1839 111.375C21.4547 111.324 21.8174 111.286 22.2888 111.283L22.2482 103.283C21.3789 103.288 20.5196 103.358 19.6872 103.517L21.1839 111.375ZM22.3145 111.283C22.814 111.277 23.3974 111.308 24.072 111.386L24.9875 103.438C24.0359 103.328 23.1118 103.273 22.2226 103.283L22.3145 111.283ZM28.431 106.528C28.1251 105.177 27.8807 104.017 27.6952 103.044L19.8365 104.54C20.0438 105.629 20.3087 106.883 20.6285 108.295L28.431 106.528ZM27.6952 103.044C27.0731 99.7771 27.3022 97.4016 27.9952 95.6823L20.5753 92.6916C19.1416 96.2485 19.0244 100.276 19.8365 104.54L27.6952 103.044ZM27.9914 95.6918C28.7261 93.8823 30.6306 91.35 34.3028 88.0998L29.0006 82.1092C25.0163 85.6357 22.0099 89.1583 20.5791 92.6821L27.9914 95.6918ZM30.5046 81.2725C26.7106 82.4082 23.4708 83.2244 20.7671 83.7393L22.2637 91.598C25.316 91.0167 28.8336 90.1235 32.7988 88.9365L30.5046 81.2725ZM20.7671 83.7393C18.0759 84.2518 15.9048 84.2678 14.1759 83.938L12.6767 91.7962C15.6416 92.3619 18.8632 92.2456 22.2637 91.598L20.7671 83.7393ZM14.2305 83.9488C13.3244 83.7628 12.7719 83.3921 12.3511 82.8624L6.0871 87.8385C7.75844 89.9425 10.0108 91.2495 12.6222 91.7854L14.2305 83.9488ZM12.3676 82.8833C11.7996 82.1584 11.1378 80.8204 10.5756 78.564L2.81293 80.4983C3.51591 83.3194 4.53739 85.861 6.07061 87.8176L12.3676 82.8833ZM33.9659 82.5972C33.2038 84.7235 32.6813 86.7419 32.5286 88.5822L40.5013 89.2435C40.5748 88.3566 40.8632 87.0642 41.4968 85.2962L33.9659 82.5972ZM32.5264 88.61C32.3631 90.7606 32.4418 92.8212 32.8115 94.7626L40.6703 93.266C40.4554 92.1376 40.3834 90.7972 40.5035 89.2156L32.5264 88.61ZM32.8275 94.8423L35.8147 108.961L43.6414 107.306L40.6543 93.1864L32.8275 94.8423ZM35.7987 108.882C36.0174 110.031 35.9773 111.364 35.5575 112.941L43.2883 114.999C43.9696 112.439 44.1329 109.882 43.6574 107.385L35.7987 108.882ZM35.5664 112.908C35.2978 113.884 34.5689 115.464 33.114 117.749L39.8625 122.045C41.4684 119.523 42.696 117.151 43.2794 115.032L35.5664 112.908ZM37.864 123.653C41.1974 122.432 43.5535 121.745 45.0502 121.481L43.6558 113.603C41.4499 113.993 38.563 114.877 35.1125 116.141L37.864 123.653ZM45.0323 121.484L47.0897 121.129L45.7311 113.245L43.6737 113.6L45.0323 121.484ZM50.3398 116.439L43.9271 82.7667L36.0684 84.2634L42.481 117.936L50.3398 116.439ZM39.2494 79.5857L36.9831 80.0173L38.4797 87.8761L40.7461 87.4444L39.2494 79.5857ZM42.811 100.623C44.638 101.451 46.4153 102.073 48.0695 102.329L49.2921 94.4231C48.6417 94.3226 47.6073 94.0137 46.1156 93.3371L42.811 100.623ZM48.0967 102.333C49.753 102.578 51.4284 102.521 53.1002 102.203L51.6036 94.3441C50.7332 94.5099 49.9612 94.5218 49.2649 94.419L48.0967 102.333ZM53.1002 102.203C54.7721 101.884 56.351 101.321 57.8014 100.485L53.8061 93.5542C53.1963 93.9057 52.4739 94.1784 51.6036 94.3441L53.1002 102.203ZM57.8678 100.446C59.2737 99.5991 60.691 98.4028 62.1081 96.9907L56.4615 91.3237C55.2884 92.4926 54.385 93.2046 53.7397 93.5933L57.8678 100.446ZM63.1373 93.0809C61.5774 87.4977 59.1008 82.7493 54.9302 80.4964L51.1279 87.535C52.3316 88.1853 54.0255 90.198 55.4323 95.2335L63.1373 93.0809ZM54.9518 80.5082C51.0895 78.3909 46.2688 78.2489 41.0841 79.2363L42.5808 87.095C46.9414 86.2646 49.585 86.6893 51.1062 87.5232L54.9518 80.5082ZM37.9031 83.914L40.5339 97.7282L48.3927 96.2315L45.7619 82.4173L37.9031 83.914ZM49.3282 111.888C50.66 110.746 51.6591 110.067 52.3527 109.713L48.7155 102.587C47.2346 103.343 45.6938 104.466 44.1201 105.815L49.3282 111.888ZM52.4204 109.677C53.1023 109.313 53.9353 109.015 54.957 108.82L53.4603 100.962C51.748 101.288 50.1313 101.829 48.6478 102.623L52.4204 109.677ZM54.957 108.82C55.9417 108.633 56.8064 108.598 57.5694 108.675L58.3785 100.716C56.7592 100.552 55.1138 100.647 53.4603 100.962L54.957 108.82ZM57.6477 108.683C58.3885 108.743 59.5185 108.981 61.1129 109.514L63.6504 101.927C61.7411 101.288 59.9326 100.843 58.3002 100.709L57.6477 108.683ZM66.2565 104.728L63.7883 95.095L56.0386 97.0807L58.5068 106.713L66.2565 104.728ZM57.2297 93.1218C56.0005 94.234 55.0572 94.9091 54.3826 95.2751L58.1978 102.307C59.6406 101.524 61.1128 100.397 62.5972 99.0539L57.2297 93.1218ZM54.4302 95.2497C53.7864 95.5879 52.9904 95.8694 52.0044 96.0572L53.501 103.916C55.1531 103.601 56.7155 103.086 58.1502 102.332L54.4302 95.2497ZM52.0044 96.0572C51.1613 96.2177 50.2883 96.2451 49.3686 96.127L48.3492 104.062C50.079 104.284 51.8019 104.24 53.501 103.916L52.0044 96.0572ZM49.3686 96.127C48.4532 96.0094 47.4765 95.7416 46.4308 95.2884L43.2494 102.629C44.9126 103.349 46.6151 103.839 48.3492 104.062L49.3686 96.127ZM40.9107 99.7068L42.7948 109.6L50.6535 108.103L48.7695 98.2101L40.9107 99.7068ZM48.6905 120.923C51.5873 120.614 53.8531 120.477 55.5332 120.488L55.5866 112.489C53.4842 112.475 50.8872 112.643 47.8408 112.968L48.6905 120.923ZM55.5932 120.488C57.3006 120.474 60.1546 120.63 64.2578 120.988L64.9519 113.018C60.8164 112.658 57.6405 112.471 55.5265 112.489L55.5932 120.488ZM68.5438 116.307C67.9074 112.706 67.5668 110.783 67.5374 110.629L59.6786 112.125C59.6785 112.125 59.6973 112.229 59.7451 112.497C59.7892 112.745 59.8527 113.103 59.9357 113.571C60.1017 114.508 60.3451 115.884 60.6659 117.699L68.5438 116.307ZM67.5374 110.629C67.4711 110.281 67.2133 109.068 66.7888 107.096L58.9679 108.779C59.4066 110.817 59.6353 111.898 59.6786 112.125L67.5374 110.629ZM64.4878 104.275C62.5695 103.432 60.7125 102.814 58.9763 102.559L57.8144 110.475C58.5838 110.587 59.7155 110.916 61.2689 111.599L64.4878 104.275ZM59.0017 102.563C57.2729 102.298 55.5142 102.36 53.7532 102.695L55.2499 110.554C56.2229 110.369 57.0601 110.359 57.7889 110.471L59.0017 102.563ZM53.7532 102.695C51.974 103.034 50.2974 103.625 48.7594 104.497L52.7061 111.456C53.4111 111.056 54.247 110.745 55.2499 110.554L53.7532 102.695ZM48.7378 104.509C47.2077 105.39 45.7141 106.652 44.2581 108.145L49.9849 113.731C51.1488 112.538 52.0627 111.826 52.7277 111.443L48.7378 104.509ZM43.1921 111.686L44.3363 117.694L52.195 116.197L51.0509 110.19L43.1921 111.686Z" fill="white"/>
<path d="M91.4838 81.0819L103.126 91.8654L88.1475 105.171L88.9124 111.792L97.739 114.164L103.001 109.612L103.927 110.611L93.0903 120.194C90.5408 119.186 88.4577 118.493 86.8411 118.114C85.2245 117.736 82.9502 117.409 80.0183 117.133L79.9133 116.224C80.6818 115.643 81.1589 114.986 81.3444 114.252C81.5514 113.491 81.5175 111.922 81.2429 109.545L78.8388 88.7361C81.0233 87.6481 82.8282 86.6777 84.2534 85.8249C85.2859 85.1895 87.6961 83.6085 91.4838 81.0819ZM86.4376 85.9044L85.9577 86.2179L87.8616 102.698L96.656 94.8985L86.4376 85.9044Z" fill="black"/>
<path d="M91.4838 81.0819L94.202 78.1474L91.8881 76.004L89.2642 77.7543L91.4838 81.0819ZM103.126 91.8654L105.782 94.8558L109.079 91.9273L105.844 88.9309L103.126 91.8654ZM88.1475 105.171L85.4909 102.181L83.935 103.563L84.1739 105.63L88.1475 105.171ZM88.9124 111.792L84.9388 112.251L85.2506 114.95L87.8744 115.655L88.9124 111.792ZM97.739 114.164L96.701 118.027L98.751 118.578L100.356 117.189L97.739 114.164ZM103.001 109.612L105.934 106.892L103.306 104.058L100.384 106.587L103.001 109.612ZM103.927 110.611L106.577 113.607L109.645 110.894L106.86 107.891L103.927 110.611ZM93.0903 120.194L91.6196 123.914L93.9018 124.816L95.7401 123.19L93.0903 120.194ZM80.0183 117.133L76.0448 117.592L76.4168 120.812L79.6439 121.116L80.0183 117.133ZM79.9133 116.224L77.5029 113.031L75.6771 114.41L75.9397 116.683L79.9133 116.224ZM81.3444 114.252L77.4845 113.202L77.4751 113.237L77.4663 113.272L81.3444 114.252ZM78.8388 88.7361L77.0556 85.1556L74.5431 86.4069L74.8653 89.1952L78.8388 88.7361ZM84.2534 85.8249L86.3072 89.2574L86.3286 89.2446L86.3498 89.2316L84.2534 85.8249ZM86.4376 85.9044L89.0804 82.9018L86.7968 80.8918L84.2499 82.5556L86.4376 85.9044ZM85.9577 86.2179L83.77 82.8691L81.7004 84.2212L81.9841 86.677L85.9577 86.2179ZM87.8616 102.698L83.8881 103.157L84.7695 110.786L90.5157 105.69L87.8616 102.698ZM96.656 94.8985L99.31 97.8911L102.697 94.8872L99.2988 91.8959L96.656 94.8985ZM88.7657 84.0164L100.407 94.7999L105.844 88.9309L94.202 78.1474L88.7657 84.0164ZM100.469 88.875L85.4909 102.181L90.804 108.162L105.782 94.8558L100.469 88.875ZM84.1739 105.63L84.9388 112.251L92.886 111.333L92.121 104.712L84.1739 105.63ZM87.8744 115.655L96.701 118.027L98.777 110.301L89.9504 107.929L87.8744 115.655ZM100.356 117.189L105.618 112.637L100.384 106.587L95.1219 111.139L100.356 117.189ZM100.068 112.332L100.994 113.331L106.86 107.891L105.934 106.892L100.068 112.332ZM101.277 107.614L90.4405 117.198L95.7401 123.19L106.577 113.607L101.277 107.614ZM94.561 116.474C91.9304 115.434 89.6422 114.662 87.7529 114.22L85.9293 122.009C87.2732 122.324 89.1512 122.938 91.6196 123.914L94.561 116.474ZM87.7529 114.22C85.8742 113.78 83.3902 113.433 80.3928 113.151L79.6439 121.116C82.5102 121.385 84.5748 121.692 85.9293 122.009L87.7529 114.22ZM83.9919 116.674L83.8868 115.765L75.9397 116.683L76.0448 117.592L83.9919 116.674ZM82.3236 119.416C83.6179 118.439 84.7591 117.066 85.2225 115.232L77.4663 113.272C77.4854 113.196 77.511 113.128 77.5391 113.068C77.567 113.01 77.5935 112.969 77.6103 112.946C77.6426 112.901 77.6283 112.937 77.5029 113.031L82.3236 119.416ZM85.2042 115.301C85.4647 114.344 85.492 113.286 85.4733 112.418C85.4527 111.462 85.3615 110.341 85.2165 109.086L77.2694 110.004C77.3989 111.125 77.462 111.977 77.4752 112.59C77.4903 113.292 77.431 113.399 77.4845 113.202L85.2042 115.301ZM85.2165 109.086L82.8124 88.277L74.8653 89.1952L77.2694 110.004L85.2165 109.086ZM80.6221 92.3166C82.8603 91.2019 84.7634 90.1812 86.3072 89.2574L82.1995 82.3925C80.893 83.1743 79.1863 84.0944 77.0556 85.1556L80.6221 92.3166ZM86.3498 89.2316C87.4581 88.5495 89.9358 86.9228 93.7035 84.4095L89.2642 77.7543C85.4563 80.2943 83.1137 81.8296 82.157 82.4183L86.3498 89.2316ZM84.2499 82.5556L83.77 82.8691L88.1453 89.5666L88.6252 89.2531L84.2499 82.5556ZM81.9841 86.677L83.8881 103.157L91.8352 102.239L89.9313 85.7588L81.9841 86.677ZM90.5157 105.69L99.31 97.8911L94.002 91.9058L85.2076 99.7049L90.5157 105.69ZM99.2988 91.8959L89.0804 82.9018L83.7948 88.907L94.0132 97.901L99.2988 91.8959Z" fill="white"/>
<path d="M104.515 83.7633L113.735 70.3838L114.794 70.3025L115.203 80.4083L122.542 79.8447L122.859 83.9707L115.52 84.5343L117.407 109.108L121.729 111.825L123.926 109.819L124.923 110.845L117.383 117.888C114.418 115.3 111.156 113.64 107.598 112.91L107.542 112.179C108.466 111.447 109.058 110.716 109.321 109.986C109.665 109.054 109.772 107.735 109.641 106.031L108.035 85.1092L104.639 85.3699L104.515 83.7633Z" fill="black"/>
<path d="M104.515 83.7633L101.222 81.4936L100.419 82.6588L100.527 84.0696L104.515 83.7633ZM113.735 70.3838L113.429 66.3956L111.525 66.5418L110.442 68.1141L113.735 70.3838ZM114.794 70.3025L118.791 70.1408L118.623 65.9967L114.488 66.3142L114.794 70.3025ZM115.203 80.4083L111.206 80.57L111.374 84.7141L115.509 84.3965L115.203 80.4083ZM122.542 79.8447L126.53 79.5384L126.224 75.5501L122.236 75.8564L122.542 79.8447ZM122.859 83.9707L123.165 87.959L127.154 87.6527L126.847 83.6644L122.859 83.9707ZM115.52 84.5343L115.214 80.5461L111.225 80.8523L111.532 84.8406L115.52 84.5343ZM117.407 109.108L113.419 109.414L113.573 111.423L115.278 112.495L117.407 109.108ZM121.729 111.825L119.601 115.211L122.178 116.831L124.426 114.779L121.729 111.825ZM123.926 109.819L126.794 107.031L124.092 104.252L121.229 106.865L123.926 109.819ZM124.923 110.845L127.653 113.768L130.635 110.982L127.791 108.056L124.923 110.845ZM117.383 117.888L114.753 120.902L117.475 123.277L120.114 120.811L117.383 117.888ZM107.598 112.91L103.61 113.216L103.841 116.221L106.794 116.828L107.598 112.91ZM107.542 112.179L105.057 109.045L103.391 110.366L103.554 112.486L107.542 112.179ZM109.321 109.986L105.569 108.599L105.562 108.617L105.556 108.634L109.321 109.986ZM108.035 85.1092L112.023 84.8029L111.717 80.8146L107.728 81.1209L108.035 85.1092ZM104.639 85.3699L100.651 85.6762L100.957 89.6645L104.945 89.3582L104.639 85.3699ZM107.809 86.033L117.029 72.6535L110.442 68.1141L101.222 81.4936L107.809 86.033ZM114.042 74.3721L115.1 74.2908L114.488 66.3142L113.429 66.3956L114.042 74.3721ZM110.797 70.4642L111.206 80.57L119.2 80.2466L118.791 70.1408L110.797 70.4642ZM115.509 84.3965L122.848 83.8329L122.236 75.8564L114.897 76.42L115.509 84.3965ZM118.554 80.151L118.871 84.277L126.847 83.6644L126.53 79.5384L118.554 80.151ZM122.553 79.9825L115.214 80.5461L115.826 88.5226L123.165 87.959L122.553 79.9825ZM111.532 84.8406L113.419 109.414L121.395 108.802L119.508 84.228L111.532 84.8406ZM115.278 112.495L119.601 115.211L123.858 108.438L119.535 105.721L115.278 112.495ZM124.426 114.779L126.623 112.774L121.229 106.865L119.033 108.87L124.426 114.779ZM121.058 112.608L122.055 113.633L127.791 108.056L126.794 107.031L121.058 112.608ZM122.192 107.922L114.653 114.965L120.114 120.811L127.653 113.768L122.192 107.922ZM120.013 114.874C116.572 111.871 112.693 109.873 108.403 108.992L106.794 116.828C109.619 117.408 112.263 118.728 114.753 120.902L120.013 114.874ZM111.587 112.603L111.531 111.873L103.554 112.486L103.61 113.216L111.587 112.603ZM110.028 115.314C111.254 114.341 112.472 113.044 113.085 111.338L105.556 108.634C105.605 108.497 105.644 108.475 105.572 108.563C105.499 108.653 105.344 108.818 105.057 109.045L110.028 115.314ZM113.072 111.373C113.712 109.643 113.777 107.648 113.63 105.725L105.653 106.338C105.767 107.823 105.619 108.464 105.569 108.599L113.072 111.373ZM113.63 105.725L112.023 84.8029L104.046 85.4154L105.653 106.338L113.63 105.725ZM107.728 81.1209L104.333 81.3817L104.945 89.3582L108.341 89.0974L107.728 81.1209ZM108.627 85.0637L108.504 83.4571L100.527 84.0696L100.651 85.6762L108.627 85.0637Z" fill="white"/>
<path d="M153.372 78.6449L154.707 79.1117C153.461 81.2068 152.673 82.8097 152.345 83.9203C152.041 85.0057 151.92 86.4756 151.985 88.3299L152.524 103.921C152.613 106.508 152.864 108.123 153.278 108.769C153.714 109.389 154.213 109.689 154.774 109.67C155.067 109.659 155.37 109.576 155.682 109.418C155.873 109.29 156.431 108.831 157.356 108.041L158.203 109.221L150.275 116.238C148.345 114.839 147.044 113.577 146.369 112.452C145.695 111.303 145.285 109.692 145.14 107.621L134.317 116.789C130.027 113.518 127.824 110.223 127.71 106.905C127.633 104.684 128.012 102.582 128.847 100.599C129.954 97.9959 131.913 94.9357 134.723 91.4185L130.007 82.201L130.484 81.1585C131.439 81.2232 132.148 81.2475 132.612 81.2315C135.491 81.132 137.989 79.8974 140.105 77.528C141.923 78.5155 143.891 79.2903 146.012 79.8521C148.156 80.4131 149.79 80.6742 150.912 80.6354C151.425 80.6176 151.812 80.5187 152.075 80.3387C152.336 80.1342 152.769 79.5696 153.372 78.6449ZM144.391 85.9542L131.741 82.5441L136.532 91.8323L144.715 95.3236L144.391 85.9542ZM144.766 96.8242L135.766 92.9947C134.503 96.0187 133.91 98.6531 133.988 100.898C134.124 104.851 136.03 108.046 139.706 110.484L145.078 105.828L144.766 96.8242Z" fill="black"/>
<path d="M153.372 78.6449L154.692 74.869L151.734 73.8347L150.022 76.4596L153.372 78.6449ZM154.707 79.1117L158.145 81.1572L160.648 76.9511L156.027 75.3358L154.707 79.1117ZM152.345 83.9203L148.509 82.7873L148.501 82.8136L148.494 82.84L152.345 83.9203ZM153.278 108.769L149.909 110.926L149.957 111L150.007 111.072L153.278 108.769ZM155.682 109.418L157.483 112.99L157.708 112.876L157.918 112.735L155.682 109.418ZM157.356 108.041L160.606 105.709L158.07 102.176L154.761 104.998L157.356 108.041ZM158.203 109.221L160.854 112.217L163.559 109.823L161.453 106.889L158.203 109.221ZM150.275 116.238L147.927 119.476L150.523 121.359L152.925 119.233L150.275 116.238ZM146.369 112.452L142.92 114.478L142.929 114.493L142.938 114.508L146.369 112.452ZM145.14 107.621L149.13 107.342L148.579 99.4649L142.554 104.569L145.14 107.621ZM134.317 116.789L131.892 119.97L134.449 121.92L136.903 119.842L134.317 116.789ZM128.847 100.599L125.166 99.0339L125.161 99.0466L128.847 100.599ZM134.723 91.4185L137.848 93.9152L139.46 91.8967L138.284 89.5967L134.723 91.4185ZM130.007 82.201L126.369 80.5368L125.563 82.2984L126.446 84.0229L130.007 82.201ZM130.484 81.1585L130.754 77.1677L127.996 76.9808L126.846 79.4944L130.484 81.1585ZM140.105 77.528L142.015 74.0133L139.232 72.5011L137.122 74.8632L140.105 77.528ZM146.012 79.8521L144.987 83.7187L145 83.7219L146.012 79.8521ZM152.075 80.3387L154.338 83.6371L154.44 83.5668L154.538 83.4904L152.075 80.3387ZM144.391 85.9542L148.388 85.816L148.286 82.8616L145.432 82.0921L144.391 85.9542ZM131.741 82.5441L132.782 78.682L124.03 76.3228L128.186 84.378L131.741 82.5441ZM136.532 91.8323L132.978 93.6662L133.638 94.9462L134.963 95.5114L136.532 91.8323ZM144.715 95.3236L143.145 99.0027L148.93 101.471L148.712 95.1854L144.715 95.3236ZM144.766 96.8242L148.764 96.686L148.676 94.1407L146.333 93.1435L144.766 96.8242ZM135.766 92.9947L137.333 89.3141L133.628 87.7377L132.076 91.4527L135.766 92.9947ZM139.706 110.484L137.495 113.817L140.028 115.498L142.326 113.506L139.706 110.484ZM145.078 105.828L147.698 108.85L149.141 107.599L149.075 105.689L145.078 105.828ZM152.052 82.4208L153.387 82.8876L156.027 75.3358L154.692 74.869L152.052 82.4208ZM151.27 77.0662C149.997 79.205 148.987 81.1681 148.509 82.7873L156.181 85.0533C156.359 84.4513 156.924 83.2086 158.145 81.1572L151.27 77.0662ZM148.494 82.84C148.03 84.4944 147.917 86.4317 147.987 88.4682L155.982 88.1917C155.924 86.5194 156.052 85.517 156.196 85.0007L148.494 82.84ZM147.987 88.4682L148.526 104.059L156.521 103.783L155.982 88.1917L147.987 88.4682ZM148.526 104.059C148.574 105.432 148.667 106.659 148.827 107.688C148.963 108.561 149.22 109.849 149.909 110.926L156.646 106.612C156.826 106.892 156.863 107.067 156.836 106.975C156.817 106.911 156.777 106.75 156.732 106.458C156.64 105.871 156.563 104.997 156.521 103.783L148.526 104.059ZM150.007 111.072C150.92 112.367 152.551 113.749 154.913 113.667L154.636 105.672C155.159 105.654 155.655 105.799 156.042 106.032C156.389 106.241 156.539 106.452 156.548 106.465L150.007 111.072ZM154.913 113.667C155.885 113.634 156.752 113.358 157.483 112.99L153.881 105.847C153.987 105.793 154.25 105.685 154.636 105.672L154.913 113.667ZM157.918 112.735C158.346 112.446 159.122 111.793 159.952 111.085L154.761 104.998C154.306 105.386 153.956 105.68 153.703 105.888C153.577 105.992 153.486 106.065 153.425 106.113C153.345 106.175 153.368 106.154 153.446 106.102L157.918 112.735ZM154.107 110.374L154.954 111.554L161.453 106.889L160.606 105.709L154.107 110.374ZM155.553 106.226L147.624 113.242L152.925 119.233L160.854 112.217L155.553 106.226ZM152.623 112.999C150.831 111.701 150.055 110.821 149.801 110.396L142.938 114.508C144.032 116.333 145.859 117.977 147.927 119.476L152.623 112.999ZM149.819 110.426C149.583 110.025 149.254 109.107 149.13 107.342L141.15 107.9C141.316 110.278 141.806 112.58 142.92 114.478L149.819 110.426ZM142.554 104.569L131.732 113.737L136.903 119.842L147.725 110.673L142.554 104.569ZM136.743 113.609C132.818 110.616 131.76 108.303 131.707 106.766L123.712 107.043C123.888 112.142 127.236 116.42 131.892 119.97L136.743 113.609ZM131.707 106.766C131.65 105.106 131.931 103.583 132.534 102.152L125.161 99.0466C124.093 101.582 123.616 104.262 123.712 107.043L131.707 106.766ZM132.528 102.164C133.435 100.032 135.148 97.2948 137.848 93.9152L131.597 88.9219C128.678 92.5766 126.474 95.9594 125.166 99.0339L132.528 102.164ZM138.284 89.5967L133.568 80.3791L126.446 84.0229L131.162 93.2404L138.284 89.5967ZM133.644 83.8652L134.121 82.8227L126.846 79.4944L126.369 80.5368L133.644 83.8652ZM130.213 85.1494C131.193 85.2157 132.072 85.2526 132.75 85.2291L132.473 77.2339C132.224 77.2425 131.684 77.2307 130.754 77.1677L130.213 85.1494ZM132.75 85.2291C136.837 85.0878 140.327 83.2834 143.088 80.1927L137.122 74.8632C135.65 76.5115 134.144 77.1761 132.473 77.2339L132.75 85.2291ZM138.195 81.0426C140.309 82.1912 142.577 83.0801 144.987 83.7186L147.036 75.9855C145.206 75.5004 143.536 74.8399 142.015 74.0133L138.195 81.0426ZM145 83.7219C147.229 84.3051 149.325 84.6926 151.051 84.633L150.774 76.6377C150.255 76.6557 149.084 76.521 147.024 75.9823L145 83.7219ZM151.051 84.633C151.902 84.6035 153.173 84.4361 154.338 83.6371L149.812 77.0402C150.153 76.8063 150.448 76.7104 150.598 76.6722C150.748 76.6339 150.819 76.6362 150.774 76.6377L151.051 84.633ZM154.538 83.4904C155.096 83.0539 155.528 82.5117 155.771 82.194C156.072 81.8007 156.392 81.3364 156.722 80.8302L150.022 76.4596C149.749 76.878 149.551 77.1584 149.42 77.3297C149.355 77.4145 149.327 77.4447 149.333 77.4379C149.338 77.4331 149.36 77.4085 149.399 77.3706C149.436 77.3347 149.508 77.2679 149.612 77.187L154.538 83.4904ZM145.432 82.0921L132.782 78.682L130.7 86.4062L143.349 89.8164L145.432 82.0921ZM128.186 84.378L132.978 93.6662L140.087 89.9984L135.296 80.7102L128.186 84.378ZM134.963 95.5114L143.145 99.0027L146.284 91.6446L138.102 88.1532L134.963 95.5114ZM148.712 95.1854L148.388 85.816L140.393 86.0925L140.717 95.4619L148.712 95.1854ZM146.333 93.1435L137.333 89.3141L134.2 96.6754L143.2 100.505L146.333 93.1435ZM132.076 91.4527C130.684 94.7836 129.886 98.014 129.99 101.036L137.985 100.76C137.935 99.2922 138.322 97.2538 139.457 94.5368L132.076 91.4527ZM129.99 101.036C130.177 106.443 132.887 110.76 137.495 113.817L141.917 107.15C139.174 105.331 138.072 103.258 137.985 100.76L129.99 101.036ZM142.326 113.506L147.698 108.85L142.458 102.805L137.086 107.461L142.326 113.506ZM149.075 105.689L148.764 96.686L140.769 96.9624L141.08 105.966L149.075 105.689Z" fill="white"/>
<path d="M170.938 64.5988L175.589 64.633L170.477 72.5058L169.013 72.495L170.938 64.5988ZM168.063 77.1024L174.542 82.5335L171.628 85.332L171.482 105.253C171.466 107.353 171.652 108.721 172.038 109.359C172.424 109.997 172.824 110.317 173.239 110.32C173.532 110.322 173.801 110.263 174.046 110.143C174.389 109.975 175.101 109.491 176.181 108.694L177.051 109.835L168.692 116.146C166.749 114.74 165.501 113.425 164.949 112.2C164.396 110.951 164.131 108.788 164.154 105.712L164.304 85.2781L161.579 82.4382L168.063 77.1024Z" fill="black"/>
<path d="M170.938 64.5988L170.968 60.5989L167.802 60.5756L167.052 63.651L170.938 64.5988ZM175.589 64.633L178.944 66.8113L182.921 60.6868L175.619 60.6331L175.589 64.633ZM170.477 72.5058L170.448 76.5057L172.639 76.5218L173.832 74.6841L170.477 72.5058ZM169.013 72.495L165.127 71.5473L163.929 76.4577L168.983 76.4949L169.013 72.495ZM168.063 77.1024L170.633 74.037L168.087 71.9028L165.522 74.0136L168.063 77.1024ZM174.542 82.5335L177.313 85.4184L180.527 82.3312L177.112 79.4681L174.542 82.5335ZM171.628 85.332L168.858 82.4471L167.641 83.6156L167.628 85.3026L171.628 85.332ZM176.181 108.694L179.362 106.268L176.973 103.136L173.804 105.476L176.181 108.694ZM177.051 109.835L179.461 113.028L182.669 110.606L180.232 107.41L177.051 109.835ZM168.692 116.146L166.347 119.387L168.742 121.12L171.102 119.339L168.692 116.146ZM164.949 112.2L161.29 113.818L161.296 113.831L161.303 113.845L164.949 112.2ZM164.304 85.2781L168.304 85.3075L168.316 83.6815L167.19 82.5083L164.304 85.2781ZM161.579 82.4382L159.037 79.3494L155.703 82.0929L158.693 85.208L161.579 82.4382ZM170.909 68.5987L175.56 68.6329L175.619 60.6331L170.968 60.5989L170.909 68.5987ZM172.234 62.4547L167.123 70.3275L173.832 74.6841L178.944 66.8113L172.234 62.4547ZM170.507 68.5059L169.042 68.4951L168.983 76.4949L170.448 76.5057L170.507 68.5059ZM172.899 73.4428L174.825 65.5466L167.052 63.651L165.127 71.5473L172.899 73.4428ZM165.494 80.1678L171.972 85.5989L177.112 79.4681L170.633 74.037L165.494 80.1678ZM171.771 79.6486L168.858 82.4471L174.399 88.2169L177.313 85.4184L171.771 79.6486ZM167.628 85.3026L167.482 105.224L175.482 105.283L175.628 85.3614L167.628 85.3026ZM167.482 105.224C167.473 106.376 167.518 107.449 167.645 108.391C167.759 109.234 167.99 110.397 168.616 111.43L175.46 107.288C175.605 107.528 175.642 107.682 175.633 107.648C175.627 107.629 175.601 107.528 175.573 107.318C175.515 106.891 175.475 106.23 175.482 105.283L167.482 105.224ZM168.616 111.43C169.154 112.319 170.582 114.301 173.21 114.32L173.268 106.32C174.154 106.327 174.794 106.689 175.126 106.954C175.419 107.188 175.51 107.37 175.46 107.288L168.616 111.43ZM173.21 114.32C174.077 114.326 174.966 114.147 175.809 113.734L172.284 106.552C172.636 106.379 172.987 106.318 173.268 106.32L173.21 114.32ZM175.809 113.734C176.541 113.374 177.56 112.648 178.557 111.911L173.804 105.476C173.286 105.859 172.885 106.145 172.59 106.345C172.443 106.445 172.339 106.512 172.27 106.555C172.19 106.604 172.204 106.591 172.284 106.552L175.809 113.734ZM173 111.119L173.871 112.261L180.232 107.41L179.362 106.268L173 111.119ZM174.641 106.643L166.282 112.954L171.102 119.339L179.461 113.028L174.641 106.643ZM171.037 112.906C169.278 111.633 168.714 110.82 168.595 110.555L161.303 113.845C162.288 116.03 164.22 117.848 166.347 119.387L171.037 112.906ZM168.607 110.583C168.431 110.184 168.132 108.787 168.154 105.742L160.154 105.683C160.131 108.789 160.362 111.717 161.29 113.818L168.607 110.583ZM168.154 105.742L168.304 85.3075L160.304 85.2487L160.154 105.683L168.154 105.742ZM167.19 82.5083L164.464 79.6684L158.693 85.208L161.418 88.048L167.19 82.5083ZM164.12 85.527L170.605 80.1912L165.522 74.0136L159.037 79.3494L164.12 85.527Z" fill="white"/>
<path d="M200.102 64.5629L200.062 65.5143C198.094 66.4343 196.676 67.6094 195.811 69.0396C194.97 70.4463 194.489 72.6255 194.366 75.5771L193.015 108.105L197.057 111.389L198.722 110.138L199.582 111.493L192.033 116.751C189.893 114.732 188.288 113.382 187.216 112.702C186.145 112.023 184.717 111.389 182.934 110.802L182.967 109.997C183.667 109.611 184.213 109.108 184.606 108.489C185.022 107.871 185.322 107.138 185.503 106.29C185.564 106 185.662 104.538 185.796 101.904L186.881 75.7793C186.973 73.5595 186.951 72.0192 186.816 71.1583C186.682 70.2731 186.375 69.4296 185.895 68.6277C185.416 67.8015 184.587 66.8751 183.408 65.8488L184.024 65.1413C186.217 65.8677 188.152 67.2431 189.827 69.2675C191.736 67.4164 193.438 66.1676 194.931 65.521C196.448 64.8754 198.172 64.5561 200.102 64.5629Z" fill="black"/>
<path d="M200.102 64.5629L204.098 64.7289L204.271 60.5777L200.116 60.5629L200.102 64.5629ZM200.062 65.5143L201.756 69.138L203.958 68.1088L204.059 65.6803L200.062 65.5143ZM195.811 69.0396L192.389 66.9681L192.383 66.9782L192.377 66.9882L195.811 69.0396ZM193.015 108.105L189.019 107.939L188.935 109.944L190.493 111.21L193.015 108.105ZM197.057 111.389L194.535 114.493L196.961 116.464L199.459 114.587L197.057 111.389ZM198.722 110.138L202.099 107.995L199.78 104.341L196.319 106.94L198.722 110.138ZM199.582 111.493L201.868 114.776L205.012 112.586L202.959 109.35L199.582 111.493ZM192.033 116.751L189.288 119.66L191.652 121.891L194.319 120.033L192.033 116.751ZM182.934 110.802L178.937 110.636L178.812 113.656L181.683 114.601L182.934 110.802ZM182.967 109.997L181.035 106.495L179.064 107.582L178.97 109.831L182.967 109.997ZM184.606 108.489L181.289 106.253L181.257 106.3L181.227 106.348L184.606 108.489ZM185.503 106.29L189.414 107.129L189.416 107.12L189.418 107.111L185.503 106.29ZM185.796 101.904L189.79 102.107L189.791 102.089L189.792 102.07L185.796 101.904ZM186.816 71.1583L182.861 71.7582L182.863 71.7688L182.865 71.7794L186.816 71.1583ZM185.895 68.6277L182.434 70.6333L182.448 70.6576L182.462 70.6816L185.895 68.6277ZM183.408 65.8488L180.391 63.2225L177.765 66.2396L180.782 68.8658L183.408 65.8488ZM184.024 65.1413L185.281 61.3441L182.754 60.5072L181.007 62.515L184.024 65.1413ZM189.827 69.2675L186.745 71.8177L189.504 75.1514L192.611 72.1396L189.827 69.2675ZM194.931 65.521L193.364 61.8403L193.353 61.8454L193.341 61.8505L194.931 65.521ZM196.105 64.3969L196.066 65.3482L204.059 65.6803L204.098 64.7289L196.105 64.3969ZM198.369 61.8905C195.896 63.0463 193.771 64.6848 192.389 66.9681L199.232 71.111C199.582 70.5341 200.292 69.8223 201.756 69.138L198.369 61.8905ZM192.377 66.9882C191.019 69.2602 190.501 72.2495 190.37 75.4111L198.363 75.7431C198.477 73.0015 198.921 71.6325 199.245 71.0909L192.377 66.9882ZM190.37 75.4111L189.019 107.939L197.012 108.271L198.363 75.7431L190.37 75.4111ZM190.493 111.21L194.535 114.493L199.579 108.284L195.537 105L190.493 111.21ZM199.459 114.587L201.124 113.336L196.319 106.94L194.655 108.19L199.459 114.587ZM195.344 112.281L196.204 113.637L202.959 109.35L202.099 107.995L195.344 112.281ZM197.296 108.211L189.747 113.469L194.319 120.033L201.868 114.776L197.296 108.211ZM194.778 113.842C192.631 111.815 190.784 110.229 189.359 109.325L185.073 116.08C185.791 116.536 187.156 117.648 189.288 119.66L194.778 113.842ZM189.359 109.325C187.911 108.406 186.147 107.649 184.184 107.002L181.683 114.601C183.288 115.13 184.379 115.64 185.073 116.08L189.359 109.325ZM186.93 110.968L186.964 110.163L178.97 109.831L178.937 110.636L186.93 110.968ZM184.899 113.499C186.133 112.818 187.2 111.868 187.984 110.63L181.227 106.348C181.221 106.358 181.212 106.369 181.193 106.387C181.173 106.405 181.126 106.444 181.035 106.495L184.899 113.499ZM187.922 110.725C188.667 109.62 189.143 108.396 189.414 107.129L181.592 105.451C181.5 105.88 181.378 106.122 181.289 106.253L187.922 110.725ZM189.418 107.111C189.521 106.62 189.574 105.829 189.613 105.242C189.664 104.479 189.723 103.431 189.79 102.107L181.801 101.701C181.734 103.011 181.678 104.01 181.631 104.71C181.608 105.062 181.588 105.319 181.572 105.493C181.549 105.749 181.548 105.663 181.588 105.47L189.418 107.111ZM189.792 102.07L190.877 75.9453L182.884 75.6133L181.799 101.738L189.792 102.07ZM190.877 75.9453C190.969 73.744 190.972 71.8372 190.768 70.5373L182.865 71.7794C182.931 72.2012 182.977 73.375 182.884 75.6133L190.877 75.9453ZM190.771 70.5585C190.555 69.1368 190.062 67.8019 189.327 66.5738L182.462 70.6816C182.687 71.0572 182.808 71.4094 182.861 71.7582L190.771 70.5585ZM189.356 66.6221C188.561 65.2501 187.362 63.9875 186.034 62.8317L180.782 68.8658C181.812 69.7628 182.271 70.3528 182.434 70.6333L189.356 66.6221ZM186.425 68.475L187.041 67.7675L181.007 62.515L180.391 63.2225L186.425 68.475ZM182.766 68.9385C184.153 69.3976 185.481 70.2906 186.745 71.8177L192.908 66.7173C190.822 64.1957 188.282 62.3378 185.281 61.3441L182.766 68.9385ZM192.611 72.1396C194.365 70.4388 195.663 69.563 196.52 69.1915L193.341 61.8505C191.213 62.7722 189.107 64.3941 187.043 66.3955L192.611 72.1396ZM196.497 69.2017C197.437 68.8018 198.609 68.5576 200.087 68.5629L200.116 60.5629C197.734 60.5545 195.459 60.9491 193.364 61.8403L196.497 69.2017Z" fill="white"/>
<path d="M216.854 66.6297L221.491 66.9807L215.855 74.4869L214.394 74.3763L216.854 66.6297ZM213.133 78.9083L219.227 84.7682L216.129 87.3617L214.626 107.227C214.467 109.32 214.559 110.698 214.9 111.361C215.242 112.023 215.62 112.37 216.034 112.401C216.326 112.424 216.598 112.383 216.851 112.28C217.204 112.135 217.947 111.702 219.079 110.979L219.87 112.178L211.1 117.904C209.257 116.369 208.102 114.972 207.634 113.712C207.168 112.428 207.051 110.253 207.284 107.185L208.826 86.8089L206.3 83.7898L213.133 78.9083Z" fill="black"/>
<path d="M216.854 66.6297L217.156 62.6411L213.999 62.4022L213.041 65.4193L216.854 66.6297ZM221.491 66.9807L224.69 69.3825L229.075 63.5432L221.793 62.9921L221.491 66.9807ZM215.855 74.4869L215.553 78.4755L217.738 78.6408L219.054 76.8887L215.855 74.4869ZM214.394 74.3763L210.582 73.166L209.052 77.9834L214.092 78.3649L214.394 74.3763ZM213.133 78.9083L215.906 76.0251L213.511 73.7224L210.808 75.6535L213.133 78.9083ZM219.227 84.7682L221.795 87.8352L225.212 84.9742L221.999 81.8851L219.227 84.7682ZM216.129 87.3617L213.561 84.2947L212.268 85.3776L212.141 87.0598L216.129 87.3617ZM219.079 110.979L222.418 108.776L220.248 105.488L216.928 107.607L219.079 110.979ZM219.87 112.178L222.057 115.527L225.422 113.329L223.209 109.975L219.87 112.178ZM211.1 117.904L208.539 120.977L210.811 122.87L213.287 121.253L211.1 117.904ZM207.634 113.712L203.874 115.077L203.879 115.091L203.885 115.105L207.634 113.712ZM208.826 86.8089L212.814 87.1108L212.937 85.4893L211.894 84.2421L208.826 86.8089ZM206.3 83.7898L203.975 80.535L200.461 83.0449L203.232 86.3566L206.3 83.7898ZM216.552 70.6183L221.189 70.9693L221.793 62.9921L217.156 62.6411L216.552 70.6183ZM218.293 64.5789L212.656 72.0851L219.054 76.8887L224.69 69.3825L218.293 64.5789ZM216.157 70.4983L214.696 70.3877L214.092 78.3649L215.553 78.4755L216.157 70.4983ZM218.207 75.5867L220.666 67.84L213.041 65.4193L210.582 73.166L218.207 75.5867ZM210.361 81.7915L216.454 87.6514L221.999 81.8851L215.906 76.0251L210.361 81.7915ZM216.659 81.7012L213.561 84.2947L218.697 90.4287L221.795 87.8352L216.659 81.7012ZM212.141 87.0598L210.637 106.925L218.614 107.529L220.118 87.6636L212.141 87.0598ZM210.637 106.925C210.55 108.074 210.521 109.148 210.584 110.096C210.641 110.944 210.791 112.12 211.345 113.194L218.455 109.528C218.584 109.777 218.611 109.933 218.604 109.899C218.6 109.879 218.581 109.777 218.567 109.565C218.538 109.135 218.543 108.473 218.614 107.529L210.637 106.925ZM211.345 113.194C211.821 114.118 213.111 116.192 215.732 116.39L216.335 108.413C217.219 108.48 217.833 108.884 218.145 109.172C218.422 109.425 218.5 109.613 218.455 109.528L211.345 113.194ZM215.732 116.39C216.597 116.456 217.495 116.337 218.364 115.982L215.337 108.577C215.701 108.428 216.055 108.392 216.335 108.413L215.732 116.39ZM218.364 115.982C219.12 115.673 220.186 115.018 221.231 114.351L216.928 107.607C216.385 107.954 215.965 108.212 215.657 108.391C215.504 108.481 215.395 108.541 215.324 108.579C215.24 108.623 215.255 108.61 215.337 108.577L218.364 115.982ZM215.741 113.182L216.531 114.381L223.209 109.975L222.418 108.776L215.741 113.182ZM217.683 108.828L208.913 114.555L213.287 121.253L222.057 115.527L217.683 108.828ZM213.66 114.831C211.992 113.441 211.485 112.592 211.384 112.32L203.885 115.105C204.719 117.352 206.523 119.297 208.539 120.977L213.66 114.831ZM211.394 112.348C211.246 111.939 211.042 110.524 211.272 107.487L203.295 106.883C203.061 109.981 203.091 112.918 203.874 115.077L211.394 112.348ZM211.272 107.487L212.814 87.1108L204.837 86.507L203.295 106.883L211.272 107.487ZM211.894 84.2421L209.368 81.2231L203.232 86.3566L205.758 89.3756L211.894 84.2421ZM208.625 87.0446L215.458 82.1631L210.808 75.6535L203.975 80.535L208.625 87.0446Z" fill="white"/>
<path d="M251.882 82.9155L257.146 89.2208L261.098 86.246L261.993 87.3545C260.103 88.6927 258.927 89.7388 258.463 90.4928C257.845 91.4981 257.42 92.9334 257.186 94.7987L255.027 112.059C254.827 113.658 254.933 114.877 255.344 115.716C255.596 116.264 255.915 116.562 256.303 116.611C256.642 116.653 257.5 116.281 258.878 115.494L259.61 116.729L250.997 122.147C249.177 120.369 248.049 118.863 247.613 117.627C247.205 116.37 247.164 114.434 247.491 111.818L249.996 91.7955L246.463 87.8841L239.99 91.8352L237.403 112.511L239.692 115.455L232.61 119.847L226.792 113.841L229.954 111.579L232.277 93.0108C232.607 90.3702 232.563 88.5563 232.146 87.5691C231.861 86.8938 231.489 86.5273 231.028 86.4697C230.544 86.4091 229.77 86.6937 228.707 87.3234L227.962 86.1968L236.475 80.9878C238.419 82.7565 239.603 84.1102 240.027 85.049C240.451 85.9878 240.566 87.2324 240.372 88.7828L240.217 90.0183L251.882 82.9155Z" fill="black"/>
<path d="M251.882 82.9155L254.953 80.3521L252.745 77.7071L249.802 79.499L251.882 82.9155ZM257.146 89.2208L254.076 91.7842L256.513 94.7039L259.552 92.4167L257.146 89.2208ZM261.098 86.246L264.211 83.7336L261.782 80.7248L258.693 83.0502L261.098 86.246ZM261.993 87.3545L264.305 90.6188L267.781 88.1569L265.106 84.8421L261.993 87.3545ZM255.344 115.716L258.981 114.049L258.959 114.001L258.935 113.953L255.344 115.716ZM258.878 115.494L262.321 113.456L260.315 110.066L256.894 112.02L258.878 115.494ZM259.61 116.729L261.739 120.115L265.034 118.042L263.052 114.692L259.61 116.729ZM250.997 122.147L248.202 125.008L250.457 127.212L253.127 125.533L250.997 122.147ZM247.613 117.627L243.809 118.864L243.825 118.911L243.841 118.958L247.613 117.627ZM249.996 91.7955L253.965 92.292L254.193 90.4738L252.965 89.114L249.996 91.7955ZM246.463 87.8841L249.431 85.2027L247.209 82.7427L244.379 84.4699L246.463 87.8841ZM239.99 91.8352L237.906 88.4209L236.26 89.4254L236.021 91.3386L239.99 91.8352ZM237.403 112.511L233.434 112.015L233.228 113.659L234.245 114.967L237.403 112.511ZM239.692 115.455L241.8 118.854L245.58 116.511L242.849 113L239.692 115.455ZM232.61 119.847L229.737 122.63L231.979 124.944L234.718 123.246L232.61 119.847ZM226.792 113.841L224.465 110.588L220.688 113.289L223.919 116.624L226.792 113.841ZM229.954 111.579L232.281 114.833L233.705 113.814L233.923 112.076L229.954 111.579ZM232.146 87.5691L228.46 89.1224L228.462 89.128L232.146 87.5691ZM228.707 87.3234L225.37 89.5294L227.47 92.7055L230.746 90.7648L228.707 87.3234ZM227.962 86.1968L225.875 82.7849L222.341 84.9471L224.626 88.4028L227.962 86.1968ZM236.475 80.9878L239.167 78.0292L236.947 76.0095L234.387 77.5759L236.475 80.9878ZM240.217 90.0183L236.248 89.5217L235.219 97.7445L242.297 93.4348L240.217 90.0183ZM248.812 85.4789L254.076 91.7842L260.217 86.6574L254.953 80.3521L248.812 85.4789ZM259.552 92.4167L263.504 89.4419L258.693 83.0502L254.741 86.0249L259.552 92.4167ZM257.986 88.7584L258.881 89.8669L265.106 84.8421L264.211 83.7336L257.986 88.7584ZM259.681 84.0901C258.666 84.8088 257.772 85.4985 257.035 86.1534C256.345 86.7677 255.592 87.5248 255.056 88.3983L261.871 92.5873C261.798 92.7068 261.865 92.5638 262.351 92.132C262.791 91.7408 263.43 91.2384 264.305 90.6188L259.681 84.0901ZM255.056 88.3983C254.013 90.0938 253.484 92.1688 253.217 94.3021L261.156 95.2953C261.355 93.698 261.678 92.9023 261.871 92.5873L255.056 88.3983ZM253.217 94.3021L251.058 111.563L258.996 112.556L261.156 95.2953L253.217 94.3021ZM251.058 111.563C250.823 113.44 250.83 115.596 251.754 117.478L258.935 113.953C259.003 114.091 258.964 114.088 258.941 113.826C258.919 113.57 258.921 113.158 258.996 112.556L251.058 111.563ZM251.708 117.383C252.204 118.464 253.404 120.279 255.806 120.58L256.799 112.642C257.54 112.734 258.123 113.073 258.503 113.427C258.839 113.741 258.966 114.017 258.981 114.049L251.708 117.383ZM255.806 120.58C256.679 120.689 257.406 120.507 257.717 120.421C258.113 120.312 258.483 120.167 258.793 120.033C259.417 119.762 260.121 119.391 260.863 118.967L256.894 112.02C256.585 112.197 256.322 112.341 256.101 112.455C255.877 112.571 255.716 112.647 255.609 112.694C255.49 112.745 255.495 112.735 255.592 112.708C255.644 112.694 255.765 112.663 255.936 112.641C256.096 112.62 256.404 112.592 256.799 112.642L255.806 120.58ZM255.436 117.531L256.167 118.766L263.052 114.692L262.321 113.456L255.436 117.531ZM257.48 113.343L248.867 118.761L253.127 125.533L261.739 120.115L257.48 113.343ZM253.792 119.286C252.073 117.606 251.503 116.631 251.385 116.296L243.841 118.958C244.595 121.095 246.281 123.132 248.202 125.008L253.792 119.286ZM251.417 116.39C251.294 116.012 251.147 114.815 251.46 112.314L243.522 111.321C243.18 114.053 243.115 116.728 243.809 118.864L251.417 116.39ZM251.46 112.314L253.965 92.292L246.027 91.2989L243.522 111.321L251.46 112.314ZM252.965 89.114L249.431 85.2027L243.495 90.5656L247.028 94.4769L252.965 89.114ZM244.379 84.4699L237.906 88.4209L242.074 95.2494L248.547 91.2984L244.379 84.4699ZM236.021 91.3386L233.434 112.015L241.372 113.008L243.959 92.3318L236.021 91.3386ZM234.245 114.967L236.534 117.91L242.849 113L240.56 110.056L234.245 114.967ZM237.584 112.056L230.502 116.447L234.718 123.246L241.8 118.854L237.584 112.056ZM235.483 117.063L229.665 111.058L223.919 116.624L229.737 122.63L235.483 117.063ZM229.119 117.094L232.281 114.833L227.626 108.326L224.465 110.588L229.119 117.094ZM233.923 112.076L236.246 93.5074L228.308 92.5142L225.984 111.083L233.923 112.076ZM236.246 93.5074C236.425 92.0722 236.519 90.7468 236.491 89.5736C236.464 88.4632 236.325 87.1803 235.829 86.0102L228.462 89.128C228.385 88.9451 228.476 89.0628 228.493 89.7663C228.508 90.407 228.459 91.3088 228.308 92.5142L236.246 93.5074ZM235.832 86.0158C235.334 84.8355 234.102 82.8232 231.525 82.5007L230.532 90.4388C229.781 90.3449 229.204 89.9899 228.847 89.639C228.538 89.3349 228.446 89.0894 228.46 89.1224L235.832 86.0158ZM231.525 82.5007C230.354 82.3541 229.33 82.6535 228.704 82.8835C228.006 83.1402 227.317 83.4979 226.668 83.882L230.746 90.7648C230.944 90.6473 231.106 90.56 231.233 90.4967C231.362 90.4325 231.437 90.4022 231.465 90.3918C231.498 90.3799 231.441 90.404 231.312 90.4271C231.188 90.4491 230.91 90.4861 230.532 90.4388L231.525 82.5007ZM232.044 85.1174L231.299 83.9909L224.626 88.4028L225.37 89.5294L232.044 85.1174ZM230.05 89.6088L238.563 84.3997L234.387 77.5759L225.875 82.7849L230.05 89.6088ZM233.783 83.9464C234.689 84.7705 235.352 85.4394 235.81 85.9628C236.305 86.5292 236.408 86.755 236.381 86.695L243.672 83.4031C243.222 82.4042 242.521 81.4838 241.832 80.6964C241.106 79.8661 240.205 78.9738 239.167 78.0292L233.783 83.9464ZM236.381 86.695C236.376 86.6842 236.423 86.7827 236.448 87.0544C236.473 87.3279 236.472 87.7299 236.403 88.2862L244.341 89.2794C244.582 87.3484 244.517 85.2741 243.672 83.4031L236.381 86.695ZM236.403 88.2862L236.248 89.5217L244.186 90.5149L244.341 89.2794L236.403 88.2862ZM242.297 93.4348L253.963 86.332L249.802 79.499L238.137 86.6018L242.297 93.4348Z" fill="white"/>
<path d="M284.784 88.1959L295 95.5392L302.327 93.4033L300.817 101.504L294.572 99.0355L291.525 115.38C291.033 118.02 290.856 119.837 290.993 120.831C291.173 122.131 291.761 123.706 292.758 125.556C294.349 128.609 295.037 130.712 294.823 131.864C294.608 133.016 293.85 134.017 292.549 134.867C291.272 135.722 288.064 136.813 282.924 138.139C281.423 137.264 279.968 136.545 278.558 135.984C277.143 135.447 275.775 135.056 274.455 134.81C271.287 134.219 267.522 134.101 263.16 134.455L262.884 133.137L273.232 124.784L265.877 117.081L270.736 91.0159C275.676 90.8937 280.359 89.9537 284.784 88.1959ZM287.277 97.6011L278.044 92.3782L273.648 115.959L278.288 120.847L283.794 116.286L287.277 97.6011ZM270.206 129.026C273.421 129.104 275.988 129.321 277.908 129.679C279.636 130.001 281.333 130.554 283 131.336C284.691 132.123 286.35 133.153 287.975 134.424L289.626 133.764C286.949 130.135 285.21 127.278 284.407 125.191C283.604 123.104 283.252 120.928 283.351 118.662L270.206 129.026Z" fill="black"/>
<path d="M284.784 88.1959L287.119 84.9478L285.341 83.6704L283.307 84.4784L284.784 88.1959ZM295 95.5392L292.666 98.7872L294.249 99.9248L296.12 99.3793L295 95.5392ZM302.327 93.4033L306.26 94.1364L307.451 87.7432L301.208 89.5632L302.327 93.4033ZM300.817 101.504L299.347 105.224L303.86 107.007L304.75 102.237L300.817 101.504ZM294.572 99.0355L296.042 95.3155L291.529 93.532L290.64 98.3025L294.572 99.0355ZM292.758 125.556L296.305 123.707L296.292 123.683L296.279 123.659L292.758 125.556ZM292.549 134.867L290.361 131.519L290.342 131.531L290.324 131.543L292.549 134.867ZM282.924 138.139L280.908 141.594L282.33 142.424L283.924 142.012L282.924 138.139ZM278.558 135.984L280.036 132.267L280.006 132.256L279.977 132.244L278.558 135.984ZM263.16 134.455L259.244 135.274L259.967 138.727L263.483 138.442L263.16 134.455ZM262.884 133.137L260.372 130.024L258.467 131.561L258.969 133.956L262.884 133.137ZM273.232 124.784L275.745 127.897L279.128 125.167L276.125 122.022L273.232 124.784ZM265.877 117.081L261.945 116.347L261.569 118.361L262.984 119.843L265.877 117.081ZM270.736 91.0159L270.637 87.0171L267.397 87.0972L266.804 90.2828L270.736 91.0159ZM287.277 97.6011L291.21 98.3342L291.733 95.526L289.247 94.1195L287.277 97.6011ZM278.044 92.3782L280.013 88.8966L275.138 86.1389L274.112 91.6452L278.044 92.3782ZM273.648 115.959L269.716 115.226L269.342 117.232L270.747 118.712L273.648 115.959ZM278.288 120.847L275.386 123.601L277.96 126.312L280.839 123.927L278.288 120.847ZM283.794 116.286L286.346 119.366L287.461 118.442L287.727 117.019L283.794 116.286ZM270.206 129.026L267.73 125.885L259.014 132.757L270.11 133.025L270.206 129.026ZM283 131.336L281.3 134.957L281.312 134.963L283 131.336ZM287.975 134.424L285.511 137.575L287.324 138.994L289.462 138.138L287.975 134.424ZM289.626 133.764L291.112 137.477L295.917 135.553L292.845 131.389L289.626 133.764ZM283.351 118.662L287.348 118.837L287.731 110.115L280.875 115.521L283.351 118.662ZM282.449 91.4439L292.666 98.7872L297.335 92.2911L287.119 84.9478L282.449 91.4439ZM296.12 99.3793L303.447 97.2435L301.208 89.5632L293.881 91.699L296.12 99.3793ZM298.395 92.6703L296.885 100.771L304.75 102.237L306.26 94.1364L298.395 92.6703ZM302.288 97.7835L296.042 95.3155L293.102 102.756L299.347 105.224L302.288 97.7835ZM290.64 98.3025L287.593 114.647L295.458 116.113L298.504 99.7685L290.64 98.3025ZM287.593 114.647C287.112 117.228 286.792 119.654 287.031 121.379L294.956 120.283C294.957 120.297 294.946 120.211 294.949 119.988C294.952 119.774 294.968 119.486 295.004 119.111C295.078 118.358 295.224 117.367 295.458 116.113L287.593 114.647ZM287.031 121.379C287.304 123.349 288.133 125.405 289.236 127.453L296.279 123.659C295.39 122.008 295.043 120.914 294.956 120.283L287.031 121.379ZM289.21 127.405C289.954 128.831 290.416 129.905 290.666 130.667C290.789 131.044 290.839 131.28 290.856 131.398C290.875 131.531 290.838 131.41 290.89 131.131L298.755 132.597C299.052 131.002 298.667 129.395 298.269 128.178C297.83 126.838 297.152 125.334 296.305 123.707L289.21 127.405ZM290.89 131.131C290.905 131.053 290.935 131.023 290.904 131.065C290.859 131.123 290.714 131.288 290.361 131.519L294.737 138.216C296.641 136.971 298.281 135.139 298.755 132.597L290.89 131.131ZM290.324 131.543C290.156 131.656 289.47 132.005 287.898 132.539C286.426 133.04 284.445 133.616 281.924 134.266L283.924 142.012C286.543 141.336 288.736 140.704 290.473 140.113C292.109 139.557 293.665 138.934 294.774 138.191L290.324 131.543ZM284.94 134.685C283.291 133.722 281.656 132.912 280.036 132.267L277.079 139.701C278.28 140.179 279.556 140.805 280.908 141.594L284.94 134.685ZM279.977 132.244C278.367 131.634 276.77 131.172 275.188 130.877L273.722 138.742C274.781 138.939 275.919 139.261 277.138 139.724L279.977 132.244ZM275.188 130.877C271.573 130.204 267.435 130.095 262.836 130.468L263.483 138.442C267.609 138.107 271.001 138.235 273.722 138.742L275.188 130.877ZM267.075 133.636L266.799 132.318L258.969 133.956L259.244 135.274L267.075 133.636ZM265.396 136.25L275.745 127.897L270.72 121.672L260.372 130.024L265.396 136.25ZM276.125 122.022L268.77 114.318L262.984 119.843L270.339 127.547L276.125 122.022ZM269.809 117.814L274.668 91.7489L266.804 90.2828L261.945 116.347L269.809 117.814ZM270.835 95.0146C276.229 94.8812 281.38 93.8521 286.261 91.9133L283.307 84.4784C279.337 86.0553 275.123 86.9062 270.637 87.0171L270.835 95.0146ZM289.247 94.1195L280.013 88.8966L276.075 95.8598L285.308 101.083L289.247 94.1195ZM274.112 91.6452L269.716 115.226L277.58 116.692L281.976 93.1112L274.112 91.6452ZM270.747 118.712L275.386 123.601L281.189 118.093L276.549 113.205L270.747 118.712ZM280.839 123.927L286.346 119.366L281.243 113.205L275.736 117.766L280.839 123.927ZM287.727 117.019L291.21 98.3342L283.345 96.8681L279.862 115.553L287.727 117.019ZM270.11 133.025C273.228 133.1 275.555 133.31 277.175 133.612L278.641 125.747C276.42 125.333 273.613 125.107 270.303 125.027L270.11 133.025ZM277.175 133.612C278.553 133.868 279.926 134.312 281.3 134.957L284.7 127.716C282.74 126.795 280.718 126.134 278.641 125.747L277.175 133.612ZM281.312 134.963C282.7 135.609 284.1 136.471 285.511 137.575L290.44 131.274C288.599 129.834 286.683 128.638 284.688 127.71L281.312 134.963ZM289.462 138.138L291.112 137.477L288.139 130.05L286.488 130.711L289.462 138.138ZM292.845 131.389C290.211 127.819 288.741 125.317 288.14 123.755L280.673 126.628C281.678 129.239 283.687 132.452 286.407 136.138L292.845 131.389ZM288.14 123.755C287.537 122.189 287.272 120.562 287.348 118.837L279.355 118.486C279.232 121.294 279.67 124.02 280.673 126.628L288.14 123.755ZM280.875 115.521L267.73 125.885L272.683 132.167L285.828 121.803L280.875 115.521Z" fill="white"/>
</svg>
