<svg width="17" height="17" viewBox="0 0 17 17" fill="none" xmlns="http://www.w3.org/2000/svg">
<path fill-rule="evenodd" clip-rule="evenodd" d="M8.87971 1.69951C12.7774 1.76748 15.8819 4.98215 15.8139 8.87983C15.7459 12.7773 12.5313 15.8819 8.63375 15.8139C4.73607 15.7459 1.63161 12.5312 1.6996 8.63376C1.76757 4.73608 4.98204 1.63164 8.87971 1.69951Z" fill="#CC6900"/>
<path fill-rule="evenodd" clip-rule="evenodd" d="M8.11781 1.05385C12.0155 1.12182 15.12 4.33638 15.0521 8.23396C14.9841 12.1316 11.7695 15.236 7.87184 15.1681C3.97427 15.1002 0.869708 11.8856 0.937688 7.988C1.00567 4.09042 4.22023 0.985868 8.11781 1.05385Z" fill="#FDCF06"/>
<path fill-rule="evenodd" clip-rule="evenodd" d="M13.3701 9.31354C13.5552 8.45957 14.1005 7.78531 15.0061 7.29059C15.0418 7.5994 15.0575 7.91462 15.0521 8.23397C14.9841 12.1317 11.7694 15.236 7.87184 15.1681C4.70709 15.1129 2.06492 12.9831 1.21998 10.0974C2.53249 9.92704 3.75983 10.4544 4.90207 11.6791C8.89578 12.7433 11.7184 11.9547 13.3701 9.31354Z" fill="#CC9406"/>
<path fill-rule="evenodd" clip-rule="evenodd" d="M4.26518 4.46281C4.36787 4.32214 4.48182 4.20068 4.60819 4.0961C5.81268 3.09785 10.3496 3.17644 11.5194 4.21646C11.6418 4.32549 11.7518 4.45089 11.8495 4.59506C12.9526 6.22106 12.8843 10.1719 11.7247 11.759C11.622 11.8997 11.5077 12.0212 11.3815 12.126C10.1762 13.1246 5.63928 13.045 4.47034 12.0054C4.34769 11.8964 4.238 11.7711 4.14029 11.6268C3.03658 10.0002 3.10592 6.04948 4.26518 4.46281Z" fill="#0F0303"/>
<path fill-rule="evenodd" clip-rule="evenodd" d="M3.15685 3.16861C3.88278 2.57337 4.68586 2.35252 4.95056 2.67518C5.2152 2.99806 4.84124 3.74225 4.1153 4.33748C3.38937 4.93272 2.5862 5.15368 2.32158 4.8309C2.05686 4.50814 2.43091 3.76384 3.15685 3.16861Z" fill="#FFF1B2"/>
<path fill-rule="evenodd" clip-rule="evenodd" d="M8.11782 1.05385C9.14032 1.07161 10.1079 1.3061 10.9781 1.71255C10.7277 2.14751 10.3469 2.43268 9.72019 2.34077C8.74308 2.1973 7.71265 2.19595 6.47179 2.28408C5.84803 2.32839 5.47876 2.03759 5.24358 1.60945C6.12555 1.23565 7.09824 1.0361 8.11782 1.05385ZM14.4934 5.35251C14.8693 6.23657 15.0698 7.21157 15.0521 8.23397C15.0343 9.25355 14.8008 10.2186 14.3965 11.0871C13.977 10.8372 13.6991 10.458 13.7651 9.83613C13.8965 8.59918 13.9311 7.56929 13.8217 6.58775C13.7517 5.95834 14.0501 5.58777 14.4934 5.35251ZM10.7533 14.6095C9.86954 14.9854 8.89435 15.1859 7.87185 15.1681C6.85246 15.1503 5.88721 14.9168 5.01879 14.5127C5.26855 14.0931 5.64782 13.8153 6.26969 13.8813C7.50665 14.0127 8.53662 14.0471 9.51807 13.9379C10.1476 13.8678 10.5181 14.1661 10.7533 14.6095ZM1.49339 10.8622C1.1197 9.98025 0.919931 9.00749 0.937688 7.9879C0.955561 6.9656 1.19004 5.99793 1.59649 5.12767C2.03126 5.37825 2.31652 5.75894 2.22461 6.38564C2.08113 7.36265 2.07979 8.39317 2.16802 9.63402C2.21225 10.2579 1.92143 10.6271 1.49339 10.8622Z" fill="#0F0303"/>
</svg>
