<svg width="100" height="93" viewBox="0 0 100 93" fill="none" xmlns="http://www.w3.org/2000/svg">
<path d="M25.1459 6.20058L15.6562 2.09373L11.0796 5.69069L8.52789 15.0248L18.0196 19.131L22.5044 15.6071L22.5947 15.5342L25.1459 6.20058Z" fill="#CC6900"/>
<path d="M21.8857 14.142L24.4371 4.80832L19.8622 8.40418L17.3108 17.7386L21.7955 14.2149L21.8857 14.142Z" fill="#C1BFBF"/>
<path d="M24.4371 4.80832L14.9472 0.701477L10.3708 4.29854L19.8622 8.40418L24.3463 4.88046L24.4371 4.80832Z" fill="#F8F8F9"/>
<path d="M17.3108 17.7386L7.81897 13.6325L10.3708 4.29854L19.8622 8.40418L17.3108 17.7386Z" fill="#F8F8F9"/>
<path d="M10.968 6.64592C11.0857 6.21417 11.5355 6.02043 11.97 6.20808C12.4089 6.39812 12.6676 6.89931 12.5497 7.32866C12.4333 7.75851 11.9836 7.95395 11.5447 7.7643C11.1104 7.57646 10.8517 7.07357 10.968 6.64592ZM17.3108 17.7386L7.81897 13.6325L10.3708 4.29854L19.8622 8.40418L17.3108 17.7386ZM9.43625 12.2446C9.55515 11.8143 10.005 11.6199 10.4397 11.8085C10.8774 11.9975 11.1373 12.4995 11.0201 12.9292C10.9026 13.3584 10.4528 13.5539 10.0149 13.3637C9.57763 13.1754 9.31994 12.6745 9.43625 12.2446ZM13.05 10.678C13.1682 10.2459 13.617 10.0511 14.054 10.2407C14.4903 10.4297 14.75 10.9305 14.6321 11.3615C14.5144 11.7905 14.0657 11.9847 13.6281 11.795C13.1922 11.6078 12.933 11.1049 13.05 10.678ZM16.6628 9.109C16.7804 8.67806 17.2307 8.48481 17.6662 8.67206C18.1048 8.86191 18.363 9.3629 18.2447 9.79285C18.127 10.2221 17.6781 10.4177 17.2415 10.2282C16.8056 10.0386 16.546 9.53695 16.6628 9.109ZM15.1322 14.7085C15.2498 14.2778 15.7006 14.0832 16.1342 14.272C16.5729 14.4607 16.832 14.9644 16.7141 15.3937C16.5975 15.8224 16.1486 16.0175 15.7098 15.828C15.2747 15.6395 15.0152 15.1378 15.1322 14.7085Z" fill="#D1CFCE"/>
<path d="M14.6321 11.3615C14.75 10.9305 14.4903 10.4297 14.054 10.2407C13.617 10.0511 13.1682 10.2459 13.05 10.678C12.933 11.1049 13.1922 11.6078 13.6281 11.795C14.0656 11.9846 14.5144 11.7905 14.6321 11.3615Z" fill="#B5B3B2"/>
<path d="M11.02 12.9292C11.1372 12.4995 10.8774 11.9975 10.4397 11.8085C10.005 11.6198 9.55513 11.8143 9.43623 12.2446C9.31993 12.6745 9.57762 13.1754 10.0149 13.3637C10.4528 13.5539 10.9026 13.3584 11.02 12.9292Z" fill="#B5B3B2"/>
<path d="M12.5497 7.32866C12.6676 6.89931 12.4089 6.39812 11.97 6.20808C11.5355 6.02043 11.0857 6.21417 10.968 6.64592C10.8517 7.07357 11.1104 7.57646 11.5447 7.7643C11.9835 7.95395 12.4333 7.75851 12.5497 7.32866Z" fill="#B5B3B2"/>
<path d="M16.7141 15.3937C16.832 14.9644 16.5729 14.4607 16.1342 14.272C15.7006 14.0832 15.2498 14.2778 15.1322 14.7085C15.0152 15.1378 15.2747 15.6395 15.7098 15.828C16.1485 16.0175 16.5975 15.8224 16.7141 15.3937Z" fill="#B5B3B2"/>
<path d="M18.2447 9.79285C18.3631 9.3629 18.1048 8.86191 17.6662 8.67206C17.2307 8.48482 16.7804 8.67806 16.6628 9.10901C16.546 9.53696 16.8056 10.0386 17.2415 10.2282C17.6781 10.4177 18.127 10.2221 18.2447 9.79285Z" fill="#B5B3B2"/>
<path d="M14.6321 11.3615C14.75 10.9305 14.4903 10.4297 14.054 10.2407C13.617 10.0511 13.1682 10.2459 13.05 10.678C12.9331 11.1049 13.1922 11.6078 13.6281 11.795C14.0657 11.9846 14.5144 11.7905 14.6321 11.3615Z" fill="#464240"/>
<path d="M11.02 12.9292C11.1373 12.4994 10.8774 11.9975 10.4397 11.8084C10.005 11.6199 9.55513 11.8143 9.43623 12.2446C9.31993 12.6745 9.57762 13.1754 10.0149 13.3637C10.4528 13.5539 10.9027 13.3584 11.02 12.9292Z" fill="#464240"/>
<path d="M12.5497 7.32866C12.6676 6.89931 12.4089 6.39812 11.97 6.20807C11.5355 6.02033 11.0857 6.21417 10.968 6.64592C10.8517 7.07357 11.1104 7.57645 11.5447 7.7643C11.9836 7.95395 12.4333 7.75851 12.5497 7.32866Z" fill="#464240"/>
<path d="M16.7141 15.3936C16.832 14.9643 16.5729 14.4606 16.1342 14.272C15.7006 14.0832 15.2498 14.2778 15.1322 14.7085C15.0152 15.1378 15.2747 15.6395 15.7098 15.828C16.1485 16.0175 16.5975 15.8224 16.7141 15.3936Z" fill="#464240"/>
<path d="M18.2447 9.79285C18.363 9.3629 18.1048 8.86191 17.6662 8.67206C17.2308 8.48482 16.7804 8.67806 16.6628 9.10901C16.546 9.53696 16.8057 10.0386 17.2415 10.2282C17.6781 10.4177 18.1271 10.2221 18.2447 9.79285Z" fill="#464240"/>
<path d="M19.3013 6.53361C18.8623 6.34357 18.3451 6.32009 18.1425 6.47926C17.9404 6.63793 18.13 6.92 18.5689 7.10784C19.004 7.29729 19.5239 7.32257 19.7239 7.163C19.9268 7.00433 19.737 6.72276 19.3013 6.53361Z" fill="#464240"/>
<path d="M13.6042 4.06953C13.167 3.88048 12.6505 3.8559 12.4477 4.01477C12.245 4.17264 12.4351 4.45471 12.8739 4.64466C13.3096 4.8328 13.826 4.85718 14.0289 4.69861C14.2319 4.54094 14.041 4.25817 13.6042 4.06953Z" fill="#464240"/>
<path d="M21.9367 4.4619C21.4989 4.27305 20.9805 4.24727 20.7786 4.40744C20.5757 4.56541 20.7653 4.84838 21.2047 5.03822C21.6399 5.22667 22.1579 5.24965 22.3601 5.09218C22.5614 4.93271 22.372 4.64944 21.9367 4.4619Z" fill="#464240"/>
<path d="M16.2423 1.99752C15.8029 1.80868 15.286 1.7852 15.0828 1.94307C14.8808 2.10174 15.0715 2.38391 15.5093 2.57315C15.9439 2.7626 16.4622 2.78588 16.6634 2.62701C16.8673 2.46814 16.6777 2.18697 16.2423 1.99752Z" fill="#464240"/>
<path d="M19.9222 12.0213C20.0403 11.5901 19.9718 11.3723 19.7679 11.5316C19.5657 11.6902 19.3081 12.1668 19.1899 12.5974C19.0729 13.0274 19.1425 13.2457 19.343 13.0868C19.5462 12.9276 19.8053 12.4513 19.9222 12.0213Z" fill="#464240"/>
<path d="M22.5587 9.95051C22.6755 9.51976 22.6064 9.30104 22.4044 9.45961C22.2024 9.61878 21.9433 10.0951 21.8251 10.5257C21.7091 10.9548 21.778 11.1753 21.979 11.016C22.1818 10.858 22.4418 10.3791 22.5587 9.95051Z" fill="#464240"/>
<path d="M19.1576 14.8221C19.2748 14.39 19.2057 14.1727 19.0025 14.3306C18.8016 14.4898 18.5426 14.9663 18.4258 15.3971C18.3074 15.8265 18.3771 16.0461 18.5784 15.8877C18.7808 15.7274 19.0398 15.2509 19.1576 14.8221Z" fill="#464240"/>
<path d="M20.6869 9.22081C20.8059 8.79126 20.7362 8.57194 20.534 8.73061C20.3322 8.89038 20.0732 9.36699 19.9553 9.79764C19.838 10.226 19.907 10.4463 20.1088 10.287C20.3103 10.128 20.5705 9.65036 20.6869 9.22081Z" fill="#464240"/>
<path d="M21.7928 12.751C21.9104 12.3192 21.8412 12.1009 21.6397 12.2593C21.4371 12.4183 21.1785 12.8964 21.0598 13.3256C20.9429 13.7555 21.0119 13.9743 21.2138 13.8158C21.4154 13.6572 21.6746 13.1806 21.7928 12.751Z" fill="#464240"/>
<path d="M23.3232 7.14981C23.4414 6.72056 23.3705 6.50044 23.1692 6.65891C22.9685 6.81818 22.7092 7.29599 22.5918 7.72633C22.4733 8.15538 22.5427 8.3729 22.7448 8.21513C22.9462 8.05666 23.2058 7.57865 23.3232 7.14981Z" fill="#464240"/>
<path d="M11.4009 15.6912L7.96075 9.7205L7.48364 13.8362L10.9238 19.8074L11.3901 15.7741L11.4009 15.6912Z" fill="#C1BFBF"/>
<path d="M7.96073 9.7205L1.12552 12.4607L0.649414 16.5757L7.48362 13.8362L7.95214 9.80334L7.96073 9.7205Z" fill="#F8F8F9"/>
<path d="M10.9238 19.8074L4.0878 22.547L0.649414 16.5757L7.48362 13.8362L10.9238 19.8074Z" fill="#F8F8F9"/>
<path d="M7.48373 13.8363L5.6852 14.557L0.649414 16.5757L4.0878 22.547L10.9238 19.8074L7.48373 13.8363Z" fill="#D1CFCE"/>
<path d="M4.30522 18.7859C4.14695 18.5096 3.76396 18.389 3.44722 18.5156C3.13358 18.6412 3.00808 18.9667 3.16485 19.243C3.32442 19.516 3.70741 19.6369 4.02155 19.5108C4.3372 19.3846 4.46399 19.0598 4.30522 18.7859Z" fill="#464240"/>
<path d="M8.40638 17.1415C8.24871 16.8668 7.86532 16.7458 7.55008 16.8732C7.23574 16.9983 7.10944 17.3225 7.26731 17.5981C7.42508 17.8725 7.80867 17.9928 8.12391 17.8677C8.43795 17.7408 8.56505 17.415 8.40638 17.1415Z" fill="#464240"/>
<path d="M5.33757 20.5761C5.1795 20.3016 4.79521 20.1803 4.47917 20.3065C4.16683 20.433 4.03843 20.7575 4.1983 21.0331C4.35577 21.3077 4.73876 21.4285 5.0532 21.3028C5.36815 21.1751 5.49614 20.8505 5.33757 20.5761Z" fill="#464240"/>
<path d="M3.27358 16.995C3.11571 16.7197 2.73162 16.5985 2.41638 16.7249C2.10174 16.8509 1.97574 17.1752 2.13481 17.4514C2.29228 17.7249 2.67597 17.8443 2.99031 17.7192C3.30595 17.5937 3.43225 17.2686 3.27358 16.995Z" fill="#464240"/>
<path d="M9.43954 18.9323C9.28027 18.6564 8.89699 18.5363 8.58224 18.6643C8.2675 18.7898 8.14071 19.1134 8.29968 19.3893C8.45725 19.6637 8.84123 19.7844 9.15508 19.6581C9.46982 19.5313 9.59741 19.2073 9.43954 18.9323Z" fill="#464240"/>
<path d="M7.37534 15.3498C7.21687 15.0753 6.83338 14.9543 6.51854 15.0806C6.2047 15.2077 6.077 15.5314 6.23607 15.8075C6.39384 16.0826 6.77733 16.2024 7.09127 16.0765C7.40701 15.9496 7.53371 15.6253 7.37534 15.3498Z" fill="#464240"/>
<path d="M2.1551 14.8256C1.84006 14.9527 1.56808 15.2025 1.5464 15.3841C1.52591 15.5659 1.76332 15.6122 2.07816 15.4849C2.39311 15.3604 2.66488 15.11 2.68617 14.9281C2.70715 14.7462 2.46934 14.7007 2.1551 14.8256Z" fill="#464240"/>
<path d="M6.5312 10.8109C6.21536 10.9381 5.94328 11.1881 5.9225 11.3704C5.90142 11.5513 6.13982 11.5962 6.45566 11.4702C6.76971 11.3451 7.04229 11.0941 7.06247 10.9143C7.08275 10.7309 6.84495 10.6849 6.5312 10.8109Z" fill="#464240"/>
<path d="M9.4806 14.4349C9.32203 14.159 9.17645 14.0842 9.15596 14.266C9.13428 14.448 9.24529 14.8183 9.40396 15.0932C9.56243 15.3667 9.70741 15.4434 9.7287 15.2615C9.74998 15.079 9.63827 14.7084 9.4806 14.4349Z" fill="#464240"/>
<path d="M8.31116 13.8298C8.15279 13.5529 8.00791 13.4781 7.98643 13.6609C7.96495 13.8417 8.07726 14.2116 8.23533 14.4882C8.394 14.7624 8.53848 14.8375 8.56006 14.6555C8.58054 14.4739 8.46983 14.1033 8.31116 13.8298Z" fill="#464240"/>
<path d="M10.6498 15.0401C10.4905 14.7653 10.3458 14.6893 10.3242 14.872C10.3035 15.0537 10.415 15.4233 10.574 15.6982C10.731 15.9728 10.8759 16.0475 10.8971 15.866C10.9189 15.6849 10.8077 15.3152 10.6498 15.0401Z" fill="#464240"/>
<path d="M96.2423 36.0581L92.208 30.3015L95.0075 26.3919C95.6557 25.4858 95.445 24.2123 94.5397 23.5637L89.0424 19.6272L90.3733 16.0013C90.7587 14.9549 90.2176 13.7862 89.1712 13.4017L82.9564 11.1198L83.2899 7.43686C83.39 6.32907 82.5631 5.33758 81.4527 5.23716L58.582 3.16815C57.4711 3.06564 56.4809 3.89266 56.3812 5.00325L53.6074 35.6764C53.5855 35.913 53.6144 36.141 53.6703 36.359C53.7623 36.9778 54.1335 37.5333 54.7015 37.8424C54.7988 37.9506 54.9061 38.0517 55.0297 38.1392L55.2575 38.3028L67.7042 56.0627C68.3412 56.9735 69.6127 57.1978 70.5245 56.5575L95.7452 38.8808C96.6585 38.2409 96.8817 36.972 96.2423 36.0581Z" fill="#CC6900"/>
<path d="M81.9185 35.2846C81.8174 36.3936 80.8275 37.2187 79.7162 37.121L56.8455 35.0511C55.7343 34.9515 54.9093 33.9613 55.0104 32.8499L57.7843 2.17607C57.8846 1.06627 58.8743 0.23845 59.9852 0.340966L82.8565 2.41007C83.9662 2.51029 84.7931 3.50238 84.6931 4.60948L81.9185 35.2846Z" fill="#F7F7F8"/>
<path d="M61.7687 6.84685L61.0903 6.7869L61.0433 6.00184L60.2184 5.9269L60.0328 6.69058L59.417 6.63592L60.4854 2.41977L61.4715 2.5106L61.7687 6.84685ZM60.3579 5.35297L61.0032 5.41232L60.8767 3.22001L60.3579 5.35297Z" fill="#EC6451"/>
<path d="M61.031 8.04807C60.8235 8.03038 60.625 8.08394 60.4602 8.18855C60.3183 8.05606 60.1327 7.96644 59.9244 7.95005C59.4246 7.90209 58.9803 8.27328 58.9359 8.77398C58.8897 9.27716 59.7134 10.2951 59.7134 10.2951L60.2146 10.92L60.818 10.3935C60.818 10.3935 61.812 9.54145 61.8574 9.03736C61.9011 8.53857 61.5314 8.09593 61.031 8.04807Z" fill="#EC6451"/>
<path d="M77.6446 30.6579L78.319 30.7175L78.3657 31.5052L79.1915 31.5775L79.3768 30.8159L79.9952 30.8701L78.9238 35.0845L77.9396 34.9953L77.6446 30.6579ZM79.0517 32.1527L78.4057 32.0935L78.533 34.2858L79.0517 32.1527Z" fill="#E8584F"/>
<path d="M78.3799 29.4586C78.5889 29.4763 78.7863 29.4206 78.9508 29.3193C79.0914 29.4492 79.2778 29.5387 79.4858 29.5566C79.9863 29.6036 80.4295 29.2313 80.4758 28.7314C80.5198 28.2313 79.6968 27.2115 79.6968 27.2115L79.1966 26.5852L78.5924 27.1116C78.5924 27.1116 77.5964 27.965 77.5534 28.4691C77.5093 28.9679 77.8783 29.4107 78.3799 29.4586Z" fill="#E8584F"/>
<path d="M81.1611 42.0876C80.7764 43.1334 79.6052 43.675 78.5606 43.291L57.0022 35.3753C55.958 34.9888 55.4135 33.8211 55.8003 32.7734L66.4147 3.86239C66.8013 2.81674 67.9704 2.27309 69.0148 2.65897L90.5742 10.5742C91.6206 10.959 92.1617 12.1277 91.7771 13.1741L81.1611 42.0876Z" fill="#FEFEFE"/>
<path d="M55.8003 32.7734L66.4147 3.86238C66.8013 2.81674 67.9703 2.27298 69.0148 2.65897L68.3816 2.42546C67.336 2.04087 66.1677 2.58323 65.7824 3.63107L55.1659 32.542C54.7813 33.587 55.3223 34.7591 56.3666 35.1429L57.0022 35.3753C55.958 34.9888 55.4135 33.8211 55.8003 32.7734Z" fill="#252523" fill-opacity="0.101961"/>
<path d="M69.0553 9.40556L68.4159 9.17165L68.5743 8.40008L67.7986 8.11471L67.4202 8.80595L66.8362 8.59142L68.9613 4.79633L69.8901 5.13925L69.0553 9.40556ZM68.0785 7.59843L68.6884 7.82095L69.1319 5.67191L68.0785 7.59843Z" fill="#464240"/>
<path d="M78.3322 36.474L78.9736 36.7088L78.8135 37.4788L79.5902 37.7657L79.9687 37.0751L80.5502 37.2873L78.4248 41.0826L77.4973 40.7428L78.3322 36.474ZM79.3082 38.2831L78.6998 38.0588L78.2545 40.2102L79.3082 38.2831Z" fill="#464240"/>
<path d="M67.4511 12.6776C67.8371 12.8188 68.2636 12.6214 68.4043 12.2345C68.5459 11.8514 68.3493 11.423 67.9629 11.2817C67.9262 11.2667 67.8868 11.2594 67.8512 11.2507C67.9557 11.1696 68.0474 11.0573 68.0968 10.9202C68.2365 10.5348 68.04 10.1078 67.6558 9.9673C67.27 9.82482 66.8445 10.0255 66.7024 10.4067C66.652 10.5472 66.6462 10.6872 66.6725 10.819C66.6392 10.7999 66.6069 10.7826 66.5683 10.77C66.1825 10.6264 65.7568 10.8277 65.6146 11.2103C65.4743 11.595 65.6702 12.0215 66.0579 12.1655C66.2599 12.2406 66.4755 12.2172 66.6532 12.1226C66.5776 12.3026 66.4674 12.6723 65.7768 12.7697L66.5156 13.0415L67.2553 13.3134C66.792 12.7934 66.9484 12.4369 67.0049 12.2525L67.0151 12.2448C67.0903 12.4381 67.2417 12.5983 67.4511 12.6776Z" fill="#464240"/>
<path d="M79.9928 33.2242C79.6083 33.0818 79.1816 33.2806 79.0382 33.6636C78.8973 34.0517 79.0948 34.4774 79.4832 34.6197C79.5193 34.6312 79.5543 34.6426 79.5959 34.648C79.4869 34.7312 79.3987 34.8439 79.3466 34.98C79.2067 35.3675 79.4048 35.7928 79.7912 35.9348C80.1739 36.0762 80.6038 35.88 80.7423 35.4937C80.7951 35.3563 80.7998 35.2134 80.7697 35.0792C80.8038 35.0985 80.8384 35.118 80.8764 35.1316C81.2611 35.2735 81.6896 35.0763 81.8307 34.6909C81.9714 34.3048 81.7743 33.8803 81.3887 33.7357C81.1832 33.663 80.9705 33.6841 80.7896 33.777C80.8656 33.5999 80.9768 33.2284 81.6671 33.132L80.9276 32.8603L80.1866 32.5883C80.6525 33.1091 80.4949 33.4635 80.4384 33.6485L80.4275 33.6569C80.3524 33.4642 80.2018 33.3014 79.9928 33.2242Z" fill="#464240"/>
<path d="M78.4824 48.6061C77.8329 49.5139 76.5587 49.7239 75.6541 49.0754L56.9813 35.7049C56.0757 35.0584 55.8637 33.7833 56.515 32.8788L74.4428 7.83593C75.0921 6.93027 76.3636 6.71984 77.2724 7.36761L95.9434 20.7365C96.8478 21.3851 97.0594 22.6586 96.4106 23.5652L78.4824 48.6061Z" fill="#F7F7F8"/>
<path d="M56.515 32.8789L74.4429 7.83593C75.092 6.93027 76.3636 6.71985 77.2724 7.36762L76.7212 6.97484C75.8163 6.32817 74.5429 6.53719 73.8948 7.44365L55.9644 32.4869C55.3168 33.389 55.5257 34.6658 56.4326 35.312L56.9813 35.7049C56.0757 35.0583 55.8637 33.7833 56.515 32.8789Z" fill="#252523" fill-opacity="0.101961"/>
<path d="M75.5117 13.8828L74.9597 13.4847L75.3171 12.7834L74.6427 12.302L74.0942 12.8666L73.5928 12.5082L76.6506 9.41763L77.4531 9.99306L75.5117 13.8828ZM75.0535 11.8773L75.5827 12.2564L76.5808 10.3026L75.0535 11.8773Z" fill="#EC6451"/>
<path d="M77.1377 42.451L77.6917 42.8493L77.3335 43.5498L78.0064 44.0337L78.5547 43.4652L79.0576 43.8276L76.0004 46.9201L75.1965 46.3447L77.1377 42.451ZM77.5971 44.4568L77.0686 44.0762L76.0681 46.0333L77.5971 44.4568Z" fill="#E8584F"/>
<path d="M71.6573 25.3786L71.5266 35.1187L80.7037 31.8539L80.8355 22.1174L71.6573 25.3786Z" fill="#E8584F"/>
<path d="M71.9293 14.7899L71.9004 16.8977L73.8862 16.1909L73.9133 14.0818L71.9293 14.7899Z" fill="#EC6451"/>
<path d="M78.791 40.1429L78.7618 42.2518L80.7491 41.5461L80.7776 39.4377L78.791 40.1429Z" fill="#E8584F"/>
<path d="M71.9275 53.7302C71.0157 54.3711 69.7442 54.1463 69.108 53.2354L55.9259 34.4272C55.2878 33.514 55.5089 32.2456 56.4216 31.605L81.6428 13.9297C82.5562 13.287 83.8275 13.5132 84.4672 14.4242L97.6455 33.2309C98.2854 34.1447 98.0616 35.4137 97.1491 36.0537L71.9275 53.7302Z" fill="#FEFEFE"/>
<path d="M56.4216 31.605L81.6428 13.9297C82.5561 13.287 83.8275 13.5132 84.4672 14.4241L84.0781 13.873C83.4415 12.9593 82.1684 12.7371 81.2582 13.3748L56.0338 31.0537C55.1201 31.6937 54.8968 32.9612 55.5373 33.8757L55.9259 34.4272C55.2877 33.514 55.5089 32.2456 56.4216 31.605Z" fill="#E6E5E5"/>
<path d="M80.6482 19.9864L80.2564 19.4301L80.8255 18.8856L80.351 18.2078L79.6457 18.5577L79.2897 18.0564L83.2002 16.1497L83.7656 16.9598L80.6482 19.9864ZM80.8774 17.9436L81.2504 18.4759L82.843 16.9624L80.8774 17.9436Z" fill="#464240"/>
<path d="M80.4384 40.4686C83.593 38.258 84.8472 28.1798 84.8472 28.1798C84.8472 28.1798 74.9468 25.9206 71.7934 28.1321C69.7489 29.564 69.2982 32.438 70.7792 34.5528C71.2159 35.1748 71.7739 35.6546 72.3946 35.9989C71.782 36.3599 70.604 37.4424 68.025 36.1251L69.8303 38.7041L71.6375 41.2791C71.2837 38.4061 72.6983 37.6694 73.2478 37.2176C73.359 37.9175 73.6212 38.6064 74.054 39.2273C75.5379 41.341 78.3933 41.8992 80.4384 40.4686Z" fill="#464240"/>
<path d="M78.401 21.8042C78.9808 21.3985 79.2122 19.5507 79.2122 19.5507C79.2122 19.5507 77.3958 19.1351 76.8165 19.5429C76.4411 19.803 76.3585 20.3316 76.6323 20.721C76.7093 20.833 76.815 20.9215 76.9275 20.9845C76.8158 21.0495 76.6019 21.2471 76.1249 21.0084L76.457 21.4809L76.7899 21.9532C76.7236 21.4258 76.9836 21.29 77.0849 21.2078C77.1051 21.3352 77.1526 21.4617 77.2301 21.5747C77.5021 21.9612 78.0289 22.0664 78.401 21.8042Z" fill="#464240"/>
<path d="M72.8106 47.5074L73.2012 48.0621L72.6305 48.6085L73.1058 49.2864L73.8118 48.9358L74.1674 49.4419L70.2562 51.3436L69.6896 50.5356L72.8106 47.5074ZM72.5793 49.5519L72.2045 49.0166L70.6149 50.5278L72.5793 49.5519Z" fill="#464240"/>
<path d="M75.0527 45.691C74.475 46.0973 74.2449 47.9461 74.2449 47.9461C74.2449 47.9461 76.0627 48.3612 76.6385 47.9546C77.0158 47.6902 77.0953 47.1636 76.8234 46.7763C76.7463 46.6597 76.6423 46.5729 76.5298 46.5104C76.6415 46.4447 76.8569 46.2473 77.3305 46.487L76.9997 46.0141L76.6675 45.5416C76.7338 46.0686 76.4747 46.2032 76.3723 46.2891C76.3511 46.1576 76.3061 46.0319 76.2228 45.9179C75.9529 45.5295 75.4299 45.4274 75.0527 45.691Z" fill="#464240"/>
<path fill-rule="evenodd" clip-rule="evenodd" d="M78.0812 64.1152C80.1481 61.8032 83.6978 61.6045 86.0098 63.6713C88.3219 65.7382 88.5206 69.2878 86.4537 71.5999C84.3868 73.9119 80.8372 74.1106 78.5251 72.0438C76.213 69.9769 76.0144 66.4273 78.0812 64.1152Z" fill="#CC6900"/>
<path opacity="0.01" fill-rule="evenodd" clip-rule="evenodd" d="M74.4592 73.4742C79.6837 74.1143 83.3999 78.8682 82.7598 84.0927C82.1197 89.3172 77.3657 93.0334 72.1411 92.3933C66.9167 91.7532 63.2006 86.9992 63.8406 81.7747C64.4807 76.5502 69.2347 72.8341 74.4592 73.4742Z" fill="#CC6900"/>
<path fill-rule="evenodd" clip-rule="evenodd" d="M77.2023 62.9569C79.269 60.6449 82.8187 60.4461 85.1307 62.513C87.4429 64.5799 87.6416 68.1296 85.5747 70.4416C83.5079 72.7535 79.9582 72.9524 77.6462 70.8855C75.3342 68.8186 75.1354 65.2689 77.2023 62.9569Z" fill="#F76523"/>
<path fill-rule="evenodd" clip-rule="evenodd" d="M84.9068 64.087C84.4886 63.5317 84.366 62.8527 84.5389 62.0503C84.7433 62.1894 84.9414 62.3436 85.1308 62.513C87.4428 64.5799 87.6416 68.1296 85.5748 70.4416C83.8964 72.3189 81.2404 72.8031 79.0633 71.8119C79.643 70.933 80.5983 70.4679 81.9297 70.4166C84.6465 68.5645 85.6389 66.4547 84.9068 64.087Z" fill="#C45200"/>
<path fill-rule="evenodd" clip-rule="evenodd" d="M77.2528 67.0492C77.2214 66.9143 77.2075 66.7824 77.2102 66.652C77.235 65.4076 79.6406 62.716 80.8751 62.5523C81.0044 62.5352 81.137 62.5342 81.2747 62.5503C82.8274 62.731 85.1712 64.8259 85.5243 66.3493C85.5556 66.4843 85.5694 66.6162 85.5669 66.7466C85.5419 67.9916 83.1356 70.6826 81.9019 70.8462C81.7725 70.8634 81.64 70.8643 81.5024 70.8482C79.9491 70.6673 77.6058 68.572 77.2528 67.0492Z" fill="#0F0303"/>
<path fill-rule="evenodd" clip-rule="evenodd" d="M75.8972 67.0439C75.916 66.2973 76.2003 65.6988 76.5323 65.7072C76.8644 65.7156 77.1182 66.3277 77.0993 67.0743C77.0805 67.8209 76.796 68.4194 76.4641 68.4111C76.1322 68.4027 75.8783 67.7906 75.8972 67.0439Z" fill="#F9B079"/>
<path fill-rule="evenodd" clip-rule="evenodd" d="M77.2023 62.9569C77.7445 62.3504 78.3886 61.8895 79.0857 61.5767C79.2175 61.9537 79.1913 62.3312 78.8102 62.6608C78.2159 63.1747 77.6793 63.7946 77.0876 64.5877C76.79 64.9864 76.4229 65.0577 76.0429 64.9767C76.2761 64.2513 76.6616 63.5617 77.2023 62.9569ZM83.1051 61.3517C83.8329 61.5848 84.5243 61.9709 85.1308 62.513C85.7357 63.0537 86.1955 63.696 86.5085 64.3908C86.1399 64.5137 85.7671 64.4839 85.4269 64.1209C84.7502 63.3988 84.1478 62.8426 83.4999 62.3983C83.0844 62.1131 83.0164 61.7409 83.1051 61.3517ZM86.7361 68.4159C86.503 69.1435 86.1168 69.8351 85.5748 70.4416C85.0342 71.0463 84.3917 71.5062 83.697 71.8192C83.5741 71.4506 83.6039 71.0778 83.9669 70.7376C84.689 70.0608 85.2452 69.4586 85.6895 68.8107C85.9745 68.3952 86.3468 68.327 86.7361 68.4159ZM79.666 72.0449C78.9406 71.8114 78.251 71.4262 77.6462 70.8855C77.0397 70.3433 76.5787 69.6991 76.266 69.002C76.6429 68.8704 77.0205 68.8965 77.3501 69.2776C77.864 69.8718 78.4839 70.4083 79.277 71.0002C79.6757 71.2977 79.7468 71.6649 79.666 72.0449Z" fill="#0F0303"/>
<path d="M80.7524 67.0478C80.5456 67.1247 80.3429 67.1428 80.1446 67.0988C79.9463 67.0548 79.7545 66.9493 79.568 66.7825C79.2679 66.5143 79.1044 66.2156 79.0784 65.8854C79.0524 65.557 79.1683 65.2477 79.426 64.9594C79.6991 64.654 80.0028 64.5063 80.3359 64.5165C80.669 64.5268 80.9711 64.654 81.2445 64.8982C81.43 65.0643 81.5557 65.2472 81.6229 65.447C81.69 65.6468 81.6986 65.8456 81.6496 66.0443C81.8983 65.9422 82.1411 65.9167 82.3773 65.9688C82.6151 66.0208 82.8487 66.1492 83.0791 66.3553C83.3157 66.5668 83.4855 66.7973 83.5886 67.0468C83.6908 67.2972 83.7215 67.5432 83.679 67.783C83.6364 68.0229 83.5288 68.2401 83.3566 68.4329C83.086 68.7356 82.7572 68.8914 82.3709 68.9012C81.9848 68.9109 81.614 68.7561 81.2586 68.4384C81.0283 68.2324 80.8708 68.0115 80.7863 67.7736C80.7007 67.535 80.6898 67.2939 80.7524 67.0478ZM80.1291 66.2626C80.2774 66.3949 80.4228 66.4624 80.5653 66.4629C80.7077 66.4634 80.8277 66.41 80.9236 66.3029C81.0218 66.1931 81.0621 66.067 81.0458 65.9255C81.0302 65.7829 80.9477 65.6451 80.7996 65.5126C80.6559 65.3841 80.5132 65.3191 80.3705 65.3187C80.2281 65.3181 80.1088 65.3706 80.0148 65.476C79.915 65.5876 79.8737 65.7146 79.891 65.8569C79.9076 66.0002 79.9872 66.1357 80.1291 66.2626ZM81.7156 67.7869C81.9218 67.9713 82.1192 68.0688 82.308 68.082C82.4972 68.0951 82.6467 68.041 82.7553 67.9196C82.8647 67.7972 82.902 67.6476 82.8693 67.4704C82.8373 67.2925 82.7142 67.1085 82.5017 66.9186C82.3186 66.7549 82.1365 66.6676 81.9544 66.6574C81.7731 66.6463 81.627 66.702 81.5169 66.8252C81.4075 66.9475 81.3693 67.0981 81.4014 67.2778C81.4326 67.4584 81.5381 67.6281 81.7156 67.7869Z" fill="#FEE833"/>
<path fill-rule="evenodd" clip-rule="evenodd" d="M92.02 49.3306C91.0704 45.0971 86.8689 42.4351 82.6356 43.3847C78.4021 44.3343 75.7402 48.5358 76.6897 52.7692C77.6393 57.0026 81.8407 59.6646 86.0742 58.715C90.3076 57.7654 92.9696 53.5639 92.02 49.3306Z" fill="#CC6900"/>
<path fill-rule="evenodd" clip-rule="evenodd" d="M97.7519 41.801C96.8504 37.7819 92.8616 35.2546 88.8424 36.1562C84.8233 37.0576 82.2961 41.0465 83.1976 45.0656C84.0991 49.0847 88.0879 51.6119 92.1069 50.7105C96.1262 49.809 98.6535 45.8201 97.7519 41.801Z" fill="#CC6900"/>
<path d="M76.8728 34.0801C73.4525 36.3054 72.485 40.8816 74.7094 44.3007C76.9338 47.7199 81.5095 48.6894 84.9298 46.4642C88.3489 44.2398 89.3175 39.6631 87.0929 36.2439C84.8686 32.8249 80.2919 31.8557 76.8728 34.0801Z" fill="#5496B6"/>
<path d="M77.2275 34.6252C74.1088 36.6542 73.2257 40.8271 75.2547 43.9459C77.2837 47.0645 81.4564 47.948 84.5752 45.919C87.6929 43.8906 88.5766 39.7174 86.5476 36.5988C84.5185 33.48 80.3454 32.5968 77.2275 34.6252Z" fill="#5ABAE9"/>
<path d="M77.4437 46.055C79.5817 47.3313 82.3473 47.3684 84.5752 45.919C86.0948 44.9304 87.0832 43.4323 87.4628 41.7952C85.2367 40.8102 82.5728 40.9343 80.3808 42.3605C78.9724 43.2768 77.9765 44.5887 77.4437 46.055Z" fill="#5496B6"/>
<path d="M83.8216 46.3438C84.0783 46.22 84.33 46.0785 84.5752 45.919C87.693 43.8906 88.5766 39.7175 86.5476 36.5988C86.1841 36.04 85.7513 35.5534 85.2687 35.1421C84.47 35.9408 83.8416 36.867 83.3912 37.8626C83.3911 37.8635 83.391 37.8642 83.3905 37.8654C83.2638 38.1462 83.151 38.4321 83.053 38.7231C83.0496 38.7349 83.0448 38.7466 83.0408 38.7593C82.9477 39.0405 82.8674 39.3255 82.8013 39.6144C82.797 39.6342 82.792 39.6548 82.7874 39.6743C82.7235 39.96 82.6736 40.2492 82.6373 40.5401C82.6348 40.5599 82.6317 40.5797 82.6288 40.5998C82.5931 40.9042 82.5712 41.211 82.5656 41.5182C82.5656 41.52 82.5651 41.5212 82.5653 41.5224C82.5436 42.7123 82.7502 43.9146 83.1997 45.0602L83.1988 45.0607C83.3124 45.3479 83.4413 45.6331 83.5849 45.9133C83.6595 46.058 83.7384 46.2016 83.8216 46.3438Z" fill="#5496B6"/>
<path d="M87.0929 36.2439C87.3727 36.6739 87.6003 37.1221 87.7809 37.5812L87.3639 37.8525C86.8008 38.2188 86.046 38.0596 85.6795 37.4963L85.3755 37.0291C85.0088 36.4656 85.1693 35.7111 85.7323 35.3447L86.1494 35.0735C86.4953 35.4236 86.8135 35.8146 87.0929 36.2439Z" fill="#FEFEFE"/>
<path d="M87.637 43.3007L87.1803 43.2035C86.5208 43.0644 86.0996 42.4188 86.2393 41.7602L86.3545 41.215C86.495 40.5575 87.1407 40.1374 87.7979 40.2761L88.2871 40.3794C88.2725 41.3874 88.0495 42.3813 87.637 43.3007Z" fill="#FEFEFE"/>
<path d="M74.1738 37.224L74.6212 37.3182C75.2795 37.4573 75.6997 38.1031 75.5604 38.7617L75.4453 39.3059C75.3059 39.9643 74.6594 40.3848 74.001 40.2455L73.5147 40.1427C73.5326 39.135 73.758 38.1411 74.1738 37.224Z" fill="#FEFEFE"/>
<path d="M80.848 32.8864C81.8552 32.8803 82.8559 33.078 83.7835 33.4705L83.6818 33.9494C83.5425 34.6069 82.897 35.0271 82.2385 34.8884L81.6931 34.7724C81.0345 34.6335 80.6151 33.9872 80.7556 33.3285L80.848 32.8864Z" fill="#FEFEFE"/>
<path d="M78.1239 35.4945L77.6572 35.7981C77.0924 36.1656 76.339 36.005 75.9711 35.4414L75.7 35.0246C76.0522 34.6774 76.4419 34.3604 76.8728 34.0801C77.3023 33.8006 77.7499 33.5716 78.2087 33.3918L78.4801 33.8091C78.8472 34.3733 78.6887 35.127 78.1239 35.4945Z" fill="#FEFEFE"/>
<path d="M78.3532 36.3556C76.189 37.7635 75.5771 40.6583 76.9841 42.8208C78.3912 44.9838 81.2855 45.597 83.4497 44.189C85.6124 42.7819 86.2245 39.8875 84.8174 37.7244C83.4104 35.562 80.5161 34.9484 78.3532 36.3556Z" fill="#FEFEFE"/>
<path d="M78.4127 44.2288C79.9074 45.1674 81.8724 45.2152 83.4496 44.189C84.5349 43.483 85.2295 42.4024 85.4747 41.2277C83.7571 40.9865 81.9483 41.3406 80.3808 42.3605C79.5925 42.8734 78.9338 43.5103 78.4127 44.2288Z" fill="#C7C6C5"/>
<path d="M82.9861 44.4543C83.1436 44.3755 83.2984 44.2874 83.4496 44.189C85.6124 42.7819 86.2245 39.8875 84.8174 37.7245C84.5784 37.3572 84.2963 37.0347 83.9824 36.7591C83.7599 37.1147 83.5626 37.4837 83.3912 37.8626C83.3911 37.8635 83.391 37.8642 83.3905 37.8654C83.2638 38.1462 83.151 38.4321 83.053 38.7231C83.0496 38.7349 83.0448 38.7466 83.0409 38.7593C82.9477 39.0405 82.8674 39.3255 82.8013 39.6144C82.7971 39.6342 82.792 39.6548 82.7874 39.6743C82.7235 39.96 82.6737 40.2492 82.6373 40.5401C82.6348 40.5599 82.6317 40.5797 82.6288 40.5998C82.5931 40.9042 82.5712 41.211 82.5656 41.5182C82.5656 41.52 82.5651 41.5212 82.5653 41.5224C82.5474 42.5042 82.6849 43.4944 82.9861 44.4543Z" fill="#C7C6C5"/>
<path d="M79.102 37.5069C77.5738 38.5011 77.1417 40.5451 78.1351 42.0721C79.1286 43.5993 81.1724 44.0323 82.7005 43.038C84.2277 42.0445 84.66 40.0007 83.6663 38.4735C82.6728 36.9464 80.6292 36.5133 79.102 37.5069Z" fill="#5ABAE9"/>
<path d="M82.6654 43.0603L82.7005 43.0381C84.2278 42.0445 84.6601 40.0008 83.6663 38.4734C83.5617 38.3125 83.4453 38.1639 83.3191 38.0276C83.221 38.2561 83.1322 38.488 83.053 38.7231C83.0496 38.7349 83.0448 38.7466 83.0408 38.7593C82.9477 39.0405 82.8674 39.3255 82.8013 39.6144C82.797 39.6342 82.792 39.6548 82.7874 39.6743C82.7235 39.96 82.6737 40.2492 82.6373 40.5401C82.6348 40.5599 82.6317 40.5797 82.6288 40.5997C82.5931 40.9042 82.5712 41.2109 82.5656 41.5182C82.5656 41.52 82.5651 41.5212 82.5653 41.5224C82.5559 42.0346 82.589 42.5491 82.6654 43.0603Z" fill="#5496B6"/>
<path d="M79.3374 43.1789C80.3648 43.7304 81.6537 43.7192 82.7005 43.0381C83.3995 42.5833 83.8691 41.9083 84.0776 41.1636C82.8029 41.2248 81.5274 41.6145 80.3808 42.3605C80.0029 42.6064 79.6549 42.8807 79.3374 43.1789Z" fill="#5496B6"/>
<path d="M77.4439 42.5216C78.6843 44.4281 81.2442 44.97 83.1508 43.7296C85.0567 42.4897 85.5984 39.9298 84.358 38.0233C83.1176 36.1167 80.5578 35.5747 78.6518 36.8145C76.7454 38.055 76.2034 40.615 77.4439 42.5216ZM84.026 38.2392C85.1474 39.9628 84.6578 42.2769 82.9348 43.3978C81.2112 44.5192 78.8969 44.0292 77.7756 42.3057C76.6544 40.5821 77.1443 38.2679 78.8678 37.1465C80.5906 36.0256 82.9048 36.5156 84.026 38.2392Z" fill="#5BB9E9"/>
<path d="M79.6968 38.4212C78.6738 39.0868 78.3845 40.4551 79.0495 41.4773C79.7147 42.4997 81.0827 42.7895 82.1057 42.124C83.1281 41.4588 83.4174 40.0907 82.7523 39.0683C82.0873 38.0461 80.719 37.7561 79.6968 38.4212Z" fill="#FEFEFE"/>
<path d="M82.5638 41.7273C83.1439 41.0649 83.2816 40.1018 82.8809 39.2938C82.8525 39.4002 82.826 39.507 82.8013 39.6144C82.797 39.6342 82.7919 39.6548 82.7874 39.6743C82.7235 39.96 82.6736 40.2492 82.6373 40.5401C82.6348 40.5599 82.6317 40.5797 82.6288 40.5998C82.5931 40.9042 82.5712 41.211 82.5656 41.5182C82.5656 41.52 82.5651 41.5212 82.5653 41.5224C82.564 41.5907 82.5635 41.659 82.5638 41.7273Z" fill="#C7C6C5"/>
<path d="M80.3167 42.4027C80.9041 42.5635 81.5549 42.4823 82.1057 42.1239C82.4248 41.9164 82.6725 41.6403 82.8419 41.3277C81.9894 41.515 81.1557 41.8564 80.3808 42.3605L80.3167 42.4027Z" fill="#C7C6C5"/>
<path d="M87.637 43.3007L87.1802 43.2035C86.5207 43.0643 86.0996 42.4189 86.2393 41.7602L86.3545 41.215C86.4021 40.9929 86.5072 40.798 86.651 40.6424C86.9669 40.6433 87.2827 40.6579 87.5967 40.6875C87.6117 40.6888 87.626 40.6899 87.6406 40.6915C87.8515 40.7121 88.0617 40.739 88.2708 40.7725C88.2112 41.6451 87.9957 42.5011 87.637 43.3007Z" fill="#FEFEFE"/>
<path d="M87.7982 35.4931C84.3775 37.7187 83.41 42.2943 85.6346 45.7135C87.859 49.1325 92.4343 50.1025 95.8551 47.877C99.2741 45.6526 100.242 41.0761 98.0178 37.657C95.7933 34.2378 91.2173 33.2686 87.7982 35.4931Z" fill="#CB4730"/>
<path d="M88.1529 36.0381C85.0341 38.0671 84.1514 42.2397 86.1804 45.3584C88.2094 48.4771 92.3817 49.3607 95.5004 47.3316C98.6182 45.3032 99.5019 41.1302 97.4729 38.0115C95.4439 34.8929 91.2707 34.0097 88.1529 36.0381Z" fill="#ED7251"/>
<path d="M98.0178 37.657C98.2974 38.0868 98.5255 38.5347 98.7063 38.9942L98.2898 39.2653C97.7262 39.6319 96.9714 39.4727 96.6048 38.9091L96.3007 38.4418C95.9342 37.8785 96.0946 37.1238 96.6581 36.7571L97.0746 36.4861C97.4206 36.8364 97.7387 37.228 98.0178 37.657Z" fill="#FEFEFE"/>
<path d="M87.0474 44.4619L87.3515 44.9293C87.7181 45.4927 87.5591 46.2466 86.9943 46.6141L86.5782 46.8848C86.2308 46.5335 85.9143 46.1433 85.6346 45.7135C85.3555 45.2844 85.1259 44.8352 84.9455 44.3773L85.3625 44.106C85.9273 43.7385 86.681 43.8986 87.0474 44.4619Z" fill="#FEFEFE"/>
<path d="M98.5627 44.7131L98.1054 44.6161C97.4459 44.4769 97.025 43.8309 97.1643 43.1733L97.2798 42.6279C97.4205 41.9705 98.0661 41.5505 98.7232 41.6888L99.2126 41.7917C99.1977 42.8002 98.9749 43.7943 98.5627 44.7131Z" fill="#FEFEFE"/>
<path d="M91.0327 47.1624C91.6903 47.3016 92.1107 47.9479 91.9721 48.6064L91.8744 49.0716C90.8661 49.0769 89.8662 48.8786 88.9393 48.4853L89.0449 47.986C89.1836 47.3295 89.8301 46.9088 90.4876 47.0469L91.0327 47.1624Z" fill="#FEFEFE"/>
<path d="M85.0991 38.6367L85.547 38.7305C86.2047 38.8702 86.6251 39.5162 86.4863 40.1745L86.3705 40.7187C86.2311 41.3771 85.5846 41.7977 84.9264 41.6583L84.4402 41.5558C84.4578 40.5477 84.6839 39.5537 85.0991 38.6367Z" fill="#FEFEFE"/>
<path d="M91.7733 34.2992C92.7804 34.2929 93.7811 34.4905 94.7088 34.8832L94.607 35.362C94.4678 36.0197 93.8221 36.4397 93.1637 36.3011L92.6182 36.1857C91.9603 36.0461 91.5403 35.3998 91.681 34.7416L91.7733 34.2992Z" fill="#FEFEFE"/>
<path d="M89.0492 36.9073L88.5825 37.211C88.0182 37.5782 87.2642 37.4176 86.8968 36.8538L86.6258 36.4372C86.9776 36.0903 87.3675 35.7735 87.7983 35.4931C88.2278 35.2137 88.6752 34.9845 89.134 34.8047L89.4053 35.2216C89.7724 35.7859 89.6141 36.5399 89.0492 36.9073Z" fill="#FEFEFE"/>
<path d="M94.5167 48.5662L94.2455 48.1492C93.8789 47.5858 94.0381 46.8314 94.6018 46.4647L95.0694 46.1605C95.6332 45.7937 96.3865 45.9543 96.754 46.5172L97.0254 46.9342C96.6752 47.2807 96.2847 47.5975 95.8552 47.877C95.4243 48.1573 94.9769 48.3856 94.5167 48.5662Z" fill="#FEFEFE"/>
<path d="M89.2785 37.7683C87.1144 39.1763 86.5024 42.0709 87.9093 44.2335C89.3165 46.3963 92.2107 47.0098 94.375 45.6018C96.5378 44.1947 97.1498 41.3 95.7426 39.1372C94.3357 36.9746 91.4414 36.3612 89.2785 37.7683Z" fill="#FEFEFE"/>
<path d="M88.3687 43.9347C89.6089 45.841 92.1693 46.383 94.0761 45.1424C95.982 43.9025 96.5235 41.3424 95.2832 39.4361C94.0429 37.5296 91.4831 36.9875 89.5773 38.2275C87.6705 39.468 87.1283 42.0282 88.3687 43.9347ZM94.9514 39.6521C96.0727 41.3756 95.5831 43.6896 93.8602 44.8105C92.1364 45.932 89.8219 45.4423 88.7006 43.7188C87.5792 41.9952 88.0693 39.6809 89.7932 38.5594C91.5161 37.4385 93.8301 37.9285 94.9514 39.6521Z" fill="#ED7150"/>
<path d="M90.0271 38.9195C88.499 39.9137 88.0668 41.9576 89.0603 43.4847C90.054 45.0119 92.0975 45.4449 93.6257 44.4507C95.1528 43.4571 95.5852 41.4133 94.5916 39.8861C93.5981 38.359 91.5544 37.9259 90.0271 38.9195Z" fill="#ED7251"/>
<path d="M90.6217 39.8338C89.5989 40.4993 89.3096 41.8676 89.9746 42.8899C90.6397 43.9122 92.0078 44.2021 93.0308 43.5365C94.0531 42.8714 94.3425 41.5032 93.6773 40.4809C93.0123 39.4586 91.6442 39.1687 90.6217 39.8338Z" fill="#FEFEFE"/>
<path d="M76.1223 43.0492L76.4262 43.5164C76.7927 44.0797 76.6332 44.8338 76.0688 45.201L75.6527 45.4718C75.3057 45.1209 74.989 44.7306 74.7094 44.3007C74.43 43.8713 74.2007 43.4224 74.0199 42.9649L74.4373 42.6934C75.0017 42.3262 75.7556 42.4858 76.1223 43.0492Z" fill="#FEFEFE"/>
<path d="M80.107 45.7499C80.7653 45.8893 81.1857 46.5353 81.0465 47.1941L80.949 47.6586C79.9409 47.6644 78.9408 47.4656 78.0141 47.0728L78.1194 46.5737C78.2582 45.9164 78.9045 45.4958 79.5623 45.6341L80.107 45.7499Z" fill="#FEFEFE"/>
<path d="M83.5911 47.1537L83.3198 46.7367C82.9532 46.1732 83.1124 45.4187 83.6764 45.0517L84.1438 44.7476C84.7079 44.3807 85.4613 44.5414 85.8288 45.1044L86.1 45.5214C85.7498 45.868 85.3594 46.1847 84.9298 46.4642C84.499 46.7445 84.0516 46.9729 83.5911 47.1537Z" fill="#FEFEFE"/>
<path d="M83.5912 47.1537L83.3199 46.7367C82.9533 46.1732 83.1124 45.4186 83.6765 45.0518L84.1439 44.7475C84.7079 44.3807 85.4614 44.5414 85.8288 45.1044L86.1001 45.5214C85.7499 45.868 85.3594 46.1847 84.9299 46.4641C84.499 46.7445 84.0516 46.9729 83.5912 47.1537Z" fill="#FEFEFE"/>
<path d="M81.6333 43.755C78.2126 45.9804 77.2453 50.5562 79.4697 53.9752C81.6941 57.3945 86.2694 58.3643 89.6902 56.1388C93.1088 53.9147 94.0774 49.338 91.8527 45.9188C89.6284 42.4998 85.0519 41.5309 81.6333 43.755Z" fill="#333333"/>
<path d="M81.9876 44.2994C78.8687 46.3284 77.9863 50.5013 80.0154 53.6201C82.0444 56.7389 86.2167 57.6227 89.3355 55.5936C92.4533 53.5653 93.3369 49.392 91.3079 46.2733C89.2787 43.1544 85.1053 42.271 81.9876 44.2994Z" fill="#464240"/>
<path d="M91.9796 47.6076C91.8092 47.1486 91.5862 46.701 91.3079 46.2733C91.0297 45.8457 90.711 45.4604 90.3604 45.1185C89.9064 45.5102 89.7996 46.1871 90.1357 46.7035L90.4398 47.1711C90.7755 47.6871 91.4377 47.8638 91.9796 47.6076Z" fill="#464240"/>
<path d="M79.3437 52.2861C79.514 52.7451 79.7372 53.1925 80.0154 53.6201C80.2936 54.0477 80.6123 54.4331 80.9628 54.7749C81.4169 54.3829 81.5222 53.707 81.1866 53.1911L80.8824 52.7236C80.5466 52.2073 79.886 52.03 79.3437 52.2861Z" fill="#464240"/>
<path d="M91.7538 52.823C92.1799 51.918 92.4002 50.9274 92.3983 49.9278C91.7993 49.8823 91.244 50.2859 91.1143 50.8899L90.9991 51.435C90.8738 52.0288 91.2041 52.6124 91.7538 52.823Z" fill="#464240"/>
<path d="M82.9205 56.1007C83.8346 56.5068 84.8306 56.706 85.8315 56.6819C85.864 56.0919 85.4632 55.5506 84.8671 55.4245L84.3222 55.309C83.7158 55.1813 83.1183 55.5297 82.9205 56.1007Z" fill="#464240"/>
<path d="M79.5777 47.0517C79.1489 47.9552 78.9261 48.9447 78.9248 49.9436C79.5238 49.9879 80.0778 49.5842 80.2052 48.9808L80.3207 48.4361C80.4457 47.8458 80.1205 47.2653 79.5777 47.0517Z" fill="#464240"/>
<path d="M88.3949 43.7894C87.4823 43.3852 86.4884 43.1872 85.4896 43.2115C85.4672 43.7929 85.8647 44.3225 86.4531 44.4473L86.9984 44.5633C87.6003 44.6899 88.191 44.3504 88.3949 43.7894Z" fill="#464240"/>
<path d="M81.9876 44.2994C81.5593 44.578 81.1736 44.8973 80.8314 45.2484C81.2239 45.7027 81.8999 45.8095 82.4171 45.4731L82.8843 45.1691C83.4021 44.8322 83.5783 44.1706 83.3211 43.628C82.8623 43.7984 82.415 44.0212 81.9876 44.2994Z" fill="#464240"/>
<path d="M87.9993 56.2662C88.4591 56.0957 88.9072 55.8723 89.3355 55.5937C89.7627 55.3156 90.1477 54.9971 90.4894 54.6468C90.0972 54.1927 89.4211 54.0857 88.9041 54.4221L88.4366 54.7263C87.9198 55.0625 87.743 55.724 87.9993 56.2662Z" fill="#464240"/>
<path d="M91.8527 45.9188C92.1323 46.3483 92.3608 46.7969 92.5412 47.2557L92.1246 47.5268C91.5611 47.8934 90.8062 47.7342 90.4399 47.1711L90.1356 46.7035C89.7689 46.14 89.9295 45.3855 90.4929 45.0189L90.9096 44.7479C91.2556 45.0984 91.5735 45.4895 91.8527 45.9188Z" fill="#FEFEFE"/>
<path d="M80.8824 52.7236L81.1866 53.1912C81.553 53.7543 81.3939 54.5081 80.8295 54.8753L80.413 55.1463C80.0661 54.7957 79.749 54.4047 79.4697 53.9752C79.1904 53.5459 78.9611 53.0972 78.7799 52.6393L79.1979 52.3674C79.7622 52.0002 80.5158 52.1601 80.8824 52.7236Z" fill="#FEFEFE"/>
<path d="M92.3974 52.9754L91.94 52.8782C91.2811 52.7389 90.8602 52.0931 90.9991 51.435L91.1144 50.8899C91.2554 50.2323 91.9011 49.8123 92.5581 49.9506L93.0473 50.054C93.0326 51.0618 92.8097 52.0559 92.3974 52.9754Z" fill="#FEFEFE"/>
<path d="M84.8673 55.4245C85.5256 55.5638 85.946 56.2099 85.8067 56.8685L85.7094 57.3334C84.7012 57.3389 83.7013 57.1404 82.7746 56.7476L82.8796 56.2481C83.0186 55.5912 83.665 55.1706 84.3222 55.3089L84.8673 55.4245Z" fill="#FEFEFE"/>
<path d="M78.9341 46.8986L79.3817 46.993C80.0397 47.1317 80.4601 47.7778 80.3207 48.4361L80.2052 48.9808C80.0662 49.6388 79.4198 50.0595 78.761 49.9204L78.2747 49.8179C78.293 48.8099 78.5185 47.8156 78.9341 46.8986Z" fill="#FEFEFE"/>
<path d="M85.6081 42.5607C86.6154 42.5546 87.6161 42.7524 88.5437 43.1449L88.4421 43.624C88.303 44.2819 87.6575 44.7019 86.9984 44.5633L86.453 44.4473C85.7951 44.3077 85.3756 43.662 85.5156 43.0036L85.6081 42.5607Z" fill="#FEFEFE"/>
<path d="M82.8843 45.1691L82.417 45.4731C81.8528 45.8402 81.0993 45.6796 80.7313 45.1158L80.4604 44.6995C80.8126 44.352 81.202 44.0355 81.6333 43.755C82.0628 43.4755 82.5101 43.246 82.9691 43.0664L83.2404 43.4835C83.6076 44.0478 83.4491 44.8017 82.8843 45.1691Z" fill="#FEFEFE"/>
<path d="M88.3514 56.8283L88.0803 56.4115C87.7134 55.8476 87.8727 55.0932 88.4366 54.7263L88.9042 54.4221C89.4682 54.0552 90.2215 54.2158 90.5893 54.779L90.8604 55.1959C90.5099 55.5423 90.1197 55.8593 89.6902 56.1388C89.2589 56.4193 88.8118 56.6472 88.3514 56.8283Z" fill="#FEFEFE"/>
<path d="M83.1136 46.0302C80.9495 47.4381 80.3374 50.3327 81.7444 52.4953C83.1515 54.6582 86.0457 55.2713 88.2098 53.8633C90.3726 52.4562 90.9848 49.5619 89.5777 47.399C88.1707 45.2364 85.2764 44.6231 83.1136 46.0302Z" fill="#FEFEFE"/>
<path d="M83.8626 47.1809C82.3344 48.175 81.9022 50.2191 82.8957 51.7461C83.8892 53.2734 85.933 53.7063 87.461 52.7121C88.9883 51.7184 89.4205 49.6748 88.4269 48.1475C87.4334 46.6205 85.3898 46.1873 83.8626 47.1809Z" fill="#464240"/>
<path d="M84.4572 48.0953C83.4342 48.7608 83.1449 50.1291 83.81 51.1513C84.4751 52.1737 85.8432 52.4634 86.8662 51.798C87.8885 51.1328 88.1778 49.7647 87.5128 48.7423C86.8476 47.7201 85.4796 47.4301 84.4572 48.0953Z" fill="#FEFEFE"/>
<path d="M82.2037 52.1964C83.4441 54.1029 86.0043 54.6447 87.9111 53.4042C89.817 52.1642 90.3585 49.6044 89.1183 47.6979C87.8779 45.7914 85.3182 45.2492 83.4122 46.4893C81.5055 47.7299 80.9633 50.2899 82.2037 52.1964ZM88.7863 47.9138C89.9076 49.6372 89.418 51.9514 87.6951 53.0724C85.9713 54.1938 83.6568 53.704 82.5355 51.9805C81.4144 50.2572 81.9044 47.9426 83.6282 46.8211C85.351 45.7002 87.6653 46.1905 88.7863 47.9138Z" fill="#464240"/>
</svg>
