<svg width="83" height="17" viewBox="0 0 83 17" fill="none" xmlns="http://www.w3.org/2000/svg">
<path fill-rule="evenodd" clip-rule="evenodd" d="M0.433777 0.107719L38.5349 15.3831C40.6973 16.2501 42.7289 16.2491 44.8908 15.3801L82.8876 0.107719H0.433777Z" fill="#0F2335"/>
<path fill-rule="evenodd" clip-rule="evenodd" d="M0.433777 0.107719L38.5349 14.3035C40.6973 15.1093 42.7289 15.1084 44.8908 14.3007L82.8876 0.107719H0.433777Z" fill="white"/>
<path fill-rule="evenodd" clip-rule="evenodd" d="M34.7051 2.09829C35.0134 1.74039 35.4958 1.53485 35.9728 1.56533C36.3983 1.58351 36.8091 1.78905 37.0814 2.10958C37.3198 2.38846 37.4528 2.75316 37.4435 3.11786C37.4435 3.26454 37.4106 3.40772 37.3793 3.55021C37.534 3.50015 37.684 3.4375 37.8361 3.38074L38.7268 3.04042C38.8228 3.00435 38.917 2.96229 39.016 2.93401C39.145 2.89754 39.2862 2.90493 39.41 2.95629C39.5868 3.02743 39.7228 3.1878 39.7624 3.37155C39.7947 3.52183 39.7685 3.6852 39.6823 3.81449C39.6168 3.91331 39.5201 3.98525 39.4314 4.06229L38.4149 4.93967C38.3325 5.00961 38.2502 5.08015 38.173 5.15549C38.54 5.12881 38.9228 5.13601 39.2659 5.28279C39.4062 5.33884 39.5254 5.43217 39.642 5.52519C39.7085 5.47433 39.7782 5.42727 39.8474 5.38011C39.8785 5.35663 39.9156 5.33415 39.928 5.29488C39.9586 5.20715 39.9689 5.11123 40.019 5.0306C40.1099 4.88242 40.2679 4.77191 40.4436 4.74823C40.575 4.73154 40.7078 4.74143 40.8398 4.73973C40.9717 4.74143 41.1045 4.73174 41.2361 4.74763C41.4547 4.7742 41.6481 4.93457 41.7161 5.13971C41.7509 5.24112 41.7245 5.36212 41.8038 5.44695C41.8564 5.30647 41.8774 5.15759 41.9087 5.01191C41.9315 4.9049 41.9517 4.79389 42.0094 4.69847C42.0906 4.56488 42.2269 4.46236 42.3822 4.42799C42.468 4.4089 42.5565 4.4089 42.6442 4.4089L43.5042 4.4097C43.7188 4.4097 43.9362 4.42679 44.1424 4.48974C44.2483 4.52181 44.3486 4.56947 44.4483 4.61713C44.4861 4.55379 44.5223 4.48904 44.5696 4.43169C44.6333 4.35365 44.7214 4.2967 44.8165 4.26212C44.9266 4.22246 45.0458 4.22356 45.1616 4.22336H45.7278C45.8565 4.22316 45.9911 4.22915 46.1072 4.2897C46.3132 4.38992 46.4485 4.61623 46.4314 4.84245C46.4196 4.97664 46.3784 5.10613 46.3566 5.23892C46.5257 5.19796 46.6958 5.15739 46.8704 5.1489C47.1717 5.13271 47.4809 5.142 47.7698 5.23563C47.8516 5.26011 47.9271 5.30747 48.0132 5.31756C48.0778 5.29948 48.133 5.25861 48.1951 5.23373C48.2897 5.19186 48.3956 5.19266 48.4974 5.19196L49.1897 5.19186C49.2871 5.18937 49.3827 5.20755 49.4778 5.22564C49.5514 5.24072 49.6246 5.21724 49.6972 5.20585C49.7996 5.18767 49.9043 5.19196 50.0079 5.19266L50.5958 5.19246C50.7102 5.19186 50.828 5.20755 50.9287 5.2646C51.1213 5.36652 51.2455 5.57925 51.2371 5.79397C51.2315 5.94455 51.1604 6.08144 51.1102 6.22072L49.8888 9.41081C49.7847 9.69878 49.6202 9.97056 49.3897 10.178C49.2017 10.3449 48.9661 10.454 48.7204 10.51C48.4347 10.5754 48.1384 10.5823 47.847 10.5614C47.7199 10.5523 47.5881 10.5352 47.4776 10.4682C47.2992 10.3656 47.1845 10.1649 47.1908 9.96146C47.1956 9.81548 47.2426 9.6753 47.2623 9.53121C47.0332 9.52132 46.8035 9.53991 46.575 9.51783C46.4449 9.50344 46.3233 9.56069 46.1961 9.57508C46.022 9.59616 45.8422 9.58897 45.6735 9.53971C45.5586 9.50633 45.4555 9.44479 45.3521 9.38733C45.2772 9.4319 45.2027 9.47976 45.1186 9.50573C45.0376 9.53042 44.9518 9.52942 44.8681 9.53001L44.2385 9.52982C44.1361 9.52982 44.0312 9.53161 43.9334 9.49804C43.7358 9.431 43.5839 9.25424 43.5459 9.05251C43.5153 8.90822 43.5623 8.76394 43.5915 8.62326L43.7297 7.97579L43.2997 8.02774C43.2413 8.27664 43.1939 8.52793 43.1387 8.77753C43.1079 8.91112 43.0921 9.04931 43.0407 9.1775C42.9552 9.37954 42.7432 9.52462 42.5196 9.52792C42.2815 9.53231 42.0432 9.52572 41.805 9.52962C41.6806 9.52902 41.5489 9.53681 41.4341 9.48076C41.367 9.45018 41.3103 9.39972 41.2398 9.37604C41.2073 9.38054 41.174 9.39852 41.162 9.43C41.1257 9.51543 41.1161 9.61085 41.0682 9.69178C40.9977 9.81218 40.8828 9.90751 40.75 9.95467C40.6444 9.99224 40.5305 9.98934 40.4199 9.98914C40.2943 9.98754 40.1684 9.98794 40.0425 9.98934C39.9389 9.98934 39.8323 9.98994 39.7335 9.95527C39.5753 9.90031 39.4415 9.77721 39.3804 9.62304C39.3456 9.53761 39.3473 9.44299 39.3166 9.35676C39.2707 9.28402 39.192 9.23995 39.1257 9.1874C39.0239 9.26693 38.9199 9.34527 38.8024 9.40132C38.5242 9.53601 38.2108 9.58707 37.9026 9.58557C37.627 9.58727 37.3462 9.5483 37.0938 9.43519C36.8412 9.32219 36.6329 9.11715 36.5202 8.86756C36.4199 8.64194 36.3908 8.39015 36.4067 8.14585C36.4281 7.77295 36.5513 7.41574 36.6024 7.04735C36.5328 7.13587 36.4774 7.23419 36.421 7.33131L35.0854 9.56399C35.0281 9.65801 34.9788 9.75783 34.9079 9.84306C34.7697 10.0074 34.5343 10.0825 34.3234 10.0347C34.1252 9.99344 33.955 9.84416 33.8906 9.65551C33.8575 9.56189 33.8572 9.46157 33.8587 9.36385L33.907 6.99958C33.9093 6.92275 33.9158 6.84561 33.9074 6.76887C33.8998 6.70073 33.8669 6.63908 33.8362 6.57863C33.7414 6.40077 33.6552 6.21872 33.565 6.03867L32.2892 3.47986C32.2351 3.36825 32.1728 3.25994 32.1256 3.14494C32.0469 2.95239 32.0809 2.71939 32.2154 2.55862C32.3562 2.38536 32.6018 2.30383 32.8207 2.35778C32.9689 2.39185 33.0858 2.49297 33.2073 2.5767L34.3547 3.38144C34.3436 3.27273 34.3301 3.16412 34.3324 3.05461C34.3396 2.7064 34.4741 2.36228 34.7051 2.09829ZM35.7713 2.07721C35.4985 2.10569 35.2413 2.24747 35.0722 2.4592C34.889 2.68581 34.8112 2.99166 34.8664 3.27603C34.9161 3.5525 35.089 3.8042 35.3309 3.95348C35.5954 4.11964 35.9376 4.15801 36.2332 4.05429C36.5622 3.94438 36.8221 3.65952 36.8987 3.32649C36.9721 3.02374 36.897 2.68911 36.6952 2.44811C36.4776 2.18073 36.117 2.03564 35.7713 2.07721ZM32.6033 2.91632C32.6052 2.95629 32.6236 2.99296 32.6396 3.02913L34.083 5.92157L34.3465 6.44804C34.3818 6.51578 34.4191 6.58522 34.4264 6.66256C34.4365 6.77247 34.426 6.88248 34.4258 6.99259L34.3763 9.40612C34.3782 9.44858 34.3765 9.49644 34.4071 9.53061C34.4397 9.53761 34.482 9.5448 34.5055 9.51493C34.57 9.44179 34.6094 9.35136 34.6606 9.26963L36.6876 5.881C36.7548 5.77119 36.81 5.65029 36.9085 5.56306L39.0529 3.71117C39.1217 3.64922 39.2052 3.59757 39.2533 3.51683C39.2732 3.48216 39.2467 3.44609 39.2178 3.42691C39.1765 3.41991 39.1353 3.4323 39.0963 3.44449L34.9864 5.01391C34.8672 5.06027 34.7493 5.11253 34.623 5.13721C34.699 4.97254 34.8292 4.84075 34.9346 4.69417C34.973 4.63642 35.0384 4.57807 35.03 4.50433C34.9709 4.42159 34.8739 4.37673 34.7936 4.31668L32.776 2.89774C32.7453 2.87905 32.7136 2.85897 32.6774 2.85338C32.6392 2.84518 32.6079 2.88255 32.6033 2.91632ZM44.9516 4.7859C44.9166 4.87752 44.9056 4.97564 44.8842 5.07056L44.1237 8.61007C44.0971 8.74286 44.0488 8.87505 44.0664 9.01234C44.2912 9.03322 44.5167 9.01624 44.7418 9.02333C44.8282 9.02163 44.9189 9.03322 45.0017 9.00265C45.0512 8.90513 45.0582 8.79362 45.0837 8.6887L45.9003 4.89151C45.9068 4.85314 45.9131 4.81417 45.9085 4.7754C45.872 4.72764 45.8038 4.73604 45.7505 4.73234L45.0783 4.73314C45.0332 4.73744 44.9663 4.73114 44.9516 4.7859ZM42.4774 4.93228C42.4491 4.96495 42.4393 5.00801 42.429 5.04838C42.4072 5.1452 42.3902 5.24302 42.3685 5.33974L41.6085 8.86136C41.6013 8.90143 41.5952 8.9425 41.6007 8.98346C41.6328 9.02573 41.693 9.01833 41.7406 9.02333L42.3293 9.02373C42.4019 9.02243 42.4781 9.02972 42.5473 9.00265C42.5666 8.96897 42.5771 8.9315 42.5863 8.89424L42.8792 7.51436C43.0947 7.50907 43.3122 7.52685 43.526 7.49088C43.6869 7.4655 43.8478 7.41345 43.9769 7.31283C44.1141 7.20761 44.2062 7.05654 44.2685 6.89897C44.3608 6.66566 44.3992 6.41656 44.455 6.17356C44.5093 5.93396 44.5479 5.67976 44.4766 5.43936C44.4313 5.27969 44.3222 5.13801 44.1756 5.05498C43.9924 4.95036 43.7761 4.92158 43.5673 4.91929C43.2591 4.91849 42.951 4.92178 42.6428 4.91759C42.5874 4.91829 42.5307 4.91619 42.4774 4.93228ZM40.4879 5.2644C40.4565 5.29628 40.4516 5.34294 40.4432 5.38461C40.4281 5.48582 40.4164 5.58744 40.3969 5.68806C40.2649 5.73732 40.1285 5.78658 40.0216 5.88C39.8568 6.01809 39.7629 6.21992 39.7157 6.42406C39.6701 6.62089 39.6454 6.83242 39.7127 7.02766C39.7784 7.2233 39.9253 7.37887 40.0778 7.51456C40.2053 7.62897 40.3558 7.72529 40.447 7.87307C40.5236 7.99367 40.5144 8.14735 40.469 8.27704C40.4481 8.33719 40.4034 8.40114 40.3333 8.40693C40.2794 8.41513 40.2278 8.37336 40.2234 8.3205C40.2091 8.2089 40.2649 8.10108 40.2509 7.98977C40.2156 7.94811 40.1556 7.95171 40.1061 7.94841C39.9448 7.94751 39.7834 7.95231 39.6221 7.94791C39.5543 7.94941 39.4832 7.94221 39.419 7.96689C39.385 7.99537 39.38 8.04343 39.3695 8.0838C39.341 8.24646 39.3313 8.41633 39.3733 8.57769C39.4037 8.6959 39.4692 8.80661 39.5657 8.88454C39.6609 8.96348 39.7807 9.00335 39.8965 9.04321C39.8906 9.14553 39.8718 9.24635 39.8596 9.34816C39.8577 9.38593 39.8484 9.4325 39.8803 9.46157C39.9301 9.48495 39.9869 9.48175 40.0408 9.48345L40.4 9.48325C40.4678 9.48225 40.5391 9.48775 40.6033 9.46197C40.6619 9.33148 40.652 9.1828 40.6838 9.04531C40.7661 9.01753 40.8494 8.99176 40.929 8.95628C41.0852 8.88724 41.2176 8.76824 41.3032 8.62246C41.3932 8.47038 41.4413 8.29782 41.4692 8.12476C41.4937 7.96609 41.5023 7.80103 41.457 7.64486C41.4194 7.51167 41.3445 7.39146 41.2537 7.28685C41.1314 7.14597 40.9887 7.02386 40.8433 6.90676C40.7676 6.84381 40.6875 6.77877 40.6444 6.68854C40.6031 6.60131 40.6176 6.50029 40.6478 6.41227C40.6644 6.3659 40.6912 6.31375 40.7441 6.30076C40.7905 6.28627 40.8565 6.30226 40.8635 6.35771C40.8836 6.46652 40.8341 6.57233 40.8312 6.68075C40.8276 6.70592 40.8408 6.7353 40.8681 6.7417C40.9335 6.76088 41.003 6.75508 41.0705 6.75588C41.2669 6.75079 41.4633 6.75988 41.6597 6.74979C41.7104 6.6166 41.7278 6.47371 41.7207 6.33213C41.7163 6.16097 41.6521 5.98641 41.5229 5.86821C41.4272 5.77918 41.3011 5.73442 41.1807 5.68786C41.1918 5.59324 41.2082 5.49941 41.2218 5.40519C41.2252 5.36482 41.2342 5.32086 41.2155 5.28299C41.1924 5.25081 41.1473 5.25311 41.1121 5.24892C40.9793 5.24422 40.8463 5.25201 40.7135 5.24772C40.6381 5.24882 40.5604 5.24092 40.4879 5.2644ZM37.7568 5.81945C37.5975 5.91357 37.4746 6.05835 37.3888 6.21892C37.2906 6.40337 37.2342 6.60611 37.1909 6.80894L36.9795 7.79523C36.9299 8.02904 36.8955 8.27334 36.9444 8.51015C36.9778 8.67511 37.0726 8.83129 37.2188 8.92231C37.4328 9.0581 37.6972 9.07908 37.9454 9.07559C38.2232 9.07299 38.5169 9.02023 38.7378 8.84388C38.9392 8.68521 39.0487 8.4444 39.1144 8.2048C39.1366 8.11467 39.1685 8.02285 39.1572 7.92922C39.15 7.88316 39.0931 7.88356 39.0569 7.87966C38.889 7.87367 38.721 7.88296 38.553 7.87887C38.4525 7.88006 38.3499 7.86857 38.2511 7.89156C38.1726 8.01805 38.1961 8.18362 38.1065 8.30582C38.0629 8.36267 37.9613 8.38135 37.9095 8.3264C37.8665 8.25866 37.8877 8.17412 37.8982 8.10028C37.9349 7.93042 37.9613 7.75846 38.0058 7.5903L39.0789 7.5923C39.1295 7.5911 39.182 7.5913 39.2306 7.57521C39.2812 7.49228 39.2868 7.39276 39.3091 7.30064C39.3588 7.04045 39.4354 6.78416 39.4521 6.51908C39.4615 6.35191 39.4482 6.17686 39.3697 6.02528C39.3005 5.89109 39.1744 5.79127 39.0332 5.73732C38.8341 5.65978 38.6163 5.64829 38.4046 5.65319C38.1799 5.65898 37.9506 5.70315 37.7568 5.81945ZM46.5171 5.72822C46.3738 5.77808 46.245 5.86801 46.1516 5.98621C46.0427 6.1216 45.9804 6.28567 45.9307 6.44943C45.9049 6.53187 45.8952 6.618 45.8907 6.70383C46.0937 6.7355 46.2998 6.71142 46.5043 6.72011C46.5924 6.71642 46.6877 6.7351 46.7705 6.69743C46.8215 6.59542 46.8184 6.47252 46.8855 6.37719C46.9233 6.32184 47.0068 6.30206 47.0651 6.33733C47.0951 6.35661 47.1014 6.39468 47.1024 6.42755C47.1029 6.51248 47.0819 6.59561 47.0664 6.67885C47.0506 6.75099 47.0402 6.82523 47.0122 6.89447C46.9109 6.92834 46.8018 6.92005 46.6975 6.93634C46.4306 6.97261 46.1554 7.03595 45.9353 7.19672C45.7392 7.34041 45.6196 7.56242 45.5535 7.78984C45.4923 7.99987 45.4531 8.21779 45.4549 8.43691C45.4576 8.58948 45.4836 8.74915 45.5733 8.87755C45.6471 8.98406 45.7704 9.05251 45.9001 9.06879C46.0522 9.08738 46.212 9.07399 46.3522 9.00924C46.4554 8.96158 46.541 8.88554 46.6226 8.80891C46.6193 8.87715 46.6201 8.94529 46.6266 9.01344C46.8442 9.03212 47.0626 9.01693 47.2804 9.02333C47.367 9.02183 47.4574 9.03272 47.5407 9.00335C47.5676 8.95259 47.5766 8.89523 47.5875 8.83978C47.6322 8.57979 47.684 8.3209 47.7415 8.06341L48.0327 6.72051C48.0761 6.51348 48.1034 6.29246 48.0323 6.08843C47.98 5.93575 47.8539 5.81425 47.7041 5.7522C47.5252 5.67567 47.3276 5.65668 47.1346 5.65239C46.9268 5.64929 46.7145 5.65898 46.5171 5.72822ZM48.3566 5.71903C48.3274 5.75011 48.3327 5.79707 48.3285 5.83634L48.3279 6.3748C48.3184 6.68384 48.327 6.99299 48.3226 7.30204C48.3115 7.65915 48.3222 8.01645 48.3155 8.37366L48.3163 8.99365C48.3147 9.04471 48.317 9.09787 48.2989 9.14683C48.2748 9.19379 48.2209 9.21617 48.1718 9.22836C48.0717 9.25024 47.9685 9.24285 47.8669 9.24345C47.8074 9.39872 47.7912 9.56479 47.7535 9.72585C47.7375 9.80399 47.7146 9.88173 47.7113 9.96186C47.7084 9.99094 47.7197 10.0256 47.7526 10.0328C47.8575 10.0621 47.9685 10.0569 48.0765 10.0594C48.3166 10.0627 48.5637 10.0495 48.788 9.95777C48.9468 9.89412 49.0842 9.78361 49.1853 9.64772C49.3223 9.46477 49.4085 9.25194 49.4906 9.04121L50.6283 6.03537C50.6612 5.94005 50.7164 5.84723 50.7154 5.74411C50.6801 5.69305 50.6092 5.70195 50.5549 5.69795C50.3443 5.69945 50.1334 5.70175 49.9228 5.69785C49.8626 5.70005 49.7973 5.69245 49.7421 5.72063C49.6895 5.80616 49.6779 5.90818 49.6498 6.0029L49.1922 7.75597C49.1691 7.85059 49.1566 7.95231 49.0945 8.03214C49.0892 7.91763 49.1102 7.80453 49.1257 7.69172L49.3418 5.85852C49.3446 5.81695 49.3496 5.77339 49.3368 5.73282C49.3001 5.69495 49.2398 5.70275 49.1914 5.69835C48.9736 5.69905 48.756 5.70195 48.5381 5.69785C48.4775 5.69945 48.4133 5.69385 48.3566 5.71903Z" fill="#0F2335"/>
<path fill-rule="evenodd" clip-rule="evenodd" d="M35.7713 2.07721C36.117 2.03564 36.4776 2.18072 36.6952 2.44811C36.897 2.68911 36.9721 3.02374 36.8987 3.32659C36.8221 3.65952 36.5622 3.94438 36.2332 4.05429C35.9376 4.15801 35.5954 4.11964 35.3309 3.95347C35.089 3.8042 34.9161 3.5525 34.8664 3.27603C34.8111 2.99166 34.889 2.68581 35.0722 2.4592C35.2413 2.24747 35.4985 2.10569 35.7713 2.07721ZM35.1293 2.59738C34.9451 2.86496 34.9296 3.23047 35.0862 3.51393C35.0858 3.34447 35.0697 3.17012 35.1265 3.00685C35.2285 2.68711 35.5 2.42652 35.8287 2.3368C35.9852 2.28754 36.1509 2.30113 36.3125 2.30482C36.2202 2.25736 36.122 2.21819 36.018 2.2057C35.6781 2.15415 35.3164 2.31392 35.1293 2.59738Z" fill="#F4D32F"/>
<path fill-rule="evenodd" clip-rule="evenodd" d="M35.1292 2.59738C35.3164 2.31391 35.678 2.15414 36.0179 2.2057C36.122 2.21819 36.2202 2.25736 36.3125 2.30482C36.1509 2.30112 35.9852 2.28753 35.8287 2.33679C35.4999 2.42652 35.2285 2.6871 35.1265 3.00684C35.0696 3.17011 35.0858 3.34447 35.0862 3.51393C34.9297 3.23046 34.945 2.86496 35.1292 2.59738ZM45.0615 4.87022C45.2778 4.85973 45.496 4.85113 45.7116 4.87621C45.5925 4.90179 45.471 4.91288 45.3508 4.92977C45.2946 4.93946 45.2358 4.94686 45.1861 4.97583C45.1513 5.02689 45.1429 5.08984 45.1297 5.14879C45.0988 5.31446 45.0609 5.47882 45.0256 5.64379L44.4407 8.36636C44.4002 8.54272 44.3715 8.72167 44.3215 8.89593L44.1984 8.89153C44.2255 8.73026 44.2642 8.57139 44.298 8.41142L45.0287 5.00821L45.0615 4.87022Z" fill="#FBEEAC"/>
<path fill-rule="evenodd" clip-rule="evenodd" d="M32.6033 2.91632C32.6079 2.88255 32.6391 2.84518 32.6773 2.85337C32.7136 2.85897 32.7454 2.87905 32.7759 2.89773L34.7936 4.31667C34.8739 4.37672 34.9708 4.42169 35.03 4.50432C35.0384 4.57806 34.9729 4.63651 34.9345 4.69416C34.8293 4.84084 34.699 4.97254 34.623 5.1372C34.7493 5.11252 34.8672 5.06027 34.9864 5.0139L39.0964 3.44449C39.1353 3.4323 39.1764 3.41991 39.2179 3.4269C39.2467 3.44609 39.2732 3.48216 39.2533 3.51683C39.2052 3.59756 39.1217 3.64922 39.0529 3.71117L36.9086 5.56315C36.8099 5.65038 36.7547 5.77118 36.6876 5.88099L34.6605 9.26962C34.6094 9.35146 34.57 9.44178 34.5055 9.51502C34.482 9.5449 34.4396 9.5376 34.4071 9.53061C34.3765 9.49644 34.3782 9.44858 34.3763 9.40611L34.4258 6.99258C34.426 6.88258 34.4365 6.77246 34.4264 6.66255C34.4191 6.58532 34.3817 6.51577 34.3465 6.44803C34.2544 6.27457 34.1715 6.09672 34.0831 5.92166L32.6396 3.02913C32.6237 2.99296 32.6052 2.95629 32.6033 2.91632ZM38.3041 3.92439L35.9171 4.83565L35.2368 5.09294C35.1744 5.11682 35.1087 5.1415 35.0614 5.19036C35.0092 5.24302 34.9752 5.30936 34.9416 5.37411C35.0768 5.37101 35.1963 5.30417 35.3199 5.2591L38.0555 4.21526C38.1767 4.16789 38.3081 4.13392 38.4094 4.04889C38.5148 3.96006 38.6189 3.86944 38.7183 3.77412C38.577 3.81548 38.4413 3.87184 38.3041 3.92439ZM34.6064 6.59661C34.5991 6.67315 34.5945 6.74998 34.5941 6.82712C34.5942 7.20521 34.5765 7.5833 34.5734 7.96139L34.5512 9.11675C34.6031 9.03851 34.6593 8.96267 34.7011 8.87884C34.7495 8.77942 34.7352 8.66582 34.7392 8.5592L34.7713 7.05553C34.7724 6.9749 34.7778 6.89057 34.7455 6.81453C34.7115 6.7349 34.6576 6.66585 34.6064 6.59661ZM37.7568 5.81944C37.9506 5.70314 38.1799 5.65898 38.4046 5.65318C38.6164 5.64828 38.8341 5.65977 39.0332 5.73731C39.1744 5.79127 39.3004 5.89109 39.3697 6.02538C39.4481 6.17685 39.4614 6.35191 39.4521 6.51907C39.4353 6.78416 39.3588 7.04055 39.309 7.30063C39.2868 7.39276 39.2811 7.49228 39.2307 7.57521C39.1819 7.5913 39.1295 7.5911 39.0789 7.59229L38.0059 7.5903C37.9613 7.75846 37.9349 7.93042 37.8982 8.10028C37.8878 8.17412 37.8665 8.25865 37.9095 8.32649C37.9613 8.38135 38.0629 8.36266 38.1065 8.30581C38.1961 8.18361 38.1726 8.01805 38.2511 7.89155C38.3499 7.86857 38.4525 7.88006 38.5529 7.87886C38.721 7.88296 38.889 7.87376 39.0569 7.87966C39.093 7.88356 39.15 7.88316 39.1572 7.92922C39.1685 8.02284 39.1366 8.11467 39.1143 8.20479C39.0487 8.4444 38.9392 8.6852 38.7379 8.84387C38.5168 9.02023 38.2231 9.07298 37.9454 9.07558C37.6972 9.07908 37.4328 9.0581 37.2188 8.92231C37.0726 8.83138 36.9778 8.67511 36.9444 8.51014C36.8956 8.27334 36.9299 8.02904 36.9795 7.79523L37.1909 6.80904C37.2341 6.6061 37.2906 6.40337 37.3889 6.21892C37.4746 6.05835 37.5975 5.91357 37.7568 5.81944ZM37.88 5.89768C37.7232 5.97692 37.5981 6.10861 37.5141 6.25958C37.4064 6.45213 37.3512 6.66725 37.3065 6.88108L37.089 7.90474C37.0403 8.15643 37.0134 8.43331 37.1409 8.66811C37.143 8.55611 37.1377 8.4442 37.1468 8.33239C37.1561 8.20669 37.1821 8.08299 37.2083 7.95989L37.4091 7.02476C37.4571 6.80244 37.5187 6.57872 37.6371 6.38118C37.7248 6.23291 37.848 6.10271 38.0013 6.01848C38.1736 5.92096 38.3732 5.88099 38.5701 5.8701C38.7218 5.86001 38.8735 5.87979 39.0254 5.8777C38.8484 5.78517 38.6429 5.77918 38.447 5.77978C38.253 5.78098 38.054 5.80885 37.88 5.89768ZM38.2909 6.40586C38.259 6.45622 38.244 6.51458 38.229 6.57153C38.1972 6.70342 38.171 6.83671 38.1505 6.9708C38.2413 6.9737 38.3318 6.9732 38.4224 6.9698C38.4529 6.82572 38.4903 6.68284 38.511 6.53696C38.5154 6.4818 38.5263 6.41885 38.4936 6.36959C38.4313 6.33043 38.3301 6.33772 38.2909 6.40586Z" fill="#FE7901"/>
<path fill-rule="evenodd" clip-rule="evenodd" d="M38.3041 3.9244C38.4413 3.87184 38.5771 3.81549 38.7182 3.77412C38.6188 3.86945 38.5148 3.95997 38.4095 4.0489C38.3081 4.13393 38.1768 4.1679 38.0555 4.21526L35.32 5.25911C35.1962 5.30417 35.0768 5.37102 34.9415 5.37412C34.9753 5.30937 35.0092 5.24302 35.0613 5.19037C35.1087 5.14151 35.1743 5.11683 35.2369 5.09295C35.4651 5.01081 35.6902 4.92089 35.917 4.83566L38.3041 3.9244Z" fill="#FFCB9C"/>
<path fill-rule="evenodd" clip-rule="evenodd" d="M44.9516 4.78589C44.9664 4.73114 45.0332 4.73753 45.0783 4.73314L45.7505 4.73234C45.8038 4.73603 45.872 4.72764 45.9085 4.7754C45.9131 4.81417 45.9068 4.85314 45.9003 4.89151L45.0837 8.6887C45.0582 8.79362 45.0512 8.90513 45.0017 9.00265C44.9189 9.03322 44.8282 9.02163 44.7418 9.02333C44.5167 9.01633 44.2912 9.03322 44.0664 9.01244C44.0488 8.87505 44.0971 8.74286 44.1237 8.61007L44.8842 5.07056C44.9056 4.97564 44.9166 4.87752 44.9516 4.78589ZM45.0615 4.87023L45.0288 5.00811L44.2981 8.41143C44.2643 8.5714 44.2255 8.73027 44.1984 8.89154L44.3216 8.89593C44.3715 8.72168 44.4003 8.54272 44.4407 8.36637L45.0257 5.64379L45.1297 5.1488C45.1429 5.08985 45.1513 5.0269 45.1862 4.97584C45.2359 4.94686 45.2946 4.93947 45.3508 4.92978C45.471 4.91289 45.5925 4.9018 45.7117 4.87622C45.496 4.85114 45.2778 4.85973 45.0615 4.87023Z" fill="#F3D330"/>
<path fill-rule="evenodd" clip-rule="evenodd" d="M42.4774 4.93228C42.5307 4.91619 42.5874 4.91829 42.6428 4.91759L43.5673 4.91929C43.7761 4.92158 43.9924 4.95036 44.1756 5.05497C44.3222 5.13801 44.4313 5.27969 44.4766 5.43946C44.5479 5.67976 44.5093 5.93396 44.455 6.17356C44.3992 6.41656 44.3608 6.66566 44.2685 6.89897C44.2062 7.05654 44.1141 7.20771 43.9768 7.31283C43.8478 7.41345 43.6869 7.4656 43.526 7.49088C43.3122 7.52685 43.0947 7.50907 42.8792 7.51436L42.5863 8.89424C42.5771 8.9315 42.5666 8.96897 42.5473 9.00265C42.4781 9.02972 42.4019 9.02243 42.3293 9.02373C42.1331 9.01913 41.9368 9.02413 41.7406 9.02333C41.693 9.01833 41.6328 9.02573 41.6007 8.98346C41.5952 8.9425 41.6013 8.90143 41.6084 8.86136L42.3685 5.33974C42.3902 5.24302 42.4072 5.1452 42.429 5.04838C42.4393 5.00801 42.4491 4.96495 42.4774 4.93228ZM42.5655 5.05637C42.5334 5.17408 42.5076 5.29348 42.4837 5.41298L41.8092 8.54412C41.7824 8.65963 41.7568 8.77553 41.74 8.89284L41.8657 8.89264C41.8952 8.77363 41.9202 8.65363 41.9452 8.53363L42.5723 5.62351L42.6392 5.29967C42.6518 5.24652 42.6614 5.18976 42.6963 5.1457C42.768 5.12732 42.8431 5.13061 42.9167 5.13041L43.672 5.13191C43.8067 5.13211 43.9408 5.1463 44.0755 5.1502C43.9806 5.10403 43.8793 5.07016 43.7738 5.05987C43.4962 5.0281 43.2163 5.04668 42.9379 5.04129C42.8135 5.03789 42.6887 5.03789 42.5655 5.05637ZM43.2992 5.61302C43.2758 5.69016 43.2561 5.76819 43.24 5.84703L43.0479 6.75269C43.1305 6.74789 43.2283 6.76338 43.2952 6.70383C43.3655 6.63468 43.3835 6.53327 43.4052 6.44184L43.5151 5.91277C43.5266 5.83344 43.548 5.74431 43.5077 5.66967C43.4578 5.61012 43.3686 5.62391 43.2992 5.61302ZM46.5171 5.72832C46.7145 5.65898 46.9268 5.64929 47.1345 5.65239C47.3276 5.65668 47.5252 5.67567 47.7041 5.7522C47.8539 5.81425 47.98 5.93575 48.0323 6.08843C48.1034 6.29246 48.0761 6.51348 48.0327 6.72051L47.7415 8.06341C47.684 8.3209 47.6322 8.57979 47.5875 8.83978C47.5766 8.89533 47.5675 8.95259 47.5407 9.00335C47.4574 9.03282 47.367 9.02183 47.2803 9.02333C47.0626 9.01693 46.8442 9.03212 46.6266 9.01344C46.6201 8.94529 46.6193 8.87715 46.6226 8.80891C46.541 8.88554 46.4554 8.96158 46.3522 9.00924C46.212 9.07399 46.0522 9.08738 45.9001 9.06879C45.7704 9.05251 45.6471 8.98406 45.5732 8.87755C45.4836 8.74915 45.4576 8.58948 45.4549 8.43701C45.453 8.21779 45.4922 7.99987 45.5535 7.78984C45.6196 7.56242 45.7392 7.34041 45.9353 7.19672C46.1554 7.03595 46.4304 6.97261 46.6975 6.93634C46.8018 6.92005 46.9109 6.92834 47.0122 6.89447C47.0401 6.82523 47.0506 6.75099 47.0664 6.67885C47.0819 6.59562 47.1029 6.51248 47.1024 6.42755C47.1014 6.39478 47.0951 6.35661 47.0651 6.33733C47.0068 6.30206 46.9233 6.32184 46.8855 6.37719C46.8184 6.47252 46.8215 6.59542 46.7705 6.69743C46.6877 6.7351 46.5924 6.71642 46.5043 6.72011C46.2998 6.71142 46.0937 6.7356 45.8907 6.70383C45.8952 6.618 45.9049 6.53187 45.9307 6.44943C45.9804 6.28567 46.0427 6.1216 46.1516 5.98621C46.245 5.86801 46.3738 5.77808 46.5171 5.72832ZM46.5278 5.86162C46.382 5.91897 46.262 6.03008 46.185 6.16367C46.109 6.29716 46.0532 6.44364 46.0381 6.59681L46.1634 6.59601C46.2053 6.50089 46.2439 6.40397 46.2947 6.31295C46.3698 6.17896 46.4831 6.06495 46.6218 5.99401C46.7949 5.90178 46.994 5.8757 47.188 5.86821C47.3596 5.85922 47.5304 5.8825 47.7014 5.89319C47.5516 5.81865 47.3842 5.78738 47.2174 5.78228C46.9862 5.77569 46.7456 5.77379 46.5278 5.86162ZM47.2304 6.51348C47.2017 6.62609 47.1849 6.7411 47.1614 6.8549C47.1484 6.90536 47.1379 6.96072 47.1016 7.00068C47.051 7.03536 46.9856 7.03376 46.9268 7.04195C46.7065 7.05704 46.485 7.08661 46.2758 7.15905C46.1266 7.21051 45.9872 7.29494 45.8848 7.41445C45.7713 7.54644 45.7077 7.7115 45.6624 7.87637C45.6045 8.09619 45.5686 8.3248 45.5915 8.55202C45.5999 8.64354 45.6366 8.72927 45.6779 8.8107C45.6796 8.63145 45.6718 8.4504 45.7083 8.27354C45.7601 7.99517 45.8483 7.70651 46.053 7.49788C46.2207 7.32802 46.4537 7.24019 46.6847 7.19073C46.8651 7.14846 47.0512 7.14267 47.234 7.11529C47.2642 6.9838 47.2978 6.8526 47.3162 6.71891C47.3208 6.67085 47.3271 6.6201 47.3097 6.57393C47.2892 6.54695 47.2571 6.53287 47.2304 6.51348ZM46.6442 7.62527C46.574 7.67973 46.5389 7.76446 46.5142 7.84629C46.4862 7.94381 46.4647 8.04463 46.4672 8.14675C46.4695 8.19331 46.477 8.24976 46.5217 8.27644C46.5853 8.31061 46.6702 8.28254 46.7093 8.22458C46.7531 8.16074 46.767 8.0828 46.7835 8.00896L46.8746 7.54454C46.7953 7.56242 46.7103 7.57501 46.6442 7.62527ZM48.3566 5.71903C48.4132 5.69385 48.4775 5.69945 48.5381 5.69785C48.7559 5.70195 48.9736 5.69905 49.1914 5.69845C49.2397 5.70275 49.3001 5.69495 49.3368 5.73282C49.3496 5.77339 49.3446 5.81695 49.3418 5.85862L49.1257 7.69172C49.1102 7.80453 49.0892 7.91763 49.0945 8.03214C49.1566 7.95231 49.1691 7.85059 49.1922 7.75597L49.6498 6.0029C49.6779 5.90828 49.6895 5.80616 49.7421 5.72063C49.7973 5.69245 49.8625 5.70005 49.9228 5.69785C50.1334 5.70175 50.3442 5.69945 50.5549 5.69795C50.6092 5.70195 50.6801 5.69305 50.7154 5.74411C50.7164 5.84723 50.6612 5.94005 50.6283 6.03537L49.4906 9.04121C49.4085 9.25194 49.3223 9.46477 49.1853 9.64772C49.0842 9.78361 48.9468 9.89412 48.788 9.95777C48.5637 10.0495 48.3166 10.0627 48.0765 10.0594C47.9685 10.0569 47.8575 10.0621 47.7526 10.0328C47.7197 10.0256 47.7084 9.99104 47.7113 9.96186C47.7146 9.88173 47.7375 9.80399 47.7534 9.72596C47.7912 9.56479 47.8074 9.39872 47.8669 9.24345C47.9685 9.24285 48.0717 9.25024 48.1718 9.22836C48.2209 9.21617 48.2748 9.19379 48.2989 9.14683C48.317 9.09787 48.3147 9.04471 48.3163 8.99365L48.3155 8.37366L48.3226 7.30214L48.3279 6.3748C48.3329 6.19524 48.3266 6.01559 48.3285 5.83634C48.3327 5.79707 48.3274 5.75011 48.3566 5.71903ZM48.4659 5.82764C48.4445 6.22971 48.4605 6.63228 48.4521 7.03446C48.4426 7.39196 48.4554 7.74937 48.4433 8.10668L48.4424 9.01344C48.4405 9.10346 48.4391 9.20918 48.3618 9.27193C48.2532 9.37005 48.0958 9.36425 47.958 9.37544C47.9173 9.55619 47.8768 9.73725 47.8506 9.9207L47.9695 9.93528C48.0063 9.7912 48.0264 9.64342 48.0675 9.50034C48.2075 9.46937 48.3635 9.44179 48.4623 9.32918C48.5228 9.26763 48.533 9.1783 48.5343 9.09687L48.5395 7.962L48.5448 7.03376C48.5532 6.66396 48.532 6.29306 48.5612 5.92386C48.7689 5.8755 48.9847 5.8771 49.192 5.82604C48.9501 5.82544 48.7078 5.82115 48.4659 5.82764Z" fill="#F3D32F"/>
<path fill-rule="evenodd" clip-rule="evenodd" d="M42.5655 5.05637C42.6887 5.03789 42.8135 5.03789 42.9379 5.04128C43.2163 5.04668 43.4963 5.02809 43.7738 5.05987C43.8793 5.07016 43.9806 5.10403 44.0755 5.15019C43.9408 5.1463 43.8067 5.13211 43.672 5.13181C43.4203 5.13121 43.1685 5.13431 42.9167 5.13041C42.8431 5.13061 42.768 5.12731 42.6963 5.1456C42.6614 5.18976 42.6518 5.24652 42.6393 5.29967L42.5723 5.62351L41.9452 8.53363L41.8657 8.89263L41.74 8.89283C41.7568 8.77553 41.7825 8.65962 41.8092 8.54412L42.4837 5.41298C42.5076 5.29348 42.5335 5.17408 42.5655 5.05637ZM46.5278 5.86161C46.7456 5.77378 46.9862 5.77568 47.2174 5.78228C47.3842 5.78737 47.5516 5.81865 47.7014 5.89319C47.5305 5.8825 47.3597 5.85921 47.188 5.86821C46.994 5.8757 46.795 5.90178 46.6218 5.994C46.4831 6.06495 46.3698 6.17895 46.2947 6.31294C46.2439 6.40397 46.2053 6.50089 46.1634 6.59601L46.0381 6.59681C46.0532 6.44364 46.109 6.29716 46.1851 6.16367C46.262 6.03008 46.382 5.91897 46.5278 5.86161Z" fill="#FBEDAA"/>
<path fill-rule="evenodd" clip-rule="evenodd" d="M40.4879 5.26441C40.5603 5.24093 40.6381 5.24882 40.7135 5.24772C40.8463 5.25202 40.9793 5.24422 41.1121 5.24902C41.1473 5.25312 41.1924 5.25082 41.2155 5.28299C41.2342 5.32086 41.2252 5.36482 41.2218 5.40519L41.1807 5.68786C41.3011 5.73452 41.4272 5.77919 41.5229 5.86821C41.652 5.98642 41.7163 6.16097 41.7207 6.33213C41.7278 6.47372 41.7104 6.6166 41.6596 6.74979C41.4633 6.75988 41.2669 6.75079 41.0705 6.75599C41.003 6.75509 40.9335 6.76088 40.8681 6.7418C40.8408 6.7353 40.8276 6.70593 40.8312 6.68075C40.8341 6.57234 40.8836 6.46652 40.8635 6.35771C40.8565 6.30226 40.7904 6.28627 40.7441 6.30076C40.6912 6.31385 40.6644 6.36591 40.6478 6.41227C40.6176 6.5003 40.6031 6.60131 40.6444 6.68864C40.6875 6.77877 40.7676 6.84382 40.8433 6.90686C40.9887 7.02397 41.1314 7.14597 41.2537 7.28685C41.3445 7.39147 41.4194 7.51167 41.457 7.64486C41.5023 7.80103 41.4937 7.9661 41.4692 8.12477C41.4413 8.29783 41.3932 8.47038 41.3032 8.62246C41.2176 8.76834 41.0852 8.88724 40.9289 8.95629C40.8494 8.99176 40.7661 9.01754 40.6837 9.04531C40.652 9.1828 40.6619 9.33148 40.6033 9.46197C40.5391 9.48775 40.4678 9.48226 40.4 9.48326C40.2804 9.48056 40.1606 9.48226 40.0408 9.48346C39.9869 9.48186 39.9301 9.48495 39.8803 9.46157C39.8484 9.4325 39.8577 9.38594 39.8596 9.34817C39.8718 9.24635 39.8906 9.14553 39.8965 9.04332C39.7807 9.00335 39.6609 8.96348 39.5657 8.88455C39.4692 8.80661 39.4037 8.6959 39.3733 8.5778C39.3312 8.41633 39.341 8.24647 39.3695 8.0838C39.38 8.04343 39.385 7.99537 39.419 7.9669C39.4832 7.94222 39.5543 7.94941 39.6221 7.94791C39.7834 7.95231 39.9447 7.94751 40.1061 7.94841C40.1556 7.95171 40.2156 7.94821 40.2509 7.98978C40.2649 8.10109 40.2091 8.209 40.2234 8.32051C40.2278 8.37346 40.2794 8.41513 40.3333 8.40694C40.4034 8.40114 40.4481 8.33719 40.469 8.27704C40.5144 8.14735 40.5236 7.99367 40.447 7.87307C40.3558 7.72529 40.2053 7.62897 40.0778 7.51457C39.9253 7.37898 39.7784 7.2233 39.7127 7.02766C39.6454 6.83242 39.6701 6.6209 39.7157 6.42416C39.7629 6.21993 39.8568 6.01809 40.0216 5.88C40.1285 5.78658 40.2649 5.73732 40.3969 5.68806C40.4164 5.58754 40.428 5.48583 40.4432 5.38461C40.4516 5.34294 40.4565 5.29638 40.4879 5.26441ZM40.5526 5.35104L40.4915 5.7662C40.3635 5.81366 40.2263 5.84783 40.1172 5.93256C39.954 6.05586 39.8623 6.248 39.8165 6.44094C39.7612 6.66376 39.7448 6.91296 39.8657 7.11879C39.8631 6.9895 39.8554 6.859 39.8787 6.73081C39.9177 6.4937 40.0031 6.2505 40.1865 6.08334C40.297 5.97832 40.4436 5.92537 40.5842 5.87241C40.6132 5.72683 40.6262 5.57885 40.6572 5.43367C40.8097 5.40309 40.965 5.38601 41.1165 5.35044C40.9285 5.34774 40.7405 5.34634 40.5526 5.35104ZM39.4822 8.05393C39.4358 8.26425 39.4179 8.49976 39.5323 8.693C39.5378 8.50685 39.5323 8.31781 39.5894 8.13806C39.7689 8.10858 39.9517 8.09619 40.1288 8.05253C39.9131 8.05153 39.6975 8.04823 39.4822 8.05393Z" fill="#FD7901"/>
<path fill-rule="evenodd" clip-rule="evenodd" d="M40.5527 5.35103C40.7405 5.34633 40.9286 5.34773 41.1164 5.35043C40.965 5.386 40.8098 5.40308 40.6572 5.43366C40.6261 5.57884 40.6131 5.72682 40.5843 5.8724C40.4437 5.92536 40.297 5.97831 40.1866 6.08333C40.003 6.25049 39.9176 6.49369 39.8786 6.7308C39.8553 6.85899 39.8631 6.98949 39.8656 7.11878C39.7448 6.91285 39.7611 6.66375 39.8165 6.44094C39.8623 6.24799 39.954 6.05575 40.1171 5.93255C40.2262 5.84782 40.3635 5.81365 40.4914 5.76619C40.5147 5.6283 40.5311 5.48931 40.5527 5.35103Z" fill="#FFC591"/>
<path fill-rule="evenodd" clip-rule="evenodd" d="M43.2992 5.61302C43.3686 5.62401 43.4578 5.61012 43.5078 5.66968C43.548 5.74441 43.5267 5.83344 43.5151 5.91278L43.4052 6.44184C43.3835 6.53327 43.3655 6.63469 43.2952 6.70383C43.2283 6.76338 43.1305 6.74789 43.0479 6.75269L43.2401 5.84703C43.2561 5.76819 43.2758 5.69016 43.2992 5.61302Z" fill="#132632"/>
<path fill-rule="evenodd" clip-rule="evenodd" d="M37.88 5.89769C38.0541 5.80886 38.253 5.78098 38.4471 5.77978C38.643 5.77918 38.8484 5.78508 39.0255 5.8777C38.8736 5.8798 38.7218 5.86002 38.5702 5.87011C38.3732 5.881 38.1737 5.92097 38.0012 6.01849C37.8481 6.10262 37.7249 6.23291 37.637 6.38119C37.5187 6.57873 37.4572 6.80245 37.4092 7.02476L37.2084 7.9599C37.1822 8.083 37.1562 8.2067 37.1467 8.3324C37.1377 8.4442 37.143 8.55611 37.1408 8.66812C37.0134 8.43321 37.0404 8.15644 37.089 7.90465L37.3066 6.88108C37.3513 6.66726 37.4065 6.45213 37.5141 6.25949C37.5982 6.10861 37.7233 5.97692 37.88 5.89769Z" fill="#FFC998"/>
<path fill-rule="evenodd" clip-rule="evenodd" d="M48.4659 5.82764C48.7078 5.82115 48.9501 5.82544 49.192 5.82604C48.9847 5.8771 48.7689 5.8755 48.5612 5.92386C48.532 6.29306 48.5532 6.66396 48.5448 7.03386C48.5358 7.3431 48.5433 7.65255 48.5395 7.962C48.5295 8.34009 48.5368 8.71858 48.5343 9.09687C48.533 9.1783 48.5228 9.26763 48.4624 9.32918C48.3635 9.44179 48.2075 9.46936 48.0675 9.50034C48.0264 9.64342 48.0063 9.7912 47.9695 9.93528L47.8506 9.9207C47.8768 9.73725 47.9173 9.55619 47.958 9.37544C48.0958 9.36435 48.2532 9.37005 48.3618 9.27193C48.4391 9.20918 48.4405 9.10346 48.4424 9.01344L48.4433 8.10668C48.4554 7.74937 48.4426 7.39196 48.4521 7.03446C48.4605 6.63228 48.4445 6.22971 48.4659 5.82764Z" fill="#FBEDA8"/>
<path fill-rule="evenodd" clip-rule="evenodd" d="M38.2909 6.40587C38.3302 6.33772 38.4313 6.33043 38.4937 6.3696C38.5263 6.41886 38.5154 6.48181 38.511 6.53696C38.4903 6.68284 38.4529 6.82572 38.4225 6.96981C38.3318 6.9732 38.2413 6.9737 38.1506 6.97081C38.1711 6.83662 38.1972 6.70342 38.229 6.57153C38.244 6.51458 38.259 6.45623 38.2909 6.40587Z" fill="#132330"/>
<path fill-rule="evenodd" clip-rule="evenodd" d="M47.2304 6.51348C47.2571 6.53287 47.2893 6.54695 47.3098 6.57393C47.3271 6.62009 47.3208 6.67085 47.3162 6.71891C47.2979 6.8527 47.2642 6.9838 47.234 7.11529C47.0513 7.14267 46.8651 7.14846 46.6848 7.19073C46.4538 7.24019 46.2207 7.32802 46.053 7.49788C45.8483 7.70651 45.7601 7.99517 45.7084 8.27354C45.6718 8.4504 45.6796 8.63145 45.6779 8.8107C45.6366 8.72927 45.5999 8.64354 45.5916 8.55201C45.5686 8.3248 45.6045 8.09619 45.6624 7.87637C45.7078 7.7115 45.7713 7.54644 45.8848 7.41444C45.9872 7.29494 46.1267 7.21051 46.2758 7.15905C46.485 7.08661 46.7065 7.05704 46.9269 7.04195C46.9856 7.03386 47.0511 7.03535 47.1016 7.00068C47.1379 6.96072 47.1484 6.90536 47.1615 6.8549C47.185 6.7411 47.2017 6.62609 47.2304 6.51348Z" fill="#FBEEAB"/>
<path fill-rule="evenodd" clip-rule="evenodd" d="M34.6064 6.59661C34.6576 6.66585 34.7115 6.7349 34.7455 6.81453C34.7778 6.89057 34.7724 6.9749 34.7713 7.05554L34.7392 8.55921C34.7352 8.66582 34.7495 8.77943 34.701 8.87884C34.6593 8.96268 34.603 9.03851 34.5511 9.11675L34.5733 7.96139L34.5941 6.82712C34.5945 6.74999 34.5991 6.67315 34.6064 6.59661Z" fill="#FFCA99"/>
<path fill-rule="evenodd" clip-rule="evenodd" d="M46.6442 7.62527C46.7103 7.57502 46.7952 7.56243 46.8745 7.54454C46.8483 7.69991 46.8133 7.85399 46.7835 8.00896C46.7669 8.0828 46.7531 8.16074 46.7092 8.22458C46.6701 8.28254 46.5852 8.31061 46.5217 8.27644C46.477 8.24976 46.4694 8.19331 46.4671 8.14675C46.4646 8.04463 46.4862 7.94381 46.5141 7.84629C46.5389 7.76446 46.5739 7.67973 46.6442 7.62527Z" fill="#132532"/>
<path fill-rule="evenodd" clip-rule="evenodd" d="M39.4822 8.05392C39.6976 8.04823 39.9131 8.05153 40.1288 8.05252C39.9517 8.09619 39.7689 8.10848 39.5894 8.13805C39.5323 8.31781 39.5378 8.50685 39.5323 8.693C39.4179 8.49976 39.4358 8.26425 39.4822 8.05392Z" fill="#FFBF86"/>
<path fill-rule="evenodd" clip-rule="evenodd" d="M35.0803 10.4654C35.166 10.3456 35.3252 10.3043 35.4672 10.3155C35.5717 10.3216 35.6906 10.3588 35.7422 10.4562C35.78 10.5276 35.7196 10.6258 35.6378 10.6258C35.5616 10.6066 35.5018 10.5494 35.4253 10.5313C35.382 10.5237 35.3348 10.5301 35.297 10.5527C35.274 10.5738 35.267 10.6063 35.2518 10.6327C35.3634 10.6878 35.4903 10.7148 35.5912 10.7892C35.6854 10.8624 35.6854 10.9984 35.6407 11.0984C35.595 11.2149 35.4773 11.2889 35.356 11.3116C35.2329 11.3343 35.0959 11.3281 34.9887 11.2584C34.9371 11.2244 34.8892 11.1757 34.8781 11.1135C34.8651 11.0422 34.932 10.9728 35.0044 10.977C35.0849 11.0021 35.1374 11.0793 35.2201 11.1011C35.2704 11.111 35.3244 11.1058 35.3714 11.0859C35.4165 11.0685 35.4207 11.0147 35.4389 10.977C35.3256 10.9143 35.1924 10.8883 35.0892 10.809C34.9864 10.722 35.0071 10.5636 35.0803 10.4654ZM39.8115 10.3948C39.8943 10.3325 40.0018 10.3113 40.1044 10.3142C40.1886 10.3166 40.2771 10.334 40.3448 10.3862C40.3845 10.4169 40.4186 10.4633 40.4147 10.5152C40.4111 10.5742 40.356 10.6259 40.2957 10.6251C40.2024 10.6002 40.1262 10.5126 40.0227 10.5309C39.9671 10.5321 39.9384 10.5824 39.9045 10.6175C39.9888 10.6694 40.0826 10.7025 40.1734 10.7414C40.2483 10.7729 40.3157 10.8353 40.3274 10.9181C40.3459 11.0435 40.2867 11.1788 40.1776 11.2483C40.0771 11.3138 39.9515 11.3308 39.8333 11.32C39.7337 11.311 39.6336 11.2667 39.5727 11.1867C39.5459 11.152 39.53 11.1058 39.5451 11.0633C39.5608 11.0096 39.6212 10.9657 39.6787 10.9799C39.7502 11.0108 39.8017 11.0768 39.8776 11.0999C39.9291 11.1113 39.9828 11.1068 40.0316 11.0873C40.0783 11.0707 40.0799 11.0142 40.0998 10.9764C40.0146 10.9335 39.9253 10.9007 39.8381 10.8626C39.7739 10.834 39.7097 10.7884 39.6903 10.7182C39.6586 10.5995 39.7124 10.4672 39.8115 10.3948ZM44.7481 10.3219C44.7984 10.3122 44.8613 10.3443 44.8632 10.3994C44.8677 10.4636 44.8505 10.527 44.8371 10.5897C44.797 10.7593 44.7611 10.93 44.7271 11.1011C44.7129 11.1588 44.7036 11.2211 44.6667 11.2699C44.6232 11.3255 44.5169 11.3359 44.4802 11.2683C44.4598 11.2052 44.4805 11.1387 44.4917 11.076C44.537 10.8841 44.5769 10.6911 44.6171 10.4981C44.6322 10.4259 44.6608 10.3332 44.7481 10.3219ZM37.1973 10.3222C37.333 10.3045 37.4917 10.3079 37.5977 10.4055C37.6898 10.4907 37.7024 10.6251 37.689 10.7419C37.6693 10.9036 37.6105 11.0688 37.4895 11.1842C37.363 11.3042 37.1747 11.3413 37.0049 11.3158C36.9178 11.3025 36.8303 11.2623 36.7797 11.1889C36.7191 11.102 36.7151 10.9907 36.7258 10.8894C36.7422 10.7504 36.7889 10.6115 36.8781 10.5008C36.9559 10.4034 37.0732 10.3402 37.1973 10.3222ZM37.1766 10.5443C37.0384 10.5942 36.9863 10.7494 36.9677 10.8801C36.9599 10.9517 36.9566 11.0492 37.0325 11.0875C37.1448 11.1387 37.2939 11.1003 37.3623 10.9972C37.4207 10.9106 37.4462 10.8057 37.45 10.7029C37.4509 10.6472 37.4416 10.5773 37.3848 10.5496C37.3202 10.52 37.2434 10.523 37.1766 10.5443ZM46.1502 10.4381C46.2808 10.3233 46.4707 10.2932 46.6388 10.3266C46.733 10.3468 46.8291 10.4084 46.8531 10.5051C46.871 10.5797 46.7957 10.6591 46.7189 10.6441C46.6491 10.6145 46.5984 10.5503 46.5238 10.5313C46.4378 10.5185 46.3423 10.5456 46.2859 10.6129C46.2225 10.6882 46.1944 10.7855 46.1794 10.8805C46.1726 10.9362 46.1675 10.9968 46.1936 11.0488C46.2219 11.0978 46.2852 11.1081 46.3377 11.1104C46.4042 11.1104 46.4768 11.1009 46.5305 11.0593C46.5489 11.0296 46.5603 10.9966 46.5733 10.9646C46.5053 10.9583 46.4355 10.9595 46.3698 10.9397C46.3092 10.8907 46.3389 10.7795 46.4136 10.7614C46.4846 10.7437 46.5588 10.7467 46.6316 10.7467C46.6856 10.7492 46.7426 10.7477 46.7926 10.771C46.8332 10.8098 46.8148 10.872 46.8113 10.9211C46.791 11.0229 46.7741 11.1421 46.6818 11.2071C46.5393 11.3087 46.3518 11.345 46.1798 11.3097C46.0995 11.2933 46.0213 11.2498 45.9796 11.1782C45.9212 11.0804 45.9265 10.9609 45.9435 10.8527C45.9705 10.6999 46.0293 10.5435 46.1502 10.4381Z" fill="#0E2234" fill-opacity="0.968627"/>
<path fill-rule="evenodd" clip-rule="evenodd" d="M45.1069 10.3808C45.1363 10.3301 45.21 10.3045 45.2632 10.3336C45.3045 10.3647 45.3251 10.414 45.3487 10.4581C45.4075 10.5839 45.4616 10.7121 45.534 10.8311C45.5653 10.7171 45.5845 10.6002 45.6102 10.4849C45.6242 10.4262 45.6435 10.3559 45.7068 10.3309C45.7564 10.3064 45.8299 10.3266 45.8475 10.3816C45.8586 10.4406 45.8427 10.5002 45.8318 10.5581L45.7212 11.0665C45.7081 11.1271 45.698 11.1896 45.6706 11.2463C45.6452 11.301 45.5725 11.3297 45.516 11.3065C45.4718 11.2788 45.45 11.2289 45.4262 11.1852C45.3645 11.0577 45.3092 10.9269 45.2353 10.8053C45.2112 10.9044 45.1919 11.0047 45.1722 11.1047C45.1598 11.1585 45.1498 11.2147 45.1201 11.2623C45.0796 11.3256 44.9626 11.3376 44.9271 11.2632C44.9091 11.2104 44.9261 11.1539 44.9353 11.1011L45.0532 10.5573C45.0666 10.4973 45.0764 10.4353 45.1069 10.3808ZM37.9729 10.3804C38.0038 10.3377 38.0627 10.3367 38.1108 10.3317C38.2136 10.3278 38.3178 10.325 38.4194 10.3433C38.491 10.3557 38.5541 10.4042 38.5832 10.4694C38.6256 10.5604 38.6074 10.6675 38.5631 10.7543C38.5203 10.8389 38.4399 10.8947 38.3658 10.9508C38.4072 11.0203 38.4565 11.0869 38.4826 11.164C38.5146 11.2586 38.3877 11.3512 38.3032 11.3019C38.2539 11.2635 38.2301 11.204 38.2016 11.151C38.1684 11.0806 38.1264 11.0146 38.0763 10.9546C38.0441 11.0504 38.0328 11.1527 37.9933 11.2463C37.962 11.3237 37.8345 11.3419 37.7902 11.267C37.7713 11.2116 37.7887 11.1524 37.7981 11.097L37.9158 10.5533C37.9297 10.4944 37.9391 10.4322 37.9729 10.3804ZM38.158 10.54C38.1412 10.6095 38.1257 10.6795 38.1116 10.7498C38.1714 10.749 38.2333 10.7562 38.2916 10.7387C38.3618 10.7086 38.3566 10.622 38.3712 10.5602C38.3004 10.5496 38.2293 10.5435 38.158 10.54ZM38.8386 10.3456C38.9021 10.327 38.9698 10.3316 39.0351 10.3307C39.155 10.3334 39.2745 10.3303 39.3943 10.3309C39.437 10.3334 39.4834 10.3307 39.5223 10.352C39.5845 10.4039 39.5492 10.5192 39.4699 10.5325C39.3992 10.548 39.3266 10.547 39.2548 10.5509C39.2076 10.7414 39.1715 10.9343 39.1305 11.1261C39.1173 11.1778 39.1072 11.2339 39.0714 11.2764C39.0247 11.33 38.9208 11.3302 38.8868 11.2625C38.8704 11.2108 38.8862 11.1562 38.895 11.1047C38.9357 10.9197 38.9816 10.7358 39.0135 10.5493C38.9416 10.5447 38.8672 10.5486 38.798 10.5253C38.7363 10.4775 38.7664 10.3672 38.8386 10.3456ZM42.8457 10.346C42.9092 10.3272 42.9766 10.3316 43.0422 10.3307C43.1547 10.333 43.2675 10.3311 43.3799 10.3306C43.4299 10.3324 43.4835 10.3293 43.5303 10.3509C43.5913 10.4039 43.5586 10.5208 43.4769 10.5328C43.4065 10.5478 43.3339 10.5472 43.2627 10.5509C43.2183 10.7369 43.1808 10.924 43.1424 11.1113C43.1299 11.1638 43.1199 11.2195 43.0891 11.2654C43.0459 11.3287 42.9315 11.3349 42.8947 11.2622C42.8787 11.2166 42.892 11.1677 42.8995 11.1221C42.9412 10.9314 42.989 10.742 43.022 10.5496C42.9496 10.5449 42.8749 10.5485 42.8054 10.5253C42.7473 10.4763 42.7738 10.3678 42.8457 10.346ZM43.7481 10.3462C43.8114 10.327 43.879 10.3316 43.9446 10.3307C44.057 10.333 44.1695 10.3313 44.282 10.3306C44.3323 10.3319 44.3854 10.3301 44.4328 10.3503C44.4937 10.4035 44.4615 10.5216 44.3793 10.5332C44.3088 10.5478 44.2363 10.5472 44.1649 10.5511C44.1208 10.7428 44.0818 10.936 44.0413 11.1285C44.0281 11.1799 44.0182 11.2359 43.9823 11.2776C43.9341 11.33 43.8311 11.3295 43.7977 11.2617C43.7812 11.2166 43.7948 11.1677 43.8023 11.1224C43.8443 10.9316 43.8926 10.7422 43.9245 10.5494C43.8521 10.5447 43.7769 10.5488 43.7079 10.5245C43.6485 10.4765 43.6776 10.3684 43.7481 10.3462ZM36.0008 10.3804C36.0266 10.3431 36.0768 10.3383 36.1185 10.3336C36.2029 10.3268 36.2879 10.328 36.3721 10.3332C36.4382 10.3382 36.5091 10.3489 36.5614 10.3928C36.6157 10.4375 36.638 10.5098 36.6359 10.5779C36.6327 10.7173 36.5536 10.8593 36.422 10.9185C36.3208 10.962 36.2074 10.9549 36.0996 10.9593C36.073 11.0548 36.0606 11.1546 36.0218 11.2464C35.9897 11.3237 35.8629 11.3415 35.8181 11.267C35.7993 11.2114 35.817 11.1522 35.8267 11.0968L35.9441 10.5536C35.958 10.4947 35.9673 10.4322 36.0008 10.3804ZM36.1859 10.539C36.1702 10.6071 36.1556 10.6756 36.1424 10.7443C36.2047 10.7406 36.27 10.7459 36.3292 10.7237C36.3902 10.694 36.3841 10.6158 36.3996 10.5604C36.3287 10.5496 36.2574 10.543 36.1859 10.539ZM41.1631 10.3433C41.2829 10.3211 41.4073 10.327 41.5282 10.3394C41.618 10.3472 41.709 10.4068 41.7211 10.5002C41.7455 10.5995 41.6759 10.6834 41.6463 10.7727C41.6456 10.8395 41.6812 10.9024 41.678 10.97C41.6678 11.1205 41.5515 11.2619 41.3983 11.2902C41.2829 11.3097 41.1648 11.3052 41.0482 11.3023C41.0049 11.2978 40.9476 11.2999 40.9248 11.2556C40.9051 11.2067 40.921 11.1533 40.9293 11.1038L41.0401 10.5919C41.0547 10.5259 41.065 10.4577 41.0951 10.3966C41.1014 10.3831 41.1108 10.3712 41.1226 10.3619C41.1344 10.3527 41.1483 10.3463 41.1631 10.3433ZM41.2848 10.5406L41.2586 10.7026C41.32 10.6981 41.3868 10.7068 41.4437 10.6786C41.4736 10.6459 41.4809 10.6002 41.4977 10.5608C41.4273 10.5493 41.3561 10.543 41.2848 10.5406ZM41.2021 10.9106L41.1748 11.0925C41.2399 11.091 41.3073 11.097 41.3711 11.0793C41.4286 11.0603 41.4461 10.9921 41.4429 10.9389C41.383 10.8746 41.2802 10.9121 41.2021 10.9106ZM42.0661 10.3439C42.1593 10.3231 42.2557 10.3328 42.3504 10.3303C42.4297 10.3328 42.5121 10.3231 42.5886 10.3478C42.6734 10.3929 42.626 10.5317 42.5368 10.5379C42.4221 10.5523 42.3063 10.5422 42.1913 10.548L42.161 10.7039C42.2503 10.7097 42.3443 10.6983 42.4297 10.73C42.4909 10.783 42.4556 10.9002 42.3743 10.9111C42.2854 10.9267 42.1944 10.923 42.1051 10.9321L42.0797 11.0896C42.1635 11.0892 42.2472 11.0865 42.3309 11.0889C42.3793 11.0915 42.4334 11.0923 42.472 11.1256C42.4936 11.1822 42.4804 11.2604 42.4188 11.2865C42.3566 11.3075 42.2894 11.3017 42.2249 11.3036C42.1207 11.3013 42.0159 11.3081 41.9122 11.2988C41.8798 11.2943 41.8376 11.2883 41.8284 11.2516C41.8133 11.1796 41.8361 11.1069 41.8498 11.0364C41.8935 10.8558 41.9283 10.6736 41.9681 10.4921C41.9836 10.4361 41.9995 10.3608 42.0661 10.3439Z" fill="#0E2235" fill-opacity="0.980392"/>
<path fill-rule="evenodd" clip-rule="evenodd" d="M36.1858 10.539C36.2573 10.543 36.3287 10.5496 36.3995 10.5604C36.384 10.6158 36.3901 10.694 36.329 10.7237C36.2699 10.7459 36.2046 10.7406 36.1423 10.7443C36.1555 10.6756 36.1701 10.6071 36.1858 10.539Z" fill="#010204" fill-opacity="0.070588"/>
<path fill-rule="evenodd" clip-rule="evenodd" d="M38.158 10.54C38.2292 10.5435 38.3004 10.5496 38.3712 10.5602C38.3566 10.622 38.3618 10.7087 38.2916 10.7387C38.2333 10.7562 38.1714 10.749 38.1116 10.7498C38.1257 10.6795 38.1412 10.6095 38.158 10.54Z" fill="#010203" fill-opacity="0.05098"/>
<path fill-rule="evenodd" clip-rule="evenodd" d="M41.2848 10.5406C41.3561 10.543 41.4272 10.5493 41.4977 10.5608C41.4809 10.6002 41.4736 10.6459 41.4436 10.6786C41.3868 10.7069 41.32 10.6981 41.2586 10.7027L41.2848 10.5406Z" fill="#010305" fill-opacity="0.090196"/>
<path fill-rule="evenodd" clip-rule="evenodd" d="M41.2021 10.9106C41.2801 10.9121 41.3829 10.8746 41.4429 10.9389C41.4461 10.9921 41.4285 11.0603 41.371 11.0793C41.3071 11.097 41.2399 11.091 41.1747 11.0925L41.2021 10.9106Z" fill="#010203" fill-opacity="0.058824"/>
</svg>
