<svg width="139" height="30" viewBox="0 0 139 30" fill="none" xmlns="http://www.w3.org/2000/svg">
<path d="M4.51033 9.93964H3.67571V12.7798H0.723328V3.96013H4.51033C4.99204 3.96013 5.43627 4.00988 5.84334 4.1095C6.25021 4.20922 6.6301 4.36699 6.98311 4.58302C7.33602 4.79894 7.61429 5.10619 7.81773 5.50476C8.02116 5.90344 8.12288 6.37685 8.12288 6.9249C8.12288 7.44807 8.02116 7.909 7.81773 8.30767C7.61429 8.70634 7.34022 9.02189 6.9955 9.2545C6.65088 9.48701 6.26889 9.65926 5.84944 9.77137C5.43008 9.88358 4.98374 9.93964 4.51033 9.93964ZM4.2985 6.26474H3.67571V7.68478H4.2985C4.5477 7.68478 4.75953 7.62263 4.93388 7.49793C5.10824 7.37343 5.19547 7.19068 5.19547 6.94978C5.19547 6.49315 4.89651 6.26474 4.2985 6.26474ZM9.24406 12.7798V3.96013H13.0437C13.5087 3.96013 13.9405 4.00579 14.3391 4.09711C14.7378 4.18854 15.1135 4.33802 15.4665 4.54565C15.8195 4.75318 16.0978 5.05013 16.3011 5.43632C16.5046 5.8225 16.6064 6.28552 16.6064 6.82528C16.6064 7.35685 16.4714 7.83006 16.2015 8.24542C15.9316 8.66068 15.5516 8.98042 15.0617 9.20464L17.304 12.7798H13.8907L12.1965 9.62809H12.1093V12.7798H9.24406ZM12.0844 6.26474V7.68478H12.6699C13.3592 7.68478 13.7038 7.43978 13.7038 6.94978C13.7038 6.49315 13.4007 6.26474 12.7945 6.26474H12.0844ZM18.1386 12.7798V3.96013H24.2053V6.42661H20.929V7.18649H24.006V9.4911H20.929V10.3133H24.4171V12.7798H18.1386ZM28.5405 13.029C27.8428 13.029 27.1639 12.9086 26.5037 12.6677C25.8434 12.4269 25.2849 12.103 24.8282 11.6961L26.6345 9.72781C26.8504 9.96861 27.1328 10.1721 27.4816 10.3382C27.8305 10.5043 28.1792 10.5874 28.528 10.5874C28.9681 10.5874 29.1882 10.4503 29.1882 10.1763C29.1882 10.0185 29.0928 9.88968 28.9017 9.79006C28.7107 9.69044 28.2871 9.53267 27.6311 9.31674C26.9252 9.08423 26.3689 8.77279 25.9618 8.38251C25.5549 7.99213 25.3514 7.44388 25.3514 6.73805C25.3514 6.21488 25.4615 5.75186 25.6815 5.34899C25.9016 4.94632 26.1943 4.62858 26.5597 4.39607C26.9252 4.16346 27.3176 3.9913 27.737 3.87909C28.1563 3.76698 28.5945 3.71103 29.0512 3.71103C29.6408 3.71103 30.2367 3.82723 30.8388 4.05974C31.4409 4.29235 31.9662 4.61199 32.4147 5.01886L30.571 6.90002C30.38 6.66741 30.1412 6.48266 29.8547 6.34567C29.5682 6.20859 29.3004 6.14014 29.0512 6.14014C28.5696 6.14014 28.3288 6.27303 28.3288 6.53872C28.3288 6.66331 28.3868 6.75674 28.5031 6.81899C28.6193 6.88134 28.8519 6.97056 29.2007 7.08687C29.4415 7.1699 29.6326 7.23435 29.7737 7.27991C29.915 7.32567 30.1038 7.39831 30.3405 7.49793C30.5772 7.59765 30.7683 7.69307 30.9136 7.7845C31.0589 7.87582 31.2209 7.99622 31.3994 8.1457C31.578 8.29518 31.717 8.44885 31.8167 8.60673C31.9163 8.7644 32.0015 8.95344 32.0721 9.17346C32.1427 9.39348 32.178 9.62809 32.178 9.87729C32.178 10.8739 31.8167 11.6483 31.0942 12.2006C30.3717 12.7529 29.5204 13.029 28.5405 13.029ZM36.2266 13.029C35.529 13.029 34.85 12.9086 34.1899 12.6677C33.5295 12.4269 32.9712 12.103 32.5143 11.6961L34.3206 9.72781C34.5365 9.96861 34.8189 10.1721 35.1678 10.3382C35.5165 10.5043 35.8653 10.5874 36.2141 10.5874C36.6543 10.5874 36.8744 10.4503 36.8744 10.1763C36.8744 10.0185 36.7789 9.88968 36.5878 9.79006C36.3969 9.69044 35.9733 9.53267 35.3172 9.31674C34.6113 9.08423 34.0549 8.77279 33.6479 8.38251C33.241 7.99213 33.0375 7.44388 33.0375 6.73805C33.0375 6.21488 33.1476 5.75186 33.3676 5.34899C33.5877 4.94632 33.8804 4.62858 34.2459 4.39607C34.6113 4.16346 35.0037 3.9913 35.4231 3.87909C35.8425 3.76698 36.2806 3.71103 36.7373 3.71103C37.327 3.71103 37.9228 3.82723 38.525 4.05974C39.127 4.29235 39.6523 4.61199 40.1008 5.01886L38.2571 6.90002C38.0661 6.66741 37.8273 6.48266 37.5408 6.34567C37.2543 6.20859 36.9865 6.14014 36.7373 6.14014C36.2556 6.14014 36.0148 6.27303 36.0148 6.53872C36.0148 6.66331 36.0729 6.75674 36.1892 6.81899C36.3055 6.88134 36.538 6.97056 36.8869 7.08687C37.1277 7.1699 37.3187 7.23435 37.4598 7.27991C37.6011 7.32567 37.79 7.39831 38.0267 7.49793C38.2634 7.59765 38.4544 7.69307 38.5998 7.7845C38.745 7.87582 38.907 7.99622 39.0856 8.1457C39.2641 8.29518 39.4032 8.44885 39.5028 8.60673C39.6025 8.7644 39.6876 8.95344 39.7582 9.17346C39.8288 9.39348 39.8641 9.62809 39.8641 9.87729C39.8641 10.8739 39.5028 11.6483 38.7803 12.2006C38.0578 12.7529 37.2066 13.029 36.2266 13.029ZM47.0271 13.029C46.3294 13.029 45.6505 12.9086 44.9902 12.6677C44.33 12.4269 43.7715 12.103 43.3147 11.6961L45.1211 9.72781C45.3369 9.96861 45.6193 10.1721 45.9681 10.3382C46.3169 10.5043 46.6659 10.5874 47.0146 10.5874C47.4547 10.5874 47.6748 10.4503 47.6748 10.1763C47.6748 10.0185 47.5793 9.88968 47.3883 9.79006C47.1973 9.69044 46.7737 9.53267 46.1176 9.31674C45.4117 9.08423 44.8553 8.77279 44.4483 8.38251C44.0414 7.99213 43.8379 7.44388 43.8379 6.73805C43.8379 6.21488 43.948 5.75186 44.168 5.34899C44.3881 4.94632 44.6809 4.62858 45.0463 4.39607C45.4117 4.16346 45.8042 3.9913 46.2235 3.87909C46.6429 3.76698 47.081 3.71103 47.5378 3.71103C48.1275 3.71103 48.7233 3.82723 49.3254 4.05974C49.9275 4.29235 50.4528 4.61199 50.9012 5.01886L49.0575 6.90002C48.8667 6.66741 48.6278 6.48266 48.3412 6.34567C48.0548 6.20859 47.7869 6.14014 47.5378 6.14014C47.0561 6.14014 46.8152 6.27303 46.8152 6.53872C46.8152 6.66331 46.8733 6.75674 46.9896 6.81899C47.1059 6.88134 47.3384 6.97056 47.6872 7.08687C47.9281 7.1699 48.1191 7.23435 48.2603 7.27991C48.4015 7.32567 48.5904 7.39831 48.8271 7.49793C49.0638 7.59765 49.2548 7.69307 49.4001 7.7845C49.5454 7.87582 49.7074 7.99622 49.886 8.1457C50.0645 8.29518 50.2037 8.44885 50.3032 8.60673C50.4029 8.7644 50.488 8.95344 50.5587 9.17346C50.6293 9.39348 50.6646 9.62809 50.6646 9.87729C50.6646 10.8739 50.3032 11.6483 49.5807 12.2006C48.8583 12.7529 48.0071 13.029 47.0271 13.029ZM56.0711 6.46398V12.7798H53.1061V6.46398H50.9387V3.96013H58.2385V6.46398H56.0711ZM57.379 12.7798L60.8545 3.96013H64.0062L67.4445 12.7798H64.218L63.7571 11.4843H60.9542L60.5182 12.7798H57.379ZM63.0969 9.21713L62.3868 7.03701L61.6642 9.21713H63.0969ZM68.0674 12.7798V3.96013H71.8668C72.332 3.96013 72.7637 4.00579 73.1623 4.09711C73.5611 4.18854 73.9368 4.33802 74.2898 4.54565C74.6427 4.75318 74.9209 5.05013 75.1243 5.43632C75.3278 5.8225 75.4296 6.28552 75.4296 6.82528C75.4296 7.35685 75.2946 7.83006 75.0248 8.24542C74.7548 8.66068 74.3748 8.98042 73.8849 9.20464L76.1273 12.7798H72.714L71.0197 9.62809H70.9325V12.7798H68.0674ZM70.9076 6.26474V7.68478H71.4931C72.1824 7.68478 72.527 7.43978 72.527 6.94978C72.527 6.49315 72.224 6.26474 71.6176 6.26474H70.9076ZM81.2098 6.46398V12.7798H78.2449V6.46398H76.0774V3.96013H83.3773V6.46398H81.2098ZM90.6025 6.26474H89.8675V7.34855H90.6648C91.1382 7.34855 91.3748 7.15331 91.3748 6.76303C91.3748 6.4308 91.1174 6.26474 90.6025 6.26474ZM90.6274 9.2545H89.8675V10.4503H90.752C90.9928 10.4503 91.1838 10.3963 91.325 10.2885C91.4662 10.1805 91.5369 10.031 91.5369 9.83992C91.5369 9.63229 91.4434 9.48281 91.2565 9.39138C91.0697 9.30006 90.8599 9.2545 90.6274 9.2545ZM92.8698 8.15819V8.19556C93.3265 8.30347 93.7168 8.53598 94.0407 8.89319C94.3646 9.2503 94.5265 9.68624 94.5265 10.2012C94.5265 10.6662 94.431 11.0711 94.24 11.4158C94.049 11.7604 93.7874 12.0283 93.4552 12.2193C93.1231 12.4102 92.7618 12.5515 92.3714 12.6428C91.9811 12.7343 91.5575 12.7798 91.1008 12.7798H87.102V3.96013H90.727C93.0192 3.96013 94.1653 4.74069 94.1653 6.30211C94.1653 7.20727 93.7335 7.82596 92.8698 8.15819ZM99.6963 13.029C98.3759 13.029 97.3647 12.6843 96.6631 11.9952C95.9612 11.3057 95.6104 10.4129 95.6104 9.31674V3.96013H98.5752V8.99291C98.5752 9.41636 98.6769 9.74649 98.8804 9.9831C99.0838 10.2199 99.3725 10.3382 99.7461 10.3382C100.12 10.3382 100.409 10.2199 100.612 9.9831C100.815 9.74649 100.917 9.41636 100.917 8.99291V3.96013H103.869V9.31674C103.869 10.4048 103.506 11.2953 102.78 11.9888C102.053 12.6823 101.025 13.029 99.6963 13.029ZM109.787 6.46398V12.7798H106.822V6.46398H104.654V3.96013H111.954V6.46398H109.787ZM117.261 6.46398V12.7798H114.296V6.46398H112.129V3.96013H119.429V6.46398H117.261ZM119.566 8.32006C119.566 6.93319 120.027 5.81831 120.949 4.9754C121.87 4.13238 123.041 3.71103 124.461 3.71103C125.882 3.71103 127.055 4.13238 127.981 4.9754C128.907 5.81831 129.37 6.93319 129.37 8.32006C129.37 9.71542 128.904 10.849 127.974 11.721C127.044 12.593 125.873 13.029 124.461 13.029C123.05 13.029 121.881 12.593 120.955 11.721C120.029 10.849 119.566 9.71542 119.566 8.32006ZM122.717 8.32006C122.717 8.89319 122.881 9.36451 123.209 9.7341C123.537 10.1036 123.955 10.2885 124.461 10.2885C124.96 10.2885 125.375 10.1036 125.707 9.7341C126.039 9.36451 126.205 8.89319 126.205 8.32006C126.205 7.75542 126.041 7.2986 125.713 6.94978C125.385 6.60097 124.968 6.42661 124.461 6.42661C123.955 6.42661 123.537 6.60097 123.209 6.94978C122.881 7.2986 122.717 7.75542 122.717 8.32006ZM130.615 12.7798V3.96013H133.568L136.084 8.43217H136.134L136.009 3.96013H138.825V12.7798H135.798L133.356 8.56926H133.306L133.431 12.7798H130.615Z" fill="#0F2335"/>
<path d="M4.51043 8.5114H3.67571V11.3517H0.723328V2.53179H4.51043C4.99214 2.53179 5.43627 2.58165 5.84334 2.68127C6.25021 2.78089 6.6303 2.93866 6.98321 3.15468C7.33612 3.3705 7.82522 2.93586 8.02875 3.33453C8.23219 3.73321 8.12298 4.94851 8.12298 5.49667C8.12298 6.01984 8.02126 6.48076 7.81783 6.87953C7.61429 7.27811 7.34032 7.59375 6.9956 7.82616C6.65098 8.05877 6.26899 8.23113 5.84954 8.34324C5.43018 8.45535 4.98374 8.5114 4.51043 8.5114ZM4.2986 4.83651H3.67571V6.25664H4.2986C4.5477 6.25664 4.75953 6.19429 4.93388 6.0697C5.10834 5.9451 5.19547 5.76245 5.19547 5.52165C5.19547 5.06482 4.89652 4.83651 4.2986 4.83651ZM9.24406 11.3517V2.53179H13.0437C13.5087 2.53179 13.9405 2.57745 14.3392 2.66888C14.7378 2.7602 15.1137 2.90968 15.4666 3.11731C15.8196 3.32484 16.3296 2.94835 16.533 3.33453C16.7364 3.72062 16.6065 4.85719 16.6065 5.39705C16.6065 5.92851 16.4715 6.40193 16.2016 6.81709C15.9317 7.23245 15.5517 7.55208 15.0617 7.7764L17.2861 9.9785L17.3041 11.3517H13.8907L12.1966 8.19985H12.1093V11.3517H9.24406ZM12.0844 4.83651V6.25664H12.6699C13.3592 6.25664 13.7038 6.01164 13.7038 5.52165C13.7038 5.06482 13.4007 4.83651 12.7946 4.83651H12.0844ZM18.1387 11.3517V2.53179H24.2054V4.99827H20.9292V5.75825L24.0186 4.44193L24.0061 8.06287H20.9292V8.88509H24.4173V11.3517H18.1387ZM32.4343 2.2715L32.4149 3.59062L30.5712 5.47179C30.3801 5.23918 30.1414 5.05443 29.8549 4.91744C29.5683 4.78035 29.3006 4.71191 29.0513 4.71191C28.5697 4.71191 28.3289 4.8447 28.3289 5.11048C28.3289 5.23508 28.3869 5.3285 28.5032 5.39075C28.6195 5.4531 28.852 5.54233 29.2009 5.65873C29.4417 5.74157 29.6327 5.80611 29.7739 5.85168C29.9152 5.89744 30.104 5.96998 30.3407 6.0697C30.5774 6.16942 30.7685 6.26494 30.9137 6.35616C31.0591 6.44759 31.221 6.56799 31.3995 6.71747C31.5781 6.86704 31.7172 7.02062 31.8169 7.17839C31.9165 7.33616 32.0018 7.52511 32.0723 7.74533C32.1428 7.96535 32.1782 8.19985 32.1782 8.44915C32.1782 9.44574 31.8169 10.2201 31.0943 10.7725C30.3719 11.3247 29.5206 11.6008 28.5405 11.6008C27.8431 11.6008 27.164 11.4804 26.5038 11.2395C25.8436 10.9987 25.2851 10.6748 24.8283 10.2679L24.8602 8.91547C25.0761 9.15627 27.1329 8.74401 27.4817 8.90997C27.8305 9.07614 28.1794 9.15907 28.5281 9.15907C28.9683 9.15907 29.1885 9.02208 29.1885 8.74811C29.1885 8.59034 29.0929 8.46164 28.9018 8.36192C28.7109 8.2623 28.2873 8.10453 27.6312 7.88851C26.9253 7.6559 26.3689 7.34455 25.9619 6.95417C25.5549 6.56389 25.3515 6.01584 25.3515 5.30982C25.3515 4.78665 25.4615 4.32362 25.6816 3.92085C25.9017 3.51798 26.1944 3.20044 26.5599 2.96783C26.9253 2.73532 27.3177 2.56296 27.7371 2.45076C28.1564 2.33885 28.5945 2.28269 29.0513 2.28269C29.641 2.28269 30.2369 2.399 30.8389 2.63151C31.1294 2.74372 32.1804 2.11743 32.4343 2.2715ZM40.097 2.2715L40.1011 3.59062L38.2574 5.47179C38.0663 5.23918 37.8276 5.05443 37.5411 4.91744C37.2546 4.78035 36.9867 4.71191 36.7375 4.71191C36.2558 4.71191 36.015 4.8447 36.015 5.11048C36.015 5.23508 36.0731 5.3285 36.1894 5.39075C36.3057 5.4531 36.5382 5.54233 36.8872 5.65873C37.128 5.74157 37.3189 5.80611 37.4601 5.85168C37.6013 5.89744 37.7902 5.96998 38.0269 6.0697C38.2636 6.16942 38.4546 6.26494 38.6 6.35616C38.7453 6.44759 38.9072 6.56799 39.0858 6.71747C39.2643 6.86704 39.4034 7.02062 39.5031 7.17839C39.6027 7.33616 39.6879 7.52511 39.7585 7.74533C39.8291 7.96535 39.8644 8.19985 39.8644 8.44915C39.8644 9.44574 39.5031 10.2201 38.7805 10.7725C38.0581 11.3247 37.2068 11.6008 36.2267 11.6008C35.5292 11.6008 34.8502 11.4804 34.1901 11.2395C33.5298 10.9987 32.9714 10.6748 32.5145 10.2679L32.5228 8.87121L34.3209 8.29957C34.5368 8.54048 34.819 8.74391 35.168 8.90997C35.5167 9.07614 35.8656 9.15907 36.2143 9.15907C36.6545 9.15907 36.8746 9.02208 36.8746 8.74811C36.8746 8.59034 36.7791 8.46164 36.588 8.36192C36.3972 8.2623 35.9735 8.10453 35.3174 7.88851C34.6115 7.6559 34.055 7.34455 33.6481 6.95417C33.2411 6.56389 33.0377 6.01584 33.0377 5.30982C33.0377 4.78665 33.1477 4.32362 33.3678 3.92085C33.588 3.51798 33.8806 3.20044 34.2461 2.96783C34.6115 2.73532 35.0039 2.56296 35.4234 2.45076C35.8426 2.33885 36.2808 2.28269 36.7375 2.28269C37.3272 2.28269 37.9231 2.399 38.5251 2.63151C38.8683 2.7641 39.8038 2.08226 40.097 2.2715ZM50.9016 3.59062L50.8161 2.22724C50.5522 2.06627 49.6282 2.74841 49.3256 2.63151C48.7236 2.399 48.1278 2.28269 47.538 2.28269C47.0812 2.28269 46.6431 2.33885 46.2238 2.45076C45.8045 2.56296 45.412 2.73532 45.0466 2.96783C44.6811 3.20044 44.3884 3.51798 44.1683 3.92085C43.9482 4.32362 43.8382 4.78665 43.8382 5.30982C43.8382 6.01584 44.0416 6.56389 44.4486 6.95417C44.8555 7.34455 45.412 7.6559 46.1179 7.88851C46.774 8.10453 47.1976 8.2623 47.3885 8.36192C47.5796 8.46164 47.6751 8.59034 47.6751 8.74811C47.6751 9.02208 47.455 9.15907 47.0148 9.15907C46.6661 9.15907 46.3172 9.07614 45.9684 8.90997C45.6195 8.74391 45.3373 8.54048 45.1213 8.29957L43.3305 8.87121L43.315 10.2679C43.7718 10.6748 44.3303 10.9987 44.9905 11.2395C45.6507 11.4804 46.3297 11.6008 47.0273 11.6008C48.0074 11.6008 48.8587 11.3247 49.581 10.7725C50.3036 10.2201 50.6649 9.44574 50.6649 8.44915C50.6649 8.19985 50.6295 7.96535 50.559 7.74533C50.4884 7.52511 50.4032 7.33616 50.3036 7.17839C50.204 7.02062 50.0648 6.86704 49.8862 6.71747C49.7077 6.56799 49.5458 6.44759 49.4004 6.35616C49.2551 6.26494 49.0641 6.16942 48.8274 6.0697C48.5907 5.96998 48.4017 5.89744 48.2607 5.85168C48.1194 5.80611 47.9284 5.74157 47.6875 5.65873C47.3387 5.54233 47.1062 5.4531 46.9899 5.39075C46.8736 5.3285 46.8155 5.23508 46.8155 5.11048C46.8155 4.8447 47.0563 4.71191 47.538 4.71191C47.7872 4.71191 48.055 4.78035 48.3416 4.91744C48.6282 5.05443 48.8669 5.23918 49.0579 5.47179L50.9016 3.59062ZM56.0715 5.03584V11.3517H53.1065V5.03584H50.939V2.53179H58.239V5.03584H56.0715ZM57.3794 11.3517L57.4158 9.9785L60.8551 2.53179H64.0067L67.4259 9.9785L67.4451 11.3517H64.2185L63.7576 10.0561H60.9547L60.5187 11.3517H57.3794ZM63.0973 7.78879L62.3873 5.60867L61.6647 7.78879H63.0973ZM68.0679 11.3517V2.53179H71.8674C72.3325 2.53179 72.7642 2.57745 73.1629 2.66888C73.5616 2.7602 73.9374 2.90968 74.2905 3.11731C74.6433 3.32494 74.9216 3.6218 75.125 4.00798C75.3284 4.39417 75.4302 4.85719 75.4302 5.39705C75.4302 5.92851 75.2952 6.40193 75.0254 6.81709C74.7554 7.23245 74.3754 7.55208 73.8854 7.7764L76.1074 9.9785L76.1279 11.3517H72.7145L71.0203 8.19985H70.933V11.3517H68.0679ZM70.9081 4.83651V6.25664H71.4937C72.1829 6.25664 72.5276 6.01164 72.5276 5.52165C72.5276 5.06482 72.2245 4.83651 71.6183 4.83651H70.9081ZM81.2105 5.03584V11.3517H78.2456V5.03584H76.078V2.53179H83.3781V5.03584H81.2105ZM90.6034 4.83651H89.8683V5.92022H90.6656C91.139 5.92022 91.3756 5.72508 91.3756 5.3347C91.3756 5.00247 91.1183 4.83651 90.6034 4.83651ZM90.6283 7.82616H89.8683V9.02208H90.7528C90.9936 9.02208 91.1848 8.96813 91.3258 8.86021C91.467 8.7522 91.5377 8.60273 91.5377 8.41168C91.5377 8.20415 91.4442 8.05457 91.2573 7.96325C91.0704 7.87192 90.8608 7.82616 90.6283 7.82616ZM92.8707 6.72996V6.76733C93.3273 6.87534 93.7177 7.10795 94.0416 7.46496C94.3655 7.82206 94.5274 8.25811 94.5274 8.77299C94.5274 9.23801 94.4319 9.64287 94.241 9.98759C94.0499 10.3322 93.7883 10.6001 93.4561 10.7911C93.124 10.9821 92.7627 11.1232 92.3722 11.2146C91.982 11.3059 91.5584 11.3517 91.1016 11.3517H87.1028V2.53179H90.7279C92.4235 2.53179 93.6492 2.25891 94.0906 3.11311C94.2457 3.41357 94.1661 4.46741 94.1661 4.87377C94.1661 5.77913 93.7344 6.39783 92.8707 6.72996ZM99.6973 11.6008C98.3768 11.6008 97.3656 11.2561 96.6639 10.5668C95.9622 9.87748 95.6112 8.98471 95.6112 7.88851V2.53179H98.576V7.56457C98.576 7.98813 98.6778 8.31816 98.8813 8.55496C99.0848 8.79167 99.3734 8.90997 99.7472 8.90997C100.121 8.90997 100.409 8.79167 100.613 8.55496C100.816 8.31816 100.918 7.98813 100.918 7.56457V2.53179H103.871V7.88851C103.871 8.97652 103.507 9.86719 102.781 10.5607C102.054 11.254 101.026 11.6008 99.6973 11.6008ZM109.788 5.03584V11.3517H106.823V5.03584H104.655V2.53179H111.955V5.03584H109.788ZM117.262 5.03584V11.3517H114.297V5.03584H112.13V2.53179H119.43V5.03584H117.262ZM119.567 6.89192C119.567 5.50496 120.028 4.38997 120.95 3.54706C121.871 2.70415 123.042 2.28269 124.463 2.28269C125.883 2.28269 127.056 2.70415 127.982 3.54706C128.908 4.38997 129.371 5.50496 129.371 6.89192C129.371 8.28718 128.906 9.42066 127.976 10.2928C127.045 11.1648 125.874 11.6008 124.463 11.6008C123.051 11.6008 121.882 11.1648 120.956 10.2928C120.03 9.42066 119.567 8.28718 119.567 6.89192ZM122.719 6.89192C122.719 7.46496 122.882 7.93617 123.211 8.30577C123.539 8.67537 123.956 8.86021 124.463 8.86021C124.961 8.86021 125.376 8.67537 125.708 8.30577C126.041 7.93617 126.207 7.46496 126.207 6.89192C126.207 6.32709 126.043 5.87036 125.715 5.52165C125.386 5.17283 124.969 4.99827 124.463 4.99827C123.956 4.99827 123.539 5.17283 123.211 5.52165C122.882 5.87036 122.719 6.32709 122.719 6.89192ZM130.617 11.3517V2.53179H133.569L136.085 7.00403H136.135L136.01 2.53179H138.826V11.3517H135.799L133.357 7.14102H133.307L133.432 11.3517H130.617Z" fill="#FE3E15"/>
<path d="M4.51033 7.19857H3.67571V10.0389H0.723328V1.21896H4.51033C4.99204 1.21896 5.43627 1.26892 5.84334 1.36844C6.25021 1.46806 6.6302 1.62593 6.98311 1.84185C7.33612 2.05777 7.61429 2.36512 7.81783 2.7637C8.02116 3.16237 8.12298 3.63568 8.12298 4.18394C8.12298 4.70711 8.02116 5.16803 7.81783 5.5666C7.61429 5.96528 7.34022 6.28082 6.9956 6.51353C6.65098 6.74604 6.26889 6.9183 5.84954 7.03041C5.43008 7.14252 4.98374 7.19857 4.51033 7.19857ZM4.2986 3.52368H3.67571V4.94371H4.2986C4.5477 4.94371 4.75953 4.88146 4.93378 4.75687C5.10834 4.63227 5.19547 4.44962 5.19547 4.20882C5.19547 3.75199 4.89651 3.52368 4.2986 3.52368ZM9.24416 10.0389V1.21896H13.0438C13.5088 1.21896 13.9406 1.26472 14.3393 1.35595C14.7378 1.44737 15.1136 1.59685 15.4666 1.80448C15.8196 2.01211 16.0979 2.30897 16.3013 2.69515C16.5047 3.08144 16.6064 3.54426 16.6064 4.08422C16.6064 4.61568 16.4715 5.0891 16.2016 5.50426C15.9317 5.91962 15.5517 6.23935 15.0617 6.46357L17.3041 10.0389H13.8907L12.1966 6.88713H12.1094V10.0389H9.24416ZM12.0844 3.52368V4.94371H12.6699C13.3592 4.94371 13.7039 4.69881 13.7039 4.20882C13.7039 3.75199 13.4007 3.52368 12.7946 3.52368H12.0844ZM18.1388 10.0389V1.21896H24.2056V3.68564H20.9293V4.44552H24.0062V6.75014H20.9293V7.57226H24.4174V10.0389H18.1388ZM28.5408 10.288C27.8431 10.288 27.1642 10.1676 26.504 9.92674C25.8437 9.68594 25.2852 9.362 24.8284 8.95513L26.6348 6.98684C26.8507 7.22765 27.1331 7.43108 27.4819 7.59724C27.8307 7.76331 28.1795 7.84644 28.5283 7.84644C28.9684 7.84644 29.1885 7.70925 29.1885 7.43518C29.1885 7.27751 29.0931 7.14871 28.902 7.04909C28.711 6.94937 28.2875 6.7917 27.6314 6.57568C26.9255 6.34307 26.3691 6.03172 25.962 5.64144C25.5552 5.25096 25.3516 4.70291 25.3516 3.99699C25.3516 3.47382 25.4617 3.01079 25.6818 2.60802C25.9019 2.20515 26.1946 1.88751 26.56 1.655C26.9255 1.42239 27.3179 1.25013 27.7372 1.13813C28.1567 1.02592 28.5948 0.969864 29.0515 0.969864C29.6412 0.969864 30.237 1.08607 30.8392 1.31868C31.4413 1.55119 31.9665 1.87103 32.4151 2.27789L30.5713 4.15886C30.3803 3.92645 30.1415 3.7416 29.855 3.60461C29.5684 3.46752 29.3008 3.39908 29.0515 3.39908C28.57 3.39908 28.329 3.53187 28.329 3.79755C28.329 3.92225 28.3871 4.01567 28.5034 4.07802C28.6196 4.14027 28.8522 4.2296 29.201 4.3458C29.4418 4.42884 29.6329 4.49318 29.774 4.53895C29.9154 4.58461 30.1041 4.65715 30.3409 4.75687C30.5776 4.85659 30.7686 4.95201 30.9139 5.04343C31.0592 5.13476 31.2211 5.25516 31.3998 5.40474C31.5783 5.55421 31.7174 5.70779 31.8171 5.86556C31.9167 6.02343 32.0019 6.21228 32.0724 6.4324C32.143 6.65262 32.1783 6.88713 32.1783 7.13632C32.1783 8.13291 31.8171 8.90727 31.0945 9.45962C30.372 10.0118 29.5207 10.288 28.5408 10.288ZM36.2271 10.288C35.5294 10.288 34.8505 10.1676 34.1904 9.92674C33.53 9.68594 32.9715 9.362 32.5147 8.95513L34.3212 6.98684C34.537 7.22765 34.8194 7.43108 35.1682 7.59724C35.5169 7.76331 35.8658 7.84644 36.2146 7.84644C36.6547 7.84644 36.8748 7.70925 36.8748 7.43518C36.8748 7.27751 36.7794 7.14871 36.5883 7.04909C36.3974 6.94937 35.9737 6.7917 35.3177 6.57568C34.6117 6.34307 34.0552 6.03172 33.6483 5.64144C33.2414 5.25096 33.0379 4.70291 33.0379 3.99699C33.0379 3.47382 33.1479 3.01079 33.3681 2.60802C33.5883 2.20515 33.8809 1.88751 34.2463 1.655C34.6117 1.42239 35.0042 1.25013 35.4235 1.13813C35.8429 1.02592 36.281 0.969864 36.7378 0.969864C37.3274 0.969864 37.9233 1.08607 38.5255 1.31868C39.1275 1.55119 39.6528 1.87103 40.1013 2.27789L38.2576 4.15886C38.0666 3.92645 37.8278 3.7416 37.5413 3.60461C37.2548 3.46752 36.987 3.39908 36.7378 3.39908C36.2561 3.39908 36.0152 3.53187 36.0152 3.79755C36.0152 3.92225 36.0734 4.01567 36.1897 4.07802C36.3059 4.14027 36.5384 4.2296 36.8874 4.3458C37.1282 4.42884 37.3192 4.49318 37.4603 4.53895C37.6016 4.58461 37.7904 4.65715 38.0271 4.75687C38.2639 4.85659 38.4548 4.95201 38.6002 5.04343C38.7455 5.13476 38.9074 5.25516 39.0862 5.40474C39.2646 5.55421 39.4037 5.70779 39.5034 5.86556C39.603 6.02343 39.6881 6.21228 39.7587 6.4324C39.8293 6.65262 39.8646 6.88713 39.8646 7.13632C39.8646 8.13291 39.5034 8.90727 38.7808 9.45962C38.0583 10.0118 37.207 10.288 36.2271 10.288ZM47.0278 10.288C46.33 10.288 45.6511 10.1676 44.9909 9.92674C44.3306 9.68594 43.7721 9.362 43.3154 8.95513L45.1217 6.98684C45.3376 7.22765 45.62 7.43108 45.9688 7.59724C46.3176 7.76331 46.6665 7.84644 47.0152 7.84644C47.4553 7.84644 47.6755 7.70925 47.6755 7.43518C47.6755 7.27751 47.58 7.14871 47.389 7.04909C47.1979 6.94937 46.7744 6.7917 46.1183 6.57568C45.4124 6.34307 44.8559 6.03172 44.4489 5.64144C44.0421 5.25096 43.8386 4.70291 43.8386 3.99699C43.8386 3.47382 43.9486 3.01079 44.1687 2.60802C44.3888 2.20515 44.6816 1.88751 45.0469 1.655C45.4124 1.42239 45.8049 1.25013 46.2241 1.13813C46.6436 1.02592 47.0817 0.969864 47.5384 0.969864C48.1282 0.969864 48.7239 1.08607 49.3261 1.31868C49.9282 1.55119 50.4535 1.87103 50.902 2.27789L49.0582 4.15886C48.8673 3.92645 48.6286 3.7416 48.342 3.60461C48.0554 3.46752 47.7876 3.39908 47.5384 3.39908C47.0568 3.39908 46.8159 3.53187 46.8159 3.79755C46.8159 3.92225 46.874 4.01567 46.9903 4.07802C47.1066 4.14027 47.3391 4.2296 47.688 4.3458C47.9288 4.42884 48.1198 4.49318 48.261 4.53895C48.4022 4.58461 48.5911 4.65715 48.8278 4.75687C49.0645 4.85659 49.2554 4.95201 49.4008 5.04343C49.5461 5.13476 49.7081 5.25516 49.8867 5.40474C50.0652 5.55421 50.2044 5.70779 50.304 5.86556C50.4037 6.02343 50.4888 6.21228 50.5593 6.4324C50.6299 6.65262 50.6653 6.88713 50.6653 7.13632C50.6653 8.13291 50.304 8.90727 49.5815 9.45962C48.859 10.0118 48.0077 10.288 47.0278 10.288ZM56.0719 3.72301V10.0389H53.1069V3.72301H50.9394V1.21896H58.2394V3.72301H56.0719ZM57.3798 10.0389L60.8555 1.21896H64.0072L67.4455 10.0389H64.2189L63.7581 8.74331H60.9551L60.519 10.0389H57.3798ZM63.0978 6.47606L62.3877 4.29604L61.6651 6.47606H63.0978ZM68.0684 10.0389V1.21896H71.8678C72.333 1.21896 72.7648 1.26472 73.1634 1.35595C73.5621 1.44737 73.9379 1.59685 74.2908 1.80448C74.6437 2.01211 74.922 2.30897 75.1254 2.69515C75.3289 3.08144 75.4306 3.54426 75.4306 4.08422C75.4306 4.61568 75.2957 5.0891 75.0259 5.50426C74.7559 5.91962 74.3759 6.23935 73.8858 6.46357L76.1283 10.0389H72.715L71.0207 6.88713H70.9335V10.0389H68.0684ZM70.9085 3.52368V4.94371H71.494C72.1834 4.94371 72.528 4.69881 72.528 4.20882C72.528 3.75199 72.2249 3.52368 71.6188 3.52368H70.9085ZM81.2109 3.72301V10.0389H78.2459V3.72301H76.0783V1.21896H83.3785V3.72301H81.2109ZM90.6037 3.52368H89.8688V4.60749H90.666C91.1394 4.60749 91.3761 4.41215 91.3761 4.02197C91.3761 3.68974 91.1186 3.52368 90.6037 3.52368ZM90.6286 6.51353H89.8688V7.70925H90.7533C90.9941 7.70925 91.1852 7.6553 91.3262 7.54738C91.4674 7.43937 91.5382 7.29 91.5382 7.09885C91.5382 6.89132 91.4445 6.74184 91.2577 6.65042C91.0709 6.55899 90.8612 6.51353 90.6286 6.51353ZM92.8711 5.41723V5.4545C93.3277 5.56251 93.7181 5.79502 94.0419 6.15223C94.3658 6.50933 94.5278 6.94528 94.5278 7.46016C94.5278 7.92518 94.4323 8.33014 94.2413 8.67476C94.0502 9.01938 93.7886 9.28716 93.4565 9.47831C93.1244 9.66925 92.7631 9.81043 92.3727 9.90176C91.9823 9.99319 91.5588 10.0389 91.102 10.0389H87.1032V1.21896H90.7283C93.0204 1.21896 94.1665 1.99972 94.1665 3.56104C94.1665 4.4662 93.7348 5.085 92.8711 5.41723ZM99.6977 10.288C98.3773 10.288 97.3661 9.94343 96.6644 9.25399C95.9625 8.56465 95.6117 7.67188 95.6117 6.57568V1.21896H98.5765V6.25184C98.5765 6.6754 98.6783 7.00553 98.8818 7.24213C99.0851 7.47884 99.3739 7.59724 99.7477 7.59724C100.121 7.59724 100.41 7.47884 100.613 7.24213C100.817 7.00553 100.918 6.6754 100.918 6.25184V1.21896H103.871V6.57568C103.871 7.66359 103.508 8.55436 102.781 9.24779C102.054 9.94123 101.027 10.288 99.6977 10.288ZM109.788 3.72301V10.0389H106.823V3.72301H104.656V1.21896H111.956V3.72301H109.788ZM117.263 3.72301V10.0389H114.298V3.72301H112.13V1.21896H119.43V3.72301H117.263ZM119.567 5.57909C119.567 4.19223 120.028 3.07734 120.95 2.23433C121.872 1.39132 123.043 0.969864 124.463 0.969864C125.883 0.969864 127.056 1.39132 127.982 2.23433C128.908 3.07734 129.371 4.19223 129.371 5.57909C129.371 6.97425 128.906 8.10803 127.976 8.97991C127.046 9.852 125.875 10.288 124.463 10.288C123.051 10.288 121.882 9.852 120.956 8.97991C120.03 8.10803 119.567 6.97425 119.567 5.57909ZM122.719 5.57909C122.719 6.15223 122.883 6.62354 123.211 6.99304C123.539 7.36264 123.957 7.54738 124.463 7.54738C124.961 7.54738 125.377 7.36264 125.709 6.99304C126.041 6.62354 126.207 6.15223 126.207 5.57909C126.207 5.01436 126.043 4.55763 125.715 4.20882C125.387 3.8599 124.97 3.68564 124.463 3.68564C123.957 3.68564 123.539 3.8599 123.211 4.20882C122.883 4.55763 122.719 5.01436 122.719 5.57909ZM130.617 10.0389V1.21896H133.569L136.086 5.6913H136.136L136.011 1.21896H138.826V10.0389H135.799L133.358 5.82819H133.308L133.432 10.0389H130.617Z" fill="url(#paint0_linear_1_3995)"/>
<path d="M1.02318 10.0389H0.723328V1.21896H4.51033C4.99204 1.21896 5.43627 1.26892 5.84334 1.36844C6.25021 1.46806 6.6302 1.62593 6.98311 1.84185C7.20633 1.97844 7.39957 2.1516 7.56313 2.36123C7.47561 2.28599 7.38228 2.21814 7.28296 2.15729C6.93015 1.94137 6.55016 1.7836 6.1432 1.68388C5.73633 1.58436 5.29189 1.5345 4.81019 1.5345H1.02318V10.0389ZM9.24416 10.0389V1.21896H13.0438C13.5088 1.21896 13.9406 1.26472 14.3393 1.35595C14.7378 1.44737 15.1136 1.59685 15.4666 1.80448C15.7017 1.94277 15.9036 2.12062 16.0723 2.33805C15.9776 2.25681 15.8756 2.18407 15.7665 2.12002C15.4136 1.91229 15.0377 1.76292 14.6392 1.67149C14.2405 1.58016 13.8087 1.5345 13.3436 1.5345H9.54411V10.0389H9.24416ZM18.1388 10.0389V1.21896H24.2056V1.5345H18.4387V10.0389H18.1388ZM25.1673 9.22811C25.0487 9.14168 24.9358 9.05056 24.8284 8.95513L26.6348 6.98684C26.8507 7.22765 27.1331 7.43108 27.4819 7.59724C27.8307 7.76331 28.1795 7.84644 28.5283 7.84644C28.9684 7.84644 29.1885 7.70925 29.1885 7.43518C29.1885 7.4068 29.1855 7.37952 29.1793 7.35304L29.202 7.36453C29.393 7.46415 29.4884 7.59305 29.4884 7.75072C29.4884 8.02479 29.2683 8.16178 28.8282 8.16178C28.4794 8.16178 28.1305 8.07875 27.7818 7.91259C27.433 7.74662 27.1506 7.54309 26.9347 7.30229L25.1673 9.22811ZM26.0672 5.73757C26.0311 5.70609 25.9961 5.67392 25.962 5.64144C25.5552 5.25096 25.3516 4.70291 25.3516 3.99699C25.3516 3.47382 25.4617 3.01079 25.6818 2.60802C25.9019 2.20515 26.1946 1.88751 26.56 1.655C26.9255 1.42239 27.3179 1.25013 27.7372 1.13813C28.1567 1.02592 28.5948 0.969864 29.0515 0.969864C29.6412 0.969864 30.237 1.08607 30.8392 1.31868C31.4413 1.55119 31.9665 1.87103 32.4151 2.27789L32.3785 2.31526C32.0096 2.03789 31.5965 1.81078 31.1392 1.63412C30.5369 1.40161 29.9411 1.28541 29.3514 1.28541C28.8947 1.28541 28.4566 1.34136 28.0371 1.45357C27.6178 1.56558 27.2255 1.73794 26.86 1.97055C26.4946 2.20296 26.2018 2.5207 25.9817 2.92347C25.7617 3.32634 25.6516 3.78916 25.6516 4.31253C25.6516 4.89495 25.7901 5.36987 26.0672 5.73757ZM28.6297 4.13717C28.7602 4.19283 28.9506 4.26237 29.201 4.3458C29.4418 4.42884 29.6329 4.49318 29.774 4.53895C29.9154 4.58461 30.1041 4.65715 30.3409 4.75687C30.5776 4.85659 30.7686 4.95201 30.9139 5.04343C31.0592 5.13476 31.2211 5.25516 31.3998 5.40474C31.5361 5.51884 31.6493 5.63535 31.7396 5.75435L31.6997 5.72008C31.5211 5.5707 31.3591 5.4502 31.2138 5.35887C31.0684 5.26745 30.8775 5.17203 30.6408 5.07241C30.4042 4.97269 30.2152 4.90005 30.0739 4.85439C29.9328 4.80872 29.7418 4.74428 29.5009 4.66135C29.1521 4.54514 28.9196 4.45581 28.8033 4.39346C28.6947 4.33531 28.6369 4.24988 28.6297 4.13717ZM32.8537 9.22811C32.7349 9.14168 32.6221 9.05056 32.5147 8.95513L34.3212 6.98684C34.537 7.22765 34.8194 7.43108 35.1682 7.59724C35.5169 7.76331 35.8658 7.84644 36.2146 7.84644C36.6547 7.84644 36.8748 7.70925 36.8748 7.43518C36.8748 7.4068 36.8716 7.37952 36.8655 7.35304L36.8883 7.36453C37.0793 7.46415 37.1747 7.59305 37.1747 7.75072C37.1747 8.02479 36.9546 8.16178 36.5146 8.16178C36.1657 8.16178 35.8168 8.07875 35.4681 7.91259C35.1193 7.74662 34.8369 7.54309 34.621 7.30229L32.8537 9.22811ZM33.7535 5.73757C33.7173 5.70609 33.6823 5.67392 33.6483 5.64144C33.2414 5.25096 33.0379 4.70291 33.0379 3.99699C33.0379 3.47382 33.1479 3.01079 33.3681 2.60802C33.5883 2.20515 33.8809 1.88751 34.2463 1.655C34.6117 1.42239 35.0042 1.25013 35.4235 1.13813C35.8429 1.02592 36.281 0.969864 36.7378 0.969864C37.3274 0.969864 37.9233 1.08607 38.5255 1.31868C39.1275 1.55119 39.6528 1.87103 40.1013 2.27789L40.0649 2.31526C39.696 2.03789 39.2828 1.81078 38.8254 1.63412C38.2233 1.40161 37.6274 1.28541 37.0377 1.28541C36.5809 1.28541 36.143 1.34136 35.7234 1.45357C35.3041 1.56558 34.9117 1.73794 34.5462 1.97055C34.1808 2.20296 33.8881 2.5207 33.668 2.92347C33.4478 3.32634 33.3379 3.78916 33.3379 4.31253C33.3379 4.89495 33.4764 5.36987 33.7535 5.73757ZM36.316 4.13717C36.4465 4.19283 36.637 4.26237 36.8874 4.3458C37.1282 4.42884 37.3192 4.49318 37.4603 4.53895C37.6016 4.58461 37.7904 4.65715 38.0271 4.75687C38.2639 4.85659 38.4548 4.95201 38.6002 5.04343C38.7455 5.13476 38.9074 5.25516 39.0862 5.40474C39.2224 5.51884 39.3357 5.63535 39.4259 5.75435L39.386 5.72008C39.2074 5.5707 39.0454 5.4502 38.9 5.35887C38.7547 5.26745 38.5638 5.17203 38.3271 5.07241C38.0903 4.97269 37.9015 4.90005 37.7602 4.85439C37.6192 4.80872 37.428 4.74428 37.1872 4.66135C36.8384 4.54514 36.6058 4.45581 36.4896 4.39346C36.3809 4.33531 36.3231 4.24988 36.316 4.13717ZM43.6542 9.22811C43.5356 9.14168 43.4227 9.05056 43.3154 8.95513L45.1217 6.98684C45.3376 7.22765 45.62 7.43108 45.9688 7.59724C46.3176 7.76331 46.6665 7.84644 47.0152 7.84644C47.4553 7.84644 47.6755 7.70925 47.6755 7.43518C47.6755 7.4068 47.6723 7.37952 47.6661 7.35304L47.6889 7.36453C47.88 7.46415 47.9754 7.59305 47.9754 7.75072C47.9754 8.02479 47.7552 8.16178 47.3151 8.16178C46.9663 8.16178 46.6175 8.07875 46.2687 7.91259C45.9199 7.74662 45.6375 7.54309 45.4216 7.30229L43.6542 9.22811ZM44.5541 5.73757C44.518 5.70609 44.4829 5.67392 44.4489 5.64144C44.0421 5.25096 43.8386 4.70291 43.8386 3.99699C43.8386 3.47382 43.9486 3.01079 44.1687 2.60802C44.3888 2.20515 44.6816 1.88751 45.0469 1.655C45.4124 1.42239 45.8049 1.25013 46.2241 1.13813C46.6436 1.02592 47.0817 0.969864 47.5384 0.969864C48.1282 0.969864 48.7239 1.08607 49.3261 1.31868C49.9282 1.55119 50.4535 1.87103 50.902 2.27789L50.8654 2.31526C50.4966 2.03789 50.0836 1.81078 49.626 1.63412C49.0238 1.40161 48.428 1.28541 47.8383 1.28541C47.3816 1.28541 46.9435 1.34136 46.524 1.45357C46.1047 1.56558 45.7123 1.73794 45.3468 1.97055C44.9815 2.20296 44.6887 2.5207 44.4687 2.92347C44.2485 3.32634 44.1385 3.78916 44.1385 4.31253C44.1385 4.89495 44.2771 5.36987 44.5541 5.73757ZM47.1166 4.13717C47.2471 4.19283 47.4375 4.26237 47.688 4.3458C47.9288 4.42884 48.1198 4.49318 48.261 4.53895C48.4022 4.58461 48.5911 4.65715 48.8278 4.75687C49.0645 4.85659 49.2554 4.95201 49.4008 5.04343C49.5461 5.13476 49.7081 5.25516 49.8867 5.40474C50.023 5.51884 50.1362 5.63535 50.2266 5.75435L50.1866 5.72008C50.008 5.5707 49.8461 5.4502 49.7007 5.35887C49.5553 5.26745 49.3644 5.17203 49.1277 5.07241C48.891 4.97269 48.7021 4.90005 48.5609 4.85439C48.4197 4.80872 48.2287 4.74428 47.9879 4.66135C47.6391 4.54514 47.4066 4.45581 47.2902 4.39346C47.1815 4.33531 47.1238 4.24988 47.1166 4.13717ZM53.4068 10.0389H53.1069V4.03845H53.4068V10.0389ZM51.2392 3.72301H50.9394V2.86132L51.2019 2.59344C51.1171 2.5165 51.0295 2.44266 50.9394 2.37192V1.21896H58.2394V1.5345H51.2392V3.72301ZM57.3798 10.0389L60.8555 1.21896H64.0072L64.1302 1.5345H61.1553L57.8041 10.0389H57.3798ZM68.0684 10.0389V1.21896H71.8678C72.333 1.21896 72.7648 1.26472 73.1634 1.35595C73.5621 1.44737 73.9379 1.59685 74.2908 1.80448C74.5258 1.94277 74.7277 2.12062 74.8964 2.33805C74.8018 2.25681 74.6997 2.18407 74.5907 2.12002C74.2377 1.91229 73.8619 1.76292 73.4633 1.67149C73.0648 1.58016 72.6328 1.5345 72.1677 1.5345H68.3682V10.0389H68.0684ZM78.5459 10.0389H78.2459V4.03845H78.5459V10.0389ZM76.3783 3.72301H76.0783V1.21896H83.3785V1.5345H76.3783V3.72301ZM87.4031 10.0389H87.1032V1.21896H90.7283C92.2466 1.21896 93.2619 1.56158 93.7745 2.24682C93.2076 1.77201 92.2921 1.5345 91.0282 1.5345H87.4031V10.0389ZM96.7315 9.31824C96.7088 9.29705 96.6866 9.27577 96.6644 9.25399C95.9625 8.56465 95.6117 7.67188 95.6117 6.57568V1.21896H98.5765V1.5345H95.9116V6.89122C95.9116 7.85873 96.1851 8.66757 96.7315 9.31824ZM99.0801 7.41819C99.2597 7.53759 99.4823 7.59724 99.7477 7.59724C100.121 7.59724 100.41 7.47884 100.613 7.24213C100.817 7.00553 100.918 6.6754 100.918 6.25184V1.21896H103.871V1.5345H101.218V6.56729C101.218 6.99094 101.117 7.32097 100.913 7.55758C100.71 7.79428 100.421 7.91259 100.048 7.91259C99.6737 7.91259 99.3851 7.79428 99.1816 7.55758C99.1443 7.51431 99.1106 7.46775 99.0801 7.41819ZM107.123 10.0389H106.823V4.03845H107.123V10.0389ZM104.956 3.72301H104.656V1.21896H111.956V1.5345H104.956V3.72301ZM114.598 10.0389H114.298V4.03845H114.598V10.0389ZM112.43 3.72301H112.256V1.5345H112.13V1.21896H119.43V1.5345H112.43V3.72301ZM119.567 5.57909C119.567 4.19223 120.028 3.07734 120.95 2.23433C121.872 1.39132 123.043 0.969864 124.463 0.969864C125.883 0.969864 127.056 1.39132 127.982 2.23433C128.117 2.35693 128.242 2.48522 128.357 2.61941C128.332 2.59593 128.307 2.57275 128.282 2.54977C127.356 1.70676 126.183 1.28541 124.763 1.28541C123.343 1.28541 122.172 1.70676 121.25 2.54977C120.328 3.39268 119.867 4.50767 119.867 5.89464C119.867 7.11354 120.221 8.13291 120.928 8.95254C120.021 8.08425 119.567 6.95967 119.567 5.57909ZM130.617 10.0389V1.21896H133.569L133.747 1.5345H130.917V10.0389H130.617ZM136.132 5.55561L136.011 1.21896H138.826V1.5345H136.311L136.436 6.00674H136.386L136.132 5.55561Z" fill="white"/>
<path d="M0.733124 29.2264L4.26424 20.2658H7.46622L10.9594 29.2264H7.68144L7.21302 27.9102H4.36545L3.92242 29.2264H0.733124ZM6.54227 25.6068L5.82086 23.3918L5.08676 25.6068H6.54227ZM11.5921 29.2264V20.2658H14.5916L17.1482 24.8093H17.199L17.0724 20.2658H19.9326V29.2264H16.8571L14.3764 24.9486H14.3258L14.4524 29.2264H11.5921ZM25.1977 29.2264H21.6034V20.2658H24.9446C25.5352 20.2658 26.0837 20.3081 26.5899 20.3923C27.0963 20.4767 27.5834 20.6265 28.0516 20.8417C28.5199 21.0568 28.9165 21.3268 29.2414 21.6517C29.5662 21.9765 29.8256 22.3984 30.0197 22.9173C30.2138 23.4362 30.3108 24.0289 30.3108 24.6954C30.3108 25.4549 30.1716 26.1319 29.8931 26.7268C29.6147 27.3216 29.233 27.7963 28.7477 28.1506C28.2626 28.5051 27.7206 28.7728 27.1215 28.9542C26.5224 29.1356 25.8813 29.2264 25.1977 29.2264ZM25.1724 22.8223H24.5015V26.6446H25.0585C26.5266 26.6446 27.2607 25.9864 27.2607 24.6701C27.2607 24.0964 27.0729 23.645 26.6974 23.3159C26.322 22.9868 25.8137 22.8223 25.1724 22.8223ZM38.9044 22.8097V29.2264H35.8923V22.8097H33.6901V20.2658H41.1066V22.8097H38.9044ZM42.0306 29.2264V20.2658H45.8907C46.3632 20.2658 46.802 20.3123 47.2069 20.405C47.6119 20.4978 47.9938 20.6497 48.3524 20.8606C48.711 21.0716 48.9937 21.3732 49.2003 21.7656C49.407 22.1579 49.5104 22.6283 49.5104 23.1767C49.5104 23.7167 49.3733 24.1976 49.0991 24.6195C48.8249 25.0414 48.4388 25.3663 47.941 25.5941L50.2192 29.2264H46.7513L45.0301 26.0244H44.9415V29.2264H42.0306ZM44.9162 22.6072V24.05H45.511C46.2113 24.05 46.5615 23.8011 46.5615 23.3032C46.5615 22.8392 46.2535 22.6072 45.6376 22.6072H44.9162ZM56.1677 25.5561V29.2264H53.1555V25.5561L49.7762 20.2658H53.4087L54.8261 22.8982L56.1803 20.2658H59.7241L56.1677 25.5561ZM68.0648 25.5561V29.2264H65.0524V25.5561L61.6733 20.2658H65.3056L66.7231 22.8982L68.0773 20.2658H71.621L68.0648 25.5561ZM71.292 24.6954C71.292 23.2864 71.7603 22.1537 72.6969 21.2973C73.6334 20.4408 74.8231 20.0127 76.2659 20.0127C77.7089 20.0127 78.9005 20.4408 79.8414 21.2973C80.7823 22.1537 81.2526 23.2864 81.2526 24.6954C81.2526 26.113 80.7802 27.2647 79.8351 28.1506C78.89 29.0366 77.7003 29.4796 76.2659 29.4796C74.8315 29.4796 73.644 29.0366 72.7033 28.1506C71.7623 27.2647 71.292 26.113 71.292 24.6954ZM74.494 24.6954C74.494 25.2777 74.6608 25.7565 74.994 26.1319C75.3272 26.5074 75.7512 26.6952 76.2659 26.6952C76.7722 26.6952 77.1941 26.5074 77.5316 26.1319C77.8691 25.7565 78.0378 25.2777 78.0378 24.6954C78.0378 24.1217 77.8711 23.6576 77.5378 23.3032C77.2046 22.9489 76.7806 22.7717 76.2659 22.7717C75.7512 22.7717 75.3272 22.9489 74.994 23.3032C74.6608 23.6576 74.494 24.1217 74.494 24.6954ZM86.5429 29.4796C85.2014 29.4796 84.1741 29.1294 83.4612 28.4291C82.7482 27.7288 82.3916 26.8217 82.3916 25.708V20.2658H85.4039V25.3789C85.4039 25.8094 85.5072 26.1446 85.7139 26.3851C85.9207 26.6255 86.2139 26.7458 86.5936 26.7458C86.9732 26.7458 87.2664 26.6255 87.4731 26.3851C87.6798 26.1446 87.7832 25.8094 87.7832 25.3789V20.2658H90.7827V25.708C90.7827 26.8133 90.4136 27.7182 89.6754 28.4227C88.937 29.1272 87.8929 29.4796 86.5429 29.4796ZM92.3268 29.2264V20.2658H96.1871C96.6596 20.2658 97.0983 20.3123 97.5032 20.405C97.9082 20.4978 98.2901 20.6497 98.6487 20.8606C99.0073 21.0716 99.2899 21.3732 99.4967 21.7656C99.7033 22.1579 99.8067 22.6283 99.8067 23.1767C99.8067 23.7167 99.6696 24.1976 99.3954 24.6195C99.1213 25.0414 98.7351 25.3663 98.2373 25.5941L100.515 29.2264H97.0477L95.3265 26.0244H95.2378V29.2264H92.3268ZM95.2126 22.6072V24.05H95.8074C96.5076 24.05 96.8578 23.8011 96.8578 23.3032C96.8578 22.8392 96.5499 22.6072 95.934 22.6072H95.2126ZM104.528 29.2264V20.2658H107.565V26.6446H110.539V29.2264H104.528ZM115.197 29.4796C113.855 29.4796 112.828 29.1294 112.115 28.4291C111.402 27.7288 111.046 26.8217 111.046 25.708V20.2658H114.058V25.3789C114.058 25.8094 114.161 26.1446 114.368 26.3851C114.575 26.6255 114.868 26.7458 115.248 26.7458C115.627 26.7458 115.92 26.6255 116.127 26.3851C116.334 26.1446 116.437 25.8094 116.437 25.3789V20.2658H119.437V25.708C119.437 26.8133 119.068 27.7182 118.329 28.4227C117.591 29.1272 116.547 29.4796 115.197 29.4796ZM120.576 24.746C120.576 23.337 121.042 22.1959 121.974 21.3226C122.907 20.4492 124.065 20.0127 125.448 20.0127C126.132 20.0127 126.784 20.1244 127.404 20.348C128.024 20.5717 128.541 20.8733 128.954 21.253L127.106 23.4804C126.777 23.0332 126.284 22.8097 125.626 22.8097C125.111 22.8097 124.681 22.9868 124.335 23.3412C123.989 23.6956 123.816 24.1639 123.816 24.746C123.816 25.3114 123.991 25.7713 124.341 26.1257C124.691 26.48 125.119 26.6572 125.626 26.6572C126.275 26.6572 126.769 26.4167 127.106 25.9359L128.954 28.1506C128.068 29.0366 126.9 29.4796 125.448 29.4796C124.073 29.4796 122.917 29.0386 121.981 28.1569C121.044 27.2752 120.576 26.1383 120.576 24.746ZM135.143 29.2264L132.751 25.6574H132.726V29.2264H129.79V20.2658H132.713V23.569H132.738L135.13 20.2658H138.674L135.308 24.3664L138.839 29.2264H135.143Z" fill="#0F2335"/>
<path d="M0.733133 27.9863L0.711151 26.5682L4.26425 19.0257H7.46613L10.987 26.6125L10.9594 27.9863H7.68145L7.21313 26.6701H4.36556L3.92243 27.9863H0.733133ZM6.54228 24.3667L5.82077 22.1519L5.08687 24.3667H6.54228ZM11.5922 27.9863V19.0257H14.5916L17.1483 23.5693H17.199L17.0724 19.0257H19.9326V27.9863H16.8572L14.3765 23.7085H14.3259L14.4525 27.9863H11.5922ZM25.1977 27.9863H21.6033V19.0257H24.9445C25.5352 19.0257 26.0836 19.0679 26.5899 19.1523C27.0961 19.2367 27.5834 19.3864 28.0517 19.6016C28.5199 19.8166 28.9165 20.0868 29.2414 20.4115C29.5663 20.7364 29.8256 21.1582 30.0197 21.6771C30.2138 22.1961 30.3108 22.7888 30.3108 23.4554C30.3108 24.2146 30.1717 24.8919 29.8932 25.4867C29.6147 26.0815 29.2329 26.5561 28.7478 26.9105C28.2626 27.2648 27.7206 27.5328 27.1216 27.7142C26.5223 27.8956 25.8813 27.9863 25.1977 27.9863ZM25.1724 21.5822H24.5016V25.4045H25.0585C26.5266 25.4045 27.2607 24.7464 27.2607 23.4301C27.2607 22.8563 27.0729 22.405 26.6975 22.0759C26.322 21.7468 25.8137 21.5822 25.1724 21.5822ZM38.9043 21.5696V27.9863H35.8921V21.5696H33.69V19.0257H41.1065V21.5696H38.9043ZM42.0304 27.9863V19.0257H45.8905C46.363 19.0257 46.8019 19.072 47.2068 19.1649C47.6118 19.2578 47.9936 19.4096 48.3522 19.6205C48.7107 19.8315 48.9935 20.1331 49.2001 20.5255C49.4068 20.9177 49.5102 21.3882 49.5102 21.9366C49.5102 22.4766 49.3732 22.9576 49.0989 23.3795C48.8247 23.8013 48.4387 24.1262 47.9409 24.354L50.231 26.6125L50.2191 27.9863H46.7511L45.0299 24.7843H44.9413V27.9863H42.0304ZM44.916 21.3671V22.81H45.5108C46.2111 22.81 46.5614 22.5611 46.5614 22.0632C46.5614 21.5992 46.2533 21.3671 45.6374 21.3671H44.916ZM56.1675 24.316V27.9863H53.1553V24.316L49.776 19.0257L49.7879 17.7096L53.4084 19.0257L54.8259 21.6582L56.1801 19.0257L59.6653 17.7096L59.7238 19.0257L56.1675 24.316ZM68.0644 24.316V27.9863H65.0521V24.316L61.6729 19.0257L61.6585 17.7096L65.3052 19.0257L66.7228 21.6582L68.077 19.0257L71.6246 17.7096L71.6207 19.0257L68.0644 24.316ZM71.2916 23.4554C71.2916 22.0464 71.7598 20.9135 72.6964 20.0571C73.633 19.2007 74.8226 18.7726 76.2656 18.7726C77.7082 18.7726 78.9 19.2007 79.8409 20.0571C80.7817 20.9135 81.252 22.0464 81.252 23.4554C81.252 24.8728 80.7796 26.0246 79.8345 26.9105C78.8895 27.7965 77.6998 28.2394 76.2656 28.2394C74.8311 28.2394 73.6434 27.7965 72.7028 26.9105C71.7619 26.0246 71.2916 24.8728 71.2916 23.4554ZM74.4936 23.4554C74.4936 24.0376 74.6603 24.5164 74.9935 24.8919C75.3267 25.2673 75.7508 25.4551 76.2656 25.4551C76.7718 25.4551 77.1935 25.2673 77.5311 24.8919C77.8687 24.5164 78.0373 24.0376 78.0373 23.4554C78.0373 22.8816 77.8708 22.4176 77.5373 22.0632C77.2041 21.7088 76.7801 21.5316 76.2656 21.5316C75.7508 21.5316 75.3267 21.7088 74.9935 22.0632C74.6603 22.4176 74.4936 22.8816 74.4936 23.4554ZM86.5425 28.2394C85.2009 28.2394 84.1735 27.8893 83.4606 27.1889C82.7477 26.4886 82.3912 25.5816 82.3912 24.4679V19.0257H85.4034V24.1389C85.4034 24.5691 85.5068 24.9046 85.7134 25.145C85.9203 25.3854 86.2133 25.5056 86.593 25.5056C86.9727 25.5056 87.266 25.3854 87.4726 25.145C87.6794 24.9046 87.7828 24.5691 87.7828 24.1389V19.0257H90.7823V24.4679C90.7823 25.5732 90.4132 26.4781 89.6749 27.1827C88.9365 27.8871 87.8925 28.2394 86.5425 28.2394ZM92.3263 27.9863V19.0257H96.1866C96.6591 19.0257 97.0977 19.072 97.5028 19.1649C97.9079 19.2578 98.2896 19.4096 98.6482 19.6205C99.0068 19.8315 99.2894 20.1331 99.4962 20.5255C99.7028 20.9177 99.8062 21.3882 99.8062 21.9366C99.8062 22.4766 99.6691 22.9576 99.395 23.3795C99.1207 23.8013 98.7347 24.1262 98.2368 24.354L100.504 26.6125L100.515 27.9863H97.0472L95.3259 24.7843H95.2374V27.9863H92.3263ZM95.2121 21.3671V22.81H95.8069C96.5071 22.81 96.8573 22.5611 96.8573 22.0632C96.8573 21.5992 96.5494 21.3671 95.9335 21.3671H95.2121ZM104.527 27.9863V19.0257H107.564V25.4045H110.539V27.9863H104.527ZM115.196 28.2394C113.855 28.2394 112.827 27.8893 112.114 27.1889C111.401 26.4886 111.045 25.5816 111.045 24.4679V19.0257H114.057V24.1389C114.057 24.5691 114.16 24.9046 114.367 25.145C114.574 25.3854 114.867 25.5056 115.247 25.5056C115.627 25.5056 115.92 25.3854 116.126 25.145C116.333 24.9046 116.437 24.5691 116.437 24.1389V19.0257H119.436V24.4679C119.436 25.5732 119.067 26.4781 118.329 27.1827C117.59 27.8871 116.546 28.2394 115.196 28.2394ZM128.896 18.6397L128.954 20.0129L127.106 22.2404C126.777 21.7932 126.283 21.5696 125.625 21.5696C125.11 21.5696 124.68 21.7468 124.334 22.1012C123.988 22.4556 123.815 22.9238 123.815 23.506C123.815 24.0713 123.99 24.5311 124.34 24.8855C124.691 25.2399 125.119 25.4171 125.625 25.4171C126.275 25.4171 126.768 25.1766 127.106 24.6957L128.94 25.5051L128.954 26.9105C128.068 27.7965 126.899 28.2394 125.448 28.2394C124.073 28.2394 122.917 27.7986 121.98 26.9169C121.043 26.0352 120.575 24.8982 120.575 23.506C120.575 22.0969 121.041 20.9558 121.974 20.0825C122.906 19.2092 124.064 18.7726 125.448 18.7726C126.131 18.7726 126.783 18.8844 127.403 19.108C127.708 19.2179 128.641 18.4921 128.896 18.6397ZM135.142 27.9863L132.751 24.4173H132.725V27.9863H129.789V19.0257H132.713V22.329H132.738L135.13 19.0257L138.64 17.7096L138.674 19.0257L135.307 23.1264L138.817 26.6125L138.838 27.9863H135.142Z" fill="#FE3E15"/>
<path d="M0.733124 26.6553L4.26424 17.6947H7.46622L7.59481 18.0249H4.49695L1.09593 26.6553H0.733124ZM11.5921 26.6553V17.6947H14.5916L14.7773 18.0249H11.8249V26.6553H11.5921ZM17.1989 22.2348L17.0724 17.6947H19.9326V18.0249H17.305L17.4316 22.5684H17.3864L17.1989 22.2348ZM16.8983 26.6553H16.8571L14.6163 22.7911H14.6576L16.8983 26.6553ZM21.836 26.6553H21.6034V17.6947H24.9446C25.5352 17.6947 26.0837 17.7368 26.5899 17.8212C27.0963 17.9056 27.5834 18.0554 28.0516 18.2706C28.5199 18.4857 28.9165 18.7557 29.2414 19.0805C29.4029 19.2421 29.5484 19.4278 29.6776 19.6374C29.6129 19.5572 29.5451 19.4816 29.4741 19.4107C29.1493 19.0858 28.7527 18.8158 28.2844 18.6007C27.8162 18.3855 27.3289 18.2358 26.8226 18.1514C26.3164 18.0671 25.7679 18.0249 25.1773 18.0249H21.836V26.6553ZM36.125 26.6553H35.8923V20.6523H36.125V26.6553ZM33.9228 20.2387H33.6901V17.6947H41.1066V18.0249H33.9228V20.2387ZM42.0306 26.6553V17.6947H45.8907C46.3632 17.6947 46.802 17.7411 47.2069 17.8339C47.6119 17.9267 47.9938 18.0786 48.3524 18.2895C48.6783 18.4812 48.9412 18.7478 49.1417 19.0892C48.9828 18.9009 48.7972 18.7445 48.5851 18.6197C48.2265 18.4088 47.8446 18.2569 47.4396 18.1641C47.0348 18.0713 46.5959 18.0249 46.1234 18.0249H42.2634V26.6553H42.0306ZM53.3883 26.6553H53.1555V22.985L49.7762 17.6947H53.4087L53.5864 18.0249H50.009L50.0623 18.1083H50.0615L53.3883 23.3163V26.6553ZM54.8567 20.2677L56.1803 17.6947H59.7241L59.5022 18.0249H56.413L55.0625 20.6501L54.8567 20.2677ZM65.2851 26.6553H65.0524V22.985L61.6733 17.6947H65.3056L65.4833 18.0249H61.906L61.9594 18.1083H61.9585L65.2851 23.3163V26.6553ZM66.7536 20.2677L68.0773 17.6947H71.621L71.399 18.0249H68.3101L66.9595 20.6501L66.7536 20.2677ZM71.292 22.1244C71.292 20.7154 71.7603 19.5826 72.6969 18.7262C73.6334 17.8698 74.8231 17.4416 76.2659 17.4416C77.7089 17.4416 78.9005 17.8698 79.8414 18.7262C80.1316 18.9904 80.3769 19.2808 80.5776 19.5977C80.4282 19.4064 80.2605 19.2259 80.0742 19.0563C79.1332 18.1999 77.9415 17.7718 76.4988 17.7718C75.0559 17.7718 73.8661 18.1999 72.9295 19.0563C71.993 19.9127 71.5247 21.0455 71.5247 22.4545C71.5247 23.454 71.7586 24.3213 72.2262 25.0564C71.6035 24.2549 71.292 23.2777 71.292 22.1244ZM83.1666 25.5316C82.6502 24.883 82.3916 24.0849 82.3916 23.1369V17.6947H85.4039V18.0249H82.6244V23.467C82.6244 24.2599 82.8052 24.9481 83.1666 25.5316ZM85.8069 23.909C86.0053 24.0861 86.2677 24.1747 86.5936 24.1747C86.9732 24.1747 87.2664 24.0544 87.4731 23.814C87.6798 23.5735 87.7832 23.2381 87.7832 22.8078V17.6947H90.7827V18.0249H88.0159V23.1379C88.0159 23.5683 87.9125 23.9037 87.7058 24.1442C87.4992 24.3846 87.2059 24.5048 86.8263 24.5048C86.4466 24.5048 86.1534 24.3846 85.9466 24.1442C85.922 24.1155 85.8988 24.0853 85.8771 24.0539C85.851 24.0081 85.8276 23.9598 85.8069 23.909ZM92.3268 26.6553V17.6947H96.1871C96.6596 17.6947 97.0983 17.7411 97.5032 17.8339C97.9082 17.9267 98.2901 18.0786 98.6487 18.2895C98.9746 18.4812 99.2376 18.7478 99.438 19.0892C99.279 18.9009 99.0935 18.7445 98.8815 18.6197C98.5228 18.4088 98.141 18.2569 97.7359 18.1641C97.331 18.0713 96.8922 18.0249 96.4198 18.0249H92.5596V26.6553H92.3268ZM104.528 26.6553V17.6947H107.565V18.0249H104.76V26.6553H104.528ZM107.85 24.0735H110.539V24.4036H107.85V24.0735ZM111.821 25.5316C111.304 24.883 111.046 24.0849 111.046 23.1369V17.6947H114.058V18.0249H111.278V23.467C111.278 24.2599 111.459 24.9481 111.821 25.5316ZM114.461 23.909C114.659 24.0861 114.922 24.1747 115.248 24.1747C115.627 24.1747 115.92 24.0544 116.127 23.814C116.334 23.5735 116.437 23.2381 116.437 22.8078V17.6947H119.437V18.0249H116.67V23.1379C116.67 23.5683 116.566 23.9037 116.36 24.1442C116.153 24.3846 115.86 24.5048 115.48 24.5048C115.1 24.5048 114.807 24.3846 114.601 24.1442C114.576 24.1155 114.553 24.0853 114.531 24.0539C114.505 24.0081 114.481 23.9598 114.461 23.909ZM120.576 22.175C120.576 20.766 121.042 19.6248 121.974 18.7515C122.907 17.8782 124.065 17.4416 125.448 17.4416C126.132 17.4416 126.784 17.5534 127.404 17.777C128.024 18.0006 128.541 18.3022 128.954 18.6819L128.887 18.7635C128.531 18.4983 128.115 18.2795 127.637 18.1071C127.016 17.8835 126.364 17.7718 125.681 17.7718C124.297 17.7718 123.139 18.2083 122.207 19.0815C121.275 19.9549 120.809 21.0961 120.809 22.505C120.809 23.4826 121.039 24.3345 121.501 25.0603C120.884 24.2666 120.576 23.3049 120.576 22.175ZM128.954 25.5795L128.931 25.6027C126.049 22.1485 123.883 19.5002 128.954 25.5795ZM135.143 26.6553L133.028 23.4999H133.036L135.151 26.6553H135.143ZM130.022 26.6553H129.79V17.6947H132.713V18.0249H130.022V26.6553ZM132.998 20.6389L135.13 17.6947H138.674L138.403 18.0249H135.363L132.998 21.2905V20.6389ZM135.601 22.1991L138.839 26.6553H138.831L135.597 22.2038L135.601 22.1991Z" fill="white"/>
<defs>
<linearGradient id="paint0_linear_1_3995" x1="69.7749" y1="0.969966" x2="69.7749" y2="10.288" gradientUnits="userSpaceOnUse">
<stop stop-color="#FDFD00"/>
<stop offset="1" stop-color="#FFCC01"/>
</linearGradient>
</defs>
</svg>
