<svg width="46" height="33" viewBox="0 0 46 33" fill="none" xmlns="http://www.w3.org/2000/svg">
<path d="M0.300964 32.4599L5.5101 9.85075L7.72539 0.251404H38.0271L40.3063 10.1314L45.4514 32.4599H0.300964Z" fill="#63486E"/>
<path d="M5.51013 9.85075L7.72542 0.251404H38.0271L40.3063 10.1314C34.9082 11.4948 29.262 12.2165 23.44 12.2165C17.234 12.2165 11.2281 11.3986 5.51013 9.85075Z" fill="#503859"/>
<path d="M5.22766 32.4599L11.5396 5.06587H34.2126L40.5245 32.4599H5.22766Z" fill="#3D2547"/>
<path d="M10.1862 10.9398L11.5397 5.06587H34.2125L35.6126 11.1424C31.6621 11.8486 27.5958 12.2165 23.4399 12.2165C18.9037 12.2165 14.4744 11.7795 10.1862 10.9398Z" fill="#25162B"/>
</svg>
