<svg width="90" height="90" viewBox="0 0 90 90" fill="none" xmlns="http://www.w3.org/2000/svg">
<path d="M89.1914 44.762C89.1914 69.2365 69.3508 89.0772 44.8762 89.0772C20.4016 89.0772 0.560974 69.2365 0.560974 44.762C0.560974 20.2876 20.4016 0.446983 44.8762 0.446983C69.3508 0.446983 89.1914 20.2876 89.1914 44.762Z" fill="url(#paint0_linear_2_6)"/>
<path d="M89.1914 44.762C89.1914 69.2365 69.3508 89.0772 44.8762 89.0772C20.4016 89.0772 0.560974 69.2365 0.560974 44.762C0.560974 20.2876 20.4016 0.446983 44.8762 0.446983C69.3508 0.446983 89.1914 20.2876 89.1914 44.762Z" fill="url(#paint1_linear_2_6)"/>
<path d="M81.9031 23.3847C78.1461 16.9022 72.7361 11.4924 66.2538 7.73513C59.9609 4.08781 52.6583 1.99732 44.8763 1.99732H44.8762C37.0941 1.99732 29.7916 4.08781 23.4986 7.73513C17.0163 11.4924 11.6063 16.9022 7.8491 23.3846C4.20188 29.6776 2.11139 36.98 2.11139 44.7621C2.11139 44.7621 2.11139 44.7621 2.11139 44.7621C2.11139 52.5443 4.20188 59.8468 7.8493 66.1397C11.6065 72.622 17.0163 78.0319 23.4988 81.7892C29.7916 85.4364 37.0942 87.5269 44.8762 87.5269H44.8763C52.6583 87.5269 59.9609 85.4364 66.2536 81.7892C72.7361 78.0319 78.1459 72.622 81.9031 66.1397C85.5504 59.8468 87.6408 52.5443 87.641 44.7621C87.641 44.7621 87.641 44.7621 87.641 44.7621C87.641 36.98 85.5505 29.6777 81.9031 23.3847Z" fill="#FDFFFF"/>
<path d="M2.11139 44.7621C2.11139 52.5443 4.20198 59.8468 7.8493 66.1397C9.72786 69.3807 12.0197 72.3539 14.6521 74.9862L44.8762 44.7621V87.5269H44.8763C52.6583 87.5269 59.9609 85.4364 66.2536 81.7892C69.4948 79.9105 72.4678 77.6188 75.1003 74.9864L44.8762 44.7621H87.641C87.641 44.7621 87.641 44.7621 87.641 44.7621C87.641 36.98 85.5505 29.6777 81.9032 23.3847C80.0246 20.1435 77.7329 17.1703 75.1004 14.538L44.8762 44.7621V1.99732C37.0941 1.99732 29.7916 4.08781 23.4986 7.73513C20.2573 9.61379 17.2844 11.9055 14.652 14.5381L44.8762 44.7621H2.11139Z" fill="url(#paint2_radial_2_6)"/>
<path d="M14.6521 74.9862C17.2846 77.6188 20.2575 79.9106 23.4988 81.7892C29.7917 85.4364 37.0941 87.5269 44.8762 87.5269V44.7621L75.1004 14.538C72.4681 11.9055 69.495 9.61379 66.2538 7.73513C59.9609 4.08781 52.6583 1.99732 44.8763 1.99732H44.8762V44.7621L14.652 14.5381C12.0195 17.1703 9.72776 20.1435 7.8491 23.3846C4.20188 29.6776 2.11139 36.98 2.11139 44.7621C2.11139 44.7621 2.11139 44.7621 2.11139 44.7621H44.8762L75.1003 74.9864C77.7328 72.3539 80.0245 69.3807 81.9032 66.1397C85.5504 59.8468 87.6409 52.5443 87.641 44.7621H44.8762L14.6521 74.9862Z" fill="url(#paint3_radial_2_6)"/>
<path d="M44.8762 44.6482L14.652 14.5381C12.0195 17.1703 9.72776 20.1435 7.8491 23.3846C4.20188 29.6776 2.11139 36.98 2.11139 44.762C2.11139 44.7621 2.11139 44.7621 2.11139 44.7621H44.8762L75.1003 74.9864C77.7328 72.3539 80.0245 69.3807 81.9032 66.1397C85.5504 59.8468 87.6409 52.5443 87.641 44.7621L44.8762 44.6482Z" fill="url(#paint4_radial_2_6)"/>
<path d="M44.8762 0.437195C57.116 0.437195 68.1973 5.39844 76.2185 13.4198C84.2398 21.4409 89.2011 32.5223 89.2011 44.762C89.2011 57.0019 84.2397 68.0833 76.2185 76.1044C68.1973 84.1256 57.116 89.087 44.8762 89.087C32.6363 89.087 21.5551 84.1257 13.5339 76.1044C5.51261 68.0832 0.55127 57.0019 0.55127 44.762C0.55127 32.5223 5.51271 21.4409 13.5339 13.4198C21.555 5.39854 32.6364 0.437195 44.8762 0.437195ZM73.7606 15.8777C66.3687 8.48561 56.1563 3.91345 44.8762 3.91345C33.596 3.91345 23.3838 8.48561 15.9918 15.8777C8.59969 23.2696 4.02763 33.4819 4.02763 44.762C4.02763 56.0422 8.59979 66.2546 15.9918 73.6465C23.3838 81.0386 33.596 85.6106 44.8762 85.6106C56.1563 85.6106 66.3686 81.0386 73.7606 73.6465C81.1527 66.2545 85.7248 56.0421 85.7248 44.762C85.7248 33.482 81.1527 23.2696 73.7606 15.8777Z" fill="#3D2547"/>
<path d="M44.8762 1.33176C50.7397 1.33176 56.4272 2.47982 61.781 4.74437C66.9525 6.93178 71.5972 10.0633 75.5861 14.0522C79.575 18.0411 82.7065 22.6858 84.8939 27.8574C87.1585 33.2111 88.3065 38.8985 88.3065 44.762C88.3065 50.6255 87.1585 56.3131 84.8939 61.6668C82.7065 66.8384 79.575 71.4831 75.5861 75.4719C71.5972 79.4608 66.9525 82.5924 61.781 84.7797C56.4272 87.0443 50.7397 88.1923 44.8762 88.1923C39.0127 88.1923 33.3252 87.0443 27.9715 84.7797C22.7999 82.5924 18.1552 79.4608 14.1663 75.4719C10.1775 71.4831 7.04577 66.8384 4.85846 61.6668C2.59401 56.3131 1.44595 50.6255 1.44595 44.762C1.44595 38.8985 2.59401 33.2111 4.85846 27.8574C7.04577 22.6858 10.1775 18.0411 14.1663 14.0522C18.1552 10.0633 22.7999 6.93178 27.9715 4.74437C33.3252 2.47982 39.0127 1.33176 44.8762 1.33176ZM44.8762 0.446983C20.4016 0.446983 0.560974 20.2876 0.560974 44.762C0.560974 69.2365 20.4016 89.0772 44.8762 89.0772C69.3508 89.0772 89.1914 69.2365 89.1914 44.762C89.1914 20.2876 69.3508 0.446983 44.8762 0.446983Z" fill="#63486E"/>
<path d="M60.745 39.9314L58.2096 38.1553L58.194 38.1621L59.2606 40.5729L58.393 40.9479L56.7938 37.2477L57.813 36.8072L60.3408 38.5802L60.3565 38.5733L59.2921 36.1679L60.1596 35.793L61.7589 39.4932L60.745 39.9314ZM65.5725 35.6304C65.699 35.9232 65.7641 36.2123 65.7678 36.4982C65.7714 36.7841 65.7207 37.052 65.6158 37.302C65.511 37.552 65.3551 37.7776 65.1484 37.9786C64.9418 38.1795 64.6938 38.3426 64.4045 38.4676C64.1153 38.5925 63.8276 38.661 63.5412 38.6731C63.255 38.6852 62.9849 38.6438 62.7309 38.5489C62.477 38.454 62.2471 38.3072 62.0413 38.1088C61.8357 37.9102 61.6695 37.6647 61.543 37.3721C61.415 37.0758 61.35 36.7867 61.3479 36.5043C61.3458 36.2219 61.3983 35.9583 61.5055 35.7135C61.6126 35.4687 61.7694 35.248 61.9759 35.0513C62.1823 34.8544 62.4302 34.6937 62.7194 34.5687C63.0085 34.4437 63.2964 34.3729 63.583 34.3567C63.8695 34.3403 64.1386 34.3769 64.3903 34.4667C64.642 34.5564 64.87 34.6987 65.0743 34.8936C65.2785 35.0887 65.4445 35.3343 65.5725 35.6304ZM64.6161 36.0439C64.5469 35.8834 64.456 35.7449 64.3434 35.6282C64.2309 35.5114 64.1071 35.4234 63.9719 35.364C63.8366 35.3046 63.6912 35.2744 63.5357 35.2734C63.3801 35.2722 63.2241 35.3058 63.0673 35.3734C62.9104 35.4413 62.7799 35.5318 62.6759 35.645C62.5719 35.7581 62.4943 35.8848 62.4431 36.0248C62.3919 36.1648 62.3713 36.3153 62.381 36.4764C62.3906 36.6377 62.4301 36.7984 62.4995 36.9586C62.5718 37.1259 62.6645 37.2688 62.7777 37.3874C62.891 37.5059 63.0156 37.5956 63.1515 37.6569C63.2876 37.7179 63.4325 37.7495 63.5864 37.7512C63.74 37.753 63.8953 37.72 64.0522 37.6523C64.209 37.5844 64.3394 37.494 64.4435 37.3808C64.5476 37.2675 64.6247 37.1401 64.6752 36.9984C64.7255 36.8566 64.7463 36.7039 64.7376 36.5403C64.7289 36.3766 64.6885 36.211 64.6161 36.0439ZM72.1333 35.0091L71.2501 35.3909L69.4364 33.2038L69.4207 33.2106L69.7709 36.0303L68.8824 36.4143L66.2326 33.1679L67.1943 32.7524L68.8436 34.961L68.8593 34.9543L68.4539 32.2079L69.3841 31.8058L71.1118 33.9806L71.1276 33.9738L70.6594 31.2548L71.5896 30.8525L72.1333 35.0091ZM73.5706 34.3879L71.9712 30.6877L72.8702 30.2992L74.4695 33.9994L73.5706 34.3879ZM77.5844 32.6531L75.049 30.8771L75.0333 30.8839L76.1 33.2946L75.2325 33.6696L73.6333 29.9693L74.6523 29.5289L77.1803 31.302L77.1959 31.2952L76.1314 28.8896L76.999 28.5146L78.5983 32.2148L77.5844 32.6531Z" fill="#333333"/>
<path d="M59.4226 50.9792L59.0945 49.4701L58.8247 49.3907L58.442 50.6905L57.6696 50.4631L58.6338 47.1881L59.8827 47.5558C60.04 47.6019 60.1887 47.6634 60.3287 47.7397C60.4687 47.8162 60.5868 47.9105 60.6827 48.0225C60.7788 48.1346 60.8437 48.2643 60.8773 48.4116C60.9111 48.5588 60.9002 48.7266 60.8448 48.9147C60.7794 49.1368 60.6644 49.3055 60.4997 49.4213C60.3349 49.5369 60.1366 49.5959 59.9047 49.5981L60.3478 51.2515L59.4226 50.9792ZM60.059 48.6983C60.0817 48.6214 60.0839 48.554 60.0656 48.4968C60.0465 48.4391 60.0158 48.39 59.9726 48.3487C59.9294 48.3075 59.8768 48.2728 59.8164 48.245C59.7552 48.2168 59.6955 48.1943 59.637 48.1771L59.2137 48.0525L58.989 48.8156L59.3652 48.9264C59.4308 48.9457 59.4986 48.9597 59.5704 48.9693C59.6415 48.9785 59.7088 48.9774 59.7732 48.9662C59.8369 48.9547 59.8942 48.928 59.946 48.8863C59.9968 48.8444 60.0345 48.7817 60.059 48.6983ZM60.7364 51.3659L61.7006 48.0909L62.4963 48.3251L61.532 51.6002L60.7364 51.3659ZM64.6511 49.8846C64.6086 49.7782 64.5402 49.6835 64.4457 49.6004C64.3512 49.5173 64.253 49.4608 64.1513 49.4307C64.0989 49.4153 64.0443 49.4044 63.9877 49.3978C63.9309 49.3911 63.8771 49.3945 63.8263 49.4079C63.7754 49.4214 63.7292 49.4447 63.6876 49.4778C63.6461 49.5108 63.6157 49.5596 63.5967 49.6244C63.5803 49.6799 63.5783 49.7296 63.5905 49.7734C63.6027 49.8171 63.6271 49.8596 63.6637 49.9004C63.7002 49.9413 63.7459 49.9825 63.8008 50.0237C63.8557 50.065 63.918 50.1094 63.9878 50.1567C64.088 50.2265 64.1916 50.3013 64.2987 50.3816C64.4057 50.4617 64.4977 50.5532 64.5747 50.6563C64.6515 50.7593 64.7062 50.8751 64.7388 51.0037C64.7713 51.1322 64.7635 51.2782 64.7154 51.4417C64.66 51.6297 64.5774 51.7823 64.4676 51.899C64.3579 52.0158 64.2312 52.1017 64.0877 52.1567C63.9442 52.2117 63.7905 52.2383 63.6267 52.237C63.4629 52.2357 63.3008 52.2115 63.1404 52.1643C62.9061 52.0953 62.6914 51.9876 62.4965 51.8415C62.3016 51.6953 62.1539 51.5252 62.0535 51.3316L62.7268 50.9568C62.778 51.0791 62.8593 51.1927 62.9709 51.2975C63.0824 51.4023 63.2029 51.474 63.3325 51.512C63.391 51.5292 63.4499 51.54 63.5091 51.544C63.5682 51.548 63.6226 51.5422 63.6725 51.5266C63.7222 51.5112 63.7663 51.484 63.8046 51.445C63.8429 51.4059 63.8715 51.3542 63.8906 51.2894C63.9088 51.2277 63.9088 51.1707 63.8907 51.1185C63.8725 51.0662 63.8402 51.0139 63.7936 50.9617C63.747 50.9094 63.6855 50.8562 63.6094 50.8019C63.5332 50.7476 63.4461 50.6876 63.3482 50.6219C63.2533 50.5572 63.1626 50.4869 63.076 50.411C62.9894 50.3354 62.9174 50.2497 62.8602 50.1539C62.8028 50.0583 62.7655 49.9519 62.7482 49.8345C62.7307 49.7172 62.7438 49.5845 62.7874 49.4363C62.841 49.2545 62.9238 49.1097 63.036 49.0019C63.1481 48.8942 63.2766 48.8163 63.4214 48.7685C63.5662 48.7205 63.7198 48.6996 63.8822 48.7056C64.0447 48.7115 64.2031 48.7372 64.3573 48.7826C64.5423 48.8371 64.7211 48.9266 64.8939 49.0512C65.0667 49.1758 65.206 49.3257 65.3119 49.5011L64.6511 49.8846ZM66.9395 53.1924L66.1669 51.3262L66.1576 51.3235L65.7136 52.8314L64.9412 52.6039L65.9054 49.3289L66.6779 49.5564L66.2857 50.8885L66.2996 50.8926L67.8621 49.905L68.852 50.1966L66.9972 51.2892L67.971 53.4961L66.9395 53.1924ZM70.8782 51.5269L70.6793 52.2024L71.9468 52.5755L71.7547 53.2277L70.4873 52.8545L70.1127 54.1267L69.331 53.8965L70.2953 50.6215L72.4508 51.256L72.252 51.9315L70.8782 51.5269ZM73.7486 55.1971L73.4204 53.688L73.1506 53.6086L72.7679 54.9084L71.9954 54.6809L72.9598 51.4059L74.2086 51.7736C74.3659 51.82 74.5145 51.8812 74.6546 51.9578C74.7947 52.0342 74.9126 52.1284 75.0087 52.2404C75.1047 52.3524 75.1696 52.4821 75.2033 52.6294C75.237 52.7769 75.2261 52.9446 75.1707 53.1327C75.1053 53.3546 74.9903 53.5236 74.8256 53.6393C74.6608 53.755 74.4625 53.8138 74.2306 53.8159L74.6737 55.4695L73.7486 55.1971ZM74.3849 52.9164C74.4076 52.8392 74.4098 52.7721 74.3915 52.7146C74.3724 52.6572 74.3416 52.6078 74.2985 52.5667C74.2553 52.5256 74.2027 52.4907 74.1423 52.463C74.081 52.4348 74.0214 52.4123 73.9628 52.395L73.5396 52.2704L73.3149 53.0337L73.6911 53.1445C73.7567 53.1638 73.8245 53.1778 73.8963 53.1872C73.9673 53.1964 74.0347 53.1954 74.0991 53.1841C74.1628 53.1728 74.2201 53.1461 74.2718 53.1041C74.3227 53.0623 74.3604 52.9997 74.3849 52.9164ZM75.0623 55.584L76.0265 52.309L78.2284 52.9571L78.0323 53.6234L76.5936 53.1997L76.4112 53.8195L77.7711 54.2199L77.5846 54.8537L76.2246 54.4533L76.0244 55.1334L77.5462 55.5814L77.3473 56.2566L75.0623 55.584ZM77.8701 56.4106L78.8344 53.1356L81.0363 53.7839L80.8401 54.45L79.4015 54.0265L79.219 54.6463L80.579 55.0466L80.3924 55.6804L79.0324 55.2799L78.8322 55.96L80.354 56.408L80.1552 57.0835L77.8701 56.4106ZM65.8615 58.7059C65.8089 58.8848 65.7292 59.0248 65.6224 59.1257C65.5156 59.2265 65.3927 59.2968 65.2537 59.3362C65.1147 59.3759 64.9657 59.3897 64.8066 59.3781C64.6475 59.3665 64.4893 59.3374 64.3321 59.2911L63.0276 58.9071L63.9919 55.6321L65.2964 56.016C65.4228 56.0533 65.5484 56.1046 65.6733 56.1698C65.7982 56.2351 65.9053 56.3152 65.9946 56.4102C66.0839 56.5051 66.1467 56.6167 66.1827 56.7445C66.2187 56.8724 66.2123 57.0196 66.1633 57.1863C66.1097 57.3681 66.0161 57.5039 65.8824 57.5937C65.7487 57.6833 65.5941 57.7307 65.4183 57.7359L65.4155 57.7452C65.5036 57.7879 65.5822 57.842 65.6517 57.9078C65.7212 57.9734 65.7765 58.0476 65.8175 58.1299C65.8586 58.2123 65.8841 58.3021 65.8942 58.3989C65.9042 58.4956 65.8933 58.5979 65.8615 58.7059ZM65.3687 57.0679C65.4013 56.9569 65.3828 56.8634 65.313 56.7875C65.2432 56.7118 65.125 56.6492 64.9585 56.6003L64.5699 56.4859L64.371 57.1612L64.7966 57.2866C64.9447 57.3301 65.0683 57.3338 65.1678 57.2978C65.2672 57.2616 65.3342 57.1851 65.3687 57.0679ZM65.0924 58.399C65.1324 58.2634 65.1092 58.1544 65.0228 58.0719C64.9365 57.9895 64.8085 57.9234 64.6389 57.8733L64.1994 57.7439L63.9788 58.4934L64.4229 58.6243C64.4846 58.6424 64.5501 58.6558 64.6196 58.6646C64.6891 58.6732 64.7549 58.6717 64.817 58.6598C64.8792 58.648 64.9347 58.6215 64.9836 58.5806C65.0325 58.5398 65.0688 58.4792 65.0924 58.399ZM66.1037 59.8127L67.0679 56.5377L69.2698 57.186L69.0737 57.8521L67.635 57.4286L67.4526 58.0484L68.8125 58.4488L68.626 59.0824L67.266 58.6822L67.0658 59.3622L68.5876 59.8101L68.3888 60.4856L66.1037 59.8127ZM71.0785 58.4524L70.3131 61.0521L69.5221 60.8192L70.2876 58.2195L69.3624 57.9472L69.5613 57.2717L72.2026 58.0495L72.0037 58.7248L71.0785 58.4524Z" fill="#CC3A00"/>
<path d="M30.557 38.3179L30.885 39.8271L31.155 39.9064L31.5377 38.6067L32.3101 38.8341L31.3457 42.109L30.0969 41.7413C29.9397 41.6951 29.7909 41.6338 29.6509 41.5574C29.5109 41.4809 29.3928 41.3867 29.2968 41.2746C29.2008 41.1625 29.1358 41.0329 29.1023 40.8855C29.0685 40.7382 29.0795 40.5706 29.1348 40.3824C29.2002 40.1603 29.3153 39.9916 29.48 39.8757C29.6446 39.7601 29.8431 39.7013 30.0749 39.6991L29.6317 38.0455L30.557 38.3179ZM29.9206 40.5987C29.8978 40.6758 29.8957 40.743 29.914 40.8004C29.9332 40.8579 29.9639 40.9071 30.007 40.9484C30.0502 40.9895 30.1028 41.0244 30.1632 41.0522C30.2245 41.0803 30.284 41.1027 30.3427 41.1199L30.7659 41.2446L30.9905 40.4815L30.6143 40.3706C30.5489 40.3514 30.4809 40.3374 30.4091 40.3279C30.3382 40.3187 30.2708 40.3198 30.2065 40.331C30.1426 40.3424 30.0854 40.369 30.0336 40.4109C29.9829 40.4528 29.9452 40.5154 29.9206 40.5987ZM29.2433 37.9311L28.2789 41.2062L27.4834 40.9719L28.4476 37.6968L29.2433 37.9311ZM25.3286 39.4125C25.3709 39.5188 25.4394 39.6136 25.534 39.6968C25.6283 39.7798 25.7265 39.8364 25.8283 39.8664C25.8807 39.8817 25.9354 39.8927 25.9919 39.8993C26.0487 39.906 26.1024 39.9026 26.1534 39.889C26.2042 39.8756 26.2504 39.8524 26.292 39.8194C26.3335 39.7863 26.3638 39.7375 26.383 39.6726C26.3993 39.6172 26.4014 39.5676 26.3891 39.5237C26.3768 39.4799 26.3525 39.4376 26.316 39.3966C26.2795 39.3558 26.2336 39.3147 26.1789 39.2733C26.1239 39.2321 26.0617 39.1878 25.9917 39.1402C25.8917 39.0707 25.7881 38.9958 25.681 38.9155C25.5739 38.8355 25.4818 38.7439 25.405 38.6408C25.3281 38.5377 25.2733 38.4219 25.2408 38.2933C25.2083 38.1648 25.2161 38.0189 25.2642 37.8554C25.3196 37.6674 25.4023 37.5149 25.5119 37.3981C25.6217 37.2813 25.7484 37.1953 25.892 37.1405C26.0355 37.0854 26.1892 37.0587 26.3529 37.0599C26.5168 37.0613 26.6789 37.0856 26.8391 37.1329C27.0735 37.2018 27.2882 37.3094 27.4831 37.4556C27.6779 37.6019 27.8257 37.7719 27.9261 37.9656L27.2528 38.3404C27.2015 38.2181 27.1203 38.1045 27.0088 37.9997C26.8973 37.8948 26.7768 37.8231 26.6472 37.7851C26.5885 37.7679 26.5298 37.7572 26.4705 37.7532C26.4115 37.7492 26.3569 37.755 26.3072 37.7704C26.2573 37.7859 26.2133 37.8131 26.1751 37.8522C26.1368 37.8912 26.108 37.9429 26.0889 38.0078C26.0709 38.0694 26.0709 38.1265 26.0889 38.1786C26.107 38.231 26.1395 38.2831 26.1861 38.3355C26.2326 38.3877 26.2941 38.4409 26.3702 38.4953C26.4463 38.5495 26.5335 38.6096 26.6314 38.6752C26.7262 38.74 26.8169 38.8102 26.9037 38.8861C26.9902 38.9618 27.0621 39.0474 27.1195 39.1431C27.1767 39.2388 27.214 39.3452 27.2314 39.4627C27.2489 39.58 27.2359 39.7127 27.1922 39.8608C27.1387 40.0427 27.0557 40.1875 26.9436 40.2953C26.8314 40.4029 26.703 40.4808 26.5583 40.5286C26.4135 40.5766 26.2599 40.5975 26.0973 40.5915C25.935 40.5856 25.7766 40.5599 25.6223 40.5144C25.4374 40.46 25.2584 40.3704 25.0858 40.2458C24.913 40.1212 24.7736 39.9714 24.6676 39.796L25.3286 39.4125ZM23.0401 36.1047L23.8128 37.971L23.822 37.9737L24.2659 36.4656L25.0385 36.693L24.0742 39.9682L23.3016 39.7407L23.694 38.4085L23.68 38.4044L22.1176 39.392L21.1276 39.1006L22.9825 38.008L22.0086 35.8011L23.0401 36.1047ZM19.1015 37.7702L19.3003 37.0947L18.0328 36.7216L18.225 36.0694L19.4923 36.4426L19.8668 35.1705L20.6486 35.4006L19.6844 38.6756L17.5287 38.0409L17.7277 37.3657L19.1015 37.7702ZM16.231 34.1L16.5591 35.609L16.8289 35.6885L17.2117 34.3887L17.9842 34.6161L17.0199 37.8912L15.771 37.5235C15.6136 37.4772 15.465 37.4158 15.3249 37.3393C15.185 37.263 15.067 37.1687 14.9709 37.0567C14.8749 36.9445 14.8101 36.8149 14.7764 36.6677C14.7426 36.5203 14.7535 36.3525 14.8089 36.1645C14.8742 35.9425 14.9892 35.7736 15.1541 35.6579C15.3188 35.5422 15.5172 35.4832 15.749 35.4811L15.3059 33.8277L16.231 34.1ZM15.5947 36.3808C15.5719 36.4578 15.5698 36.5251 15.5881 36.5823C15.6072 36.64 15.638 36.6892 15.681 36.7304C15.7243 36.7716 15.7769 36.8064 15.8373 36.8341C15.8987 36.8624 15.9581 36.8849 16.0168 36.9021L16.44 37.0268L16.6646 36.2635L16.2886 36.1527C16.2229 36.1334 16.1551 36.1193 16.0832 36.1099C16.0123 36.1007 15.9448 36.1017 15.8805 36.113C15.8167 36.1243 15.7595 36.1511 15.7077 36.193C15.657 36.2348 15.6191 36.2975 15.5947 36.3808ZM14.9173 33.7132L13.9531 36.9882L11.7512 36.3399L11.9473 35.6738L13.3859 36.0973L13.5685 35.4775L12.2085 35.0772L12.395 34.4434L13.755 34.8438L13.9553 34.1637L12.4334 33.7158L12.6322 33.0404L14.9173 33.7132ZM12.1095 32.8865L11.1453 36.1615L8.94336 35.5132L9.1394 34.8471L10.5781 35.2706L10.7607 34.6508L9.40069 34.2503L9.58723 33.6167L10.9471 34.0171L11.1474 33.3371L9.6255 32.8891L9.82444 32.2136L12.1095 32.8865ZM24.118 30.5911C24.1707 30.4124 24.2504 30.2724 24.3573 30.1715C24.4641 30.0706 24.587 30.0003 24.7259 29.9609C24.8648 29.9213 25.0138 29.9075 25.173 29.9191C25.3322 29.9307 25.4902 29.9597 25.6475 30.0059L26.9519 30.3901L25.9876 33.665L24.6833 33.281C24.5569 33.2438 24.4312 33.1925 24.3064 33.1273C24.1814 33.0619 24.0744 32.9819 23.985 32.8869C23.8956 32.7919 23.833 32.6804 23.7969 32.5525C23.7608 32.4246 23.7673 32.2775 23.8164 32.1109C23.87 31.9289 23.9636 31.7931 24.0972 31.7034C24.2309 31.6139 24.3855 31.5663 24.5614 31.561L24.5641 31.5519C24.4761 31.5093 24.3973 31.4551 24.3279 31.3894C24.2584 31.3236 24.2032 31.2496 24.162 31.1672C24.121 31.0847 24.0955 30.9951 24.0854 30.8983C24.0755 30.8015 24.0863 30.6992 24.118 30.5911ZM24.6109 32.2292C24.5783 32.3403 24.5969 32.4336 24.6666 32.5096C24.7364 32.5854 24.8546 32.6479 25.0211 32.6968L25.4098 32.8112L25.6085 32.136L25.1831 32.0106C25.0349 31.9669 24.9112 31.9632 24.8119 31.9994C24.7125 32.0354 24.6454 32.1121 24.6109 32.2292ZM24.8871 30.8981C24.8473 31.0338 24.8704 31.1428 24.9568 31.2251C25.0432 31.3076 25.1712 31.3738 25.3407 31.4238L25.7802 31.5531L26.0008 30.8037L25.5568 30.6729C25.495 30.6548 25.4295 30.6414 25.36 30.6326C25.2906 30.6239 25.2247 30.6254 25.1626 30.6374C25.1004 30.6492 25.0449 30.6756 24.9959 30.7164C24.9472 30.7574 24.9107 30.8179 24.8871 30.8981ZM23.8758 29.4843L22.9116 32.7594L20.7097 32.1112L20.906 31.4449L22.3445 31.8686L22.5271 31.2488L21.1671 30.8483L21.3536 30.2145L22.7137 30.6149L22.9138 29.935L21.392 29.4869L21.5908 28.8116L23.8758 29.4843ZM18.901 30.8447L19.6665 28.245L20.4574 28.4779L19.6921 31.0775L20.6171 31.3499L20.4184 32.0254L17.777 31.2477L17.9759 30.5723L18.901 30.8447Z" fill="#CC3A00"/>
<path d="M50.5394 27.074L47.9213 25.6917L48.084 26.6275L47.2534 26.7492L47.0118 25.1214L47.4186 24.351L50.9834 26.2332L50.5394 27.074ZM51.3068 21.279C51.5585 21.4119 51.7852 21.5638 51.987 21.7347C52.1887 21.9055 52.3467 22.0921 52.4611 22.294C52.5755 22.4962 52.6373 22.7123 52.6466 22.9426C52.6559 23.1729 52.5942 23.4137 52.4614 23.6656C52.3284 23.9174 52.1637 24.105 51.9675 24.2288C51.7711 24.3527 51.5569 24.4254 51.3247 24.4465C51.0925 24.4676 50.8489 24.4433 50.5941 24.3729C50.3391 24.3029 50.0859 24.2014 49.8341 24.0684C49.5824 23.9355 49.3565 23.7841 49.1566 23.614C48.9566 23.4442 48.8016 23.2581 48.6914 23.0562C48.5813 22.8543 48.5228 22.6377 48.5161 22.4066C48.5092 22.1756 48.5724 21.9342 48.7053 21.6824C48.8381 21.4307 49.0015 21.2434 49.1953 21.1203C49.389 20.9973 49.5997 20.925 49.8277 20.9038C50.0559 20.8826 50.2964 20.9066 50.5495 20.9758C50.8026 21.045 51.0551 21.1462 51.3068 21.279ZM50.8497 22.145C50.7389 22.0866 50.6129 22.0286 50.4714 21.9712C50.3301 21.9136 50.1917 21.8729 50.0565 21.8487C49.9212 21.8243 49.7959 21.8259 49.6807 21.8531C49.5656 21.8803 49.4786 21.9492 49.4202 22.0599C49.3616 22.1707 49.3532 22.2822 49.395 22.3943C49.4366 22.5064 49.5052 22.6124 49.6006 22.7122C49.696 22.8119 49.8074 22.9039 49.9345 22.9882C50.0616 23.0725 50.1806 23.1439 50.2914 23.2025C50.4055 23.2626 50.5342 23.322 50.6771 23.3802C50.8202 23.4387 50.9598 23.479 51.096 23.5016C51.2322 23.5241 51.3583 23.521 51.4744 23.4921C51.5905 23.4634 51.6777 23.3935 51.7363 23.2827C51.7946 23.1721 51.8026 23.0615 51.7602 22.951C51.7177 22.8405 51.6481 22.7362 51.5517 22.6381C51.4555 22.54 51.343 22.4485 51.2142 22.3634C51.0853 22.278 50.9638 22.2054 50.8497 22.145ZM53.0241 18.0265C53.2759 18.1594 53.5025 18.3114 53.7042 18.4821C53.9059 18.653 54.0639 18.8394 54.1783 19.0415C54.2927 19.2435 54.3545 19.4596 54.3638 19.6899C54.3731 19.9203 54.3115 20.1613 54.1786 20.413C54.0457 20.6648 53.8809 20.8526 53.6847 20.9764C53.4883 21.1003 53.2741 21.1727 53.0419 21.1939C52.8097 21.2152 52.5661 21.1906 52.3113 21.1205C52.0565 21.0502 51.8031 20.9487 51.5513 20.8158C51.2996 20.6829 51.0737 20.5315 50.8739 20.3615C50.6738 20.1915 50.5188 20.0057 50.4086 19.8037C50.2986 19.6017 50.24 19.3852 50.2333 19.1542C50.2265 18.9231 50.2896 18.6818 50.4225 18.43C50.5553 18.1783 50.7187 17.9908 50.9125 17.8677C51.1062 17.7446 51.317 17.6726 51.545 17.6512C51.773 17.6299 52.0136 17.6539 52.2667 17.7233C52.5198 17.7925 52.7724 17.8935 53.0241 18.0265ZM52.5669 18.8926C52.4561 18.834 52.3301 18.7761 52.1887 18.7186C52.0473 18.6612 51.909 18.6203 51.7737 18.596C51.6385 18.5719 51.5132 18.5733 51.398 18.6005C51.2827 18.6277 51.1958 18.6967 51.1375 18.8074C51.079 18.9182 51.0705 19.0297 51.1122 19.1418C51.1539 19.2539 51.2224 19.3598 51.3178 19.4595C51.4132 19.5593 51.5245 19.6514 51.6517 19.7356C51.7788 19.8199 51.8978 19.8914 52.0087 19.9498C52.1228 20.0102 52.2514 20.0694 52.3944 20.1278C52.5374 20.186 52.677 20.2265 52.8132 20.2491C52.9495 20.2717 53.0755 20.2685 53.1917 20.2397C53.3077 20.2107 53.3949 20.141 53.4535 20.0303C53.5119 19.9195 53.52 19.8089 53.4774 19.6983C53.4349 19.5878 53.3653 19.4836 53.269 19.3856C53.1728 19.2876 53.0603 19.1959 52.9314 19.1107C52.8026 19.0256 52.6811 18.9528 52.5669 18.8926ZM56.4108 13.7947C56.5416 13.8638 56.6518 13.954 56.7411 14.0656C56.8302 14.1772 56.8951 14.2983 56.9354 14.4291C56.9759 14.5597 56.9902 14.6972 56.9786 14.8412C56.9669 14.9854 56.9264 15.1229 56.8574 15.2537C56.7882 15.3847 56.6975 15.4956 56.5851 15.5864C56.4728 15.6773 56.3512 15.743 56.2204 15.7833C56.0896 15.8238 55.953 15.8386 55.8105 15.8277C55.6683 15.817 55.5316 15.777 55.4007 15.7079C55.2698 15.6389 55.1597 15.5485 55.0704 15.437C54.9812 15.3255 54.9165 15.2043 54.8761 15.0736C54.8356 14.9428 54.8214 14.8054 54.8329 14.6614C54.8446 14.5174 54.885 14.3799 54.9541 14.2489C55.0233 14.118 55.1141 14.0072 55.2263 13.9163C55.3387 13.8253 55.4603 13.7597 55.591 13.7192C55.7219 13.6789 55.8585 13.6641 56.0009 13.6749C56.1433 13.6857 56.28 13.7255 56.4108 13.7947ZM56.1131 14.3586C56.0593 14.3302 56.0025 14.3141 55.9422 14.3102C55.882 14.3064 55.825 14.3127 55.7712 14.3293C55.7173 14.346 55.668 14.3725 55.623 14.4089C55.578 14.4452 55.5414 14.4903 55.5131 14.544C55.4562 14.6515 55.4461 14.7641 55.4827 14.8821C55.5191 15 55.591 15.0873 55.6984 15.1441C55.8058 15.2006 55.9177 15.2103 56.034 15.1731C56.1502 15.1359 56.2367 15.0634 56.2934 14.9559C56.3217 14.9023 56.3383 14.8466 56.343 14.789C56.3477 14.7313 56.3417 14.6756 56.325 14.6218C56.3083 14.5679 56.2824 14.5178 56.2469 14.471C56.2114 14.4245 56.1668 14.3871 56.1131 14.3586ZM53.3525 15.2705C53.4834 15.3395 53.5935 15.4298 53.6827 15.5413C53.772 15.6528 53.8368 15.774 53.877 15.9047C53.9176 16.0355 53.9319 16.1729 53.9202 16.317C53.9086 16.4611 53.8681 16.5986 53.7991 16.7295C53.7298 16.8604 53.6391 16.9714 53.5268 17.0622C53.4145 17.153 53.2929 17.2188 53.1621 17.2591C53.0313 17.2995 52.8946 17.3144 52.7522 17.3036C52.61 17.2927 52.4733 17.2528 52.3423 17.1837C52.2081 17.1129 52.0964 17.0216 52.0072 16.9101C51.9178 16.7986 51.8531 16.6775 51.8127 16.5467C51.7722 16.4159 51.7588 16.2789 51.772 16.1358C51.7854 15.9927 51.8268 15.8555 51.8957 15.7247C51.9649 15.5938 52.0549 15.4824 52.1654 15.3907C52.2762 15.2988 52.3969 15.2328 52.5277 15.1923C52.6585 15.1519 52.7951 15.1371 52.9375 15.148C53.0799 15.1587 53.2183 15.1995 53.3525 15.2705ZM53.0548 15.8343C52.9474 15.7776 52.8347 15.7675 52.7168 15.8039C52.5988 15.8405 52.5113 15.9123 52.4547 16.0197C52.3979 16.1272 52.3878 16.2399 52.4243 16.3579C52.4608 16.4758 52.5326 16.563 52.64 16.6198C52.7476 16.6765 52.8594 16.6861 52.9757 16.6488C53.0919 16.6116 53.1785 16.5391 53.2352 16.4317C53.2919 16.3244 53.3028 16.2122 53.268 16.0951C53.2333 15.978 53.1622 15.8911 53.0548 15.8343ZM55.8969 17.3414L55.4387 17.6725L52.8611 13.6525L53.3349 13.3039L55.8969 17.3414ZM52.0399 33.3186C52.2237 33.4155 52.3643 33.5333 52.4617 33.6719C52.5591 33.8106 52.6213 33.9584 52.6481 34.1155C52.6753 34.2724 52.6721 34.4318 52.6383 34.5935C52.6049 34.7551 52.5501 34.9082 52.4739 35.0524L52.0608 35.8348L49.9621 34.727L50.3628 33.9682C50.4409 33.82 50.5355 33.6828 50.6463 33.5568C50.757 33.4308 50.8822 33.3327 51.0217 33.2622C51.161 33.1919 51.3162 33.1576 51.4872 33.1593C51.658 33.1611 51.8424 33.2143 52.0399 33.3186ZM51.7614 33.8462C51.6428 33.7835 51.5343 33.7508 51.4359 33.7483C51.3376 33.7456 51.2482 33.764 51.1678 33.8037C51.0876 33.8435 51.0158 33.899 50.9528 33.9708C50.8897 34.0422 50.8352 34.1215 50.7893 34.2085L50.6562 34.4605L51.8834 35.1083L52.0102 34.8681C52.0582 34.7773 52.0939 34.6845 52.1175 34.5895C52.141 34.4944 52.1461 34.4024 52.1327 34.3132C52.1191 34.2239 52.083 34.139 52.0242 34.0589C51.9656 33.9786 51.878 33.9076 51.7614 33.8462ZM53.2719 33.5407L51.1733 32.4327L51.9182 31.0219L52.3452 31.2473L51.8585 32.169L52.2557 32.3788L52.7158 31.5074L53.1217 31.7217L52.6617 32.5932L53.0975 32.8231L53.6122 31.848L54.045 32.0764L53.2719 33.5407ZM53.6098 29.383C53.7323 29.4478 53.8236 29.5249 53.8836 29.6147C53.9436 29.7046 53.9788 29.8016 53.9896 29.9057C54.0003 30.0098 53.9908 30.1186 53.9615 30.2319C53.9319 30.3452 53.8885 30.4562 53.8311 30.565L53.6981 30.8168L54.4895 31.2346L54.2218 31.7416L52.1234 30.6336L52.5301 29.8628C52.5908 29.7482 52.6586 29.647 52.7341 29.5593C52.8095 29.4715 52.8919 29.4038 52.9815 29.3563C53.071 29.309 53.168 29.2856 53.2723 29.2864C53.3768 29.2872 53.4892 29.3194 53.6098 29.383ZM53.3453 29.8914C53.2958 29.8653 53.25 29.8538 53.2081 29.8569C53.1661 29.8599 53.1272 29.8735 53.0917 29.8978C53.0562 29.922 53.0241 29.9539 52.9958 29.9931C52.9675 30.0325 52.9413 30.075 52.9173 30.1203L52.8 30.3426L53.295 30.604L53.4076 30.3907C53.4327 30.3431 53.4527 30.2957 53.4678 30.248C53.4828 30.2004 53.4895 30.1541 53.488 30.109C53.4865 30.0641 53.4748 30.0231 53.4526 29.986C53.4304 29.9491 53.3945 29.9175 53.3453 29.8914ZM55.3201 27.0984C55.4862 27.1859 55.6227 27.2947 55.7298 27.4245C55.8368 27.5542 55.9124 27.696 55.9565 27.8494C56.0007 28.0028 56.0123 28.1637 55.9916 28.3322C55.9709 28.5005 55.9172 28.6668 55.8305 28.831C55.7441 28.9949 55.6373 29.1324 55.5104 29.2436C55.3835 29.3547 55.2443 29.4354 55.0926 29.4854C54.9411 29.5357 54.7816 29.5531 54.6139 29.538C54.4464 29.5226 54.2797 29.4712 54.1135 29.3836C53.9457 29.295 53.8091 29.1862 53.704 29.0575C53.599 28.9287 53.5258 28.7884 53.4846 28.6364C53.4436 28.4847 53.4341 28.3256 53.4563 28.1591C53.4785 27.9927 53.5328 27.8276 53.6193 27.6634C53.7061 27.4995 53.812 27.3609 53.9375 27.2477C54.0629 27.1346 54.2 27.052 54.3484 27.0004C54.497 26.9487 54.6542 26.9298 54.8198 26.944C54.9853 26.9582 55.1523 27.0097 55.3201 27.0984ZM55.0339 27.6408C54.9429 27.5929 54.85 27.5627 54.7555 27.5506C54.6607 27.5385 54.5714 27.5437 54.4874 27.5664C54.4035 27.5891 54.3257 27.6289 54.2539 27.6857C54.1822 27.7427 54.1228 27.8155 54.0759 27.9045C54.029 27.9935 54.0024 28.083 53.9964 28.1732C53.9904 28.2636 54.0014 28.3504 54.0297 28.4335C54.0579 28.5165 54.1038 28.5933 54.1678 28.6636C54.2316 28.7341 54.3092 28.7932 54.4 28.8412C54.4948 28.8912 54.5901 28.9227 54.6858 28.9353C54.7815 28.9479 54.8719 28.9431 54.9567 28.9211C55.0417 28.8988 55.1199 28.8598 55.191 28.8041C55.2622 28.748 55.3212 28.6757 55.3683 28.5868C55.4152 28.4978 55.4415 28.4081 55.4475 28.3179C55.4536 28.2276 55.442 28.1406 55.4129 28.057C55.3839 27.9734 55.337 27.8956 55.2727 27.8238C55.2082 27.7519 55.1287 27.6908 55.0339 27.6408ZM55.5872 25.3935C55.509 25.4079 55.4351 25.4414 55.3655 25.4943C55.2958 25.5473 55.2438 25.6063 55.2093 25.6716C55.1916 25.7051 55.1766 25.7408 55.1642 25.7785C55.1519 25.8161 55.1468 25.8533 55.1491 25.89C55.1512 25.9263 55.1607 25.9611 55.1775 25.994C55.1941 26.0269 55.2233 26.0541 55.2649 26.0761C55.3004 26.0948 55.3339 26.103 55.3655 26.1007C55.3971 26.0985 55.4293 26.0877 55.4621 26.0684C55.4951 26.0492 55.5294 26.0238 55.565 25.9921C55.6008 25.9603 55.6396 25.924 55.6814 25.883C55.7427 25.8242 55.8079 25.7641 55.8774 25.702C55.9466 25.6402 56.0218 25.59 56.1026 25.5519C56.1833 25.5138 56.2699 25.4923 56.3619 25.4878C56.454 25.4833 56.5522 25.5089 56.6571 25.5641C56.7776 25.6278 56.8701 25.705 56.9345 25.796C56.999 25.8869 57.04 25.985 57.0576 26.0902C57.0754 26.1956 57.0725 26.304 57.049 26.4154C57.0257 26.5269 56.9867 26.634 56.9324 26.7367C56.8532 26.8869 56.7504 27.0184 56.6239 27.131C56.4975 27.2436 56.3613 27.3208 56.2155 27.3626L56.0528 26.8523C56.1432 26.8341 56.2317 26.7944 56.3185 26.733C56.4054 26.6713 56.4707 26.5991 56.5146 26.5161C56.5344 26.4786 56.5497 26.4398 56.5605 26.4002C56.5714 26.3605 56.575 26.3224 56.5713 26.2865C56.5676 26.2504 56.5551 26.2165 56.5339 26.1851C56.5126 26.1537 56.4812 26.127 56.4396 26.1051C56.4002 26.0841 56.3614 26.0763 56.3232 26.0815C56.2852 26.0866 56.2451 26.1015 56.203 26.1261C56.1611 26.1507 56.1163 26.1851 56.0688 26.2296C56.0214 26.2741 55.9685 26.325 55.9103 26.3827C55.8531 26.4384 55.7927 26.4907 55.7291 26.5391C55.6656 26.5877 55.5972 26.625 55.5242 26.6509C55.4512 26.6766 55.3735 26.6874 55.2911 26.6831C55.2087 26.6787 55.1202 26.6517 55.0253 26.6016C54.9088 26.54 54.8215 26.4635 54.7635 26.3725C54.7055 26.2811 54.6702 26.1828 54.6576 26.0776C54.645 25.9724 54.6518 25.8649 54.6783 25.7551C54.7046 25.6452 54.744 25.5408 54.7961 25.442C54.8586 25.3234 54.9443 25.2138 55.053 25.1133C55.1617 25.0128 55.283 24.9385 55.417 24.8905L55.5872 25.3935ZM57.4801 25.5703L55.3815 24.4623L55.6507 23.9526L57.7492 25.0606L57.4801 25.5703ZM56.786 22.8502L58.4519 23.7296L58.1843 24.2364L56.5185 23.357L56.2054 23.9499L55.7727 23.7214L56.6663 22.0288L57.0991 22.2573L56.786 22.8502ZM59.4937 20.2772C59.6084 20.3377 59.6928 20.4114 59.7468 20.498C59.801 20.5846 59.8319 20.678 59.8396 20.7782C59.8473 20.8783 59.8364 20.9818 59.8066 21.0884C59.7767 21.1953 59.735 21.2991 59.6819 21.3999L59.2406 22.2358L57.1421 21.1278L57.5833 20.292C57.6262 20.2108 57.6784 20.1323 57.74 20.0562C57.8017 19.9801 57.871 19.9182 57.948 19.8704C58.025 19.8226 58.1097 19.7953 58.2018 19.7884C58.2939 19.7814 58.3932 19.8061 58.4999 19.8624C58.6165 19.924 58.6962 20.0065 58.7388 20.1098C58.7816 20.2132 58.7927 20.3251 58.7719 20.4456L58.7779 20.4487C58.819 20.3947 58.8667 20.3485 58.9212 20.3102C58.9754 20.272 59.0335 20.2445 59.0954 20.2278C59.1573 20.2112 59.2218 20.2062 59.2891 20.2126C59.3564 20.2191 59.4247 20.2407 59.4937 20.2772ZM58.31 20.3875C58.2388 20.3499 58.1726 20.3497 58.1113 20.3868C58.05 20.4239 57.9912 20.4959 57.9348 20.6025L57.8034 20.8516L58.2362 21.08L58.3801 20.8073C58.4302 20.7125 58.4498 20.6287 58.4389 20.556C58.428 20.4833 58.385 20.4271 58.31 20.3875ZM59.1789 20.759C59.0919 20.7131 59.0143 20.7139 58.9464 20.7614C58.8783 20.8088 58.8157 20.887 58.7582 20.9956L58.6096 21.2772L59.0898 21.5307L59.24 21.2462C59.2608 21.2066 59.2791 21.1638 59.2946 21.1177C59.3101 21.0715 59.3181 21.0265 59.3186 20.9826C59.3191 20.9385 59.3087 20.8971 59.2876 20.8582C59.2665 20.8191 59.2301 20.7862 59.1789 20.759ZM60.3781 17.5184C60.5441 17.6061 60.6806 17.7149 60.7877 17.8447C60.8948 17.9744 60.9702 18.116 61.0144 18.2694C61.0585 18.4229 61.0701 18.5838 61.0494 18.7522C61.0287 18.9207 60.975 19.087 60.8885 19.251C60.8019 19.4151 60.6951 19.5526 60.5682 19.6638C60.4414 19.7749 60.3021 19.8555 60.1506 19.9057C59.9989 19.9557 59.8393 19.9731 59.6719 19.9579C59.5042 19.9427 59.3375 19.8914 59.1715 19.8038C59.0035 19.715 58.8669 19.6062 58.7618 19.4775C58.6568 19.3487 58.5837 19.2085 58.5426 19.0567C58.5013 18.9048 58.492 18.7456 58.514 18.5793C58.5363 18.4128 58.5907 18.2475 58.6773 18.0837C58.7638 17.9196 58.8698 17.7809 58.9952 17.6678C59.1207 17.5547 59.2577 17.4722 59.4064 17.4204C59.555 17.3687 59.7121 17.35 59.8777 17.3642C60.0433 17.3783 60.2101 17.4298 60.3781 17.5184ZM60.0916 18.0609C60.0008 18.0129 59.908 17.9828 59.8133 17.9708C59.7185 17.9587 59.6292 17.964 59.5453 17.9865C59.4614 18.0091 59.3834 18.049 59.3117 18.1058C59.24 18.1628 59.1807 18.2355 59.1336 18.3246C59.0868 18.4135 59.0604 18.503 59.0543 18.5934C59.0484 18.6838 59.0594 18.7705 59.0875 18.8535C59.1156 18.9367 59.1618 19.0133 59.2257 19.0837C59.2896 19.1542 59.3669 19.2133 59.4579 19.2614C59.5528 19.3115 59.648 19.3427 59.7436 19.3553C59.8393 19.3679 59.9297 19.3631 60.0146 19.3411C60.0995 19.3191 60.1777 19.2801 60.2488 19.2241C60.3201 19.1682 60.3792 19.0958 60.4261 19.0069C60.473 18.918 60.4995 18.8284 60.5055 18.7379C60.5115 18.6477 60.4999 18.5608 60.4707 18.477C60.4417 18.3934 60.3949 18.3158 60.3304 18.2437C60.2661 18.172 60.1865 18.1109 60.0916 18.0609ZM62.3172 16.4083L60.4989 16.5285L60.4942 16.5375L61.8728 17.2502L61.6131 17.7421L59.5145 16.6342L59.8197 16.0562L61.6335 15.9374L61.6382 15.9285L60.2625 15.2174L60.5223 14.7253L62.6209 15.8333L62.3172 16.4083ZM62.9969 13.2044C63.1234 13.2711 63.2272 13.353 63.3086 13.4504C63.3898 13.5477 63.4467 13.6553 63.4791 13.7736C63.5114 13.8917 63.5189 14.0176 63.5015 14.1511C63.4841 14.2847 63.4393 14.4196 63.3673 14.5559C63.2942 14.6942 63.2078 14.8077 63.1079 14.8966C63.008 14.9854 62.9006 15.0486 62.7857 15.0865C62.6709 15.1246 62.5507 15.1369 62.4251 15.1237C62.2995 15.1103 62.1734 15.0702 62.0469 15.0035L60.7399 14.3133L61.0058 13.8095L62.2715 14.4777C62.3289 14.508 62.3871 14.5293 62.4463 14.5416C62.5055 14.5538 62.5633 14.5553 62.6201 14.5462C62.6766 14.5369 62.7303 14.5134 62.7805 14.4754C62.8309 14.4376 62.8749 14.3832 62.9123 14.3119C62.95 14.2408 62.9702 14.1739 62.9731 14.1108C62.976 14.048 62.9655 13.99 62.9417 13.937C62.9178 13.884 62.8839 13.8369 62.8398 13.7961C62.7957 13.7551 62.7451 13.7195 62.6877 13.6893L61.4221 13.021L61.6897 12.5142L62.9969 13.2044ZM63.0363 11.2845C62.9581 11.2987 62.8841 11.3325 62.8145 11.3853C62.7449 11.4383 62.6928 11.4973 62.6583 11.5626C62.6407 11.5962 62.6256 11.6318 62.6133 11.6694C62.601 11.7072 62.5959 11.7443 62.5981 11.7808C62.6003 11.8175 62.6098 11.8522 62.6265 11.8849C62.6433 11.9178 62.6723 11.9452 62.7139 11.9671C62.7495 11.9858 62.783 11.994 62.8146 11.9918C62.8461 11.9895 62.8784 11.9788 62.9112 11.9595C62.9442 11.9403 62.9785 11.9147 63.0141 11.883C63.0497 11.8513 63.0886 11.815 63.1305 11.7738C63.1917 11.7153 63.2571 11.655 63.3264 11.5932C63.3957 11.5311 63.4709 11.4811 63.5516 11.4429C63.6324 11.4047 63.7189 11.3833 63.8109 11.3788C63.903 11.3743 64.0013 11.3998 64.1061 11.4552C64.2267 11.5188 64.3192 11.5961 64.3836 11.687C64.448 11.7777 64.489 11.8759 64.5067 11.9813C64.5245 12.0866 64.5214 12.1951 64.498 12.3065C64.4747 12.4179 64.4358 12.5249 64.3814 12.6277C64.3023 12.7779 64.1994 12.9094 64.0729 13.0219C63.9466 13.1346 63.8103 13.2118 63.6644 13.2535L63.5019 12.7432C63.5923 12.7251 63.6808 12.6855 63.7676 12.6239C63.8545 12.5624 63.9198 12.49 63.9636 12.407C63.9834 12.3695 63.9987 12.331 64.0096 12.2912C64.0205 12.2514 64.024 12.2135 64.0203 12.1775C64.0166 12.1413 64.0041 12.1075 63.983 12.0762C63.9616 12.0446 63.9302 12.018 63.8886 11.996C63.8493 11.9753 63.8105 11.9674 63.7722 11.9726C63.7343 11.9778 63.6942 11.9925 63.6521 12.017C63.6101 12.0416 63.5654 12.0762 63.5178 12.1205C63.4704 12.165 63.4175 12.2161 63.3593 12.2737C63.3021 12.3295 63.2418 12.3816 63.1782 12.4302C63.1147 12.4787 63.0462 12.5159 62.9733 12.5419C62.9002 12.5678 62.8225 12.5785 62.7402 12.5742C62.6577 12.5699 62.5692 12.5427 62.4744 12.4925C62.3578 12.4311 62.2706 12.3546 62.2125 12.2633C62.1546 12.1722 62.1193 12.0739 62.1066 11.9688C62.094 11.8634 62.1008 11.7558 62.1273 11.6459C62.1537 11.5361 62.1929 11.4318 62.2451 11.3331C62.3077 11.2144 62.3934 11.1049 62.5021 11.0044C62.6108 10.9037 62.7321 10.8295 62.8661 10.7814L63.0363 11.2845Z" fill="white"/>
<path d="M39.5685 62.5603L42.2138 63.8899L42.0325 62.9576L42.8603 62.8193L43.1345 64.4418L42.7433 65.2201L39.1415 63.4099L39.5685 62.5603ZM38.9173 68.3694C38.663 68.2417 38.4333 68.0943 38.2281 67.9276C38.0232 67.7607 37.8613 67.5775 37.7429 67.3779C37.6245 67.178 37.5584 66.9632 37.5445 66.7332C37.5305 66.5031 37.5875 66.261 37.7153 66.0066C37.8432 65.7522 38.0039 65.5611 38.1978 65.4334C38.3916 65.3057 38.6042 65.2289 38.8361 65.203C39.0678 65.1773 39.3118 65.1967 39.568 65.2619C39.8241 65.3269 40.0795 65.4234 40.3338 65.5512C40.5881 65.679 40.817 65.8258 41.0204 65.9919C41.2238 66.1578 41.3825 66.3406 41.4967 66.5402C41.6108 66.74 41.6736 66.9553 41.685 67.1862C41.6964 67.417 41.6382 67.6595 41.5103 67.9139C41.3825 68.1684 41.223 68.359 41.0317 68.486C40.8405 68.6128 40.6311 68.6893 40.4036 68.7151C40.1761 68.7408 39.9351 68.7217 39.6806 68.6576C39.4261 68.5934 39.1716 68.4972 38.9173 68.3694ZM39.3571 67.4945C39.469 67.5508 39.5962 67.6062 39.7387 67.6607C39.8811 67.7155 40.0203 67.7533 40.156 67.7749C40.2918 67.7966 40.417 67.7925 40.5316 67.7629C40.6462 67.7335 40.7318 67.6628 40.788 67.551C40.8443 67.4391 40.8504 67.3274 40.8065 67.2162C40.7626 67.1048 40.692 67.0003 40.5945 66.9024C40.4972 66.8046 40.384 66.7149 40.2552 66.6332C40.1263 66.5514 40.006 66.4825 39.8941 66.4261C39.7787 66.3682 39.649 66.3114 39.5048 66.256C39.3606 66.2005 39.2203 66.163 39.0836 66.1431C38.947 66.1233 38.821 66.1289 38.7055 66.1602C38.59 66.1913 38.5041 66.2628 38.4478 66.3748C38.3916 66.4867 38.3858 66.5975 38.4306 66.707C38.4753 66.8166 38.5468 66.9194 38.6452 67.0156C38.7434 67.1117 38.8577 67.2011 38.9883 67.2836C39.1188 67.3662 39.2418 67.4366 39.3571 67.4945ZM37.2656 71.6558C37.0111 71.528 36.7815 71.3806 36.5765 71.2138C36.3714 71.0471 36.2097 70.8638 36.0913 70.6641C35.9729 70.4643 35.9066 70.2495 35.8928 70.0196C35.8788 69.7894 35.9357 69.5473 36.0636 69.2929C36.1914 69.0385 36.3522 68.8475 36.546 68.7198C36.7398 68.592 36.9525 68.5151 37.1843 68.4892C37.4161 68.4635 37.6601 68.4832 37.9163 68.5482C38.1725 68.6131 38.4277 68.7097 38.6821 68.8375C38.9364 68.9654 39.1653 69.1122 39.3687 69.2782C39.5719 69.4441 39.7308 69.6269 39.845 69.8266C39.9591 70.0263 40.0219 70.2416 40.0333 70.4724C40.0447 70.7033 39.9865 70.9459 39.8586 71.2003C39.7308 71.4546 39.5712 71.6453 39.38 71.7722C39.1888 71.8992 38.9794 71.9755 38.7519 72.0014C38.5244 72.0272 38.2834 72.0081 38.0288 71.9437C37.7744 71.8796 37.5199 71.7837 37.2656 71.6558ZM37.7054 70.7808C37.8173 70.837 37.9445 70.8925 38.087 70.947C38.2293 71.0017 38.3686 71.0398 38.5043 71.0611C38.64 71.0827 38.7653 71.0787 38.8799 71.0493C38.9945 71.0199 39.08 70.9491 39.1363 70.8372C39.1925 70.7252 39.1987 70.6138 39.1548 70.5025C39.1109 70.3912 39.0402 70.2867 38.9428 70.1888C38.8453 70.0909 38.7322 70.0013 38.6034 69.9195C38.4745 69.8376 38.3541 69.7687 38.2423 69.7124C38.127 69.6545 37.9972 69.5977 37.853 69.5424C37.7089 69.4868 37.5685 69.4492 37.4319 69.4295C37.2953 69.4096 37.1693 69.4153 37.0537 69.4465C36.9383 69.4775 36.8524 69.5492 36.7961 69.6611C36.7399 69.773 36.7341 69.8837 36.7789 69.9933C36.8236 70.1028 36.8951 70.2057 36.9935 70.3019C37.0917 70.398 37.2061 70.4874 37.3366 70.5698C37.4671 70.6526 37.59 70.7227 37.7054 70.7808ZM33.9643 75.9545C33.832 75.8881 33.7202 75.8001 33.6288 75.6903C33.5374 75.5806 33.47 75.4607 33.4271 75.3309C33.3841 75.201 33.367 75.0639 33.3758 74.9196C33.3845 74.7753 33.4222 74.6369 33.4886 74.5047C33.5551 74.3724 33.6436 74.2598 33.7542 74.1667C33.8647 74.0736 33.985 74.0054 34.1149 73.9625C34.2448 73.9194 34.3811 73.9019 34.5237 73.9099C34.6662 73.9178 34.8036 73.955 34.9358 74.0214C35.0682 74.088 35.18 74.1761 35.2715 74.2857C35.3629 74.3954 35.4301 74.5151 35.4732 74.6452C35.5162 74.7751 35.5333 74.9122 35.5245 75.0565C35.5157 75.2008 35.4781 75.3389 35.4116 75.4712C35.3451 75.6035 35.2566 75.7161 35.1461 75.8094C35.0356 75.9025 34.9153 75.9705 34.7854 76.0136C34.6554 76.0566 34.5192 76.074 34.3766 76.0663C34.234 76.0583 34.0966 76.0211 33.9643 75.9545ZM34.2507 75.3848C34.305 75.4121 34.3622 75.4271 34.4225 75.4298C34.4827 75.4324 34.5396 75.4248 34.5931 75.4072C34.6467 75.3895 34.6954 75.3619 34.7397 75.3248C34.7839 75.2875 34.8196 75.2417 34.8469 75.1875C34.9015 75.0789 34.9093 74.9661 34.8705 74.8488C34.8317 74.7316 34.758 74.6458 34.6496 74.5912C34.541 74.5367 34.429 74.5293 34.3135 74.5689C34.1979 74.6084 34.113 74.6826 34.0584 74.7912C34.0312 74.8454 34.0158 74.9014 34.0123 74.9592C34.0087 75.0169 34.0158 75.0724 34.0335 75.1259C34.0513 75.1794 34.0782 75.2291 34.1147 75.2751C34.1511 75.321 34.1964 75.3574 34.2507 75.3848ZM36.9925 74.4179C36.8602 74.3514 36.7484 74.2632 36.657 74.1537C36.5655 74.044 36.4983 73.9242 36.4553 73.7942C36.4122 73.6642 36.3949 73.5271 36.4038 73.3828C36.4127 73.2386 36.4503 73.1004 36.5167 72.9681C36.5833 72.8359 36.6718 72.7231 36.7823 72.63C36.8927 72.5367 37.013 72.4688 37.143 72.4256C37.273 72.3828 37.4092 72.3652 37.5518 72.3732C37.6944 72.3811 37.8318 72.4182 37.9641 72.4848C38.0997 72.5528 38.2133 72.6419 38.3047 72.7516C38.3962 72.8612 38.4634 72.9811 38.5064 73.111C38.5495 73.241 38.5657 73.3776 38.5552 73.521C38.5447 73.6644 38.5062 73.8024 38.4398 73.9346C38.3733 74.0669 38.2856 74.18 38.1768 74.274C38.0679 74.3678 37.9486 74.4364 37.8186 74.4793C37.6886 74.5225 37.5524 74.5401 37.4098 74.5321C37.2672 74.5241 37.128 74.486 36.9925 74.4179ZM37.2789 73.8482C37.3874 73.9026 37.5001 73.9106 37.6174 73.8716C37.7346 73.8329 37.8206 73.7592 37.8751 73.6507C37.9296 73.5423 37.9375 73.4293 37.8987 73.3121C37.8598 73.195 37.7863 73.1091 37.6777 73.0546C37.5692 73 37.4572 72.9925 37.3416 73.0321C37.2262 73.0718 37.1411 73.1459 37.0866 73.2544C37.032 73.363 37.0233 73.4754 37.0604 73.5917C37.0974 73.7082 37.1703 73.7936 37.2789 73.8482ZM34.4071 72.3984L34.8586 72.0581L37.5162 76.0257L37.0495 76.3837L34.4071 72.3984ZM37.9432 56.3471C37.7576 56.2538 37.6146 56.1388 37.5145 56.0022C37.4143 55.8656 37.3492 55.719 37.319 55.5624C37.2888 55.406 37.289 55.2467 37.3193 55.0844C37.3496 54.922 37.4014 54.7681 37.4746 54.6223L37.872 53.8316L39.9923 54.8974L39.6071 55.6639C39.5318 55.8138 39.44 55.9527 39.3318 56.0809C39.2236 56.2091 39.1005 56.3098 38.9624 56.3829C38.8244 56.4561 38.6699 56.4935 38.499 56.4951C38.3281 56.4968 38.1429 56.4474 37.9432 56.3471ZM38.2111 55.814C38.331 55.8742 38.44 55.9046 38.5384 55.9053C38.6369 55.906 38.7258 55.8858 38.8055 55.8445C38.885 55.8031 38.9555 55.7461 39.0171 55.6732C39.0788 55.6005 39.1316 55.5202 39.1758 55.4322L39.3038 55.1776L38.0639 54.5545L37.9419 54.7971C37.8958 54.889 37.8618 54.9826 37.8402 55.078C37.8185 55.1733 37.8153 55.2656 37.8306 55.3545C37.8459 55.4434 37.8838 55.5275 37.944 55.6067C38.0043 55.6856 38.0934 55.7549 38.2111 55.814ZM36.7069 56.1496L38.8273 57.2153L38.1107 58.6409L37.6795 58.4241L38.1477 57.4926L37.7463 57.291L37.3038 58.1715L36.8935 57.9652L37.3361 57.0848L36.8958 56.8636L36.4005 57.8487L35.9634 57.629L36.7069 56.1496ZM36.4525 60.3131C36.3287 60.251 36.2359 60.1756 36.1741 60.087C36.1123 59.9985 36.0751 59.9022 36.0622 59.7983C36.0495 59.6943 36.0567 59.5853 36.084 59.4715C36.1111 59.3577 36.1523 59.2459 36.2076 59.1361L36.3355 58.8815L35.5359 58.4795L35.7932 57.9675L37.9136 59.0333L37.5223 59.8118C37.4641 59.9275 37.3982 60.0303 37.3245 60.1195C37.2508 60.2087 37.1698 60.2781 37.0812 60.3273C36.9927 60.3766 36.8962 60.4019 36.7917 60.4032C36.6874 60.4045 36.5743 60.3745 36.4525 60.3131ZM36.7069 59.7997C36.7568 59.8247 36.8027 59.8352 36.8447 59.8314C36.8865 59.8274 36.9252 59.813 36.9602 59.7882C36.9952 59.7633 37.0265 59.7309 37.0541 59.6909C37.0816 59.6511 37.107 59.6082 37.13 59.5621L37.243 59.3375L36.7429 59.0861L36.6345 59.3018C36.6104 59.3497 36.5913 59.3977 36.5772 59.4455C36.5631 59.4936 36.5573 59.54 36.5597 59.5849C36.5621 59.6299 36.5747 59.6707 36.5976 59.7072C36.6205 59.7438 36.657 59.7746 36.7069 59.7997ZM34.7882 62.6317C34.6205 62.5475 34.4818 62.4415 34.3722 62.3139C34.2625 62.1863 34.1842 62.046 34.1369 61.8936C34.0898 61.7412 34.0748 61.5805 34.0923 61.4116C34.1096 61.2428 34.1599 61.0755 34.2432 60.9097C34.3265 60.7441 34.4305 60.6044 34.5552 60.4907C34.6798 60.3771 34.8174 60.2937 34.9679 60.2405C35.1184 60.1873 35.2775 60.1667 35.4454 60.1784C35.6132 60.1903 35.7811 60.2385 35.9487 60.3227C36.1185 60.4081 36.2571 60.514 36.3649 60.6407C36.4725 60.7673 36.5484 60.906 36.5926 61.057C36.6367 61.2081 36.6494 61.367 36.6305 61.5338C36.6117 61.7007 36.5606 61.867 36.4774 62.0326C36.3939 62.1984 36.2908 62.3391 36.1677 62.4547C36.0445 62.5704 35.9091 62.6555 35.7616 62.7103C35.6142 62.7648 35.4574 62.7868 35.2916 62.7759C35.1258 62.7651 34.9579 62.7171 34.7882 62.6317ZM35.0637 62.0837C35.1555 62.1298 35.2489 62.1579 35.3438 62.1682C35.4388 62.1784 35.528 62.1714 35.6115 62.147C35.6949 62.1228 35.7719 62.0814 35.8425 62.023C35.9131 61.9648 35.971 61.8906 36.0161 61.8008C36.0613 61.7111 36.086 61.6209 36.0901 61.5304C36.0943 61.44 36.0815 61.3536 36.0517 61.2711C36.0219 61.1885 35.9743 61.1128 35.9089 61.0436C35.8437 60.9746 35.7651 60.9168 35.6733 60.8708C35.5775 60.8225 35.4816 60.7931 35.3857 60.7826C35.2898 60.7718 35.1995 60.7784 35.1151 60.8021C35.0306 60.826 34.9533 60.8666 34.8833 60.9238C34.8131 60.9812 34.7555 61.0547 34.7104 61.1446C34.6652 61.2345 34.6406 61.3246 34.6364 61.4149C34.6322 61.5055 34.6455 61.5922 34.6763 61.675C34.7071 61.7582 34.7554 61.835 34.8213 61.9055C34.8871 61.9761 34.9679 62.0354 35.0637 62.0837ZM34.5554 64.3415C34.6333 64.3258 34.7066 64.2907 34.7752 64.2363C34.8437 64.1821 34.8946 64.1218 34.9275 64.0561C34.9447 64.0221 34.959 63.9861 34.9706 63.9482C34.9822 63.9103 34.9865 63.873 34.9836 63.8365C34.9806 63.8001 34.9705 63.7656 34.9531 63.733C34.9355 63.7006 34.906 63.6737 34.864 63.6527C34.8281 63.6345 34.7944 63.627 34.763 63.6299C34.7314 63.6328 34.6994 63.6444 34.6669 63.6643C34.6344 63.6842 34.6006 63.7104 34.5655 63.7427C34.5305 63.7752 34.4925 63.8123 34.4514 63.8541C34.3913 63.914 34.3273 63.9755 34.2591 64.0389C34.1911 64.1021 34.117 64.1538 34.037 64.1936C33.9569 64.2333 33.8709 64.2564 33.7791 64.2628C33.6871 64.2691 33.5881 64.2455 33.4824 64.1924C33.3606 64.1312 33.2666 64.0558 33.2003 63.9662C33.134 63.8766 33.091 63.7795 33.0712 63.6745C33.0514 63.5695 33.0522 63.461 33.0734 63.3492C33.0945 63.2372 33.1313 63.1293 33.1835 63.0256C33.2598 62.8738 33.36 62.7403 33.4842 62.6252C33.6083 62.51 33.7429 62.4302 33.8879 62.3854L34.0607 62.8924C33.9707 62.9124 33.8829 62.9539 33.7973 63.017C33.7117 63.0805 33.648 63.154 33.6058 63.2377C33.5866 63.2758 33.5721 63.3147 33.562 63.3545C33.552 63.3946 33.5491 63.4327 33.5536 63.4686C33.558 63.5045 33.5712 63.5381 33.593 63.5691C33.615 63.6001 33.6469 63.6261 33.6889 63.6473C33.7287 63.6674 33.7678 63.6744 33.8057 63.6685C33.8437 63.6626 33.8835 63.6469 33.925 63.6215C33.9665 63.596 34.0105 63.5608 34.0571 63.5154C34.1037 63.47 34.1555 63.4179 34.2126 63.359C34.2687 63.3022 34.328 63.2488 34.3906 63.199C34.4531 63.1492 34.5207 63.1106 34.5932 63.0833C34.6656 63.0559 34.7432 63.0436 34.8256 63.0463C34.9081 63.049 34.9972 63.0744 35.093 63.1224C35.2108 63.1818 35.2995 63.2563 35.3594 63.3464C35.4191 63.4366 35.4564 63.5341 35.4712 63.639C35.4859 63.7438 35.4813 63.8515 35.457 63.962C35.4327 64.0724 35.3956 64.1775 35.3454 64.2773C35.2852 64.3971 35.2018 64.5083 35.0951 64.6109C34.9885 64.7136 34.8687 64.7905 34.7356 64.8411L34.5554 64.3415ZM32.6594 64.2028L34.7798 65.2684L34.5209 65.7836L32.4005 64.7177L32.6594 64.2028ZM33.4078 66.9084L31.7246 66.0624L31.9821 65.5504L33.6651 66.3963L33.9662 65.7972L34.4034 66.0171L33.544 67.7272L33.1067 67.5075L33.4078 66.9084ZM30.752 69.5352C30.6362 69.4768 30.5504 69.405 30.4947 69.3195C30.4389 69.2338 30.4059 69.1412 30.3963 69.0412C30.3865 68.9412 30.3955 68.8376 30.4232 68.7303C30.4509 68.6228 30.4904 68.5182 30.5416 68.4164L30.966 67.5719L33.0863 68.6376L32.6619 69.4821C32.6207 69.5641 32.5701 69.6436 32.51 69.7208C32.4498 69.7983 32.3818 69.8615 32.3057 69.9109C32.2297 69.9601 32.1456 69.9891 32.0537 69.998C31.9617 70.0068 31.8619 69.9841 31.7539 69.9299C31.6362 69.8707 31.555 69.7899 31.5102 69.6874C31.4655 69.5849 31.4522 69.4731 31.4704 69.3522L31.4645 69.3492C31.4244 69.4041 31.3776 69.4512 31.324 69.4906C31.2704 69.53 31.213 69.5586 31.1514 69.5765C31.0899 69.5942 31.0254 69.6006 30.958 69.5955C30.8906 69.5903 30.822 69.5703 30.752 69.5352ZM31.9335 69.4012C32.0054 69.4373 32.0716 69.4363 32.1322 69.3979C32.1927 69.3594 32.25 69.2865 32.3042 69.1786L32.4307 68.9271L31.9933 68.7074L31.855 68.9827C31.8068 69.0786 31.7889 69.1628 31.8012 69.2351C31.8135 69.3078 31.8577 69.363 31.9335 69.4012ZM31.0573 69.0472C31.1451 69.0913 31.2227 69.0889 31.2897 69.0402C31.3567 68.9912 31.4179 68.912 31.4731 68.8022L31.6161 68.5175L31.1309 68.2737L30.9864 68.5613C30.9664 68.6012 30.949 68.6443 30.9345 68.6909C30.9199 68.7372 30.9128 68.7825 30.9132 68.8265C30.9136 68.8703 30.9247 68.9117 30.9467 68.9502C30.9685 68.9886 31.0054 69.0211 31.0573 69.0472ZM29.9232 72.311C29.7556 72.2268 29.6169 72.1208 29.5073 71.9931C29.3976 71.8656 29.3192 71.7255 29.2721 71.5729C29.2249 71.4205 29.21 71.2598 29.2273 71.0908C29.2447 70.9221 29.295 70.7548 29.3783 70.589C29.4616 70.4234 29.5656 70.2837 29.6902 70.17C29.8148 70.0564 29.9524 69.9729 30.1029 69.9198C30.2535 69.8665 30.4125 69.846 30.5805 69.8577C30.7483 69.8696 30.9161 69.9178 31.0838 70.0021C31.2535 70.0872 31.3921 70.1934 31.4999 70.32C31.6076 70.4465 31.6835 70.5853 31.7276 70.7364C31.7718 70.8874 31.7844 71.0464 31.7656 71.213C31.7467 71.38 31.6957 71.5462 31.6124 71.712C31.5291 71.8777 31.4259 72.0184 31.3027 72.1341C31.1796 72.2497 31.0442 72.335 30.8967 72.3896C30.7492 72.4442 30.5925 72.4662 30.4267 72.4553C30.2608 72.4444 30.093 72.3964 29.9232 72.311ZM30.1988 71.763C30.2905 71.809 30.384 71.8373 30.4789 71.8475C30.5738 71.8577 30.663 71.8507 30.7465 71.8263C30.83 71.802 30.907 71.7607 30.9777 71.7023C31.0482 71.6441 31.106 71.57 31.1512 71.4802C31.1963 71.3903 31.221 71.3001 31.2253 71.2097C31.2294 71.1194 31.2166 71.0328 31.1868 70.9503C31.157 70.8679 31.1095 70.7921 31.0441 70.7229C30.9788 70.6539 30.9001 70.5962 30.8084 70.5501C30.7126 70.5019 30.6167 70.4724 30.5208 70.4617C30.4249 70.4511 30.3346 70.4576 30.2502 70.4814C30.1655 70.5053 30.0884 70.5459 30.0183 70.6031C29.9482 70.6605 29.8906 70.7341 29.8455 70.8238C29.8002 70.9137 29.7757 71.0039 29.7714 71.0943C29.7673 71.1847 29.7806 71.2714 29.8114 71.3545C29.8422 71.4374 29.8905 71.5143 29.9563 71.5849C30.0221 71.6555 30.103 71.7148 30.1988 71.763ZM28.0067 73.4597L29.8223 73.3032L29.8268 73.2942L28.4342 72.6092L28.684 72.1121L30.8044 73.1778L30.5109 73.7617L28.6997 73.9169L28.6952 73.9259L30.0849 74.6092L29.835 75.1063L27.7146 74.0408L28.0067 73.4597ZM27.3914 76.6768C27.2636 76.6125 27.1581 76.5327 27.0749 76.437C26.9917 76.3413 26.9326 76.2349 26.8979 76.1174C26.8631 75.9999 26.8532 75.8742 26.8679 75.7404C26.8827 75.6064 26.9248 75.4705 26.994 75.3329C27.0642 75.1931 27.1484 75.0779 27.2466 74.987C27.3447 74.8963 27.4507 74.8309 27.5648 74.7907C27.6788 74.7504 27.7987 74.7356 27.9245 74.7464C28.0505 74.7572 28.1773 74.7947 28.3051 74.8589L29.6258 75.5228L29.3699 76.0319L28.091 75.3891C28.0332 75.3599 27.9745 75.3398 27.9151 75.3288C27.8557 75.3177 27.7977 75.3173 27.7412 75.3277C27.6848 75.338 27.6317 75.3625 27.5822 75.4016C27.5326 75.4404 27.4898 75.4958 27.4537 75.5677C27.4176 75.6396 27.3987 75.7069 27.3971 75.7699C27.3954 75.8328 27.4071 75.8906 27.432 75.9431C27.4568 75.9956 27.4917 76.042 27.5366 76.0819C27.5814 76.1221 27.6328 76.1566 27.6907 76.1858L28.9696 76.8284L28.7121 77.3406L27.3914 76.6768ZM27.3904 78.597C27.4683 78.5812 27.5416 78.5459 27.6102 78.4918C27.6788 78.4374 27.7297 78.3774 27.7627 78.3114C27.7798 78.2775 27.7941 78.2416 27.8057 78.2037C27.8173 78.1656 27.8216 78.1285 27.8186 78.092C27.8157 78.0554 27.8056 78.0209 27.7882 77.9885C27.7707 77.956 27.7411 77.929 27.6991 77.908C27.6632 77.89 27.6295 77.8825 27.5979 77.8854C27.5665 77.8883 27.5345 77.8998 27.502 77.9196C27.4694 77.9396 27.4357 77.9658 27.4007 77.9981C27.3657 78.0305 27.3276 78.0677 27.2865 78.1096C27.2263 78.1693 27.1623 78.231 27.0942 78.2942C27.0262 78.3576 26.9521 78.4091 26.8721 78.449C26.792 78.4888 26.706 78.5118 26.614 78.5181C26.5221 78.5244 26.4233 78.501 26.3175 78.4478C26.1957 78.3866 26.1016 78.3112 26.0354 78.2217C25.9691 78.1321 25.9261 78.0347 25.9063 77.9298C25.8864 77.8248 25.8872 77.7164 25.9085 77.6045C25.9297 77.4926 25.9664 77.3848 26.0186 77.281C26.0949 77.1293 26.1951 76.9958 26.3193 76.8807C26.4433 76.7655 26.578 76.6855 26.723 76.641L26.8958 77.1479C26.8058 77.1678 26.7181 77.2093 26.6325 77.2725C26.5468 77.3359 26.483 77.4094 26.4409 77.4932C26.4218 77.5312 26.4072 77.57 26.3972 77.6101C26.3871 77.65 26.3842 77.6879 26.3887 77.724C26.393 77.76 26.4063 77.7933 26.4282 77.8245C26.4501 77.8556 26.482 77.8816 26.524 77.9026C26.5639 77.9227 26.6028 77.9297 26.6408 77.9237C26.6788 77.9178 26.7186 77.9021 26.7601 77.8769C26.8016 77.8515 26.8456 77.816 26.8922 77.7708C26.9388 77.7254 26.9905 77.6732 27.0477 77.6144C27.1037 77.5575 27.1631 77.5042 27.2256 77.4544C27.2882 77.4045 27.3557 77.366 27.4283 77.3386C27.5008 77.3112 27.5783 77.2989 27.6607 77.3016C27.7431 77.3043 27.8323 77.3298 27.9281 77.3779C28.0459 77.437 28.1346 77.5117 28.1945 77.6018C28.2543 77.6918 28.2914 77.7893 28.3062 77.8943C28.321 77.9993 28.3163 78.107 28.2921 78.2174C28.2678 78.3277 28.2307 78.4329 28.1805 78.5326C28.1203 78.6524 28.0369 78.7637 27.9302 78.8664C27.8235 78.9691 27.7038 79.0459 27.5708 79.0966L27.3904 78.597Z" fill="white"/>
<path d="M49.707 60.631L51.4831 58.0955L51.4763 58.08L49.0655 59.1467L48.6906 58.2791L52.3907 56.6799L52.8313 57.699L51.0581 60.2269L51.0649 60.2426L53.4705 59.1781L53.8454 60.0455L50.1453 61.6448L49.707 60.631ZM54.0079 65.4585C53.7152 65.585 53.4261 65.6501 53.1402 65.6538C52.8543 65.6574 52.5864 65.6068 52.3364 65.5019C52.0864 65.397 51.8609 65.2412 51.6598 65.0344C51.4589 64.8277 51.2958 64.5797 51.1708 64.2905C51.0458 64.0013 50.9773 63.7135 50.9653 63.4273C50.9532 63.141 50.9946 62.8708 51.0895 62.6168C51.1844 62.3629 51.3312 62.133 51.5296 61.9274C51.7282 61.7217 51.9738 61.5555 52.2662 61.429C52.5626 61.301 52.8517 61.236 53.1341 61.2339C53.4165 61.2318 53.6801 61.2842 53.9249 61.3914C54.1697 61.4986 54.3904 61.6553 54.5871 61.8619C54.784 62.0684 54.9447 62.3163 55.0697 62.6054C55.1947 62.8945 55.2655 63.1825 55.2818 63.4689C55.298 63.7555 55.2615 64.0247 55.1718 64.2764C55.082 64.5281 54.9397 64.7561 54.7448 64.9602C54.5497 65.1645 54.3042 65.3305 54.0079 65.4585ZM53.5945 64.5022C53.7548 64.4329 53.8935 64.3419 54.0102 64.2294C54.1269 64.1169 54.2149 63.9931 54.2744 63.8578C54.3338 63.7225 54.364 63.5772 54.365 63.4218C54.3661 63.2661 54.3326 63.11 54.2649 62.9532C54.1971 62.7965 54.1066 62.666 53.9934 62.562C53.8802 62.4579 53.7536 62.3802 53.6136 62.3292C53.4736 62.2779 53.3231 62.2572 53.162 62.2669C53.0007 62.2766 52.84 62.3162 52.6798 62.3854C52.5124 62.4578 52.3695 62.5506 52.251 62.6638C52.1325 62.777 52.0427 62.9016 51.9816 63.0376C51.9204 63.1737 51.8889 63.3185 51.8872 63.4723C51.8854 63.626 51.9184 63.7814 51.9862 63.9382C52.054 64.0949 52.1444 64.2253 52.2576 64.3294C52.3709 64.4336 52.4983 64.5108 52.64 64.5612C52.7817 64.6115 52.9345 64.6324 53.0981 64.6237C53.2618 64.615 53.4274 64.5744 53.5945 64.5022ZM54.6293 72.0193L54.2474 71.1361L56.4346 69.3224L56.4278 69.3067L53.6081 69.657L53.2241 68.7684L56.4705 66.1187L56.886 67.0804L54.6774 68.7295L54.6842 68.7452L57.4304 68.3399L57.8326 69.2702L55.6578 70.9979L55.6645 71.0136L58.3836 70.5454L58.7859 71.4757L54.6293 72.0193ZM55.2505 73.4566L58.9508 71.8573L59.3391 72.7562L55.639 74.3554L55.2505 73.4566ZM56.9853 77.4705L58.7613 74.935L58.7545 74.9193L56.3438 75.9861L55.9688 75.1185L59.6691 73.5192L60.1095 74.5384L58.3365 77.0662L58.3433 77.0819L60.7488 76.0175L61.1238 76.885L57.4235 78.4843L56.9853 77.4705Z" fill="#333333"/>
<path d="M29.0075 49.5931L31.5429 51.369L31.5585 51.3622L30.4917 48.9515L31.3592 48.5765L32.9585 52.2768L31.9395 52.7172L29.4115 50.9442L29.3958 50.951L30.4604 53.3565L29.5929 53.7314L27.9936 50.0312L29.0075 49.5931ZM24.1799 53.894C24.0533 53.6012 23.9883 53.3121 23.9847 53.0263C23.9811 52.7403 24.0316 52.4723 24.1365 52.2223C24.2415 51.9723 24.3972 51.7468 24.6041 51.5459C24.8107 51.3449 25.0587 51.1819 25.3479 51.0569C25.637 50.9319 25.9249 50.8633 26.211 50.8513C26.4973 50.8392 26.7676 50.8805 27.0215 50.9755C27.2755 51.0705 27.5054 51.2172 27.711 51.4156C27.9167 51.6141 28.0828 51.8597 28.2093 52.1523C28.3374 52.4486 28.4024 52.7377 28.4045 53.0202C28.4066 53.3025 28.3542 53.566 28.247 53.8108C28.1399 54.0556 27.9831 54.2764 27.7766 54.4732C27.57 54.6699 27.3221 54.8307 27.0331 54.9558C26.7438 55.0808 26.4559 55.1514 26.1695 55.1677C25.8828 55.184 25.6137 55.1474 25.362 55.0577C25.1103 54.9681 24.8823 54.8257 24.6782 54.6308C24.474 54.4356 24.3079 54.19 24.1799 53.894ZM25.1362 53.4805C25.2056 53.6409 25.2964 53.7795 25.4089 53.8962C25.5214 54.013 25.6452 54.101 25.7806 54.1604C25.9159 54.2198 26.0612 54.2501 26.2166 54.2511C26.3722 54.2522 26.5284 54.2186 26.6852 54.1509C26.8419 54.0831 26.9724 53.9927 27.0764 53.8795C27.1805 53.7663 27.2582 53.6397 27.3092 53.4997C27.3605 53.3596 27.3812 53.209 27.3715 53.048C27.3617 52.8868 27.3222 52.7259 27.2529 52.5658C27.1806 52.3985 27.0878 52.2555 26.9746 52.137C26.8613 52.0185 26.7367 51.9288 26.6007 51.8675C26.4647 51.8065 26.32 51.7749 26.1661 51.7732C26.0123 51.7714 25.857 51.8045 25.7003 51.8721C25.5435 51.94 25.413 52.0305 25.309 52.1436C25.2049 52.2569 25.1276 52.3843 25.0773 52.5261C25.0268 52.6678 25.006 52.8205 25.0146 52.9841C25.0234 53.1479 25.064 53.3133 25.1362 53.4805ZM17.6192 54.5153L18.5023 54.1335L20.3161 56.3207L20.3317 56.3139L19.9814 53.4942L20.8699 53.1101L23.5197 56.3565L22.558 56.772L20.9089 54.5633L20.8932 54.5701L21.2986 57.3165L20.3682 57.7185L18.6405 55.5437L18.6248 55.5505L19.0931 58.2697L18.1627 58.6719L17.6192 54.5153ZM16.1818 55.1365L17.7811 58.8367L16.8823 59.2251L15.283 55.5249L16.1818 55.1365ZM12.1679 56.8712L14.7035 58.6474L14.719 58.6406L13.6523 56.2298L14.5198 55.8548L16.1192 59.555L15.1 59.9956L12.5722 58.2224L12.5564 58.2292L13.6209 60.6348L12.7534 61.0098L11.1541 57.3096L12.1679 56.8712Z" fill="#333333"/>
<path d="M40.0453 28.8934L38.2694 31.4289L38.2762 31.4444L40.6869 30.3777L41.0619 31.2453L37.3616 32.8446L36.9212 31.8254L38.6941 29.2976L38.6874 29.2818L36.2818 30.3463L35.9069 29.4788L39.6072 27.8796L40.0453 28.8934ZM35.7444 24.0659C36.0371 23.9394 36.3264 23.8742 36.6121 23.8706C36.8981 23.867 37.166 23.9177 37.4161 24.0225C37.6661 24.1274 37.8916 24.2833 38.0925 24.49C38.2936 24.6967 38.4565 24.9447 38.5815 25.2339C38.7064 25.523 38.7751 25.8108 38.7872 26.097C38.7992 26.3834 38.7579 26.6535 38.663 26.9074C38.5679 27.1614 38.4213 27.3914 38.2227 27.5971C38.0243 27.8027 37.7787 27.9689 37.486 28.0954C37.1899 28.2234 36.9007 28.2884 36.6182 28.2905C36.336 28.2926 36.0724 28.2402 35.8276 28.1329C35.5828 28.0258 35.3621 27.869 35.1652 27.6625C34.9685 27.4561 34.8076 27.2082 34.6826 26.919C34.5576 26.6299 34.487 26.3419 34.4707 26.0554C34.4544 25.7689 34.491 25.4998 34.5807 25.248C34.6703 24.9963 34.8126 24.7684 35.0076 24.5642C35.2027 24.3599 35.4483 24.1939 35.7444 24.0659ZM36.1578 25.0223C35.9974 25.0915 35.8589 25.1824 35.7422 25.2949C35.6254 25.4075 35.5373 25.5313 35.4781 25.6666C35.4185 25.8019 35.3883 25.9471 35.3873 26.1026C35.3862 26.2583 35.4197 26.4144 35.4875 26.5711C35.5553 26.728 35.6457 26.8585 35.7589 26.9625C35.8721 27.0665 35.9987 27.1442 36.1387 27.1952C36.2787 27.2465 36.4293 27.2672 36.5905 27.2575C36.7516 27.2477 36.9125 27.2083 37.0727 27.1389C37.2398 27.0666 37.3828 26.9739 37.5013 26.8607C37.6198 26.7474 37.7096 26.6227 37.7709 26.4868C37.8319 26.3508 37.8634 26.2058 37.8651 26.052C37.8669 25.8984 37.8339 25.7431 37.7663 25.5862C37.6984 25.4295 37.6079 25.299 37.4947 25.1949C37.3814 25.0908 37.254 25.0137 37.1123 24.9632C36.9706 24.9129 36.818 24.8921 36.6543 24.9007C36.4905 24.9095 36.3251 24.9499 36.1578 25.0223ZM35.1232 17.5051L35.5049 18.3883L33.3177 20.202L33.3245 20.2177L36.1442 19.8674L36.5283 20.756L33.282 23.4057L32.8664 22.4441L35.075 20.7948L35.0683 20.7792L32.3219 21.1845L31.9199 20.2543L34.0946 18.5266L34.0879 18.5108L31.3687 18.979L30.9666 18.0488L35.1232 17.5051ZM34.502 16.0678L30.8017 17.6671L30.4131 16.7682L34.1135 15.1689L34.502 16.0678ZM32.7672 12.054L30.991 14.5894L30.9978 14.605L33.4087 13.5384L33.7836 14.4059L30.0834 16.0052L29.6428 14.9861L31.416 12.4582L31.4092 12.4425L29.0037 13.5069L28.6287 12.6394L32.3288 11.04L32.7672 12.054Z" fill="#333333"/>
<defs>
<linearGradient id="paint0_linear_2_6" x1="44.8762" y1="12.8552" x2="44.8762" y2="76.669" gradientUnits="userSpaceOnUse">
<stop stop-color="#FFCD2C"/>
<stop offset="1" stop-color="#FFB61C"/>
</linearGradient>
<linearGradient id="paint1_linear_2_6" x1="44.8762" y1="12.8552" x2="44.8762" y2="76.669" gradientUnits="userSpaceOnUse">
<stop stop-color="#FFCD2C"/>
<stop offset="1" stop-color="#FFB61C"/>
</linearGradient>
<radialGradient id="paint2_radial_2_6" cx="0" cy="0" r="1" gradientUnits="userSpaceOnUse" gradientTransform="translate(44.8762 44.7621) scale(36.7778)">
<stop stop-color="#CCCCCC"/>
<stop offset="0.301961" stop-color="white"/>
<stop offset="0.690196" stop-color="white"/>
<stop offset="1" stop-color="#CCCCCC"/>
</radialGradient>
<radialGradient id="paint3_radial_2_6" cx="0" cy="0" r="1" gradientUnits="userSpaceOnUse" gradientTransform="translate(44.8762 44.7621) scale(34.2119)">
<stop stop-color="#CC5F00"/>
<stop offset="0.309804" stop-color="#FD7800"/>
<stop offset="0.701961" stop-color="#FD7800"/>
<stop offset="1" stop-color="#CC5F00"/>
</radialGradient>
<radialGradient id="paint4_radial_2_6" cx="0" cy="0" r="1" gradientUnits="userSpaceOnUse" gradientTransform="translate(44.8762 44.7623) scale(35.9225 25.3883)">
<stop stop-color="#FFFF00"/>
<stop offset="0.831373" stop-color="#F4D12F"/>
<stop offset="1" stop-color="#F79400"/>
</radialGradient>
</defs>
</svg>
