<svg width="88" height="88" viewBox="0 0 88 88" fill="none" xmlns="http://www.w3.org/2000/svg">
<path fill-rule="evenodd" clip-rule="evenodd" d="M74.5504 13.1114C74.9112 13.4722 74.9112 14.0571 74.5504 14.4178C74.1897 14.7786 73.6047 14.7786 73.244 14.4178C72.8832 14.0571 72.8832 13.4722 73.244 13.1114C73.6047 12.7506 74.1897 12.7507 74.5504 13.1114Z" fill="#DD9600"/>
<path fill-rule="evenodd" clip-rule="evenodd" d="M74.3087 13.2723C74.6602 13.6239 74.6602 14.1938 74.3087 14.5454C73.9571 14.897 73.3871 14.8969 73.0356 14.5454C72.6839 14.1938 72.6839 13.6239 73.0356 13.2723C73.3871 12.9208 73.9571 12.9208 74.3087 13.2723Z" fill="#FFFC61"/>
<path fill-rule="evenodd" clip-rule="evenodd" d="M73.9525 13.4357C74.117 13.6002 74.1171 13.867 73.9526 14.0315C73.7881 14.1959 73.5213 14.1959 73.3569 14.0315C73.1924 13.867 73.1923 13.6002 73.3569 13.4357C73.5213 13.2713 73.7881 13.2713 73.9525 13.4357Z" fill="white"/>
<path fill-rule="evenodd" clip-rule="evenodd" d="M81.4381 22.0949C81.6932 22.5367 81.5419 23.1017 81.1001 23.3568C80.6582 23.6119 80.0932 23.4606 79.8381 23.0186C79.583 22.5769 79.7344 22.0118 80.1762 21.7567C80.6181 21.5017 81.1831 21.653 81.4381 22.0949Z" fill="#DD9600"/>
<path fill-rule="evenodd" clip-rule="evenodd" d="M81.163 22.1878C81.4116 22.6182 81.2641 23.1689 80.8335 23.4175C80.4029 23.6661 79.8524 23.5186 79.6038 23.088C79.3552 22.6573 79.5027 22.1069 79.9333 21.8582C80.3638 21.6097 80.9145 21.7571 81.163 22.1878Z" fill="#FFFC61"/>
<path fill-rule="evenodd" clip-rule="evenodd" d="M80.7768 22.2534C80.8931 22.4549 80.824 22.7126 80.6226 22.8289C80.4212 22.9452 80.1636 22.876 80.0473 22.6747C79.931 22.4732 79.9998 22.2156 80.2013 22.0993C80.4029 21.983 80.6605 22.052 80.7768 22.2534Z" fill="white"/>
<path fill-rule="evenodd" clip-rule="evenodd" d="M85.7661 32.5548C85.8983 33.0477 85.6057 33.5544 85.1129 33.6864C84.6201 33.8185 84.1136 33.5259 83.9815 33.033C83.8495 32.5403 84.1419 32.0337 84.6347 31.9016C85.1275 31.7696 85.6341 32.0621 85.7661 32.5548Z" fill="#DD9600"/>
<path fill-rule="evenodd" clip-rule="evenodd" d="M85.4764 32.5734C85.605 33.0536 85.32 33.5473 84.8398 33.676C84.3595 33.8047 83.8659 33.5195 83.7372 33.0393C83.6086 32.5591 83.8935 32.0654 84.3738 31.9367C84.854 31.8081 85.3477 32.0932 85.4764 32.5734Z" fill="#FFFC61"/>
<path fill-rule="evenodd" clip-rule="evenodd" d="M85.0862 32.5368C85.1464 32.7615 85.0131 32.9925 84.7884 33.0528C84.5637 33.113 84.3327 32.9796 84.2725 32.7548C84.2123 32.5302 84.3456 32.2992 84.5704 32.239C84.7951 32.1787 85.026 32.3121 85.0862 32.5368Z" fill="white"/>
<path fill-rule="evenodd" clip-rule="evenodd" d="M87.2394 43.7786C87.2394 44.2888 86.8258 44.7026 86.3156 44.7026C85.8054 44.7026 85.3918 44.2888 85.3918 43.7786C85.3918 43.2686 85.8054 42.8549 86.3156 42.8549C86.8258 42.8549 87.2394 43.2686 87.2394 43.7786Z" fill="#DD9600"/>
<path fill-rule="evenodd" clip-rule="evenodd" d="M86.9547 43.7216C86.9547 44.2187 86.5516 44.6217 86.0545 44.6217C85.5572 44.6217 85.1542 44.2187 85.1542 43.7216C85.1542 43.2244 85.5572 42.8212 86.0545 42.8212C86.5516 42.8212 86.9547 43.2244 86.9547 43.7216Z" fill="#FFFC61"/>
<path fill-rule="evenodd" clip-rule="evenodd" d="M86.5873 43.5853C86.5873 43.8179 86.3987 44.0065 86.1661 44.0065C85.9334 44.0065 85.7449 43.8179 85.7449 43.5853C85.7449 43.3527 85.9334 43.164 86.1661 43.164C86.3987 43.164 86.5873 43.3527 86.5873 43.5853Z" fill="white"/>
<path fill-rule="evenodd" clip-rule="evenodd" d="M85.7574 55.0014C85.6253 55.4942 85.1189 55.7866 84.6261 55.6545C84.1332 55.5225 83.8408 55.0159 83.9729 54.5231C84.1049 54.0304 84.6114 53.7379 85.1043 53.87C85.5971 54.002 85.8894 54.5086 85.7574 55.0014Z" fill="#DD9600"/>
<path fill-rule="evenodd" clip-rule="evenodd" d="M85.4973 54.8725C85.3686 55.3527 84.875 55.6376 84.3947 55.509C83.9145 55.3803 83.6295 54.8867 83.7582 54.4065C83.8869 53.9261 84.3805 53.6412 84.8607 53.7699C85.341 53.8986 85.626 54.3922 85.4973 54.8725Z" fill="#FFFC61"/>
<path fill-rule="evenodd" clip-rule="evenodd" d="M85.1777 54.6458C85.1175 54.8704 84.8865 55.0038 84.6617 54.9436C84.4371 54.8834 84.3036 54.6524 84.364 54.4276C84.4241 54.203 84.6551 54.0695 84.8799 54.1299C85.1045 54.19 85.2379 54.421 85.1777 54.6458Z" fill="white"/>
<path fill-rule="evenodd" clip-rule="evenodd" d="M81.4215 65.458C81.1664 65.8998 80.6014 66.0512 80.1596 65.7961C79.7177 65.541 79.5663 64.9761 79.8214 64.5343C80.0765 64.0924 80.6416 63.9409 81.0833 64.196C81.5252 64.4511 81.6765 65.0162 81.4215 65.458Z" fill="#DD9600"/>
<path fill-rule="evenodd" clip-rule="evenodd" d="M81.2035 65.2662C80.9549 65.6968 80.4043 65.8443 79.9738 65.5957C79.5432 65.3471 79.3957 64.7964 79.6442 64.366C79.8927 63.9353 80.4434 63.7878 80.8739 64.0365C81.3046 64.285 81.4521 64.8356 81.2035 65.2662Z" fill="#FFFC61"/>
<path fill-rule="evenodd" clip-rule="evenodd" d="M80.9534 64.9645C80.837 65.1658 80.5795 65.235 80.378 65.1187C80.1766 65.0024 80.1075 64.7447 80.2239 64.5433C80.3402 64.3417 80.5977 64.2728 80.7993 64.3891C81.0007 64.5054 81.0697 64.7631 80.9534 64.9645Z" fill="white"/>
<path fill-rule="evenodd" clip-rule="evenodd" d="M74.5269 74.4362C74.1661 74.797 73.5812 74.797 73.2203 74.4362C72.8596 74.0755 72.8596 73.4904 73.2204 73.1297C73.5812 72.7689 74.1661 72.7689 74.5269 73.1297C74.8876 73.4904 74.8875 74.0755 74.5269 74.4362Z" fill="#DD9600"/>
<path fill-rule="evenodd" clip-rule="evenodd" d="M74.3659 74.1945C74.0144 74.546 73.4444 74.546 73.0928 74.1945C72.7412 73.8428 72.7413 73.2729 73.0928 72.9213C73.4444 72.5698 74.0143 72.5698 74.3659 72.9213C74.7175 73.2729 74.7175 73.8428 74.3659 74.1945Z" fill="#FFFC61"/>
<path fill-rule="evenodd" clip-rule="evenodd" d="M74.2025 73.8382C74.0381 74.0027 73.7713 74.0028 73.6068 73.8383C73.4423 73.6738 73.4423 73.4071 73.6068 73.2426C73.7713 73.0782 74.0381 73.0781 74.2025 73.2426C74.367 73.4071 74.3669 73.6738 74.2025 73.8382Z" fill="white"/>
<path fill-rule="evenodd" clip-rule="evenodd" d="M65.5434 81.3238C65.1014 81.5789 64.5365 81.4277 64.2814 80.9858C64.0263 80.544 64.1777 79.9789 64.6195 79.7238C65.0613 79.4688 65.6264 79.6201 65.8815 80.062C66.1366 80.5039 65.9852 81.0688 65.5434 81.3238Z" fill="#DD9600"/>
<path fill-rule="evenodd" clip-rule="evenodd" d="M65.4504 81.0487C65.02 81.2973 64.4693 81.1499 64.2207 80.7192C63.9721 80.2887 64.1196 79.7381 64.5503 79.4895C64.9807 79.2409 65.5314 79.3885 65.78 79.8191C66.0286 80.2496 65.8811 80.8003 65.4504 81.0487Z" fill="#FFFC61"/>
<path fill-rule="evenodd" clip-rule="evenodd" d="M65.3848 80.6625C65.1833 80.7788 64.9256 80.7097 64.8093 80.5084C64.693 80.3069 64.7622 80.0493 64.9635 79.933C65.1649 79.8166 65.4226 79.8856 65.5389 80.087C65.6552 80.2886 65.5861 80.5462 65.3848 80.6625Z" fill="white"/>
<path fill-rule="evenodd" clip-rule="evenodd" d="M55.0833 85.6519C54.5905 85.784 54.0839 85.4914 53.9519 84.9986C53.8198 84.5058 54.1124 83.9993 54.6052 83.8672C55.0979 83.7353 55.6045 84.0276 55.7365 84.5205C55.8686 85.0133 55.5761 85.5199 55.0833 85.6519Z" fill="#DD9600"/>
<path fill-rule="evenodd" clip-rule="evenodd" d="M55.0649 85.3621C54.5847 85.4907 54.091 85.2058 53.9623 84.7256C53.8336 84.2453 54.1188 83.7517 54.599 83.623C55.0791 83.4943 55.5727 83.7792 55.7015 84.2595C55.8302 84.7397 55.5451 85.2334 55.0649 85.3621Z" fill="#FFFC61"/>
<path fill-rule="evenodd" clip-rule="evenodd" d="M55.1015 84.9719C54.8767 85.0322 54.6457 84.8989 54.5855 84.6742C54.5253 84.4494 54.6587 84.2185 54.8833 84.1583C55.108 84.0981 55.3391 84.2313 55.3993 84.4561C55.4596 84.6808 55.3261 84.9118 55.1015 84.9719Z" fill="white"/>
<path fill-rule="evenodd" clip-rule="evenodd" d="M43.8929 0.398811C44.4031 0.398811 44.8167 0.812473 44.8167 1.32266C44.8167 1.83284 44.4031 2.2465 43.8929 2.2465C43.3828 2.2465 42.9691 1.83284 42.9691 1.32266C42.9691 0.812473 43.3828 0.398811 43.8929 0.398811Z" fill="#DD9600"/>
<path fill-rule="evenodd" clip-rule="evenodd" d="M43.8357 0.683578C44.3329 0.683578 44.736 1.08665 44.736 1.58374C44.736 2.08104 44.3329 2.48401 43.8357 2.48401C43.3386 2.48401 42.9355 2.08104 42.9355 1.58374C42.9355 1.08665 43.3386 0.683578 43.8357 0.683578Z" fill="#FFFC61"/>
<path fill-rule="evenodd" clip-rule="evenodd" d="M43.6995 1.05097C43.9321 1.05097 44.1208 1.23952 44.1208 1.47213C44.1208 1.70484 43.9321 1.89338 43.6995 1.89338C43.4669 1.89338 43.2783 1.70484 43.2783 1.47213C43.2783 1.23952 43.4669 1.05097 43.6995 1.05097Z" fill="white"/>
<path fill-rule="evenodd" clip-rule="evenodd" d="M55.1156 1.8808C55.6084 2.01289 55.9008 2.51938 55.7688 3.01217C55.6368 3.50497 55.1302 3.79743 54.6374 3.66534C54.1446 3.53335 53.852 3.02676 53.9841 2.53397C54.1162 2.04117 54.6228 1.74871 55.1156 1.8808Z" fill="#DD9600"/>
<path fill-rule="evenodd" clip-rule="evenodd" d="M54.9867 2.14098C55.4669 2.26958 55.7519 2.76327 55.6232 3.24348C55.4945 3.72379 55.0009 4.00876 54.5207 3.88006C54.0404 3.75137 53.7554 3.25777 53.8841 2.77746C54.0128 2.29726 54.5064 2.01229 54.9867 2.14098Z" fill="#FFFC61"/>
<path fill-rule="evenodd" clip-rule="evenodd" d="M54.76 2.46052C54.9846 2.52077 55.118 2.75178 55.0578 2.9764C54.9976 3.20111 54.7666 3.33441 54.5419 3.27425C54.3172 3.214 54.1839 2.98319 54.2442 2.75838C54.3043 2.53366 54.5353 2.40037 54.76 2.46052Z" fill="white"/>
<path fill-rule="evenodd" clip-rule="evenodd" d="M65.5722 6.21675C66.0141 6.47184 66.1655 7.03688 65.9104 7.47872C65.6553 7.92056 65.0903 8.07193 64.6485 7.81684C64.2067 7.56175 64.0552 6.99671 64.3103 6.55487C64.5654 6.11304 65.1305 5.96166 65.5722 6.21675Z" fill="#DD9600"/>
<path fill-rule="evenodd" clip-rule="evenodd" d="M65.3804 6.43477C65.811 6.68327 65.9584 7.23392 65.7099 7.66446C65.4613 8.09501 64.9107 8.24259 64.4802 7.99399C64.0496 7.7454 63.902 7.19485 64.1507 6.7642C64.3992 6.33365 64.9499 6.18617 65.3804 6.43477Z" fill="#FFFC61"/>
<path fill-rule="evenodd" clip-rule="evenodd" d="M65.0787 6.68486C65.2801 6.80117 65.3491 7.05876 65.2328 7.26019C65.1166 7.46163 64.8588 7.53067 64.6575 7.41437C64.4561 7.29806 64.387 7.04047 64.5033 6.83894C64.6195 6.6374 64.8773 6.56846 65.0787 6.68486Z" fill="white"/>
<path fill-rule="evenodd" clip-rule="evenodd" d="M43.8596 87.1252C43.3493 87.1252 42.9357 86.7115 42.9357 86.2013C42.9357 85.6912 43.3493 85.2776 43.8596 85.2776C44.3697 85.2776 44.7833 85.6912 44.7833 86.2013C44.7833 86.7115 44.3697 87.1252 43.8596 87.1252Z" fill="#DD9600"/>
<path fill-rule="evenodd" clip-rule="evenodd" d="M43.9166 86.8404C43.4195 86.8404 43.0165 86.4374 43.0165 85.9403C43.0165 85.443 43.4195 85.04 43.9166 85.04C44.4138 85.04 44.8169 85.443 44.8169 85.9403C44.8169 86.4374 44.4138 86.8404 43.9166 86.8404Z" fill="#FFFC61"/>
<path fill-rule="evenodd" clip-rule="evenodd" d="M44.053 86.473C43.8204 86.473 43.6317 86.2845 43.6317 86.0519C43.6317 85.8191 43.8204 85.6306 44.053 85.6306C44.2856 85.6306 44.4742 85.8191 44.4742 86.0519C44.4742 86.2845 44.2856 86.473 44.053 86.473Z" fill="white"/>
<path fill-rule="evenodd" clip-rule="evenodd" d="M32.6369 85.6433C32.1441 85.5112 31.8515 85.0046 31.9837 84.5118C32.1157 84.0189 32.6223 83.7266 33.1151 83.8587C33.6079 83.9906 33.9004 84.4971 33.7683 84.99C33.6363 85.4828 33.1297 85.7753 32.6369 85.6433Z" fill="#DD9600"/>
<path fill-rule="evenodd" clip-rule="evenodd" d="M32.7658 85.3831C32.2856 85.2544 32.0006 84.7607 32.1293 84.2805C32.2579 83.8003 32.7516 83.5152 33.2318 83.6439C33.712 83.7726 33.9971 84.2662 33.8684 84.7464C33.7397 85.2267 33.246 85.5118 32.7658 85.3831Z" fill="#FFFC61"/>
<path fill-rule="evenodd" clip-rule="evenodd" d="M32.9925 85.0635C32.7678 85.0032 32.6344 84.7723 32.6945 84.5476C32.7549 84.3229 32.9859 84.1895 33.2106 84.2496C33.4351 84.31 33.5685 84.5409 33.5084 84.7657C33.4481 84.9902 33.2172 85.1236 32.9925 85.0635Z" fill="white"/>
<path fill-rule="evenodd" clip-rule="evenodd" d="M22.1801 81.3072C21.7384 81.0522 21.5869 80.4872 21.8421 80.0453C22.0972 79.6034 22.6621 79.4521 23.104 79.7072C23.5457 79.9622 23.6973 80.5273 23.4422 80.969C23.187 81.411 22.622 81.5622 22.1801 81.3072Z" fill="#DD9600"/>
<path fill-rule="evenodd" clip-rule="evenodd" d="M22.3721 81.0892C21.9414 80.8406 21.7939 80.2901 22.0425 79.8595C22.2911 79.429 22.8418 79.2815 23.2722 79.5301C23.7029 79.7786 23.8503 80.3291 23.6017 80.7598C23.3533 81.1903 22.8025 81.3378 22.3721 81.0892Z" fill="#FFFC61"/>
<path fill-rule="evenodd" clip-rule="evenodd" d="M22.6737 80.8391C22.4723 80.7228 22.4033 80.4652 22.5196 80.2639C22.6359 80.0624 22.8935 79.9933 23.095 80.1096C23.2963 80.2259 23.3655 80.4835 23.2492 80.685C23.1329 80.8865 22.8752 80.9554 22.6737 80.8391Z" fill="white"/>
<path fill-rule="evenodd" clip-rule="evenodd" d="M13.2021 74.4126C12.8413 74.0518 12.8413 73.4668 13.2021 73.106C13.5628 72.7453 14.1477 72.7453 14.5085 73.1061C14.8692 73.4668 14.8693 74.0518 14.5085 74.4126C14.1477 74.7734 13.5628 74.7733 13.2021 74.4126Z" fill="#DD9600"/>
<path fill-rule="evenodd" clip-rule="evenodd" d="M13.4437 74.2517C13.0922 73.9002 13.0922 73.3301 13.4437 72.9785C13.7954 72.6269 14.3653 72.627 14.7168 72.9785C15.0684 73.3301 15.0684 73.9001 14.7168 74.2517C14.3653 74.6032 13.7953 74.6032 13.4437 74.2517Z" fill="#FFFC61"/>
<path fill-rule="evenodd" clip-rule="evenodd" d="M13.8 74.0882C13.6354 73.9238 13.6353 73.6571 13.7999 73.4925C13.9644 73.3281 14.2311 73.3281 14.3956 73.4925C14.5601 73.6571 14.5602 73.9238 14.3956 74.0882C14.2311 74.2528 13.9644 74.2527 13.8 74.0882Z" fill="white"/>
<path fill-rule="evenodd" clip-rule="evenodd" d="M6.31433 65.4291C6.05914 64.9873 6.21062 64.4222 6.65236 64.1672C7.0943 63.9121 7.65933 64.0634 7.91443 64.5054C8.16942 64.9471 8.01804 65.5122 7.5763 65.7672C7.13436 66.0223 6.56942 65.8709 6.31433 65.4291Z" fill="#DD9600"/>
<path fill-rule="evenodd" clip-rule="evenodd" d="M6.58939 65.3363C6.3409 64.9058 6.48838 64.3552 6.91892 64.1066C7.34957 63.8579 7.90012 64.0055 8.14872 64.436C8.39732 64.8666 8.24974 65.4171 7.81919 65.6657C7.38854 65.9143 6.83799 65.7669 6.58939 65.3363Z" fill="#FFFC61"/>
<path fill-rule="evenodd" clip-rule="evenodd" d="M6.97581 65.2706C6.8595 65.0691 6.92855 64.8114 7.12988 64.6951C7.33142 64.5788 7.58901 64.6479 7.70531 64.8494C7.82162 65.0507 7.75267 65.3084 7.55114 65.4247C7.3497 65.541 7.09211 65.472 6.97581 65.2706Z" fill="white"/>
<path fill-rule="evenodd" clip-rule="evenodd" d="M1.98638 54.9691C1.85429 54.4763 2.14665 53.9697 2.63955 53.8377C3.13244 53.7055 3.63893 53.9981 3.77102 54.4909C3.90301 54.9837 3.61055 55.4902 3.11776 55.6222C2.62486 55.7543 2.11837 55.4619 1.98638 54.9691Z" fill="#DD9600"/>
<path fill-rule="evenodd" clip-rule="evenodd" d="M2.27614 54.9507C2.14744 54.4704 2.43251 53.9768 2.91272 53.8481C3.39303 53.7194 3.88662 54.0044 4.01532 54.4847C4.14391 54.9649 3.85894 55.4585 3.37874 55.5872C2.89853 55.7159 2.40483 55.4309 2.27614 54.9507Z" fill="#FFFC61"/>
<path fill-rule="evenodd" clip-rule="evenodd" d="M2.66633 54.9872C2.60608 54.7625 2.73937 54.5314 2.96409 54.4713C3.18891 54.411 3.41982 54.5444 3.47997 54.769C3.54022 54.9938 3.40693 55.2248 3.18221 55.2849C2.9575 55.3453 2.72648 55.2119 2.66633 54.9872Z" fill="white"/>
<path fill-rule="evenodd" clip-rule="evenodd" d="M0.513062 43.7454C0.513062 43.2352 0.926623 42.8214 1.43691 42.8214C1.94709 42.8214 2.36065 43.2352 2.36065 43.7454C2.36065 44.2554 1.94709 44.6691 1.43691 44.6691C0.926623 44.6691 0.513062 44.2554 0.513062 43.7454Z" fill="#DD9600"/>
<path fill-rule="evenodd" clip-rule="evenodd" d="M0.797729 43.8024C0.797729 43.3053 1.2009 42.9023 1.69799 42.9023C2.19529 42.9023 2.59826 43.3053 2.59826 43.8024C2.59826 44.2997 2.19529 44.7028 1.69799 44.7028C1.2009 44.7028 0.797729 44.2997 0.797729 43.8024Z" fill="#FFFC61"/>
<path fill-rule="evenodd" clip-rule="evenodd" d="M1.1651 43.9388C1.1651 43.7062 1.35375 43.5174 1.58636 43.5174C1.81907 43.5174 2.00751 43.7062 2.00751 43.9388C2.00751 44.1713 1.81907 44.36 1.58636 44.36C1.35375 44.36 1.1651 44.1713 1.1651 43.9388Z" fill="white"/>
<path fill-rule="evenodd" clip-rule="evenodd" d="M1.99494 32.5226C2.12703 32.0298 2.63352 31.7374 3.12631 31.8695C3.61921 32.0015 3.91167 32.508 3.77958 33.0008C3.64759 33.4936 3.141 33.7862 2.64821 33.654C2.15541 33.522 1.86295 33.0154 1.99494 32.5226Z" fill="#DD9600"/>
<path fill-rule="evenodd" clip-rule="evenodd" d="M2.25514 32.6515C2.38374 32.1713 2.87743 31.8863 3.35764 32.015C3.83795 32.1436 4.12301 32.6373 3.99432 33.1175C3.86563 33.5978 3.37193 33.8828 2.89172 33.7541C2.41151 33.6254 2.12645 33.1317 2.25514 32.6515Z" fill="#FFFC61"/>
<path fill-rule="evenodd" clip-rule="evenodd" d="M2.57477 32.8782C2.63493 32.6535 2.86594 32.5201 3.09065 32.5804C3.31537 32.6406 3.44866 32.8717 3.38851 33.0964C3.32826 33.321 3.09735 33.4544 2.87253 33.3941C2.64791 33.334 2.51452 33.103 2.57477 32.8782Z" fill="white"/>
<path fill-rule="evenodd" clip-rule="evenodd" d="M6.33103 22.066C6.58612 21.6242 7.15106 21.4728 7.59299 21.7279C8.03483 21.983 8.18621 22.548 7.93112 22.9897C7.67603 23.4316 7.11099 23.583 6.66915 23.3279C6.22731 23.0728 6.07603 22.5077 6.33103 22.066Z" fill="#DD9600"/>
<path fill-rule="evenodd" clip-rule="evenodd" d="M6.54897 22.2578C6.79747 21.8273 7.34822 21.6797 7.77877 21.9284C8.20931 22.177 8.35679 22.7276 8.1082 23.1581C7.8597 23.5886 7.30915 23.7361 6.8785 23.4875C6.44795 23.2389 6.30037 22.6884 6.54897 22.2578Z" fill="#FFFC61"/>
<path fill-rule="evenodd" clip-rule="evenodd" d="M6.79915 22.5596C6.91536 22.3581 7.17305 22.289 7.37438 22.4053C7.57592 22.5216 7.64486 22.7792 7.52856 22.9807C7.41235 23.1822 7.15466 23.2512 6.95323 23.1349C6.75169 23.0186 6.68285 22.7609 6.79915 22.5596Z" fill="white"/>
<path fill-rule="evenodd" clip-rule="evenodd" d="M13.2256 13.0878C13.5864 12.727 14.1714 12.727 14.5322 13.0877C14.8929 13.4485 14.8929 14.0335 14.5321 14.3943C14.1714 14.755 13.5864 14.7551 13.2256 14.3943C12.8648 14.0335 12.8649 13.4485 13.2256 13.0878Z" fill="#DD9600"/>
<path fill-rule="evenodd" clip-rule="evenodd" d="M13.3865 13.3295C13.738 12.978 14.308 12.978 14.6597 13.3295C15.0113 13.6811 15.0112 14.2512 14.6597 14.6027C14.308 14.9542 13.738 14.9542 13.3865 14.6027C13.035 14.2512 13.035 13.681 13.3865 13.3295Z" fill="#FFFC61"/>
<path fill-rule="evenodd" clip-rule="evenodd" d="M13.55 13.6857C13.7144 13.5213 13.9811 13.5212 14.1457 13.6856C14.3101 13.8501 14.3101 14.117 14.1457 14.2814C13.9811 14.4458 13.7144 14.4459 13.55 14.2814C13.3854 14.117 13.3855 13.8501 13.55 13.6857Z" fill="white"/>
<path fill-rule="evenodd" clip-rule="evenodd" d="M22.2091 6.20007C22.6509 5.94497 23.216 6.09635 23.4711 6.53819C23.7262 6.98003 23.5748 7.54507 23.1329 7.80016C22.6911 8.05515 22.1261 7.90387 21.871 7.46193C21.6159 7.0202 21.7673 6.45516 22.2091 6.20007Z" fill="#DD9600"/>
<path fill-rule="evenodd" clip-rule="evenodd" d="M22.3019 6.47514C22.7325 6.22664 23.283 6.37412 23.5316 6.80477C23.7802 7.23532 23.6327 7.78587 23.2022 8.03446C22.7715 8.28306 22.2211 8.13558 21.9724 7.70493C21.7239 7.27439 21.8714 6.72374 22.3019 6.47514Z" fill="#FFFC61"/>
<path fill-rule="evenodd" clip-rule="evenodd" d="M22.3677 6.86152C22.5691 6.74522 22.8268 6.81426 22.9431 7.0157C23.0594 7.21713 22.9903 7.47472 22.7888 7.59103C22.5874 7.70733 22.3298 7.63839 22.2135 7.43685C22.0972 7.23542 22.1661 6.97783 22.3677 6.86152Z" fill="white"/>
<path fill-rule="evenodd" clip-rule="evenodd" d="M32.6691 1.8721C33.1619 1.74001 33.6685 2.03247 33.8005 2.52537C33.9326 3.01816 33.6401 3.52465 33.1472 3.65674C32.6546 3.78873 32.148 3.49637 32.0159 3.00358C31.8839 2.51068 32.1763 2.00419 32.6691 1.8721Z" fill="#DD9600"/>
<path fill-rule="evenodd" clip-rule="evenodd" d="M32.6875 2.16187C33.1677 2.03317 33.6614 2.31824 33.7901 2.79844C33.9188 3.27875 33.6338 3.77235 33.1535 3.90104C32.6733 4.02964 32.1796 3.74477 32.0509 3.26446C31.9224 2.78426 32.2073 2.29056 32.6875 2.16187Z" fill="#FFFC61"/>
<path fill-rule="evenodd" clip-rule="evenodd" d="M32.6511 2.55204C32.8758 2.49189 33.1068 2.62518 33.167 2.8498C33.2272 3.07462 33.0938 3.30553 32.8691 3.36578C32.6445 3.42593 32.4135 3.29264 32.3532 3.06792C32.293 2.8432 32.4264 2.61229 32.6511 2.55204Z" fill="white"/>
</svg>
