<svg width="16" height="17" viewBox="0 0 16 17" fill="none" xmlns="http://www.w3.org/2000/svg">
<path fill-rule="evenodd" clip-rule="evenodd" d="M15.1013 9.50903C15.5363 9.50903 15.8891 9.86184 15.8891 10.2971C15.8891 10.7321 15.5363 11.085 15.1013 11.085C14.666 11.085 14.3132 10.7321 14.3132 10.2971C14.3132 9.86184 14.666 9.50903 15.1013 9.50903Z" fill="#99000A"/>
<path fill-rule="evenodd" clip-rule="evenodd" d="M13.6396 12.3031C14.0747 12.3031 14.4275 12.6558 14.4275 13.091C14.4275 13.5262 14.0747 13.879 13.6396 13.879C13.2044 13.879 12.8516 13.5262 12.8516 13.091C12.8516 12.6558 13.2044 12.3031 13.6396 12.3031Z" fill="#99000A"/>
<path fill-rule="evenodd" clip-rule="evenodd" d="M11.1828 14.1916C11.6179 14.1916 11.9707 14.5442 11.9707 14.9795C11.9707 15.4147 11.6179 15.7673 11.1828 15.7673C10.7476 15.7673 10.3948 15.4147 10.3948 14.9795C10.3948 14.5442 10.7476 14.1916 11.1828 14.1916Z" fill="#99000A"/>
<path fill-rule="evenodd" clip-rule="evenodd" d="M7.93446 14.9636C8.36971 14.9636 8.72252 15.3164 8.72252 15.7515C8.72252 16.1867 8.36971 16.5395 7.93446 16.5395C7.49942 16.5395 7.14661 16.1867 7.14661 15.7515C7.14661 15.3164 7.49942 14.9636 7.93446 14.9636Z" fill="#99000A"/>
<path fill-rule="evenodd" clip-rule="evenodd" d="M4.75398 14.1478C5.18923 14.1478 5.54204 14.5007 5.54204 14.9359C5.54204 15.371 5.18923 15.7238 4.75398 15.7238C4.31894 15.7238 3.96613 15.371 3.96613 14.9359C3.96613 14.5007 4.31894 14.1478 4.75398 14.1478Z" fill="#99000A"/>
<path fill-rule="evenodd" clip-rule="evenodd" d="M2.19036 12.175C2.6256 12.175 2.97832 12.5278 2.97832 12.9629C2.97832 13.3981 2.6256 13.7509 2.19036 13.7509C1.75522 13.7509 1.4024 13.3981 1.4024 12.9629C1.4024 12.5278 1.75522 12.175 2.19036 12.175Z" fill="#99000A"/>
<path fill-rule="evenodd" clip-rule="evenodd" d="M0.899284 9.37155C1.33443 9.37155 1.68714 9.72436 1.68714 10.1596C1.68714 10.5948 1.33443 10.9475 0.899284 10.9475C0.46404 10.9475 0.111328 10.5948 0.111328 10.1596C0.111328 9.72436 0.46404 9.37155 0.899284 9.37155Z" fill="#99000A"/>
<path fill-rule="evenodd" clip-rule="evenodd" d="M0.874503 6.2482C1.30965 6.2482 1.66246 6.60091 1.66246 7.03606C1.66246 7.4713 1.30965 7.82401 0.874503 7.82401C0.439359 7.82401 0.0865479 7.4713 0.0865479 7.03606C0.0865479 6.60091 0.439359 6.2482 0.874503 6.2482Z" fill="#99000A"/>
<path fill-rule="evenodd" clip-rule="evenodd" d="M2.28539 3.39633C2.72064 3.39633 3.07345 3.74914 3.07345 4.18439C3.07345 4.61953 2.72064 4.97224 2.28539 4.97224C1.85025 4.97224 1.49744 4.61953 1.49744 4.18439C1.49744 3.74914 1.85025 3.39633 2.28539 3.39633Z" fill="#99000A"/>
<path fill-rule="evenodd" clip-rule="evenodd" d="M13.7556 3.61106C14.1906 3.61106 14.5434 3.96387 14.5434 4.39902C14.5434 4.83426 14.1906 5.18697 13.7556 5.18697C13.3203 5.18697 12.9675 4.83426 12.9675 4.39902C12.9675 3.96387 13.3203 3.61106 13.7556 3.61106Z" fill="#99000A"/>
<path fill-rule="evenodd" clip-rule="evenodd" d="M4.79363 1.4798C5.22878 1.4798 5.58159 1.83252 5.58159 2.26776C5.58159 2.703 5.22878 3.05562 4.79363 3.05562C4.35849 3.05562 4.00568 2.703 4.00568 2.26776C4.00568 1.83252 4.35849 1.4798 4.79363 1.4798Z" fill="#99000A"/>
<path fill-rule="evenodd" clip-rule="evenodd" d="M8.00927 0.766388C8.44441 0.766388 8.79722 1.1191 8.79722 1.55424C8.79722 1.98949 8.44441 2.3422 8.00927 2.3422C7.57412 2.3422 7.22131 1.98949 7.22131 1.55424C7.22131 1.1191 7.57412 0.766388 8.00927 0.766388Z" fill="#99000A"/>
<path fill-rule="evenodd" clip-rule="evenodd" d="M11.3292 1.56873C11.7644 1.56873 12.1171 1.92154 12.1171 2.35668C12.1171 2.79183 11.7644 3.14464 11.3292 3.14464C10.8939 3.14464 10.5413 2.79183 10.5413 2.35668C10.5413 1.92154 10.8939 1.56873 11.3292 1.56873Z" fill="#99000A"/>
<path fill-rule="evenodd" clip-rule="evenodd" d="M15.1586 6.45084C15.5939 6.45084 15.9467 6.80365 15.9467 7.23889C15.9467 7.67394 15.5939 8.02675 15.1586 8.02675C14.7235 8.02675 14.3708 7.67394 14.3708 7.23889C14.3708 6.80365 14.7235 6.45084 15.1586 6.45084Z" fill="#99000A"/>
<path fill-rule="evenodd" clip-rule="evenodd" d="M2.23662 3.63914C2.66068 3.63914 3.00449 3.98296 3.00449 4.40701C3.00449 4.83116 2.66068 5.17498 2.23662 5.17498C1.81257 5.17498 1.46875 4.83116 1.46875 4.40701C1.46875 3.98296 1.81257 3.63914 2.23662 3.63914Z" fill="#FFFC61"/>
<path fill-rule="evenodd" clip-rule="evenodd" d="M2.12041 3.95258C2.31875 3.95258 2.47962 4.11344 2.47962 4.31188C2.47962 4.51022 2.31875 4.67119 2.12041 4.67119C1.92188 4.67119 1.76111 4.51022 1.76111 4.31188C1.76111 4.11344 1.92188 3.95258 2.12041 3.95258Z" fill="white"/>
<path fill-rule="evenodd" clip-rule="evenodd" d="M4.74486 1.7227C5.16892 1.7227 5.51263 2.06642 5.51263 2.49047C5.51263 2.91453 5.16892 3.25835 4.74486 3.25835C4.32081 3.25835 3.97699 2.91453 3.97699 2.49047C3.97699 2.06642 4.32081 1.7227 4.74486 1.7227Z" fill="#FFFC61"/>
<path fill-rule="evenodd" clip-rule="evenodd" d="M4.62865 2.03605C4.82709 2.03605 4.98786 2.19682 4.98786 2.39526C4.98786 2.59379 4.82709 2.75456 4.62865 2.75456C4.43032 2.75456 4.26935 2.59379 4.26935 2.39526C4.26935 2.19682 4.43032 2.03605 4.62865 2.03605Z" fill="white"/>
<path fill-rule="evenodd" clip-rule="evenodd" d="M7.96056 1.00919C8.38461 1.00919 8.72843 1.353 8.72843 1.77696C8.72843 2.20101 8.38461 2.54483 7.96056 2.54483C7.53651 2.54483 7.19269 2.20101 7.19269 1.77696C7.19269 1.353 7.53651 1.00919 7.96056 1.00919Z" fill="#FFFC61"/>
<path fill-rule="evenodd" clip-rule="evenodd" d="M7.84441 1.32243C8.04275 1.32243 8.20352 1.4834 8.20352 1.68174C8.20352 1.88018 8.04275 2.04105 7.84441 2.04105C7.64588 2.04105 7.48511 1.88018 7.48511 1.68174C7.48511 1.4834 7.64588 1.32243 7.84441 1.32243Z" fill="white"/>
<path fill-rule="evenodd" clip-rule="evenodd" d="M11.2804 1.81153C11.7045 1.81153 12.0483 2.15535 12.0483 2.5795C12.0483 3.00346 11.7045 3.34728 11.2804 3.34728C10.8563 3.34728 10.5126 3.00346 10.5126 2.5795C10.5126 2.15535 10.8563 1.81153 11.2804 1.81153Z" fill="#FFFC61"/>
<path fill-rule="evenodd" clip-rule="evenodd" d="M11.1642 2.12498C11.3626 2.12498 11.5235 2.28575 11.5235 2.48428C11.5235 2.68262 11.3626 2.84349 11.1642 2.84349C10.9658 2.84349 10.805 2.68262 10.805 2.48428C10.805 2.28575 10.9658 2.12498 11.1642 2.12498Z" fill="white"/>
<path fill-rule="evenodd" clip-rule="evenodd" d="M13.7067 3.85386C14.1309 3.85386 14.4746 4.19768 14.4746 4.62173C14.4746 5.04588 14.1309 5.3897 13.7067 5.3897C13.2827 5.3897 12.9388 5.04588 12.9388 4.62173C12.9388 4.19768 13.2827 3.85386 13.7067 3.85386Z" fill="#FFFC61"/>
<path fill-rule="evenodd" clip-rule="evenodd" d="M13.5905 4.1673C13.789 4.1673 13.9497 4.32817 13.9497 4.52651C13.9497 4.72495 13.789 4.88572 13.5905 4.88572C13.3921 4.88572 13.2313 4.72495 13.2313 4.52651C13.2313 4.32817 13.3921 4.1673 13.5905 4.1673Z" fill="white"/>
<path fill-rule="evenodd" clip-rule="evenodd" d="M15.1099 6.69363C15.5339 6.69363 15.8777 7.03745 15.8777 7.46151C15.8777 7.88556 15.5339 8.22938 15.1099 8.22938C14.6858 8.22938 14.3421 7.88556 14.3421 7.46151C14.3421 7.03745 14.6858 6.69363 15.1099 6.69363Z" fill="#FFFC61"/>
<path fill-rule="evenodd" clip-rule="evenodd" d="M14.9937 7.00708C15.1922 7.00708 15.353 7.16785 15.353 7.36639C15.353 7.56472 15.1922 7.72559 14.9937 7.72559C14.7952 7.72559 14.6345 7.56472 14.6345 7.36639C14.6345 7.16785 14.7952 7.00708 14.9937 7.00708Z" fill="white"/>
<path fill-rule="evenodd" clip-rule="evenodd" d="M15.0524 9.75194C15.4766 9.75194 15.8204 10.0958 15.8204 10.5197C15.8204 10.9439 15.4766 11.2877 15.0524 11.2877C14.6284 11.2877 14.2845 10.9439 14.2845 10.5197C14.2845 10.0958 14.6284 9.75194 15.0524 9.75194Z" fill="#FFFC61"/>
<path fill-rule="evenodd" clip-rule="evenodd" d="M14.9363 10.0653C15.1347 10.0653 15.2955 10.2261 15.2955 10.4246C15.2955 10.6229 15.1347 10.7839 14.9363 10.7839C14.7379 10.7839 14.577 10.6229 14.577 10.4246C14.577 10.2261 14.7379 10.0653 14.9363 10.0653Z" fill="white"/>
<path fill-rule="evenodd" clip-rule="evenodd" d="M13.5908 12.5459C14.0149 12.5459 14.3586 12.8897 14.3586 13.3136C14.3586 13.7379 14.0149 14.0816 13.5908 14.0816C13.1667 14.0816 12.8229 13.7379 12.8229 13.3136C12.8229 12.8897 13.1667 12.5459 13.5908 12.5459Z" fill="#FFFC61"/>
<path fill-rule="evenodd" clip-rule="evenodd" d="M13.4746 12.8593C13.6729 12.8593 13.8338 13.0201 13.8338 13.2185C13.8338 13.4169 13.6729 13.5778 13.4746 13.5778C13.2761 13.5778 13.1153 13.4169 13.1153 13.2185C13.1153 13.0201 13.2761 12.8593 13.4746 12.8593Z" fill="white"/>
<path fill-rule="evenodd" clip-rule="evenodd" d="M11.134 14.4344C11.5581 14.4344 11.9019 14.7781 11.9019 15.2022C11.9019 15.6262 11.5581 15.97 11.134 15.97C10.71 15.97 10.3661 15.6262 10.3661 15.2022C10.3661 14.7781 10.71 14.4344 11.134 14.4344Z" fill="#FFFC61"/>
<path fill-rule="evenodd" clip-rule="evenodd" d="M11.0178 14.7477C11.2163 14.7477 11.377 14.9085 11.377 15.107C11.377 15.3054 11.2163 15.4663 11.0178 15.4663C10.8194 15.4663 10.6586 15.3054 10.6586 15.107C10.6586 14.9085 10.8194 14.7477 11.0178 14.7477Z" fill="white"/>
<path fill-rule="evenodd" clip-rule="evenodd" d="M7.88579 15.2064C8.30975 15.2064 8.65356 15.5502 8.65356 15.9742C8.65356 16.3984 8.30975 16.742 7.88579 16.742C7.46164 16.742 7.11792 16.3984 7.11792 15.9742C7.11792 15.5502 7.46164 15.2064 7.88579 15.2064Z" fill="#FFFC61"/>
<path fill-rule="evenodd" clip-rule="evenodd" d="M7.76958 15.5197C7.96802 15.5197 8.12889 15.6807 8.12889 15.879C8.12889 16.0775 7.96802 16.2383 7.76958 16.2383C7.57115 16.2383 7.41028 16.0775 7.41028 15.879C7.41028 15.6807 7.57115 15.5197 7.76958 15.5197Z" fill="white"/>
<path fill-rule="evenodd" clip-rule="evenodd" d="M4.70531 14.3907C5.12926 14.3907 5.47308 14.7346 5.47308 15.1585C5.47308 15.5827 5.12926 15.9265 4.70531 15.9265C4.28116 15.9265 3.93744 15.5827 3.93744 15.1585C3.93744 14.7346 4.28116 14.3907 4.70531 14.3907Z" fill="#FFFC61"/>
<path fill-rule="evenodd" clip-rule="evenodd" d="M4.589 14.7041C4.78754 14.7041 4.94831 14.865 4.94831 15.0634C4.94831 15.2617 4.78754 15.4227 4.589 15.4227C4.39057 15.4227 4.2298 15.2617 4.2298 15.0634C4.2298 14.865 4.39057 14.7041 4.589 14.7041Z" fill="white"/>
<path fill-rule="evenodd" clip-rule="evenodd" d="M2.14161 12.4179C2.56567 12.4179 2.90938 12.7617 2.90938 13.1856C2.90938 13.6098 2.56567 13.9536 2.14161 13.9536C1.71746 13.9536 1.37384 13.6098 1.37384 13.1856C1.37384 12.7617 1.71746 12.4179 2.14161 12.4179Z" fill="#FFFC61"/>
<path fill-rule="evenodd" clip-rule="evenodd" d="M2.02538 12.7312C2.22382 12.7312 2.38469 12.8921 2.38469 13.0905C2.38469 13.2888 2.22382 13.4497 2.02538 13.4497C1.82695 13.4497 1.66608 13.2888 1.66608 13.0905C1.66608 12.8921 1.82695 12.7312 2.02538 12.7312Z" fill="white"/>
<path fill-rule="evenodd" clip-rule="evenodd" d="M0.850475 9.61435C1.27463 9.61435 1.61835 9.95817 1.61835 10.3822C1.61835 10.8064 1.27463 11.1502 0.850475 11.1502C0.426422 11.1502 0.0827026 10.8064 0.0827026 10.3822C0.0827026 9.95817 0.426422 9.61435 0.850475 9.61435Z" fill="#FFFC61"/>
<path fill-rule="evenodd" clip-rule="evenodd" d="M0.734245 9.9278C0.932683 9.9278 1.09355 10.0887 1.09355 10.2871C1.09355 10.4854 0.932683 10.6464 0.734245 10.6464C0.535907 10.6464 0.374939 10.4854 0.374939 10.2871C0.374939 10.0887 0.535907 9.9278 0.734245 9.9278Z" fill="white"/>
<path fill-rule="evenodd" clip-rule="evenodd" d="M0.825794 6.491C1.24985 6.491 1.59357 6.83472 1.59357 7.25887C1.59357 7.68282 1.24985 8.02664 0.825794 8.02664C0.401741 8.02664 0.0579224 7.68282 0.0579224 7.25887C0.0579224 6.83472 0.401741 6.491 0.825794 6.491Z" fill="#FFFC61"/>
<path fill-rule="evenodd" clip-rule="evenodd" d="M0.709587 6.80435C0.908025 6.80435 1.06879 6.96512 1.06879 7.16366C1.06879 7.3621 0.908025 7.52286 0.709587 7.52286C0.511149 7.52286 0.350281 7.3621 0.350281 7.16366C0.350281 6.96512 0.511149 6.80435 0.709587 6.80435Z" fill="white"/>
</svg>
