<svg width="84" height="83" viewBox="0 0 84 83" fill="none" xmlns="http://www.w3.org/2000/svg">
<path d="M41.8762 0.542557C53.2586 0.542557 63.5635 5.15628 71.0228 12.6156C78.4821 20.0748 83.0958 30.3798 83.0958 41.7621C83.0958 53.1445 78.4821 63.4494 71.0228 70.9088C63.5635 78.368 53.2586 82.9816 41.8762 82.9816C30.4939 82.9816 20.1887 78.3679 12.7295 70.9088C5.27034 63.4495 0.656616 53.1445 0.656616 41.7621C0.656616 30.3798 5.27034 20.0748 12.7295 12.6156C20.1888 5.15628 30.4938 0.542557 41.8762 0.542557ZM70.3787 13.2597C63.0844 5.96532 53.0071 1.45351 41.8762 1.45351C30.7452 1.45351 20.668 5.96532 13.3737 13.2597C6.07938 20.554 1.56767 30.6311 1.56767 41.7621C1.56767 52.893 6.07948 62.9704 13.3737 70.2646C20.668 77.5589 30.7453 82.0706 41.8762 82.0706C53.0071 82.0706 63.0844 77.5589 70.3787 70.2646C77.673 62.9703 82.1847 52.893 82.1847 41.7621C82.1847 30.6311 77.673 20.554 70.3787 13.2597Z" fill="#FFD646"/>
<path fill-rule="evenodd" clip-rule="evenodd" d="M40.4906 0.387978H38.3662L41.8762 7.16334L45.3864 0.387978H40.4906Z" fill="#3D2547"/>
<path fill-rule="evenodd" clip-rule="evenodd" d="M39.4313 0.637973L39.1108 1.44861L41.8762 7.16334L41.9181 7.0824V0.387978L39.4313 0.637973Z" fill="#63486E"/>
<path fill-rule="evenodd" clip-rule="evenodd" d="M41.8762 7.16334L38.3435 0.691832L39.4313 0.637976L41.9364 5.30676L44.2222 0.608101L45.2362 0.677544L41.8762 7.16334Z" fill="#FFD646"/>
</svg>
