<svg width="172" height="57" viewBox="0 0 172 57" fill="none" xmlns="http://www.w3.org/2000/svg">
<g clip-path="url(#clip0_46_596)">
<path d="M158.303 0.00018525H13.7047C13.1777 0.00018525 12.6569 0.00018525 12.1312 0.00303525C11.6912 0.00588525 11.2546 0.0141645 10.8104 0.0211327C9.8452 0.0323928 8.8823 0.116574 7.93004 0.272944C6.97912 0.432719 6.05799 0.73394 5.1978 1.16642C4.33866 1.60256 3.55364 2.16927 2.87122 2.84601C2.18522 3.52084 1.61338 4.30086 1.1777 5.15606C0.740814 6.00957 0.437877 6.92417 0.27935 7.86829C0.119316 8.81122 0.0332006 9.76503 0.021776 10.7211C0.00843729 11.158 0.00702868 11.5964 0 12.0334V44.9712C0.00702868 45.4137 0.00843729 45.8423 0.021776 46.2849C0.0332041 47.241 0.11932 48.1947 0.27935 49.1376C0.437439 50.0823 0.740394 50.9974 1.1777 51.8512C1.61318 52.7037 2.1851 53.4805 2.87122 54.1516C3.55106 54.8314 4.33658 55.3985 5.1978 55.8313C6.05798 56.2649 6.97902 56.5679 7.93004 56.7301C8.88246 56.8853 9.84526 56.9695 10.8104 56.9821C11.2546 56.9918 11.6912 56.9973 12.1312 56.9973C12.6569 57.0002 13.1777 57.0002 13.7047 57.0002H158.303C158.82 57.0002 159.344 57.0002 159.861 56.9973C160.299 56.9973 160.748 56.9918 161.186 56.9821C162.149 56.9701 163.11 56.8859 164.061 56.7301C165.015 56.5668 165.939 56.2638 166.804 55.8313C167.664 55.3982 168.449 54.8311 169.128 54.1516C169.812 53.4779 170.386 52.7016 170.827 51.8512C171.261 50.9968 171.561 50.0817 171.716 49.1376C171.877 48.1946 171.966 47.241 171.983 46.2849C171.989 45.8423 171.989 45.4137 171.989 44.9712C172 44.4535 172 43.9386 172 43.4125V13.5892C172 13.0673 172 12.5496 171.989 12.0334C171.989 11.5964 171.989 11.158 171.983 10.7211C171.966 9.76489 171.877 8.8113 171.716 7.86824C171.56 6.92466 171.26 6.01013 170.827 5.15601C169.939 3.44184 168.532 2.04652 166.804 1.16629C165.939 0.734869 165.015 0.433728 164.061 0.272816C163.111 0.115757 162.15 0.0315463 161.186 0.0209332C160.748 0.0139792 160.299 0.00562875 159.861 0.00285C159.344 0 158.82 0 158.303 0V0.00018525Z" fill="black"/>
<path d="M12.1383 55.7533C11.7004 55.7533 11.273 55.7478 10.8385 55.7381C9.93841 55.7264 9.04041 55.6488 8.15188 55.5056C7.32338 55.3642 6.52078 55.101 5.77056 54.7249C5.02721 54.3519 4.34923 53.8627 3.76257 53.2762C3.16742 52.6967 2.67193 52.0244 2.29573 51.2862C1.91539 50.5432 1.65217 49.7468 1.51525 48.9247C1.36738 48.0414 1.28737 47.1482 1.27593 46.2528C1.26681 45.9523 1.25488 44.9517 1.25488 44.9517V12.0334C1.25488 12.0334 1.26759 11.0481 1.276 10.7587C1.28696 9.86473 1.3665 8.97293 1.51392 8.09096C1.6511 7.26663 1.91452 6.46791 2.29507 5.72247C2.66988 4.98476 3.16262 4.31205 3.75419 3.73039C4.34509 3.14321 5.02525 2.65156 5.76985 2.27337C6.51835 1.89843 7.31943 1.63714 8.14626 1.49826C9.03771 1.35371 9.93882 1.27556 10.842 1.26447L12.139 1.24707H159.854L161.167 1.26517C162.062 1.27571 162.954 1.35316 163.838 1.49686C164.673 1.63748 165.482 1.9006 166.239 2.27754C167.731 3.0397 168.945 4.2455 169.711 5.72594C170.085 6.46624 170.344 7.25844 170.48 8.07566C170.629 8.96486 170.713 9.86367 170.73 10.7649C170.734 11.1685 170.734 11.602 170.734 12.0334C170.745 12.5678 170.745 13.0764 170.745 13.5892V43.4125C170.745 43.9302 170.745 44.4354 170.734 44.9447C170.734 45.4081 170.734 45.8326 170.728 46.2695C170.712 47.1547 170.629 48.0375 170.483 48.9108C170.349 49.7388 170.087 50.5414 169.706 51.2905C169.328 52.0207 168.835 52.6871 168.247 53.2651C167.66 53.8548 166.98 54.3468 166.235 54.7222C165.48 55.1012 164.672 55.3653 163.838 55.5056C162.949 55.6495 162.051 55.7272 161.151 55.7381C160.73 55.7478 160.289 55.7533 159.861 55.7533L158.303 55.7562L12.1383 55.7533Z" fill="white"/>
<path d="M35.9291 28.3435C35.9452 27.1066 36.2765 25.8939 36.8924 24.8182C37.5082 23.7424 38.3886 22.8386 39.4514 22.1907C38.7762 21.2347 37.8855 20.4479 36.8499 19.8929C35.8143 19.3379 34.6625 19.0299 33.4858 18.9934C30.9759 18.7322 28.5426 20.4824 27.2635 20.4824C25.9597 20.4824 23.9905 19.0193 21.8699 19.0626C20.4982 19.1065 19.1615 19.5019 17.9898 20.2103C16.8181 20.9188 15.8515 21.916 15.1842 23.1049C12.2935 28.0667 14.4497 35.359 17.2188 39.3698C18.6042 41.3338 20.2234 43.5276 22.3421 43.4498C24.4153 43.3645 25.1897 42.1391 27.6922 42.1391C30.1716 42.1391 30.898 43.4498 33.0597 43.4003C35.2844 43.3645 36.686 41.4276 38.0229 39.4451C39.0183 38.0457 39.7843 36.499 40.2925 34.8624C39 34.3205 37.897 33.4133 37.1211 32.254C36.3452 31.0948 35.9306 29.7347 35.9291 28.3435Z" fill="black"/>
<path d="M31.8463 16.3552C33.0593 14.9116 33.6569 13.056 33.5122 11.1826C31.659 11.3756 29.9472 12.2537 28.7178 13.6419C28.1167 14.3201 27.6563 15.1091 27.363 15.9638C27.0697 16.8185 26.9491 17.7221 27.0083 18.623C27.9352 18.6325 28.8522 18.4333 29.6902 18.0405C30.5282 17.6476 31.2654 17.0714 31.8463 16.3552Z" fill="black"/>
<path d="M60.8026 38.6734H53.999L52.3651 43.4564H49.4834L55.9276 25.7607H58.9217L65.3659 43.4564H62.435L60.8026 38.6734ZM54.7036 36.4664H60.0966L57.438 28.704H57.3636L54.7036 36.4664Z" fill="black"/>
<path d="M79.2832 37.0058C79.2832 41.015 77.1187 43.5909 73.8524 43.5909C73.025 43.6338 72.2021 43.4448 71.478 43.0456C70.7538 42.6464 70.1577 42.0531 69.7579 41.3337H69.6961V47.7239H67.0249V30.5544H69.6105V32.7002H69.6596C70.0778 31.9842 70.684 31.394 71.4136 30.9923C72.1433 30.5907 72.9691 30.3927 73.8032 30.4194C77.1061 30.4194 79.2832 33.0078 79.2832 37.0058ZM76.5376 37.0058C76.5376 34.3938 75.176 32.6766 73.0986 32.6766C71.0577 32.6766 69.6849 34.43 69.6849 37.0058C69.6849 39.6053 71.0577 41.3462 73.0986 41.3462C75.1761 41.3462 76.5375 39.6415 76.5375 37.0058H76.5376Z" fill="black"/>
<path d="M93.6071 37.0058C93.6071 41.015 91.442 43.5909 88.1756 43.5909C87.3482 43.6338 86.5253 43.4448 85.8012 43.0456C85.0771 42.6464 84.481 42.0531 84.0811 41.3337H84.0193V47.7239H81.3481V30.5544H83.9337V32.7002H83.9828C84.401 31.9842 85.0072 31.394 85.7369 30.9923C86.4665 30.5907 87.2923 30.3927 88.1265 30.4194C91.4293 30.4194 93.6071 33.0078 93.6071 37.0058ZM90.8608 37.0058C90.8608 34.3938 89.4993 32.6766 87.4219 32.6766C85.3809 32.6766 84.0081 34.43 84.0081 37.0058C84.0081 39.6053 85.3809 41.3462 87.4219 41.3462C89.4993 41.3462 90.8608 39.6415 90.8608 37.0058Z" fill="black"/>
<path d="M103.072 38.5261C103.27 40.2809 104.989 41.4331 107.339 41.4331C109.59 41.4331 111.21 40.2808 111.21 38.6986C111.21 37.3251 110.233 36.5026 107.92 35.939L105.607 35.3866C102.329 34.6017 100.808 33.0821 100.808 30.6161C100.808 27.563 103.492 25.4658 107.301 25.4658C111.074 25.4658 113.66 27.563 113.747 30.6161H111.05C110.889 28.8502 109.416 27.7842 107.265 27.7842C105.113 27.7842 103.64 28.8627 103.64 30.4325C103.64 31.6835 104.581 32.4197 106.881 32.9832L108.848 33.4619C112.51 34.3205 114.03 35.779 114.03 38.3673C114.03 41.6779 111.372 43.7514 107.141 43.7514C103.183 43.7514 100.51 41.7266 100.337 38.5259L103.072 38.5261Z" fill="black"/>
<path d="M119.798 27.5029V30.5561H122.273V32.6533H119.798V39.7657C119.798 40.8707 120.294 41.3856 121.381 41.3856C121.675 41.3805 121.969 41.36 122.26 41.3243V43.4089C121.771 43.4995 121.274 43.5405 120.776 43.5314C118.142 43.5314 117.114 42.5503 117.114 40.0482V32.6533H115.222V30.5561H117.114V27.5029H119.798Z" fill="black"/>
<path d="M123.705 37.0076C123.705 32.9483 126.116 30.3975 129.877 30.3975C133.65 30.3975 136.05 32.9482 136.05 37.0076C136.05 41.078 133.662 43.6177 129.877 43.6177C126.092 43.6177 123.705 41.078 123.705 37.0076ZM133.328 37.0076C133.328 34.223 132.041 32.5795 129.877 32.5795C127.712 32.5795 126.425 34.2355 126.425 37.0076C126.425 39.8033 127.712 41.4343 129.877 41.4343C132.041 41.4343 133.328 39.8033 133.328 37.0076H133.328Z" fill="black"/>
<path d="M138.252 30.5542H140.8V32.7502H140.861C141.034 32.0643 141.439 31.4582 142.009 31.0337C142.579 30.6093 143.279 30.3923 143.992 30.4192C144.299 30.4182 144.606 30.4513 144.907 30.518V32.9951C144.518 32.8774 144.113 32.8233 143.707 32.8351C143.319 32.8195 142.932 32.8873 142.573 33.0339C142.213 33.1805 141.891 33.4024 141.626 33.6844C141.362 33.9664 141.162 34.3018 141.041 34.6676C140.919 35.0333 140.879 35.4208 140.923 35.8033V43.4558H138.252L138.252 30.5542Z" fill="black"/>
<path d="M157.223 39.6683C156.863 42.0104 154.563 43.6177 151.619 43.6177C147.834 43.6177 145.484 41.103 145.484 37.0688C145.484 33.022 147.846 30.3975 151.507 30.3975C155.107 30.3975 157.372 32.8495 157.372 36.7613V37.6686H148.18V37.8286C148.138 38.3034 148.198 38.7817 148.356 39.2318C148.515 39.6819 148.768 40.0934 149.099 40.439C149.43 40.7847 149.831 41.0565 150.277 41.2365C150.722 41.4165 151.201 41.5005 151.681 41.483C152.312 41.5416 152.946 41.3967 153.487 41.0697C154.029 40.7427 154.449 40.2512 154.686 39.6683L157.223 39.6683ZM148.193 35.8177H154.699C154.723 35.3908 154.658 34.9636 154.507 34.5629C154.357 34.1621 154.124 33.7966 153.825 33.4891C153.525 33.1816 153.164 32.9389 152.765 32.7762C152.367 32.6134 151.938 32.5341 151.507 32.5433C151.072 32.5407 150.641 32.6236 150.238 32.7871C149.836 32.9506 149.47 33.1915 149.162 33.496C148.854 33.8004 148.609 34.1623 148.443 34.5608C148.277 34.9593 148.192 35.3865 148.193 35.8178V35.8177Z" fill="black"/>
<path d="M54.3699 12.4423C54.9299 12.4024 55.4918 12.4863 56.0152 12.6878C56.5385 12.8894 57.0103 13.2036 57.3963 13.6077C57.7824 14.0119 58.0731 14.496 58.2476 15.025C58.4221 15.5541 58.476 16.115 58.4054 16.6672C58.4054 19.3836 56.9246 20.945 54.3699 20.945H51.272V12.4423H54.3699ZM52.604 19.7425H54.2211C54.6212 19.7663 55.0217 19.7012 55.3933 19.5521C55.7649 19.4031 56.0983 19.1737 56.3693 18.8808C56.6402 18.5878 56.8418 18.2387 56.9595 17.8588C57.0772 17.4788 57.1079 17.0777 57.0495 16.6845C57.1037 16.2929 57.0698 15.8942 56.9503 15.517C56.8309 15.1399 56.6287 14.7936 56.3584 14.503C56.0881 14.2124 55.7563 13.9847 55.3868 13.8361C55.0173 13.6876 54.6192 13.6219 54.2211 13.6438H52.604V19.7425Z" fill="black"/>
<path d="M59.9099 17.7346C59.8693 17.3129 59.9179 16.8875 60.0528 16.4855C60.1877 16.0836 60.4058 15.714 60.6932 15.4005C60.9806 15.0871 61.3309 14.8366 61.7216 14.6652C62.1124 14.4938 62.5349 14.4053 62.9622 14.4053C63.3895 14.4053 63.8121 14.4938 64.2028 14.6652C64.5936 14.8366 64.9439 15.0871 65.2313 15.4005C65.5186 15.714 65.7368 16.0836 65.8717 16.4855C66.0065 16.8875 66.0552 17.3129 66.0145 17.7346C66.056 18.1567 66.0079 18.5828 65.8734 18.9854C65.7388 19.388 65.5208 19.7582 65.2334 20.0723C64.9459 20.3864 64.5954 20.6374 64.2042 20.8091C63.8131 20.9809 63.39 21.0696 62.9622 21.0696C62.5344 21.0696 62.1114 20.9809 61.7202 20.8091C61.3291 20.6374 60.9785 20.3864 60.6911 20.0723C60.4036 19.7582 60.1856 19.388 60.0511 18.9854C59.9166 18.5828 59.8685 18.1567 59.9099 17.7346ZM64.7007 17.7346C64.7007 16.3437 64.0704 15.5303 62.9643 15.5303C61.854 15.5303 61.2294 16.3437 61.2294 17.7346C61.2294 19.1367 61.8541 19.9438 62.9643 19.9438C64.0704 19.9438 64.7007 19.1311 64.7007 17.7346H64.7007Z" fill="black"/>
<path d="M74.1294 20.945H72.8044L71.4667 16.2191H71.3656L70.0335 20.945H68.7211L66.937 14.5283H68.2326L69.392 19.4246H69.4875L70.8182 14.5283H72.0436L73.3742 19.4246H73.4753L74.6291 14.5283H75.9065L74.1294 20.945Z" fill="black"/>
<path d="M77.4067 14.5276H78.6364V15.547H78.7318C78.8937 15.1809 79.1668 14.874 79.5131 14.669C79.8593 14.4641 80.2614 14.3714 80.6633 14.4038C80.9782 14.3803 81.2944 14.4274 81.5885 14.5415C81.8826 14.6557 82.147 14.8339 82.3621 15.0631C82.5773 15.2923 82.7376 15.5666 82.8314 15.8656C82.9251 16.1646 82.9497 16.4806 82.9035 16.7904V20.9442H81.6262V17.1084C81.6262 16.0772 81.1742 15.5644 80.2295 15.5644C80.0157 15.5545 79.8023 15.5906 79.6038 15.6701C79.4054 15.7497 79.2266 15.8709 79.0799 16.0253C78.9331 16.1798 78.8217 16.3638 78.7534 16.565C78.6851 16.7661 78.6614 16.9794 78.6841 17.1905V20.9443H77.4067L77.4067 14.5276Z" fill="black"/>
<path d="M84.939 12.0234H86.2163V20.945H84.939V12.0234Z" fill="black"/>
<path d="M87.9919 17.7328C87.9513 17.3111 88 16.8856 88.1349 16.4836C88.2698 16.0817 88.488 15.7121 88.7754 15.3986C89.0628 15.0851 89.4131 14.8346 89.8039 14.6633C90.1947 14.4919 90.6173 14.4033 91.0446 14.4033C91.4719 14.4033 91.8945 14.4919 92.2852 14.6633C92.676 14.8346 93.0263 15.0851 93.3138 15.3986C93.6012 15.7121 93.8193 16.0817 93.9542 16.4836C94.0892 16.8856 94.1378 17.3111 94.0972 17.7328C94.1386 18.1549 94.0905 18.581 93.9559 18.9836C93.8213 19.3862 93.6033 19.7564 93.3158 20.0705C93.0283 20.3846 92.6777 20.6355 92.2866 20.8073C91.8954 20.979 91.4724 21.0678 91.0446 21.0678C90.6168 21.0678 90.1937 20.979 89.8025 20.8073C89.4114 20.6355 89.0608 20.3846 88.7733 20.0705C88.4858 19.7564 88.2678 19.3862 88.1332 18.9836C87.9987 18.581 87.9505 18.1549 87.9919 17.7328ZM92.7826 17.7328C92.7826 16.3419 92.1524 15.5285 91.0463 15.5285C89.936 15.5285 89.3114 16.3419 89.3114 17.7328C89.3114 19.1348 89.9361 19.942 91.0463 19.942C92.1524 19.9419 92.7827 19.1293 92.7827 17.7328H92.7826Z" fill="black"/>
<path d="M95.4419 19.1311C95.4419 17.9761 96.3094 17.3102 97.8492 17.2156L99.6024 17.1154V16.5616C99.6024 15.8838 99.1504 15.5012 98.2773 15.5012C97.5642 15.5012 97.0702 15.7607 96.9284 16.2144H95.6917C95.8223 15.1122 96.868 14.4053 98.3363 14.4053C99.9589 14.4053 100.874 15.2061 100.874 16.5616V20.9458H99.6445V20.044H99.5434C99.3383 20.3675 99.0502 20.6312 98.7087 20.8082C98.3671 20.9852 97.9843 21.0692 97.5993 21.0515C97.3276 21.0795 97.053 21.0508 96.7932 20.9672C96.5334 20.8835 96.2941 20.7468 96.0909 20.5659C95.8876 20.3849 95.7248 20.1638 95.613 19.9167C95.5013 19.6696 95.443 19.402 95.4419 19.1311ZM99.6024 18.5828V18.0464L98.0218 18.1466C97.1305 18.2057 96.7262 18.5063 96.7262 19.072C96.7262 19.6495 97.2316 19.9856 97.9264 19.9856C98.13 20.006 98.3357 19.9856 98.5312 19.9256C98.7267 19.8657 98.908 19.7673 99.0643 19.6364C99.2207 19.5056 99.3489 19.3449 99.4414 19.1638C99.5338 18.9828 99.5885 18.7853 99.6024 18.5828Z" fill="black"/>
<path d="M102.553 17.7339C102.553 15.7063 103.604 14.4219 105.239 14.4219C105.644 14.4034 106.045 14.4995 106.397 14.6988C106.748 14.8982 107.035 15.1926 107.224 15.5476H107.32V12.0234H108.597V20.945H107.373V19.9312H107.272C107.068 20.2839 106.771 20.5746 106.413 20.772C106.055 20.9693 105.649 21.0657 105.239 21.0507C103.593 21.0508 102.553 19.7663 102.553 17.7339ZM103.872 17.7339C103.872 19.0949 104.519 19.9138 105.602 19.9138C106.678 19.9138 107.344 19.0831 107.344 17.7395C107.344 16.4021 106.671 15.5595 105.602 15.5595C104.526 15.5595 103.872 16.384 103.872 17.7339H103.872Z" fill="black"/>
<path d="M113.882 17.7346C113.841 17.3129 113.89 16.8875 114.024 16.4855C114.159 16.0836 114.377 15.714 114.665 15.4005C114.952 15.0871 115.303 14.8366 115.693 14.6652C116.084 14.4938 116.507 14.4053 116.934 14.4053C117.361 14.4053 117.784 14.4938 118.174 14.6652C118.565 14.8366 118.916 15.0871 119.203 15.4005C119.49 15.714 119.708 16.0836 119.843 16.4855C119.978 16.8875 120.027 17.3129 119.986 17.7346C120.028 18.1567 119.98 18.5828 119.845 18.9854C119.711 19.388 119.493 19.7582 119.205 20.0723C118.918 20.3864 118.567 20.6374 118.176 20.8091C117.785 20.9809 117.362 21.0696 116.934 21.0696C116.506 21.0696 116.083 20.9809 115.692 20.8091C115.301 20.6374 114.95 20.3864 114.663 20.0723C114.375 19.7582 114.157 19.388 114.023 18.9854C113.888 18.5828 113.84 18.1567 113.882 17.7346ZM118.672 17.7346C118.672 16.3437 118.042 15.5303 116.936 15.5303C115.826 15.5303 115.201 16.3437 115.201 17.7346C115.201 19.1367 115.826 19.9438 116.936 19.9438C118.042 19.9438 118.672 19.1311 118.672 17.7346Z" fill="black"/>
<path d="M121.7 14.5276H122.93V15.547H123.025C123.187 15.1809 123.46 14.874 123.807 14.669C124.153 14.4641 124.555 14.3714 124.957 14.4038C125.272 14.3803 125.588 14.4274 125.882 14.5415C126.176 14.6557 126.44 14.8339 126.656 15.0631C126.871 15.2923 127.031 15.5666 127.125 15.8656C127.219 16.1646 127.243 16.4806 127.197 16.7904V20.9442H125.92V17.1084C125.92 16.0772 125.468 15.5644 124.523 15.5644C124.309 15.5545 124.096 15.5906 123.897 15.6701C123.699 15.7497 123.52 15.8709 123.373 16.0253C123.227 16.1798 123.115 16.3638 123.047 16.565C122.979 16.7661 122.955 16.9794 122.978 17.1905V20.9443H121.7V14.5276Z" fill="black"/>
<path d="M134.415 12.9307V14.5574H135.817V15.6241H134.415V18.9236C134.415 19.5957 134.694 19.8901 135.33 19.8901C135.493 19.8895 135.655 19.8798 135.817 19.8608V20.9157C135.588 20.9563 135.355 20.978 135.122 20.9804C133.702 20.9804 133.136 20.485 133.136 19.2478V15.6241H132.108V14.5574H133.136V12.9307H134.415Z" fill="black"/>
<path d="M137.562 12.0234H138.828V15.5595H138.929C139.099 15.19 139.38 14.8813 139.733 14.6756C140.086 14.4699 140.494 14.3772 140.903 14.41C141.216 14.3931 141.529 14.445 141.82 14.5619C142.111 14.6788 142.372 14.8579 142.585 15.0864C142.798 15.3149 142.957 15.5871 143.052 15.8837C143.146 16.1803 143.173 16.4939 143.132 16.8022V20.945H141.853V17.1146C141.853 16.0897 141.372 15.5706 140.469 15.5706C140.25 15.5528 140.029 15.5827 139.822 15.6583C139.615 15.7339 139.428 15.8533 139.273 16.0083C139.117 16.1632 138.998 16.35 138.923 16.5553C138.849 16.7607 138.82 16.9799 138.839 17.1974V20.945H137.562L137.562 12.0234Z" fill="black"/>
<path d="M150.579 19.2114C150.406 19.7979 150.03 20.3051 149.517 20.6445C149.004 20.9839 148.388 21.1337 147.775 21.0678C147.348 21.079 146.925 20.998 146.533 20.8305C146.141 20.663 145.791 20.4131 145.507 20.0979C145.222 19.7828 145.01 19.4101 144.886 19.0056C144.761 18.6012 144.727 18.1747 144.785 17.7558C144.728 17.3356 144.763 16.9082 144.887 16.5025C145.012 16.0969 145.222 15.7224 145.505 15.4045C145.788 15.0867 146.137 14.8328 146.528 14.66C146.918 14.4873 147.341 14.3998 147.769 14.4034C149.57 14.4034 150.656 15.6232 150.656 17.6382V18.0801H146.086V18.151C146.066 18.3865 146.096 18.6235 146.174 18.8469C146.252 19.0703 146.376 19.275 146.538 19.4481C146.7 19.6212 146.897 19.7587 147.116 19.8519C147.335 19.9451 147.571 19.9919 147.81 19.9893C148.115 20.0256 148.425 19.9711 148.699 19.8326C148.973 19.6941 149.2 19.4778 149.35 19.2114L150.579 19.2114ZM146.086 17.1435H149.355C149.371 16.9281 149.342 16.7118 149.269 16.5084C149.195 16.3051 149.08 16.1191 148.93 15.9626C148.78 15.806 148.598 15.6823 148.397 15.5994C148.196 15.5165 147.98 15.4763 147.762 15.4812C147.541 15.4785 147.322 15.5196 147.117 15.6022C146.913 15.6847 146.727 15.8071 146.571 15.962C146.414 16.1169 146.291 16.3013 146.208 16.5042C146.125 16.7071 146.083 16.9245 146.086 17.1435H146.086Z" fill="black"/>
</g>
<defs>
<clipPath id="clip0_46_596">
<rect width="172" height="57" fill="white"/>
</clipPath>
</defs>
</svg>
