<svg width="28" height="63" viewBox="0 0 28 63" fill="none" xmlns="http://www.w3.org/2000/svg">
<g clip-path="url(#clip0_10_199)">
<path d="M4.21287 55.6273C4.09522 57.9447 1.89377 59.5984 1.89377 59.5984C1.89377 59.5984 -0.113628 57.4953 0.00506329 55.1791C0.12272 52.8618 2.32417 51.208 2.32417 51.208C2.32417 51.208 4.3316 53.309 4.21287 55.6273Z" fill="#BF9559"/>
<path d="M6.89686 62.9951C4.57025 62.8852 2.9165 60.6981 2.9165 60.6981C2.9165 60.6981 5.03468 58.6924 7.36013 58.8033C9.68678 58.9132 11.3405 61.1003 11.3405 61.1003C11.3405 61.1003 9.22443 63.106 6.89686 62.9951Z" fill="#BF9559"/>
<path d="M9.30024 50.9847C9.61139 53.2827 7.75072 55.3096 7.75072 55.3096C7.75072 55.3096 5.38892 53.6103 5.07903 51.3132C4.7679 49.0151 6.62856 46.9883 6.62856 46.9883C6.62856 46.9883 8.99 48.6856 9.30024 50.9847Z" fill="#BF9559"/>
<path d="M13.2983 57.7324C10.9896 58.0495 8.96021 56.203 8.96021 56.203C8.96021 56.203 10.6742 53.8457 12.9818 53.5298C15.2905 53.2127 17.32 55.0592 17.32 55.0592C17.32 55.0592 15.6081 57.4162 13.2983 57.7324Z" fill="#BF9559"/>
<path d="M13.0922 45.3255C13.7805 47.5394 12.2809 49.8436 12.2809 49.8436C12.2809 49.8436 9.66842 48.5574 8.98151 46.3442C8.2932 44.1303 9.79281 41.8262 9.79281 41.8262C9.79281 41.8262 12.4046 43.1104 13.0922 45.3255Z" fill="#BF9559"/>
<path d="M18.1573 51.3203C15.9319 52.0128 13.623 50.5269 13.623 50.5269C13.623 50.5269 14.923 47.9211 17.1477 47.2299C19.3731 46.5373 21.6819 48.0233 21.6819 48.0233C21.6819 48.0233 20.3839 50.6283 18.1573 51.3203Z" fill="#BF9559"/>
<path d="M15.6871 39.3769C16.7364 41.4445 15.6423 43.964 15.6423 43.964C15.6423 43.964 12.8499 43.1298 11.802 41.0627C10.7526 38.995 11.8467 36.4756 11.8467 36.4756C11.8467 36.4756 14.6382 37.308 15.6871 39.3769Z" fill="#BF9559"/>
<path d="M21.6888 44.4435C19.6091 45.4952 17.0828 44.4138 17.0828 44.4138C17.0828 44.4138 17.9294 41.6301 20.0086 40.5799C22.0882 39.5283 24.6146 40.6097 24.6146 40.6097C24.6146 40.6097 23.7698 43.3923 21.6888 44.4435Z" fill="#BF9559"/>
<path d="M17.7153 33.1798C19.0126 35.1023 18.2378 37.7357 18.2378 37.7357C18.2378 37.7357 15.3623 37.2504 14.0665 35.3283C12.7692 33.4059 13.544 30.7725 13.544 30.7725C13.544 30.7725 16.4182 31.256 17.7153 33.1798Z" fill="#BF9559"/>
<path d="M24.3014 37.4715C22.3667 38.7697 19.7249 38.0066 19.7249 38.0066C19.7249 38.0066 20.2214 35.1415 22.1558 33.8448C24.0904 32.5466 26.7323 33.3098 26.7323 33.3098C26.7323 33.3098 26.2374 36.1736 24.3014 37.4715Z" fill="#BF9559"/>
<path d="M19.0261 26.9118C20.5369 28.6726 20.0705 31.3762 20.0705 31.3762C20.0705 31.3762 17.1571 31.2229 15.6477 29.4624C14.1369 27.7016 14.6034 24.998 14.6034 24.998C14.6034 24.998 17.5154 25.1497 19.0261 26.9118Z" fill="#BF9559"/>
<path d="M26.0639 30.4205C24.291 31.9308 21.5776 31.4749 21.5776 31.4749C21.5776 31.4749 21.7409 28.5731 23.5137 27.0644C25.2867 25.5541 28 26.0099 28 26.0099C28 26.0099 27.8383 28.9103 26.0639 30.4205Z" fill="#BF9559"/>
<path d="M18.6928 20.2405C20.4978 21.701 20.5268 24.4425 20.5268 24.4425C20.5268 24.4425 17.6312 24.8135 15.8277 23.3528C14.0226 21.8923 13.9937 19.1508 13.9937 19.1508C13.9937 19.1508 16.8875 18.7785 18.6928 20.2405Z" fill="#BF9559"/>
<path d="M26.2517 22.4299C24.7791 24.2322 22.026 24.2698 22.026 24.2698C22.026 24.2698 21.6627 21.3877 23.1355 19.5869C24.6081 17.7847 27.3613 17.7471 27.3613 17.7471C27.3613 17.7471 27.7258 20.6275 26.2517 22.4299Z" fill="#BF9559"/>
<path d="M17.1801 13.9317C19.2305 15.0264 19.7778 17.7118 19.7778 17.7118C19.7778 17.7118 17.0024 18.6194 14.9535 17.5242C12.9031 16.4295 12.356 13.7441 12.356 13.7441C12.356 13.7441 15.1294 12.8356 17.1801 13.9317Z" fill="#BF9559"/>
<path d="M25.0226 14.662C23.9164 16.7073 21.2179 17.261 21.2179 17.261C21.2179 17.261 20.3155 14.5003 21.4221 12.4565C22.5281 10.4112 25.2268 9.85742 25.2268 9.85742C25.2268 9.85742 26.13 12.6163 25.0226 14.662Z" fill="#BF9559"/>
<path d="M14.8695 7.50417C17.0822 8.22307 18.0945 10.7697 18.0945 10.7697C18.0945 10.7697 15.5206 12.1477 13.3094 11.4282C11.0968 10.7093 10.0845 8.16259 10.0845 8.16259C10.0845 8.16259 12.6563 6.78401 14.8695 7.50417Z" fill="#BF9559"/>
<path d="M22.725 6.8529C21.9959 9.05862 19.4353 10.075 19.4353 10.075C19.4353 10.075 18.0599 7.51638 18.7896 5.31199C19.5187 3.10625 22.0793 2.08984 22.0793 2.08984C22.0793 2.08984 23.4553 4.6465 22.725 6.8529Z" fill="#BF9559"/>
<path d="M14.9512 1.30784C16.4155 2.75834 16.2777 5.25917 16.2777 5.25917C16.2777 5.25917 13.7677 5.40615 12.3046 3.95559C10.8402 2.5051 10.9781 0.0042637 10.9781 0.0042637C10.9781 0.0042637 13.4868 -0.143984 14.9512 1.30784Z" fill="#BF9559"/>
</g>
<defs>
<clipPath id="clip0_10_199">
<rect width="28" height="63" fill="white"/>
</clipPath>
</defs>
</svg>
