<svg width="210" height="39" viewBox="0 0 210 39" fill="none" xmlns="http://www.w3.org/2000/svg">
<path d="M22.7581 17.8725V17.8087C24.8037 16.7874 26.0823 14.7448 26.0823 12.1917C26.0823 9.38314 24.548 7.21293 22.5024 6.31931C21.2238 5.74485 19.8174 5.55336 17.8996 5.55336H16.9407V3.38315C16.9407 2.93634 16.6211 2.61719 16.1736 2.61719H14.0001C13.5526 2.61719 13.233 2.93634 13.233 3.38315V5.48953H10.8038V3.38315C10.8038 2.93634 10.4841 2.61719 10.0366 2.61719H7.86311C7.41562 2.61719 7.09599 2.93634 7.09599 3.38315V5.48953H4.79462C4.53891 5.48953 4.34713 5.68102 4.34713 5.93634V8.04272C4.34713 8.29804 4.53891 8.48953 4.79462 8.48953H7.03206V28.5321H4.92247C4.60284 28.5321 4.2832 28.7874 4.2832 29.1704V31.0214C4.2832 31.3406 4.53891 31.6597 4.92247 31.6597H7.03206V33.7661C7.03206 34.2129 7.3517 34.5321 7.79918 34.5321H9.9727C10.4202 34.5321 10.7398 34.2129 10.7398 33.7661V31.6597H13.169V33.7661C13.169 34.2129 13.4887 34.5321 13.9362 34.5321H16.1097C16.5572 34.5321 16.8768 34.2129 16.8768 33.7661V31.6597H18.3471C19.8174 31.6597 21.0321 31.5959 22.2467 31.1491C24.9316 30.1917 27.0412 27.6385 27.0412 24.1917C27.1051 21.2555 25.5709 18.7023 22.7581 17.8725ZM17.8996 8.55336C18.9864 8.55336 19.8814 8.68102 20.5846 9.064C21.6713 9.70229 22.3106 10.9789 22.3106 12.5108C22.3106 14.8725 20.8403 16.5321 18.475 16.5321H10.8038V8.55336H17.8996ZM20.8403 28.2129C20.1371 28.5321 19.2421 28.5959 18.475 28.5959H10.6759V19.5321H18.7307C21.4795 19.5321 23.2695 21.3193 23.2695 24.0002C23.3334 25.9789 22.3745 27.5746 20.8403 28.2129Z" fill="#E9B833"/>
<path d="M32.4751 7.97924V6.76648C32.4751 5.93669 32.8587 5.55371 33.6897 5.55371H34.9043C35.6714 5.55371 36.1189 5.93669 36.1189 6.76648V7.97924C36.1189 8.7452 35.6714 9.19201 34.9043 9.19201H33.6897C32.8587 9.19201 32.4751 8.7452 32.4751 7.97924ZM32.4751 14.1069C32.4751 13.2771 32.9226 12.8941 33.6897 12.8941H34.8404C35.6714 12.8941 36.055 13.2771 36.055 14.1069V30.192C36.055 31.0218 35.6714 31.4048 34.8404 31.4048H33.6897C32.9226 31.4048 32.4751 31.0218 32.4751 30.192V14.1069Z" fill="#8B8B8B"/>
<path d="M42.0642 15.9583H40.7857C40.0186 15.9583 39.635 15.5115 39.635 14.7455V14.2987C39.635 13.5328 40.0186 13.086 40.8496 13.086H42.1921V9.00085C42.1921 8.17106 42.6396 7.78809 43.4067 7.78809H44.4935C45.3245 7.78809 45.7081 8.17106 45.7081 9.00085V13.086H48.9044C49.7355 13.086 50.119 13.5328 50.119 14.2987V14.7455C50.119 15.5115 49.7355 15.9583 48.9683 15.9583H45.7081V24.1923C45.7081 27.703 47.8816 28.2774 49.2241 28.3413C50.183 28.4051 50.5026 28.7242 50.5026 29.554V30.32C50.5026 31.1498 50.0551 31.5328 49.0323 31.5328C45.3884 31.5328 42.1282 29.4264 42.1282 24.703V15.9583H42.0642Z" fill="#8B8B8B"/>
<path d="M62.2012 12.4473C65.3336 12.4473 67.3153 13.66 68.3381 14.426C68.9774 14.809 68.9774 15.4473 68.5299 16.0856L68.1464 16.66C67.6989 17.2983 67.1874 17.3622 66.4843 16.9792C65.7171 16.4047 64.3107 15.5749 62.329 15.5749C58.6212 15.5749 55.8724 18.3834 55.8724 22.1494C55.8724 25.9154 58.5573 28.7877 62.3929 28.7877C64.6304 28.7877 66.2285 27.7664 67.1235 27.1281C67.7628 26.6813 68.3381 26.7451 68.7856 27.4473L69.1053 28.0217C69.4888 28.66 69.361 29.2345 68.7856 29.6175C67.7628 30.4473 65.5254 31.9154 62.2012 31.9154C56.3838 31.9154 52.2925 27.7664 52.2925 22.2132C52.2925 16.66 56.4477 12.4473 62.2012 12.4473Z" fill="#8B8B8B"/>
<path d="M81.571 12.4473C87.1326 12.4473 91.6075 16.5324 91.6075 22.0856C91.6075 27.7026 87.1326 31.8515 81.571 31.8515C76.0093 31.8515 71.5984 27.7664 71.5984 22.0856C71.5984 16.4685 76.0093 12.4473 81.571 12.4473ZM81.571 28.7877C85.087 28.7877 87.9637 25.9792 87.9637 22.1494C87.9637 18.3196 85.087 15.5749 81.571 15.5749C78.1189 15.5749 75.1783 18.3196 75.1783 22.1494C75.1783 25.9792 78.055 28.7877 81.571 28.7877Z" fill="#8B8B8B"/>
<path d="M95.4431 7.97924V6.76648C95.4431 5.93669 95.8267 5.55371 96.6577 5.55371H97.8723C98.6395 5.55371 99.0869 5.93669 99.0869 6.76648V7.97924C99.0869 8.7452 98.6395 9.19201 97.8723 9.19201H96.6577C95.8267 9.19201 95.4431 8.7452 95.4431 7.97924ZM95.4431 14.1069C95.4431 13.2771 95.8906 12.8941 96.6577 12.8941H97.8084C98.6395 12.8941 99.023 13.2771 99.023 14.1069V30.192C99.023 31.0218 98.6395 31.4048 97.8084 31.4048H96.6577C95.8906 31.4048 95.4431 31.0218 95.4431 30.192V14.1069Z" fill="#8B8B8B"/>
<path d="M104.137 14.1065C104.137 13.2767 104.585 12.8937 105.352 12.8937H106.375C107.206 12.8937 107.589 13.2767 107.589 14.1065V15.7661C107.589 16.3405 107.461 16.8512 107.461 16.8512H107.525C108.228 15.2554 110.466 12.5107 114.557 12.5107C118.904 12.5107 120.886 14.8724 120.886 19.5958V30.2554C120.886 31.0852 120.502 31.4682 119.671 31.4682H118.521C117.754 31.4682 117.306 31.0852 117.306 30.2554V20.3618C117.306 17.7448 116.795 15.7022 113.854 15.7022C110.274 15.7022 107.653 18.7022 107.653 22.532V30.1916C107.653 31.0214 107.27 31.4044 106.439 31.4044H105.288C104.521 31.4044 104.073 31.0214 104.073 30.1916V14.1065H104.137Z" fill="#8B8B8B"/>
<path d="M125.553 28.788C125.553 27.9582 125.936 27.5752 126.767 27.5752H128.174C129.005 27.5752 129.388 27.9582 129.388 28.788V30.1922C129.388 31.022 129.005 31.405 128.174 31.405H126.767C125.936 31.405 125.553 31.022 125.553 30.1922V28.788Z" fill="#8B8B8B"/>
<path d="M142.877 12.4473C146.009 12.4473 147.991 13.66 149.014 14.426C149.653 14.809 149.653 15.4473 149.206 16.0856L148.822 16.66C148.375 17.2983 147.863 17.3622 147.16 16.9792C146.393 16.4047 144.987 15.5749 143.005 15.5749C139.297 15.5749 136.548 18.3834 136.548 22.1494C136.548 25.9154 139.233 28.7877 143.069 28.7877C145.306 28.7877 146.904 27.7664 147.799 27.1281C148.439 26.6813 149.014 26.7451 149.461 27.4473L149.781 28.0217C150.165 28.66 150.037 29.2345 149.461 29.6175C148.439 30.4473 146.201 31.9154 142.877 31.9154C137.06 31.9154 132.968 27.7664 132.968 22.2132C132.968 16.66 137.06 12.4473 142.877 12.4473Z" fill="#8B8B8B"/>
<path d="M162.183 12.4473C167.744 12.4473 172.219 16.5324 172.219 22.0856C172.219 27.7026 167.744 31.8515 162.183 31.8515C156.621 31.8515 152.21 27.7664 152.21 22.0856C152.21 16.4685 156.685 12.4473 162.183 12.4473ZM162.183 28.7877C165.699 28.7877 168.576 25.9792 168.576 22.1494C168.576 18.3196 165.699 15.5749 162.183 15.5749C158.731 15.5749 155.79 18.3196 155.79 22.1494C155.79 25.9792 158.731 28.7877 162.183 28.7877Z" fill="#8B8B8B"/>
<path d="M176.119 14.1065C176.119 13.2767 176.566 12.8937 177.334 12.8937H178.356C179.187 12.8937 179.571 13.2767 179.571 14.1065V15.7661C179.571 16.3405 179.443 16.8512 179.443 16.8512H179.507C180.402 14.681 183.023 12.5107 185.964 12.5107C189.096 12.5107 190.886 13.915 191.525 16.7235H191.589C192.548 14.5533 195.169 12.5107 198.174 12.5107C202.393 12.5107 204.311 14.8724 204.311 19.5958V30.2554C204.311 31.0852 203.927 31.4682 203.096 31.4682H201.945C201.178 31.4682 200.731 31.0852 200.731 30.2554V20.298C200.731 17.681 200.219 15.6384 197.471 15.6384C194.018 15.6384 191.973 19.2129 191.973 22.7235V30.1278C191.973 30.9576 191.589 31.3405 190.822 31.3405H189.671C188.904 31.3405 188.521 30.9576 188.521 30.1278V20.298C188.521 17.8724 188.137 15.6384 185.324 15.6384C181.808 15.6384 179.763 19.2767 179.763 22.7235V30.1278C179.763 30.9576 179.379 31.3405 178.548 31.3405H177.397C176.63 31.3405 176.183 30.9576 176.183 30.1278V14.1065H176.119Z" fill="#8B8B8B"/>
</svg>
