<svg width="211" height="45" viewBox="0 0 211 45" fill="none" xmlns="http://www.w3.org/2000/svg">
<path d="M73.6022 21.3894C73.6022 20.949 73.391 20.5086 73.007 20.2214C72.3543 19.7426 71.4327 19.8767 70.9527 20.5086C60.8347 33.9894 51.9838 40.9788 43.9009 41.8214C35.4341 42.7213 28.5223 36.7086 21.8218 30.8873C18.7499 28.2256 15.582 25.4682 12.3181 23.4384C10.5134 22.3086 8.82387 21.4852 7.15354 20.9107C5.27201 20.2596 3.37128 19.9341 1.50895 19.9341C0.702581 19.9341 0.0498047 20.5852 0.0498047 21.3894C0.0498047 22.1937 0.702581 22.8448 1.50895 22.8448C8.0943 22.8448 13.8349 27.8235 19.9019 33.0894C23.3961 36.1341 27.0248 39.2745 30.9414 41.5341C35.4917 44.1575 39.8307 45.2107 44.2273 44.732C46.3393 44.5022 48.4896 43.9277 50.6591 43.0086C52.9054 42.032 55.2285 40.6724 57.5708 38.9107C59.9899 37.0916 62.5242 34.8128 65.0778 32.132C67.7272 29.3362 70.5111 26.0235 73.3142 22.2703C73.5062 22.0022 73.6022 21.6958 73.6022 21.3894Z" fill="black"/>
<path d="M73.6021 21.3889C73.6021 21.0634 73.487 20.7187 73.2566 20.4506C72.7382 19.8378 71.8166 19.7612 71.1831 20.2783C64.1753 26.2144 58.1659 28.5889 52.291 27.7464C47.0688 26.9995 42.5953 23.8208 37.8531 20.4506C33.0341 17.0421 28.0615 13.4995 22.0713 12.5613C18.8074 12.0442 15.5627 12.3506 12.1837 13.4995C8.47822 14.7442 4.67676 16.9655 0.606517 20.2591C-0.0270593 20.7761 -0.123057 21.6953 0.395324 22.3081C0.913704 22.94 1.83527 23.0357 2.44965 22.5187C9.45738 16.8315 15.7355 14.5336 21.6297 15.4527C26.9287 16.2761 31.4022 19.4549 36.1636 22.8251C40.9826 26.2336 45.9552 29.7761 51.8878 30.6378C55.1325 31.1166 58.3387 30.7527 61.6794 29.5464C65.3465 28.2251 69.0711 25.9272 73.103 22.5187C73.4294 22.2123 73.6021 21.791 73.6021 21.3889Z" fill="black"/>
<path d="M73.6022 21.3894C73.6022 20.9298 73.3911 20.4894 72.9879 20.2021C68.1689 16.7936 63.849 14.4191 59.7404 12.9255C55.9965 11.566 52.5215 10.9723 49.104 11.1064C46.2433 11.2213 43.3826 11.8723 40.3491 13.0979C37.6996 14.1702 35.1845 15.5489 32.7462 16.9085C24.4329 21.5042 16.5804 25.8511 2.08496 20.0489C1.33619 19.7425 0.472226 20.1064 0.184237 20.8532C-0.122951 21.6 0.241834 22.4617 0.990606 22.7489C4.75366 24.2617 8.22873 25.1617 11.6078 25.5447C14.6413 25.8702 17.5212 25.7745 20.3819 25.2C25.6617 24.1659 29.9815 21.7723 34.1669 19.4553C44.0162 14.017 52.5022 9.30638 71.2983 22.5766C71.9511 23.0362 72.8727 22.883 73.3335 22.2319C73.5255 21.9638 73.6022 21.6766 73.6022 21.3894Z" fill="black"/>
<path d="M73.6021 21.3894C73.6021 21.0831 73.5061 20.7767 73.3141 20.5086C68.2455 13.8065 63.6953 8.90434 59.3755 5.55327C55.3244 2.41285 51.5614 0.670293 47.8367 0.229867C45.9552 8.01086e-05 44.0545 0.134123 42.1729 0.574549C40.5026 0.976677 38.813 1.66604 37.0467 2.62349C33.8212 4.38519 30.8454 6.8554 27.6775 9.44051C20.4201 15.415 12.9132 21.5809 1.77765 19.915C0.971285 19.8001 0.222514 20.3363 0.107318 21.1405C-0.0078777 21.9448 0.529704 22.6916 1.33607 22.8065C13.758 24.6831 22.1481 17.7894 29.5398 11.7001C35.6452 6.68306 40.925 2.33625 47.5103 3.10221C50.6974 3.48519 53.9805 5.0171 57.5899 7.832C61.6986 11.0299 66.076 15.7405 70.991 22.232C71.471 22.8831 72.3926 22.998 73.0454 22.5192C73.4101 22.2703 73.6021 21.8299 73.6021 21.3894Z" fill="black"/>
<path d="M88.6929 11.9297H98.7917C102.44 11.9297 104.321 14.2467 104.321 16.8127C104.321 19.2254 102.824 20.8339 101.019 21.1978C103.054 21.5233 104.705 23.4956 104.705 25.9084C104.705 28.7808 102.785 31.0786 99.1181 31.0786H88.6929V11.9297ZM97.8893 19.6276C99.2717 19.6276 100.136 18.7467 100.136 17.502C100.136 16.3339 99.2717 15.4148 97.8893 15.4148H92.7631V19.6276H97.8893ZM98.0429 27.6127C99.5981 27.6127 100.52 26.7318 100.52 25.3531C100.52 24.1467 99.6557 23.1127 98.0429 23.1127H92.7823V27.6127H98.0429Z" fill="black"/>
<path d="M107.777 11.9297H111.866V31.0786H107.777V11.9297Z" fill="black"/>
<path d="M120.103 15.5301H114.497V11.9492H129.818V15.5301H124.231V31.0982H120.122V15.5301H120.103Z" fill="black"/>
<path d="M139.513 24.2233H136.518V31.0786H132.429V11.9297H141.414C145.407 11.9297 147.865 14.5339 147.865 18.0956C147.865 21.485 145.734 23.285 143.66 23.7829L147.98 31.0786H143.296L139.513 24.2233ZM140.8 15.4339H136.518V20.7191H140.8C142.432 20.7191 143.68 19.685 143.68 18.0765C143.68 16.468 142.451 15.4339 140.8 15.4339Z" fill="black"/>
<path d="M150.937 11.9297H155.026V31.0786H150.937V11.9297Z" fill="black"/>
<path d="M156.793 11.9297H161.458L166.776 26.6552L172.075 11.9297H176.741L169.349 31.0786H164.223L156.793 11.9297Z" fill="black"/>
<path d="M178.526 11.9297H192.119V15.4339H182.616V19.5893H191.908V23.0935H182.616V27.5361H192.119V31.0595H178.526V11.9297Z" fill="black"/>
<path d="M202.41 24.2233H199.415V31.0786H195.326V11.9297H204.311C208.304 11.9297 210.762 14.5339 210.762 18.0956C210.762 21.485 208.631 23.285 206.557 23.7829L210.877 31.0786H206.192L202.41 24.2233ZM203.697 15.4339H199.415V20.7191H203.697C205.328 20.7191 206.576 19.685 206.576 18.0765C206.576 16.468 205.348 15.4339 203.697 15.4339Z" fill="black"/>
</svg>
