<svg width="42" height="42" viewBox="0 0 42 42" fill="none" xmlns="http://www.w3.org/2000/svg">
<circle cx="21" cy="21" r="21" fill="#BF9559"/>
<path d="M29.1257 24.0871L24.8984 22.2844C24.6803 22.1866 24.4408 22.1461 24.2027 22.1666C23.9645 22.1871 23.7355 22.268 23.5373 22.4016L21.2749 23.9068C19.8961 23.2372 18.7797 22.1271 18.1022 20.7521L19.5984 18.4627C19.7311 18.2642 19.8122 18.0358 19.8342 17.7981C19.8563 17.5605 19.8186 17.321 19.7246 17.1016L17.9129 12.8743C17.7865 12.5888 17.5724 12.351 17.3018 12.1955C17.0311 12.0399 16.7179 11.9745 16.4076 12.009C15.1904 12.1684 14.0726 12.7644 13.2618 13.6862C12.4511 14.608 12.0027 15.7929 12 17.0205C12 24.1772 17.8228 30 24.9795 30C26.2071 29.9973 27.392 29.5489 28.3138 28.7382C29.2356 27.9275 29.8316 26.8096 29.991 25.5924C30.0255 25.2821 29.9601 24.9689 29.8045 24.6982C29.649 24.4276 29.4112 24.2135 29.1257 24.0871Z" fill="white"/>
</svg>
