<svg width="249" height="51" viewBox="0 0 249 51" fill="none" xmlns="http://www.w3.org/2000/svg">
<g clip-path="url(#clip0_101_14)">
<path d="M110.31 38.3453V13.0653H115.878V15.3923H115.97C116.791 14.3423 118.8 12.2443 122.907 12.2443C128.748 12.2443 132.765 16.4423 132.765 23.5603V38.3453H126.695V24.9293C126.695 19.2713 124.002 17.9933 121.629 17.9933C116.699 17.9933 116.38 22.6933 116.38 24.9293V38.3453H110.31ZM99.3571 10.1353V4.57827H105.427V10.1353H99.3571ZM99.3571 38.3353V13.0653H105.427V38.3353H99.3571ZM86.7151 38.3453V18.4503H84.5701V13.0653H86.7151V12.7913C86.7151 7.13327 90.2751 4.03027 95.4781 4.03027H96.6181V10.0993H95.8431C93.7431 10.0993 92.7851 11.5143 92.7851 12.7913V13.0653H96.6191V18.4503H92.7851V38.3453H86.7151Z" fill="white"/>
<path d="M235.038 17.8306C230.523 17.8306 227.696 21.4806 227.696 25.5876C227.696 29.6946 230.569 33.2536 235.038 33.2536C239.508 33.2536 242.381 29.6936 242.381 25.5876C242.381 21.4806 239.554 17.8306 235.038 17.8306ZM235.038 12.0806C242.794 12.0806 248.451 18.1956 248.451 25.5876C248.451 32.9346 242.749 39.0036 235.038 39.0036C227.328 39.0036 221.626 32.9336 221.626 25.5876C221.626 18.1956 227.283 12.0806 235.038 12.0806ZM205.921 17.8306C201.497 17.8306 198.487 21.1156 198.487 25.5416C198.487 30.3786 201.588 33.2536 205.693 33.2536C210.026 33.2536 213.173 29.9686 213.173 25.4966C213.173 22.1196 211.029 17.8306 205.921 17.8306ZM192.781 46.6236V12.9016H198.35V16.1876H198.441C200.586 12.6736 204.602 12.0806 206.565 12.0806C213.456 12.0806 219.252 17.3736 219.252 25.5416C219.252 32.4776 214.597 39.0036 206.565 39.0036C204.511 39.0036 201.316 38.4556 198.943 35.4436H198.852V46.6236H192.781ZM164.942 38.1816L173.477 25.2216L165.627 12.9016H172.701L177.493 20.4766L182.285 12.9016H189.359L181.327 25.2216L190.135 38.1816H182.65L177.539 30.0136L172.427 38.1816H164.942ZM143.355 22.8506H157.047C156.18 19.6566 153.487 17.8306 150.383 17.8306C147.052 17.8306 144.359 19.8386 143.355 22.8506ZM163.254 28.2356H143.446C144.222 31.3386 146.824 33.2546 150.064 33.2546C152.026 33.2546 154.217 32.7066 155.724 30.8816H162.569C159.192 38.9126 151.479 39.0046 150.292 39.0046C141.21 39.0046 136.92 31.5206 136.92 25.7246C136.92 19.9306 141.256 12.0816 150.383 12.0816C158.096 12.0816 163.391 18.0136 163.391 25.5426C163.391 26.4556 163.391 27.3226 163.254 28.2356ZM55.0349 34.2276C58.1738 34.2612 61.0887 32.6059 62.6679 29.893C64.2471 27.1801 64.2471 23.828 62.6679 21.1151C61.0887 18.4023 58.1738 16.747 55.0349 16.7806C51.8961 16.747 48.9812 18.4023 47.4019 21.1151C45.8227 23.828 45.8227 27.1801 47.4019 29.893C48.9812 32.6059 51.8961 34.2612 55.0349 34.2276Z" fill="white"/>
<g opacity="0.7">
<path opacity="0.7" d="M35.5729 14.7635C38.2305 14.7944 40.6996 13.3943 42.0374 11.0978C43.3753 8.80122 43.3753 5.96278 42.0374 3.66623C40.6996 1.36967 38.2305 -0.0304313 35.5729 0.000502176C32.9153 -0.0304313 30.4462 1.36967 29.1083 3.66623C27.7705 5.96278 27.7705 8.80122 29.1083 11.0978C30.4462 13.3943 32.9153 14.7944 35.5729 14.7635ZM35.5729 51.0035C38.2305 51.0344 40.6996 49.6343 42.0374 47.3378C43.3753 45.0412 43.3753 42.2028 42.0374 39.9062C40.6996 37.6097 38.2305 36.2096 35.5729 36.2405C32.9153 36.2096 30.4462 37.6097 29.1083 39.9062C27.7705 42.2028 27.7705 45.0412 29.1083 47.3378C30.4462 49.6343 32.9153 51.0344 35.5729 51.0035ZM35.5729 32.8835C38.2305 32.9144 40.6996 31.5143 42.0374 29.2178C43.3753 26.9212 43.3753 24.0828 42.0374 21.7862C40.6996 19.4897 38.2305 18.0896 35.5729 18.1205C32.9153 18.0896 30.4462 19.4897 29.1083 21.7862C27.7705 24.0828 27.7705 26.9212 29.1083 29.2178C30.4462 31.5143 32.9153 32.9144 35.5729 32.8835Z" fill="white"/>
</g>
<path opacity="0.6" d="M18.79 31.5395C22.1258 31.5395 24.83 28.8353 24.83 25.4995C24.83 22.1637 22.1258 19.4595 18.79 19.4595C15.4542 19.4595 12.75 22.1637 12.75 25.4995C12.75 28.8353 15.4542 31.5395 18.79 31.5395Z" fill="white"/>
<path opacity="0.5" d="M4.698 30.1953C7.29263 30.1953 9.396 28.092 9.396 25.4973C9.396 22.9027 7.29263 20.7993 4.698 20.7993C2.10337 20.7993 0 22.9027 0 25.4973C0 28.092 2.10337 30.1953 4.698 30.1953Z" fill="white"/>
</g>
<defs>
<clipPath id="clip0_101_14">
<rect width="249" height="51" fill="white"/>
</clipPath>
</defs>
</svg>
