<svg width="887" height="539" viewBox="0 0 887 539" fill="none" xmlns="http://www.w3.org/2000/svg">
<path d="M663 386H737C737 405.5 731.5 428.5 723.5 452C711.409 481.979 687.5 509.5 661.5 523.5L662.28 452L663 386Z" fill="white"/>
<path d="M401.5 126.5L228.5 2L178.5 51.8896L2 228C56.8 326.8 99 389 240 457L416.5 529.5L444 536.5L661.5 523.5L662.28 452L663 386H737L830 381.5L885 378.5L882 221.5L844.5 220L542 175.5L401.5 126.5Z" fill="white"/>
<path d="M876.5 378.5H885L882 221.5L844.5 220L542 175.5L401.5 126.5L228.5 2L178.5 51.8896M178.5 51.8896L2 228C56.8 326.8 99 389 240 457L416.5 529.5L444 536.5L661.5 523.5M178.5 51.8896L265.5 116.5M285 130L320.5 157.5M340 171L371 194L396 202M421.5 211.5L472 229M503 237L552 249.5M585 257L666 271V298.5M830 381.5L737 386M737 386H663M737 386C737 405.5 731.5 428.5 723.5 452M663 386V328.5M663 386L662.28 452M661.5 523.5C687.5 509.5 711.409 481.979 723.5 452M661.5 523.5L662.28 452M723.5 452H693M662.28 452H681" stroke="#2F2F2F" stroke-width="3"/>
<path d="M194 164H187L183 170.5L187 177H194L198 170.5L194 164Z" fill="#4F4D7F"/>
<path d="M126.5 135.641L117.5 130L108.5 135.641V144.872L117.5 150L126.5 144.872V135.641Z" fill="#AA78FF"/>
<path d="M652.5 499.641L643.5 494L634.5 499.641V508.872L643.5 514L652.5 508.872V499.641Z" fill="#AA78FF"/>
<rect x="280.562" y="134" width="48" height="31" transform="rotate(37.5447 280.562 134)" fill="#8C8BAD"/>
<rect x="364.05" y="197.122" width="54" height="34" transform="rotate(114.973 364.05 197.122)" fill="#FFEE7A"/>
<rect x="285.354" y="205.861" width="67" height="37" transform="rotate(114.973 285.354 205.861)" fill="#FF4B4C"/>
<rect x="328.467" y="275.959" width="54" height="30" transform="rotate(114.973 328.467 275.959)" fill="#6DA4FF"/>
<rect x="359.658" y="289.725" width="54" height="30" transform="rotate(114.973 359.658 289.725)" fill="#6DA4FF"/>
<rect x="295.493" y="350.666" width="54" height="30" transform="rotate(114.973 295.493 350.666)" fill="#6DA4FF"/>
<rect x="326.685" y="364.432" width="54" height="30" transform="rotate(114.973 326.685 364.432)" fill="#6DA4FF"/>
<rect x="397.119" y="212.354" width="54" height="34" transform="rotate(114.973 397.119 212.354)" fill="#FFEE7A"/>
<rect x="232.333" y="14" width="29" height="29" transform="rotate(35.4836 232.333 14)" fill="#6CDF9E"/>
<rect x="264.333" y="36" width="29" height="29" transform="rotate(35.4836 264.333 36)" fill="#6CDF9E"/>
<rect x="296.333" y="59" width="29" height="29" transform="rotate(35.4836 296.333 59)" fill="#6CDF9E"/>
<rect x="329.333" y="84" width="29" height="29" transform="rotate(35.4836 329.333 84)" fill="#6CDF9E"/>
<rect x="362.333" y="109" width="29" height="29" transform="rotate(35.4836 362.333 109)" fill="#6CDF9E"/>
<rect x="391.117" y="131" width="29" height="29" transform="rotate(19.3671 391.117 131)" fill="#6CDF9E"/>
<rect x="264.703" y="426.73" width="29" height="29" transform="rotate(21.1684 264.703 426.73)" fill="#6CDF9E"/>
<rect x="430.117" y="146" width="29" height="29" transform="rotate(19.3671 430.117 146)" fill="#6CDF9E"/>
<rect x="468.117" y="158" width="29" height="29" transform="rotate(19.3671 468.117 158)" fill="#6CDF9E"/>
<rect x="505.117" y="171" width="29" height="29" transform="rotate(19.3671 505.117 171)" fill="#6CDF9E"/>
<rect x="601.274" y="193" width="29" height="29" transform="rotate(7.47858 601.274 193)" fill="#6CDF9E"/>
<rect x="640.274" y="199" width="29" height="29" transform="rotate(7.47858 640.274 199)" fill="#6CDF9E"/>
<rect x="539.033" y="183.573" width="53" height="29" transform="rotate(7.85002 539.033 183.573)" fill="#6DA4FF"/>
<rect x="677.461" y="205" width="53" height="29" transform="rotate(7.85002 677.461 205)" fill="#6DA4FF"/>
<rect x="739.461" y="213" width="53" height="29" transform="rotate(7.85002 739.461 213)" fill="#6DA4FF"/>
<rect x="801.461" y="221" width="53" height="29" transform="rotate(7.85002 801.461 221)" fill="#6DA4FF"/>
<rect x="877.103" y="273.087" width="68" height="37" transform="rotate(88.2675 877.103 273.087)" fill="#FFEE7A"/>
<rect x="120.9" y="117.686" width="54" height="30" transform="rotate(-44.6958 120.9 117.686)" fill="#6DA4FF"/>
<rect x="209.296" y="83" width="54" height="30" transform="rotate(36.3841 209.296 83)" fill="#6DA4FF"/>
<rect x="419.998" y="216.948" width="54" height="30" transform="rotate(19.9291 419.998 216.948)" fill="#6DA4FF"/>
<rect x="412.965" y="282" width="54" height="37" transform="rotate(24.5517 412.965 282)" fill="#FFEE7A"/>
<rect x="395.874" y="318" width="54" height="37" transform="rotate(24.5517 395.874 318)" fill="#FFEE7A"/>
<rect x="363.874" y="381" width="68.1338" height="37" transform="rotate(24.5517 363.874 381)" fill="#FFEE7A"/>
<rect x="391.197" y="477.462" width="52" height="30" transform="rotate(22.0007 391.197 477.462)" fill="#6DA4FF"/>
<rect x="317.738" y="447" width="52" height="30" transform="rotate(22.0007 317.738 447)" fill="#6DA4FF"/>
<rect x="152.764" y="364" width="52" height="30" transform="rotate(32.8283 152.764 364)" fill="#6DA4FF"/>
<rect x="182.615" y="311.612" width="53.9952" height="36" transform="rotate(25.5299 182.615 311.612)" fill="#FFEE7A"/>
<rect x="200.016" y="276" width="53.9952" height="36" transform="rotate(25.5299 200.016 276)" fill="#FFEE7A"/>
<rect x="499.914" y="243" width="54" height="30" transform="rotate(14.308 499.914 243)" fill="#FF4B4C"/>
<rect x="506.573" y="399" width="77" height="38" transform="rotate(0.139183 506.573 399)" fill="#FFEE7A"/>
<rect x="516.67" y="322" width="76" height="42" transform="rotate(7.99093 516.67 322)" fill="#FFEE7A"/>
<rect x="588.612" y="263" width="54" height="30" transform="rotate(9.81212 588.612 263)" fill="#FFEE7A"/>
<rect x="656.5" y="338" width="54" height="30" transform="rotate(90 656.5 338)" fill="#FF4B4C"/>
<rect x="656.5" y="399" width="54" height="30" transform="rotate(90 656.5 399)" fill="#6DA4FF"/>
<path d="M516.368 497.931L524.365 497.733L524.489 502.731C524.517 503.836 523.644 504.753 522.539 504.78L518.541 504.879C517.436 504.907 516.519 504.034 516.492 502.93L516.368 497.931Z" fill="#514F81"/>
<rect x="516.293" y="494.932" width="8" height="2" transform="rotate(-1.42018 516.293 494.932)" fill="#514F81"/>
<path d="M526.364 497.683L534.362 497.485L534.486 502.483C534.513 503.588 533.64 504.505 532.536 504.532L528.537 504.631C527.433 504.659 526.516 503.786 526.488 502.682L526.364 497.683Z" fill="#514F81"/>
<rect x="526.29" y="494.684" width="8" height="2" transform="rotate(-1.42018 526.29 494.684)" fill="#514F81"/>
<path d="M536.361 497.436L544.359 497.237L544.483 502.236C544.51 503.34 543.637 504.257 542.533 504.285L538.534 504.384C537.43 504.411 536.513 503.538 536.485 502.434L536.361 497.436Z" fill="#514F81"/>
<rect x="536.287" y="494.437" width="8" height="2" transform="rotate(-1.42018 536.287 494.437)" fill="#514F81"/>
<path d="M546.358 497.188L554.356 496.989L554.48 501.988C554.507 503.092 553.634 504.009 552.53 504.037L548.531 504.136C547.427 504.163 546.51 503.29 546.482 502.186L546.358 497.188Z" fill="#514F81"/>
<rect x="546.284" y="494.188" width="8" height="2" transform="rotate(-1.42018 546.284 494.188)" fill="#514F81"/>
<path d="M515.971 481.936L523.968 481.738L524.092 486.736C524.12 487.84 523.247 488.758 522.142 488.785L518.144 488.884C517.039 488.912 516.122 488.039 516.095 486.934L515.971 481.936Z" fill="#514F81"/>
<rect x="515.896" y="478.937" width="8" height="2" transform="rotate(-1.42018 515.896 478.937)" fill="#514F81"/>
<path d="M525.968 481.688L533.965 481.49L534.089 486.488C534.117 487.592 533.244 488.51 532.139 488.537L528.141 488.636C527.036 488.664 526.119 487.791 526.092 486.686L525.968 481.688Z" fill="#514F81"/>
<rect x="525.894" y="478.689" width="8" height="2" transform="rotate(-1.42018 525.894 478.689)" fill="#514F81"/>
<path d="M535.965 481.44L543.962 481.242L544.086 486.241C544.114 487.345 543.241 488.262 542.136 488.29L538.138 488.389C537.033 488.416 536.116 487.543 536.089 486.439L535.965 481.44Z" fill="#514F81"/>
<rect x="535.891" y="478.441" width="8" height="2" transform="rotate(-1.42018 535.891 478.441)" fill="#514F81"/>
<path d="M545.962 481.192L553.959 480.994L554.083 485.993C554.111 487.097 553.238 488.014 552.134 488.042L548.135 488.141C547.031 488.168 546.113 487.295 546.086 486.191L545.962 481.192Z" fill="#514F81"/>
<rect x="545.887" y="478.193" width="8" height="2" transform="rotate(-1.42018 545.887 478.193)" fill="#514F81"/>
<path d="M515.574 465.941L523.572 465.743L523.696 470.741C523.723 471.845 522.85 472.763 521.746 472.79L517.747 472.889C516.643 472.917 515.726 472.044 515.698 470.939L515.574 465.941Z" fill="#514F81"/>
<rect x="515.5" y="462.942" width="8" height="2" transform="rotate(-1.42018 515.5 462.942)" fill="#514F81"/>
<path d="M525.571 465.693L533.569 465.495L533.693 470.494C533.72 471.598 532.847 472.515 531.743 472.543L527.744 472.642C526.64 472.669 525.723 471.796 525.695 470.692L525.571 465.693Z" fill="#514F81"/>
<rect x="525.497" y="462.694" width="8" height="2" transform="rotate(-1.42018 525.497 462.694)" fill="#514F81"/>
<path d="M535.568 465.445L543.566 465.247L543.69 470.246C543.717 471.35 542.844 472.267 541.74 472.294L537.741 472.394C536.637 472.421 535.72 471.548 535.692 470.444L535.568 465.445Z" fill="#514F81"/>
<rect x="535.494" y="462.446" width="8" height="2" transform="rotate(-1.42018 535.494 462.446)" fill="#514F81"/>
<path d="M545.565 465.197L553.562 464.999L553.686 469.997C553.714 471.102 552.841 472.019 551.737 472.046L547.738 472.146C546.634 472.173 545.716 471.3 545.689 470.196L545.565 465.197Z" fill="#514F81"/>
<rect x="545.491" y="462.198" width="8" height="2" transform="rotate(-1.42018 545.491 462.198)" fill="#514F81"/>
<path d="M473.438 506.838L481.28 505.252L482.271 510.153C482.49 511.236 481.79 512.291 480.707 512.51L476.786 513.303C475.704 513.522 474.649 512.822 474.43 511.739L473.438 506.838Z" fill="#514F81"/>
<rect x="472.844" y="503.898" width="8" height="2" transform="rotate(-11.4339 472.844 503.898)" fill="#514F81"/>
<path d="M483.24 504.856L491.081 503.271L492.072 508.171C492.291 509.254 491.591 510.309 490.508 510.528L486.588 511.321C485.505 511.54 484.45 510.84 484.231 509.757L483.24 504.856Z" fill="#514F81"/>
<rect x="482.645" y="501.916" width="8" height="2" transform="rotate(-11.4339 482.645 501.916)" fill="#514F81"/>
<path d="M493.042 502.874L500.883 501.288L501.874 506.189C502.093 507.272 501.393 508.327 500.31 508.546L496.389 509.339C495.307 509.558 494.252 508.857 494.033 507.775L493.042 502.874Z" fill="#514F81"/>
<rect x="492.447" y="499.934" width="8" height="2" transform="rotate(-11.4339 492.447 499.934)" fill="#514F81"/>
<path d="M502.843 500.892L510.684 499.306L511.675 504.206C511.894 505.289 511.194 506.344 510.111 506.563L506.191 507.356C505.108 507.575 504.053 506.875 503.834 505.792L502.843 500.892Z" fill="#514F81"/>
<rect x="502.248" y="497.951" width="8" height="2" transform="rotate(-11.4339 502.248 497.951)" fill="#514F81"/>
<path d="M470.267 491.156L478.108 489.57L479.099 494.471C479.318 495.554 478.618 496.609 477.535 496.828L473.615 497.621C472.532 497.84 471.477 497.14 471.258 496.057L470.267 491.156Z" fill="#514F81"/>
<rect x="469.672" y="488.216" width="8" height="2" transform="rotate(-11.4339 469.672 488.216)" fill="#514F81"/>
<path d="M480.068 489.174L487.909 487.588L488.9 492.489C489.119 493.571 488.419 494.627 487.336 494.845L483.416 495.638C482.333 495.857 481.278 495.157 481.059 494.075L480.068 489.174Z" fill="#514F81"/>
<rect x="479.473" y="486.233" width="8" height="2" transform="rotate(-11.4339 479.473 486.233)" fill="#514F81"/>
<path d="M489.87 487.191L497.711 485.606L498.702 490.506C498.921 491.589 498.221 492.644 497.138 492.863L493.218 493.656C492.135 493.875 491.08 493.175 490.861 492.092L489.87 487.191Z" fill="#514F81"/>
<rect x="489.275" y="484.251" width="8" height="2" transform="rotate(-11.4339 489.275 484.251)" fill="#514F81"/>
<path d="M499.671 485.209L507.512 483.623L508.503 488.524C508.722 489.607 508.022 490.662 506.939 490.881L503.019 491.674C501.936 491.893 500.881 491.192 500.662 490.11L499.671 485.209Z" fill="#514F81"/>
<rect x="499.077" y="482.269" width="8" height="2" transform="rotate(-11.4339 499.077 482.269)" fill="#514F81"/>
<path d="M467.095 475.474L474.936 473.888L475.927 478.789C476.146 479.871 475.446 480.926 474.363 481.145L470.443 481.938C469.36 482.157 468.305 481.457 468.086 480.374L467.095 475.474Z" fill="#514F81"/>
<rect x="466.5" y="472.533" width="8" height="2" transform="rotate(-11.4339 466.5 472.533)" fill="#514F81"/>
<path d="M476.896 473.491L484.738 471.905L485.729 476.806C485.948 477.889 485.248 478.944 484.165 479.163L480.244 479.956C479.162 480.175 478.107 479.475 477.888 478.392L476.896 473.491Z" fill="#514F81"/>
<rect x="476.302" y="470.551" width="8" height="2" transform="rotate(-11.4339 476.302 470.551)" fill="#514F81"/>
<path d="M486.698 471.509L494.539 469.923L495.53 474.824C495.749 475.906 495.049 476.961 493.966 477.18L490.046 477.973C488.963 478.192 487.908 477.492 487.689 476.41L486.698 471.509Z" fill="#514F81"/>
<rect x="486.103" y="468.568" width="8" height="2" transform="rotate(-11.4339 486.103 468.568)" fill="#514F81"/>
<path d="M496.5 469.526L504.341 467.94L505.332 472.841C505.551 473.924 504.851 474.979 503.768 475.198L499.847 475.991C498.765 476.21 497.71 475.51 497.491 474.427L496.5 469.526Z" fill="#514F81"/>
<rect x="495.905" y="466.586" width="8" height="2" transform="rotate(-11.4339 495.905 466.586)" fill="#514F81"/>
<path d="M560.208 496.821L568.167 497.63L567.661 502.604C567.55 503.703 566.568 504.503 565.469 504.392L561.49 503.987C560.391 503.875 559.591 502.894 559.702 501.795L560.208 496.821Z" fill="#514F81"/>
<rect x="560.511" y="493.836" width="8" height="2" transform="rotate(5.80373 560.511 493.836)" fill="#514F81"/>
<path d="M570.157 497.832L578.116 498.641L577.61 503.615C577.498 504.714 576.517 505.515 575.418 505.403L571.439 504.998C570.34 504.887 569.539 503.905 569.651 502.806L570.157 497.832Z" fill="#514F81"/>
<rect x="570.46" y="494.847" width="8" height="2" transform="rotate(5.80373 570.46 494.847)" fill="#514F81"/>
<path d="M580.105 498.843L588.064 499.652L587.559 504.626C587.447 505.725 586.466 506.525 585.367 506.414L581.387 506.009C580.288 505.897 579.488 504.916 579.6 503.817L580.105 498.843Z" fill="#514F81"/>
<rect x="580.409" y="495.858" width="8" height="2" transform="rotate(5.80373 580.409 495.858)" fill="#514F81"/>
<path d="M590.054 499.854L598.013 500.663L597.508 505.637C597.396 506.736 596.415 507.537 595.316 507.425L591.336 507.02C590.237 506.909 589.437 505.927 589.549 504.828L590.054 499.854Z" fill="#514F81"/>
<rect x="590.357" y="496.87" width="8" height="2" transform="rotate(5.80373 590.357 496.87)" fill="#514F81"/>
<path d="M561.826 480.903L569.785 481.712L569.279 486.686C569.167 487.785 568.186 488.585 567.087 488.474L563.108 488.069C562.009 487.957 561.208 486.976 561.32 485.877L561.826 480.903Z" fill="#514F81"/>
<rect x="562.129" y="477.918" width="8" height="2" transform="rotate(5.80373 562.129 477.918)" fill="#514F81"/>
<path d="M571.774 481.914L579.733 482.723L579.228 487.697C579.116 488.796 578.135 489.597 577.036 489.485L573.056 489.08C571.957 488.969 571.157 487.987 571.269 486.888L571.774 481.914Z" fill="#514F81"/>
<rect x="572.078" y="478.929" width="8" height="2" transform="rotate(5.80373 572.078 478.929)" fill="#514F81"/>
<path d="M581.723 482.925L589.682 483.734L589.177 488.708C589.065 489.807 588.083 490.607 586.985 490.496L583.005 490.091C581.906 489.979 581.106 488.998 581.218 487.899L581.723 482.925Z" fill="#514F81"/>
<rect x="582.027" y="479.94" width="8" height="2" transform="rotate(5.80373 582.027 479.94)" fill="#514F81"/>
<path d="M591.672 483.936L599.631 484.745L599.125 489.719C599.014 490.818 598.032 491.619 596.933 491.507L592.954 491.102C591.855 490.991 591.055 490.009 591.166 488.91L591.672 483.936Z" fill="#514F81"/>
<rect x="591.976" y="480.952" width="8" height="2" transform="rotate(5.80373 591.976 480.952)" fill="#514F81"/>
<path d="M563.444 464.985L571.403 465.794L570.897 470.768C570.786 471.867 569.804 472.667 568.705 472.556L564.726 472.151C563.627 472.04 562.827 471.058 562.938 469.959L563.444 464.985Z" fill="#514F81"/>
<rect x="563.747" y="462" width="8" height="2" transform="rotate(5.80373 563.747 462)" fill="#514F81"/>
<path d="M573.393 465.996L581.352 466.805L580.846 471.779C580.734 472.878 579.753 473.678 578.654 473.566L574.674 473.162C573.576 473.05 572.775 472.069 572.887 470.97L573.393 465.996Z" fill="#514F81"/>
<rect x="573.696" y="463.011" width="8" height="2" transform="rotate(5.80373 573.696 463.011)" fill="#514F81"/>
<path d="M583.341 467.007L591.3 467.816L590.795 472.79C590.683 473.889 589.702 474.689 588.603 474.578L584.623 474.173C583.524 474.062 582.724 473.08 582.836 471.981L583.341 467.007Z" fill="#514F81"/>
<rect x="583.645" y="464.022" width="8" height="2" transform="rotate(5.80373 583.645 464.022)" fill="#514F81"/>
<path d="M593.29 468.018L601.249 468.827L600.743 473.801C600.632 474.9 599.65 475.701 598.551 475.589L594.572 475.184C593.473 475.073 592.673 474.091 592.784 472.992L593.29 468.018Z" fill="#514F81"/>
<rect x="593.593" y="465.034" width="8" height="2" transform="rotate(5.80373 593.593 465.034)" fill="#514F81"/>
<path d="M114.955 278.544L118.05 285.921L113.44 287.856C112.421 288.283 111.249 287.804 110.822 286.786L109.274 283.097C108.846 282.079 109.326 280.907 110.344 280.479L114.955 278.544Z" fill="#514F81"/>
<rect x="117.721" y="277.383" width="8" height="2" transform="rotate(67.2333 117.721 277.383)" fill="#514F81"/>
<path d="M118.824 287.765L121.92 295.142L117.31 297.077C116.291 297.504 115.119 297.025 114.691 296.007L113.144 292.318C112.716 291.3 113.195 290.127 114.214 289.7L118.824 287.765Z" fill="#514F81"/>
<rect x="121.59" y="286.604" width="8" height="2" transform="rotate(67.2333 121.59 286.604)" fill="#514F81"/>
<path d="M122.694 296.986L125.79 304.363L121.179 306.297C120.161 306.725 118.989 306.246 118.561 305.227L117.013 301.539C116.586 300.52 117.065 299.348 118.083 298.921L122.694 296.986Z" fill="#514F81"/>
<rect x="125.46" y="295.825" width="8" height="2" transform="rotate(67.2333 125.46 295.825)" fill="#514F81"/>
<path d="M126.564 306.207L129.66 313.584L125.049 315.519C124.031 315.946 122.859 315.467 122.431 314.448L120.883 310.76C120.456 309.742 120.935 308.569 121.954 308.142L126.564 306.207Z" fill="#514F81"/>
<rect x="129.33" y="305.046" width="8" height="2" transform="rotate(67.2333 129.33 305.046)" fill="#514F81"/>
<path d="M129.708 272.353L132.804 279.729L128.193 281.664C127.175 282.092 126.003 281.612 125.575 280.594L124.027 276.906C123.6 275.887 124.079 274.715 125.098 274.287L129.708 272.353Z" fill="#514F81"/>
<rect x="132.474" y="271.192" width="8" height="2" transform="rotate(67.2333 132.474 271.192)" fill="#514F81"/>
<path d="M133.578 281.574L136.673 288.95L132.063 290.885C131.045 291.313 129.872 290.834 129.445 289.815L127.897 286.127C127.47 285.108 127.949 283.936 128.967 283.509L133.578 281.574Z" fill="#514F81"/>
<rect x="136.344" y="280.413" width="8" height="2" transform="rotate(67.2333 136.344 280.413)" fill="#514F81"/>
<path d="M137.447 290.794L140.543 298.171L135.933 300.106C134.914 300.533 133.742 300.054 133.315 299.036L131.767 295.347C131.339 294.329 131.818 293.157 132.837 292.729L137.447 290.794Z" fill="#514F81"/>
<rect x="140.214" y="289.633" width="8" height="2" transform="rotate(67.2333 140.214 289.633)" fill="#514F81"/>
<path d="M141.317 300.015L144.413 307.392L139.803 309.327C138.784 309.754 137.612 309.275 137.185 308.257L135.637 304.568C135.209 303.55 135.688 302.377 136.707 301.95L141.317 300.015Z" fill="#514F81"/>
<rect x="144.083" y="298.854" width="8" height="2" transform="rotate(67.2333 144.083 298.854)" fill="#514F81"/>
<path d="M144.461 266.161L147.557 273.538L142.947 275.473C141.928 275.9 140.756 275.421 140.329 274.403L138.781 270.714C138.353 269.696 138.832 268.523 139.851 268.096L144.461 266.161Z" fill="#514F81"/>
<rect x="147.228" y="265" width="8" height="2" transform="rotate(67.2333 147.228 265)" fill="#514F81"/>
<path d="M148.331 275.382L151.427 282.759L146.816 284.693C145.798 285.121 144.626 284.642 144.198 283.623L142.65 279.935C142.223 278.916 142.702 277.744 143.721 277.317L148.331 275.382Z" fill="#514F81"/>
<rect x="151.097" y="274.221" width="8" height="2" transform="rotate(67.2333 151.097 274.221)" fill="#514F81"/>
<path d="M152.201 284.603L155.297 291.979L150.686 293.914C149.668 294.342 148.495 293.862 148.068 292.844L146.52 289.156C146.093 288.137 146.572 286.965 147.59 286.537L152.201 284.603Z" fill="#514F81"/>
<rect x="154.967" y="283.442" width="8" height="2" transform="rotate(67.2333 154.967 283.442)" fill="#514F81"/>
<path d="M156.071 293.824L159.167 301.2L154.556 303.135C153.538 303.563 152.366 303.084 151.938 302.065L150.39 298.377C149.963 297.358 150.442 296.186 151.46 295.759L156.071 293.824Z" fill="#514F81"/>
<rect x="158.837" y="292.663" width="8" height="2" transform="rotate(67.2333 158.837 292.663)" fill="#514F81"/>
<path d="M88.106 240.959L92.8966 247.366L88.8922 250.36C88.0076 251.022 86.7542 250.841 86.0928 249.956L83.6975 246.753C83.036 245.868 83.2169 244.615 84.1016 243.953L88.106 240.959Z" fill="#514F81"/>
<rect x="90.5088" y="239.163" width="8" height="2" transform="rotate(53.214 90.5088 239.163)" fill="#514F81"/>
<path d="M94.0942 248.968L98.8849 255.375L94.8805 258.369C93.9959 259.03 92.7425 258.849 92.0811 257.965L89.6858 254.761C89.0243 253.877 89.2052 252.623 90.0899 251.962L94.0942 248.968Z" fill="#514F81"/>
<rect x="96.4971" y="247.171" width="8" height="2" transform="rotate(53.214 96.4971 247.171)" fill="#514F81"/>
<path d="M100.083 256.977L104.873 263.384L100.869 266.378C99.9841 267.039 98.7308 266.858 98.0693 265.974L95.674 262.77C95.0126 261.885 95.1935 260.632 96.0781 259.971L100.083 256.977Z" fill="#514F81"/>
<rect x="102.485" y="255.18" width="8" height="2" transform="rotate(53.214 102.485 255.18)" fill="#514F81"/>
<path d="M106.071 264.985L110.861 271.392L106.857 274.387C105.972 275.048 104.719 274.867 104.058 273.982L101.662 270.779C101.001 269.894 101.182 268.641 102.066 267.979L106.071 264.985Z" fill="#514F81"/>
<rect x="108.474" y="263.189" width="8" height="2" transform="rotate(53.214 108.474 263.189)" fill="#514F81"/>
<path d="M100.92 231.378L105.711 237.785L101.706 240.779C100.822 241.441 99.5682 241.26 98.9067 240.375L96.5114 237.171C95.85 236.287 96.0309 235.034 96.9155 234.372L100.92 231.378Z" fill="#514F81"/>
<rect x="103.323" y="229.581" width="8" height="2" transform="rotate(53.214 103.323 229.581)" fill="#514F81"/>
<path d="M106.908 239.387L111.699 245.794L107.694 248.788C106.81 249.449 105.556 249.268 104.895 248.384L102.5 245.18C101.838 244.296 102.019 243.042 102.904 242.381L106.908 239.387Z" fill="#514F81"/>
<rect x="109.311" y="237.59" width="8" height="2" transform="rotate(53.214 109.311 237.59)" fill="#514F81"/>
<path d="M112.897 247.396L117.688 253.803L113.683 256.797C112.799 257.458 111.545 257.277 110.884 256.393L108.488 253.189C107.827 252.304 108.008 251.051 108.893 250.39L112.897 247.396Z" fill="#514F81"/>
<rect x="115.299" y="245.599" width="8" height="2" transform="rotate(53.214 115.299 245.599)" fill="#514F81"/>
<path d="M118.885 255.404L123.675 261.811L119.671 264.805C118.786 265.467 117.533 265.286 116.872 264.401L114.476 261.198C113.815 260.313 113.996 259.06 114.88 258.398L118.885 255.404Z" fill="#514F81"/>
<rect x="121.288" y="253.607" width="8" height="2" transform="rotate(53.214 121.288 253.607)" fill="#514F81"/>
<path d="M113.734 221.796L118.525 228.203L114.52 231.198C113.636 231.859 112.382 231.678 111.721 230.793L109.325 227.59C108.664 226.705 108.845 225.452 109.729 224.791L113.734 221.796Z" fill="#514F81"/>
<rect x="116.137" y="220" width="8" height="2" transform="rotate(53.214 116.137 220)" fill="#514F81"/>
<path d="M119.722 229.805L124.513 236.212L120.508 239.206C119.624 239.868 118.37 239.687 117.709 238.802L115.314 235.599C114.652 234.714 114.833 233.461 115.718 232.799L119.722 229.805Z" fill="#514F81"/>
<rect x="122.125" y="228.009" width="8" height="2" transform="rotate(53.214 122.125 228.009)" fill="#514F81"/>
<path d="M125.71 237.814L130.501 244.221L126.497 247.215C125.612 247.877 124.359 247.696 123.697 246.811L121.302 243.608C120.641 242.723 120.821 241.47 121.706 240.808L125.71 237.814Z" fill="#514F81"/>
<rect x="128.113" y="236.018" width="8" height="2" transform="rotate(53.214 128.113 236.018)" fill="#514F81"/>
<path d="M131.699 245.823L136.489 252.23L132.485 255.224C131.6 255.885 130.347 255.704 129.686 254.82L127.29 251.616C126.629 250.732 126.81 249.478 127.694 248.817L131.699 245.823Z" fill="#514F81"/>
<rect x="134.102" y="244.026" width="8" height="2" transform="rotate(53.214 134.102 244.026)" fill="#514F81"/>
<path d="M57.5044 208.472L63.0981 214.191L59.5235 217.688C58.7338 218.46 57.4676 218.446 56.6953 217.656L53.8984 214.796C53.1261 214.007 53.1401 212.741 53.9298 211.968L57.5044 208.472Z" fill="#514F81"/>
<rect x="59.6489" y="206.375" width="8" height="2" transform="rotate(45.6362 59.6489 206.375)" fill="#514F81"/>
<path d="M64.4966 215.622L70.0903 221.341L66.5157 224.837C65.726 225.609 64.4598 225.595 63.6874 224.806L60.8906 221.946C60.1183 221.156 60.1323 219.89 60.922 219.118L64.4966 215.622Z" fill="#514F81"/>
<rect x="66.6411" y="213.524" width="8" height="2" transform="rotate(45.6362 66.6411 213.524)" fill="#514F81"/>
<path d="M71.4888 222.771L77.0825 228.49L73.5079 231.986C72.7182 232.758 71.452 232.744 70.6796 231.954L67.8828 229.095C67.1105 228.305 67.1245 227.039 67.9142 226.267L71.4888 222.771Z" fill="#514F81"/>
<rect x="73.6333" y="220.673" width="8" height="2" transform="rotate(45.6362 73.6333 220.673)" fill="#514F81"/>
<path d="M78.4805 229.92L84.0742 235.639L80.4996 239.135C79.7099 239.908 78.4437 239.894 77.6713 239.104L74.8745 236.244C74.1022 235.455 74.1162 234.188 74.9059 233.416L78.4805 229.92Z" fill="#514F81"/>
<rect x="80.6255" y="227.822" width="8" height="2" transform="rotate(45.6362 80.6255 227.822)" fill="#514F81"/>
<path d="M68.9429 197.285L74.5366 203.004L70.962 206.501C70.1723 207.273 68.9061 207.259 68.1337 206.469L65.3369 203.609C64.5646 202.82 64.5786 201.554 65.3683 200.781L68.9429 197.285Z" fill="#514F81"/>
<rect x="71.0879" y="195.188" width="8" height="2" transform="rotate(45.6362 71.0879 195.188)" fill="#514F81"/>
<path d="M75.9351 204.434L81.5287 210.153L77.9542 213.649C77.1645 214.422 75.8982 214.408 75.1259 213.618L72.3291 210.758C71.5567 209.969 71.5708 208.702 72.3605 207.93L75.9351 204.434Z" fill="#514F81"/>
<rect x="78.0801" y="202.336" width="8" height="2" transform="rotate(45.6362 78.0801 202.336)" fill="#514F81"/>
<path d="M82.9272 211.583L88.5209 217.303L84.9464 220.799C84.1567 221.571 82.8904 221.557 82.1181 220.767L79.3213 217.908C78.5489 217.118 78.563 215.852 79.3527 215.08L82.9272 211.583Z" fill="#514F81"/>
<rect x="85.0718" y="209.486" width="8" height="2" transform="rotate(45.6362 85.0718 209.486)" fill="#514F81"/>
<path d="M89.9194 218.732L95.5131 224.452L91.9385 227.948C91.1489 228.72 89.8826 228.706 89.1103 227.916L86.3135 225.057C85.5411 224.267 85.5552 223.001 86.3449 222.228L89.9194 218.732Z" fill="#514F81"/>
<rect x="92.064" y="216.635" width="8" height="2" transform="rotate(45.6362 92.064 216.635)" fill="#514F81"/>
<path d="M80.3818 186.098L85.9755 191.817L82.401 195.313C81.6113 196.085 80.345 196.071 79.5727 195.282L76.7759 192.422C76.0035 191.632 76.0176 190.366 76.8073 189.594L80.3818 186.098Z" fill="#514F81"/>
<rect x="82.5264" y="184" width="8" height="2" transform="rotate(45.6362 82.5264 184)" fill="#514F81"/>
<path d="M87.3735 193.247L92.9672 198.966L89.3927 202.462C88.603 203.234 87.3367 203.22 86.5644 202.431L83.7676 199.571C82.9952 198.781 83.0093 197.515 83.799 196.743L87.3735 193.247Z" fill="#514F81"/>
<rect x="89.5186" y="191.149" width="8" height="2" transform="rotate(45.6362 89.5186 191.149)" fill="#514F81"/>
<path d="M94.3657 200.396L99.9594 206.115L96.3848 209.611C95.5952 210.384 94.3289 210.37 93.5566 209.58L90.7597 206.72C89.9874 205.931 90.0015 204.664 90.7911 203.892L94.3657 200.396Z" fill="#514F81"/>
<rect x="96.5107" y="198.298" width="8" height="2" transform="rotate(45.6362 96.5107 198.298)" fill="#514F81"/>
<path d="M101.358 207.545L106.952 213.264L103.377 216.76C102.587 217.533 101.321 217.519 100.549 216.729L97.7519 213.869C96.9796 213.08 96.9937 211.813 97.7833 211.041L101.358 207.545Z" fill="#514F81"/>
<rect x="103.503" y="205.447" width="8" height="2" transform="rotate(45.6362 103.503 205.447)" fill="#514F81"/>
<path d="M96.5044 172.285L102.098 178.004L98.5235 181.501C97.7338 182.273 96.4676 182.259 95.6953 181.469L92.8984 178.609C92.1261 177.82 92.1401 176.554 92.9298 175.781L96.5044 172.285Z" fill="#514F81"/>
<rect x="98.6494" y="170.188" width="8" height="2" transform="rotate(45.6362 98.6494 170.188)" fill="#514F81"/>
<path d="M103.497 179.434L109.09 185.153L105.516 188.649C104.726 189.422 103.46 189.408 102.687 188.618L99.8906 185.758C99.1183 184.969 99.1323 183.702 99.922 182.93L103.497 179.434Z" fill="#514F81"/>
<rect x="105.642" y="177.336" width="8" height="2" transform="rotate(45.6362 105.642 177.336)" fill="#514F81"/>
<path d="M110.489 186.583L116.082 192.303L112.508 195.799C111.718 196.571 110.452 196.557 109.68 195.767L106.883 192.908C106.11 192.118 106.125 190.852 106.914 190.08L110.489 186.583Z" fill="#514F81"/>
<rect x="112.633" y="184.486" width="8" height="2" transform="rotate(45.6362 112.633 184.486)" fill="#514F81"/>
<path d="M117.481 193.732L123.075 199.452L119.5 202.948C118.71 203.72 117.444 203.706 116.672 202.916L113.875 200.057C113.103 199.267 113.117 198.001 113.906 197.228L117.481 193.732Z" fill="#514F81"/>
<rect x="119.625" y="191.635" width="8" height="2" transform="rotate(45.6362 119.625 191.635)" fill="#514F81"/>
<path d="M107.943 161.098L113.537 166.817L109.962 170.313C109.173 171.085 107.907 171.071 107.134 170.282L104.337 167.422C103.565 166.632 103.579 165.366 104.369 164.594L107.943 161.098Z" fill="#514F81"/>
<rect x="110.088" y="159" width="8" height="2" transform="rotate(45.6362 110.088 159)" fill="#514F81"/>
<path d="M114.935 168.247L120.529 173.966L116.954 177.462C116.165 178.234 114.898 178.22 114.126 177.431L111.329 174.571C110.557 173.781 110.571 172.515 111.36 171.743L114.935 168.247Z" fill="#514F81"/>
<rect x="117.08" y="166.149" width="8" height="2" transform="rotate(45.6362 117.08 166.149)" fill="#514F81"/>
<path d="M121.927 175.396L127.521 181.115L123.946 184.611C123.157 185.384 121.89 185.37 121.118 184.58L118.321 181.72C117.549 180.931 117.563 179.664 118.353 178.892L121.927 175.396Z" fill="#514F81"/>
<rect x="124.072" y="173.298" width="8" height="2" transform="rotate(45.6362 124.072 173.298)" fill="#514F81"/>
<path d="M128.919 182.545L134.513 188.264L130.939 191.76C130.149 192.533 128.883 192.519 128.11 191.729L125.313 188.869C124.541 188.08 124.555 186.813 125.345 186.041L128.919 182.545Z" fill="#514F81"/>
<rect x="131.064" y="180.447" width="8" height="2" transform="rotate(45.6362 131.064 180.447)" fill="#514F81"/>
<path d="M130.074 208.493L134.913 214.864L130.932 217.888C130.052 218.556 128.798 218.385 128.13 217.505L125.71 214.32C125.042 213.441 125.213 212.186 126.093 211.518L130.074 208.493Z" fill="#514F81"/>
<rect x="132.463" y="206.679" width="8" height="2" transform="rotate(52.7777 132.463 206.679)" fill="#514F81"/>
<path d="M136.123 216.456L140.962 222.826L136.981 225.851C136.101 226.519 134.847 226.348 134.178 225.468L131.759 222.283C131.091 221.403 131.262 220.149 132.142 219.481L136.123 216.456Z" fill="#514F81"/>
<rect x="138.512" y="214.642" width="8" height="2" transform="rotate(52.7777 138.512 214.642)" fill="#514F81"/>
<path d="M142.172 224.419L147.012 230.789L143.03 233.814C142.151 234.482 140.896 234.311 140.228 233.431L137.808 230.246C137.14 229.366 137.311 228.112 138.191 227.443L142.172 224.419Z" fill="#514F81"/>
<rect x="144.561" y="222.604" width="8" height="2" transform="rotate(52.7777 144.561 222.604)" fill="#514F81"/>
<path d="M148.221 232.382L153.06 238.753L149.079 241.777C148.199 242.445 146.945 242.274 146.277 241.394L143.857 238.209C143.189 237.33 143.36 236.075 144.24 235.407L148.221 232.382Z" fill="#514F81"/>
<rect x="150.61" y="230.567" width="8" height="2" transform="rotate(52.7777 150.61 230.567)" fill="#514F81"/>
<path d="M142.815 198.815L147.654 205.185L143.673 208.21C142.793 208.878 141.539 208.707 140.87 207.827L138.451 204.642C137.783 203.762 137.954 202.508 138.833 201.839L142.815 198.815Z" fill="#514F81"/>
<rect x="145.204" y="197" width="8" height="2" transform="rotate(52.7777 145.204 197)" fill="#514F81"/>
<path d="M148.864 206.778L153.703 213.148L149.722 216.173C148.842 216.841 147.587 216.67 146.919 215.79L144.5 212.605C143.831 211.725 144.003 210.471 144.882 209.802L148.864 206.778Z" fill="#514F81"/>
<rect x="151.253" y="204.963" width="8" height="2" transform="rotate(52.7777 151.253 204.963)" fill="#514F81"/>
<path d="M154.913 214.741L159.752 221.111L155.771 224.136C154.891 224.804 153.637 224.632 152.968 223.753L150.549 220.568C149.881 219.688 150.052 218.433 150.932 217.765L154.913 214.741Z" fill="#514F81"/>
<rect x="157.302" y="212.926" width="8" height="2" transform="rotate(52.7777 157.302 212.926)" fill="#514F81"/>
<path d="M160.962 222.704L165.801 229.074L161.82 232.099C160.94 232.767 159.685 232.595 159.017 231.716L156.598 228.531C155.93 227.651 156.101 226.396 156.98 225.728L160.962 222.704Z" fill="#514F81"/>
<rect x="163.351" y="220.889" width="8" height="2" transform="rotate(52.7777 163.351 220.889)" fill="#514F81"/>
<path d="M158.881 249.811L162.17 257.104L157.612 259.159C156.605 259.613 155.421 259.165 154.967 258.158L153.323 254.512C152.868 253.505 153.317 252.321 154.323 251.867L158.881 249.811Z" fill="#514F81"/>
<rect x="161.616" y="248.578" width="8" height="2" transform="rotate(65.7249 161.616 248.578)" fill="#514F81"/>
<path d="M162.992 258.927L166.281 266.22L161.723 268.275C160.716 268.73 159.532 268.281 159.078 267.275L157.433 263.628C156.979 262.621 157.427 261.437 158.434 260.983L162.992 258.927Z" fill="#514F81"/>
<rect x="165.727" y="257.694" width="8" height="2" transform="rotate(65.7249 165.727 257.694)" fill="#514F81"/>
<path d="M167.104 268.043L170.392 275.336L165.835 277.391C164.828 277.845 163.643 277.397 163.189 276.39L161.545 272.744C161.091 271.737 161.539 270.553 162.546 270.099L167.104 268.043Z" fill="#514F81"/>
<rect x="169.838" y="266.81" width="8" height="2" transform="rotate(65.7249 169.838 266.81)" fill="#514F81"/>
<path d="M171.215 277.159L174.504 284.451L169.946 286.507C168.939 286.961 167.755 286.513 167.3 285.506L165.656 281.86C165.202 280.853 165.65 279.668 166.657 279.214L171.215 277.159Z" fill="#514F81"/>
<rect x="173.949" y="275.925" width="8" height="2" transform="rotate(65.7249 173.949 275.925)" fill="#514F81"/>
<path d="M173.466 243.233L176.755 250.526L172.197 252.582C171.19 253.036 170.006 252.588 169.552 251.581L167.907 247.934C167.453 246.927 167.901 245.743 168.908 245.289L173.466 243.233Z" fill="#514F81"/>
<rect x="176.201" y="242" width="8" height="2" transform="rotate(65.7249 176.201 242)" fill="#514F81"/>
<path d="M177.578 252.349L180.867 259.642L176.309 261.697C175.302 262.151 174.117 261.703 173.663 260.696L172.019 257.05C171.565 256.043 172.013 254.859 173.02 254.405L177.578 252.349Z" fill="#514F81"/>
<rect x="180.312" y="251.116" width="8" height="2" transform="rotate(65.7249 180.312 251.116)" fill="#514F81"/>
<path d="M181.689 261.465L184.978 268.757L180.42 270.813C179.413 271.267 178.229 270.819 177.775 269.812L176.13 266.166C175.676 265.159 176.124 263.975 177.131 263.52L181.689 261.465Z" fill="#514F81"/>
<rect x="184.423" y="260.231" width="8" height="2" transform="rotate(65.7249 184.423 260.231)" fill="#514F81"/>
<path d="M185.8 270.581L189.089 277.873L184.531 279.929C183.524 280.383 182.34 279.935 181.885 278.928L180.241 275.282C179.787 274.275 180.235 273.09 181.242 272.636L185.8 270.581Z" fill="#514F81"/>
<rect x="188.535" y="269.348" width="8" height="2" transform="rotate(65.7249 188.535 269.348)" fill="#514F81"/>
<rect x="40.0093" y="248.431" width="80" height="5" transform="rotate(55.5651 40.0093 248.431)" fill="#514F81"/>
<rect x="66.624" y="260" width="32" height="9" transform="rotate(55.5651 66.624 260)" fill="#514F81"/>
<circle cx="186.5" cy="143" r="5" fill="#4F4D7F"/>
<circle cx="201.5" cy="152" r="5" fill="#4F4D7F"/>
<circle cx="211.5" cy="171" r="5" fill="#4F4D7F"/>
<circle cx="210.5" cy="190" r="5" fill="#4F4D7F"/>
<circle cx="195.5" cy="198" r="5" fill="#4F4D7F"/>
<circle cx="178.5" cy="188" r="5" fill="#4F4D7F"/>
<circle cx="169.5" cy="169" r="5" fill="#4F4D7F"/>
<circle cx="170.5" cy="152" r="5" fill="#4F4D7F"/>
<path d="M479.572 370.017L474.083 365.673L466.912 368.287L466.015 375.866L471.504 380.211L478.674 377.596L479.572 370.017Z" fill="#4F4D7F"/>
<circle cx="486.724" cy="348.896" r="5" transform="rotate(38.36 486.724 348.896)" fill="#4F4D7F"/>
<circle cx="492.901" cy="365.262" r="5" transform="rotate(38.36 492.901 365.262)" fill="#4F4D7F"/>
<circle cx="488.95" cy="386.366" r="5" transform="rotate(38.36 488.95 386.366)" fill="#4F4D7F"/>
<circle cx="476.374" cy="400.644" r="5" transform="rotate(38.36 476.374 400.644)" fill="#4F4D7F"/>
<circle cx="459.648" cy="397.608" r="5" transform="rotate(38.36 459.648 397.608)" fill="#4F4D7F"/>
<circle cx="452.524" cy="379.217" r="5" transform="rotate(38.36 452.524 379.217)" fill="#4F4D7F"/>
<circle cx="457.258" cy="358.733" r="5" transform="rotate(38.36 457.258 358.733)" fill="#4F4D7F"/>
<circle cx="468.592" cy="346.024" r="5" transform="rotate(38.36 468.592 346.024)" fill="#4F4D7F"/>
</svg>
