<svg width="211" height="89" viewBox="0 0 211 89" fill="none" xmlns="http://www.w3.org/2000/svg">
<path d="M208.416 59.0081C208.252 59.4971 208.087 59.8231 208.087 60.3121C206.937 65.5282 203.484 68.4623 198.552 69.4403C195.593 70.0923 192.47 69.9293 189.51 70.0923C188.688 70.0923 188.36 69.7663 188.36 68.9513C188.195 65.3652 188.195 65.3652 191.812 65.2022C193.949 65.2022 196.086 65.2022 198.059 64.8762C201.018 64.5502 203.155 62.1051 203.32 59.1711C203.484 52.8139 203.649 46.4568 203.649 40.0996C203.649 36.5136 203.649 36.5136 200.196 36.6766C198.223 36.6766 196.251 36.6766 194.278 37.0026C190.168 37.4916 188.195 40.9147 188.031 45.4788C188.031 51.0209 193.785 54.77 199.539 52.1619C200.196 51.8359 200.689 51.5099 201.676 51.1839C201.676 52.8139 201.84 54.118 201.676 55.585C201.676 56.074 201.018 56.563 200.525 56.889C195.922 59.1711 189.51 57.867 186.222 53.792C184.085 51.0209 182.934 48.0868 183.099 44.5007C183.263 38.6326 188.524 32.9275 194.278 32.7645C198.388 32.6015 202.498 32.6015 206.608 32.4385C207.101 32.4385 207.594 32.6015 208.252 32.7645C208.416 41.4037 208.416 50.2059 208.416 59.0081Z" fill="#DDE0F3"/>
<path d="M33.3309 34.0681C33.8241 33.579 34.1529 33.09 34.8105 32.438C28.0702 31.134 24.1246 35.8611 19.0282 39.2842C22.1518 41.4032 24.9466 43.5223 27.9058 45.1523C29.5498 45.9673 31.8514 45.9673 33.8242 46.1303C33.9886 46.1303 34.1529 45.8043 34.4817 45.6413C34.3173 45.3153 34.3173 44.9893 33.9885 44.6633C33.0022 43.5223 32.1802 42.5442 31.1938 41.4032C31.8514 41.2402 32.509 40.9142 33.1666 40.9142C36.1257 40.4252 38.5917 41.2402 40.5645 43.6853C41.8797 45.3153 43.5237 46.7823 45.0033 48.2494C45.9897 49.3904 45.9897 50.2054 45.0033 51.3464C43.0305 53.4655 41.2221 55.5845 39.0849 57.5406C38.2629 58.1926 37.1121 58.6816 36.1257 58.8446C34.8105 59.0076 33.4954 58.8446 32.1802 58.8446C31.8514 58.8446 31.1938 58.5186 31.0294 58.3556C31.0294 58.0296 31.1938 57.3776 31.5226 57.0516C32.509 55.9105 33.4954 54.9325 34.6461 53.7915C34.6461 53.6285 34.4817 53.4655 34.4817 53.3025C32.8378 53.3025 31.1938 53.4655 29.5498 53.3025C26.2618 52.8135 23.6314 51.1834 21.001 49.3904C19.5214 48.2494 18.0418 47.2714 16.5622 46.1303C13.2743 43.5223 9.65748 42.7072 5.54751 42.8703C4.39671 42.8703 3.41032 42.8703 2.25952 42.8703C2.25952 40.5882 2.25952 38.3062 2.25952 35.6981C4.23231 35.6981 6.2051 35.6981 8.17789 35.6981C10.6439 35.8611 12.9455 35.0461 14.9183 33.579C17.2198 31.949 19.1926 30.156 21.4942 28.6889C24.6178 26.4069 28.0702 24.7768 32.1802 24.9399C33.0022 24.9399 33.8241 24.9399 34.9749 24.6138C33.8241 23.6358 32.6734 22.6578 31.687 21.5168C31.3582 21.1908 31.0294 20.5388 31.1938 20.2127C31.3582 19.8867 32.0158 19.5607 32.509 19.5607C33.8241 19.3977 35.1393 19.3977 36.4545 19.5607C37.4409 19.7237 38.4273 20.2127 39.0849 20.8648C41.0577 22.6578 43.0305 24.7768 45.0033 26.7329C46.3185 28.0369 46.3185 29.0149 45.0033 30.482C43.0305 32.438 41.2221 34.3941 39.2493 36.3501C38.2629 37.3281 37.1121 37.8171 35.7969 37.6541C34.6461 37.6541 33.6597 37.6541 32.509 37.6541C32.0158 37.6541 31.687 37.3281 31.1938 37.1651C31.8514 36.3501 32.509 35.6981 33.0022 34.8831C33.1666 34.5571 33.1666 34.2311 33.3309 34.0681Z" fill="#E9A41E"/>
<path d="M119.805 42.2184C120.791 42.2184 121.613 41.8924 122.271 42.0554C123.915 42.3814 124.572 41.7294 125.23 40.2623C126.381 37.8173 127.86 35.5352 129.011 33.0902C129.34 32.2752 129.833 31.9492 130.82 32.1122C131.97 32.1122 133.286 32.1122 134.765 32.1122C133.614 34.0682 132.628 35.8612 131.642 37.6543C130.655 39.4473 129.669 41.2404 128.518 43.0334C135.423 45.6415 134.765 51.8356 134.93 57.7037C133.45 57.7037 131.97 57.7037 130.162 57.7037C130.162 56.2367 130.162 54.9327 130.162 53.4656C129.998 48.9015 126.874 45.9675 121.942 46.2935C121.284 46.2935 120.627 46.4565 119.969 46.4565C119.969 50.2056 119.969 53.7916 119.969 57.5407C118.49 57.5407 117.01 57.5407 115.531 57.5407C115.531 45.1524 115.531 32.7642 115.531 20.2129C117.01 20.2129 118.325 20.2129 119.969 20.2129C119.805 27.7111 119.805 35.0462 119.805 42.2184Z" fill="#12A7DF"/>
<path d="M153.342 44.9884C152.849 38.3053 158.767 31.6221 166.001 31.7851C173.07 31.9482 178.824 37.3273 178.824 44.8254C178.824 51.9976 173.235 58.3547 165.837 58.3547C158.603 58.5177 152.849 51.1826 153.342 44.9884ZM166.001 36.5123C161.727 36.0232 157.945 40.2613 158.11 44.8254C158.274 50.2046 161.233 53.7906 166.001 53.7906C170.769 53.7906 173.892 50.3676 174.057 45.1515C174.221 40.4243 170.604 35.8602 166.001 36.5123Z" fill="#DDE0F3"/>
<path d="M78.8695 31.9498C86.2675 31.7868 92.0215 37.4919 92.0215 44.9901C92.0215 51.8362 86.9251 58.1934 80.0203 58.5194C71.8004 58.8454 66.8684 52.1622 66.3752 46.1311C65.7176 37.8179 72.1292 31.6238 78.8695 31.9498ZM87.0895 45.1531C87.0895 44.6641 87.0895 44.1751 87.0895 43.6861C86.5963 37.6549 79.6915 34.2318 74.7595 37.6549C70.1564 40.752 69.992 48.7392 74.2664 52.1622C76.8967 54.1183 79.8559 54.4443 82.6507 52.9773C85.7743 51.3472 87.0895 48.5762 87.0895 45.1531Z" fill="#12A7DF"/>
<path d="M57.1689 57.7039C55.5249 57.7039 54.0453 57.7039 52.4013 57.7039C52.4013 57.2149 52.4013 56.7259 52.4013 56.2369C52.4013 50.3688 52.4013 44.5006 52.4013 38.4695C52.4013 37.1655 52.0725 36.5135 50.7573 36.6765C50.2641 36.8395 49.6065 36.6765 48.6201 36.6765C50.0997 35.0464 49.6065 32.4384 52.4013 32.1124C52.4013 31.2973 52.5657 30.4823 52.5657 29.6673C53.5521 24.7772 57.3333 21.1911 62.2652 20.5391C65.3888 20.0501 65.06 19.8871 65.06 23.1472C65.06 23.6362 65.06 24.1252 65.06 24.7772C60.4569 25.1032 56.8401 26.5702 57.0045 32.2754C58.6485 32.2754 60.1281 32.2754 61.7721 32.2754C62.594 32.2754 62.9228 32.6014 62.9228 33.4164C62.9228 34.5574 62.9228 35.5354 62.9228 36.8395C60.9501 36.8395 58.9773 36.8395 57.0045 36.8395C57.1689 43.8486 57.1689 50.6948 57.1689 57.7039Z" fill="#12A7DF"/>
<path d="M140.026 35.2083C140.026 30.8072 140.026 26.4061 140.026 22.168C140.026 20.864 140.355 20.375 141.67 20.375C144.629 20.375 144.629 20.375 144.629 23.4721C144.629 30.8072 144.629 37.9794 144.629 45.3146C144.629 46.7816 144.793 48.2486 144.958 49.7157C145.287 51.8347 146.766 53.1387 149.232 53.1387C150.547 53.1387 150.876 53.6278 150.876 54.7688C150.876 54.9318 150.876 55.2578 150.876 55.5838C150.876 58.1919 150.547 58.3549 147.917 57.8658C147.095 57.7028 146.273 57.5398 145.287 57.3768C142.492 56.7248 141.012 54.7688 140.519 52.1607C140.355 50.5307 140.19 48.9006 140.19 47.2706C140.026 43.3585 140.026 39.2834 140.026 35.2083Z" fill="#DDE0F3"/>
<path d="M112.078 37.0024C109.612 37.0024 107.146 36.8394 104.845 37.0024C102.707 37.1654 101.885 37.9804 101.392 40.2625C101.228 41.5665 101.063 43.0335 101.063 44.3376C101.063 48.7387 101.063 53.3028 101.063 57.7039C99.4195 57.7039 98.1043 57.7039 96.4603 57.7039C96.4603 57.3779 96.2959 56.8888 96.2959 56.5628C96.2959 51.8357 96.2959 47.1086 96.2959 42.3815C96.2959 40.9145 96.6247 39.2845 96.9535 37.8174C97.7755 34.5574 100.077 32.7643 103.201 32.4383C105.667 32.1123 108.297 32.1123 110.763 32.1123C111.092 32.1123 111.749 32.6013 111.749 32.9273C112.078 34.3944 112.078 35.5354 112.078 37.0024Z" fill="#12A7DF"/>
<path d="M31.1938 41.4033C32.1802 42.5443 33.1666 43.5224 33.9886 44.6634C34.153 44.9894 34.3174 45.3154 34.4818 45.6414C33.4954 44.6634 32.3446 43.6854 31.5226 42.7074C31.1938 42.3813 31.3582 41.8923 31.1938 41.4033Z" fill="#EAA51E"/>
<path d="M33.3309 34.0684C33.3309 34.3944 33.3309 34.5574 33.1665 34.8834C32.5089 35.6984 32.0158 36.3504 31.3582 37.1654C31.5226 36.6764 31.3581 36.1874 31.6869 35.8614C32.0157 35.0464 32.6733 34.5574 33.3309 34.0684Z" fill="#EAA41D"/>
</svg>
