<svg width="193" height="57" viewBox="0 0 193 57" fill="none" xmlns="http://www.w3.org/2000/svg">
<g clip-path="url(#clip0_46_631)">
<path d="M185.582 56.8584H7.27488C3.35211 56.8584 0.142578 53.6681 0.142578 49.7688V7.23153C0.142578 3.33228 3.35211 0.141979 7.27488 0.141979H185.582C189.505 0.141979 192.715 3.33228 192.715 7.23153V49.7688C192.715 53.6681 189.505 56.8584 185.582 56.8584Z" fill="white"/>
<path d="M185.852 0H7.14815C3.21667 0 0 3.20625 0 7.125V49.875C0 53.7938 3.21667 57 7.14815 57H185.852C189.783 57 193 53.7938 193 49.875V7.125C193 3.20625 189.783 0 185.852 0ZM185.852 1.14C189.163 1.14 191.856 3.82527 191.856 7.125V49.875C191.856 53.1753 189.163 55.8606 185.852 55.8606H7.14815C3.8377 55.8606 1.1437 53.1753 1.1437 49.875V7.125C1.1437 3.82527 3.8377 1.14 7.14815 1.14H185.852Z" fill="black"/>
<path d="M67.7829 14.666C67.7829 15.854 67.429 16.8 66.7202 17.5057C65.9151 18.3448 64.8658 18.7646 63.5758 18.7646C62.3405 18.7646 61.2902 18.3393 60.4265 17.4874C59.5612 16.6361 59.1294 15.5804 59.1294 14.3209C59.1294 13.0608 59.5612 12.0058 60.4265 11.1539C61.2902 10.3026 62.3405 9.87662 63.5758 9.87662C64.1888 9.87662 64.7756 9.99572 65.3328 10.2334C65.89 10.4716 66.3369 10.7878 66.6712 11.1838L65.9189 11.932C65.3523 11.2591 64.5722 10.9229 63.5758 10.9229C62.6749 10.9229 61.8959 11.2375 61.2384 11.8672C60.5808 12.4976 60.2522 13.3151 60.2522 14.3209C60.2522 15.3268 60.5808 16.1442 61.2384 16.7746C61.8959 17.4043 62.6749 17.7189 63.5758 17.7189C64.5315 17.7189 65.3284 17.4026 65.9663 16.7691C66.3804 16.3563 66.6199 15.7826 66.6839 15.0459H63.5758V14.024H67.7232C67.7633 14.2462 67.7829 14.4594 67.7829 14.666Z" fill="black"/>
<path d="M67.7829 14.6658H67.6403C67.6392 15.8267 67.2981 16.7283 66.6194 17.4052L66.6178 17.4064L66.6172 17.4075C65.8377 18.2177 64.8357 18.621 63.5759 18.6227C62.3735 18.621 61.3671 18.2133 60.5268 17.387C59.6883 16.5589 59.2737 15.5481 59.2721 14.3207C59.2737 13.0928 59.6883 12.0826 60.5268 11.2551C61.3671 10.4281 62.3735 10.0199 63.5759 10.0182C64.1704 10.0182 64.7366 10.1335 65.2765 10.3633C65.817 10.5949 66.2439 10.8983 66.562 11.2751L66.6713 11.1836L66.5705 11.0834L65.8181 11.8322L65.919 11.9318L66.0288 11.8411C65.4358 11.1348 64.6035 10.7788 63.5759 10.7809C62.6415 10.7798 61.8196 11.1116 61.1398 11.7652C60.4534 12.421 60.1084 13.2844 60.1096 14.3207C60.1084 15.3571 60.4534 16.2204 61.1398 16.8762C61.8196 17.5299 62.6415 17.8617 63.5759 17.8605C64.5633 17.8622 65.4047 17.5293 66.0672 16.8691C66.5097 16.4282 66.7605 15.8173 66.8262 15.0579L66.8395 14.9039H63.7185V14.1656H67.7233V14.0238L67.5828 14.0488C67.6219 14.2637 67.6403 14.468 67.6403 14.6658H67.7829H67.9256C67.9256 14.4503 67.9055 14.2288 67.8637 13.9984L67.8426 13.882H63.4332V15.0457V15.1875H66.684V15.0457L66.5419 15.0335C66.479 15.747 66.2505 16.2842 65.8655 16.6686C65.2525 17.2757 64.5004 17.5753 63.5759 17.577C62.7083 17.5758 61.9723 17.2789 61.3376 16.6725C60.7091 16.0682 60.3964 15.2967 60.3949 14.3207C60.3964 13.3448 60.7091 12.5733 61.3376 11.969C61.9723 11.3625 62.7083 11.0656 63.5759 11.0645C64.5405 11.0668 65.2688 11.3835 65.8099 12.0233L65.9101 12.1418L66.7722 11.2838L66.8646 11.192L66.7804 11.0927C66.4299 10.6774 65.9631 10.3477 65.3891 10.103C64.814 9.85757 64.2072 9.73464 63.5759 9.73464C62.3078 9.7335 61.2134 10.1766 60.3257 11.0534C59.4347 11.9286 58.9857 13.0286 58.9868 14.3207C58.9857 15.6123 59.4347 16.7129 60.3263 17.5886C61.2134 18.4649 62.3078 18.9074 63.5759 18.9062C64.8965 18.9074 65.992 18.4714 66.8234 17.6035L66.7202 17.5055L66.8211 17.6057C67.56 16.8718 67.9266 15.8804 67.9256 14.6658H67.7829Z" fill="black"/>
<path d="M74.3578 11.1129H70.4601V13.8103H73.9751V14.8326H70.4601V17.5301H74.3578V18.5752H69.3613V10.0677H74.3578V11.1129Z" fill="black"/>
<path d="M74.3579 11.1127V10.9709H70.3176V13.9519H73.8325V14.6902L70.3176 14.6906V17.6717H74.2152V18.4332H69.504V10.2093H74.2152V11.1127H74.3579V10.9709V11.1127H74.5005V10.0675V9.92575H69.2188V18.7168H74.5005V17.5299V17.3881H70.6028V14.9742H74.1178V13.8101V13.6683H70.6028V11.2545H74.5005V11.1127H74.3579Z" fill="black"/>
<path d="M78.9959 18.5752H77.8953V11.1129H75.5049V10.0677H81.3863V11.1129H78.9959V18.5752Z" fill="black"/>
<path d="M78.9959 18.575V18.4332H78.0381V10.9709H75.6476V10.2093H81.2437V10.9709H78.8533V18.575H78.9959V18.4332V18.575H79.1386V11.2545H81.529V10.0675V9.92575H75.3623V11.1127V11.2545H77.7528V18.7168H78.9959H79.1386V18.575H78.9959Z" fill="black"/>
<path d="M85.6416 18.5752V10.0677H86.741V18.5752H85.6416Z" fill="black"/>
<path d="M85.6417 18.575H85.7843V10.2093H86.5984V18.4332H85.6417V18.575H85.7843H85.6417V18.7168H86.741H86.8837V9.92575H85.6417H85.499V18.7168H85.6417V18.575Z" fill="black"/>
<path d="M91.6192 18.5752H90.5187V11.1129H88.1284V10.0677H94.0097V11.1129H91.6192V18.5752Z" fill="black"/>
<path d="M91.6193 18.575V18.4332H90.6614V10.9709H88.2711V10.2093H93.8671V10.9709H91.4767V18.575H91.6193V18.4332V18.575H91.762V11.2545H94.1524V10.0675V9.92575H87.9858V11.1127V11.2545H90.3762V18.7168H91.6193H91.762V18.575H91.6193Z" fill="black"/>
<path d="M99.6797 16.763C100.313 17.4005 101.088 17.7189 102.005 17.7189C102.922 17.7189 103.697 17.4005 104.33 16.763C104.964 16.1255 105.281 15.3106 105.281 14.3209C105.281 13.3312 104.964 12.5163 104.33 11.8788C103.697 11.2414 102.922 10.9229 102.005 10.9229C101.088 10.9229 100.313 11.2414 99.6797 11.8788C99.0472 12.5163 98.7297 13.3312 98.7297 14.3209C98.7297 15.3106 99.0472 16.1255 99.6797 16.763ZM105.143 17.4752C104.302 18.3353 103.255 18.7646 102.005 18.7646C100.753 18.7646 99.7075 18.3353 98.8679 17.4752C98.0259 16.6161 97.6069 15.5644 97.6069 14.3209C97.6069 13.0774 98.0259 12.0256 98.8679 11.1666C99.7075 10.3064 100.753 9.87662 102.005 9.87662C103.249 9.87662 104.292 10.3087 105.138 11.1722C105.982 12.0357 106.404 13.0852 106.404 14.3209C106.404 15.5644 105.983 16.6161 105.143 17.4752Z" fill="black"/>
<path d="M99.6803 16.7628L99.5789 16.8625C100.236 17.5255 101.056 17.8622 102.006 17.8605C102.955 17.8622 103.776 17.5255 104.432 16.8625C105.093 16.1989 105.426 15.3403 105.425 14.3207C105.426 13.3011 105.093 12.4426 104.432 11.779C103.776 11.116 102.955 10.7792 102.006 10.7809C101.056 10.7792 100.236 11.116 99.5789 11.779C98.9191 12.4426 98.5859 13.3011 98.5876 14.3207C98.5859 15.3403 98.9191 16.1989 99.5789 16.8625L99.6803 16.7628L99.7817 16.6631C99.1766 16.051 98.874 15.2811 98.8729 14.3207C98.874 13.3604 99.1766 12.5905 99.7817 11.9783C100.392 11.3664 101.122 11.0662 102.006 11.0645C102.889 11.0662 103.62 11.3664 104.229 11.9783C104.835 12.5905 105.138 13.3604 105.139 14.3207C105.138 15.2811 104.835 16.051 104.229 16.6631C103.62 17.2751 102.889 17.5753 102.006 17.577C101.122 17.5753 100.392 17.2751 99.7817 16.6631L99.6803 16.7628ZM105.144 17.475L105.042 17.3765C104.224 18.2095 103.224 18.621 102.006 18.6227C100.787 18.621 99.7867 18.2095 98.9703 17.3765L98.9665 17.3721L98.9703 17.3765C98.1541 16.5406 97.7513 15.5326 97.7501 14.3207C97.7513 13.1088 98.1541 12.1008 98.9703 11.265C99.7867 10.432 100.787 10.0199 102.006 10.0182C103.216 10.0199 104.214 10.4337 105.036 11.2711C105.855 12.1108 106.26 13.1172 106.262 14.3207C106.26 15.5326 105.856 16.5406 105.042 17.3765L105.144 17.475L105.246 17.5736C106.111 16.6908 106.548 15.5957 106.547 14.3207C106.548 13.053 106.109 11.9602 105.241 11.0734C104.371 10.1833 103.283 9.73308 102.006 9.73464C100.722 9.73308 99.6296 10.1811 98.7659 11.0679V11.0673C97.8995 11.9507 97.4637 13.0457 97.4648 14.3207C97.4637 15.5957 97.8995 16.6908 98.7659 17.5741L98.7698 17.5781L98.7659 17.5736C99.6296 18.4603 100.722 18.9074 102.006 18.9062C103.289 18.9074 104.381 18.4603 105.246 17.5736L105.144 17.475Z" fill="black"/>
<path d="M107.948 18.5752V10.0677H109.286L113.446 16.686H113.493L113.446 15.0464V10.0677H114.546V18.5752H113.398L109.047 11.6362H108.999L109.047 13.2763V18.5752H107.948Z" fill="black"/>
<path d="M107.948 18.575H108.09V10.2093H109.207L113.367 16.8276H113.493H113.64L113.588 15.0441V10.2093H114.404V18.4332H113.478L109.126 11.4942H108.999H108.853L108.904 13.2784V18.4332H107.948V18.575H108.09H107.948V18.7168H109.047H109.189V13.2739L109.142 11.6322L108.999 11.636V11.7778H109.047V11.636L108.926 11.7115L113.319 18.7168H114.546H114.689V9.92575H113.446H113.303V15.048L113.351 16.6896L113.493 16.6858V16.544H113.446V16.6858L113.567 16.6105L109.365 9.92575H107.948H107.805V18.7168H107.948V18.575Z" fill="black"/>
<path d="M152.682 42.6793H155.344V24.9537H152.682V42.6793ZM176.657 31.3389L173.606 39.0238H173.514L170.348 31.3389H167.481L172.229 42.0799L169.522 48.0546H172.299L179.617 31.3389H176.657ZM161.562 40.666C160.689 40.666 159.474 40.2328 159.474 39.1606C159.474 37.7925 160.989 37.268 162.295 37.268C163.466 37.268 164.016 37.5188 164.727 37.8612C164.521 39.5029 163.098 40.666 161.562 40.666ZM161.883 30.9511C159.956 30.9511 157.96 31.7951 157.134 33.6651L159.497 34.6454C160.002 33.6651 160.942 33.3455 161.929 33.3455C163.305 33.3455 164.705 34.1669 164.727 35.6263V35.8085C164.245 35.5349 163.214 35.1245 161.952 35.1245C159.405 35.1245 156.812 36.5152 156.812 39.1151C156.812 41.4868 158.9 43.0149 161.24 43.0149C163.03 43.0149 164.016 42.2168 164.636 41.2819H164.727V42.6499H167.297V35.8539C167.297 32.7074 164.934 30.9511 161.883 30.9511ZM145.433 33.4966H141.647V27.4207H145.433C147.423 27.4207 148.553 29.0584 148.553 30.4586C148.553 31.8323 147.423 33.4966 145.433 33.4966ZM145.365 24.9537H138.987V42.6793H141.647V35.9636H145.365C148.315 35.9636 151.215 33.8406 151.215 30.4586C151.215 27.0768 148.315 24.9537 145.365 24.9537ZM110.586 40.6693C108.747 40.6693 107.208 39.1389 107.208 37.037C107.208 34.913 108.747 33.3594 110.586 33.3594C112.402 33.3594 113.826 34.913 113.826 37.037C113.826 39.1389 112.402 40.6693 110.586 40.6693ZM113.643 32.3314H113.551C112.953 31.6234 111.804 30.9838 110.356 30.9838C107.323 30.9838 104.542 33.6335 104.542 37.037C104.542 40.4179 107.323 43.0448 110.356 43.0448C111.804 43.0448 112.953 42.4051 113.551 41.6746H113.643V42.5425C113.643 44.85 112.402 46.0834 110.402 46.0834C108.771 46.0834 107.76 44.918 107.345 43.936L105.025 44.8954C105.691 46.4943 107.461 48.459 110.402 48.459C113.528 48.459 116.17 46.6312 116.17 42.1769V31.3493H113.643V32.3314ZM118.009 42.6793H120.675V24.9531H118.009V42.6793ZM124.604 36.8316C124.535 34.5014 126.42 33.3139 127.776 33.3139C128.833 33.3139 129.729 33.8389 130.027 34.5934L124.604 36.8316ZM132.877 34.8215C132.373 33.4734 130.832 30.9838 127.684 30.9838C124.558 30.9838 121.962 33.428 121.962 37.0143C121.962 40.3952 124.535 43.0448 127.982 43.0448C130.763 43.0448 132.373 41.3544 133.039 40.3724L130.97 39.0015C130.281 40.0068 129.338 40.6693 127.982 40.6693C126.627 40.6693 125.662 40.0523 125.041 38.842L133.153 35.5067L132.877 34.8215ZM68.2471 32.8342V35.3925H74.4059C74.222 36.8316 73.7394 37.8822 73.004 38.6133C72.108 39.5045 70.7061 40.4865 68.2471 40.4865C64.4552 40.4865 61.4909 37.4485 61.4909 33.6794C61.4909 29.9103 64.4552 26.8719 68.2471 26.8719C70.2925 26.8719 71.7859 27.6716 72.8891 28.6996L74.7046 26.8951C73.165 25.4328 71.1195 24.3135 68.2471 24.3135C63.0533 24.3135 58.687 28.5168 58.687 33.6794C58.687 38.842 63.0533 43.0448 68.2471 43.0448C71.051 43.0448 73.165 42.1316 74.8194 40.4179C76.52 38.7274 77.0488 36.3519 77.0488 34.4333C77.0488 33.8389 77.003 33.2912 76.9106 32.8342H68.2471ZM84.0508 40.6693C82.2119 40.6693 80.6261 39.1616 80.6261 37.0143C80.6261 34.8442 82.2119 33.3594 84.0508 33.3594C85.8889 33.3594 87.4747 34.8442 87.4747 37.0143C87.4747 39.1616 85.8889 40.6693 84.0508 40.6693ZM84.0508 30.9838C80.6951 30.9838 77.9603 33.5193 77.9603 37.0143C77.9603 40.4865 80.6951 43.0448 84.0508 43.0448C87.4056 43.0448 90.1405 40.4865 90.1405 37.0143C90.1405 33.5193 87.4056 30.9838 84.0508 30.9838ZM97.3357 40.6693C95.4975 40.6693 93.9116 39.1616 93.9116 37.0143C93.9116 34.8442 95.4975 33.3594 97.3357 33.3594C99.1739 33.3594 100.76 34.8442 100.76 37.0143C100.76 39.1616 99.1739 40.6693 97.3357 40.6693ZM97.3357 30.9838C93.9802 30.9838 91.246 33.5193 91.246 37.0143C91.246 40.4865 93.9802 43.0448 97.3357 43.0448C100.691 43.0448 103.426 40.4865 103.426 37.0143C103.426 33.5193 100.691 30.9838 97.3357 30.9838Z" fill="black"/>
<path d="M15.1343 46.0674L15.0283 45.9666C14.6132 45.53 14.3682 44.8521 14.3682 43.9743V44.1809V12.8223C14.3682 12.8195 14.3682 12.8174 14.3682 12.8151C14.3682 12.8178 14.3682 12.8201 14.3682 12.8229V13.0301C14.3682 12.0795 14.6539 11.3635 15.1326 10.9341L32.8062 28.5013L15.1343 46.0674ZM14.3682 12.8134C14.3682 12.7353 14.3703 12.6594 14.3743 12.5847C14.3703 12.6589 14.3682 12.7353 14.3682 12.8134ZM14.3743 12.5813C14.3743 12.5803 14.3743 12.5792 14.3747 12.578C14.3743 12.5792 14.3743 12.5803 14.3743 12.5813ZM14.3747 12.5714C14.3747 12.5708 14.3747 12.5702 14.3747 12.5697C14.3747 12.5702 14.3747 12.5708 14.3747 12.5714Z" fill="url(#paint0_linear_46_631)"/>
<path d="M38.6964 34.5664L38.8308 34.4905L45.8103 30.5486C46.4758 30.1726 46.9193 29.7167 47.1405 29.2344C46.9198 29.7167 46.4762 30.1732 45.8103 30.5492L38.8308 34.4911L38.6964 34.5664ZM38.6981 34.3587L32.8062 28.501L38.6976 22.6443L45.8103 26.661C46.7136 27.1712 47.2207 27.8286 47.3054 28.5004C47.3054 28.501 47.3054 28.5021 47.3054 28.5031C47.2207 29.1734 46.7136 29.8314 45.8103 30.3415L38.6981 34.3587Z" fill="url(#paint1_linear_46_631)"/>
<path d="M16.3944 46.7363C15.9007 46.7363 15.47 46.5768 15.134 46.2755L15.1346 46.2749C15.4705 46.5762 15.9019 46.7363 16.3956 46.7363C16.4384 46.7363 16.4819 46.7352 16.526 46.7331C16.4813 46.7352 16.4372 46.7363 16.3944 46.7363ZM16.395 46.5286C15.9013 46.5292 15.4705 46.3691 15.1346 46.0678V46.0674L32.8064 28.5013L38.6984 34.359L17.9931 46.0529C17.4202 46.3758 16.8774 46.5286 16.395 46.5286ZM15.1296 46.2717C15.0984 46.2435 15.0677 46.2135 15.0376 46.1825L15.1296 46.2717Z" fill="url(#paint2_linear_46_631)"/>
<path d="M32.8064 28.501L15.1328 10.9338C15.4687 10.633 15.899 10.4735 16.3921 10.4735C16.8758 10.4735 17.419 10.6269 17.993 10.9504L38.6978 22.6443L32.8064 28.501ZM38.831 22.512L17.993 10.7434C17.419 10.4198 16.8758 10.2664 16.3921 10.2664C16.3898 10.2664 16.3882 10.2664 16.386 10.2664C16.3888 10.2664 16.3909 10.2664 16.3944 10.2664C16.8769 10.2664 17.4196 10.4192 17.993 10.7428L38.831 22.512Z" fill="url(#paint3_linear_46_631)"/>
<path d="M16.5257 46.7334C16.9742 46.7079 17.4707 46.5545 17.9928 46.2604L38.6964 34.567L17.9928 46.2604C17.4711 46.555 16.9742 46.7079 16.5257 46.7334ZM15.1337 46.2758L15.1293 46.272C15.1309 46.2731 15.1326 46.2747 15.1337 46.2758ZM15.0373 46.1828L15.0283 46.174V46.1735C15.0317 46.1767 15.0345 46.18 15.0373 46.1828Z" fill="white"/>
<path d="M38.6963 34.5664L38.8307 34.4906L38.6963 34.5664Z" fill="url(#paint4_linear_46_631)"/>
<path d="M16.3953 46.7363C15.9016 46.7363 15.4702 46.5762 15.1343 46.2749L15.1337 46.2755C15.1326 46.2744 15.1309 46.2728 15.1293 46.2717L15.0373 46.1825C15.0345 46.1797 15.0317 46.1764 15.0283 46.1731L15.1343 46.0678C15.4702 46.3691 15.901 46.5292 16.3947 46.5286C16.8772 46.5286 17.4199 46.3758 17.9928 46.0529L38.6981 34.359L38.8308 34.4908L38.6964 34.5667L17.9928 46.2601C17.4707 46.5541 16.9742 46.7075 16.5257 46.7331C16.4816 46.7352 16.4381 46.7363 16.3953 46.7363Z" fill="url(#paint5_linear_46_631)"/>
<path d="M15.0283 46.1738C14.6132 45.7373 14.3682 45.0593 14.3682 44.1815V44.181C14.3682 45.0593 14.6132 45.7367 15.0283 46.1733V46.1738Z" fill="white"/>
<path d="M15.0283 46.1729C14.6132 45.7363 14.3682 45.0589 14.3682 44.1805V43.974C14.3682 44.8518 14.6132 45.5297 15.0283 45.9663L15.1343 46.0671L15.0283 46.1729Z" fill="url(#paint6_linear_46_631)"/>
<path d="M15.0283 46.1729L15.1343 46.0671V46.0675L15.0283 46.1729Z" fill="url(#paint7_linear_46_631)"/>
<path d="M47.1406 29.2344C47.2503 28.995 47.3055 28.7492 47.3055 28.5032C47.3055 28.5027 47.3055 28.5022 47.3055 28.5022C47.3055 28.7486 47.2503 28.9945 47.1406 29.2344Z" fill="white"/>
<path d="M38.8309 34.4912L38.6982 34.3593L45.8104 30.3421C46.7137 29.8321 47.2208 29.174 47.3055 28.5038C47.3055 28.7498 47.2503 28.9957 47.1406 29.235C46.9194 29.7174 46.4759 30.1732 45.8104 30.5493L38.8309 34.4912Z" fill="url(#paint8_linear_46_631)"/>
<path d="M47.3052 28.501V28.5004C47.3047 27.7587 46.806 27.0171 45.8102 26.4544L38.8306 22.5124H38.8301L38.8306 22.512L45.8102 26.4538C46.8071 27.0166 47.3064 27.7593 47.3052 28.501Z" fill="#404040"/>
<path d="M47.3056 28.501C47.2208 27.8292 46.7137 27.1717 45.8105 26.6615L38.6978 22.6449L38.8304 22.513H38.831L45.8105 26.4549C46.8063 27.0177 47.305 27.7593 47.3056 28.501Z" fill="url(#paint9_linear_46_631)"/>
<path d="M14.3682 12.8154C14.3682 12.8149 14.3682 12.8143 14.3682 12.8137C14.3682 12.8143 14.3682 12.8149 14.3682 12.8154ZM14.3743 12.585C14.3743 12.5839 14.3743 12.5828 14.3743 12.5816C14.3743 12.5828 14.3743 12.5839 14.3743 12.585ZM14.3747 12.5784C14.3747 12.5761 14.3747 12.574 14.3747 12.5717C14.3747 12.574 14.3747 12.5761 14.3747 12.5784ZM14.3747 12.57C14.4573 11.1134 15.2541 10.272 16.3813 10.267C15.8926 10.2699 15.467 10.4294 15.1337 10.7278V10.7273L15.1297 10.7312C15.0947 10.7627 15.0613 10.796 15.0283 10.8304C14.6539 11.2241 14.4177 11.814 14.3747 12.57Z" fill="#404040"/>
<path d="M14.3682 13.0303V12.8231C14.3682 12.8203 14.3682 12.818 14.3682 12.8153C14.3682 12.8148 14.3682 12.8142 14.3682 12.8136C14.3682 12.7355 14.3703 12.6591 14.3743 12.5849C14.3743 12.5838 14.3743 12.5826 14.3743 12.5815C14.3743 12.5805 14.3743 12.5794 14.3747 12.5782C14.3747 12.576 14.3747 12.5738 14.3747 12.5716C14.3747 12.571 14.3747 12.5704 14.3747 12.5699C14.4177 11.8138 14.6539 11.224 15.0283 10.8302L15.1326 10.9343C14.6539 11.3637 14.3682 12.0797 14.3682 13.0303ZM15.1298 10.7311L15.1337 10.7272C15.1326 10.7289 15.1309 10.73 15.1298 10.7311Z" fill="url(#paint10_linear_46_631)"/>
<path d="M38.6976 22.6445L17.9928 10.9506C17.4188 10.6272 16.8756 10.4738 16.3919 10.4738C15.8987 10.4738 15.4685 10.6333 15.1326 10.934L15.0283 10.8299C15.0613 10.7956 15.0947 10.7623 15.1297 10.7308C15.1309 10.7297 15.1326 10.7286 15.1337 10.7274C15.467 10.4289 15.8926 10.2694 16.3813 10.2666C16.3825 10.2666 16.384 10.2666 16.3857 10.2666C16.388 10.2666 16.3896 10.2666 16.3919 10.2666C16.8756 10.2666 17.4188 10.42 17.9928 10.7436L38.8308 22.5122L38.8302 22.5127L38.6976 22.6445Z" fill="url(#paint11_linear_46_631)"/>
</g>
<defs>
<linearGradient id="paint0_linear_46_631" x1="31.239" y1="12.4916" x2="7.4434" y2="36.4307" gradientUnits="userSpaceOnUse">
<stop stop-color="#00A0FF"/>
<stop offset="0.00657445" stop-color="#00A1FF"/>
<stop offset="0.2601" stop-color="#00BEFF"/>
<stop offset="0.5122" stop-color="#00D2FF"/>
<stop offset="0.7604" stop-color="#00DFFF"/>
<stop offset="1" stop-color="#00E3FF"/>
</linearGradient>
<linearGradient id="paint1_linear_46_631" x1="48.4059" y1="28.5019" x2="13.8899" y2="28.5019" gradientUnits="userSpaceOnUse">
<stop stop-color="#FFE000"/>
<stop offset="0.4087" stop-color="#FFBD00"/>
<stop offset="0.7754" stop-color="#FFA500"/>
<stop offset="1" stop-color="#FF9C00"/>
</linearGradient>
<linearGradient id="paint2_linear_46_631" x1="35.5575" y1="31.7558" x2="3.28885" y2="64.219" gradientUnits="userSpaceOnUse">
<stop stop-color="#FF3A44"/>
<stop offset="1" stop-color="#C31162"/>
</linearGradient>
<linearGradient id="paint3_linear_46_631" x1="10.552" y1="0.391471" x2="24.9613" y2="14.8876" gradientUnits="userSpaceOnUse">
<stop stop-color="#32A071"/>
<stop offset="0.0685" stop-color="#2DA771"/>
<stop offset="0.4762" stop-color="#15CF74"/>
<stop offset="0.8009" stop-color="#06E775"/>
<stop offset="1" stop-color="#00F076"/>
</linearGradient>
<linearGradient id="paint4_linear_46_631" x1="48.4055" y1="28.5021" x2="13.8904" y2="28.5021" gradientUnits="userSpaceOnUse">
<stop stop-color="#CCB300"/>
<stop offset="0.4087" stop-color="#CC9700"/>
<stop offset="0.7754" stop-color="#CC8400"/>
<stop offset="1" stop-color="#CC7D00"/>
</linearGradient>
<linearGradient id="paint5_linear_46_631" x1="35.5572" y1="31.7558" x2="3.28855" y2="64.219" gradientUnits="userSpaceOnUse">
<stop stop-color="#CC2E36"/>
<stop offset="1" stop-color="#9C0E4E"/>
</linearGradient>
<linearGradient id="paint6_linear_46_631" x1="31.2391" y1="12.4912" x2="7.44343" y2="36.4304" gradientUnits="userSpaceOnUse">
<stop stop-color="#008DE0"/>
<stop offset="0.00657445" stop-color="#008DE0"/>
<stop offset="0.2601" stop-color="#00A7E0"/>
<stop offset="0.5122" stop-color="#00B8E0"/>
<stop offset="0.7604" stop-color="#00C4E0"/>
<stop offset="1" stop-color="#00C7E0"/>
</linearGradient>
<linearGradient id="paint7_linear_46_631" x1="35.5579" y1="31.7557" x2="3.28963" y2="64.2199" gradientUnits="userSpaceOnUse">
<stop stop-color="#E0333C"/>
<stop offset="1" stop-color="#AB0F56"/>
</linearGradient>
<linearGradient id="paint8_linear_46_631" x1="48.406" y1="28.5025" x2="13.89" y2="28.5025" gradientUnits="userSpaceOnUse">
<stop stop-color="#E0C500"/>
<stop offset="0.4087" stop-color="#E0A600"/>
<stop offset="0.7754" stop-color="#E09100"/>
<stop offset="1" stop-color="#E08900"/>
</linearGradient>
<linearGradient id="paint9_linear_46_631" x1="48.4061" y1="28.5024" x2="13.8901" y2="28.5024" gradientUnits="userSpaceOnUse">
<stop stop-color="#FFE840"/>
<stop offset="0.4087" stop-color="#FFCE40"/>
<stop offset="0.7754" stop-color="#FFBC40"/>
<stop offset="1" stop-color="#FFB540"/>
</linearGradient>
<linearGradient id="paint10_linear_46_631" x1="31.2391" y1="12.4918" x2="7.4434" y2="36.4309" gradientUnits="userSpaceOnUse">
<stop stop-color="#40B8FF"/>
<stop offset="0.00657445" stop-color="#40B9FF"/>
<stop offset="0.2601" stop-color="#40CEFF"/>
<stop offset="0.5122" stop-color="#40DDFF"/>
<stop offset="0.7604" stop-color="#40E7FF"/>
<stop offset="1" stop-color="#40EAFF"/>
</linearGradient>
<linearGradient id="paint11_linear_46_631" x1="10.5518" y1="0.391701" x2="24.9611" y2="14.8878" gradientUnits="userSpaceOnUse">
<stop stop-color="#65B895"/>
<stop offset="0.0685" stop-color="#62BD95"/>
<stop offset="0.4762" stop-color="#50DB97"/>
<stop offset="0.8009" stop-color="#44ED98"/>
<stop offset="1" stop-color="#40F498"/>
</linearGradient>
<clipPath id="clip0_46_631">
<rect width="193" height="57" fill="white"/>
</clipPath>
</defs>
</svg>
