<svg width="286" height="99" viewBox="0 0 286 99" fill="none" xmlns="http://www.w3.org/2000/svg">
<g clip-path="url(#clip0_10_787)">
<path d="M287.8 -4.75977H-0.199951V102.374H287.8V-4.75977Z" fill="#181818"/>
<path d="M30.2 71.2272V68.2513H31.4V67.8545H33.5999V66.8625H35V66.6641H36.7999V65.4737H38.4V64.2833H39.4V64.0849H41.2V63.2914H43.5999V62.4978H44.7999V61.9026H46V60.7122H48.4V60.117H50V59.5218H51.5999V58.7282H54.7999V57.9346H56V56.9427H58.4V56.3475H60.4V55.5539H63.4V55.1571H64.8V54.1651H67.8V53.5699H70.5999V53.1731H72.8V52.5779H77V51.5859H81.8V50.7924H83.4V49.9988H90.1999V49.2052H103.6V48.61H115.4V47.8164H119.8V48.61H120.4V49.2052H121.4V53.5699H120.4V54.3635H119.8V55.3555H118.2V55.9507H116.2V56.7443H114.6V57.3395H112.6V58.3314H110.8V59.125H109.2V59.9186H107.6V60.5138H106V61.109H104.8V62.2994H103.4V62.8946H102.4V63.6881H101.6V64.4817H103.4V63.6881H107V62.8946H110.6V62.2994H113.4V61.109H117V60.5138H122.2V59.9186H132V60.5138H133.6V63.4898H128.2V64.2833H125.4V64.4817H121.2V65.4737H117V66.2673H114.4V66.4657H110.6V67.4577H107V68.0529H103.6V69.0449H102.4V69.6401H100V70.632H97.2V71.2272H94.8V71.8224H92.4V73.0128H91.1999V73.2112H90V74.2032H87.1999V74.9968H83.4V74.2032H82.5999V73.2112H81.8V73.0128H81.1999V69.6401H81.8V69.0449H83.4V68.0529H85V67.4577H85.8V66.4657H87.4V66.2673H88.5999V65.4737H89.1999V64.4817H90V63.8865H91.1999V63.093H92.1999V61.9026H93.4V60.5138H94.5999V59.9186H96.2V59.3234H98V58.5298H98.8V57.7362H99.3999V56.7443H101V56.3475H102.2V55.5539H103.6V54.9587H105.4V53.9667H107V53.5699H108.2V52.9747H107V53.5699H103.4V54.3635H95V55.3555H92.4V55.9507H90V56.7443H87.1999V57.1411H82.5999V58.133H79V58.9266H77V59.7202H74.5999V60.3154H72.1999V60.7122H70.1999V61.5058H67.8V62.4978H66V63.2914H64V64.0849H61.5999V64.6801H59.5999V65.6721H56.7999V66.4657H55.2V66.6641H54.7999V67.6561H53.2V68.2513H50.5999V69.2433H48.5999V69.6401H47.4V70.632H46V71.2272H44.2V71.8224H42.7999V72.616H41.4V73.4096H39.5999V74.4016H39V75.1952H37V75.7904H35V73.4096H32.5999V73.0128H31V71.4256H30.2V71.2272Z" fill="#23DFFB"/>
<path d="M107 53.5699V54.3635H105.4V55.3555H103.6V55.9507H102.2V56.7443H101V57.1411H99.3999V58.133H98.8V58.9266H98V59.7202H96.2V60.3154H94.5999V60.9106H93.4V62.2994H92.1999V63.4898H91.1999V64.2833H90V64.8785H89V65.8705H88.4V66.6641H87.1999V66.8625H85.5999V67.8545H84.8V68.4497H83.1999V69.4417H81.5999V70.0368H81V73.4096H81.5999V73.608H82.4V74.6H83.1999V75.3936H87V74.6H90V73.608H91.1999V73.4096H92.4V72.2192H94.8V71.624H97.2V71.0288H100V70.0368H102.4V69.4417H103.6V68.4497H107V67.8545H110.6V66.8625H114.4V66.6641H117V65.4737H121.2V64.2833H125.4V64.0849H128.2V63.2914H133.6V60.3154H132V59.7202H122.2V60.3154H117V60.9106H113.4V62.101H110.6V62.6962H107V63.4898H103.4V64.2833H101.6V63.4898H102.4V62.6962H103.4V62.101H104.8V60.9106H106V60.3154H107.6V59.7202H109.2V58.9266H110.8V58.133H112.6V57.1411H114.6V56.5459H116V55.7523H118V55.1571H119.6V54.1651H120.2V53.5699H121.2V49.2052H120.2V48.61H119.6V47.8164H115.2V48.61H103.4V49.2052H90V49.9988H83.1999V50.7924H81.5999V51.5859H76.8V52.5779H72.5999V53.1731H70.4V53.5699H67.5999V54.3635H64.5999V55.3555H63.2V55.7523H60.2V56.5459H58.2V57.1411H56V58.133H54.7999V58.9266H51.5999V59.7202H50V60.3154H48.4V60.9106H46V62.101H44.7999V62.6962H43.5999V63.4898H41.2V64.2833H39.4V64.4817H38.4V65.4737H36.7999V66.2673H35V66.4657H33.5999V67.4577H31.4V67.8545H30.2V70.8304H31V72.4176H32.5999V72.8144H35V75.1952H37V74.6H39V73.8064H39.5999V72.8144H41.4V72.0208H42.7999V71.2272H44.2V70.632H46V70.0368H47.2V69.0449H48.4V68.6481H50.4V67.6561H53V67.0609H54.5999V66.0689H55V65.8705H56.5999V65.0769H59.4V64.0849H61.4V63.4898H64V62.6962H66V61.9026H67.8V61.5058H70.1999V60.7122H72.1999V60.3154H74.5999V59.7202H77V58.9266H79V58.133H82.5999V57.1411H87.1999V56.7443H90V55.9507H92.4V55.3555H95V54.3635H103.4V53.5699H107ZM107 53.5699H108.2V52.9747H107V53.5699Z" stroke="#23DFFB" stroke-width="0.09"/>
<path d="M174.2 34.7218V35.5154H173.4V37.1026H174.2V37.6978H175.8V36.9042H176.6V35.317H175.8V34.5234H174.2V34.7218Z" fill="#23DFFB"/>
<path d="M174.2 28.5723V29.3659H173.4V30.953H174.2V31.7466H175.8V30.953H176.6V29.3659H175.8V28.5723H174.2Z" fill="#23DFFB"/>
<path d="M168 34.7218V35.5154H167.2V37.1026H168V37.6978H169.6V36.9042H170.4V35.317H169.6V34.5234H168V34.7218Z" fill="#23DFFB"/>
<path d="M165 31.5469V32.3405H164.2V33.9276H165V34.7212H166.6V33.9276H167.4V32.3405H166.6V31.5469H165Z" fill="#23DFFB"/>
<path d="M168 28.5723V29.3659H167.2V30.953H168V31.7466H169.6V30.953H170.4V29.3659H169.6V28.5723H168Z" fill="#23DFFB"/>
<path d="M180.2 28.5723V29.3659H179.4V30.953H180.2V31.7466H181.8V30.953H182.6V29.3659H181.8V28.5723H180.2Z" fill="#23DFFB"/>
<path d="M183.2 31.5469V32.3405H182.4V33.9276H183.2V34.7212H184.8V33.9276H185.6V32.3405H184.8V31.5469H183.2Z" fill="#23DFFB"/>
<path d="M165 37.6973V38.4909H164.2V40.078H165V40.8716H166.6V40.078H167.4V38.4909H166.6V37.6973H165Z" fill="#23DFFB"/>
<path d="M165 43.8477V44.6412H164.2V46.2284H165V47.022H166.6V46.2284H167.4V44.6412H166.6V43.8477H165Z" fill="#23DFFB"/>
<path d="M171 43.8477V44.6412H170.2V46.2284H171V47.022H172.6V46.2284H173.4V44.6412H172.6V43.8477H171Z" fill="#23DFFB"/>
<path d="M183.2 43.8477V44.6412H182.4V46.2284H183.2V47.022H184.8V46.2284H185.6V44.6412H184.8V43.8477H183.2Z" fill="#23DFFB"/>
<path d="M177.2 31.5469V32.3405H176.4V33.9276H177.2V34.7212H178.8V33.9276H179.6V32.3405H178.8V31.5469H177.2Z" fill="#23DFFB"/>
<path d="M174.2 40.6738V41.4674H173.4V43.0546H174.2V43.8482H175.8V43.0546H176.6V41.4674H175.8V40.6738H174.2Z" fill="#23DFFB"/>
<path d="M171 31.5469V32.3405H170.2V33.9276H171V34.7212H172.6V33.9276H173.4V32.3405H172.6V31.5469H171Z" fill="#23DFFB"/>
<path d="M168 40.6738V41.4674H167.2V43.0546H168V43.8482H169.6V43.0546H170.4V41.4674H169.6V40.6738H168Z" fill="#23DFFB"/>
<path d="M180.2 40.6738V41.4674H179.4V43.0546H180.2V43.8482H181.8V43.0546H182.6V41.4674H181.8V40.6738H180.2Z" fill="#23DFFB"/>
<path d="M177.2 43.8477V44.6412H176.4V46.2284H177.2V47.022H178.8V46.2284H179.6V44.6412H178.8V43.8477H177.2Z" fill="#23DFFB"/>
<path d="M171 37.6973V38.4909H170.2V40.078H171V40.8716H172.6V40.078H173.4V38.4909H172.6V37.6973H171Z" fill="#23DFFB"/>
<path d="M168 46.8242V47.6178H167.2V49.205H168V49.9986H169.6V49.205H170.4V47.6178H169.6V46.8242H168Z" fill="#23DFFB"/>
<path d="M180.2 46.8242V47.6178H179.4V49.205H180.2V49.9986H181.8V49.205H182.6V47.6178H181.8V46.8242H180.2Z" fill="#23DFFB"/>
<path d="M177.2 37.6973V38.4909H176.4V40.078H177.2V40.8716H178.8V40.078H179.6V38.4909H178.8V37.6973H177.2Z" fill="#23DFFB"/>
<path d="M174.2 46.8242V47.6178H173.4V49.205H174.2V49.9986H175.8V49.205H176.6V47.6178H175.8V46.8242H174.2Z" fill="#23DFFB"/>
<path d="M183.2 37.4992V38.2928H182.4V39.6815H183.2V40.4751H184.8V39.6815H185.6V38.0944H184.8V37.3008H183.2V37.4992Z" fill="#23DFFB"/>
<path d="M180.2 34.7218V35.5154H179.4V37.1026H180.2V37.6978H181.8V36.9042H182.6V35.317H181.8V34.5234H180.2V34.7218Z" fill="#23DFFB"/>
<path fill-rule="evenodd" clip-rule="evenodd" d="M196.2 26.984H197.4V25.7936H200.8V25H202.2V25.7936H205.2V26.5872H206.6V27.3808H207.8V28.1743H209.6V28.9679H210.2V29.5631H211V30.7535H212V31.7455H212.6V32.5391H213.4V34.3246H212.6V35.515H213.4V34.3246H214.2V36.1102H213.4V37.6974H212.6V38.8878H212V39.6814H211V38.0942H212V36.9038H211V38.0942H210.2V39.6814H211V40.4749H210.2V41.2685H209V42.0621H207.4V41.2685H208V40.4749H207.4V41.2685H205.8V42.0621H204.2V42.6573H205.8V42.0621H207.4V42.6573H205.8V43.4509H205.2V44.4429H205.8V45.0381H205.2V45.8317H205.8V45.0381H206.6V45.6333H207.8V46.4269H208.8V47.022H209.6V48.014H210.8V48.8076H211.8V49.4028H212.4V50.1964H213.2V50.99H214V51.5852H215.2V52.3788H216.2V53.5691H216.8V54.3627H217.6V55.3547H216.8V55.9499H217.6V56.7435H214V55.9499H212.4V55.3547H212V54.3627H211V53.5691H210.2V52.9739H209.6V52.1804H208.8V51.5852H207.8V50.7916H207.2V49.998H206.4V49.2044H205.6V48.6092H205V47.8156H203.2V46.8236H202.6V46.2285H201.8V45.6333H201V44.8397H200.4V44.2445H200V50.5932H201V56.9419H200V57.9339H197.6V56.9419H196.8V49.7996H196.2V26.984ZM207.4 29.3647H208V30.5551H209V31.5471H208V36.9038H207.4V38.0942H206.6V38.8878H205.8V39.6814H205.2V40.4749H204.2V41.2685H202.2V42.0621H200V41.2685H201V38.0942H201.6V29.1663H206.8V30.3567H207.6V29.3647H207.4ZM201 30.5551H200V32.3407H201V30.5551ZM210.2 31.1503H211V31.7455H210.2V31.1503ZM209 39.0862V38.2926H208V39.0862H209ZM203 43.2525V42.4589H203.6V43.2525H203ZM203.6 43.2525H204.4V44.2445H203.6V43.2525ZM213.4 55.3547V54.3627H214.2V55.3547H213.4ZM214 55.3547H214.6V55.9499H214V55.3547Z" fill="#FCFF00"/>
<path d="M217.6 55.9507H218.4V55.3555H217.6V55.9507Z" fill="#FCFF00"/>
<path d="M207.4 30.5547H208V31.5467H207.4V30.5547Z" fill="#FCFF00"/>
<path fill-rule="evenodd" clip-rule="evenodd" d="M223 26.9853V29.3661H223.6V52.3801H224.4V53.1737H223.6V58.332H224.4V57.34H225.2V58.332H236.2V59.1256H241V58.332H245.2V55.5544H227.4V43.4522H228.6V44.4442H228V45.0394H243.4V41.4683H234.2V40.6747H227.4V31.7468H226.4V31.1516H233V30.5564H239.6V31.1516H245V27.3821H242.4V26.9853H230.8V25.7949H225.4V26.9853H224V27.1837H223.2V26.9853H223ZM223.6 27.9773V29.1677H224.4V27.9773H223.6ZM226.4 27.9773H225.6V28.7709H226.4V27.9773ZM227.4 27.9773V28.7709H229.4V27.9773H227.4ZM240.6 28.7709V27.9773H239.8V28.7709H240.6ZM224.4 33.1356V34.1276H225.2V33.1356H224.4ZM242.6 44.2458V43.2538H240.6V44.2458H242.6ZM227.4 55.7528V56.5464H228.6V55.7528H227.4ZM233.2 56.5464V55.7528H236.8V56.5464H233.2ZM241.2 56.5464V56.9432H242.8V56.5464H241.2Z" fill="#FCFF00"/>
<path fill-rule="evenodd" clip-rule="evenodd" d="M123.8 44.8402V34.5236H124.6V32.9364H125.4V31.3492H126V30.3572H127.2V29.3653H127.8V28.5717H128.4V26.9845H129.2V25.9925H131V24.6037H132V24.0085H133.6V23.4133H134.8V22.8182H138V23.4133H141V22.8182H138V21.8262H142.4V23.4133H146V24.4053H147.6V24.6037H150V26.5877H150.6V26.7861H151.4V27.5797H152.4V30.1588H153V30.754H153.8V32.738H154V33.73H151.2V34.3252H152.2V35.1188H151.2V36.3091H150.4V35.7139H149.8V32.9364H149V32.1428H148.2V31.3492H147.4V30.3572H146.6V29.1669H145.4V28.5717H144.6V27.7781H142.2V26.9845H137V27.7781H135.4V28.5717H134.2V29.1669H133.4V30.9524H132.4V31.5476H132V32.3412H131.2V31.1508H132V30.5556H132.6V29.3653H132V30.5556H131.2V31.1508H130.6V32.3412H129.6V33.1348H128.8V32.3412H128V33.1348H128.8V34.722H129.6V33.1348H130.6V32.3412H131.2V34.1268H130.6V35.3172H129.6V35.9123H128.8V35.3172H128V35.9123H128.8V44.8402H129.6V46.4274H130.6V46.8242H131.2V47.8162H132V48.6097H131.2V49.2049H132V48.6097H133.6V49.2049H135.6V49.9985H138.6V50.7921H141V49.9985H143V49.2049H144.6V48.6097H145.4V47.8162H146V46.8242H146.8V47.8162H147.6V46.8242H146.8V46.4274H147.6V45.6338H148.4V44.4434H149.2V45.0386H150V44.0466H155.2V45.0386H154V48.0145H153.6V49.2049H152.8V48.6097H152.2V49.2049H151.2V49.9985H150.4V50.7921H149.8V51.5857H149V52.3793H148.2V53.1729H146.6V53.7681H146V54.5616H146.8V55.5536H145.6V54.5616H144.8V55.5536H145.6V56.1488H142.6V56.9424H141.4V56.1488H139V56.9424H141.4V57.5376H135.2V56.9424H132.8V56.1488H131.6V54.5616H132.8V55.5536H134.6V54.5616H132.8V53.5697H132V53.1729H130.8V52.3793H129.8V51.5857H128.2V50.7921H127.8V49.9985H127.2V49.2049H126V47.8162H125.4V46.229H124.6V44.6418H123.8V44.8402ZM135.6 23.6117H137.2V24.6037H135.6V23.6117ZM130.8 27.1829H129.8V27.9765H130.8V27.1829ZM137.2 25.1989H136.4V25.7941H137.2V25.1989ZM138.8 25.1989V24.6037H142.4V25.1989H138.8ZM143.6 25.1989V25.7941H144.6V25.1989H143.6ZM148.4 29.3653V28.7701H149.2V29.3653H148.4ZM128.2 34.1268H127.6V34.722H128.2V34.1268ZM127.2 36.9043V35.3172H127.8V36.9043H127.2ZM127.8 36.9043H128.4V43.253H127.8V36.9043ZM135 55.9504V55.3552H137.4V55.9504H135ZM138 55.3552H138.8V54.3632H138V55.3552ZM136.4 51.5857V50.7921H138V51.5857H136.4ZM139.4 52.9745V52.1809H141.8V52.9745H139.4ZM153.6 44.8402V46.4274H152.8V44.8402H153.6ZM152.6 46.4274V47.0226H152V46.4274H152.6Z" fill="#FCFF00"/>
<path d="M148.4 53.5703V54.3639H146.8V53.5703H148.4Z" fill="#FCFF00"/>
<path d="M149.8 52.9746V53.5698H148.2V52.9746H149.8Z" fill="#FCFF00"/>
<path d="M150.4 51.5859V53.1731H149.8V51.5859H150.4Z" fill="#FCFF00"/>
<path d="M152.2 50.7922H152.8V49.2051H152.2V50.7922Z" fill="#FCFF00"/>
<path d="M152.2 50.793V51.5866H150.4V50.793H152.2Z" fill="#FCFF00"/>
<path fill-rule="evenodd" clip-rule="evenodd" d="M170.2 24.6031V23.6111H173.6V24.6031H176.4V23.6111H173.6V22.6191H177.8V24.6031H181.4V24.8015H183.2V25.5951H185.2V27.1823H185.8V27.9759H186.6V28.7694H187.6V31.1502H188.4V31.7454H189V33.3326H190V35.7133H190.2V43.6492H190V45.2364H190.2V45.6332H190V48.6091H189V49.7995H188.4V49.0059H187.6V49.7995H186.6V50.5931H185.8V51.5851H185.2V52.3787H184.6V53.1722H183.6V53.569H182.4V54.3626H181.4V55.3546H182.4V54.3626H183.6V55.3546H182.4V55.9498H181.2V56.7434H172.4V55.9498H170V55.3546H168.2V54.3626H167.6V53.569H166V52.9739H165V52.1803H163.4V51.5851H163.2V50.7915H162.4V49.9979H161.2V48.6091H161V46.8236H160.2V45.6332H159.4V35.3165H160.2V34.1262H161V32.3406H161.2V31.1502H162.4V30.555H163.2V29.3646H163.4V28.1743H164.4V27.3807H166V25.7935H167.6V24.9999H168.6V24.8015H170.2V24.6031ZM172 24.6031H171.2V24.9999H172V24.6031ZM165.2 27.9759H166.2V28.7694H165.2V27.9759ZM164.6 34.1262V33.1342H163.6V34.1262H164.6ZM163.8 34.7213H163.2V35.5149H163.8V34.7213ZM162.6 35.9117H163.4V37.6973H162.6V35.9117ZM163.2 37.6973H163.8V38.8877H163.2V37.6973ZM166.6 49.2043V49.9979H167.6V49.2043H166.6ZM172 52.1803V51.5851H173.6V52.3787H172V52.1803ZM174.6 52.9739H177.2V53.569H174.6V52.9739ZM174 55.9498V55.3546H173.4V55.9498H174ZM180 55.3546V55.9498H181V55.3546H180ZM188.2 46.8236H187.4V47.8155H188.2V46.8236ZM185.2 42.4588H185.8V44.2444H185.2V42.4588ZM185.2 35.9117V42.4588H184.6V44.2444H183.6V46.2284H183V46.8236H182.2V47.8155H180V48.6091H179.2V49.2043H176.4V49.9979H172V49.2043H171.2V48.6091H168.2V47.8155H167.6V46.8236H166.6V46.2284H166V44.6412H165V43.054H164.4V35.7133H165V34.5229H166V33.9278H166.6V32.9358H167.6V31.3486H168.2V30.7534H170V30.3566H172V29.1662H179.2V30.3566H181V30.7534H181.2V31.3486H182.2V32.1422H183V33.9278H183.6V34.5229H184.6V35.7133H185.2V35.9117ZM166.6 31.547V30.9518H167.6V31.547H166.6ZM166.6 31.547V32.3406H166V31.547H166.6ZM180 29.3646H181V28.7694H180V29.3646ZM181.4 30.555V29.3646H182.4V30.555H181.4ZM183.2 30.9518H182.4V30.555H183.2V30.9518ZM183.2 30.9518H183.8V31.547H183.2V30.9518ZM168.2 29.3646V30.555H168.8V29.3646H171.4V28.571H179.4V27.9759H177.8V27.1823H179.4V26.3887H177.8V27.1823H172V27.9759H170.2V28.7694H168.6V29.3646H168.2Z" fill="#FCFF00"/>
<path d="M185.2 53.5703V54.3639H183.6V53.5703H185.2Z" fill="#FCFF00"/>
<path d="M185.8 52.1816V53.5704H185.2V52.1816H185.8Z" fill="#FCFF00"/>
<path d="M187.6 51.5852H188.4V49.998H187.6V51.5852Z" fill="#FCFF00"/>
<path d="M187.6 51.5859V52.3795H185.8V51.5859H187.6Z" fill="#FCFF00"/>
<path fill-rule="evenodd" clip-rule="evenodd" d="M46.2 42.0621H46V52.3788H46.2V55.9499H63.6V55.5531H64V53.5691H66.4V52.9739H66V51.5852H51.6V43.4509H50.6V35.515H50V31.1503H50.6V25H46.2V42.0621ZM48 25.5952H50V26.7856H49.4V27.7776H48V25.5952ZM47.2 34.1263H48V39.0862H47.2V34.1263ZM49.6 40.4749H48.6V42.4589H49.6V40.4749ZM48.6 49.2044H49.6V50.7916H48.6V49.2044ZM48 53.5691V52.3788H48.6V53.1723H50.6V53.5691H50V54.3627H47.2V53.5691H48ZM51.6 52.9739H52.4V53.5691H51.6V52.9739Z" fill="#FCFF00"/>
<path fill-rule="evenodd" clip-rule="evenodd" d="M72.8 24.6035H77.4V24.8019H78.2V27.7779H77.4V48.4111H78.2V55.5534H73.8V53.5694H72.8V24.6035ZM74.6 25.5955H73.8V26.7859H74.6V25.5955ZM77 25.5955H76V27.1827H77V25.5955ZM73.8 27.9763H74.6V33.1346H73.8V27.9763ZM77 27.9763H76V30.5554H77V27.9763ZM74.6 51.5855H75.2V52.3791H74.6V51.5855Z" fill="#FCFF00"/>
<path fill-rule="evenodd" clip-rule="evenodd" d="M86.2 25.0003H89V25.7939H90.8V27.3811H92.4V28.1747H92.6V29.365H93.6V30.5554H94.6V31.5474H94.8V32.341H96V33.1346H96.5999V34.1266H97.4V34.7218H98.4V35.5153H99.1999V36.1105H100.2V35.5153H101.8V34.7218H102.6V34.1266H103.6V33.1346H103.8V32.341H104.8V31.5474H105.6V30.9522H106V30.357H107V28.5715H108.2V27.7779H109V26.7859H110V25.5955H110.6V24.8019H112.4V24.6035H116V55.7518H113.4V56.5454H112.6V57.1406H111V48.6095H112.2V37.6977H111V32.341H110.4V33.1346H109.8V34.1266H108.8V33.1346H108V34.1266H107.2V34.7218H108V35.5153H107.2V36.1105H106.6V37.1025H106V38.2929H105.4V39.0865H104.6V39.6817H104V40.4753H103.4V41.2688H102.4V42.0624H101.6V42.6576H101V43.4512H99.4V42.6576H98.8V42.0624H98V41.2688H97V40.4753H96.1999V39.6817H96V38.8881H95V38.0945H94.4V37.6977H93.8V36.9041H92.8V35.3169H91.4V34.1266H90.8V50.7919H91.4V55.9502H87.2V50.7919H86.2V25.0003ZM111.2 28.7698V27.9763H112.4V28.7698H111.2ZM110.6 30.9522V31.5474H111.2V30.9522H110.6ZM114.8 28.7698H114.4V32.341H114.8V28.7698ZM88 48.0143H87.2V49.9983H88V48.0143ZM88 52.9743H88.6V55.355H88V52.9743ZM103.4 39.0865H102.4V39.6817H103.4V39.0865ZM106 34.7218H107V35.5153H106V34.7218Z" fill="#FCFF00"/>
<path d="M108.4 34.7221V34.127H109.2V34.7221H108.4Z" fill="#FCFF00"/>
<path d="M99.8 89.6781V88.4877H102V82.9326H100.8V81.7422H104.2V88.4877H106.4V89.6781H99.8Z" fill="#F5F5EF"/>
<path d="M111 82.9326V81.7422H113.2V82.9326H111ZM108.8 89.6781V88.4877H111V85.1149H110V83.9246H113.4V88.2893H115.6V89.4797H108.8V89.6781Z" fill="#F5F5EF"/>
<path d="M116.8 89.6762V84.1211H123.6V85.3115H124.8V89.6762H122.6V85.3115H121.4V89.6762H119.2V85.3115H118V89.6762H116.8Z" fill="#F5F5EF"/>
<path d="M126.8 89.6773V88.487H125.6V85.1142H126.8V83.9238H133.6V85.1142H128V88.487H133.6V89.6773H126.8Z" fill="#F5F5EF"/>
<path d="M135.8 89.6773V88.487H134.6V85.1142H135.8V83.9238H141.4V85.1142H142.6V88.487H141.4V89.6773H135.8ZM137 88.487H140.4V85.1142H137V88.487Z" fill="#F5F5EF"/>
<path d="M147 85.1131H148.2V86.3035H147V89.6762H144.8V84.1211H147V85.1131ZM151.6 84.1211V85.3115H148.2V84.1211H151.6Z" fill="#F5F5EF"/>
<path d="M153.8 89.6773V88.487H152.6V85.1142H153.8V83.9238H159.4V85.1142H160.6V87.2966H155V88.487H159.4V89.6773H153.8ZM155 86.3046H158.4V85.1142H155V86.3046Z" fill="#F5F5EF"/>
<path d="M164 89.6765V87.4941H166.2V89.6765H164Z" fill="#F5F5EF"/>
<path d="M174 82.9326V81.7422H176.2V82.9326H174ZM171.8 89.6781V88.4877H174V85.1149H172.8V83.9246H176.2V88.2893H178.4V89.4797H171.8V89.6781Z" fill="#F5F5EF"/>
<path d="M180.8 89.6773V88.487H179.6V85.1142H180.8V83.9238H186.4V85.1142H187.6V88.487H186.4V89.6773H180.8ZM182 88.487H185.4V85.1142H182V88.487Z" fill="#F5F5EF"/>
</g>
<defs>
<clipPath id="clip0_10_787">
<rect width="286" height="99" fill="white"/>
</clipPath>
</defs>
</svg>
