<svg width="20" height="20" viewBox="0 0 20 20" fill="none" xmlns="http://www.w3.org/2000/svg">
<path d="M10.0004 0.0078125C7.35022 0.0078125 4.80855 1.0606 2.93458 2.93458C1.0606 4.80856 0.0078125 7.3502 0.0078125 10.0004C0.0078125 12.6506 1.0606 15.1922 2.93458 17.0662C4.80855 18.9402 7.35019 19.993 10.0004 19.993C12.6506 19.993 15.1922 18.9402 17.0662 17.0662C18.9401 15.1922 19.9929 12.6506 19.9929 10.0004C19.9929 7.3502 18.9401 4.80856 17.0662 2.93458C15.1922 1.0606 12.6506 0.0078125 10.0004 0.0078125ZM11.2495 17.1825H8.75126V14.6844H11.2495V17.1825ZM11.9178 11.4327H11.9177C11.7052 11.5533 11.5304 11.7303 11.4125 11.9442C11.2944 12.1581 11.2381 12.4004 11.2495 12.6444V12.811H8.75128V12.6444C8.74111 11.933 8.92931 11.2328 9.29481 10.6223C9.66031 10.0119 10.1886 9.51548 10.8206 9.1886C11.1367 9.03467 11.4032 8.79492 11.5895 8.49667C11.7758 8.19854 11.8744 7.85395 11.874 7.50239C11.8613 7.00938 11.6599 6.5402 11.3112 6.19153C10.9626 5.84288 10.4933 5.64131 10.0004 5.62867C9.50348 5.62867 9.02686 5.82616 8.6756 6.17745C8.32418 6.52886 8.12683 7.00544 8.12683 7.50239H5.62858C5.62858 6.34287 6.08921 5.23094 6.90906 4.41109C7.72895 3.5912 8.84084 3.1306 10.0004 3.1306C11.1551 3.14571 12.2583 3.61112 13.075 4.42782C13.8915 5.24436 14.357 6.34771 14.3722 7.50243C14.3757 8.32247 14.147 9.12663 13.7126 9.82206C13.2783 10.5176 12.656 11.076 11.9176 11.4328L11.9178 11.4327Z" fill="white"/>
</svg>
