<svg width="42" height="42" viewBox="0 0 42 42" fill="none" xmlns="http://www.w3.org/2000/svg">
<circle cx="21" cy="21" r="21" fill="#BF9559"/>
<path d="M30.9644 12.4794L27.1398 28.3902C26.9599 29.1395 26.1274 29.5256 25.4449 29.1697L20.6077 26.6492L18.3205 30.4263C17.6981 31.4558 16.1233 31.0092 16.1233 29.8055V25.5969C16.1233 25.2715 16.2582 24.9611 16.4907 24.734L25.9174 15.6508C25.9099 15.5373 25.7899 15.4389 25.67 15.522L14.4212 23.4245L10.6417 21.4564C9.75688 20.9947 9.79437 19.7002 10.7092 19.2992L29.3449 11.1017C30.2372 10.7081 31.1972 11.5181 30.9647 12.4793L30.9644 12.4794Z" fill="white"/>
</svg>
