<svg width="286" height="72" viewBox="0 0 286 72" fill="none" xmlns="http://www.w3.org/2000/svg">
<path d="M28.1779 27.9818C31.7133 27.9818 33.5074 26.7818 33.5074 24.4364V0H39.5229V24.4364C39.5229 30.0546 35.7236 32.8364 28.1779 32.8364H11.2923C3.7465 32.8364 0 30 0 24.3818V0H6.0155V24.3818C6.0155 26.8364 7.80959 28.0364 11.345 28.0364H28.1779V27.9818Z" fill="black"/>
<path d="M45.3274 0H50.9208L69.8115 26.8364L88.544 0H93.7152V32.8364H87.9108V10.0364L71.975 32.8364H67.0676L51.1318 10.0909V32.8364H45.3274V0Z" fill="black"/>
<path d="M105.588 0H99.5723V32.8364H105.588V0Z" fill="black"/>
<path d="M117.302 7.85455V32.8364H111.603V0H116.352L147.96 25.2V0H153.659V32.8364H148.91L117.302 7.85455Z" fill="black"/>
<path d="M204.685 32.8364V0H229.803C237.348 0 241.148 2.34545 241.148 7.09091V11.0727C241.148 15.0545 238.509 17.3455 233.285 18L240.831 32.8364H234.446L227.006 18.2182H210.701V32.8909H204.685V32.8364ZM210.701 4.85455V13.3636H229.855C233.391 13.3636 235.185 12.6 235.185 11.1273V7.09091C235.185 5.61818 233.391 4.85455 229.855 4.85455H210.701Z" fill="black"/>
<path d="M274.444 12.9273C281.99 12.9273 285.789 15.2727 285.789 20.0182V25.8545C285.789 30.5455 281.99 32.8364 274.444 32.8364H247.322V27.9818H274.444C277.979 27.9818 279.774 27.2727 279.774 25.8545V20.0182C279.774 18.5455 277.979 17.7818 274.444 17.7818H257.558C250.013 17.7818 246.213 15.4364 246.213 10.6909V7.09091C246.213 2.34545 250.013 0 257.558 0H283.784V4.85455H257.558C254.023 4.85455 252.229 5.61818 252.229 7.09091V10.6909C252.229 12.1636 254.023 12.9273 257.558 12.9273H274.444Z" fill="black"/>
<path d="M200.094 0H158.566V4.85455H200.094V0Z" fill="black"/>
<path d="M200.094 13.418H158.566V18.2725H200.094V13.418Z" fill="black"/>
<path d="M200.094 27.9824H158.566V32.837H200.094V27.9824Z" fill="black"/>
<path d="M57.5693 60.1642C57.4638 60.7642 57.2527 61.8552 56.8306 63.3279L54.8782 71.1824H53.2952L49.3904 57.9824H50.9734L53.1896 65.7279C53.559 66.9824 53.8228 68.0733 54.0867 69.1097H54.1395C54.245 68.5097 54.4033 67.9097 54.5616 67.3097L54.9837 65.7824L56.9361 58.037H58.4664L60.4188 65.7824C60.8937 67.637 61.1575 68.7824 61.2103 69.1097H61.2631C61.4741 68.1824 61.7907 67.0915 62.1601 65.7279L64.3763 57.9824H65.9594L62.0546 71.1824H60.4716L58.5192 63.3279C58.1498 61.8552 57.9387 60.8188 57.7804 60.1642H57.5693Z" fill="black"/>
<path d="M74.7715 60.1642C74.666 60.7642 74.4549 61.8552 74.0328 63.3279L72.0276 71.1824H70.4446L66.5398 57.9824H68.0701L70.2863 65.7279C70.6557 66.9824 70.9195 68.0733 71.1833 69.1097H71.2361C71.3416 68.5097 71.4999 67.9097 71.6582 67.3097L72.0804 65.7824L74.0328 58.037H75.6158L77.5154 65.7824C77.9903 67.637 78.2542 68.7824 78.307 69.1097H78.3597C78.5708 68.1824 78.8874 67.0915 79.2568 65.7279L81.473 57.9824H83.0033L79.0985 71.1824H77.5154L75.563 63.3279C75.1937 61.9097 74.9826 60.8188 74.7715 60.1642Z" fill="black"/>
<path d="M92.0267 60.1642C91.9211 60.7642 91.7101 61.8552 91.2879 63.3279L89.2827 71.1824H87.6997L83.7949 57.9824H85.3779L87.5942 65.7279C87.9636 66.9824 88.2274 68.0733 88.4912 69.1097H88.544C88.6495 68.5097 88.8078 67.9097 88.9661 67.3097L89.3883 65.7824L91.3407 58.037H92.8709L94.7706 65.7824C95.2455 67.637 95.5093 68.7824 95.5621 69.1097H95.6149C95.8259 68.1824 96.1425 67.0915 96.5119 65.7824L98.7281 58.037H100.311L96.4064 71.237H94.8233L92.8709 63.3824C92.4488 61.9097 92.185 60.8188 92.0267 60.1642Z" fill="black"/>
<path d="M103.477 69.2734H101.683V71.1825H103.477V69.2734Z" fill="black"/>
<path d="M111.762 70.0371C112.184 70.0371 112.606 69.9826 112.975 69.8735C113.292 69.7644 113.609 69.6007 113.925 69.3826C114.189 69.1644 114.4 68.9462 114.611 68.6735C114.928 68.1826 115.086 67.5826 115.139 66.9826C115.139 66.7098 115.192 66.4917 115.192 66.2189V58.0371H116.775V66.1644C116.775 66.4917 116.775 66.8189 116.722 67.1462C116.669 67.4735 116.616 67.8008 116.564 68.0735C116.458 68.5644 116.3 69.0008 116.036 69.4371C115.772 69.8735 115.455 70.2553 115.086 70.528C114.664 70.8553 114.189 71.0735 113.714 71.2371C112.5 71.5644 111.181 71.5644 109.968 71.2371C109.493 71.0735 109.018 70.8553 108.596 70.5826C108.226 70.3098 107.91 69.9826 107.646 69.6008C107.382 69.2189 107.224 68.7826 107.065 68.3462C106.96 68.0189 106.907 67.6371 106.854 67.3098C106.802 66.928 106.802 66.6007 106.802 66.2189V58.0371H108.385V66.2189C108.385 66.5462 108.385 66.8189 108.437 67.1462C108.49 67.4189 108.543 67.7462 108.648 68.0189C108.859 68.6189 109.229 69.1644 109.756 69.5462C110.284 69.8189 111.023 70.0371 111.762 70.0371Z" fill="black"/>
<path d="M126.695 71.1824H125.956L122.737 63.3279C122.315 62.237 121.84 61.037 121.418 59.7824H121.365C121.471 61.637 121.524 63.2733 121.471 64.8006V71.1824H119.888V57.9824H122.104L125.112 65.4552C125.481 66.3279 125.851 67.3642 126.22 68.5642H126.273C126.748 67.2006 127.117 66.2188 127.381 65.4552L130.389 57.9824H132.605V71.1824H131.075V64.8006C131.075 63.3279 131.127 61.637 131.18 59.7824H131.127C130.653 61.1461 130.23 62.2915 129.808 63.3279L126.695 71.1824Z" fill="black"/>
<path d="M137.565 57.9824H135.982V71.1824H137.565V57.9824Z" fill="black"/>
<path d="M147.38 65.3459C148.171 66.4914 148.91 67.6914 149.701 68.9459H149.754C149.649 67.6368 149.649 66.3277 149.649 65.0186V57.9823H151.232V71.1823H149.649L144.636 63.8186C143.791 62.5641 143 61.3096 142.314 60.2186H142.261C142.367 61.4186 142.367 62.8368 142.367 64.4187V71.1277H140.784V57.9277H142.314L147.38 65.3459Z" fill="black"/>
<path d="M155.981 69.7642H162.524V71.1824H154.398V57.9824H162.155V59.4551H155.981V63.7097H161.469V65.1824H155.981V69.7642Z" fill="black"/>
<path d="M166.745 65.7279V71.1824H165.162V57.9824H168.487C168.962 57.9824 169.437 57.9824 169.911 58.037C170.281 58.0915 170.597 58.1461 170.967 58.2551C171.758 58.4733 172.497 58.9097 173.025 59.5097C173.5 60.1642 173.763 60.9279 173.711 61.7461C173.711 62.237 173.658 62.7279 173.447 63.1642C173.289 63.5461 173.025 63.9279 172.761 64.2552C172.444 64.5824 172.075 64.8551 171.706 65.0188C171.283 65.237 170.808 65.3461 170.334 65.4552V65.5097L174.133 71.1824H172.55L168.592 65.7279H166.745ZM166.745 59.4551V64.3097H168.276C168.751 64.3097 169.173 64.3097 169.489 64.2552C169.806 64.2552 170.123 64.1461 170.386 64.0915C170.861 63.9824 171.336 63.6551 171.653 63.2733C171.969 62.837 172.128 62.3461 172.075 61.8006C172.075 61.3097 171.917 60.8188 171.653 60.437C171.336 60.0552 170.967 59.837 170.545 59.6733C170.281 59.6188 170.017 59.5642 169.753 59.5097C169.437 59.4552 169.014 59.4551 168.539 59.4551H166.745Z" fill="black"/>
<path d="M177.985 61.4728C177.985 61.8 178.038 62.1273 178.196 62.4546C178.354 62.7273 178.565 62.9455 178.829 63.1091C179.093 63.2728 179.41 63.4364 179.726 63.491C180.096 63.6 180.412 63.7091 180.782 63.7637C181.257 63.8728 181.784 64.0364 182.259 64.2C182.734 64.3637 183.156 64.5273 183.525 64.8546C183.895 65.1273 184.211 65.4546 184.423 65.891C184.686 66.3819 184.792 66.9819 184.792 67.5273C184.792 68.1273 184.686 68.7273 184.423 69.2728C184.159 69.7637 183.789 70.2001 183.367 70.4728C182.892 70.8001 182.365 71.0728 181.784 71.1819C180.782 71.4001 179.779 71.4546 178.776 71.3455C178.407 71.291 178.09 71.2364 177.774 71.1819C177.51 71.1273 177.193 71.0182 176.93 70.9637C176.718 70.9091 176.507 70.8001 176.349 70.691V69.2182C176.613 69.3273 176.877 69.4364 177.141 69.5455C177.721 69.7637 178.354 69.8728 178.935 69.9819C179.251 70.0364 179.515 70.0364 179.832 70.0364C180.254 70.0364 180.676 69.9819 181.098 69.9273C181.468 69.8728 181.837 69.7091 182.154 69.5455C182.47 69.3819 182.681 69.1091 182.892 68.7819C183.103 68.4001 183.156 68.0182 183.156 67.5819C183.156 67.2546 183.103 66.9273 182.945 66.6001C182.787 66.3273 182.576 66.1091 182.312 65.9455C182.048 65.7819 181.731 65.6182 181.415 65.5091C181.098 65.4001 180.729 65.291 180.359 65.2364C179.885 65.1273 179.357 64.9637 178.882 64.8546C178.407 64.691 177.985 64.5273 177.616 64.2546C177.246 63.9819 176.93 63.6546 176.718 63.2182C176.455 62.7273 176.349 62.1819 176.402 61.6364C176.402 61.0364 176.507 60.4364 176.771 59.891C176.982 59.4 177.352 59.0182 177.721 58.691C178.143 58.3637 178.618 58.1455 179.093 57.9819C179.621 57.8182 180.201 57.7637 180.782 57.7637C181.415 57.7637 182.048 57.8182 182.681 57.9819C183.262 58.0909 183.789 58.3091 184.317 58.5273V60C183.789 59.7819 183.262 59.6182 182.681 59.4546C182.101 59.2909 181.468 59.2364 180.887 59.2364C180.465 59.2364 180.043 59.2909 179.621 59.4C179.304 59.5091 178.987 59.6728 178.724 59.891C178.513 60.1091 178.302 60.3273 178.196 60.6C178.038 60.8728 177.985 61.2 177.985 61.4728Z" fill="black"/>
<path d="M189.383 69.2734H187.589V71.1825H189.383V69.2734Z" fill="black"/>
<path d="M198.881 59.1823C198.195 59.1823 197.509 59.2914 196.876 59.5096C196.295 59.7278 195.715 60.1096 195.24 60.546C194.765 61.0369 194.396 61.6369 194.185 62.2914C193.921 63.055 193.762 63.8732 193.762 64.6914C193.762 65.5096 193.868 66.2732 194.132 67.0369C194.554 68.2914 195.557 69.2732 196.823 69.655C197.509 69.8732 198.195 69.9823 198.934 69.9823C199.145 69.9823 199.356 69.9823 199.62 69.9278C199.883 69.8732 200.095 69.8732 200.358 69.8187C200.622 69.7641 200.833 69.7096 201.044 69.655C201.255 69.6005 201.467 69.5459 201.678 69.4914V70.9096C201.255 71.0732 200.833 71.1823 200.358 71.2369C199.831 71.346 199.356 71.346 198.828 71.346C197.878 71.346 196.928 71.1823 195.979 70.9096C195.187 70.6369 194.501 70.2005 193.921 69.6005C193.34 69.0005 192.918 68.2914 192.654 67.5278C192.074 65.6732 192.074 63.7096 192.654 61.9096C193.235 60.2187 194.448 58.9096 196.031 58.255C196.876 57.8732 197.826 57.7096 198.775 57.7641C199.039 57.7641 199.303 57.7641 199.567 57.8187C199.831 57.8187 200.095 57.8732 200.306 57.9278C200.517 57.9823 200.781 58.0369 200.992 58.0914C201.15 58.146 201.361 58.2005 201.519 58.255V59.6732C201.097 59.5096 200.675 59.4005 200.253 59.346C199.778 59.2369 199.356 59.1823 198.881 59.1823Z" fill="black"/>
<path d="M215.661 64.5823C215.661 65.5095 215.502 66.4368 215.239 67.3095C214.975 68.1277 214.605 68.8368 214.025 69.4913C213.497 70.0913 212.864 70.5823 212.178 70.9095C211.387 71.2368 210.595 71.455 209.751 71.4004C208.907 71.4004 208.009 71.2368 207.218 70.9095C206.479 70.5823 205.846 70.0913 205.371 69.4913C204.843 68.8368 204.421 68.1277 204.21 67.3095C203.946 66.4368 203.788 65.5095 203.788 64.5823C203.788 63.655 203.946 62.7277 204.21 61.8004C204.474 60.9823 204.896 60.2732 205.424 59.6186C205.952 59.0186 206.585 58.5277 207.271 58.2004C208.062 57.8732 208.907 57.655 209.751 57.7095C210.595 57.7095 211.439 57.8732 212.231 58.2004C212.97 58.5277 213.603 59.0186 214.078 59.6186C214.605 60.2732 215.028 60.9823 215.239 61.8004C215.502 62.7277 215.661 63.655 215.661 64.5823ZM214.078 64.5823C214.078 63.7641 213.972 63.0004 213.761 62.2368C213.55 61.6368 213.233 61.0368 212.811 60.5459C212.442 60.1095 211.967 59.7277 211.439 59.5095C210.331 59.0186 209.065 59.0186 207.957 59.5095C207.429 59.7277 206.954 60.1095 206.585 60.5459C206.163 61.0368 205.846 61.6368 205.635 62.2368C205.16 63.7641 205.16 65.4004 205.635 66.9277C205.846 67.5277 206.163 68.1277 206.585 68.6186C206.954 69.055 207.429 69.4368 207.957 69.655C208.484 69.8732 209.118 69.9823 209.698 69.9823C210.278 69.9823 210.859 69.8732 211.439 69.655C211.967 69.4368 212.442 69.055 212.811 68.6186C213.233 68.1277 213.55 67.5277 213.761 66.9277C213.972 66.2186 214.131 65.4004 214.078 64.5823Z" fill="black"/>
<path d="M225.264 71.1824H224.526L221.307 63.3279C220.885 62.237 220.41 61.037 219.988 59.7824H219.935C220.041 61.637 220.093 63.2733 220.041 64.8006V71.1824H218.51V57.9824H220.726L223.734 65.4552C224.104 66.3279 224.473 67.3642 224.842 68.5642H224.895C225.37 67.2006 225.739 66.2188 226.003 65.4552L229.011 57.9824H231.227V71.1824H229.644V64.8006C229.644 63.3279 229.697 61.637 229.75 59.7824H229.697C229.222 61.1461 228.8 62.2915 228.378 63.3279L225.264 71.1824Z" fill="black"/>
</svg>
