<svg width="32" height="32" viewBox="0 0 32 32" fill="none" xmlns="http://www.w3.org/2000/svg">
<path d="M28.9881 26.4999C27.1222 23.2856 24.1355 20.873 20.6006 19.7249C22.295 18.7173 23.6116 17.1814 24.3484 15.3529C25.0852 13.5245 25.2012 11.5047 24.6788 9.60396C24.1563 7.70316 23.0242 6.02648 21.4564 4.83148C19.8887 3.63647 17.9719 2.98926 16.0006 2.98926C14.0293 2.98926 12.1126 3.63647 10.5448 4.83148C8.97699 6.02648 7.84491 7.70316 7.32245 9.60396C6.8 11.5047 6.91606 13.5245 7.65281 15.3529C8.38957 17.1814 9.70626 18.7173 11.4006 19.7249C7.86573 20.873 4.87903 23.2856 3.01311 26.4999C2.9215 26.6506 2.87305 26.8235 2.87305 26.9999C2.87305 27.1762 2.9215 27.3492 3.01311 27.4999C3.09858 27.6531 3.22382 27.7805 3.37562 27.8685C3.52742 27.9565 3.70016 28.0019 3.87561 27.9999H28.1256C28.3011 28.0019 28.4738 27.9565 28.6256 27.8685C28.7774 27.7805 28.9026 27.6531 28.9881 27.4999C29.0797 27.3492 29.1282 27.1762 29.1282 26.9999C29.1282 26.8235 29.0797 26.6506 28.9881 26.4999Z" fill="#BF9559"/>
</svg>
