<svg width="42" height="42" viewBox="0 0 42 42" fill="none" xmlns="http://www.w3.org/2000/svg">
<circle cx="21" cy="21" r="21" fill="#BF9559"/>
<path d="M21.0027 11C19.2369 11.0024 17.5032 11.4712 15.9771 12.359C14.4511 13.2468 13.187 14.5221 12.313 16.0555C11.439 17.5889 10.9862 19.326 11.0003 21.0907C11.0145 22.8554 11.4952 24.585 12.3937 26.1042L11.4139 29.5625C11.3725 29.7042 11.3699 29.8544 11.4065 29.9974C11.4431 30.1405 11.5175 30.271 11.622 30.3754C11.7264 30.4798 11.8571 30.5542 12.0002 30.5908C12.1433 30.6273 12.2936 30.6248 12.4353 30.5833L15.8956 29.6042C17.2199 30.388 18.7072 30.856 20.2419 30.9717C21.7767 31.0874 23.3174 30.8476 24.7443 30.2711C26.1712 29.6946 27.4458 28.7969 28.469 27.6478C29.4921 26.4987 30.2362 25.1292 30.6434 23.6458C31.0506 22.1624 31.11 20.6051 30.8168 19.095C30.5236 17.585 29.8858 16.1629 28.953 14.9394C28.0202 13.7158 26.8176 12.7239 25.4387 12.0406C24.0598 11.3574 22.5417 11.0013 21.0027 11ZM23.5145 26.8333C22.4174 26.8361 21.3305 26.6221 20.3164 26.2038C19.3023 25.7855 18.3809 25.171 17.6051 24.3956C16.8293 23.6203 16.2145 22.6994 15.7959 21.6858C15.3774 20.6723 15.1633 19.5861 15.166 18.4896C15.1688 17.7178 15.4775 16.9786 16.0245 16.4339C16.5715 15.8892 17.3122 15.5833 18.0843 15.5833C18.2117 15.5823 18.3371 15.6156 18.4471 15.6798C18.5572 15.744 18.6479 15.8366 18.7097 15.9479L19.9291 18.0729C20.0017 18.2021 20.0389 18.3481 20.037 18.4962C20.0352 18.6443 19.9944 18.7893 19.9187 18.9167L18.939 20.5521C19.4408 21.6678 20.3345 22.561 21.4508 23.0625L23.0872 22.0833C23.2146 22.0077 23.3597 21.9669 23.5079 21.9651C23.6561 21.9632 23.8021 22.0004 23.9314 22.0729L26.0576 23.2917C26.169 23.3535 26.2616 23.4441 26.3258 23.5541C26.39 23.6641 26.4234 23.7893 26.4224 23.9167C26.4196 24.6876 26.1127 25.4263 25.5683 25.9724C25.0238 26.5185 24.2858 26.8279 23.5145 26.8333Z" fill="#FEFEFE"/>
</svg>
