<svg width="107" height="71" viewBox="0 0 107 71" fill="none" xmlns="http://www.w3.org/2000/svg">
<path d="M46.3977 10.3977C51.3625 5.43294 57.688 2.05189 64.5743 0.68212C71.4606 -0.687654 78.5985 0.0153694 85.0853 2.70229C91.5721 5.38921 97.1164 9.93934 101.017 15.7773C104.918 21.6152 107 28.4788 107 35.5001C107 42.5213 104.918 49.3849 101.017 55.2228C97.1163 61.0607 91.572 65.6109 85.0852 68.2978C78.5984 70.9847 71.4605 71.6877 64.5742 70.3179C57.6879 68.9481 51.3624 65.567 46.3976 60.6022L47.4017 59.5981C52.1679 64.3643 58.2403 67.6101 64.8512 68.9251C71.4621 70.2401 78.3145 69.5653 84.5418 66.9858C90.7691 64.4064 96.0917 60.0383 99.8364 54.4339C103.581 48.8295 105.58 42.2405 105.58 35.5001C105.58 28.7597 103.581 22.1706 99.8365 16.5662C96.0918 10.9618 90.7692 6.59364 84.5419 4.0142C78.3146 1.43476 71.4622 0.759854 64.8513 2.07484C58.2405 3.38982 52.168 6.63563 47.4018 11.4018L46.3977 10.3977Z" fill="#272727"/>
<path d="M72.3536 35.3536C72.5488 35.1583 72.5488 34.8417 72.3536 34.6465L69.1716 31.4645C68.9763 31.2692 68.6597 31.2692 68.4645 31.4645C68.2692 31.6597 68.2692 31.9763 68.4645 32.1716L71.2929 35L68.4645 37.8284C68.2692 38.0237 68.2692 38.3403 68.4645 38.5355C68.6597 38.7308 68.9763 38.7308 69.1716 38.5355L72.3536 35.3536ZM-4.37114e-08 35.5L72 35.5L72 34.5L4.37114e-08 34.5L-4.37114e-08 35.5Z" fill="#272727"/>
</svg>
