<svg width="772" height="177" viewBox="0 0 772 177" fill="none" xmlns="http://www.w3.org/2000/svg">
<g clip-path="url(#clip0_194_63)">
<path d="M594 112.67C585.48 113.097 576.983 113.31 568.51 113.31C545.452 113.228 522.416 111.86 499.51 109.21L498.64 109.11C452.09 103.83 406.75 94.35 363.41 85.29C327.34 77.75 292.75 70.52 260.08 66.29C260.325 65.734 260.464 65.1371 260.49 64.53C293.17 68.79 327.73 76.02 363.78 83.53C436 98.65 513.91 114.94 593.65 110.88C593.656 111.493 593.775 112.1 594 112.67ZM771.06 62.48L770.19 60.92C714.65 92.18 658.71 106.28 603.59 110.26C603.605 110.466 603.605 110.674 603.59 110.88C603.591 111.285 603.541 111.688 603.44 112.08C658.9 108.1 715.17 93.94 771.06 62.48ZM677.38 137.38V138.09C672.607 138.037 667.84 137.727 663.1 137.16L663.19 136.45C667.9 137.016 672.637 137.327 677.38 137.38ZM702.38 136.38C697.57 137.07 692.78 137.56 688.15 137.84L688.1 137.12C692.72 136.85 697.49 136.37 702.28 135.68L702.38 136.38ZM652.68 134.71L652.54 135.41C647.864 134.42 643.258 133.127 638.75 131.54L638.99 130.86C643.452 132.438 648.011 133.724 652.64 134.71H652.68ZM726.88 131.28C722.2 132.55 717.52 133.65 712.96 134.56L712.82 133.86C717.36 132.95 722.03 131.86 726.7 130.59L726.88 131.28ZM750.68 123.54C746.17 125.25 741.68 126.83 737.18 128.25L736.96 127.57C741.4 126.16 745.96 124.57 750.43 122.87L750.68 123.54ZM629.09 126.78L628.79 127.43C627.26 126.7 625.73 125.92 624.25 125.12C621.537 123.66 618.84 122.19 616.16 120.71L616.5 120.08C619.167 121.56 621.863 123.03 624.59 124.49C626.06 125.29 627.58 126.06 629.09 126.78ZM770.78 115C767.41 116.58 763.99 118.11 760.59 119.55L760.31 118.89C763.7 117.46 767.12 115.89 770.47 114.35L770.78 115ZM607.14 114.9L606.79 115.52L603 113.37C603.123 113.162 603.23 112.944 603.32 112.72C604.573 113.453 605.847 114.177 607.14 114.89V114.9ZM585.34 102.67L584.99 103.29C580.85 100.97 576.693 98.66 572.52 96.36L572.86 95.73C577.033 98.0233 581.193 100.333 585.34 102.66V102.67ZM128.29 94.15C123.29 94.59 118.51 94.84 114 94.89V94.18C118.49 94.12 123.28 93.87 128.23 93.44L128.29 94.15ZM103.29 93.92V94.63C98.57 94.34 93.78 93.82 89.07 93.07L89.18 92.37C93.85 93.11 98.61 93.63 103.32 93.92H103.29ZM153.04 90.74C148.14 91.62 143.38 92.37 138.92 92.96L138.82 92.25C143.28 91.66 148.02 90.92 152.92 90.04L153.04 90.74ZM563.42 90.59L563.08 91.22C558.62 88.82 554.49 86.63 550.46 84.55L550.79 83.92C554.85 86 559 88.19 563.45 90.59H563.42ZM78.68 90.33L78.51 91.02C73.93 89.96 69.29 88.67 64.73 87.17L65 86.5C69.49 88 74.11 89.27 78.68 90.33ZM177.57 85.65C172.68 86.79 167.99 87.82 163.57 88.72L163.43 88.02C167.81 87.12 172.5 86.09 177.38 84.96L177.57 85.65ZM201.84 79.65C196.84 80.96 192.31 82.11 187.99 83.18L187.82 82.49C192.14 81.42 196.67 80.27 201.66 78.96L201.84 79.65ZM541.26 79.1L540.94 79.74C536.55 77.55 532.22 75.47 528.08 73.55L528.38 72.9C532.52 74.8 536.86 76.88 541.26 79.07V79.1ZM226 73.14C221.333 74.38 216.733 75.6233 212.2 76.87L212.01 76.19L225.8 72.45L226 73.14ZM32.46 72L32.11 72.62C28.02 70.3 23.92 67.77 19.93 65.11L20.33 64.52C24.3 67.18 28.38 69.7 32.46 72ZM250.11 66.55L236.33 70.3L236.14 69.61L249.93 65.86L250.11 66.55ZM518.6 68.47L518.32 69.12C513.88 67.19 509.44 65.34 505.14 63.64L505.41 62.98C509.71 64.68 514.15 66.53 518.6 68.47ZM274.27 60.19C269.93 61.29 265.42 62.47 260.46 63.78L260.4 63.57C260.389 63.4045 260.362 63.2405 260.32 63.08C265.26 61.77 269.77 60.6 274.09 59.5L274.27 60.19ZM495.37 59.19L495.13 59.86C490.61 58.23 486.06 56.69 481.62 55.29L481.83 54.61C486.29 56 490.84 57.54 495.37 59.18V59.19ZM11.59 58.36L11.17 58.93C7.33 56.07 3.58 53.06 0 50L0.46 49.46C4 52.51 7.77 55.51 11.59 58.36ZM298.59 54.3C294.17 55.3 289.49 56.42 284.7 57.59L284.53 56.9C289.33 55.72 294 54.62 298.44 53.61L298.59 54.3ZM471.59 51.56L471.4 52.25C466.8 50.97 462.15 49.8 457.58 48.76L457.74 48.07C462.28 49.1 466.94 50.28 471.55 51.56H471.59ZM323 49.18C318.5 50 313.79 51 309 52L308.85 51.3C313.63 50.3 318.35 49.3 322.85 48.48L323 49.18ZM347.67 45.18C343.1 45.81 338.35 46.54 333.55 47.34L333.43 46.64C338.23 45.83 342.99 45.1 347.58 44.47L347.67 45.18ZM447.19 45.94L447.06 46.64C442.41 45.71 437.68 45 433 44.31L433.1 43.6C437.78 44.24 442.53 45 447.2 45.89L447.19 45.94ZM372.53 42.51C367.92 42.84 363.14 43.28 358.32 43.81L358.25 43.1C363.07 42.57 367.86 42.1 372.48 41.8L372.53 42.51ZM422.45 42.35L422.38 43.06C417.68 42.6 412.9 42.26 408.17 42.06V41.35C412.94 41.54 417.74 41.89 422.45 42.35ZM397.49 41V41.73C393.36 41.73 389.13 41.73 384.94 41.87L383.23 41.93V41.21L384.9 41.15C389.11 41 393.34 41 397.49 41ZM250.57 63.32C242.49 62.4 234.53 61.7067 226.69 61.24C166.765 57.5956 106.653 64.0351 48.86 80.29C46.53 79.29 44.2 78.17 41.86 77.03L41.54 77.67C43.5933 78.6833 45.66 79.66 47.74 80.6C31.6296 85.1869 15.7853 90.662 0.28 97L1 98.65C17.1139 92.0709 33.5908 86.4183 50.35 81.72C51.78 82.34 53.22 82.94 54.65 83.51L54.91 82.85C53.76 82.39 52.6 81.91 51.45 81.42C108.411 65.6464 167.593 59.4221 226.59 63C234.45 63.46 242.45 64.1567 250.59 65.09C250.533 64.8103 250.506 64.5254 250.51 64.24C250.501 63.9321 250.521 63.6241 250.57 63.32ZM5.71 138.08C5.9218 137.997 6.10422 137.853 6.23418 137.666C6.36414 137.48 6.43579 137.258 6.44009 137.031C6.44439 136.804 6.38112 136.58 6.25831 136.388C6.13549 136.197 5.95864 136.046 5.75012 135.955C5.54161 135.864 5.3108 135.837 5.08689 135.877C4.86299 135.918 4.65604 136.023 4.49224 136.181C4.32845 136.339 4.21515 136.542 4.16669 136.764C4.11823 136.987 4.13678 137.218 4.22 137.43C4.33364 137.712 4.55343 137.938 4.8321 138.06C5.11076 138.181 5.42601 138.189 5.71 138.08ZM12.41 135.44C12.6816 135.329 12.8996 135.117 13.0189 134.848C13.1381 134.58 13.1492 134.276 13.05 134C12.9662 133.788 12.8214 133.606 12.634 133.477C12.4466 133.347 12.225 133.277 11.9973 133.273C11.7696 133.27 11.546 133.334 11.355 133.458C11.1639 133.582 11.0139 133.76 10.924 133.969C10.8342 134.179 10.8084 134.41 10.8501 134.634C10.8918 134.858 10.999 135.064 11.1582 135.227C11.3173 135.39 11.5213 135.502 11.7441 135.549C11.967 135.595 12.1987 135.575 12.41 135.49V135.44ZM19.1 132.8C19.3118 132.717 19.4942 132.573 19.6242 132.386C19.7541 132.2 19.8258 131.978 19.8301 131.751C19.8344 131.524 19.7711 131.3 19.6483 131.108C19.5255 130.917 19.3486 130.766 19.1401 130.675C18.9316 130.584 18.7008 130.557 18.4769 130.597C18.253 130.638 18.046 130.743 17.8822 130.901C17.7184 131.059 17.6052 131.262 17.5567 131.484C17.5082 131.707 17.5268 131.938 17.61 132.15C17.7215 132.434 17.9411 132.662 18.2205 132.783C18.4999 132.905 18.8162 132.911 19.1 132.8ZM25.8 130.16C26.0864 130.054 26.319 129.838 26.4465 129.561C26.574 129.283 26.5861 128.966 26.48 128.68C26.3739 128.394 26.1584 128.161 25.8808 128.033C25.6033 127.906 25.2864 127.894 25 128C24.8587 128.054 24.7296 128.136 24.6202 128.24C24.5108 128.345 24.4233 128.47 24.3628 128.609C24.3023 128.747 24.27 128.897 24.2678 129.048C24.2656 129.199 24.2935 129.35 24.35 129.49C24.4578 129.768 24.6692 129.993 24.9397 130.118C25.2102 130.243 25.5186 130.258 25.8 130.16ZM32.49 127.52C32.635 127.466 32.7675 127.383 32.8794 127.277C32.9914 127.17 33.0805 127.042 33.1413 126.9C33.2021 126.757 33.2334 126.604 33.2331 126.45C33.2329 126.295 33.2012 126.142 33.14 126C33.057 125.788 32.913 125.606 32.7263 125.476C32.5396 125.346 32.3185 125.274 32.091 125.27C31.8636 125.266 31.64 125.329 31.4485 125.452C31.257 125.575 31.1062 125.751 31.0153 125.96C30.9243 126.168 30.8972 126.399 30.9375 126.623C30.9777 126.847 31.0834 127.054 31.2413 127.218C31.3992 127.382 31.6021 127.495 31.8244 127.543C32.0466 127.592 32.2783 127.573 32.49 127.49V127.52ZM39.19 124.89C39.4727 124.774 39.699 124.553 39.8204 124.272C39.9419 123.992 39.9489 123.675 39.84 123.39C39.7849 123.25 39.7025 123.121 39.5976 123.013C39.4926 122.905 39.3672 122.818 39.2286 122.759C39.0901 122.699 38.941 122.668 38.7902 122.666C38.6394 122.665 38.4898 122.693 38.35 122.75C38.0751 122.868 37.8568 123.088 37.7414 123.363C37.626 123.639 37.6225 123.949 37.7318 124.228C37.841 124.506 38.0544 124.731 38.3266 124.854C38.5988 124.978 38.9085 124.991 39.19 124.89ZM45.8 122.49C46.021 122.436 46.221 122.317 46.3746 122.149C46.5283 121.981 46.6286 121.772 46.663 121.547C46.6973 121.322 46.6642 121.092 46.5677 120.886C46.4712 120.679 46.3157 120.507 46.121 120.389C45.9262 120.271 45.7008 120.214 45.4735 120.224C45.2462 120.235 45.027 120.312 44.8438 120.447C44.6606 120.582 44.5216 120.769 44.4444 120.983C44.3672 121.197 44.3552 121.429 44.41 121.65C44.4833 121.945 44.6708 122.2 44.9314 122.357C45.1919 122.515 45.5043 122.562 45.8 122.49ZM52.8 120.79C53.0208 120.736 53.2208 120.618 53.3747 120.451C53.5286 120.284 53.6295 120.075 53.6646 119.85C53.6998 119.626 53.6676 119.396 53.5722 119.19C53.4767 118.983 53.3223 118.81 53.1284 118.691C52.9345 118.573 52.7098 118.514 52.4828 118.523C52.2557 118.532 52.0363 118.609 51.8525 118.742C51.6686 118.876 51.5285 119.061 51.4497 119.274C51.371 119.487 51.3571 119.719 51.41 119.94C51.4812 120.235 51.6663 120.49 51.9248 120.649C52.1833 120.809 52.4944 120.859 52.79 120.79H52.8ZM59.8 119.08C60.021 119.026 60.221 118.907 60.3746 118.739C60.5283 118.571 60.6286 118.362 60.663 118.137C60.6973 117.912 60.6642 117.682 60.5677 117.476C60.4712 117.269 60.3157 117.097 60.121 116.979C59.9262 116.861 59.7008 116.804 59.4735 116.814C59.2462 116.825 59.027 116.902 58.8438 117.037C58.6606 117.172 58.5216 117.359 58.4444 117.573C58.3672 117.787 58.3552 118.019 58.41 118.24C58.4834 118.533 58.6694 118.786 58.9277 118.943C59.1859 119.1 59.4957 119.15 59.79 119.08H59.8ZM66.8 117.38C67.0209 117.326 67.2208 117.208 67.3747 117.041C67.5286 116.874 67.6295 116.665 67.6646 116.44C67.6998 116.216 67.6676 115.986 67.5722 115.78C67.4767 115.573 67.3223 115.4 67.1284 115.281C66.9345 115.163 66.7098 115.104 66.4828 115.113C66.2557 115.122 66.0363 115.199 65.8525 115.332C65.6686 115.466 65.5285 115.651 65.4497 115.864C65.371 116.077 65.3571 116.309 65.41 116.53C65.4441 116.676 65.5067 116.813 65.594 116.935C65.6813 117.057 65.7917 117.16 65.919 117.239C66.0462 117.318 66.1877 117.371 66.3354 117.395C66.4832 117.419 66.6342 117.414 66.78 117.38H66.8ZM73.8 115.68C74.0209 115.626 74.2208 115.508 74.3747 115.341C74.5286 115.174 74.6295 114.965 74.6646 114.74C74.6998 114.516 74.6676 114.286 74.5722 114.08C74.4767 113.873 74.3223 113.7 74.1284 113.581C73.9345 113.463 73.7098 113.404 73.4828 113.413C73.2557 113.422 73.0363 113.499 72.8525 113.632C72.6686 113.766 72.5285 113.951 72.4497 114.164C72.371 114.377 72.3571 114.609 72.41 114.83C72.4836 115.12 72.6661 115.37 72.9194 115.528C73.1728 115.686 73.4775 115.741 73.77 115.68H73.8ZM80.8 113.97C81.022 113.918 81.2234 113.8 81.3785 113.633C81.5337 113.466 81.6356 113.256 81.6714 113.031C81.7071 112.806 81.6751 112.575 81.5793 112.368C81.4835 112.161 81.3284 111.987 81.1335 111.868C80.9387 111.75 80.713 111.692 80.4851 111.702C80.2572 111.712 80.0375 111.789 79.8538 111.925C79.6701 112.06 79.5308 112.247 79.4535 112.461C79.3763 112.676 79.3646 112.909 79.42 113.13C79.4871 113.42 79.6643 113.673 79.9143 113.836C80.1642 113.998 80.4674 114.057 80.76 114L80.8 113.97ZM87.69 112.32C87.9977 112.274 88.2743 112.107 88.459 111.856C88.6437 111.606 88.7214 111.293 88.675 110.985C88.6286 110.677 88.4619 110.401 88.2115 110.216C87.9611 110.031 87.6476 109.954 87.34 110C87.1903 110.02 87.0461 110.07 86.9155 110.146C86.785 110.222 86.6708 110.323 86.5793 110.443C86.4878 110.564 86.4209 110.701 86.3825 110.847C86.344 110.993 86.3346 111.145 86.355 111.295C86.3754 111.445 86.425 111.589 86.5011 111.719C86.5772 111.85 86.6782 111.964 86.7985 112.056C86.9188 112.147 87.0558 112.214 87.2019 112.253C87.348 112.291 87.5003 112.3 87.65 112.28L87.69 112.32ZM94.82 111.32C94.9715 111.302 95.1179 111.253 95.2505 111.177C95.3832 111.102 95.4994 111.001 95.5925 110.88C95.6856 110.759 95.7536 110.62 95.7927 110.473C95.8317 110.325 95.841 110.171 95.82 110.02C95.8028 109.869 95.7555 109.723 95.6809 109.59C95.6063 109.458 95.506 109.341 95.3858 109.248C95.2656 109.155 95.1279 109.087 94.9809 109.048C94.834 109.008 94.6806 108.999 94.53 109.02C94.3794 109.039 94.234 109.087 94.1021 109.162C93.9702 109.237 93.8544 109.337 93.7615 109.457C93.6685 109.577 93.6002 109.714 93.5605 109.86C93.5208 110.007 93.5104 110.16 93.53 110.31C93.5604 110.613 93.7081 110.893 93.9416 111.089C94.1751 111.285 94.4759 111.382 94.78 111.36L94.82 111.32ZM101.95 110.32C102.101 110.301 102.246 110.253 102.378 110.178C102.51 110.103 102.626 110.003 102.719 109.883C102.811 109.763 102.88 109.626 102.92 109.48C102.959 109.333 102.97 109.18 102.95 109.03C102.908 108.726 102.748 108.451 102.505 108.264C102.261 108.077 101.955 107.993 101.65 108.03C101.348 108.071 101.074 108.231 100.889 108.474C100.705 108.716 100.624 109.023 100.665 109.325C100.706 109.627 100.866 109.901 101.108 110.086C101.351 110.27 101.658 110.351 101.96 110.31L101.95 110.32ZM109.08 109.32C109.384 109.278 109.659 109.118 109.846 108.875C110.033 108.631 110.117 108.325 110.08 108.02C110.049 107.796 109.952 107.585 109.802 107.416C109.651 107.246 109.454 107.125 109.235 107.067C109.016 107.009 108.785 107.017 108.57 107.09C108.356 107.163 108.168 107.298 108.029 107.477C107.891 107.657 107.809 107.873 107.794 108.099C107.778 108.325 107.83 108.551 107.942 108.748C108.054 108.945 108.222 109.104 108.425 109.206C108.627 109.308 108.855 109.347 109.08 109.32ZM116.22 108.32C116.522 108.279 116.796 108.119 116.981 107.877C117.165 107.634 117.246 107.327 117.205 107.025C117.164 106.723 117.004 106.449 116.761 106.264C116.519 106.08 116.212 105.999 115.91 106.04C115.606 106.082 115.331 106.242 115.144 106.485C114.957 106.729 114.873 107.035 114.91 107.34C114.913 107.499 114.95 107.656 115.017 107.8C115.084 107.945 115.18 108.074 115.299 108.179C115.418 108.284 115.558 108.363 115.71 108.412C115.862 108.46 116.022 108.477 116.18 108.46L116.22 108.32ZM123.35 107.32C123.574 107.289 123.785 107.192 123.954 107.042C124.124 106.891 124.245 106.694 124.303 106.475C124.361 106.256 124.353 106.025 124.28 105.81C124.207 105.596 124.072 105.408 123.893 105.269C123.713 105.131 123.497 105.049 123.271 105.034C123.045 105.018 122.819 105.07 122.622 105.182C122.425 105.294 122.266 105.462 122.164 105.665C122.062 105.867 122.023 106.095 122.05 106.32C122.048 106.482 122.08 106.643 122.144 106.793C122.208 106.942 122.302 107.076 122.42 107.187C122.539 107.298 122.679 107.384 122.832 107.437C122.985 107.491 123.148 107.513 123.31 107.5L123.35 107.32ZM130.48 106.32C130.631 106.301 130.776 106.253 130.908 106.178C131.04 106.103 131.156 106.003 131.249 105.883C131.341 105.763 131.41 105.626 131.45 105.48C131.489 105.333 131.5 105.18 131.48 105.03C131.438 104.726 131.278 104.451 131.035 104.264C130.791 104.077 130.485 103.993 130.18 104.03C130.028 104.048 129.882 104.097 129.749 104.173C129.617 104.248 129.501 104.349 129.408 104.47C129.314 104.591 129.246 104.73 129.207 104.877C129.168 105.025 129.159 105.179 129.18 105.33C129.17 105.495 129.197 105.661 129.258 105.815C129.318 105.969 129.412 106.108 129.532 106.222C129.652 106.336 129.795 106.423 129.952 106.476C130.109 106.529 130.275 106.548 130.44 106.53L130.48 106.32ZM137.57 105.9C137.721 105.892 137.869 105.855 138.006 105.79C138.142 105.725 138.265 105.634 138.366 105.521C138.467 105.409 138.545 105.278 138.596 105.135C138.646 104.992 138.668 104.841 138.66 104.69C138.652 104.539 138.615 104.391 138.549 104.254C138.484 104.118 138.393 103.996 138.281 103.894C138.168 103.793 138.037 103.715 137.895 103.665C137.752 103.614 137.601 103.592 137.45 103.6C137.299 103.608 137.151 103.645 137.014 103.71C136.878 103.776 136.756 103.867 136.654 103.979C136.553 104.092 136.475 104.223 136.425 104.365C136.374 104.508 136.352 104.659 136.36 104.81C136.338 104.975 136.353 105.142 136.402 105.301C136.451 105.46 136.534 105.606 136.645 105.73C136.757 105.853 136.893 105.951 137.046 106.017C137.199 106.083 137.364 106.114 137.53 106.11L137.57 105.9ZM144.76 105.52C144.987 105.508 145.206 105.428 145.388 105.292C145.57 105.155 145.708 104.967 145.783 104.752C145.859 104.537 145.868 104.305 145.812 104.085C145.755 103.864 145.634 103.665 145.464 103.514C145.294 103.362 145.083 103.264 144.857 103.233C144.632 103.201 144.402 103.237 144.197 103.337C143.992 103.436 143.821 103.594 143.706 103.79C143.591 103.986 143.536 104.213 143.55 104.44C143.526 104.605 143.539 104.773 143.588 104.932C143.636 105.091 143.72 105.237 143.831 105.36C143.943 105.484 144.081 105.581 144.234 105.644C144.388 105.708 144.554 105.738 144.72 105.73L144.76 105.52ZM151.94 105.15C152.168 105.14 152.387 105.062 152.57 104.927C152.754 104.792 152.893 104.606 152.97 104.391C153.048 104.177 153.059 103.945 153.005 103.724C152.95 103.503 152.83 103.303 152.662 103.15C152.493 102.997 152.283 102.897 152.058 102.864C151.832 102.83 151.602 102.864 151.396 102.962C151.19 103.059 151.018 103.216 150.901 103.411C150.785 103.607 150.728 103.833 150.74 104.06C150.718 104.224 150.732 104.391 150.781 104.549C150.83 104.707 150.912 104.852 151.022 104.976C151.132 105.099 151.268 105.197 151.419 105.264C151.571 105.33 151.735 105.363 151.9 105.36L151.94 105.15ZM159.13 104.77C159.357 104.758 159.575 104.679 159.757 104.543C159.939 104.406 160.077 104.219 160.153 104.005C160.229 103.791 160.239 103.559 160.183 103.338C160.127 103.118 160.007 102.919 159.838 102.767C159.669 102.615 159.459 102.516 159.234 102.484C159.009 102.451 158.78 102.486 158.574 102.583C158.369 102.681 158.197 102.837 158.081 103.032C157.964 103.228 157.908 103.453 157.92 103.68C157.895 103.846 157.907 104.016 157.955 104.177C158.003 104.339 158.085 104.487 158.197 104.613C158.308 104.739 158.446 104.839 158.6 104.906C158.755 104.973 158.922 105.005 159.09 105L159.13 104.77ZM166.32 104.4C166.471 104.392 166.619 104.355 166.756 104.29C166.892 104.224 167.014 104.133 167.116 104.021C167.217 103.908 167.295 103.777 167.345 103.635C167.396 103.492 167.418 103.341 167.41 103.19C167.402 103.039 167.365 102.891 167.299 102.754C167.234 102.618 167.143 102.496 167.031 102.394C166.918 102.293 166.787 102.215 166.645 102.165C166.502 102.114 166.351 102.092 166.2 102.1C165.895 102.116 165.609 102.252 165.404 102.479C165.2 102.706 165.094 103.005 165.11 103.31C165.126 103.615 165.262 103.901 165.489 104.106C165.716 104.31 166.015 104.416 166.32 104.4ZM173.51 104.02C173.737 104.008 173.955 103.929 174.137 103.793C174.319 103.656 174.457 103.469 174.533 103.255C174.609 103.041 174.619 102.809 174.563 102.588C174.507 102.368 174.387 102.169 174.218 102.017C174.049 101.865 173.839 101.766 173.614 101.734C173.389 101.701 173.16 101.736 172.954 101.833C172.749 101.931 172.577 102.087 172.461 102.282C172.344 102.478 172.288 102.703 172.3 102.93C172.276 103.095 172.289 103.263 172.338 103.423C172.387 103.582 172.47 103.729 172.581 103.853C172.693 103.977 172.83 104.075 172.984 104.14C173.137 104.205 173.303 104.236 173.47 104.23L173.51 104.02ZM180.63 104.12C180.857 104.122 181.08 104.057 181.269 103.932C181.459 103.808 181.608 103.63 181.697 103.422C181.787 103.213 181.812 102.982 181.77 102.759C181.729 102.536 181.622 102.33 181.463 102.167C181.305 102.005 181.102 101.893 180.88 101.845C180.658 101.798 180.427 101.817 180.216 101.901C180.005 101.985 179.823 102.129 179.694 102.316C179.565 102.502 179.494 102.723 179.49 102.95C179.456 103.115 179.459 103.285 179.498 103.449C179.538 103.612 179.613 103.766 179.717 103.897C179.822 104.029 179.955 104.136 180.106 104.211C180.256 104.285 180.422 104.326 180.59 104.33L180.63 104.12ZM187.82 104.22C188.048 104.224 188.272 104.16 188.463 104.037C188.655 103.913 188.805 103.736 188.896 103.526C188.986 103.317 189.012 103.086 188.971 102.862C188.93 102.638 188.823 102.431 188.664 102.268C188.505 102.104 188.301 101.992 188.078 101.945C187.855 101.898 187.623 101.918 187.412 102.003C187.2 102.088 187.019 102.234 186.89 102.422C186.762 102.61 186.692 102.832 186.69 103.06C186.656 103.224 186.659 103.393 186.698 103.555C186.736 103.717 186.81 103.869 186.914 104C187.018 104.131 187.15 104.237 187.299 104.311C187.449 104.386 187.613 104.426 187.78 104.43L187.82 104.22ZM195.02 104.33C195.247 104.334 195.471 104.27 195.662 104.147C195.853 104.024 196.004 103.847 196.095 103.639C196.185 103.43 196.212 103.199 196.171 102.975C196.131 102.752 196.025 102.545 195.867 102.381C195.709 102.218 195.506 102.105 195.284 102.056C195.062 102.008 194.83 102.027 194.618 102.11C194.407 102.194 194.225 102.338 194.095 102.525C193.965 102.711 193.894 102.933 193.89 103.16C193.858 103.326 193.862 103.496 193.903 103.66C193.944 103.823 194.019 103.976 194.125 104.107C194.231 104.239 194.364 104.346 194.515 104.42C194.666 104.495 194.831 104.536 195 104.54L195.02 104.33ZM202.22 104.43C202.371 104.433 202.52 104.405 202.66 104.35C202.8 104.294 202.928 104.212 203.036 104.107C203.143 104.002 203.229 103.876 203.288 103.738C203.348 103.599 203.379 103.451 203.38 103.3C203.384 103.072 203.32 102.848 203.197 102.657C203.073 102.465 202.896 102.315 202.686 102.224C202.477 102.134 202.246 102.108 202.022 102.149C201.798 102.19 201.591 102.297 201.428 102.456C201.264 102.615 201.152 102.819 201.105 103.042C201.058 103.265 201.078 103.497 201.163 103.708C201.248 103.92 201.394 104.101 201.582 104.23C201.77 104.358 201.992 104.428 202.22 104.43ZM209.41 104.54C209.637 104.544 209.861 104.48 210.052 104.357C210.243 104.234 210.394 104.057 210.485 103.849C210.575 103.64 210.602 103.409 210.561 103.185C210.521 102.962 210.415 102.755 210.257 102.591C210.099 102.428 209.896 102.315 209.674 102.266C209.452 102.218 209.22 102.237 209.008 102.32C208.797 102.404 208.615 102.548 208.485 102.735C208.355 102.921 208.284 103.143 208.28 103.37C208.246 103.534 208.249 103.704 208.288 103.866C208.327 104.029 208.4 104.182 208.504 104.313C208.608 104.445 208.739 104.552 208.889 104.627C209.038 104.703 209.203 104.745 209.37 104.75L209.41 104.54ZM216.54 104.85C216.845 104.871 217.146 104.77 217.377 104.57C217.607 104.369 217.749 104.085 217.77 103.78C217.791 103.475 217.69 103.174 217.49 102.943C217.289 102.713 217.005 102.571 216.7 102.55C216.395 102.529 216.094 102.63 215.863 102.83C215.633 103.031 215.491 103.315 215.47 103.62C215.449 103.925 215.55 104.226 215.75 104.457C215.951 104.687 216.235 104.829 216.54 104.85ZM223.71 105.36C224.004 105.365 224.288 105.258 224.505 105.06C224.722 104.862 224.855 104.588 224.877 104.295C224.899 104.002 224.807 103.712 224.622 103.484C224.437 103.257 224.171 103.108 223.88 103.07C223.576 103.048 223.277 103.147 223.046 103.346C222.815 103.545 222.673 103.827 222.65 104.13C222.605 104.293 222.597 104.464 222.626 104.63C222.655 104.796 222.721 104.954 222.819 105.092C222.916 105.229 223.043 105.344 223.191 105.427C223.338 105.509 223.502 105.558 223.67 105.57L223.71 105.36ZM230.89 105.88C231.117 105.897 231.344 105.847 231.542 105.735C231.74 105.623 231.901 105.455 232.004 105.252C232.106 105.048 232.146 104.819 232.118 104.594C232.091 104.368 231.997 104.155 231.848 103.983C231.7 103.81 231.503 103.686 231.284 103.625C231.064 103.564 230.832 103.57 230.616 103.641C230.4 103.713 230.21 103.847 230.07 104.026C229.93 104.206 229.846 104.423 229.83 104.65C229.787 104.813 229.78 104.983 229.81 105.148C229.84 105.314 229.906 105.471 230.003 105.608C230.101 105.746 230.227 105.86 230.373 105.943C230.519 106.026 230.682 106.077 230.85 106.09L230.89 105.88ZM238.07 106.39C238.306 106.405 238.54 106.347 238.741 106.224C238.943 106.101 239.102 105.92 239.196 105.703C239.291 105.487 239.317 105.247 239.27 105.016C239.224 104.784 239.107 104.573 238.936 104.41C238.766 104.247 238.549 104.141 238.315 104.105C238.082 104.07 237.843 104.107 237.632 104.212C237.421 104.317 237.247 104.484 237.133 104.691C237.02 104.899 236.974 105.135 237 105.37C236.975 105.665 237.065 105.958 237.251 106.187C237.438 106.417 237.706 106.565 238 106.6L238.07 106.39ZM245.25 106.91C245.477 106.927 245.704 106.877 245.902 106.765C246.1 106.653 246.261 106.485 246.364 106.282C246.466 106.078 246.506 105.849 246.478 105.624C246.451 105.398 246.357 105.185 246.208 105.013C246.06 104.84 245.863 104.716 245.644 104.655C245.424 104.594 245.192 104.6 244.976 104.671C244.76 104.743 244.57 104.877 244.43 105.056C244.29 105.236 244.206 105.453 244.19 105.68C244.149 105.843 244.143 106.012 244.174 106.177C244.205 106.342 244.271 106.498 244.368 106.635C244.465 106.772 244.59 106.886 244.736 106.97C244.881 107.054 245.043 107.105 245.21 107.12L245.25 106.91ZM252.34 107.69C252.493 107.715 252.649 107.71 252.799 107.673C252.949 107.637 253.091 107.57 253.215 107.478C253.339 107.385 253.443 107.269 253.521 107.135C253.599 107.002 253.649 106.854 253.669 106.701C253.688 106.547 253.677 106.391 253.635 106.243C253.592 106.094 253.521 105.955 253.424 105.834C253.327 105.714 253.207 105.614 253.07 105.541C252.934 105.468 252.784 105.424 252.63 105.41C252.48 105.389 252.327 105.398 252.181 105.438C252.034 105.477 251.897 105.545 251.778 105.639C251.659 105.732 251.559 105.848 251.486 105.981C251.412 106.113 251.366 106.259 251.35 106.41C251.299 106.571 251.284 106.741 251.305 106.908C251.327 107.075 251.385 107.235 251.476 107.378C251.567 107.52 251.687 107.64 251.83 107.73C251.972 107.821 252.133 107.879 252.3 107.9L252.34 107.69ZM259.48 108.59C259.705 108.618 259.934 108.578 260.137 108.476C260.34 108.374 260.508 108.214 260.62 108.017C260.732 107.819 260.784 107.593 260.767 107.367C260.751 107.14 260.668 106.924 260.529 106.744C260.39 106.565 260.201 106.43 259.986 106.358C259.77 106.286 259.538 106.279 259.319 106.339C259.1 106.398 258.903 106.521 258.754 106.692C258.605 106.863 258.509 107.075 258.48 107.3C258.427 107.462 258.411 107.634 258.432 107.803C258.454 107.972 258.512 108.134 258.604 108.278C258.696 108.421 258.819 108.543 258.963 108.633C259.108 108.723 259.271 108.78 259.44 108.8L259.48 108.59ZM266.62 109.48C266.846 109.508 267.075 109.468 267.278 109.366C267.482 109.264 267.65 109.104 267.762 108.906C267.874 108.708 267.925 108.481 267.908 108.254C267.892 108.027 267.808 107.81 267.668 107.631C267.528 107.451 267.338 107.318 267.121 107.246C266.905 107.175 266.673 107.17 266.454 107.231C266.234 107.292 266.038 107.416 265.89 107.589C265.741 107.761 265.647 107.974 265.62 108.2C265.569 108.361 265.554 108.532 265.576 108.7C265.599 108.868 265.658 109.029 265.749 109.171C265.841 109.313 265.963 109.434 266.107 109.523C266.25 109.613 266.412 109.67 266.58 109.69L266.62 109.48ZM273.77 110.38C273.92 110.4 274.072 110.389 274.218 110.349C274.364 110.309 274.5 110.241 274.619 110.148C274.738 110.055 274.838 109.939 274.912 109.807C274.986 109.675 275.033 109.53 275.05 109.38C275.078 109.154 275.038 108.925 274.936 108.722C274.834 108.518 274.674 108.35 274.476 108.238C274.278 108.126 274.051 108.075 273.824 108.092C273.597 108.108 273.38 108.192 273.201 108.332C273.021 108.472 272.888 108.662 272.816 108.879C272.745 109.095 272.74 109.327 272.801 109.546C272.862 109.766 272.986 109.962 273.159 110.11C273.331 110.259 273.544 110.353 273.77 110.38ZM280.77 111.64C281.07 111.697 281.38 111.633 281.632 111.461C281.884 111.289 282.058 111.025 282.115 110.725C282.172 110.425 282.108 110.115 281.936 109.863C281.764 109.611 281.5 109.437 281.2 109.38C280.899 109.327 280.59 109.393 280.338 109.565C280.086 109.737 279.911 110.001 279.85 110.3C279.788 110.46 279.763 110.631 279.776 110.802C279.789 110.973 279.84 111.139 279.925 111.287C280.011 111.436 280.128 111.563 280.269 111.661C280.41 111.758 280.571 111.823 280.74 111.85L280.77 111.64ZM287.84 112.98C288.064 113.022 288.295 112.996 288.504 112.907C288.713 112.817 288.891 112.667 289.015 112.477C289.139 112.286 289.204 112.063 289.201 111.835C289.198 111.608 289.128 111.386 288.999 111.199C288.87 111.011 288.689 110.866 288.477 110.781C288.266 110.697 288.034 110.677 287.812 110.725C287.589 110.772 287.386 110.884 287.227 111.047C287.068 111.21 286.961 111.416 286.92 111.64C286.86 111.8 286.836 111.971 286.85 112.141C286.864 112.311 286.915 112.476 287 112.624C287.085 112.772 287.202 112.9 287.342 112.998C287.482 113.095 287.642 113.161 287.81 113.19L287.84 112.98ZM294.84 114.36C295.062 114.41 295.293 114.392 295.505 114.31C295.717 114.229 295.9 114.086 296.031 113.9C296.162 113.715 296.235 113.494 296.24 113.267C296.246 113.04 296.185 112.817 296.064 112.624C295.942 112.432 295.767 112.28 295.56 112.188C295.352 112.095 295.122 112.066 294.898 112.104C294.674 112.142 294.467 112.245 294.301 112.401C294.136 112.557 294.021 112.759 293.97 112.98C293.903 113.14 293.872 113.313 293.881 113.486C293.889 113.659 293.937 113.828 294.019 113.981C294.102 114.133 294.217 114.266 294.358 114.368C294.498 114.469 294.659 114.539 294.83 114.57L294.84 114.36ZM301.84 115.93C302.062 115.98 302.294 115.963 302.506 115.881C302.719 115.799 302.902 115.656 303.033 115.47C303.164 115.284 303.237 115.063 303.243 114.836C303.248 114.608 303.186 114.384 303.064 114.192C302.942 113.999 302.765 113.848 302.557 113.756C302.349 113.664 302.118 113.636 301.894 113.676C301.669 113.715 301.462 113.82 301.298 113.978C301.133 114.135 301.019 114.338 300.97 114.56C300.903 114.721 300.873 114.896 300.883 115.07C300.894 115.245 300.944 115.415 301.029 115.567C301.115 115.72 301.235 115.85 301.379 115.95C301.522 116.049 301.687 116.114 301.86 116.14L301.84 115.93ZM308.84 117.51C309.062 117.56 309.294 117.543 309.506 117.461C309.719 117.379 309.902 117.236 310.033 117.05C310.164 116.864 310.237 116.643 310.243 116.416C310.248 116.188 310.186 115.964 310.064 115.772C309.942 115.579 309.765 115.428 309.557 115.336C309.349 115.244 309.118 115.216 308.894 115.256C308.669 115.295 308.462 115.4 308.298 115.558C308.133 115.715 308.019 115.918 307.97 116.14C307.903 116.303 307.873 116.479 307.885 116.655C307.896 116.831 307.948 117.001 308.036 117.154C308.124 117.307 308.246 117.437 308.392 117.535C308.538 117.633 308.705 117.697 308.88 117.72L308.84 117.51ZM315.84 119.09C315.988 119.123 316.141 119.128 316.29 119.102C316.439 119.076 316.582 119.022 316.71 118.941C316.838 118.86 316.949 118.755 317.037 118.631C317.124 118.507 317.187 118.368 317.22 118.22C317.253 118.072 317.258 117.919 317.232 117.77C317.206 117.621 317.152 117.478 317.071 117.35C316.99 117.222 316.885 117.111 316.761 117.023C316.637 116.936 316.498 116.873 316.35 116.84C316.052 116.777 315.741 116.832 315.483 116.995C315.226 117.157 315.042 117.414 314.97 117.71C314.903 117.875 314.874 118.053 314.887 118.231C314.899 118.408 314.953 118.581 315.042 118.735C315.132 118.888 315.257 119.019 315.405 119.117C315.554 119.215 315.723 119.278 315.9 119.3L315.84 119.09ZM322.84 120.67C323.123 120.766 323.432 120.75 323.703 120.625C323.975 120.501 324.188 120.277 324.3 120C324.333 119.852 324.338 119.699 324.312 119.55C324.286 119.401 324.232 119.258 324.151 119.13C324.07 119.002 323.965 118.891 323.841 118.803C323.717 118.716 323.578 118.653 323.43 118.62C323.282 118.587 323.129 118.582 322.98 118.608C322.831 118.634 322.688 118.688 322.56 118.769C322.432 118.85 322.321 118.955 322.233 119.079C322.146 119.203 322.083 119.342 322.05 119.49C321.984 119.789 322.038 120.103 322.201 120.363C322.363 120.623 322.622 120.809 322.92 120.88L322.84 120.67ZM329.84 122.24C330.062 122.29 330.294 122.273 330.506 122.191C330.719 122.109 330.902 121.966 331.033 121.78C331.164 121.594 331.237 121.373 331.243 121.146C331.248 120.918 331.186 120.694 331.064 120.502C330.942 120.309 330.765 120.158 330.557 120.066C330.349 119.974 330.118 119.946 329.894 119.986C329.669 120.025 329.462 120.13 329.298 120.288C329.133 120.445 329.019 120.648 328.97 120.87C328.901 121.042 328.874 121.228 328.892 121.412C328.91 121.596 328.972 121.773 329.073 121.929C329.174 122.084 329.311 122.212 329.473 122.303C329.634 122.394 329.815 122.444 330 122.45L329.84 122.24ZM337 124C337.223 124.043 337.454 124.019 337.664 123.931C337.873 123.843 338.052 123.695 338.178 123.505C338.303 123.316 338.37 123.093 338.369 122.866C338.368 122.639 338.299 122.417 338.172 122.228C338.045 122.04 337.865 121.893 337.655 121.807C337.444 121.721 337.213 121.699 336.99 121.744C336.767 121.789 336.563 121.899 336.403 122.06C336.243 122.222 336.134 122.427 336.09 122.65C336.061 122.798 336.061 122.951 336.091 123.099C336.121 123.248 336.18 123.388 336.265 123.514C336.35 123.639 336.458 123.747 336.584 123.83C336.71 123.914 336.852 123.971 337 124ZM344.14 125.16C344.365 125.197 344.595 125.166 344.802 125.072C345.009 124.977 345.183 124.824 345.303 124.63C345.423 124.437 345.482 124.212 345.474 123.985C345.466 123.758 345.391 123.538 345.258 123.353C345.126 123.169 344.941 123.028 344.728 122.948C344.515 122.868 344.283 122.853 344.062 122.906C343.84 122.958 343.639 123.074 343.484 123.241C343.329 123.407 343.227 123.616 343.19 123.84C343.161 123.991 343.163 124.147 343.196 124.297C343.228 124.448 343.291 124.59 343.379 124.716C343.468 124.842 343.581 124.949 343.712 125.03C343.842 125.112 343.988 125.166 344.14 125.19V125.16ZM351.25 126.31C351.475 126.347 351.706 126.316 351.913 126.222C352.121 126.127 352.295 125.973 352.415 125.779C352.535 125.585 352.594 125.36 352.586 125.133C352.577 124.905 352.501 124.685 352.368 124.5C352.234 124.316 352.048 124.175 351.834 124.096C351.62 124.017 351.388 124.004 351.166 124.057C350.945 124.111 350.744 124.229 350.59 124.397C350.436 124.565 350.335 124.775 350.3 125C350.273 125.151 350.276 125.305 350.309 125.454C350.342 125.604 350.405 125.745 350.494 125.87C350.582 125.994 350.694 126.1 350.824 126.181C350.954 126.262 351.099 126.316 351.25 126.34V126.31ZM358.35 127.46C358.574 127.487 358.801 127.447 359.003 127.346C359.204 127.244 359.372 127.086 359.484 126.89C359.596 126.694 359.648 126.47 359.634 126.245C359.619 126.019 359.539 125.804 359.403 125.624C359.267 125.444 359.08 125.308 358.867 125.233C358.655 125.158 358.424 125.148 358.206 125.203C357.987 125.258 357.789 125.376 357.637 125.543C357.485 125.709 357.385 125.917 357.35 126.14C357.322 126.295 357.325 126.454 357.361 126.607C357.397 126.761 357.463 126.905 357.557 127.032C357.651 127.159 357.77 127.265 357.906 127.343C358.042 127.422 358.194 127.472 358.35 127.49V127.46ZM365.46 128.61C365.684 128.647 365.915 128.616 366.122 128.522C366.329 128.427 366.503 128.274 366.623 128.08C366.743 127.887 366.802 127.662 366.794 127.435C366.786 127.208 366.711 126.988 366.578 126.803C366.446 126.619 366.261 126.478 366.048 126.398C365.835 126.318 365.603 126.303 365.382 126.356C365.16 126.408 364.959 126.524 364.804 126.691C364.649 126.857 364.547 127.066 364.51 127.29C364.483 127.441 364.486 127.596 364.519 127.746C364.552 127.896 364.615 128.038 364.703 128.163C364.791 128.289 364.904 128.396 365.034 128.478C365.164 128.559 365.309 128.615 365.46 128.64V128.61ZM372.56 129.76C372.784 129.797 373.015 129.766 373.222 129.672C373.429 129.577 373.603 129.424 373.723 129.23C373.843 129.037 373.902 128.812 373.894 128.585C373.886 128.358 373.811 128.138 373.678 127.953C373.546 127.769 373.361 127.628 373.148 127.548C372.935 127.468 372.703 127.453 372.482 127.506C372.26 127.558 372.059 127.674 371.904 127.841C371.749 128.007 371.647 128.216 371.61 128.44C371.581 128.591 371.583 128.747 371.616 128.897C371.648 129.048 371.711 129.19 371.799 129.316C371.888 129.442 372.001 129.549 372.132 129.63C372.262 129.712 372.408 129.766 372.56 129.79V129.76ZM379.83 130.63C380.057 130.64 380.282 130.582 380.476 130.464C380.671 130.346 380.826 130.172 380.921 129.966C381.017 129.76 381.05 129.53 381.015 129.306C380.981 129.081 380.88 128.872 380.727 128.704C380.573 128.536 380.373 128.418 380.152 128.364C379.931 128.31 379.7 128.323 379.486 128.4C379.272 128.478 379.086 128.617 378.952 128.801C378.817 128.984 378.74 129.203 378.73 129.43C378.719 129.583 378.739 129.738 378.789 129.883C378.839 130.029 378.917 130.163 379.02 130.278C379.122 130.392 379.247 130.485 379.386 130.551C379.525 130.617 379.676 130.654 379.83 130.66V130.63ZM387 131C387.227 131.01 387.452 130.952 387.646 130.834C387.841 130.716 387.995 130.542 388.091 130.336C388.187 130.13 388.22 129.9 388.185 129.676C388.151 129.451 388.05 129.242 387.897 129.074C387.743 128.906 387.543 128.788 387.322 128.734C387.101 128.68 386.87 128.693 386.656 128.77C386.442 128.848 386.256 128.987 386.122 129.171C385.987 129.354 385.91 129.573 385.9 129.8C385.893 129.951 385.916 130.102 385.968 130.244C386.02 130.386 386.099 130.517 386.201 130.628C386.303 130.74 386.426 130.83 386.564 130.894C386.701 130.957 386.849 130.994 387 131ZM394.19 131.35C394.417 131.36 394.641 131.302 394.835 131.184C395.029 131.066 395.184 130.894 395.28 130.688C395.376 130.483 395.409 130.253 395.375 130.029C395.341 129.805 395.242 129.595 395.089 129.427C394.937 129.26 394.738 129.141 394.518 129.085C394.298 129.03 394.066 129.042 393.852 129.118C393.639 129.194 393.452 129.332 393.316 129.514C393.181 129.695 393.102 129.913 393.09 130.14C393.082 130.293 393.105 130.447 393.157 130.592C393.209 130.736 393.29 130.869 393.394 130.982C393.499 131.094 393.625 131.185 393.765 131.248C393.905 131.312 394.056 131.346 394.21 131.35H394.19ZM401.38 131.69C401.538 131.71 401.698 131.697 401.85 131.652C402.003 131.607 402.144 131.531 402.266 131.428C402.388 131.326 402.486 131.199 402.557 131.057C402.627 130.914 402.667 130.758 402.674 130.599C402.68 130.44 402.654 130.282 402.597 130.134C402.539 129.985 402.452 129.851 402.34 129.738C402.228 129.625 402.093 129.537 401.945 129.479C401.797 129.421 401.639 129.394 401.48 129.4C401.329 129.392 401.179 129.414 401.037 129.464C400.895 129.515 400.764 129.593 400.652 129.695C400.541 129.796 400.45 129.918 400.387 130.055C400.323 130.191 400.286 130.339 400.28 130.49C400.273 130.643 400.297 130.795 400.35 130.939C400.403 131.082 400.484 131.213 400.588 131.325C400.692 131.437 400.818 131.527 400.957 131.589C401.097 131.652 401.247 131.686 401.4 131.69H401.38ZM408.56 132.04C408.787 132.052 409.012 131.996 409.208 131.879C409.403 131.763 409.559 131.591 409.657 131.386C409.754 131.18 409.789 130.951 409.756 130.726C409.724 130.501 409.625 130.291 409.473 130.122C409.321 129.953 409.122 129.833 408.902 129.777C408.681 129.721 408.449 129.731 408.235 129.807C408.021 129.883 407.834 130.021 407.697 130.203C407.561 130.385 407.482 130.603 407.47 130.83C407.465 131.132 407.578 131.423 407.786 131.642C407.993 131.861 408.278 131.99 408.58 132L408.56 132.04ZM415.94 132.28C416.095 132.269 416.246 132.227 416.384 132.155C416.522 132.084 416.644 131.986 416.743 131.866C416.842 131.747 416.916 131.608 416.96 131.459C417.004 131.311 417.018 131.154 417 131C416.96 130.699 416.804 130.426 416.564 130.239C416.325 130.052 416.022 129.966 415.72 130C415.563 130.009 415.411 130.05 415.27 130.121C415.13 130.191 415.006 130.289 414.906 130.41C414.805 130.53 414.73 130.669 414.685 130.82C414.64 130.97 414.627 131.128 414.645 131.283C414.664 131.439 414.714 131.589 414.792 131.725C414.871 131.861 414.976 131.979 415.102 132.072C415.228 132.165 415.372 132.232 415.525 132.268C415.677 132.303 415.836 132.308 415.99 132.28H415.94ZM423.09 131.45C423.39 131.412 423.664 131.258 423.851 131.02C424.038 130.783 424.124 130.481 424.09 130.18C424.072 130.03 424.025 129.884 423.951 129.752C423.877 129.62 423.778 129.504 423.659 129.41C423.54 129.316 423.404 129.247 423.258 129.205C423.113 129.164 422.96 129.152 422.81 129.17C422.66 129.188 422.514 129.235 422.382 129.309C422.25 129.383 422.134 129.482 422.04 129.601C421.946 129.72 421.877 129.856 421.836 130.002C421.794 130.147 421.782 130.3 421.8 130.45C421.818 130.603 421.867 130.75 421.943 130.883C422.02 131.017 422.122 131.133 422.244 131.226C422.366 131.32 422.506 131.387 422.654 131.426C422.803 131.464 422.958 131.472 423.11 131.45H423.09ZM430.24 130.63C430.466 130.603 430.679 130.509 430.851 130.36C431.024 130.212 431.148 130.016 431.209 129.796C431.27 129.577 431.265 129.345 431.194 129.129C431.122 128.912 430.989 128.722 430.809 128.582C430.63 128.442 430.413 128.358 430.186 128.342C429.959 128.325 429.732 128.376 429.534 128.488C429.336 128.6 429.176 128.768 429.074 128.972C428.972 129.175 428.932 129.404 428.96 129.63C429 129.935 429.159 130.212 429.403 130.399C429.647 130.587 429.955 130.67 430.26 130.63H430.24ZM437.39 129.8C437.616 129.773 437.829 129.679 438.001 129.53C438.174 129.382 438.298 129.186 438.359 128.966C438.42 128.747 438.415 128.515 438.344 128.299C438.272 128.082 438.139 127.892 437.959 127.752C437.78 127.612 437.563 127.528 437.336 127.512C437.109 127.495 436.882 127.546 436.684 127.658C436.486 127.77 436.326 127.938 436.224 128.142C436.122 128.345 436.082 128.574 436.11 128.8C436.15 129.105 436.309 129.382 436.553 129.569C436.797 129.757 437.105 129.84 437.41 129.8H437.39ZM444.54 128.97C444.84 128.932 445.114 128.778 445.301 128.54C445.488 128.303 445.574 128.001 445.54 127.7C445.5 127.399 445.344 127.126 445.104 126.939C444.865 126.752 444.562 126.666 444.26 126.7C444.103 126.709 443.951 126.75 443.81 126.821C443.67 126.891 443.546 126.989 443.446 127.11C443.345 127.23 443.27 127.369 443.225 127.52C443.18 127.67 443.167 127.828 443.185 127.983C443.204 128.139 443.254 128.289 443.332 128.425C443.411 128.561 443.516 128.679 443.642 128.772C443.768 128.865 443.912 128.932 444.065 128.968C444.217 129.003 444.376 129.008 444.53 128.98L444.54 128.97ZM451.69 128.15C451.916 128.123 452.129 128.029 452.301 127.88C452.474 127.732 452.598 127.536 452.659 127.316C452.72 127.097 452.715 126.865 452.643 126.649C452.572 126.432 452.439 126.242 452.259 126.102C452.08 125.962 451.863 125.878 451.636 125.862C451.409 125.845 451.182 125.896 450.984 126.008C450.786 126.12 450.626 126.288 450.524 126.492C450.422 126.695 450.382 126.924 450.41 127.15C450.45 127.455 450.609 127.732 450.853 127.919C451.097 128.107 451.405 128.19 451.71 128.15H451.69ZM458.8 126.09C459.016 126.02 459.207 125.888 459.348 125.71C459.489 125.533 459.574 125.317 459.593 125.091C459.612 124.864 459.563 124.637 459.453 124.439C459.344 124.24 459.177 124.078 458.976 123.974C458.774 123.87 458.546 123.827 458.32 123.853C458.094 123.878 457.881 123.969 457.707 124.115C457.533 124.261 457.407 124.455 457.343 124.673C457.28 124.891 457.282 125.123 457.35 125.34C457.395 125.487 457.47 125.624 457.569 125.741C457.668 125.859 457.789 125.956 457.926 126.026C458.063 126.096 458.213 126.138 458.367 126.149C458.52 126.16 458.674 126.14 458.82 126.09H458.8ZM465.66 123.92C465.951 123.826 466.193 123.621 466.333 123.349C466.474 123.078 466.501 122.762 466.41 122.47C466.34 122.254 466.208 122.063 466.03 121.922C465.853 121.781 465.637 121.696 465.411 121.677C465.184 121.658 464.957 121.707 464.759 121.817C464.56 121.926 464.398 122.093 464.294 122.294C464.19 122.496 464.147 122.724 464.173 122.95C464.198 123.176 464.289 123.389 464.435 123.563C464.581 123.737 464.775 123.863 464.993 123.927C465.211 123.99 465.443 123.988 465.66 123.92ZM472.52 121.74C472.664 121.696 472.799 121.623 472.915 121.526C473.031 121.43 473.126 121.311 473.196 121.177C473.266 121.043 473.308 120.896 473.321 120.746C473.334 120.595 473.316 120.444 473.27 120.3C473.227 120.152 473.155 120.015 473.058 119.896C472.962 119.776 472.842 119.678 472.706 119.605C472.571 119.533 472.422 119.489 472.269 119.475C472.116 119.461 471.962 119.478 471.815 119.525C471.669 119.572 471.534 119.647 471.417 119.747C471.3 119.847 471.205 119.97 471.136 120.107C471.068 120.245 471.027 120.395 471.018 120.548C471.008 120.701 471.029 120.855 471.08 121C471.125 121.146 471.199 121.281 471.298 121.398C471.396 121.514 471.517 121.61 471.653 121.679C471.79 121.748 471.938 121.789 472.091 121.799C472.243 121.81 472.396 121.79 472.54 121.74H472.52ZM479.38 119.57C479.597 119.502 479.789 119.371 479.932 119.194C480.075 119.016 480.162 118.801 480.182 118.574C480.202 118.347 480.154 118.12 480.045 117.92C479.936 117.72 479.769 117.558 479.567 117.453C479.366 117.347 479.137 117.305 478.911 117.329C478.685 117.354 478.471 117.446 478.297 117.592C478.122 117.739 477.995 117.933 477.932 118.152C477.868 118.371 477.871 118.603 477.94 118.82C477.985 118.966 478.059 119.101 478.158 119.218C478.256 119.335 478.377 119.432 478.513 119.501C478.649 119.571 478.797 119.613 478.949 119.625C479.102 119.637 479.255 119.618 479.4 119.57H479.38ZM486.24 117.4C486.523 117.31 486.76 117.114 486.902 116.853C487.043 116.592 487.079 116.286 487 116C486.901 115.717 486.696 115.484 486.428 115.351C486.159 115.217 485.85 115.193 485.564 115.284C485.279 115.376 485.04 115.575 484.9 115.839C484.759 116.103 484.727 116.412 484.81 116.7C484.912 116.983 485.121 117.215 485.392 117.346C485.663 117.477 485.975 117.496 486.26 117.4H486.24ZM493.09 114.63C493.29 114.522 493.454 114.357 493.56 114.157C493.667 113.956 493.711 113.728 493.688 113.502C493.665 113.276 493.576 113.062 493.431 112.886C493.287 112.711 493.094 112.582 492.876 112.517C492.658 112.451 492.426 112.452 492.209 112.518C491.991 112.584 491.798 112.713 491.654 112.889C491.51 113.065 491.422 113.28 491.4 113.506C491.377 113.732 491.423 113.96 491.53 114.16C491.601 114.296 491.699 114.417 491.818 114.514C491.936 114.612 492.073 114.685 492.221 114.729C492.368 114.772 492.523 114.786 492.675 114.769C492.828 114.752 492.976 114.705 493.11 114.63H493.09ZM499.43 111.23C499.63 111.122 499.794 110.957 499.9 110.757C500.007 110.556 500.051 110.328 500.028 110.102C500.005 109.876 499.916 109.662 499.771 109.486C499.627 109.311 499.434 109.182 499.216 109.117C498.998 109.051 498.766 109.052 498.549 109.118C498.331 109.184 498.138 109.313 497.994 109.489C497.85 109.665 497.762 109.88 497.74 110.106C497.717 110.332 497.763 110.56 497.87 110.76C497.941 110.896 498.039 111.017 498.158 111.114C498.276 111.212 498.413 111.285 498.561 111.329C498.708 111.372 498.863 111.386 499.015 111.369C499.168 111.352 499.316 111.305 499.45 111.23H499.43ZM505.77 107.83C505.903 107.759 506.022 107.662 506.117 107.545C506.213 107.427 506.285 107.293 506.329 107.148C506.373 107.003 506.387 106.851 506.372 106.7C506.357 106.549 506.312 106.403 506.24 106.27C506.17 106.137 506.074 106.019 505.957 105.923C505.841 105.827 505.707 105.756 505.563 105.712C505.419 105.668 505.268 105.653 505.118 105.669C504.968 105.684 504.822 105.728 504.69 105.8C504.557 105.871 504.438 105.968 504.343 106.085C504.247 106.203 504.175 106.337 504.131 106.482C504.087 106.627 504.073 106.779 504.088 106.93C504.103 107.081 504.148 107.227 504.22 107.36C504.29 107.496 504.387 107.616 504.505 107.714C504.623 107.811 504.759 107.884 504.905 107.928C505.052 107.972 505.206 107.986 505.358 107.969C505.51 107.952 505.657 107.905 505.79 107.83H505.77ZM512.12 104.43C512.32 104.322 512.484 104.157 512.59 103.957C512.697 103.756 512.741 103.528 512.718 103.302C512.695 103.076 512.606 102.862 512.461 102.686C512.317 102.511 512.124 102.382 511.906 102.317C511.688 102.251 511.456 102.252 511.239 102.318C511.021 102.384 510.828 102.513 510.684 102.689C510.54 102.865 510.452 103.08 510.43 103.306C510.407 103.532 510.453 103.76 510.56 103.96C510.631 104.096 510.729 104.217 510.848 104.314C510.966 104.412 511.103 104.485 511.251 104.529C511.398 104.572 511.553 104.586 511.705 104.569C511.858 104.552 512.006 104.505 512.14 104.43H512.12ZM518.46 101.03C518.66 100.922 518.824 100.757 518.93 100.557C519.037 100.356 519.081 100.128 519.058 99.9019C519.035 99.6758 518.946 99.4615 518.801 99.2862C518.657 99.1108 518.464 98.9823 518.246 98.9167C518.028 98.8511 517.796 98.8515 517.579 98.9178C517.361 98.9841 517.168 99.1133 517.024 99.2891C516.88 99.465 516.792 99.6795 516.77 99.9057C516.747 100.132 516.793 100.36 516.9 100.56C516.974 100.694 517.074 100.811 517.193 100.906C517.313 101 517.451 101.07 517.598 101.111C517.745 101.152 517.899 101.163 518.05 101.144C518.202 101.125 518.348 101.076 518.48 101L518.46 101.03ZM524.8 97.63C524.933 97.5586 525.052 97.4616 525.147 97.3445C525.243 97.2274 525.315 97.0925 525.359 96.9476C525.403 96.8027 525.417 96.6505 525.402 96.4999C525.387 96.3493 525.342 96.2032 525.27 96.07C525.2 95.9369 525.104 95.819 524.987 95.7232C524.871 95.6274 524.737 95.5556 524.593 95.5119C524.449 95.4682 524.297 95.4535 524.148 95.4686C523.998 95.4837 523.852 95.5284 523.72 95.6C523.586 95.6714 523.468 95.7684 523.372 95.8855C523.277 96.0026 523.205 96.1375 523.161 96.2824C523.117 96.4273 523.103 96.5795 523.118 96.7301C523.133 96.8807 523.178 97.0268 523.25 97.16C523.32 97.2958 523.417 97.416 523.535 97.5136C523.653 97.6111 523.789 97.684 523.935 97.7278C524.082 97.7717 524.236 97.7856 524.388 97.7688C524.54 97.752 524.687 97.7048 524.82 97.63H524.8ZM531.15 94.22C531.35 94.1112 531.513 93.9457 531.618 93.7442C531.724 93.5428 531.768 93.3146 531.744 93.0884C531.719 92.8622 531.629 92.6483 531.483 92.4736C531.338 92.2989 531.143 92.1713 530.925 92.107C530.707 92.0427 530.475 92.0445 530.258 92.1122C530.041 92.1799 529.848 92.3105 529.705 92.4874C529.562 92.6644 529.475 92.8797 529.455 93.1062C529.434 93.3327 529.481 93.5602 529.59 93.76C529.662 93.8953 529.761 94.0147 529.88 94.1114C529.999 94.208 530.136 94.2799 530.283 94.3228C530.43 94.3656 530.585 94.3786 530.737 94.361C530.889 94.3433 531.036 94.2954 531.17 94.22H531.15ZM537.48 90.8C537.68 90.6912 537.843 90.5257 537.948 90.3242C538.054 90.1228 538.098 89.8946 538.074 89.6684C538.049 89.4422 537.959 89.2283 537.813 89.0536C537.668 88.8789 537.473 88.7513 537.255 88.687C537.037 88.6227 536.805 88.6245 536.588 88.6922C536.37 88.7599 536.178 88.8905 536.035 89.0674C535.892 89.2444 535.805 89.4597 535.785 89.6862C535.764 89.9127 535.811 90.1402 535.92 90.34C535.992 90.4753 536.091 90.5947 536.21 90.6914C536.329 90.788 536.466 90.8599 536.613 90.9028C536.76 90.9456 536.915 90.9586 537.067 90.941C537.219 90.9233 537.367 90.8754 537.5 90.8H537.48ZM543.81 87.38C543.964 87.3221 544.104 87.2318 544.22 87.1153C544.336 86.9987 544.426 86.8586 544.483 86.7044C544.54 86.5503 544.564 86.3856 544.552 86.2215C544.54 86.0574 544.494 85.8977 544.415 85.7533C544.336 85.6088 544.227 85.483 544.096 85.3842C543.964 85.2854 543.813 85.2159 543.653 85.1805C543.492 85.1452 543.326 85.1446 543.165 85.1791C543.004 85.2135 542.852 85.282 542.72 85.38C542.497 85.5452 542.342 85.7854 542.282 86.0563C542.222 86.3271 542.263 86.6104 542.395 86.8539C542.528 87.0975 542.744 87.2848 543.004 87.3815C543.264 87.4782 543.55 87.4776 543.81 87.38ZM550.17 84C550.302 83.9287 550.419 83.8321 550.514 83.7155C550.609 83.5989 550.68 83.4647 550.722 83.3207C550.765 83.1766 550.779 83.0255 550.763 82.8761C550.747 82.7267 550.702 82.5819 550.63 82.45C550.522 82.2489 550.358 82.0844 550.156 81.9772C549.955 81.87 549.727 81.8251 549.5 81.8482C549.273 81.8712 549.058 81.9612 548.882 82.1067C548.707 82.2521 548.578 82.4465 548.513 82.6651C548.449 82.8837 548.45 83.1167 548.518 83.3344C548.586 83.5521 548.717 83.7447 548.894 83.8878C549.072 84.0308 549.288 84.1179 549.515 84.1379C549.742 84.1579 549.97 84.1099 550.17 84ZM556.5 80.58C556.64 80.5124 556.764 80.4171 556.866 80.2998C556.967 80.1824 557.044 80.0456 557.09 79.8977C557.137 79.7498 557.153 79.5939 557.138 79.4395C557.122 79.2852 557.075 79.1356 557 79C556.893 78.7986 556.729 78.6335 556.529 78.5255C556.328 78.4175 556.1 78.3715 555.873 78.3934C555.646 78.4153 555.431 78.5041 555.255 78.6484C555.079 78.7928 554.949 78.9863 554.883 79.2044C554.817 79.4224 554.817 79.6552 554.884 79.8731C554.95 80.0911 555.08 80.2844 555.256 80.4286C555.432 80.5728 555.648 80.6613 555.875 80.6829C556.101 80.7045 556.33 80.6582 556.53 80.55L556.5 80.58ZM562.83 77.16C563.031 77.0525 563.196 76.8876 563.303 76.6863C563.41 76.4851 563.455 76.2565 563.432 76.0296C563.409 75.8028 563.319 75.5879 563.173 75.4123C563.028 75.2367 562.833 75.1083 562.615 75.0434C562.396 74.9785 562.163 74.9801 561.946 75.0479C561.728 75.1158 561.535 75.2468 561.392 75.4243C561.249 75.6019 561.162 75.818 561.142 76.0451C561.122 76.2722 561.17 76.5002 561.28 76.7C561.431 76.9603 561.678 77.1506 561.969 77.2292C562.259 77.3079 562.568 77.2686 562.83 77.12V77.16ZM569.17 73.74C569.37 73.6312 569.533 73.4656 569.638 73.2642C569.744 73.0628 569.788 72.8346 569.764 72.6084C569.74 72.3822 569.649 72.1683 569.503 71.9936C569.358 71.8189 569.163 71.6913 568.945 71.627C568.727 71.5627 568.495 71.5645 568.278 71.6322C568.06 71.6999 567.868 71.8305 567.725 72.0074C567.582 72.1844 567.495 72.3997 567.475 72.6262C567.454 72.8527 567.501 73.0802 567.61 73.28C567.763 73.541 568.012 73.7315 568.304 73.8101C568.596 73.8887 568.907 73.8491 569.17 73.7V73.74ZM575.53 70.81C575.744 70.733 575.931 70.5942 576.066 70.4112C576.201 70.2281 576.279 70.0091 576.29 69.7817C576.3 69.5544 576.243 69.329 576.126 69.134C576.008 68.9391 575.836 68.7835 575.63 68.6868C575.424 68.59 575.194 68.5566 574.969 68.5908C574.744 68.6249 574.534 68.7251 574.366 68.8785C574.198 69.032 574.079 69.2319 574.024 69.4529C573.97 69.6739 573.982 69.9061 574.06 70.12C574.169 70.4005 574.385 70.6264 574.661 70.7481C574.936 70.8699 575.249 70.8778 575.53 70.77V70.81ZM582.3 68.37C582.514 68.2937 582.701 68.1557 582.837 67.9734C582.972 67.791 583.051 67.5725 583.063 67.3454C583.074 67.1184 583.018 66.893 582.902 66.6977C582.786 66.5025 582.614 66.3461 582.409 66.2483C582.203 66.1506 581.974 66.1159 581.749 66.1486C581.524 66.1813 581.314 66.28 581.145 66.4321C580.976 66.5842 580.856 66.783 580.8 67.0033C580.744 67.2237 580.754 67.4557 580.83 67.67C580.94 67.9507 581.155 68.1771 581.43 68.3005C581.705 68.4239 582.017 68.4345 582.3 68.33V68.37ZM589.07 65.92C589.284 65.843 589.471 65.7042 589.606 65.5212C589.741 65.3381 589.819 65.1191 589.83 64.8917C589.84 64.6644 589.783 64.439 589.666 64.244C589.548 64.0491 589.376 63.8935 589.17 63.7968C588.964 63.7 588.734 63.6666 588.509 63.7008C588.284 63.7349 588.074 63.8351 587.906 63.9885C587.738 64.142 587.619 64.3419 587.564 64.5629C587.51 64.7839 587.522 65.0161 587.6 65.23C587.712 65.5089 587.928 65.733 588.203 65.8544C588.477 65.9759 588.789 65.9851 589.07 65.88V65.92ZM595.84 63.47C596.054 63.393 596.241 63.2542 596.376 63.0712C596.511 62.8881 596.589 62.6691 596.6 62.4417C596.61 62.2144 596.553 61.989 596.436 61.794C596.318 61.5991 596.146 61.4435 595.94 61.3468C595.734 61.25 595.504 61.2166 595.279 61.2508C595.054 61.2849 594.844 61.3851 594.676 61.5385C594.508 61.692 594.389 61.8919 594.334 62.1129C594.28 62.3339 594.292 62.5661 594.37 62.78C594.479 63.0605 594.695 63.2864 594.971 63.4081C595.246 63.5299 595.559 63.5378 595.84 63.43V63.47ZM602.61 61C602.823 60.9215 603.008 60.7816 603.142 60.5981C603.275 60.4146 603.352 60.1956 603.361 59.9687C603.371 59.7419 603.313 59.5173 603.195 59.3233C603.077 59.1294 602.904 58.9746 602.698 58.8787C602.492 58.7828 602.263 58.7499 602.038 58.7842C601.814 58.8185 601.605 58.9185 601.437 59.0716C601.269 59.2247 601.151 59.424 601.096 59.6443C601.041 59.8647 601.053 60.0963 601.13 60.31C601.238 60.5952 601.453 60.827 601.73 60.9559C602.006 61.0848 602.322 61.1006 602.61 61ZM609.38 58.55C609.593 58.4715 609.778 58.3316 609.912 58.1481C610.045 57.9646 610.122 57.7456 610.131 57.5187C610.141 57.2919 610.083 57.0673 609.965 56.8733C609.847 56.6793 609.674 56.5246 609.468 56.4287C609.262 56.3328 609.033 56.2999 608.808 56.3342C608.584 56.3685 608.375 56.4685 608.207 56.6216C608.039 56.7747 607.921 56.9739 607.866 57.1943C607.811 57.4147 607.823 57.6463 607.9 57.86C608.008 58.1451 608.224 58.3762 608.501 58.5034C608.778 58.6307 609.093 58.6438 609.38 58.54V58.55ZM616 56.29C616.222 56.2414 616.425 56.128 616.582 55.9642C616.74 55.8005 616.846 55.5936 616.886 55.3699C616.926 55.1461 616.899 54.9155 616.808 54.7071C616.717 54.4987 616.567 54.3219 616.375 54.199C616.184 54.0762 615.961 54.0128 615.734 54.0168C615.506 54.0209 615.285 54.0922 615.098 54.2218C614.912 54.3513 614.767 54.5334 614.684 54.7449C614.601 54.9564 614.582 55.1878 614.63 55.41C614.662 55.5578 614.723 55.6979 614.809 55.8222C614.895 55.9464 615.005 56.0525 615.132 56.1342C615.26 56.216 615.402 56.2718 615.551 56.2985C615.7 56.3253 615.852 56.3224 616 56.29ZM623 54.75C623.223 54.7031 623.427 54.5911 623.586 54.4281C623.745 54.2651 623.853 54.0585 623.894 53.8345C623.936 53.6105 623.91 53.3792 623.82 53.1699C623.73 52.9607 623.58 52.7828 623.388 52.6591C623.197 52.5353 622.973 52.4711 622.745 52.4747C622.518 52.4783 622.296 52.5495 622.109 52.6792C621.921 52.8089 621.777 52.9914 621.693 53.2034C621.61 53.4154 621.591 53.6474 621.64 53.87C621.671 54.0242 621.734 54.1704 621.824 54.2994C621.914 54.4284 622.03 54.5376 622.164 54.6201C622.298 54.7026 622.448 54.7567 622.604 54.779C622.759 54.8014 622.918 54.7915 623.07 54.75H623ZM630 53.2C630.148 53.1704 630.289 53.1114 630.414 53.0265C630.539 52.9416 630.645 52.8326 630.727 52.7058C630.809 52.579 630.865 52.4371 630.891 52.2884C630.917 52.1397 630.914 51.9872 630.88 51.84C630.858 51.6829 630.804 51.532 630.722 51.3967C630.639 51.2615 630.529 51.1448 630.399 51.0541C630.269 50.9633 630.121 50.9005 629.966 50.8694C629.81 50.8384 629.65 50.8399 629.495 50.8738C629.34 50.9077 629.194 50.9732 629.065 51.0664C628.937 51.1595 628.829 51.2782 628.749 51.4149C628.669 51.5517 628.618 51.7036 628.599 51.8611C628.58 52.0185 628.594 52.1782 628.64 52.33C628.669 52.4882 628.732 52.6384 628.824 52.7705C628.916 52.9026 629.035 53.0135 629.173 53.0959C629.311 53.1782 629.465 53.2301 629.625 53.2481C629.785 53.2661 629.947 53.2497 630.1 53.2H630ZM637 51.66C637.222 51.6109 637.425 51.4969 637.582 51.3324C637.74 51.168 637.845 50.9606 637.884 50.7363C637.924 50.5121 637.896 50.2813 637.804 50.073C637.712 49.8647 637.561 49.6883 637.368 49.5663C637.176 49.4443 636.952 49.382 636.724 49.3874C636.497 49.3928 636.276 49.4657 636.09 49.5967C635.904 49.7278 635.761 49.9111 635.679 50.1235C635.597 50.336 635.58 50.5679 635.63 50.79C635.659 50.9533 635.724 51.1083 635.82 51.244C635.915 51.3797 636.039 51.493 636.183 51.5758C636.327 51.6587 636.487 51.7092 636.652 51.7237C636.817 51.7382 636.984 51.7165 637.14 51.66H637ZM644 50.12C644.222 50.0714 644.425 49.958 644.582 49.7942C644.74 49.6305 644.846 49.4236 644.886 49.1999C644.926 48.9761 644.899 48.7455 644.808 48.5371C644.717 48.3287 644.567 48.1519 644.375 48.029C644.184 47.9062 643.961 47.8428 643.734 47.8468C643.506 47.8509 643.285 47.9222 643.098 48.0518C642.912 48.1813 642.767 48.3634 642.684 48.5749C642.601 48.7864 642.582 49.0178 642.63 49.24C642.657 49.4079 642.721 49.5676 642.818 49.7074C642.915 49.8471 643.042 49.9635 643.19 50.0479C643.337 50.1322 643.502 50.1825 643.672 50.195C643.841 50.2075 644.012 50.1819 644.17 50.12H644ZM651 48.58C651.222 48.5314 651.425 48.418 651.582 48.2542C651.74 48.0905 651.846 47.8836 651.886 47.6599C651.926 47.4361 651.899 47.2055 651.808 46.9971C651.717 46.7887 651.567 46.6119 651.375 46.489C651.184 46.3662 650.961 46.3028 650.734 46.3068C650.506 46.3109 650.285 46.3822 650.098 46.5118C649.912 46.6413 649.767 46.8234 649.684 47.0349C649.601 47.2464 649.582 47.4778 649.63 47.7C649.658 47.8707 649.724 48.033 649.823 48.1747C649.922 48.3165 650.052 48.434 650.203 48.5186C650.354 48.6032 650.522 48.6526 650.694 48.6632C650.867 48.6739 651.04 48.6454 651.2 48.58H651ZM658 47.45C658.15 47.4342 658.296 47.389 658.429 47.3169C658.562 47.2448 658.679 47.1473 658.774 47.0298C658.87 46.9123 658.941 46.7773 658.984 46.6323C659.027 46.4874 659.041 46.3354 659.025 46.185C659.009 46.0346 658.964 45.8888 658.892 45.756C658.82 45.6231 658.722 45.5057 658.605 45.4105C658.487 45.3153 658.352 45.2442 658.207 45.2012C658.062 45.1583 657.91 45.1442 657.76 45.16C657.456 45.1918 657.178 45.343 656.986 45.5802C656.793 45.8174 656.703 46.1213 656.735 46.425C656.767 46.7287 656.918 47.0073 657.155 47.1995C657.392 47.3917 657.696 47.4818 658 47.45ZM665.16 46.71C665.31 46.6942 665.456 46.649 665.589 46.5769C665.722 46.5048 665.839 46.4073 665.935 46.2898C666.03 46.1723 666.101 46.0373 666.144 45.8923C666.187 45.7474 666.201 45.5954 666.185 45.445C666.169 45.2946 666.124 45.1488 666.052 45.016C665.98 44.8831 665.882 44.7657 665.765 44.6705C665.647 44.5753 665.512 44.5042 665.367 44.4612C665.222 44.4183 665.07 44.4042 664.92 44.42C664.616 44.4518 664.338 44.603 664.146 44.8402C663.953 45.0774 663.863 45.3813 663.895 45.685C663.927 45.9887 664.078 46.2673 664.315 46.4595C664.552 46.6517 664.856 46.7418 665.16 46.71ZM672.48 46C672.707 45.9763 672.922 45.8855 673.098 45.7391C673.273 45.5927 673.401 45.3973 673.465 45.1779C673.529 44.9586 673.526 44.7251 673.457 44.5074C673.387 44.2896 673.255 44.0975 673.076 43.9554C672.897 43.8133 672.68 43.7278 672.452 43.7098C672.224 43.6917 671.996 43.7419 671.797 43.854C671.598 43.9661 671.437 44.135 671.334 44.3391C671.231 44.5432 671.191 44.7733 671.22 45C671.258 45.2983 671.411 45.57 671.646 45.757C671.882 45.9439 672.181 46.0311 672.48 46ZM679.64 45.26C679.94 45.2224 680.214 45.0681 680.401 44.8303C680.588 44.5926 680.674 44.2907 680.64 43.99C680.636 43.8313 680.599 43.675 680.532 43.5312C680.465 43.3874 680.369 43.259 680.249 43.1542C680.13 43.0494 679.99 42.9705 679.839 42.9224C679.688 42.8743 679.528 42.858 679.37 42.8746C679.212 42.8913 679.059 42.9404 678.921 43.019C678.783 43.0975 678.663 43.2038 678.568 43.3312C678.473 43.4585 678.406 43.6041 678.37 43.7588C678.334 43.9135 678.331 44.0739 678.36 44.23C678.397 44.5322 678.553 44.8072 678.793 44.9946C679.033 45.1821 679.338 45.2667 679.64 45.23V45.26ZM686.8 44.51C687.027 44.4863 687.242 44.3955 687.418 44.2491C687.593 44.1027 687.721 43.9073 687.785 43.6879C687.849 43.4686 687.846 43.2351 687.777 43.0174C687.707 42.7996 687.575 42.6075 687.396 42.4654C687.217 42.3233 687 42.2378 686.772 42.2198C686.544 42.2017 686.316 42.2519 686.117 42.364C685.918 42.4761 685.757 42.645 685.654 42.8491C685.551 43.0532 685.511 43.2833 685.54 43.51C685.582 43.8039 685.738 44.0698 685.973 44.2509C686.208 44.4321 686.505 44.5143 686.8 44.48V44.51ZM693.87 44.1C694.022 44.0961 694.172 44.0622 694.312 44.0003C694.451 43.9384 694.577 43.8497 694.682 43.7391C694.786 43.6286 694.869 43.4985 694.923 43.3563C694.978 43.214 695.004 43.0623 695 42.91C694.997 42.6067 694.875 42.3168 694.66 42.1033C694.444 41.8898 694.153 41.77 693.85 41.77C693.699 41.77 693.55 41.7998 693.411 41.8577C693.272 41.9156 693.146 42.0005 693.04 42.1074C692.934 42.2143 692.851 42.3412 692.794 42.4807C692.737 42.6201 692.709 42.7695 692.71 42.92C692.71 43.0719 692.74 43.2222 692.798 43.3624C692.857 43.5026 692.943 43.6298 693.05 43.7367C693.158 43.8436 693.286 43.9281 693.427 43.9853C693.568 44.0425 693.718 44.0713 693.87 44.07V44.1ZM701.06 44C701.211 44 701.361 43.9699 701.501 43.9114C701.641 43.8528 701.767 43.767 701.873 43.6591C701.979 43.5511 702.063 43.423 702.119 43.2824C702.175 43.1418 702.203 42.9914 702.2 42.84C702.198 42.6126 702.129 42.3908 702.001 42.2028C701.873 42.0148 701.692 41.869 701.481 41.7838C701.27 41.6986 701.039 41.6778 700.816 41.7241C700.593 41.7704 700.389 41.8818 700.23 42.044C700.07 42.2062 699.963 42.412 699.92 42.6355C699.878 42.8589 699.903 43.09 699.991 43.2993C700.08 43.5087 700.229 43.687 700.419 43.8117C700.61 43.9365 700.833 44.002 701.06 44ZM708.26 44C708.414 43.9974 708.566 43.9642 708.707 43.9022C708.848 43.8403 708.976 43.7508 709.082 43.6391C709.188 43.5274 709.271 43.3957 709.325 43.2516C709.38 43.1075 709.405 42.954 709.4 42.8C709.4 42.6486 709.37 42.4987 709.311 42.3591C709.253 42.2194 709.167 42.0929 709.059 41.9867C708.951 41.8806 708.823 41.7971 708.682 41.741C708.542 41.6849 708.391 41.6573 708.24 41.66C707.935 41.66 707.642 41.7812 707.427 41.9968C707.211 42.2125 707.09 42.505 707.09 42.81C707.09 43.115 707.211 43.4075 707.427 43.6232C707.642 43.8388 707.935 43.96 708.24 43.96L708.26 44ZM715.46 43.94C715.611 43.9387 715.76 43.9077 715.899 43.8486C716.038 43.7896 716.164 43.7038 716.27 43.5961C716.376 43.4884 716.46 43.3609 716.516 43.2209C716.573 43.0808 716.601 42.931 716.6 42.78C716.603 42.626 716.575 42.473 716.518 42.3299C716.46 42.1869 716.375 42.0566 716.267 41.9468C716.159 41.837 716.031 41.7497 715.889 41.6902C715.747 41.6306 715.594 41.6 715.44 41.6C715.289 41.6013 715.14 41.6323 715.001 41.6914C714.862 41.7504 714.736 41.8362 714.63 41.9439C714.524 42.0516 714.44 42.1791 714.384 42.3191C714.327 42.4592 714.299 42.609 714.3 42.76C714.3 42.9114 714.33 43.0613 714.389 43.2009C714.447 43.3406 714.533 43.4671 714.641 43.5733C714.749 43.6794 714.877 43.7629 715.018 43.819C715.158 43.8751 715.309 43.9027 715.46 43.9V43.94ZM722.56 44.01C722.787 44.0252 723.013 43.9729 723.21 43.8598C723.407 43.7466 723.566 43.5776 723.667 43.3741C723.768 43.1706 723.807 42.9417 723.778 42.7164C723.749 42.491 723.654 42.2792 723.505 42.1078C723.356 41.9364 723.159 41.813 722.94 41.7532C722.721 41.6933 722.489 41.6998 722.273 41.7717C722.058 41.8436 721.868 41.9778 721.729 42.1572C721.589 42.3367 721.506 42.5534 721.49 42.78C721.473 43.0829 721.576 43.3802 721.776 43.6082C721.976 43.8363 722.258 43.9769 722.56 44V44.01ZM729.74 44.53C729.967 44.5452 730.193 44.4929 730.39 44.3798C730.587 44.2666 730.746 44.0976 730.847 43.8941C730.948 43.6906 730.987 43.4617 730.958 43.2364C730.929 43.011 730.834 42.7992 730.685 42.6278C730.536 42.4564 730.339 42.333 730.12 42.2732C729.901 42.2133 729.669 42.2198 729.453 42.2917C729.238 42.3636 729.048 42.4978 728.909 42.6772C728.769 42.8567 728.686 43.0734 728.67 43.3C728.659 43.5985 728.764 43.8895 728.964 44.1116C729.164 44.3337 729.442 44.4694 729.74 44.49V44.53ZM736.91 45.06C737.215 45.0825 737.516 44.983 737.748 44.7833C737.98 44.5836 738.122 44.3 738.145 43.995C738.168 43.69 738.068 43.3885 737.868 43.1569C737.669 42.9253 737.385 42.7825 737.08 42.76C736.775 42.7375 736.474 42.837 736.242 43.0367C736.01 43.2364 735.867 43.52 735.845 43.825C735.822 44.13 735.922 44.4315 736.122 44.6631C736.321 44.8947 736.605 45.0375 736.91 45.06ZM744.09 45.58C744.241 45.5923 744.392 45.5745 744.536 45.5277C744.679 45.4809 744.812 45.406 744.927 45.3073C745.041 45.2087 745.135 45.0883 745.202 44.9531C745.27 44.818 745.31 44.6707 745.32 44.52C745.348 44.2123 745.252 43.9062 745.055 43.669C744.857 43.4318 744.573 43.2828 744.265 43.255C743.957 43.2272 743.651 43.3227 743.414 43.5205C743.177 43.7184 743.028 44.0023 743 44.31C742.988 44.463 743.007 44.6169 743.055 44.7624C743.104 44.9079 743.181 45.0422 743.283 45.157C743.385 45.2719 743.509 45.365 743.648 45.4308C743.786 45.4966 743.937 45.5338 744.09 45.54V45.58ZM751.15 46.58C751.375 46.6074 751.603 46.5677 751.805 46.466C752.008 46.3642 752.176 46.2049 752.288 46.008C752.4 45.8111 752.452 45.5855 752.436 45.3594C752.421 45.1333 752.339 44.9169 752.201 44.7373C752.062 44.5576 751.874 44.4229 751.66 44.3498C751.445 44.2768 751.214 44.2687 750.995 44.3267C750.776 44.3847 750.579 44.5061 750.428 44.6757C750.278 44.8453 750.181 45.0555 750.15 45.28C750.132 45.572 750.225 45.8599 750.411 46.0861C750.596 46.3124 750.86 46.4602 751.15 46.5V46.58ZM758.27 47.58C758.495 47.6074 758.723 47.5677 758.925 47.466C759.128 47.3642 759.296 47.2049 759.408 47.008C759.52 46.8111 759.572 46.5855 759.556 46.3594C759.541 46.1333 759.459 45.9169 759.321 45.7373C759.182 45.5576 758.994 45.4229 758.78 45.3498C758.565 45.2768 758.334 45.2687 758.115 45.3267C757.896 45.3847 757.699 45.5061 757.548 45.6757C757.398 45.8453 757.301 46.0555 757.27 46.28C757.247 46.5742 757.338 46.8659 757.524 47.0948C757.71 47.3238 757.977 47.4724 758.27 47.51V47.58ZM765.27 48.86C765.423 48.9028 765.583 48.9136 765.74 48.8915C765.897 48.8694 766.048 48.815 766.184 48.7317C766.319 48.6484 766.435 48.5381 766.526 48.4076C766.616 48.277 766.679 48.1292 766.709 47.9734C766.739 47.8175 766.737 47.6571 766.703 47.5021C766.668 47.3472 766.602 47.201 766.508 47.073C766.414 46.9449 766.295 46.8376 766.157 46.758C766.02 46.6783 765.868 46.6279 765.71 46.61C765.557 46.5672 765.397 46.5564 765.24 46.5785C765.083 46.6006 764.932 46.655 764.796 46.7383C764.661 46.8216 764.545 46.9319 764.454 47.0624C764.364 47.193 764.302 47.3408 764.271 47.4966C764.241 47.6525 764.243 47.8129 764.277 47.9679C764.312 48.1228 764.378 48.269 764.472 48.397C764.566 48.5251 764.685 48.6324 764.823 48.712C764.96 48.7917 765.112 48.8421 765.27 48.86ZM260.46 64.26C260.465 64.3433 260.465 64.4267 260.46 64.51C260.434 65.1171 260.295 65.714 260.05 66.27C259.612 67.2433 258.875 68.051 257.945 68.575C257.015 69.099 255.942 69.3117 254.883 69.1821C253.823 69.0524 252.833 68.5873 252.057 67.8546C251.281 67.1219 250.76 66.1601 250.57 65.11C250.513 64.8303 250.486 64.5454 250.49 64.26C250.49 63.9445 250.52 63.6297 250.58 63.32C250.803 62.2081 251.398 61.205 252.266 60.4756C253.135 59.7461 254.225 59.3336 255.359 59.3057C256.493 59.2778 257.603 59.6362 258.506 60.322C259.409 61.0078 260.052 61.9804 260.33 63.08C260.372 63.2405 260.399 63.4045 260.41 63.57C260.447 63.7981 260.464 64.029 260.46 64.26ZM259.72 64.26C259.718 63.2094 259.326 62.1969 258.621 61.418C257.916 60.6391 256.948 60.1489 255.902 60.042C254.857 59.9351 253.81 60.2191 252.961 60.8393C252.113 61.4594 251.525 62.3716 251.31 63.4C251.249 63.6826 251.219 63.9709 251.22 64.26C251.221 64.5765 251.258 64.8919 251.33 65.2C251.517 66.056 251.965 66.8331 252.612 67.4243C253.258 68.0154 254.072 68.3917 254.942 68.5013C255.811 68.611 256.693 68.4486 257.466 68.0365C258.24 67.6244 258.866 66.9828 259.26 66.2C259.538 65.6572 259.691 65.0594 259.71 64.45C259.72 64.3872 259.724 64.3235 259.72 64.26ZM603.63 110.88C603.631 111.285 603.581 111.688 603.48 112.08C603.43 112.298 603.363 112.512 603.28 112.72C603.19 112.944 603.083 113.162 602.96 113.37C602.367 114.398 601.429 115.182 600.311 115.582C599.194 115.981 597.97 115.97 596.86 115.551C595.75 115.131 594.825 114.331 594.251 113.292C593.677 112.253 593.492 111.044 593.727 109.881C593.963 108.718 594.605 107.676 595.538 106.943C596.471 106.209 597.634 105.832 598.82 105.877C600.006 105.923 601.137 106.389 602.011 107.192C602.885 107.995 603.444 109.082 603.59 110.26C603.619 110.465 603.632 110.673 603.63 110.88ZM602.9 110.88C602.915 110.694 602.915 110.506 602.9 110.32C602.764 109.297 602.262 108.357 601.485 107.677C600.709 106.996 599.712 106.621 598.68 106.62C598.035 106.618 597.398 106.766 596.818 107.05C596.239 107.334 595.733 107.748 595.34 108.26C595.19 108.442 595.059 108.64 594.95 108.85C594.612 109.463 594.433 110.15 594.43 110.85C594.43 111.452 594.563 112.046 594.82 112.59C595.138 113.303 595.646 113.914 596.289 114.356C596.933 114.798 597.686 115.053 598.465 115.094C599.245 115.134 600.02 114.958 600.706 114.585C601.392 114.212 601.961 113.656 602.35 112.98C602.482 112.777 602.59 112.559 602.67 112.33C602.67 112.26 602.67 112.19 602.75 112.11C602.858 111.709 602.909 111.295 602.9 110.88Z" fill="#232323"/>
<path d="M680.976 67.3647L674.887 85.9224C674.88 85.9394 674.87 85.9547 674.858 85.9671C674.846 85.9795 674.831 85.9887 674.816 85.9942C674.8 85.9997 674.783 86.0013 674.767 85.9989C674.75 85.9965 674.735 85.9901 674.721 85.9803L669.49 82.4103C669.472 82.3977 669.451 82.3911 669.43 82.3911C669.409 82.3911 669.388 82.3977 669.37 82.4103L664.706 85.9545C664.691 85.967 664.673 85.9748 664.654 85.9771C664.635 85.9794 664.616 85.9762 664.599 85.9677C664.582 85.9593 664.567 85.9459 664.555 85.9289C664.544 85.912 664.537 85.892 664.534 85.8709L663.293 78.2034C663.291 78.1857 663.286 78.1686 663.277 78.154C663.268 78.1393 663.255 78.1275 663.241 78.1198L656.053 73.2054C656.034 73.1928 656.019 73.174 656.01 73.1515C656.001 73.129 655.998 73.1039 656.002 73.0795C656.005 73.0551 656.016 73.0325 656.031 73.0148C656.046 72.9971 656.066 72.985 656.088 72.9802L680.695 67.0173C680.737 66.9987 680.784 66.995 680.828 67.0066C680.872 67.0182 680.912 67.0446 680.942 67.0823C680.973 67.12 680.992 67.1672 680.998 67.2176C681.004 67.268 680.996 67.3193 680.976 67.3647Z" fill="#272727"/>
<path d="M129.929 40.3909L126.975 39.0764C126.476 38.8576 125.931 38.744 125.378 38.7439C125.352 38.7432 125.326 38.7341 125.306 38.718C125.285 38.702 125.271 38.68 125.266 38.6556C124.798 36.2291 123.425 34.0325 121.386 32.4502C119.347 30.8678 116.773 30.0005 114.114 30C113.125 30.0506 112.141 30.1739 111.172 30.3689C111.163 30.3689 111.155 30.3722 111.149 30.378C111.142 30.3839 111.139 30.3918 111.139 30.4C111.139 30.4083 111.142 30.4162 111.149 30.4221C111.155 30.4279 111.163 30.4312 111.172 30.4312C113.025 30.9055 114.713 31.8197 116.068 33.0835C117.423 34.3472 118.399 35.9168 118.9 37.6373C118.903 37.649 118.902 37.6611 118.899 37.6727C118.896 37.6843 118.89 37.6951 118.883 37.7045C118.875 37.7139 118.864 37.7215 118.853 37.727C118.842 37.7324 118.829 37.7355 118.816 37.736C116.519 37.736 110.052 35.1903 109.054 34.8993C109.046 34.8962 109.037 34.8957 109.029 34.898C109.02 34.9002 109.013 34.905 109.008 34.9116C109.002 34.9181 109 34.9262 109 34.9343C109 34.9424 109.004 34.9502 109.009 34.9565L113.296 40.4325C113.31 40.4508 113.317 40.4725 113.317 40.4948C113.317 40.5171 113.31 40.5389 113.296 40.5571L109.009 46.0435C109.004 46.0498 109 46.0576 109 46.0657C109 46.0738 109.002 46.0819 109.008 46.0884C109.013 46.095 109.02 46.0998 109.029 46.102C109.037 46.1043 109.046 46.1038 109.054 46.1007C110.052 45.8046 116.519 43.2536 118.816 43.264C118.829 43.2635 118.842 43.266 118.854 43.2711C118.866 43.2763 118.877 43.284 118.885 43.2936C118.893 43.3032 118.899 43.3145 118.902 43.3265C118.904 43.3385 118.904 43.3509 118.9 43.3627C118.4 45.0838 117.423 46.6537 116.067 47.9169C114.71 49.18 113.021 50.0924 111.167 50.5636C111.16 50.5663 111.153 50.5709 111.149 50.577C111.144 50.583 111.142 50.5901 111.142 50.5974C111.142 50.6046 111.144 50.6117 111.149 50.6177C111.153 50.6238 111.16 50.6284 111.167 50.6311C112.136 50.8235 113.119 50.9468 114.109 51C116.77 51.0001 119.345 50.1317 121.384 48.5471C123.424 46.9625 124.796 44.7628 125.261 42.334C125.265 42.3092 125.278 42.2866 125.299 42.2704C125.319 42.2542 125.346 42.2454 125.373 42.2457C125.926 42.242 126.471 42.1249 126.97 41.9028L129.923 40.5935C129.945 40.586 129.964 40.5724 129.978 40.5547C129.992 40.5369 129.999 40.5158 130 40.494C130.001 40.4721 129.994 40.4507 129.981 40.4323C129.969 40.4139 129.95 40.3995 129.929 40.3909Z" fill="#272727"/>
<path d="M575.961 166.884C575.95 166.167 575.777 165.463 575.456 164.832C575.136 164.201 574.678 163.662 574.121 163.261C574.51 162.738 574.762 162.113 574.851 161.452C574.94 160.79 574.864 160.115 574.629 159.496C574.395 158.876 574.01 158.334 573.516 157.925C573.021 157.516 572.433 157.254 571.813 157.167C571.577 155.906 570.91 154.784 569.943 154.019C568.976 153.253 567.777 152.899 566.579 153.025C565.381 153.151 564.269 153.748 563.46 154.7C562.651 155.652 562.202 156.891 562.2 158.177V158.325C561.786 158.461 561.41 158.703 561.104 159.03C560.799 159.358 560.573 159.76 560.447 160.203C560.322 160.645 560.3 161.113 560.383 161.567C560.467 162.021 560.653 162.445 560.926 162.804C560.143 163.38 559.553 164.209 559.243 165.17C558.933 166.13 558.919 167.172 559.204 168.141C559.489 169.111 560.057 169.957 560.826 170.556C561.594 171.155 562.522 171.476 563.473 171.47H566.642C566.648 171.493 566.648 171.518 566.642 171.541L566.303 176.923C566.302 176.933 566.303 176.943 566.307 176.953C566.31 176.963 566.315 176.972 566.322 176.979C566.329 176.986 566.338 176.992 566.347 176.996C566.356 176.999 566.366 177.001 566.375 177H569.155C569.165 177.001 569.175 176.999 569.184 176.996C569.193 176.992 569.202 176.986 569.208 176.979C569.215 176.972 569.221 176.963 569.224 176.953C569.227 176.943 569.229 176.933 569.228 176.923L568.911 171.541C568.903 171.518 568.903 171.493 568.911 171.47H571.813C572.924 171.47 573.989 170.999 574.774 170.16C575.559 169.321 576 168.183 576 166.997V166.807L575.961 166.884Z" fill="#272727"/>
<path d="M166.961 151.884C166.95 151.167 166.777 150.463 166.456 149.832C166.136 149.201 165.678 148.662 165.121 148.261C165.51 147.738 165.762 147.113 165.851 146.452C165.94 145.79 165.864 145.115 165.629 144.496C165.395 143.876 165.01 143.334 164.516 142.925C164.021 142.516 163.433 142.254 162.813 142.167C162.577 140.906 161.91 139.784 160.943 139.019C159.976 138.253 158.777 137.899 157.579 138.025C156.381 138.151 155.269 138.748 154.46 139.7C153.651 140.652 153.202 141.891 153.2 143.177V143.325C152.786 143.461 152.41 143.703 152.104 144.03C151.799 144.358 151.573 144.76 151.447 145.203C151.322 145.645 151.3 146.113 151.383 146.567C151.467 147.021 151.653 147.445 151.926 147.804C151.143 148.38 150.553 149.209 150.243 150.17C149.933 151.13 149.919 152.172 150.204 153.141C150.489 154.111 151.057 154.957 151.826 155.556C152.594 156.155 153.522 156.476 154.473 156.47H157.642C157.648 156.493 157.648 156.518 157.642 156.541L157.303 161.923C157.302 161.933 157.303 161.943 157.307 161.953C157.31 161.963 157.315 161.972 157.322 161.979C157.329 161.986 157.338 161.992 157.347 161.996C157.356 161.999 157.366 162.001 157.375 162H160.155C160.165 162.001 160.175 161.999 160.184 161.996C160.193 161.992 160.202 161.986 160.208 161.979C160.215 161.972 160.221 161.963 160.224 161.953C160.227 161.943 160.229 161.933 160.228 161.923L159.911 156.541C159.903 156.518 159.903 156.493 159.911 156.47H162.813C163.924 156.47 164.989 155.999 165.774 155.16C166.559 154.321 167 153.183 167 151.997V151.807L166.961 151.884Z" fill="#272727"/>
<path d="M441.929 10.3909L438.975 9.07645C438.476 8.85757 437.931 8.74401 437.378 8.74394C437.352 8.74321 437.326 8.73407 437.306 8.71801C437.285 8.70196 437.271 8.67995 437.266 8.65562C436.798 6.22912 435.425 4.03251 433.386 2.45016C431.347 0.867814 428.773 0.000504746 426.114 0C425.125 0.0505875 424.141 0.173934 423.172 0.368877C423.163 0.368877 423.155 0.372161 423.149 0.378007C423.142 0.383853 423.139 0.391782 423.139 0.40005C423.139 0.408317 423.142 0.416246 423.149 0.422092C423.155 0.427938 423.163 0.431222 423.172 0.431222C425.025 0.905538 426.713 1.81971 428.068 3.08345C429.423 4.3472 430.399 5.91681 430.9 7.63731C430.903 7.64903 430.902 7.66109 430.899 7.67268C430.896 7.68427 430.89 7.69512 430.883 7.70449C430.875 7.71385 430.864 7.72152 430.853 7.72696C430.842 7.7324 430.829 7.73549 430.816 7.73602C428.519 7.73602 422.052 5.19025 421.054 4.89931C421.046 4.89621 421.037 4.89574 421.029 4.89796C421.02 4.90018 421.013 4.90497 421.008 4.91156C421.002 4.91815 421 4.92615 421 4.9343C421 4.94244 421.004 4.95024 421.009 4.95646L425.296 10.4325C425.31 10.4508 425.317 10.4725 425.317 10.4948C425.317 10.5171 425.31 10.5389 425.296 10.5571L421.009 16.0435C421.004 16.0498 421 16.0576 421 16.0657C421 16.0738 421.002 16.0819 421.008 16.0884C421.013 16.095 421.02 16.0998 421.029 16.102C421.037 16.1043 421.046 16.1038 421.054 16.1007C422.052 15.8046 428.519 13.2536 430.816 13.264C430.829 13.2635 430.842 13.266 430.854 13.2711C430.866 13.2763 430.877 13.284 430.885 13.2936C430.893 13.3032 430.899 13.3145 430.902 13.3265C430.904 13.3385 430.904 13.3509 430.9 13.3627C430.4 15.0838 429.423 16.6537 428.067 17.9169C426.71 19.18 425.021 20.0924 423.167 20.5636C423.16 20.5663 423.153 20.5709 423.149 20.577C423.144 20.583 423.142 20.5901 423.142 20.5974C423.142 20.6046 423.144 20.6117 423.149 20.6177C423.153 20.6238 423.16 20.6284 423.167 20.6311C424.136 20.8235 425.119 20.9468 426.109 21C428.77 21.0001 431.345 20.1317 433.384 18.5471C435.424 16.9625 436.796 14.7628 437.261 12.334C437.265 12.3092 437.278 12.2866 437.299 12.2704C437.319 12.2542 437.346 12.2454 437.373 12.2457C437.926 12.242 438.471 12.1249 438.97 11.9028L441.923 10.5935C441.945 10.586 441.964 10.5724 441.978 10.5547C441.992 10.5369 441.999 10.5158 442 10.494C442.001 10.4721 441.994 10.4507 441.981 10.4323C441.969 10.4139 441.95 10.3995 441.929 10.3909Z" fill="#272727"/>
</g>
<defs>
<clipPath id="clip0_194_63">
<rect width="772" height="177" fill="white"/>
</clipPath>
</defs>
</svg>
