<svg width="770" height="98" viewBox="0 0 770 98" fill="none" xmlns="http://www.w3.org/2000/svg">
<g clip-path="url(#clip0_194_10)">
<path d="M594 71.67C585.48 72.0967 576.983 72.31 568.51 72.31C545.452 72.2284 522.416 70.8596 499.51 68.21L498.64 68.11C452.09 62.83 406.75 53.35 363.41 44.29C327.34 36.75 292.75 29.52 260.08 25.29C260.325 24.734 260.464 24.1371 260.49 23.53C293.17 27.79 327.73 35.02 363.78 42.53C436 57.65 513.91 73.94 593.65 69.88C593.656 70.4931 593.775 71.0998 594 71.67ZM771.06 21.48L770.19 19.92C714.65 51.18 658.71 65.28 603.59 69.26C603.605 69.4664 603.605 69.6736 603.59 69.88C603.591 70.2848 603.541 70.688 603.44 71.08C658.9 67.1 715.17 52.94 771.06 21.48ZM677.38 96.38V97.09C672.607 97.037 667.84 96.7265 663.1 96.16L663.19 95.45C667.9 96.0162 672.637 96.3267 677.38 96.38ZM702.38 95.38C697.57 96.07 692.78 96.56 688.15 96.84L688.1 96.12C692.72 95.85 697.49 95.37 702.28 94.68L702.38 95.38ZM652.68 93.71L652.54 94.41C647.864 93.42 643.258 92.1272 638.75 90.54L638.99 89.86C643.452 91.4376 648.011 92.7236 652.64 93.71H652.68ZM726.88 90.28C722.2 91.55 717.52 92.65 712.96 93.56L712.82 92.86C717.36 91.95 722.03 90.86 726.7 89.59L726.88 90.28ZM750.68 82.54C746.17 84.25 741.68 85.83 737.18 87.25L736.96 86.57C741.4 85.16 745.96 83.57 750.43 81.87L750.68 82.54ZM629.09 85.78L628.79 86.43C627.26 85.7 625.73 84.92 624.25 84.12C621.537 82.66 618.84 81.19 616.16 79.71L616.5 79.08C619.167 80.56 621.863 82.03 624.59 83.49C626.06 84.29 627.58 85.06 629.09 85.78ZM770.78 74C767.41 75.58 763.99 77.11 760.59 78.55L760.31 77.89C763.7 76.46 767.12 74.89 770.47 73.35L770.78 74ZM607.14 73.9L606.79 74.52L603 72.37C603.123 72.1615 603.23 71.9443 603.32 71.72C604.573 72.4533 605.847 73.1767 607.14 73.89V73.9ZM585.34 61.67L584.99 62.29C580.85 59.97 576.693 57.66 572.52 55.36L572.86 54.73C577.033 57.0233 581.193 59.3333 585.34 61.66V61.67ZM128.29 53.15C123.29 53.59 118.51 53.84 114 53.89V53.18C118.49 53.12 123.28 52.87 128.23 52.44L128.29 53.15ZM103.29 52.92V53.63C98.57 53.34 93.78 52.82 89.07 52.07L89.18 51.37C93.85 52.11 98.61 52.63 103.32 52.92H103.29ZM153.04 49.74C148.14 50.62 143.38 51.37 138.92 51.96L138.82 51.25C143.28 50.66 148.02 49.92 152.92 49.04L153.04 49.74ZM563.42 49.59L563.08 50.22C558.62 47.82 554.49 45.63 550.46 43.55L550.79 42.92C554.85 45 559 47.19 563.45 49.59H563.42ZM78.68 49.33L78.51 50.02C73.93 48.96 69.29 47.67 64.73 46.17L65 45.5C69.49 47 74.11 48.27 78.68 49.33ZM177.57 44.65C172.68 45.79 167.99 46.82 163.57 47.72L163.43 47.02C167.81 46.12 172.5 45.09 177.38 43.96L177.57 44.65ZM201.84 38.65C196.84 39.96 192.31 41.11 187.99 42.18L187.82 41.49C192.14 40.42 196.67 39.27 201.66 37.96L201.84 38.65ZM541.26 38.1L540.94 38.74C536.55 36.55 532.22 34.47 528.08 32.55L528.38 31.9C532.52 33.8 536.86 35.88 541.26 38.07V38.1ZM226 32.14C221.333 33.38 216.733 34.6233 212.2 35.87L212.01 35.19L225.8 31.45L226 32.14ZM32.46 31L32.11 31.62C28.02 29.3 23.92 26.77 19.93 24.11L20.33 23.52C24.3 26.18 28.38 28.7 32.46 31ZM250.11 25.55L236.33 29.3L236.14 28.61L249.93 24.86L250.11 25.55ZM518.6 27.47L518.32 28.12C513.88 26.19 509.44 24.34 505.14 22.64L505.41 21.98C509.71 23.68 514.15 25.53 518.6 27.47ZM274.27 19.19C269.93 20.29 265.42 21.47 260.46 22.78L260.4 22.57C260.389 22.4045 260.362 22.2405 260.32 22.08C265.26 20.77 269.77 19.6 274.09 18.5L274.27 19.19ZM495.37 18.19L495.13 18.86C490.61 17.23 486.06 15.69 481.62 14.29L481.83 13.61C486.29 15 490.84 16.54 495.37 18.18V18.19ZM11.59 17.36L11.17 17.93C7.33 15.07 3.58 12.06 0 9L0.46 8.46C4 11.51 7.77 14.51 11.59 17.36ZM298.59 13.3C294.17 14.3 289.49 15.42 284.7 16.59L284.53 15.9C289.33 14.72 294 13.62 298.44 12.61L298.59 13.3ZM471.59 10.56L471.4 11.25C466.8 9.97 462.15 8.8 457.58 7.76L457.74 7.07C462.28 8.1 466.94 9.28 471.55 10.56H471.59ZM323 8.18C318.5 9 313.79 10 309 11L308.85 10.3C313.63 9.3 318.35 8.3 322.85 7.48L323 8.18ZM347.67 4.18C343.1 4.81 338.35 5.54 333.55 6.34L333.43 5.64C338.23 4.83 342.99 4.1 347.58 3.47L347.67 4.18ZM447.19 4.94L447.06 5.64C442.41 4.71 437.68 4 433 3.31L433.1 2.6C437.78 3.24 442.53 4 447.2 4.89L447.19 4.94ZM372.53 1.51C367.92 1.84 363.14 2.28 358.32 2.81L358.25 2.1C363.07 1.57 367.86 1.1 372.48 0.8L372.53 1.51ZM422.45 1.35L422.38 2.06C417.68 1.6 412.9 1.26 408.17 1.06V0.35C412.94 0.54 417.74 0.89 422.45 1.35ZM397.49 0V0.73C393.36 0.73 389.13 0.73 384.94 0.87L383.23 0.93V0.21L384.9 0.15C389.11 0 393.34 0 397.49 0ZM250.57 22.32C242.49 21.4 234.53 20.7067 226.69 20.24C166.765 16.5956 106.653 23.0351 48.86 39.29C46.53 38.29 44.2 37.17 41.86 36.03L41.54 36.67C43.5933 37.6833 45.66 38.66 47.74 39.6C31.6296 44.1869 15.7853 49.662 0.28 56L1 57.65C17.1139 51.0709 33.5908 45.4183 50.35 40.72C51.78 41.34 53.22 41.94 54.65 42.51L54.91 41.85C53.76 41.39 52.6 40.91 51.45 40.42C108.411 24.6464 167.593 18.4221 226.59 22C234.45 22.46 242.45 23.1567 250.59 24.09C250.533 23.8103 250.506 23.5254 250.51 23.24C250.501 22.9321 250.521 22.6241 250.57 22.32ZM5.71 97.08C5.9218 96.997 6.10422 96.853 6.23418 96.6663C6.36414 96.4796 6.43579 96.2585 6.44009 96.031C6.44439 95.8036 6.38112 95.58 6.25831 95.3885C6.13549 95.197 5.95864 95.0462 5.75012 94.9553C5.54161 94.8643 5.3108 94.8372 5.08689 94.8775C4.86299 94.9177 4.65604 95.0234 4.49224 95.1813C4.32845 95.3392 4.21515 95.5421 4.16669 95.7644C4.11823 95.9866 4.13678 96.2183 4.22 96.43C4.33364 96.712 4.55343 96.9381 4.8321 97.0597C5.11076 97.1812 5.42601 97.1885 5.71 97.08ZM12.41 94.44C12.6816 94.3285 12.8996 94.1166 13.0189 93.8484C13.1381 93.5801 13.1492 93.2763 13.05 93C12.9662 92.7882 12.8214 92.6061 12.634 92.4768C12.4466 92.3474 12.225 92.2766 11.9973 92.2733C11.7696 92.27 11.546 92.3344 11.355 92.4583C11.1639 92.5822 11.0139 92.76 10.924 92.9693C10.8342 93.1785 10.8084 93.4097 10.8501 93.6336C10.8918 93.8575 10.999 94.064 11.1582 94.2269C11.3173 94.3897 11.5213 94.5017 11.7441 94.5486C11.967 94.5954 12.1987 94.575 12.41 94.49V94.44ZM19.1 91.8C19.3118 91.717 19.4942 91.573 19.6242 91.3863C19.7541 91.1996 19.8258 90.9785 19.8301 90.751C19.8344 90.5236 19.7711 90.3 19.6483 90.1085C19.5255 89.917 19.3486 89.7662 19.1401 89.6753C18.9316 89.5843 18.7008 89.5572 18.4769 89.5975C18.253 89.6377 18.046 89.7434 17.8822 89.9013C17.7184 90.0592 17.6052 90.2621 17.5567 90.4844C17.5082 90.7066 17.5268 90.9383 17.61 91.15C17.7215 91.4337 17.9411 91.6615 18.2205 91.7834C18.4999 91.9053 18.8162 91.9112 19.1 91.8ZM25.8 89.16C26.0864 89.0539 26.319 88.8384 26.4465 88.5608C26.574 88.2833 26.5861 87.9664 26.48 87.68C26.3739 87.3936 26.1584 87.161 25.8808 87.0335C25.6033 86.906 25.2864 86.8939 25 87C24.8587 87.0541 24.7296 87.1358 24.6202 87.2403C24.5108 87.3448 24.4233 87.4701 24.3628 87.6088C24.3023 87.7475 24.27 87.8968 24.2678 88.0481C24.2656 88.1994 24.2935 88.3496 24.35 88.49C24.4578 88.7678 24.6692 88.9928 24.9397 89.1178C25.2102 89.2428 25.5186 89.2579 25.8 89.16ZM32.49 86.52C32.635 86.4662 32.7675 86.3834 32.8794 86.2767C32.9914 86.1701 33.0805 86.0417 33.1413 85.8995C33.2021 85.7574 33.2334 85.6043 33.2331 85.4496C33.2329 85.295 33.2012 85.142 33.14 85C33.057 84.7882 32.913 84.6058 32.7263 84.4758C32.5396 84.3459 32.3185 84.2742 32.091 84.2699C31.8636 84.2656 31.64 84.3289 31.4485 84.4517C31.257 84.5745 31.1062 84.7514 31.0153 84.9599C30.9243 85.1684 30.8972 85.3992 30.9375 85.6231C30.9777 85.847 31.0834 86.054 31.2413 86.2178C31.3992 86.3816 31.6021 86.4949 31.8244 86.5433C32.0466 86.5918 32.2783 86.5732 32.49 86.49V86.52ZM39.19 83.89C39.4727 83.7743 39.699 83.5526 39.8204 83.2724C39.9419 82.9921 39.9489 82.6754 39.84 82.39C39.7849 82.2496 39.7025 82.1215 39.5976 82.0132C39.4926 81.9048 39.3672 81.8184 39.2286 81.7589C39.0901 81.6993 38.941 81.6679 38.7902 81.6664C38.6394 81.6648 38.4898 81.6933 38.35 81.75C38.0751 81.8676 37.8568 82.0876 37.7414 82.3634C37.626 82.6393 37.6225 82.9492 37.7318 83.2275C37.841 83.5059 38.0544 83.7307 38.3266 83.8544C38.5988 83.978 38.9085 83.9908 39.19 83.89ZM45.8 81.49C46.021 81.4358 46.221 81.3173 46.3746 81.1493C46.5283 80.9814 46.6286 80.7717 46.663 80.5467C46.6973 80.3218 46.6642 80.0916 46.5677 79.8855C46.4712 79.6794 46.3157 79.5065 46.121 79.3888C45.9262 79.2711 45.7008 79.2139 45.4735 79.2243C45.2462 79.2347 45.027 79.3123 44.8438 79.4474C44.6606 79.5824 44.5216 79.7688 44.4444 79.9828C44.3672 80.1969 44.3552 80.4291 44.41 80.65C44.4833 80.9455 44.6708 81.1999 44.9314 81.3573C45.1919 81.5148 45.5043 81.5625 45.8 81.49ZM52.8 79.79C53.0208 79.7363 53.2208 79.6184 53.3747 79.4512C53.5286 79.284 53.6295 79.0749 53.6646 78.8503C53.6998 78.6258 53.6676 78.3959 53.5722 78.1896C53.4767 77.9833 53.3223 77.81 53.1284 77.6914C52.9345 77.5729 52.7098 77.5144 52.4828 77.5234C52.2557 77.5325 52.0363 77.6086 51.8525 77.7422C51.6686 77.8758 51.5285 78.0608 51.4497 78.274C51.371 78.4872 51.3571 78.719 51.41 78.94C51.4812 79.2352 51.6663 79.4902 51.9248 79.6494C52.1833 79.8087 52.4944 79.8592 52.79 79.79H52.8ZM59.8 78.08C60.021 78.0258 60.221 77.9072 60.3746 77.7393C60.5283 77.5714 60.6286 77.3617 60.663 77.1367C60.6973 76.9118 60.6642 76.6816 60.5677 76.4755C60.4712 76.2694 60.3157 76.0965 60.121 75.9788C59.9262 75.8611 59.7008 75.8039 59.4735 75.8143C59.2462 75.8247 59.027 75.9024 58.8438 76.0374C58.6606 76.1724 58.5216 76.3588 58.4444 76.5729C58.3672 76.7869 58.3552 77.0191 58.41 77.24C58.4834 77.5333 58.6694 77.7859 58.9277 77.9431C59.1859 78.1003 59.4957 78.1495 59.79 78.08H59.8ZM66.8 76.38C67.0209 76.3263 67.2208 76.2084 67.3747 76.0412C67.5286 75.874 67.6295 75.6649 67.6646 75.4403C67.6998 75.2158 67.6676 74.9859 67.5722 74.7796C67.4767 74.5733 67.3223 74.4 67.1284 74.2814C66.9345 74.1628 66.7098 74.1044 66.4828 74.1134C66.2557 74.1225 66.0363 74.1986 65.8525 74.3322C65.6686 74.4658 65.5285 74.6508 65.4497 74.864C65.371 75.0772 65.3571 75.309 65.41 75.53C65.4441 75.6758 65.5067 75.8134 65.594 75.935C65.6813 76.0566 65.7917 76.1598 65.919 76.2388C66.0462 76.3177 66.1877 76.3708 66.3354 76.395C66.4832 76.4193 66.6342 76.4141 66.78 76.38H66.8ZM73.8 74.68C74.0209 74.6263 74.2208 74.5084 74.3747 74.3412C74.5286 74.174 74.6295 73.9649 74.6646 73.7403C74.6998 73.5158 74.6676 73.2859 74.5722 73.0796C74.4767 72.8733 74.3223 72.7 74.1284 72.5814C73.9345 72.4629 73.7098 72.4044 73.4828 72.4134C73.2557 72.4225 73.0363 72.4986 72.8525 72.6322C72.6686 72.7658 72.5285 72.9508 72.4497 73.164C72.371 73.3772 72.3571 73.609 72.41 73.83C72.4836 74.1196 72.6661 74.3695 72.9194 74.5279C73.1728 74.6862 73.4775 74.7407 73.77 74.68H73.8ZM80.8 72.97C81.022 72.9176 81.2234 72.8003 81.3785 72.6331C81.5337 72.4659 81.6356 72.2563 81.6714 72.0311C81.7071 71.8058 81.6751 71.575 81.5793 71.368C81.4835 71.1609 81.3284 70.9871 81.1335 70.8685C80.9387 70.7499 80.713 70.6919 80.4851 70.7019C80.2572 70.7119 80.0375 70.7895 79.8538 70.9247C79.6701 71.0599 79.5308 71.2467 79.4535 71.4614C79.3763 71.676 79.3646 71.9087 79.42 72.13C79.4871 72.4204 79.6643 72.6734 79.9143 72.8357C80.1642 72.998 80.4674 73.0569 80.76 73L80.8 72.97ZM87.69 71.32C87.9977 71.2736 88.2743 71.1069 88.459 70.8565C88.6437 70.6061 88.7214 70.2926 88.675 69.985C88.6286 69.6774 88.4619 69.4007 88.2115 69.216C87.9611 69.0313 87.6476 68.9536 87.34 69C87.1903 69.0204 87.0461 69.07 86.9155 69.1461C86.785 69.2222 86.6708 69.3232 86.5793 69.4435C86.4878 69.5638 86.4209 69.7008 86.3825 69.8469C86.344 69.993 86.3346 70.1453 86.355 70.295C86.3754 70.4447 86.425 70.5889 86.5011 70.7195C86.5772 70.85 86.6782 70.9642 86.7985 71.0557C86.9188 71.1472 87.0558 71.2141 87.2019 71.2525C87.348 71.291 87.5003 71.3004 87.65 71.28L87.69 71.32ZM94.82 70.32C94.9715 70.3015 95.1179 70.2531 95.2505 70.1775C95.3832 70.1019 95.4994 70.0006 95.5925 69.8796C95.6856 69.7586 95.7536 69.6203 95.7927 69.4727C95.8317 69.3251 95.841 69.1712 95.82 69.02C95.8028 68.8689 95.7555 68.7227 95.6809 68.5902C95.6063 68.4576 95.506 68.3413 95.3858 68.2481C95.2656 68.1549 95.1279 68.0867 94.9809 68.0475C94.834 68.0084 94.6806 67.999 94.53 68.02C94.3794 68.0385 94.234 68.0866 94.1021 68.1616C93.9702 68.2366 93.8544 68.3369 93.7615 68.4568C93.6685 68.5767 93.6002 68.7139 93.5605 68.8603C93.5208 69.0067 93.5104 69.1596 93.53 69.31C93.5604 69.6134 93.7081 69.8929 93.9416 70.089C94.1751 70.2851 94.4759 70.3824 94.78 70.36L94.82 70.32ZM101.95 69.32C102.101 69.3015 102.246 69.2533 102.378 69.1784C102.51 69.1034 102.626 69.0031 102.719 68.8832C102.811 68.7633 102.88 68.6261 102.92 68.4797C102.959 68.3333 102.97 68.1804 102.95 68.03C102.908 67.7262 102.748 67.4511 102.505 67.2641C102.261 67.077 101.955 66.993 101.65 67.03C101.348 67.0711 101.074 67.2306 100.889 67.4735C100.705 67.7164 100.624 68.0227 100.665 68.325C100.706 68.6273 100.866 68.901 101.108 69.0857C101.351 69.2704 101.658 69.3511 101.96 69.31L101.95 69.32ZM109.08 68.32C109.384 68.2777 109.659 68.1177 109.846 67.8746C110.033 67.6314 110.117 67.3245 110.08 67.02C110.049 66.7955 109.952 66.5853 109.802 66.4157C109.651 66.2461 109.454 66.1247 109.235 66.0667C109.016 66.0087 108.785 66.0168 108.57 66.0898C108.356 66.1629 108.168 66.2976 108.029 66.4773C107.891 66.6569 107.809 66.8733 107.794 67.0994C107.778 67.3255 107.83 67.5511 107.942 67.748C108.054 67.9449 108.222 68.1042 108.425 68.206C108.627 68.3077 108.855 68.3474 109.08 68.32ZM116.22 67.32C116.522 67.2789 116.796 67.1194 116.981 66.8765C117.165 66.6336 117.246 66.3273 117.205 66.025C117.164 65.7227 117.004 65.449 116.761 65.2643C116.519 65.0796 116.212 64.9989 115.91 65.04C115.606 65.0823 115.331 65.2423 115.144 65.4854C114.957 65.7286 114.873 66.0355 114.91 66.34C114.913 66.4991 114.95 66.6559 115.017 66.8002C115.084 66.9446 115.18 67.0735 115.299 67.1788C115.418 67.2841 115.558 67.3634 115.71 67.4118C115.862 67.4602 116.022 67.4766 116.18 67.46L116.22 67.32ZM123.35 66.32C123.574 66.2888 123.785 66.1919 123.954 66.0416C124.124 65.8913 124.245 65.6943 124.303 65.4752C124.361 65.2561 124.353 65.0248 124.28 64.8103C124.207 64.5958 124.072 64.4076 123.893 64.2694C123.713 64.1313 123.497 64.0493 123.271 64.0337C123.045 64.0181 122.819 64.0697 122.622 64.1819C122.425 64.2942 122.266 64.4621 122.164 64.6645C122.062 64.867 122.023 65.095 122.05 65.32C122.048 65.4824 122.08 65.6433 122.144 65.7927C122.208 65.942 122.302 66.0765 122.42 66.1875C122.539 66.2984 122.679 66.3836 122.832 66.4374C122.985 66.4912 123.148 66.5125 123.31 66.5L123.35 66.32ZM130.48 65.32C130.631 65.3015 130.776 65.2533 130.908 65.1784C131.04 65.1034 131.156 65.0031 131.249 64.8832C131.341 64.7633 131.41 64.6261 131.45 64.4797C131.489 64.3333 131.5 64.1804 131.48 64.03C131.438 63.7262 131.278 63.4511 131.035 63.2641C130.791 63.077 130.485 62.993 130.18 63.03C130.028 63.0485 129.882 63.0969 129.749 63.1725C129.617 63.2481 129.501 63.3494 129.408 63.4704C129.314 63.5914 129.246 63.7297 129.207 63.8773C129.168 64.0249 129.159 64.1788 129.18 64.33C129.17 64.4953 129.197 64.6608 129.258 64.8148C129.318 64.9689 129.412 65.1078 129.532 65.2221C129.652 65.3363 129.795 65.423 129.952 65.4762C130.109 65.5293 130.275 65.5477 130.44 65.53L130.48 65.32ZM137.57 64.9C137.721 64.8923 137.869 64.8549 138.006 64.7899C138.142 64.7249 138.265 64.6336 138.366 64.5212C138.467 64.4088 138.545 64.2775 138.596 64.1349C138.646 63.9922 138.668 63.8411 138.66 63.69C138.652 63.539 138.615 63.391 138.549 63.2545C138.484 63.118 138.393 62.9956 138.281 62.8944C138.168 62.7932 138.037 62.7151 137.895 62.6646C137.752 62.6141 137.601 62.5921 137.45 62.6C137.299 62.6079 137.151 62.6454 137.014 62.7105C136.878 62.7756 136.756 62.8669 136.654 62.9793C136.553 63.0916 136.475 63.2228 136.425 63.3653C136.374 63.5079 136.352 63.659 136.36 63.81C136.338 63.9748 136.353 64.1424 136.402 64.3012C136.451 64.4599 136.534 64.6061 136.645 64.7297C136.757 64.8533 136.893 64.9512 137.046 65.0169C137.199 65.0826 137.364 65.1143 137.53 65.11L137.57 64.9ZM144.76 64.52C144.987 64.5077 145.206 64.4282 145.388 64.2915C145.57 64.1549 145.708 63.9672 145.783 63.7523C145.859 63.5374 145.868 63.305 145.812 63.0845C145.755 62.864 145.634 62.6654 145.464 62.5137C145.294 62.3621 145.083 62.2643 144.857 62.2328C144.632 62.2012 144.402 62.2373 144.197 62.3365C143.992 62.4358 143.821 62.5936 143.706 62.79C143.591 62.9865 143.536 63.2127 143.55 63.44C143.526 63.6047 143.539 63.7725 143.588 63.9316C143.636 64.0907 143.72 64.2371 143.831 64.3603C143.943 64.4836 144.081 64.5806 144.234 64.6445C144.388 64.7084 144.554 64.7376 144.72 64.73L144.76 64.52ZM151.94 64.15C152.168 64.1398 152.387 64.0623 152.57 63.9272C152.754 63.7922 152.893 63.6057 152.97 63.3915C153.048 63.1772 153.059 62.9449 153.005 62.7238C152.95 62.5028 152.83 62.303 152.662 62.1499C152.493 61.9968 152.283 61.8971 152.058 61.8637C151.832 61.8302 151.602 61.8643 151.396 61.9618C151.19 62.0593 151.018 62.2157 150.901 62.4112C150.785 62.6067 150.728 62.8325 150.74 63.06C150.718 63.224 150.732 63.3906 150.781 63.5487C150.83 63.7067 150.912 63.8524 151.022 63.9758C151.132 64.0992 151.268 64.1974 151.419 64.2637C151.571 64.33 151.735 64.3629 151.9 64.36L151.94 64.15ZM159.13 63.77C159.357 63.7578 159.575 63.6787 159.757 63.5425C159.939 63.4064 160.077 63.2193 160.153 63.005C160.229 62.7907 160.239 62.5588 160.183 62.3384C160.127 62.1181 160.007 61.9193 159.838 61.7672C159.669 61.6151 159.459 61.5164 159.234 61.4836C159.009 61.4509 158.78 61.4855 158.574 61.5832C158.369 61.6809 158.197 61.8372 158.081 62.0324C157.964 62.2276 157.908 62.453 157.92 62.68C157.895 62.8463 157.907 63.0161 157.955 63.1774C158.003 63.3386 158.085 63.4874 158.197 63.6133C158.308 63.7391 158.446 63.839 158.6 63.9058C158.755 63.9726 158.922 64.0048 159.09 64L159.13 63.77ZM166.32 63.4C166.471 63.3921 166.619 63.3546 166.756 63.2895C166.892 63.2244 167.014 63.1331 167.116 63.0207C167.217 62.9084 167.295 62.7772 167.345 62.6347C167.396 62.4921 167.418 62.341 167.41 62.19C167.402 62.039 167.365 61.891 167.299 61.7545C167.234 61.618 167.143 61.4956 167.031 61.3944C166.918 61.2932 166.787 61.2151 166.645 61.1646C166.502 61.1141 166.351 61.0921 166.2 61.1C165.895 61.1159 165.609 61.2523 165.404 61.4793C165.2 61.7062 165.094 62.005 165.11 62.31C165.126 62.615 165.262 62.9012 165.489 63.1056C165.716 63.31 166.015 63.4159 166.32 63.4ZM173.51 63.02C173.737 63.0078 173.955 62.9287 174.137 62.7925C174.319 62.6564 174.457 62.4693 174.533 62.255C174.609 62.0407 174.619 61.8088 174.563 61.5884C174.507 61.3681 174.387 61.1693 174.218 61.0172C174.049 60.8651 173.839 60.7664 173.614 60.7336C173.389 60.7009 173.16 60.7355 172.954 60.8332C172.749 60.9309 172.577 61.0872 172.461 61.2824C172.344 61.4776 172.288 61.703 172.3 61.93C172.276 62.0951 172.289 62.2634 172.338 62.4229C172.387 62.5825 172.47 62.7294 172.581 62.8534C172.693 62.9773 172.83 63.0753 172.984 63.1404C173.137 63.2055 173.303 63.2361 173.47 63.23L173.51 63.02ZM180.63 63.12C180.857 63.1219 181.08 63.0566 181.269 62.9324C181.459 62.8081 181.608 62.6303 181.697 62.4215C181.787 62.2128 181.812 61.9823 181.77 61.7591C181.729 61.5359 181.622 61.3301 181.463 61.1675C181.305 61.0049 181.102 60.8928 180.88 60.8454C180.658 60.798 180.427 60.8173 180.216 60.901C180.005 60.9847 179.823 61.1289 179.694 61.3156C179.565 61.5023 179.494 61.723 179.49 61.95C179.456 62.1149 179.459 62.2852 179.498 62.4488C179.538 62.6125 179.613 62.7655 179.717 62.8971C179.822 63.0287 179.955 63.1357 180.106 63.2105C180.256 63.2853 180.422 63.3261 180.59 63.33L180.63 63.12ZM187.82 63.22C188.048 63.224 188.272 63.1601 188.463 63.0366C188.655 62.9132 188.805 62.7356 188.896 62.5264C188.986 62.3172 189.012 62.0859 188.971 61.8618C188.93 61.6377 188.823 61.4309 188.664 61.2677C188.505 61.1045 188.301 60.9922 188.078 60.9451C187.855 60.8979 187.623 60.9181 187.412 61.0029C187.2 61.0878 187.019 61.2336 186.89 61.4218C186.762 61.61 186.692 61.8321 186.69 62.06C186.656 62.2236 186.659 62.3926 186.698 62.555C186.736 62.7174 186.81 62.8694 186.914 63.0001C187.018 63.1308 187.15 63.237 187.299 63.3113C187.449 63.3856 187.613 63.4261 187.78 63.43L187.82 63.22ZM195.02 63.33C195.247 63.3339 195.471 63.2703 195.662 63.1473C195.853 63.0242 196.004 62.8472 196.095 62.6386C196.185 62.43 196.212 62.1992 196.171 61.9754C196.131 61.7516 196.025 61.5449 195.867 61.3813C195.709 61.2177 195.506 61.1046 195.284 61.0563C195.062 61.0081 194.83 61.0268 194.618 61.1102C194.407 61.1935 194.225 61.3378 194.095 61.5246C193.965 61.7115 193.894 61.9326 193.89 62.16C193.858 62.3255 193.862 62.496 193.903 62.6596C193.944 62.8232 194.019 62.976 194.125 63.1074C194.231 63.2388 194.364 63.3455 194.515 63.4202C194.666 63.4949 194.831 63.5358 195 63.54L195.02 63.33ZM202.22 63.43C202.371 63.4326 202.52 63.4054 202.66 63.35C202.8 63.2945 202.928 63.2118 203.036 63.1068C203.143 63.0017 203.229 62.8763 203.288 62.7378C203.348 62.5994 203.379 62.4506 203.38 62.3C203.384 62.0722 203.32 61.8483 203.197 61.6568C203.073 61.4653 202.896 61.3148 202.686 61.2244C202.477 61.134 202.246 61.1078 202.022 61.1491C201.798 61.1904 201.591 61.2973 201.428 61.4563C201.264 61.6153 201.152 61.8192 201.105 62.0421C201.058 62.2651 201.078 62.497 201.163 62.7084C201.248 62.9199 201.394 63.1014 201.582 63.2299C201.77 63.3583 201.992 63.428 202.22 63.43ZM209.41 63.54C209.637 63.5439 209.861 63.4803 210.052 63.3573C210.243 63.2342 210.394 63.0572 210.485 62.8486C210.575 62.64 210.602 62.4092 210.561 62.1854C210.521 61.9616 210.415 61.7549 210.257 61.5913C210.099 61.4277 209.896 61.3146 209.674 61.2663C209.452 61.2181 209.22 61.2368 209.008 61.3202C208.797 61.4035 208.615 61.5478 208.485 61.7346C208.355 61.9215 208.284 62.1426 208.28 62.37C208.246 62.5341 208.249 62.7035 208.288 62.8665C208.327 63.0294 208.4 63.182 208.504 63.3134C208.608 63.4448 208.739 63.552 208.889 63.6274C209.038 63.7028 209.203 63.7447 209.37 63.75L209.41 63.54ZM216.54 63.85C216.845 63.8712 217.146 63.7704 217.377 63.5697C217.607 63.3691 217.749 63.085 217.77 62.78C217.791 62.475 217.69 62.1741 217.49 61.9434C217.289 61.7127 217.005 61.5712 216.7 61.55C216.395 61.5288 216.094 61.6296 215.863 61.8303C215.633 62.0309 215.491 62.315 215.47 62.62C215.449 62.925 215.55 63.2259 215.75 63.4566C215.951 63.6873 216.235 63.8288 216.54 63.85ZM223.71 64.36C224.004 64.3651 224.288 64.2577 224.505 64.0597C224.722 63.8617 224.855 63.5882 224.877 63.2953C224.899 63.0024 224.807 62.7123 224.622 62.4844C224.437 62.2566 224.171 62.1083 223.88 62.07C223.576 62.048 223.277 62.1471 223.046 62.3458C222.815 62.5445 222.673 62.8265 222.65 63.13C222.605 63.2928 222.597 63.4635 222.626 63.6298C222.655 63.7961 222.721 63.9539 222.819 64.0917C222.916 64.2295 223.043 64.3439 223.191 64.4266C223.338 64.5093 223.502 64.5583 223.67 64.57L223.71 64.36ZM230.89 64.88C231.117 64.8972 231.344 64.8467 231.542 64.7348C231.74 64.623 231.901 64.4548 232.004 64.2517C232.106 64.0485 232.146 63.8194 232.118 63.5935C232.091 63.3676 231.997 63.155 231.848 62.9826C231.7 62.8101 231.503 62.6857 231.284 62.625C231.064 62.5643 230.832 62.57 230.616 62.6415C230.4 62.7129 230.21 62.8469 230.07 63.0264C229.93 63.206 229.846 63.423 229.83 63.65C229.787 63.8127 229.78 63.9829 229.81 64.1485C229.84 64.3141 229.906 64.4711 230.003 64.6084C230.101 64.7457 230.227 64.86 230.373 64.9432C230.519 65.0265 230.682 65.0766 230.85 65.09L230.89 64.88ZM238.07 65.39C238.306 65.405 238.54 65.3471 238.741 65.2242C238.943 65.1014 239.102 64.9195 239.196 64.7033C239.291 64.4871 239.317 64.247 239.27 64.0156C239.224 63.7842 239.107 63.5728 238.936 63.4099C238.766 63.2471 238.549 63.1407 238.315 63.1053C238.082 63.0699 237.843 63.1072 237.632 63.212C237.421 63.3168 237.247 63.4842 237.133 63.6914C237.02 63.8985 236.974 64.1355 237 64.37C236.975 64.6647 237.065 64.9577 237.251 65.1873C237.438 65.4168 237.706 65.5648 238 65.6L238.07 65.39ZM245.25 65.91C245.477 65.9272 245.704 65.8767 245.902 65.7648C246.1 65.653 246.261 65.4848 246.364 65.2817C246.466 65.0785 246.506 64.8494 246.478 64.6235C246.451 64.3976 246.357 64.185 246.208 64.0126C246.06 63.8401 245.863 63.7157 245.644 63.655C245.424 63.5943 245.192 63.6 244.976 63.6715C244.76 63.7429 244.57 63.8769 244.43 64.0564C244.29 64.236 244.206 64.453 244.19 64.68C244.149 64.8426 244.143 65.0122 244.174 65.1771C244.205 65.342 244.271 65.4983 244.368 65.6352C244.465 65.7721 244.59 65.8863 244.736 65.97C244.881 66.0537 245.043 66.1049 245.21 66.12L245.25 65.91ZM252.34 66.69C252.493 66.7153 252.649 66.7095 252.799 66.6731C252.949 66.6366 253.091 66.5702 253.215 66.4778C253.339 66.3855 253.443 66.269 253.521 66.1355C253.599 66.0019 253.649 65.854 253.669 65.7006C253.688 65.5471 253.677 65.3913 253.635 65.2425C253.592 65.0937 253.521 64.9549 253.424 64.8344C253.327 64.7139 253.207 64.6142 253.07 64.5413C252.934 64.4684 252.784 64.4237 252.63 64.41C252.48 64.389 252.327 64.3985 252.181 64.4378C252.034 64.4771 251.897 64.5454 251.778 64.6387C251.659 64.732 251.559 64.8483 251.486 64.9808C251.412 65.1133 251.366 65.2593 251.35 65.41C251.299 65.5706 251.284 65.7406 251.305 65.9078C251.327 66.075 251.385 66.2353 251.476 66.3775C251.567 66.5197 251.687 66.6402 251.83 66.7305C251.972 66.8208 252.133 66.8786 252.3 66.9L252.34 66.69ZM259.48 67.59C259.705 67.6177 259.934 67.5781 260.137 67.4761C260.34 67.3741 260.508 67.2143 260.62 67.0169C260.732 66.8194 260.784 66.5932 260.767 66.3667C260.751 66.1402 260.668 65.9235 260.529 65.744C260.39 65.5646 260.201 65.4303 259.986 65.3581C259.77 65.286 259.538 65.2793 259.319 65.3387C259.1 65.3982 258.903 65.5212 258.754 65.6923C258.605 65.8633 258.509 66.0748 258.48 66.3C258.427 66.462 258.411 66.6337 258.432 66.8028C258.454 66.9719 258.512 67.1341 258.604 67.2776C258.696 67.4212 258.819 67.5425 258.963 67.6329C259.108 67.7232 259.271 67.7803 259.44 67.8L259.48 67.59ZM266.62 68.48C266.846 68.508 267.075 68.4684 267.278 68.3662C267.482 68.2639 267.65 68.1037 267.762 67.9057C267.874 67.7077 267.925 67.4809 267.908 67.2539C267.892 67.027 267.808 66.8101 267.668 66.6308C267.528 66.4514 267.338 66.3177 267.121 66.2465C266.905 66.1753 266.673 66.1698 266.454 66.2308C266.234 66.2917 266.038 66.4163 265.89 66.5889C265.741 66.7614 265.647 66.9741 265.62 67.2C265.569 67.3614 265.554 67.5321 265.576 67.6999C265.599 67.8678 265.658 68.0286 265.749 68.1709C265.841 68.3133 265.963 68.4336 266.107 68.5233C266.25 68.6131 266.412 68.67 266.58 68.69L266.62 68.48ZM273.77 69.38C273.92 69.3996 274.072 69.3891 274.218 69.3493C274.364 69.3094 274.5 69.241 274.619 69.1479C274.738 69.0549 274.838 68.9391 274.912 68.8072C274.986 68.6754 275.033 68.5302 275.05 68.38C275.078 68.1542 275.038 67.9251 274.936 67.7218C274.834 67.5185 274.674 67.3501 274.476 67.2379C274.278 67.1257 274.051 67.0747 273.824 67.0915C273.597 67.1083 273.38 67.1921 273.201 67.3322C273.021 67.4723 272.888 67.6624 272.816 67.8786C272.745 68.0947 272.74 68.3271 272.801 68.5464C272.862 68.7657 272.986 68.9619 273.159 69.1103C273.331 69.2587 273.544 69.3525 273.77 69.38ZM280.77 70.64C281.07 70.697 281.38 70.6327 281.632 70.4611C281.884 70.2895 282.058 70.0247 282.115 69.725C282.172 69.4253 282.108 69.1152 281.936 68.863C281.764 68.6108 281.5 68.437 281.2 68.38C280.899 68.327 280.59 68.3935 280.338 68.5654C280.086 68.7372 279.911 69.0009 279.85 69.3C279.788 69.4598 279.763 69.6313 279.776 69.8021C279.789 69.973 279.84 70.1387 279.925 70.2872C280.011 70.4358 280.128 70.5634 280.269 70.6608C280.41 70.7581 280.571 70.8228 280.74 70.85L280.77 70.64ZM287.84 71.98C288.064 72.0217 288.295 71.9961 288.504 71.9065C288.713 71.8169 288.891 71.6673 289.015 71.4766C289.139 71.2859 289.204 71.0626 289.201 70.8351C289.198 70.6077 289.128 70.3861 288.999 70.1986C288.87 70.011 288.689 69.8659 288.477 69.7815C288.266 69.6971 288.034 69.6773 287.812 69.7246C287.589 69.7718 287.386 69.884 287.227 70.047C287.068 70.2099 286.961 70.4163 286.92 70.64C286.86 70.7999 286.836 70.971 286.85 71.1412C286.864 71.3113 286.915 71.4763 287 71.6244C287.085 71.7724 287.202 71.8999 287.342 71.9976C287.482 72.0954 287.642 72.1611 287.81 72.19L287.84 71.98ZM294.84 73.36C295.062 73.4095 295.293 73.3923 295.505 73.3105C295.717 73.2287 295.9 73.0859 296.031 72.9003C296.162 72.7146 296.235 72.4944 296.24 72.2673C296.246 72.0402 296.185 71.8165 296.064 71.6244C295.942 71.4322 295.767 71.2803 295.56 71.1876C295.352 71.095 295.122 71.0659 294.898 71.1039C294.674 71.142 294.467 71.2455 294.301 71.4014C294.136 71.5573 294.021 71.7586 293.97 71.98C293.903 72.1399 293.872 72.3128 293.881 72.4861C293.889 72.6593 293.937 72.8284 294.019 72.9809C294.102 73.1335 294.217 73.2656 294.358 73.3675C294.498 73.4695 294.659 73.5387 294.83 73.57L294.84 73.36ZM301.84 74.93C302.062 74.9801 302.294 74.9631 302.506 74.8812C302.719 74.7994 302.902 74.6563 303.033 74.4701C303.164 74.284 303.237 74.0631 303.243 73.8355C303.248 73.6079 303.186 73.3838 303.064 73.1917C302.942 72.9995 302.765 72.8479 302.557 72.756C302.349 72.6641 302.118 72.6361 301.894 72.6755C301.669 72.715 301.462 72.8201 301.298 72.9775C301.133 73.135 301.019 73.3377 300.97 73.56C300.903 73.7214 300.873 73.8959 300.883 74.0705C300.894 74.245 300.944 74.4149 301.029 74.5672C301.115 74.7196 301.235 74.8503 301.379 74.9496C301.522 75.0488 301.687 75.114 301.86 75.14L301.84 74.93ZM308.84 76.51C309.062 76.5601 309.294 76.5431 309.506 76.4612C309.719 76.3794 309.902 76.2363 310.033 76.0501C310.164 75.864 310.237 75.6431 310.243 75.4155C310.248 75.1879 310.186 74.9638 310.064 74.7717C309.942 74.5795 309.765 74.4279 309.557 74.336C309.349 74.2441 309.118 74.2161 308.894 74.2555C308.669 74.295 308.462 74.4001 308.298 74.5575C308.133 74.715 308.019 74.9177 307.97 75.14C307.903 75.3028 307.873 75.4789 307.885 75.6547C307.896 75.8306 307.948 76.0014 308.036 76.1541C308.124 76.3068 308.246 76.4372 308.392 76.5353C308.538 76.6335 308.705 76.6966 308.88 76.72L308.84 76.51ZM315.84 78.09C315.988 78.1235 316.141 78.1275 316.29 78.102C316.439 78.0764 316.582 78.0216 316.71 77.9408C316.838 77.86 316.949 77.7548 317.037 77.6311C317.124 77.5074 317.187 77.3677 317.22 77.22C317.253 77.0723 317.258 76.9194 317.232 76.7701C317.206 76.6208 317.152 76.478 317.071 76.3498C316.99 76.2217 316.885 76.1107 316.761 76.0232C316.637 75.9357 316.498 75.8735 316.35 75.84C316.052 75.7768 315.741 75.8324 315.483 75.9948C315.226 76.1573 315.042 76.4139 314.97 76.71C314.903 76.8749 314.874 77.0531 314.887 77.2308C314.899 77.4084 314.953 77.5808 315.042 77.7346C315.132 77.8884 315.257 78.0193 315.405 78.1174C315.554 78.2154 315.723 78.2779 315.9 78.3L315.84 78.09ZM322.84 79.67C323.123 79.7658 323.432 79.7497 323.703 79.6252C323.975 79.5006 324.188 79.2769 324.3 79C324.333 78.8523 324.338 78.6994 324.312 78.5501C324.286 78.4008 324.232 78.258 324.151 78.1298C324.07 78.0017 323.965 77.8907 323.841 77.8032C323.717 77.7158 323.578 77.6535 323.43 77.62C323.282 77.5865 323.129 77.5825 322.98 77.608C322.831 77.6336 322.688 77.6884 322.56 77.7692C322.432 77.85 322.321 77.9552 322.233 78.0789C322.146 78.2026 322.083 78.3423 322.05 78.49C321.984 78.7895 322.038 79.1029 322.201 79.3629C322.363 79.6229 322.622 79.8086 322.92 79.88L322.84 79.67ZM329.84 81.24C330.062 81.2901 330.294 81.2731 330.506 81.1912C330.719 81.1094 330.902 80.9663 331.033 80.7801C331.164 80.594 331.237 80.3731 331.243 80.1455C331.248 79.9179 331.186 79.6938 331.064 79.5017C330.942 79.3095 330.765 79.1579 330.557 79.066C330.349 78.9741 330.118 78.9461 329.894 78.9855C329.669 79.025 329.462 79.1301 329.298 79.2875C329.133 79.445 329.019 79.6477 328.97 79.87C328.901 80.0417 328.874 80.2276 328.892 80.4119C328.91 80.5962 328.972 80.7735 329.073 80.9286C329.174 81.0837 329.311 81.2121 329.473 81.3029C329.634 81.3937 329.815 81.4441 330 81.45L329.84 81.24ZM337 83C337.223 83.0432 337.454 83.0193 337.664 82.9313C337.873 82.8433 338.052 82.6951 338.178 82.5055C338.303 82.3159 338.37 82.0933 338.369 81.866C338.368 81.6386 338.299 81.4167 338.172 81.2282C338.045 81.0397 337.865 80.893 337.655 80.8068C337.444 80.7206 337.213 80.6987 336.99 80.7439C336.767 80.789 336.563 80.8992 336.403 81.0605C336.243 81.2217 336.134 81.4269 336.09 81.65C336.061 81.7984 336.061 81.9511 336.091 82.0993C336.121 82.2475 336.18 82.3884 336.265 82.5137C336.35 82.6391 336.458 82.7466 336.584 82.8301C336.71 82.9135 336.852 82.9713 337 83ZM344.14 84.16C344.365 84.1966 344.595 84.1658 344.802 84.0715C345.009 83.9772 345.183 83.8237 345.303 83.6303C345.423 83.4369 345.482 83.2123 345.474 82.985C345.466 82.7577 345.391 82.5378 345.258 82.3532C345.126 82.1686 344.941 82.0275 344.728 81.9479C344.515 81.8682 344.283 81.8535 344.062 81.9056C343.84 81.9577 343.639 82.0743 343.484 82.2406C343.329 82.4069 343.227 82.6155 343.19 82.84C343.161 82.9912 343.163 83.1467 343.196 83.2972C343.228 83.4477 343.291 83.5901 343.379 83.716C343.468 83.8419 343.581 83.9487 343.712 84.0301C343.842 84.1116 343.988 84.1659 344.14 84.19V84.16ZM351.25 85.31C351.475 85.347 351.706 85.3163 351.913 85.2218C352.121 85.1273 352.295 84.9734 352.415 84.7794C352.535 84.5855 352.594 84.3603 352.586 84.1325C352.577 83.9048 352.501 83.6846 352.368 83.5001C352.234 83.3156 352.048 83.175 351.834 83.0962C351.62 83.0173 351.388 83.0039 351.166 83.0574C350.945 83.111 350.744 83.2292 350.59 83.397C350.436 83.5649 350.335 83.7747 350.3 84C350.273 84.1505 350.276 84.305 350.309 84.4543C350.342 84.6036 350.405 84.7448 350.494 84.8696C350.582 84.9943 350.694 85.1002 350.824 85.181C350.954 85.2618 351.099 85.3158 351.25 85.34V85.31ZM358.35 86.46C358.574 86.4867 358.801 86.4469 359.003 86.3456C359.204 86.2442 359.372 86.0858 359.484 85.8901C359.596 85.6943 359.648 85.4698 359.634 85.2447C359.619 85.0195 359.539 84.8035 359.403 84.6236C359.267 84.4438 359.08 84.308 358.867 84.2332C358.655 84.1583 358.424 84.1478 358.206 84.2028C357.987 84.2579 357.789 84.3761 357.637 84.5427C357.485 84.7094 357.385 84.9171 357.35 85.14C357.322 85.2949 357.325 85.4541 357.361 85.6075C357.397 85.7609 357.463 85.9054 357.557 86.032C357.651 86.1586 357.77 86.2646 357.906 86.3433C358.042 86.4221 358.194 86.472 358.35 86.49V86.46ZM365.46 87.61C365.684 87.6466 365.915 87.6158 366.122 87.5215C366.329 87.4272 366.503 87.2737 366.623 87.0803C366.743 86.8869 366.802 86.6623 366.794 86.435C366.786 86.2077 366.711 85.9878 366.578 85.8032C366.446 85.6186 366.261 85.4775 366.048 85.3979C365.835 85.3182 365.603 85.3035 365.382 85.3556C365.16 85.4077 364.959 85.5243 364.804 85.6906C364.649 85.8569 364.547 86.0655 364.51 86.29C364.483 86.4411 364.486 86.5961 364.519 86.7461C364.552 86.896 364.615 87.0379 364.703 87.1635C364.791 87.2891 364.904 87.3959 365.034 87.4777C365.164 87.5595 365.309 87.6146 365.46 87.64V87.61ZM372.56 88.76C372.784 88.7966 373.015 88.7658 373.222 88.6715C373.429 88.5772 373.603 88.4237 373.723 88.2303C373.843 88.0369 373.902 87.8123 373.894 87.585C373.886 87.3577 373.811 87.1378 373.678 86.9532C373.546 86.7686 373.361 86.6275 373.148 86.5479C372.935 86.4682 372.703 86.4535 372.482 86.5056C372.26 86.5577 372.059 86.6743 371.904 86.8406C371.749 87.0069 371.647 87.2155 371.61 87.44C371.581 87.5913 371.583 87.7467 371.616 87.8972C371.648 88.0477 371.711 88.1901 371.799 88.316C371.888 88.4419 372.001 88.5487 372.132 88.6301C372.262 88.7116 372.408 88.7659 372.56 88.79V88.76ZM379.83 89.63C380.057 89.6397 380.282 89.5818 380.476 89.4637C380.671 89.3455 380.826 89.1725 380.921 88.9664C381.017 88.7603 381.05 88.5303 381.015 88.3056C380.981 88.0809 380.88 87.8716 380.727 87.704C380.573 87.5364 380.373 87.4181 380.152 87.364C379.931 87.31 379.7 87.3226 379.486 87.4003C379.272 87.478 379.086 87.6173 378.952 87.8005C378.817 87.9838 378.74 88.2029 378.73 88.43C378.719 88.5835 378.739 88.7376 378.789 88.8832C378.839 89.0288 378.917 89.1629 379.02 89.2776C379.122 89.3923 379.247 89.4852 379.386 89.5509C379.525 89.6166 379.676 89.6537 379.83 89.66V89.63ZM387 90C387.227 90.0097 387.452 89.9518 387.646 89.8337C387.841 89.7155 387.995 89.5425 388.091 89.3364C388.187 89.1302 388.22 88.9003 388.185 88.6756C388.151 88.4509 388.05 88.2415 387.897 88.074C387.743 87.9064 387.543 87.7881 387.322 87.734C387.101 87.68 386.87 87.6926 386.656 87.7703C386.442 87.848 386.256 87.9873 386.122 88.1705C385.987 88.3538 385.91 88.5729 385.9 88.8C385.893 88.9511 385.916 89.102 385.968 89.244C386.02 89.3861 386.099 89.5167 386.201 89.6281C386.303 89.7396 386.426 89.8298 386.564 89.8936C386.701 89.9574 386.849 89.9936 387 90ZM394.19 90.35C394.417 90.3595 394.641 90.3018 394.835 90.1841C395.029 90.0663 395.184 89.8938 395.28 89.6883C395.376 89.4827 395.409 89.2534 395.375 89.029C395.341 88.8046 395.242 88.5953 395.089 88.4274C394.937 88.2595 394.738 88.1406 394.518 88.0854C394.298 88.0303 394.066 88.0416 393.852 88.1178C393.639 88.1939 393.452 88.3316 393.316 88.5135C393.181 88.6954 393.102 88.9134 393.09 89.14C393.082 89.2935 393.105 89.4471 393.157 89.5916C393.209 89.7361 393.29 89.8687 393.394 89.9815C393.499 90.0943 393.625 90.1851 393.765 90.2484C393.905 90.3116 394.056 90.3462 394.21 90.35H394.19ZM401.38 90.69C401.538 90.71 401.698 90.6971 401.85 90.652C402.003 90.607 402.144 90.5308 402.266 90.4283C402.388 90.3258 402.486 90.1992 402.557 90.0565C402.627 89.9138 402.667 89.7582 402.674 89.5993C402.68 89.4405 402.654 89.2819 402.597 89.1336C402.539 88.9854 402.452 88.8506 402.34 88.7379C402.228 88.6252 402.093 88.537 401.945 88.4788C401.797 88.4207 401.639 88.3938 401.48 88.4C401.329 88.3919 401.179 88.4138 401.037 88.4644C400.895 88.5149 400.764 88.5931 400.652 88.6945C400.541 88.7959 400.45 88.9184 400.387 89.0549C400.323 89.1915 400.286 89.3394 400.28 89.49C400.273 89.6427 400.297 89.7952 400.35 89.9385C400.403 90.0819 400.484 90.2133 400.588 90.325C400.692 90.4368 400.818 90.5266 400.957 90.5892C401.097 90.6519 401.247 90.6862 401.4 90.69H401.38ZM408.56 91.04C408.787 91.0515 409.012 90.9955 409.208 90.8791C409.403 90.7626 409.559 90.5909 409.657 90.3856C409.754 90.1804 409.789 89.9508 409.756 89.7258C409.724 89.5009 409.625 89.2907 409.473 89.1218C409.321 88.9529 409.122 88.8329 408.902 88.7769C408.681 88.7209 408.449 88.7315 408.235 88.8073C408.021 88.8831 407.834 89.0207 407.697 89.2027C407.561 89.3847 407.482 89.603 407.47 89.83C407.465 90.1316 407.578 90.4233 407.786 90.6422C407.993 90.8611 408.278 90.9896 408.58 91L408.56 91.04ZM415.94 91.28C416.095 91.2689 416.246 91.2265 416.384 91.1554C416.522 91.0844 416.644 90.986 416.743 90.8664C416.842 90.7468 416.916 90.6084 416.96 90.4595C417.004 90.3106 417.018 90.1543 417 90C416.96 89.6989 416.804 89.4255 416.564 89.2386C416.325 89.0516 416.022 88.9659 415.72 89C415.563 89.0091 415.411 89.0502 415.27 89.1206C415.13 89.1911 415.006 89.2894 414.906 89.4096C414.805 89.5298 414.73 89.6693 414.685 89.8195C414.64 89.9698 414.627 90.1276 414.645 90.2833C414.664 90.439 414.714 90.5892 414.792 90.7249C414.871 90.8605 414.976 90.9786 415.102 91.072C415.228 91.1653 415.372 91.2319 415.525 91.2677C415.677 91.3035 415.836 91.3077 415.99 91.28H415.94ZM423.09 90.45C423.39 90.4124 423.664 90.2581 423.851 90.0203C424.038 89.7826 424.124 89.4807 424.09 89.18C424.072 89.0296 424.025 88.8842 423.951 88.7521C423.877 88.62 423.778 88.5037 423.659 88.4099C423.54 88.3161 423.404 88.2467 423.258 88.2055C423.113 88.1643 422.96 88.1523 422.81 88.17C422.66 88.1877 422.514 88.2349 422.382 88.3088C422.25 88.3827 422.134 88.482 422.04 88.6008C421.946 88.7197 421.877 88.8559 421.836 89.0015C421.794 89.1472 421.782 89.2996 421.8 89.45C421.818 89.6025 421.867 89.7498 421.943 89.8832C422.02 90.0165 422.122 90.1333 422.244 90.2265C422.366 90.3197 422.506 90.3875 422.654 90.4259C422.803 90.4643 422.958 90.4725 423.11 90.45H423.09ZM430.24 89.63C430.466 89.6025 430.679 89.5087 430.851 89.3603C431.024 89.2119 431.148 89.0157 431.209 88.7964C431.27 88.5771 431.265 88.3447 431.194 88.1286C431.122 87.9124 430.989 87.7223 430.809 87.5822C430.63 87.4421 430.413 87.3583 430.186 87.3415C429.959 87.3247 429.732 87.3757 429.534 87.4879C429.336 87.6001 429.176 87.7685 429.074 87.9718C428.972 88.1751 428.932 88.4042 428.96 88.63C429 88.935 429.159 89.2116 429.403 89.3992C429.647 89.5867 429.955 89.6697 430.26 89.63H430.24ZM437.39 88.8C437.616 88.7725 437.829 88.6787 438.001 88.5303C438.174 88.3819 438.298 88.1857 438.359 87.9664C438.42 87.7471 438.415 87.5147 438.344 87.2986C438.272 87.0824 438.139 86.8923 437.959 86.7522C437.78 86.6121 437.563 86.5283 437.336 86.5115C437.109 86.4947 436.882 86.5457 436.684 86.6579C436.486 86.7701 436.326 86.9385 436.224 87.1418C436.122 87.3451 436.082 87.5742 436.11 87.8C436.15 88.105 436.309 88.3816 436.553 88.5692C436.797 88.7567 437.105 88.8397 437.41 88.8H437.39ZM444.54 87.97C444.84 87.9324 445.114 87.7781 445.301 87.5403C445.488 87.3026 445.574 87.0007 445.54 86.7C445.5 86.3989 445.344 86.1255 445.104 85.9386C444.865 85.7516 444.562 85.6659 444.26 85.7C444.103 85.7091 443.951 85.7502 443.81 85.8206C443.67 85.8911 443.546 85.9894 443.446 86.1096C443.345 86.2298 443.27 86.3693 443.225 86.5195C443.18 86.6698 443.167 86.8276 443.185 86.9833C443.204 87.139 443.254 87.2893 443.332 87.4249C443.411 87.5605 443.516 87.6786 443.642 87.772C443.768 87.8653 443.912 87.9319 444.065 87.9677C444.217 88.0035 444.376 88.0077 444.53 87.98L444.54 87.97ZM451.69 87.15C451.916 87.1225 452.129 87.0287 452.301 86.8803C452.474 86.7319 452.598 86.5357 452.659 86.3164C452.72 86.0971 452.715 85.8647 452.643 85.6486C452.572 85.4324 452.439 85.2423 452.259 85.1022C452.08 84.9621 451.863 84.8783 451.636 84.8615C451.409 84.8447 451.182 84.8957 450.984 85.0079C450.786 85.12 450.626 85.2885 450.524 85.4918C450.422 85.6951 450.382 85.9242 450.41 86.15C450.45 86.455 450.609 86.7316 450.853 86.9192C451.097 87.1067 451.405 87.1897 451.71 87.15H451.69ZM458.8 85.09C459.016 85.0203 459.207 84.8882 459.348 84.7104C459.489 84.5325 459.574 84.3168 459.593 84.0905C459.612 83.8642 459.563 83.6374 459.453 83.4387C459.344 83.24 459.177 83.0783 458.976 82.974C458.774 82.8697 458.546 82.8274 458.32 82.8525C458.094 82.8776 457.881 82.969 457.707 83.1151C457.533 83.2611 457.407 83.4554 457.343 83.6734C457.28 83.8914 457.282 84.1234 457.35 84.34C457.395 84.4871 457.47 84.6236 457.569 84.7414C457.668 84.8592 457.789 84.9559 457.926 85.0258C458.063 85.0958 458.213 85.1375 458.367 85.1485C458.52 85.1595 458.674 85.1396 458.82 85.09H458.8ZM465.66 82.92C465.951 82.8259 466.193 82.6208 466.333 82.3493C466.474 82.0777 466.501 81.7618 466.41 81.47C466.34 81.2539 466.208 81.0632 466.03 80.922C465.853 80.7809 465.637 80.6955 465.411 80.6768C465.184 80.658 464.957 80.7066 464.759 80.8166C464.56 80.9265 464.398 81.0928 464.294 81.2945C464.19 81.4962 464.147 81.7243 464.173 81.9499C464.198 82.1756 464.289 82.3888 464.435 82.5627C464.581 82.7365 464.775 82.8632 464.993 82.9268C465.211 82.9904 465.443 82.988 465.66 82.92ZM472.52 80.74C472.664 80.6956 472.799 80.623 472.915 80.5263C473.031 80.4297 473.126 80.3109 473.196 80.1769C473.266 80.0429 473.308 79.8964 473.321 79.7458C473.334 79.5953 473.316 79.4438 473.27 79.3C473.227 79.1524 473.155 79.0149 473.058 78.8956C472.962 78.7763 472.842 78.6776 472.706 78.6054C472.571 78.5331 472.422 78.4887 472.269 78.4749C472.116 78.4611 471.962 78.4781 471.815 78.5249C471.669 78.5716 471.534 78.6473 471.417 78.7473C471.3 78.8473 471.205 78.9697 471.136 79.1072C471.068 79.2447 471.027 79.3946 471.018 79.5479C471.008 79.7012 471.029 79.855 471.08 80C471.125 80.1458 471.199 80.281 471.298 80.3977C471.396 80.5143 471.517 80.61 471.653 80.679C471.79 80.748 471.938 80.789 472.091 80.7994C472.243 80.8099 472.396 80.7897 472.54 80.74H472.52ZM479.38 78.57C479.597 78.502 479.789 78.371 479.932 78.1937C480.075 78.0164 480.162 77.8007 480.182 77.574C480.202 77.3473 480.154 77.1197 480.045 76.9201C479.936 76.7205 479.769 76.5578 479.567 76.4526C479.366 76.3475 479.137 76.3046 478.911 76.3294C478.685 76.3543 478.471 76.4457 478.297 76.5921C478.122 76.7385 477.995 76.9333 477.932 77.1519C477.868 77.3705 477.871 77.603 477.94 77.82C477.985 77.9659 478.059 78.1013 478.158 78.2183C478.256 78.3353 478.377 78.4315 478.513 78.5014C478.649 78.5712 478.797 78.6132 478.949 78.625C479.102 78.6368 479.255 78.6181 479.4 78.57H479.38ZM486.24 76.4C486.523 76.3099 486.76 76.1138 486.902 75.8529C487.043 75.592 487.079 75.2863 487 75C486.901 74.7172 486.696 74.4842 486.428 74.3505C486.159 74.2169 485.85 74.1931 485.564 74.2843C485.279 74.3756 485.04 74.5745 484.9 74.8389C484.759 75.1033 484.727 75.4123 484.81 75.7C484.912 75.9832 485.121 76.2152 485.392 76.3461C485.663 76.477 485.975 76.4963 486.26 76.4H486.24ZM493.09 73.63C493.29 73.5221 493.454 73.3574 493.56 73.1566C493.667 72.9558 493.711 72.728 493.688 72.5019C493.665 72.2758 493.576 72.0615 493.431 71.8862C493.287 71.7108 493.094 71.5822 492.876 71.5167C492.658 71.4511 492.426 71.4515 492.209 71.5178C491.991 71.5841 491.798 71.7133 491.654 71.8891C491.51 72.065 491.422 72.2795 491.4 72.5057C491.377 72.7319 491.423 72.9596 491.53 73.16C491.601 73.2961 491.699 73.4166 491.818 73.5142C491.936 73.6119 492.073 73.6848 492.221 73.7286C492.368 73.7724 492.523 73.7862 492.675 73.7693C492.828 73.7524 492.976 73.705 493.11 73.63H493.09ZM499.43 70.23C499.63 70.1221 499.794 69.9574 499.9 69.7566C500.007 69.5558 500.051 69.328 500.028 69.1019C500.005 68.8758 499.916 68.6615 499.771 68.4862C499.627 68.3108 499.434 68.1822 499.216 68.1167C498.998 68.0511 498.766 68.0515 498.549 68.1178C498.331 68.1841 498.138 68.3133 497.994 68.4891C497.85 68.665 497.762 68.8795 497.74 69.1057C497.717 69.3319 497.763 69.5596 497.87 69.76C497.941 69.8961 498.039 70.0166 498.158 70.1142C498.276 70.2119 498.413 70.2848 498.561 70.3286C498.708 70.3724 498.863 70.3862 499.015 70.3693C499.168 70.3524 499.316 70.305 499.45 70.23H499.43ZM505.77 66.83C505.903 66.7586 506.022 66.6616 506.117 66.5445C506.213 66.4274 506.285 66.2925 506.329 66.1476C506.373 66.0027 506.387 65.8505 506.372 65.6999C506.357 65.5493 506.312 65.4032 506.24 65.27C506.17 65.1369 506.074 65.019 505.957 64.9232C505.841 64.8274 505.707 64.7556 505.563 64.7119C505.419 64.6682 505.268 64.6535 505.118 64.6686C504.968 64.6837 504.822 64.7284 504.69 64.8C504.557 64.8714 504.438 64.9684 504.343 65.0855C504.247 65.2026 504.175 65.3375 504.131 65.4824C504.087 65.6273 504.073 65.7795 504.088 65.9301C504.103 66.0807 504.148 66.2268 504.22 66.36C504.29 66.4958 504.387 66.616 504.505 66.7136C504.623 66.8111 504.759 66.884 504.905 66.9278C505.052 66.9717 505.206 66.9856 505.358 66.9688C505.51 66.952 505.657 66.9048 505.79 66.83H505.77ZM512.12 63.43C512.32 63.3221 512.484 63.1574 512.59 62.9566C512.697 62.7558 512.741 62.528 512.718 62.3019C512.695 62.0758 512.606 61.8615 512.461 61.6862C512.317 61.5108 512.124 61.3822 511.906 61.3167C511.688 61.2511 511.456 61.2515 511.239 61.3178C511.021 61.3841 510.828 61.5133 510.684 61.6891C510.54 61.865 510.452 62.0795 510.43 62.3057C510.407 62.5319 510.453 62.7596 510.56 62.96C510.631 63.0961 510.729 63.2166 510.848 63.3142C510.966 63.4119 511.103 63.4848 511.251 63.5286C511.398 63.5724 511.553 63.5862 511.705 63.5693C511.858 63.5524 512.006 63.505 512.14 63.43H512.12ZM518.46 60.03C518.66 59.9221 518.824 59.7574 518.93 59.5566C519.037 59.3558 519.081 59.128 519.058 58.9019C519.035 58.6758 518.946 58.4615 518.801 58.2862C518.657 58.1108 518.464 57.9823 518.246 57.9167C518.028 57.8511 517.796 57.8515 517.579 57.9178C517.361 57.9841 517.168 58.1133 517.024 58.2891C516.88 58.465 516.792 58.6795 516.77 58.9057C516.747 59.1319 516.793 59.3596 516.9 59.56C516.974 59.6936 517.074 59.8111 517.193 59.9058C517.313 60.0004 517.451 60.0702 517.598 60.1112C517.745 60.1521 517.899 60.1634 518.05 60.1443C518.202 60.1252 518.348 60.0762 518.48 60L518.46 60.03ZM524.8 56.63C524.933 56.5586 525.052 56.4616 525.147 56.3445C525.243 56.2274 525.315 56.0925 525.359 55.9476C525.403 55.8027 525.417 55.6505 525.402 55.4999C525.387 55.3493 525.342 55.2032 525.27 55.07C525.2 54.9369 525.104 54.819 524.987 54.7232C524.871 54.6274 524.737 54.5556 524.593 54.5119C524.449 54.4682 524.297 54.4535 524.148 54.4686C523.998 54.4837 523.852 54.5284 523.72 54.6C523.586 54.6714 523.468 54.7684 523.372 54.8855C523.277 55.0026 523.205 55.1375 523.161 55.2824C523.117 55.4273 523.103 55.5795 523.118 55.7301C523.133 55.8807 523.178 56.0268 523.25 56.16C523.32 56.2958 523.417 56.416 523.535 56.5136C523.653 56.6111 523.789 56.684 523.935 56.7278C524.082 56.7717 524.236 56.7856 524.388 56.7688C524.54 56.752 524.687 56.7048 524.82 56.63H524.8ZM531.15 53.22C531.35 53.1112 531.513 52.9457 531.618 52.7442C531.724 52.5428 531.768 52.3146 531.744 52.0884C531.719 51.8622 531.629 51.6483 531.483 51.4736C531.338 51.2989 531.143 51.1713 530.925 51.107C530.707 51.0427 530.475 51.0445 530.258 51.1122C530.041 51.1799 529.848 51.3105 529.705 51.4874C529.562 51.6644 529.475 51.8797 529.455 52.1062C529.434 52.3327 529.481 52.5602 529.59 52.76C529.662 52.8953 529.761 53.0147 529.88 53.1114C529.999 53.208 530.136 53.2799 530.283 53.3228C530.43 53.3656 530.585 53.3786 530.737 53.361C530.889 53.3433 531.036 53.2954 531.17 53.22H531.15ZM537.48 49.8C537.68 49.6912 537.843 49.5257 537.948 49.3242C538.054 49.1228 538.098 48.8946 538.074 48.6684C538.049 48.4422 537.959 48.2283 537.813 48.0536C537.668 47.8789 537.473 47.7513 537.255 47.687C537.037 47.6227 536.805 47.6245 536.588 47.6922C536.37 47.7599 536.178 47.8905 536.035 48.0674C535.892 48.2444 535.805 48.4597 535.785 48.6862C535.764 48.9127 535.811 49.1402 535.92 49.34C535.992 49.4753 536.091 49.5947 536.21 49.6914C536.329 49.788 536.466 49.8599 536.613 49.9028C536.76 49.9456 536.915 49.9586 537.067 49.941C537.219 49.9233 537.367 49.8754 537.5 49.8H537.48ZM543.81 46.38C543.964 46.3221 544.104 46.2318 544.22 46.1153C544.336 45.9987 544.426 45.8586 544.483 45.7044C544.54 45.5503 544.564 45.3856 544.552 45.2215C544.54 45.0574 544.494 44.8977 544.415 44.7533C544.336 44.6088 544.227 44.483 544.096 44.3842C543.964 44.2854 543.813 44.2159 543.653 44.1805C543.492 44.1452 543.326 44.1446 543.165 44.1791C543.004 44.2135 542.852 44.282 542.72 44.38C542.497 44.5452 542.342 44.7854 542.282 45.0563C542.222 45.3271 542.263 45.6104 542.395 45.8539C542.528 46.0975 542.744 46.2848 543.004 46.3815C543.264 46.4782 543.55 46.4776 543.81 46.38ZM550.17 43C550.302 42.9287 550.419 42.8321 550.514 42.7155C550.609 42.5989 550.68 42.4647 550.722 42.3207C550.765 42.1766 550.779 42.0255 550.763 41.8761C550.747 41.7267 550.702 41.5819 550.63 41.45C550.522 41.2489 550.358 41.0844 550.156 40.9772C549.955 40.87 549.727 40.8251 549.5 40.8482C549.273 40.8712 549.058 40.9612 548.882 41.1067C548.707 41.2521 548.578 41.4465 548.513 41.6651C548.449 41.8837 548.45 42.1167 548.518 42.3344C548.586 42.5521 548.717 42.7447 548.894 42.8878C549.072 43.0308 549.288 43.1179 549.515 43.1379C549.742 43.1579 549.97 43.1099 550.17 43ZM556.5 39.58C556.64 39.5124 556.764 39.4171 556.866 39.2998C556.967 39.1824 557.044 39.0456 557.09 38.8977C557.137 38.7498 557.153 38.5939 557.138 38.4395C557.122 38.2852 557.075 38.1356 557 38C556.893 37.7986 556.729 37.6335 556.529 37.5255C556.328 37.4175 556.1 37.3715 555.873 37.3934C555.646 37.4153 555.431 37.5041 555.255 37.6484C555.079 37.7928 554.949 37.9863 554.883 38.2044C554.817 38.4224 554.817 38.6552 554.884 38.8731C554.95 39.0911 555.08 39.2844 555.256 39.4286C555.432 39.5728 555.648 39.6613 555.875 39.6829C556.101 39.7045 556.33 39.6582 556.53 39.55L556.5 39.58ZM562.83 36.16C563.031 36.0525 563.196 35.8876 563.303 35.6863C563.41 35.4851 563.455 35.2565 563.432 35.0296C563.409 34.8028 563.319 34.5879 563.173 34.4123C563.028 34.2367 562.833 34.1083 562.615 34.0434C562.396 33.9785 562.163 33.9801 561.946 34.0479C561.728 34.1158 561.535 34.2468 561.392 34.4243C561.249 34.6019 561.162 34.818 561.142 35.0451C561.122 35.2722 561.17 35.5002 561.28 35.7C561.431 35.9603 561.678 36.1506 561.969 36.2292C562.259 36.3079 562.568 36.2686 562.83 36.12V36.16ZM569.17 32.74C569.37 32.6312 569.533 32.4656 569.638 32.2642C569.744 32.0628 569.788 31.8346 569.764 31.6084C569.74 31.3822 569.649 31.1683 569.503 30.9936C569.358 30.8189 569.163 30.6913 568.945 30.627C568.727 30.5627 568.495 30.5645 568.278 30.6322C568.06 30.6999 567.868 30.8305 567.725 31.0074C567.582 31.1844 567.495 31.3997 567.475 31.6262C567.454 31.8527 567.501 32.0802 567.61 32.28C567.763 32.541 568.012 32.7315 568.304 32.8101C568.596 32.8887 568.907 32.8491 569.17 32.7V32.74ZM575.53 29.81C575.744 29.733 575.931 29.5942 576.066 29.4112C576.201 29.2281 576.279 29.0091 576.29 28.7817C576.3 28.5544 576.243 28.329 576.126 28.134C576.008 27.9391 575.836 27.7835 575.63 27.6868C575.424 27.59 575.194 27.5566 574.969 27.5908C574.744 27.6249 574.534 27.7251 574.366 27.8785C574.198 28.032 574.079 28.2319 574.024 28.4529C573.97 28.6739 573.982 28.9061 574.06 29.12C574.169 29.4005 574.385 29.6264 574.661 29.7481C574.936 29.8699 575.249 29.8778 575.53 29.77V29.81ZM582.3 27.37C582.514 27.2937 582.701 27.1557 582.837 26.9734C582.972 26.791 583.051 26.5725 583.063 26.3454C583.074 26.1184 583.018 25.893 582.902 25.6977C582.786 25.5025 582.614 25.3461 582.409 25.2483C582.203 25.1506 581.974 25.1159 581.749 25.1486C581.524 25.1813 581.314 25.28 581.145 25.4321C580.976 25.5842 580.856 25.783 580.8 26.0033C580.744 26.2237 580.754 26.4557 580.83 26.67C580.94 26.9507 581.155 27.1771 581.43 27.3005C581.705 27.4239 582.017 27.4345 582.3 27.33V27.37ZM589.07 24.92C589.284 24.843 589.471 24.7042 589.606 24.5212C589.741 24.3381 589.819 24.1191 589.83 23.8917C589.84 23.6644 589.783 23.439 589.666 23.244C589.548 23.0491 589.376 22.8935 589.17 22.7968C588.964 22.7 588.734 22.6666 588.509 22.7008C588.284 22.7349 588.074 22.8351 587.906 22.9885C587.738 23.142 587.619 23.3419 587.564 23.5629C587.51 23.7839 587.522 24.0161 587.6 24.23C587.712 24.5089 587.928 24.733 588.203 24.8544C588.477 24.9759 588.789 24.9851 589.07 24.88V24.92ZM595.84 22.47C596.054 22.393 596.241 22.2542 596.376 22.0712C596.511 21.8881 596.589 21.6691 596.6 21.4417C596.61 21.2144 596.553 20.989 596.436 20.794C596.318 20.5991 596.146 20.4435 595.94 20.3468C595.734 20.25 595.504 20.2166 595.279 20.2508C595.054 20.2849 594.844 20.3851 594.676 20.5385C594.508 20.692 594.389 20.8919 594.334 21.1129C594.28 21.3339 594.292 21.5661 594.37 21.78C594.479 22.0605 594.695 22.2864 594.971 22.4081C595.246 22.5299 595.559 22.5378 595.84 22.43V22.47ZM602.61 20C602.823 19.9215 603.008 19.7816 603.142 19.5981C603.275 19.4146 603.352 19.1956 603.361 18.9687C603.371 18.7419 603.313 18.5173 603.195 18.3233C603.077 18.1294 602.904 17.9746 602.698 17.8787C602.492 17.7828 602.263 17.7499 602.038 17.7842C601.814 17.8185 601.605 17.9185 601.437 18.0716C601.269 18.2247 601.151 18.424 601.096 18.6443C601.041 18.8647 601.053 19.0963 601.13 19.31C601.238 19.5952 601.453 19.827 601.73 19.9559C602.006 20.0848 602.322 20.1006 602.61 20ZM609.38 17.55C609.593 17.4715 609.778 17.3316 609.912 17.1481C610.045 16.9646 610.122 16.7456 610.131 16.5187C610.141 16.2919 610.083 16.0673 609.965 15.8733C609.847 15.6793 609.674 15.5246 609.468 15.4287C609.262 15.3328 609.033 15.2999 608.808 15.3342C608.584 15.3685 608.375 15.4685 608.207 15.6216C608.039 15.7747 607.921 15.9739 607.866 16.1943C607.811 16.4147 607.823 16.6463 607.9 16.86C608.008 17.1451 608.224 17.3762 608.501 17.5034C608.778 17.6307 609.093 17.6438 609.38 17.54V17.55ZM616 15.29C616.222 15.2414 616.425 15.128 616.582 14.9642C616.74 14.8005 616.846 14.5936 616.886 14.3699C616.926 14.1461 616.899 13.9155 616.808 13.7071C616.717 13.4987 616.567 13.3219 616.375 13.199C616.184 13.0762 615.961 13.0128 615.734 13.0168C615.506 13.0209 615.285 13.0922 615.098 13.2218C614.912 13.3513 614.767 13.5334 614.684 13.7449C614.601 13.9564 614.582 14.1878 614.63 14.41C614.662 14.5578 614.723 14.6979 614.809 14.8222C614.895 14.9464 615.005 15.0525 615.132 15.1342C615.26 15.216 615.402 15.2718 615.551 15.2985C615.7 15.3253 615.852 15.3224 616 15.29ZM623 13.75C623.223 13.7031 623.427 13.5911 623.586 13.4281C623.745 13.2651 623.853 13.0585 623.894 12.8345C623.936 12.6105 623.91 12.3792 623.82 12.1699C623.73 11.9607 623.58 11.7828 623.388 11.6591C623.197 11.5353 622.973 11.4711 622.745 11.4747C622.518 11.4783 622.296 11.5495 622.109 11.6792C621.921 11.8089 621.777 11.9914 621.693 12.2034C621.61 12.4154 621.591 12.6474 621.64 12.87C621.671 13.0242 621.734 13.1704 621.824 13.2994C621.914 13.4284 622.03 13.5376 622.164 13.6201C622.298 13.7026 622.448 13.7567 622.604 13.779C622.759 13.8014 622.918 13.7915 623.07 13.75H623ZM630 12.2C630.148 12.1704 630.289 12.1114 630.414 12.0265C630.539 11.9416 630.645 11.8326 630.727 11.7058C630.809 11.579 630.865 11.4371 630.891 11.2884C630.917 11.1397 630.914 10.9872 630.88 10.84C630.858 10.6829 630.804 10.532 630.722 10.3967C630.639 10.2615 630.529 10.1448 630.399 10.0541C630.269 9.96332 630.121 9.90046 629.966 9.86943C629.81 9.83841 629.65 9.83989 629.495 9.87378C629.34 9.90767 629.194 9.97324 629.065 10.0664C628.937 10.1595 628.829 10.2782 628.749 10.4149C628.669 10.5517 628.618 10.7036 628.599 10.8611C628.58 11.0185 628.594 11.1782 628.64 11.33C628.669 11.4882 628.732 11.6384 628.824 11.7705C628.916 11.9026 629.035 12.0135 629.173 12.0959C629.311 12.1782 629.465 12.2301 629.625 12.2481C629.785 12.2661 629.947 12.2497 630.1 12.2H630ZM637 10.66C637.222 10.6109 637.425 10.4969 637.582 10.3324C637.74 10.168 637.845 9.96056 637.884 9.73635C637.924 9.51214 637.896 9.28126 637.804 9.07297C637.712 8.86468 637.561 8.68834 637.368 8.5663C637.176 8.44426 636.952 8.382 636.724 8.38742C636.497 8.39283 636.276 8.46568 636.09 8.59672C635.904 8.72777 635.761 8.91112 635.679 9.12355C635.597 9.33597 635.58 9.56792 635.63 9.79C635.659 9.95333 635.724 10.1083 635.82 10.244C635.915 10.3797 636.039 10.493 636.183 10.5758C636.327 10.6587 636.487 10.7092 636.652 10.7237C636.817 10.7382 636.984 10.7165 637.14 10.66H637ZM644 9.12C644.222 9.07136 644.425 8.958 644.582 8.79423C644.74 8.63046 644.846 8.42363 644.886 8.19988C644.926 7.97613 644.899 7.74549 644.808 7.53709C644.717 7.3287 644.567 7.15191 644.375 7.02905C644.184 6.90618 643.961 6.84277 643.734 6.84681C643.506 6.85085 643.285 6.92217 643.098 7.05176C642.912 7.18134 642.767 7.36338 642.684 7.57487C642.601 7.78636 642.582 8.01782 642.63 8.24C642.657 8.40789 642.721 8.56757 642.818 8.70736C642.915 8.84715 643.042 8.96349 643.19 9.04787C643.337 9.13224 643.502 9.18251 643.672 9.19499C643.841 9.20748 644.012 9.18185 644.17 9.12H644ZM651 7.58C651.222 7.53136 651.425 7.418 651.582 7.25423C651.74 7.09046 651.846 6.88363 651.886 6.65988C651.926 6.43613 651.899 6.20549 651.808 5.99709C651.717 5.7887 651.567 5.61191 651.375 5.48905C651.184 5.36618 650.961 5.30277 650.734 5.30681C650.506 5.31085 650.285 5.38217 650.098 5.51176C649.912 5.64134 649.767 5.82338 649.684 6.03487C649.601 6.24636 649.582 6.47782 649.63 6.7C649.658 6.87074 649.724 7.03301 649.823 7.17474C649.922 7.31647 650.052 7.434 650.203 7.51857C650.354 7.60315 650.522 7.6526 650.694 7.66323C650.867 7.67387 651.04 7.64542 651.2 7.58H651ZM658 6.45C658.15 6.43424 658.296 6.38902 658.429 6.31692C658.562 6.24482 658.679 6.14725 658.774 6.02978C658.87 5.91232 658.941 5.77726 658.984 5.63231C659.027 5.48736 659.041 5.33536 659.025 5.185C659.009 5.03464 658.964 4.88885 658.892 4.75596C658.82 4.62307 658.722 4.50569 658.605 4.41051C658.487 4.31533 658.352 4.24422 658.207 4.20124C658.062 4.15825 657.91 4.14424 657.76 4.16C657.456 4.19183 657.178 4.34298 656.986 4.58022C656.793 4.81745 656.703 5.12133 656.735 5.425C656.767 5.72867 656.918 6.00727 657.155 6.19949C657.392 6.39172 657.696 6.48183 658 6.45ZM665.16 5.71C665.31 5.69424 665.456 5.64902 665.589 5.57692C665.722 5.50482 665.839 5.40725 665.935 5.28978C666.03 5.17232 666.101 5.03726 666.144 4.89231C666.187 4.74736 666.201 4.59536 666.185 4.445C666.169 4.29464 666.124 4.14885 666.052 4.01596C665.98 3.88307 665.882 3.76569 665.765 3.67051C665.647 3.57533 665.512 3.50422 665.367 3.46124C665.222 3.41825 665.07 3.40424 664.92 3.42C664.616 3.45183 664.338 3.60298 664.146 3.84022C663.953 4.07745 663.863 4.38133 663.895 4.685C663.927 4.98867 664.078 5.26726 664.315 5.45949C664.552 5.65171 664.856 5.74183 665.16 5.71ZM672.48 5C672.707 4.97635 672.922 4.88552 673.098 4.73911C673.273 4.59269 673.401 4.39733 673.465 4.17794C673.529 3.95856 673.526 3.7251 673.457 3.50736C673.387 3.28961 673.255 3.09745 673.076 2.95539C672.897 2.81334 672.68 2.72783 672.452 2.70977C672.224 2.69172 671.996 2.74194 671.797 2.85402C671.598 2.96611 671.437 3.13498 671.334 3.33908C671.231 3.54319 671.191 3.77328 671.22 4C671.258 4.29832 671.411 4.57004 671.646 4.75696C671.882 4.94388 672.181 5.03112 672.48 5ZM679.64 4.26C679.94 4.22244 680.214 4.06806 680.401 3.83033C680.588 3.5926 680.674 3.29067 680.64 2.99C680.636 2.83126 680.599 2.67505 680.532 2.5312C680.465 2.38736 680.369 2.25901 680.249 2.15423C680.13 2.04945 679.99 1.97051 679.839 1.92239C679.688 1.87427 679.528 1.85801 679.37 1.87463C679.212 1.89125 679.059 1.9404 678.921 2.01897C678.783 2.09755 678.663 2.20385 678.568 2.33117C678.473 2.4585 678.406 2.6041 678.37 2.75879C678.334 2.91349 678.331 3.07392 678.36 3.23C678.397 3.53218 678.553 3.80716 678.793 3.99463C679.033 4.18209 679.338 4.26674 679.64 4.23V4.26ZM686.8 3.51C687.027 3.48635 687.242 3.39552 687.418 3.24911C687.593 3.10269 687.721 2.90733 687.785 2.68794C687.849 2.46856 687.846 2.2351 687.777 2.01736C687.707 1.79961 687.575 1.60745 687.396 1.46539C687.217 1.32334 687 1.23783 686.772 1.21977C686.544 1.20172 686.316 1.25194 686.117 1.36402C685.918 1.47611 685.757 1.64498 685.654 1.84908C685.551 2.05319 685.511 2.28328 685.54 2.51C685.582 2.80395 685.738 3.06979 685.973 3.25095C686.208 3.43211 686.505 3.51429 686.8 3.48V3.51ZM693.87 3.1C694.022 3.09611 694.172 3.06224 694.312 3.00032C694.451 2.9384 694.577 2.84965 694.682 2.73914C694.786 2.62863 694.869 2.49852 694.923 2.35625C694.978 2.21399 695.004 2.06235 695 1.91C694.997 1.60674 694.875 1.31679 694.66 1.10328C694.444 0.889775 694.153 0.769989 693.85 0.77C693.699 0.769994 693.55 0.799809 693.411 0.857724C693.272 0.915639 693.146 1.00051 693.04 1.10743C692.934 1.21435 692.851 1.3412 692.794 1.48067C692.737 1.62014 692.709 1.76945 692.71 1.92C692.71 2.07187 692.74 2.22223 692.798 2.36241C692.857 2.50259 692.943 2.62981 693.05 2.73673C693.158 2.84365 693.286 2.92815 693.427 2.98535C693.568 3.04255 693.718 3.07132 693.87 3.07V3.1ZM701.06 3C701.211 3.00002 701.361 2.96989 701.501 2.91135C701.641 2.85281 701.767 2.76705 701.873 2.65906C701.979 2.55108 702.063 2.42303 702.119 2.2824C702.175 2.14178 702.203 1.99138 702.2 1.84C702.198 1.61256 702.129 1.39082 702.001 1.20282C701.873 1.01482 701.692 0.868992 701.481 0.783787C701.27 0.698582 701.039 0.677823 700.816 0.724136C700.593 0.770448 700.389 0.881752 700.23 1.04397C700.07 1.20619 699.963 1.41204 699.92 1.63549C699.878 1.85895 699.903 2.08996 699.991 2.29933C700.08 2.5087 700.229 2.68702 700.419 2.81173C700.61 2.93645 700.833 3.00197 701.06 3ZM708.26 3C708.414 2.99744 708.566 2.9642 708.707 2.90224C708.848 2.84028 708.976 2.75082 709.082 2.63911C709.188 2.5274 709.271 2.39566 709.325 2.25158C709.38 2.10751 709.405 1.954 709.4 1.8C709.4 1.6486 709.37 1.4987 709.311 1.35907C709.253 1.21944 709.167 1.09287 709.059 0.986744C708.951 0.88062 708.823 0.797069 708.682 0.740969C708.542 0.684869 708.391 0.657344 708.24 0.66C707.935 0.66 707.642 0.78116 707.427 0.996827C707.211 1.21249 707.09 1.505 707.09 1.81C707.09 2.115 707.211 2.40751 707.427 2.62317C707.642 2.83884 707.935 2.96 708.24 2.96L708.26 3ZM715.46 2.94C715.611 2.93869 715.76 2.90765 715.899 2.84865C716.038 2.78964 716.164 2.70383 716.27 2.59611C716.376 2.4884 716.46 2.36088 716.516 2.22085C716.573 2.08082 716.601 1.93102 716.6 1.78C716.603 1.62599 716.575 1.473 716.518 1.32994C716.46 1.18689 716.375 1.05664 716.267 0.946796C716.159 0.836953 716.031 0.749715 715.889 0.690173C715.747 0.630631 715.594 0.599977 715.44 0.6C715.289 0.601308 715.14 0.63235 715.001 0.691354C714.862 0.750358 714.736 0.836169 714.63 0.943886C714.524 1.0516 714.44 1.17912 714.384 1.31915C714.327 1.45918 714.299 1.60898 714.3 1.76C714.3 1.9114 714.33 2.0613 714.389 2.20093C714.447 2.34056 714.533 2.46713 714.641 2.57326C714.749 2.67938 714.877 2.76293 715.018 2.81903C715.158 2.87513 715.309 2.90266 715.46 2.9V2.94ZM722.56 3.01C722.787 3.02522 723.013 2.97294 723.21 2.85977C723.407 2.74659 723.566 2.57759 723.667 2.37409C723.768 2.1706 723.807 1.94172 723.778 1.71635C723.749 1.49099 723.654 1.27923 723.505 1.1078C723.356 0.936378 723.159 0.812969 722.94 0.753152C722.721 0.693334 722.489 0.699789 722.273 0.771701C722.058 0.843613 721.868 0.977759 721.729 1.15721C721.589 1.33666 721.506 1.55338 721.49 1.78C721.473 2.08288 721.576 2.38019 721.776 2.60824C721.976 2.83629 722.258 2.97692 722.56 3V3.01ZM729.74 3.53C729.967 3.54522 730.193 3.49294 730.39 3.37977C730.587 3.26659 730.746 3.09759 730.847 2.89409C730.948 2.6906 730.987 2.46172 730.958 2.23635C730.929 2.01099 730.834 1.79923 730.685 1.6278C730.536 1.45638 730.339 1.33297 730.12 1.27315C729.901 1.21333 729.669 1.21979 729.453 1.2917C729.238 1.36361 729.048 1.49776 728.909 1.67721C728.769 1.85666 728.686 2.07337 728.67 2.3C728.659 2.59847 728.764 2.88955 728.964 3.11164C729.164 3.33374 729.442 3.46943 729.74 3.49V3.53ZM736.91 4.06C737.215 4.08254 737.516 3.983 737.748 3.78328C737.98 3.58355 738.122 3.3 738.145 2.995C738.168 2.69 738.068 2.38854 737.868 2.15693C737.669 1.92532 737.385 1.78254 737.08 1.76C736.775 1.73746 736.474 1.837 736.242 2.03672C736.01 2.23645 735.867 2.52 735.845 2.825C735.822 3.13 735.922 3.43146 736.122 3.66307C736.321 3.89468 736.605 4.03746 736.91 4.06ZM744.09 4.58C744.241 4.59227 744.392 4.57448 744.536 4.52767C744.679 4.48086 744.812 4.40596 744.927 4.30733C745.041 4.2087 745.135 4.0883 745.202 3.95314C745.27 3.81798 745.31 3.67075 745.32 3.52C745.348 3.21235 745.252 2.90624 745.055 2.669C744.857 2.43177 744.573 2.28285 744.265 2.255C743.957 2.22715 743.651 2.32266 743.414 2.52051C743.177 2.71836 743.028 3.00235 743 3.31C742.988 3.46298 743.007 3.61685 743.055 3.7624C743.104 3.90794 743.181 4.04217 743.283 4.15703C743.385 4.27188 743.509 4.365 743.648 4.43081C743.786 4.49662 743.937 4.53376 744.09 4.54V4.58ZM751.15 5.58C751.375 5.6074 751.603 5.56772 751.805 5.46596C752.008 5.36419 752.176 5.20487 752.288 5.008C752.4 4.81113 752.452 4.58549 752.436 4.35941C752.421 4.13333 752.339 3.91689 752.201 3.73727C752.062 3.55765 751.874 3.42285 751.66 3.34981C751.445 3.27677 751.214 3.26873 750.995 3.32672C750.776 3.3847 750.579 3.50611 750.428 3.67572C750.278 3.84532 750.181 4.05555 750.15 4.28C750.132 4.57197 750.225 4.85991 750.411 5.08614C750.596 5.31238 750.86 5.4602 751.15 5.5V5.58ZM758.27 6.58C758.495 6.6074 758.723 6.56772 758.925 6.46596C759.128 6.36419 759.296 6.20487 759.408 6.008C759.52 5.81113 759.572 5.58549 759.556 5.35941C759.541 5.13333 759.459 4.91689 759.321 4.73727C759.182 4.55765 758.994 4.42285 758.78 4.34981C758.565 4.27677 758.334 4.26873 758.115 4.32672C757.896 4.3847 757.699 4.50611 757.548 4.67572C757.398 4.84532 757.301 5.05555 757.27 5.28C757.247 5.57416 757.338 5.86589 757.524 6.09483C757.71 6.32377 757.977 6.47241 758.27 6.51V6.58ZM765.27 7.86C765.423 7.90285 765.583 7.91357 765.74 7.8915C765.897 7.86943 766.048 7.81503 766.184 7.73174C766.319 7.64845 766.435 7.53807 766.526 7.40755C766.616 7.27703 766.679 7.1292 766.709 6.97338C766.739 6.81755 766.737 6.6571 766.703 6.50214C766.668 6.34717 766.602 6.20105 766.508 6.07297C766.414 5.94489 766.295 5.83764 766.157 5.75796C766.02 5.67828 765.868 5.6279 765.71 5.61C765.557 5.56715 765.397 5.55643 765.24 5.5785C765.083 5.60057 764.932 5.65497 764.796 5.73826C764.661 5.82155 764.545 5.93193 764.454 6.06245C764.364 6.19297 764.302 6.3408 764.271 6.49662C764.241 6.65245 764.243 6.8129 764.277 6.96786C764.312 7.12283 764.378 7.26895 764.472 7.39703C764.566 7.52511 764.685 7.63236 764.823 7.71204C764.96 7.79172 765.112 7.8421 765.27 7.86ZM260.46 23.26C260.465 23.3433 260.465 23.4267 260.46 23.51C260.434 24.1171 260.295 24.714 260.05 25.27C259.612 26.2433 258.875 27.051 257.945 27.575C257.015 28.099 255.942 28.3117 254.883 28.1821C253.823 28.0524 252.833 27.5873 252.057 26.8546C251.281 26.1219 250.76 25.1601 250.57 24.11C250.513 23.8303 250.486 23.5454 250.49 23.26C250.49 22.9445 250.52 22.6297 250.58 22.32C250.803 21.2081 251.398 20.205 252.266 19.4756C253.135 18.7461 254.225 18.3336 255.359 18.3057C256.493 18.2778 257.603 18.6362 258.506 19.322C259.409 20.0078 260.052 20.9804 260.33 22.08C260.372 22.2405 260.399 22.4045 260.41 22.57C260.447 22.7981 260.464 23.029 260.46 23.26ZM259.72 23.26C259.718 22.2094 259.326 21.1969 258.621 20.418C257.916 19.6391 256.948 19.1489 255.902 19.042C254.857 18.9351 253.81 19.2191 252.961 19.8393C252.113 20.4594 251.525 21.3716 251.31 22.4C251.249 22.6826 251.219 22.9709 251.22 23.26C251.221 23.5765 251.258 23.8919 251.33 24.2C251.517 25.056 251.965 25.8331 252.612 26.4243C253.258 27.0154 254.072 27.3917 254.942 27.5013C255.811 27.611 256.693 27.4486 257.466 27.0365C258.24 26.6244 258.866 25.9828 259.26 25.2C259.538 24.6572 259.691 24.0594 259.71 23.45C259.72 23.3872 259.724 23.3235 259.72 23.26ZM603.63 69.88C603.631 70.2848 603.581 70.688 603.48 71.08C603.43 71.2982 603.363 71.5121 603.28 71.72C603.19 71.9443 603.083 72.1615 602.96 72.37C602.367 73.3983 601.429 74.1822 600.311 74.5818C599.194 74.9813 597.97 74.9703 596.86 74.5508C595.75 74.1312 594.825 73.3305 594.251 72.2918C593.677 71.2531 593.492 70.044 593.727 68.8809C593.963 67.7178 594.605 66.6764 595.538 65.9429C596.471 65.2094 597.634 64.8317 598.82 64.8773C600.006 64.9229 601.137 65.3888 602.011 66.1917C602.885 66.9946 603.444 68.0822 603.59 69.26C603.619 69.4654 603.632 69.6726 603.63 69.88ZM602.9 69.88C602.915 69.6936 602.915 69.5064 602.9 69.32C602.764 68.2967 602.262 67.3574 601.485 66.6768C600.709 65.9963 599.712 65.6207 598.68 65.62C598.035 65.6184 597.398 65.7655 596.818 66.0499C596.239 66.3344 595.733 66.7484 595.34 67.26C595.19 67.4424 595.059 67.6401 594.95 67.85C594.612 68.4626 594.433 69.1503 594.43 69.85C594.43 70.4517 594.563 71.046 594.82 71.59C595.138 72.303 595.646 72.9143 596.289 73.3562C596.933 73.798 597.686 74.0533 598.465 74.0937C599.245 74.134 600.02 73.958 600.706 73.5849C601.392 73.2119 601.961 72.6564 602.35 71.98C602.482 71.7771 602.59 71.5588 602.67 71.33C602.67 71.26 602.67 71.19 602.75 71.11C602.858 70.7092 602.909 70.295 602.9 69.88Z" fill="#232323"/>
</g>
<defs>
<clipPath id="clip0_194_10">
<rect width="771.06" height="97.16" fill="white"/>
</clipPath>
</defs>
</svg>
