<svg width="280" height="92" viewBox="0 0 280 92" fill="none" xmlns="http://www.w3.org/2000/svg">
<g clip-path="url(#clip0_194_37)">
<path d="M279.99 22.1424L274.646 36.6114C274.64 36.6247 274.631 36.6366 274.621 36.6463C274.61 36.6559 274.597 36.6631 274.583 36.6674C274.569 36.6717 274.555 36.673 274.54 36.6711C274.526 36.6692 274.512 36.6643 274.5 36.6566L269.909 33.8731C269.893 33.8633 269.875 33.8582 269.856 33.8582C269.838 33.8582 269.819 33.8633 269.804 33.8731L265.71 36.6365C265.697 36.6462 265.681 36.6523 265.664 36.6541C265.648 36.6559 265.631 36.6534 265.616 36.6468C265.601 36.6402 265.588 36.6298 265.578 36.6165C265.568 36.6033 265.561 36.5877 265.559 36.5713L264.469 30.5931C264.468 30.5793 264.463 30.566 264.455 30.5545C264.447 30.5431 264.437 30.5339 264.424 30.5279L258.115 26.6962C258.099 26.6864 258.085 26.6718 258.077 26.6542C258.069 26.6367 258.067 26.6171 258.07 26.5981C258.073 26.5791 258.082 26.5615 258.096 26.5477C258.109 26.5338 258.127 26.5244 258.145 26.5207L279.744 21.8716C279.781 21.8571 279.821 21.8542 279.86 21.8632C279.899 21.8722 279.934 21.8928 279.96 21.9222C279.987 21.9516 280.004 21.9884 280.01 22.0277C280.015 22.067 280.008 22.107 279.99 22.1424ZM1.11005 70.3692L3.8877 66.703L3.27994 66.0911L0 70.3692H1.11005ZM5.4247 65.9658H3.91784L1.31097 62.4902H0.241098L3.42058 66.7431H5.42973L5.4247 65.9658ZM5.88178 70.3692V62.4902H4.96762V70.3692H5.88178ZM5.4247 65.9658V66.7431H7.43385L10.6234 62.4902H9.54346L6.95668 65.9658H5.4247ZM9.73935 70.3692H10.8695L7.58956 66.1062L6.95165 66.703L9.73935 70.3692ZM11.8389 70.3692H12.8435L16.6408 64.6066C16.7425 64.4595 16.8364 64.3072 16.9221 64.1502C17.0024 63.9998 17.0828 63.8644 17.1531 63.739H17.2184C17.2184 63.8894 17.2184 64.0566 17.2184 64.2405C17.2184 64.4261 17.2184 64.5966 17.2184 64.742V70.3541H18.1476V62.4902H17.1431L13.3458 68.2477C13.2503 68.3982 13.1549 68.5486 13.0695 68.6991L12.8385 69.1103H12.7782C12.7782 68.9599 12.7782 68.7894 12.7782 68.6088C12.7782 68.4283 12.7782 68.2527 12.7782 68.1073V62.4902H11.8389V70.3692ZM22.0002 63.2676H25.481V70.3692H26.4203V62.4902H21.1614L20.9504 66.8234C20.9329 67.5332 20.8505 68.2399 20.7043 68.9348C20.5837 69.4363 20.3175 69.657 19.9006 69.657C19.7993 69.659 19.6981 69.6489 19.5992 69.6269L19.3381 69.5517V70.3742C19.4356 70.4203 19.5385 70.454 19.6445 70.4745C19.7734 70.5005 19.9047 70.5122 20.0362 70.5096C20.3242 70.5319 20.6114 70.4591 20.8538 70.3023C21.0961 70.1455 21.2801 69.9135 21.3773 69.642C21.6675 68.7613 21.8183 67.8408 21.8244 66.9136L22.0002 63.2676ZM28.2135 66.5475C28.1678 67.6106 28.5266 68.6516 29.218 69.4614C29.5685 69.8199 29.9872 70.1048 30.4496 70.2993C30.9119 70.4938 31.4086 70.594 31.9103 70.594C32.412 70.594 32.9087 70.4938 33.371 70.2993C33.8334 70.1048 34.2521 69.8199 34.6026 69.4614C35.294 68.6516 35.6529 67.6106 35.6071 66.5475V66.3068C35.6519 65.2438 35.2931 64.2032 34.6026 63.3929C34.2514 63.0357 33.8325 62.7519 33.3702 62.5581C32.9079 62.3644 32.4116 62.2646 31.9103 62.2646C31.409 62.2646 30.9127 62.3644 30.4504 62.5581C29.9881 62.7519 29.5692 63.0357 29.218 63.3929C28.5275 64.2032 28.1688 65.2438 28.2135 66.3068V66.5475ZM29.1678 66.3068C29.1347 65.4814 29.3806 64.6688 29.866 63.9998C30.1233 63.7109 30.4389 63.4797 30.7921 63.3214C31.1454 63.163 31.5282 63.0812 31.9153 63.0812C32.3025 63.0812 32.6853 63.163 33.0385 63.3214C33.3917 63.4797 33.7074 63.7109 33.9647 63.9998C34.4462 64.6705 34.6901 65.4822 34.6578 66.3068V66.5475C34.6893 67.3736 34.4455 68.1867 33.9647 68.8596C33.7074 69.1485 33.3917 69.3797 33.0385 69.538C32.6853 69.6963 32.3025 69.7782 31.9153 69.7782C31.5282 69.7782 31.1454 69.6963 30.7921 69.538C30.4389 69.3797 30.1233 69.1485 29.866 68.8596C29.3813 68.1883 29.1355 67.3744 29.1678 66.5475V66.3068ZM37.4053 70.3692H38.4099L42.1921 64.6066C42.2938 64.4595 42.3877 64.3072 42.4734 64.1502C42.5538 63.9998 42.6341 63.8644 42.7045 63.739H42.7698C42.7698 63.8894 42.7698 64.0566 42.7698 64.2405C42.7698 64.4261 42.7698 64.5966 42.7698 64.742V70.3541H43.699V62.4902H42.6944L38.8971 68.2477C38.7967 68.3982 38.7063 68.5486 38.6209 68.6991L38.3898 69.1103H38.3295C38.3295 68.9599 38.3295 68.7894 38.3295 68.6088C38.3295 68.4283 38.3295 68.2527 38.3295 68.1073V62.4902H37.4053V70.3692ZM40.4994 60.4289C40.1289 60.4352 39.7698 60.3008 39.4948 60.0528C39.1842 59.7505 38.9664 59.366 38.867 58.9444L38.1437 59.3657C38.2891 59.8918 38.5924 60.3608 39.0126 60.7098C39.4387 61.0551 39.9708 61.2436 40.5195 61.2436C41.0683 61.2436 41.6003 61.0551 42.0264 60.7098C42.446 60.3624 42.7493 59.8951 42.8953 59.3707L42.1771 58.9645C42.0697 59.3771 41.8528 59.7531 41.5492 60.0528C41.2603 60.3076 40.8846 60.4422 40.4994 60.4289ZM50.6306 62.4902H49.6913V70.3692H50.6306V62.4902ZM50.1584 65.9658V66.7431H52.1675L55.7187 62.4902H54.6137L51.7356 65.9658H50.1584ZM54.8096 70.3692H55.9849L52.3333 66.0761L51.7004 66.703L54.8096 70.3692ZM56.4671 66.5475C56.4214 67.6106 56.7803 68.6516 57.4717 69.4614C57.8221 69.8199 58.2409 70.1048 58.7032 70.2993C59.1656 70.4938 59.6622 70.594 60.164 70.594C60.6657 70.594 61.1623 70.4938 61.6247 70.2993C62.0871 70.1048 62.5058 69.8199 62.8562 69.4614C63.5476 68.6516 63.9065 67.6106 63.8608 66.5475V66.3068C63.9055 65.2438 63.5467 64.2032 62.8562 63.3929C62.5051 63.0357 62.0861 62.7519 61.6239 62.5581C61.1616 62.3644 60.6653 62.2646 60.164 62.2646C59.6626 62.2646 59.1663 62.3644 58.7041 62.5581C58.2418 62.7519 57.8229 63.0357 57.4717 63.3929C56.7812 64.2032 56.4224 65.2438 56.4671 66.3068V66.5475ZM57.4165 66.3068C57.3857 65.4817 57.6314 64.6698 58.1146 63.9998C58.357 63.6922 58.6707 63.4479 59.0285 63.288C59.3863 63.1282 59.7777 63.0575 60.169 63.082C60.5589 63.057 60.9489 63.1275 61.3053 63.2875C61.6616 63.4474 61.9733 63.692 62.2133 63.9998C62.6987 64.6688 62.9446 65.4814 62.9115 66.3068V66.5475C62.9438 67.3744 62.698 68.1883 62.2133 68.8596C61.9733 69.1674 61.6616 69.4119 61.3053 69.5719C60.9489 69.7318 60.5589 69.8024 60.169 69.7774C59.7777 69.8019 59.3863 69.7312 59.0285 69.5713C58.6707 69.4114 58.357 69.1672 58.1146 68.8596C57.632 68.1873 57.3865 67.3741 57.4165 66.5475V66.3068ZM65.654 70.3692H66.533V64.6066C66.533 64.416 66.533 64.2405 66.533 64.1051C66.533 63.9697 66.533 63.7942 66.4978 63.6587H66.5581C66.5935 63.812 66.6388 63.9627 66.6937 64.1101C66.754 64.2806 66.8243 64.4512 66.9047 64.6116L69.4914 70.3742H70.3202L72.907 64.6217C72.9877 64.4488 73.0581 64.2712 73.118 64.09C73.1749 63.9195 73.2201 63.7691 73.2536 63.6387H73.3339C73.3339 63.7691 73.3339 63.9145 73.3038 64.08C73.2737 64.2455 73.3038 64.4261 73.3038 64.6267V70.3742H74.2129V62.4902H73.0125L70.3202 68.4283C70.2348 68.6138 70.1645 68.7793 70.1042 68.9298C70.044 69.0802 69.9987 69.2106 69.9636 69.326H69.9033C69.8638 69.1924 69.8151 69.0617 69.7577 68.9348L69.5366 68.4333L66.8896 62.5052H65.659L65.654 70.3692ZM76.4782 62.4902V70.3692H77.4175V63.2676H81.6468V70.3692H82.5861V62.4902H76.4782ZM86.4738 63.2676H89.9546V70.3692H90.914V62.4902H85.6299L85.424 66.8234C85.4053 67.5334 85.3212 68.2402 85.1728 68.9348C85.0523 69.4363 84.7861 69.657 84.3692 69.657C84.2679 69.6588 84.1667 69.6487 84.0678 69.6269L83.8066 69.5517V70.3742C83.9056 70.421 84.0103 70.4548 84.118 70.4745C84.2453 70.5005 84.375 70.5122 84.5048 70.5096C84.7933 70.5314 85.0809 70.4584 85.3239 70.3017C85.567 70.1451 85.752 69.9134 85.8509 69.642C86.1364 68.7603 86.2855 67.8402 86.2929 66.9136L86.4738 63.2676ZM92.682 66.5475C92.6377 67.6053 92.9845 68.6424 93.6565 69.4614C94.0103 69.8473 94.4461 70.1493 94.9319 70.3455C95.4177 70.5416 95.9412 70.6268 96.4643 70.5948C97.0297 70.6131 97.5917 70.5009 98.1065 70.2669C98.6214 70.033 99.0753 69.6835 99.4328 69.2458L98.8049 68.7091C98.5417 69.031 98.2152 69.2956 97.8456 69.4865C97.4163 69.697 96.9423 69.8002 96.4643 69.7874C96.0583 69.8199 95.6504 69.7534 95.2759 69.5935C94.9014 69.4336 94.5714 69.1852 94.3145 68.8696C93.8375 68.1951 93.5957 67.3827 93.6263 66.5576V66.3168C93.5941 65.4959 93.8246 64.6861 94.2843 64.0048C94.502 63.7032 94.7925 63.4613 95.1288 63.3017C95.4651 63.1422 95.8364 63.07 96.2081 63.092C96.5369 63.0648 96.8676 63.1131 97.1749 63.233C97.4822 63.353 97.758 63.5415 97.9812 63.7841C98.4073 64.3626 98.6121 65.0741 98.5588 65.7902V65.8303H93.2145V66.6177H99.493V66.2015C99.5569 65.1714 99.2584 64.1514 98.6492 63.3177C98.3479 62.9758 97.9721 62.7076 97.5506 62.5337C97.1291 62.3598 96.6732 62.2849 96.2181 62.3147C95.7327 62.2965 95.2494 62.3887 94.8048 62.5841C94.3602 62.7796 93.9659 63.0733 93.6515 63.4431C92.9821 64.2632 92.6372 65.2999 92.682 66.3569V66.5475ZM102.025 62.4902H101.085V70.3692H102.025V62.4902ZM101.552 65.9658V66.7431H103.562L107.113 62.4902H106.008L103.12 65.9658H101.552ZM106.204 70.3692H107.379L103.727 66.0761L103.094 66.703L106.204 70.3692ZM107.861 66.5475C107.816 67.6038 108.159 68.6401 108.826 69.4614C109.153 69.8372 109.561 70.1344 110.019 70.3307C110.478 70.5269 110.974 70.6172 111.473 70.5948C111.903 70.6262 112.335 70.567 112.741 70.421C113.146 70.275 113.517 70.0454 113.828 69.7473C114.336 69.2402 114.623 68.5535 114.627 67.8364V67.7963H113.718V67.8364C113.728 68.3465 113.536 68.84 113.185 69.2106C112.955 69.4191 112.684 69.5776 112.389 69.676C112.094 69.7745 111.782 69.8107 111.473 69.7824C111.087 69.811 110.701 69.7418 110.35 69.5814C109.999 69.4209 109.694 69.1743 109.463 68.8646C109.002 68.182 108.77 67.3706 108.8 66.5475V66.3068C108.771 65.4869 108.999 64.6783 109.453 63.9948C109.683 63.6841 109.988 63.4366 110.339 63.2752C110.69 63.1138 111.077 63.0439 111.463 63.072C111.772 63.0437 112.084 63.0799 112.379 63.1783C112.674 63.2767 112.945 63.4352 113.175 63.6437C113.526 64.0144 113.718 64.5078 113.708 65.0179V65.058H114.617V65.0179C114.614 64.3021 114.327 63.6167 113.818 63.1121C113.508 62.8129 113.137 62.5827 112.731 62.4366C112.325 62.2905 111.893 62.2319 111.463 62.2645C110.965 62.2411 110.468 62.3305 110.01 62.5259C109.551 62.7213 109.143 63.0177 108.815 63.3929C108.15 64.2147 107.807 65.2507 107.851 66.3068L107.861 66.5475ZM120.047 70.3692H121.051L124.849 64.6066C124.954 64.4512 125.044 64.3007 125.13 64.1502C125.215 63.9998 125.291 63.8644 125.356 63.739H125.426C125.426 63.8894 125.426 64.0566 125.426 64.2405C125.426 64.4261 125.426 64.5966 125.426 64.742V70.3541H126.36V62.4902H125.356L121.554 68.2477C121.453 68.3982 121.363 68.5486 121.277 68.6991L121.046 69.1103H120.986C120.986 68.9599 120.986 68.7894 120.986 68.6088C120.986 68.4283 120.986 68.2527 120.986 68.1073V62.4902H120.047V70.3692ZM132.368 62.4902V70.3692H133.307V63.2676H137.536V70.3692H138.476V62.4902H132.368ZM140.329 68.1424C140.304 68.4814 140.362 68.8215 140.497 69.1333C140.633 69.4452 140.842 69.7195 141.108 69.9328C141.66 70.3358 142.332 70.5424 143.016 70.5196C143.634 70.5436 144.246 70.396 144.784 70.0933C145.182 69.8684 145.525 69.5584 145.789 69.1856C145.809 69.4065 145.851 69.6248 145.914 69.8375C145.963 70.0226 146.034 70.201 146.125 70.3692H147.019V70.2488C146.912 70.0048 146.835 69.7489 146.788 69.4865C146.731 69.184 146.702 68.8766 146.703 68.5687V64.9727C146.729 64.6044 146.675 64.2348 146.546 63.8888C146.417 63.5428 146.215 63.2284 145.955 62.9666C145.362 62.4786 144.606 62.2347 143.84 62.2846C143.053 62.237 142.276 62.4698 141.645 62.9416C141.388 63.1367 141.18 63.3886 141.037 63.6775C140.894 63.9664 140.82 64.2844 140.821 64.6066V64.6467H141.745V64.6066C141.743 64.4006 141.784 64.1963 141.864 64.0065C141.945 63.8167 142.063 63.6454 142.213 63.5033C142.66 63.1589 143.222 62.9976 143.785 63.0519C144.064 63.0206 144.348 63.052 144.613 63.144C144.879 63.236 145.121 63.3862 145.322 63.5835C145.628 63.9802 145.783 64.4726 145.759 64.9727V65.7H143.664C142.817 65.6649 141.979 65.8889 141.263 66.3419C140.967 66.5378 140.727 66.8062 140.564 67.1213C140.401 67.4365 140.322 67.788 140.334 68.1424H140.329ZM141.268 68.1073C141.26 67.8594 141.317 67.6137 141.432 67.394C141.548 67.1744 141.718 66.9882 141.926 66.8535C142.505 66.5125 143.174 66.3535 143.845 66.3971H145.769V67.7462C145.752 68.0147 145.674 68.2758 145.542 68.5103C145.41 68.7447 145.226 68.9464 145.005 69.1003C144.515 69.5153 143.89 69.7397 143.247 69.7322C142.712 69.7757 142.179 69.6301 141.74 69.321C141.577 69.1664 141.45 68.9772 141.369 68.7671C141.288 68.5571 141.255 68.3316 141.273 68.1073H141.268ZM148.988 73.4836H149.923V69.3661C150.22 69.717 150.59 69.9994 151.008 70.1936C151.499 70.4219 152.038 70.5335 152.58 70.5196C153.045 70.5386 153.508 70.4465 153.931 70.2512C154.354 70.0558 154.724 69.7627 155.011 69.3962C155.62 68.5741 155.932 67.5697 155.895 66.5475V66.3068C155.935 65.2858 155.623 64.2821 155.011 63.4631C154.725 63.0957 154.355 62.8019 153.932 62.6065C153.509 62.411 153.045 62.3195 152.58 62.3397C152.02 62.3269 151.465 62.4545 150.967 62.7109C150.546 62.9159 150.178 63.2164 149.893 63.5885L149.862 62.4902H149.009L148.988 73.4836ZM149.923 68.2778V64.5765C150.141 64.1728 150.455 63.8284 150.837 63.5735C151.282 63.2761 151.808 63.1237 152.344 63.1372C152.72 63.1064 153.099 63.1718 153.443 63.3271C153.787 63.4823 154.087 63.7224 154.313 64.0249C154.75 64.6979 154.968 65.49 154.936 66.2917V66.5325C154.968 67.3343 154.75 68.1263 154.313 68.7994C154.088 69.1036 153.789 69.345 153.445 69.5005C153.1 69.656 152.721 69.7202 152.344 69.6871C151.808 69.7006 151.282 69.5482 150.837 69.2508C150.459 69.0049 150.147 68.671 149.928 68.2778H149.923ZM158.587 62.4902H157.653V70.3692H158.587V62.4902ZM158.115 65.9658V66.7431H160.124L163.67 62.4902H162.57L159.682 65.9658H158.115ZM162.766 70.3692H163.947L160.29 66.0761L159.667 66.703L162.766 70.3692ZM7.36353 49.9069C8.78498 49.9425 10.202 49.7338 11.5526 49.29C12.5822 48.9548 13.4927 48.3296 14.1745 47.4895C14.7886 46.6674 15.104 45.6609 15.0686 44.6358C15.1014 44.0487 15.0066 43.4615 14.7907 42.9143C14.5748 42.3672 14.243 41.8732 13.8179 41.4662C12.9774 40.7139 11.7669 40.2659 10.1864 40.1221V39.9867C10.9 39.8353 11.5751 39.5401 12.1704 39.1191C12.7228 38.7299 13.1852 38.2271 13.5266 37.6446C13.8603 37.0833 14.034 36.4416 14.0289 35.7889C14.0657 34.9103 13.8056 34.0448 13.2905 33.3314C12.7107 32.632 11.9281 32.1292 11.0503 31.8921C9.79796 31.5471 8.50153 31.3882 7.2028 31.4206H0.502287V32.5992L2.00915 32.7898C2.26854 32.8014 2.51336 32.9128 2.69226 33.1007C2.82863 33.3829 2.88756 33.6962 2.86304 34.0085V47.1736C2.88721 47.5158 2.83222 47.859 2.70231 48.1766C2.62664 48.2817 2.52815 48.3683 2.41419 48.43C2.30024 48.4917 2.17379 48.5268 2.04431 48.5327L0.537447 48.7433V49.8969L7.36353 49.9069ZM6.06261 39.6657C5.8416 39.6657 5.64571 39.6657 5.46991 39.6256V32.7095H6.97677C7.79554 32.6842 8.61304 32.7909 9.39779 33.0255C9.95775 33.1905 10.4426 33.5452 10.769 34.0286C11.0897 34.5819 11.2448 35.2155 11.2161 35.8541C11.2369 36.5817 11.0543 37.3007 10.6887 37.9304C10.3428 38.5048 9.82927 38.9598 9.21697 39.2344C8.48398 39.5451 7.69238 39.694 6.8964 39.6707C6.56154 39.6774 6.28361 39.6757 6.06261 39.6657ZM6.2585 48.5277C5.92699 48.5026 5.66078 48.4725 5.46991 48.4374V41.0449C6.11608 40.9623 6.76745 40.9271 7.41878 40.9396C8.32594 40.9132 9.23062 41.0473 10.091 41.3358C10.7467 41.5563 11.3149 41.9797 11.7133 42.5445C12.1005 43.157 12.2931 43.872 12.2659 44.5957C12.2922 45.3672 12.0952 46.1299 11.6983 46.7924C11.3036 47.4059 10.7254 47.8797 10.0457 48.1465C9.17353 48.468 8.24768 48.6195 7.31832 48.5929C6.94663 48.5678 6.59503 48.5528 6.2585 48.5277ZM27.3043 49.3703C28.3001 48.7487 29.0954 47.8537 29.5948 46.7924C30.1606 45.569 30.4389 44.2327 30.4085 42.8855C30.4366 41.6542 30.1715 40.4337 29.6349 39.3247C29.1622 38.3522 28.4104 37.5421 27.4751 36.9976C26.4728 36.4328 25.3357 36.1503 24.1851 36.1801C22.9297 36.1522 21.6896 36.4604 20.5938 37.0728C19.5732 37.669 18.7546 38.5562 18.2431 39.6206C17.6703 40.8507 17.3901 42.1964 17.4243 43.5525C17.3948 44.7862 17.6618 46.0089 18.2029 47.1184C18.6967 48.1001 19.4711 48.9134 20.428 49.4555C21.4672 50.0299 22.641 50.3173 23.8285 50.288C25.0503 50.3129 26.2546 49.9949 27.3043 49.3703ZM22.0102 48.0663C21.3494 47.5295 20.8576 46.8138 20.5938 46.005C20.2351 44.9599 20.0651 43.8596 20.0915 42.7551C20.0632 41.7903 20.2113 40.8283 20.5285 39.9165C20.7615 39.2327 21.1978 38.6361 21.7792 38.2063C22.3559 37.8053 23.0455 37.598 23.7481 37.6145C24.3246 37.6058 24.8941 37.7402 25.4057 38.0057C25.9115 38.2835 26.3411 38.6814 26.6564 39.1642C27.025 39.733 27.2934 40.3606 27.45 41.0198C27.6444 41.8413 27.7372 42.6835 27.7263 43.5275C27.7508 44.5082 27.6116 45.4862 27.3144 46.4213C27.0998 47.1149 26.6837 47.7294 26.1189 48.1867C25.5584 48.5936 24.8778 48.8019 24.1851 48.7785C23.4001 48.795 22.6329 48.5438 22.0102 48.0663ZM40.7757 49.6511C41.5386 49.33 42.2012 48.8105 42.6944 48.1465C43.0978 47.5825 43.3187 46.9087 43.3273 46.2157C43.377 45.5008 43.1403 44.7954 42.6693 44.2547C42.2165 43.8007 41.6543 43.4709 41.0369 43.2968C40.391 43.1033 39.7285 42.9706 39.0579 42.9006V42.8504C39.7604 42.7695 40.4418 42.5586 41.067 42.2285C41.5934 41.9561 42.0412 41.5539 42.3679 41.06C42.6761 40.5929 42.8371 40.0444 42.83 39.4852C42.8512 38.8357 42.657 38.1975 42.2775 37.6696C41.8823 37.1595 41.3463 36.776 40.7355 36.5663C40.0054 36.3075 39.2347 36.1818 38.4601 36.1952C37.7539 36.1807 37.0514 36.3015 36.3907 36.5512C35.8778 36.7404 35.4081 37.0303 35.0094 37.4038L34.6578 36.2052H33.2816L33.598 41.0449H34.7583C34.7654 40.383 34.9019 39.7288 35.1601 39.1191C35.3797 38.6089 35.7448 38.1746 36.2099 37.8703C36.7166 37.5598 37.3034 37.4046 37.8976 37.4239C38.2214 37.392 38.5482 37.4302 38.8559 37.5358C39.1636 37.6414 39.4449 37.8119 39.6807 38.0358C40.0731 38.5294 40.265 39.1525 40.2181 39.7811C40.2248 40.4517 39.971 41.0988 39.5099 41.5866C39.2418 41.8547 38.9193 42.0623 38.564 42.1955C38.2088 42.3288 37.8291 42.3845 37.4505 42.3589H35.6624V43.703H37.6715C38.2392 43.6838 38.8045 43.7865 39.3291 44.0039C39.743 44.1819 40.0933 44.4809 40.3337 44.8615C40.5709 45.2671 40.6892 45.7311 40.6752 46.2006C40.6953 46.7631 40.5332 47.3171 40.2131 47.7804C39.9179 48.1903 39.5169 48.5127 39.0528 48.7133C38.5918 48.9137 38.094 49.0161 37.5912 49.0142C37.1418 49.0182 36.6939 48.9608 36.2601 48.8437C35.8661 48.7247 35.4945 48.5417 35.1601 48.302C35.4263 47.8506 35.6172 47.4945 35.7428 47.2388C35.8514 47.0306 35.9131 46.8012 35.9236 46.5667C35.9343 46.2472 35.827 45.9348 35.6222 45.689C35.4679 45.5514 35.2859 45.4483 35.0883 45.3869C34.8907 45.3255 34.6823 45.3071 34.477 45.333C34.2487 45.3125 34.0187 45.3444 33.8046 45.4261C33.5905 45.5078 33.3979 45.6372 33.2414 45.8044C32.9725 46.1296 32.8315 46.5414 32.8446 46.9629C32.8379 47.5945 33.0529 48.2084 33.4523 48.6982C33.8888 49.2303 34.4617 49.6341 35.1099 49.8668C35.8839 50.1545 36.7052 50.294 37.5309 50.278C38.6453 50.3076 39.7528 50.0937 40.7757 49.6511ZM58.9082 53.8338L58.9886 48.5478H56.879V38.8884C56.8692 38.675 56.9142 38.4626 57.0096 38.2715C57.0878 38.1795 57.1846 38.1051 57.2937 38.0532C57.4028 38.0013 57.5217 37.9731 57.6425 37.9706L58.9334 37.7348V36.5512H46.5269L46.2908 37.7048L47.6369 37.9154C47.7683 37.9285 47.8949 37.972 48.0065 38.0426C48.1181 38.1131 48.2117 38.2086 48.2798 38.3216C48.3968 38.6564 48.4463 39.0109 48.4255 39.3648C48.4361 40.6592 48.3791 41.9532 48.2547 43.2416C48.1608 44.2043 47.9929 45.1583 47.7524 46.0953C47.5284 46.936 47.2516 47.7618 46.9237 48.5678H44.9145V53.9843H46.2104L46.5018 52.1938C46.5596 51.7849 46.6658 51.3842 46.8182 51.0002C46.9494 50.6669 47.1856 50.3852 47.4913 50.1978C47.8674 49.9911 48.2928 49.8906 48.7219 49.9069H54.9352C55.4083 49.8814 55.8801 49.9763 56.3064 50.1827C56.6193 50.3643 56.8604 50.6475 56.9895 50.9852C57.1446 51.3925 57.2508 51.8167 57.3059 52.249L57.5973 54.0645L58.9082 53.8338ZM49.0182 47.2638C49.1488 46.8877 49.2643 46.5166 49.3598 46.1454C49.4552 45.7743 49.5406 45.3831 49.6109 44.9618C49.6812 44.5406 49.7767 44.024 49.847 43.5174C49.9173 43.0109 49.9726 42.4642 50.0077 41.8875C50.0429 41.3107 50.068 40.6888 50.0831 40.0318C50.0981 39.3748 50.1132 38.6727 50.1132 37.9154H54.4329V48.5678H48.531C48.7219 48.0763 48.8876 47.645 49.0182 47.2638ZM64.5891 55.7196C65.0407 55.551 65.4527 55.2915 65.7996 54.9573C66.2305 54.5387 66.5993 54.0608 66.8946 53.5379C67.3043 52.8173 67.6651 52.07 67.9745 51.3011L73.0326 39.3096C73.1781 38.924 73.3776 38.561 73.6253 38.2314C73.8024 38.0584 74.0255 37.9401 74.2682 37.8903L75.2175 37.6797V36.5512H69.8882L69.6522 37.6546L70.7873 37.9154C71.1892 38.0057 71.4353 38.1561 71.5207 38.3768C71.5996 38.7011 71.553 39.0433 71.3901 39.3347L68.4165 46.7272H68.3111L65.2973 39.1542C65.1014 38.6526 65.0613 38.3266 65.1667 38.1511C65.2398 38.0535 65.3345 37.9742 65.4435 37.9194C65.5524 37.8646 65.6726 37.8357 65.7946 37.8351L67.0604 37.6546V36.5512H60.8019L60.5407 37.7348L61.4599 37.9405C61.7051 37.9809 61.9315 38.0966 62.1078 38.2715C62.32 38.5815 62.489 38.919 62.6101 39.2745L67.0353 49.8066L66.4024 51.2811C66.0979 52.0156 65.742 52.7278 65.3375 53.4126C65.1204 53.8155 64.8084 54.1598 64.4284 54.4156C64.1215 54.5838 63.7733 54.662 63.4238 54.6413C63.474 54.2351 63.5142 53.9141 63.5393 53.6683C63.5608 53.4851 63.5608 53.2999 63.5393 53.1167C63.5238 52.9748 63.4781 52.8379 63.4053 52.7151C63.3326 52.5923 63.2344 52.4864 63.1174 52.4045C62.828 52.2176 62.4871 52.1264 62.143 52.1437C61.9172 52.1371 61.6925 52.1783 61.4838 52.2648C61.2752 52.3512 61.0872 52.4809 60.9325 52.6452C60.7711 52.8085 60.6437 53.0019 60.5575 53.2145C60.4713 53.4271 60.428 53.6546 60.4302 53.884C60.4193 54.1801 60.4797 54.4745 60.6064 54.7424C60.7332 55.0104 60.9225 55.244 61.1585 55.4237C61.7209 55.8239 62.4026 56.0219 63.0923 55.9854C63.6101 55.9916 64.1245 55.9015 64.6092 55.7196H64.5891ZM99.2469 49.9069V48.8035L97.9812 48.5427C97.8569 48.534 97.736 48.4986 97.6268 48.4388C97.5176 48.3791 97.4226 48.2965 97.3483 48.1967C97.221 47.9084 97.1675 47.593 97.1926 47.2789V39.1542C97.1715 38.8458 97.216 38.5364 97.3232 38.2464C97.3845 38.1534 97.466 38.0753 97.5616 38.018C97.6573 37.9607 97.7646 37.9256 97.8757 37.9154L99.1414 37.6797V36.5512H92.9231L92.6871 37.6546L94.0583 37.9405C94.1669 37.9491 94.2724 37.9809 94.3677 38.0337C94.463 38.0865 94.5459 38.159 94.6108 38.2464C94.7206 38.5077 94.7654 38.7916 94.7414 39.0739V48.5427H89.0354V39.1542C89.0128 38.8453 89.0591 38.5352 89.1711 38.2464C89.2318 38.1529 89.3132 38.0744 89.409 38.0171C89.5047 37.9597 89.6123 37.9249 89.7236 37.9154L90.9843 37.6797V36.5512H84.771L84.5349 37.6546L85.9012 37.9405C86.0076 37.9523 86.1105 37.9855 86.2037 38.0381C86.2969 38.0906 86.3786 38.1615 86.4436 38.2464C86.5627 38.5051 86.6128 38.7902 86.5893 39.0739V48.5427H80.8682V39.1792C80.8437 38.8625 80.8883 38.5443 80.9988 38.2464C81.0557 38.1547 81.1327 38.0773 81.2241 38.0199C81.3155 37.9625 81.4189 37.9268 81.5262 37.9154L82.8171 37.6797V36.5512H76.5787L76.3477 37.6797L77.7189 37.9405C77.8274 37.9498 77.9327 37.9818 78.0279 38.0345C78.1231 38.0873 78.2061 38.1595 78.2714 38.2464C78.38 38.5168 78.4247 38.8086 78.402 39.099V47.4895C78.423 47.7422 78.3632 47.9951 78.2312 48.2117C78.1518 48.2964 78.0562 48.3644 77.9501 48.4118C77.8441 48.4591 77.7296 48.4849 77.6134 48.4876L76.2974 48.7534V49.9069H99.2469ZM108.288 49.9069V48.8035L106.892 48.5126C106.787 48.504 106.686 48.4726 106.595 48.4206C106.503 48.3686 106.425 48.2973 106.364 48.2117C106.255 47.9503 106.21 47.6665 106.234 47.3842V43.8083H112.658V47.319C112.68 47.6356 112.635 47.9534 112.527 48.2519C112.463 48.3471 112.376 48.4249 112.275 48.4783C112.173 48.5317 112.06 48.559 111.945 48.5578L110.709 48.7935V49.9219H117.164V48.8186L115.767 48.5277C115.668 48.5225 115.571 48.495 115.484 48.4473C115.397 48.3995 115.322 48.3327 115.265 48.2519C115.155 47.9907 115.11 47.7067 115.134 47.4243V39.1542C115.111 38.8457 115.155 38.5357 115.265 38.2464C115.326 38.1529 115.407 38.0744 115.503 38.0171C115.599 37.9597 115.706 37.9249 115.817 37.9154L117.083 37.6797V36.5512H110.87L110.634 37.6546L112.005 37.9405C112.114 37.9498 112.219 37.9818 112.314 38.0345C112.409 38.0873 112.492 38.1595 112.558 38.2464C112.665 38.5084 112.709 38.7917 112.688 39.0739V42.4392H106.264V39.1792C106.239 38.8625 106.284 38.5443 106.394 38.2464C106.455 38.1529 106.537 38.0744 106.632 38.0171C106.728 37.9597 106.836 37.9249 106.947 37.9154L108.213 37.6797V36.5512H101.994L101.758 37.6797L103.155 37.9405C103.255 37.9555 103.351 37.9903 103.437 38.0428C103.523 38.0954 103.598 38.1646 103.657 38.2464C103.766 38.5168 103.81 38.8086 103.788 39.099V47.2789C103.81 47.5955 103.765 47.9132 103.657 48.2117C103.596 48.3048 103.514 48.3828 103.419 48.4401C103.323 48.4974 103.216 48.5325 103.104 48.5427L101.839 48.7785V49.9069H108.288ZM125.09 50.0122C125.58 49.8385 126.035 49.5768 126.431 49.2399C126.863 48.8611 127.229 48.4117 127.511 47.9108C127.546 48.5725 127.812 49.2008 128.264 49.6862C128.748 50.1055 129.378 50.3181 130.017 50.278C130.454 50.266 130.884 50.1617 131.278 49.9721C131.709 49.7893 132.103 49.5273 132.438 49.1997L132.202 48.302C131.956 48.3722 131.735 48.4274 131.544 48.4625C131.352 48.4966 131.157 48.5134 130.961 48.5126C130.642 48.5356 130.327 48.433 130.082 48.2268C129.974 48.1114 129.89 47.9746 129.837 47.8252C129.785 47.6758 129.764 47.5171 129.776 47.3591V40.9145C129.807 39.9987 129.623 39.0883 129.238 38.2564C128.886 37.5667 128.311 37.0155 127.606 36.6917C125.925 36.0215 124.052 36.009 122.362 36.6566C121.672 36.9321 121.052 37.3589 120.549 37.9054C120.106 38.3672 119.856 38.9809 119.851 39.6206C119.841 39.8064 119.871 39.9922 119.94 40.1654C120.008 40.3385 120.113 40.4948 120.248 40.6236C120.559 40.8747 120.953 41 121.353 40.9747C121.718 40.9864 122.075 40.8652 122.357 40.6337C122.485 40.534 122.589 40.4061 122.659 40.26C122.73 40.1138 122.766 39.9533 122.764 39.7911C122.76 39.6796 122.738 39.5695 122.699 39.4651C122.635 39.2914 122.556 39.1236 122.463 38.9636C122.345 38.763 122.2 38.5222 122.026 38.2414C122.317 37.9632 122.672 37.7616 123.06 37.6546C123.532 37.4976 124.025 37.418 124.522 37.4189C125.071 37.3958 125.618 37.5077 126.114 37.7449C126.526 37.9645 126.851 38.3185 127.033 38.7479C127.255 39.3076 127.359 39.9067 127.34 40.5083V42.4542C125.84 42.4931 124.348 42.6915 122.89 43.046C121.974 43.243 121.142 43.7156 120.504 44.4001C119.999 45.0647 119.744 45.8843 119.78 46.7172C119.758 47.1931 119.836 47.6684 120.009 48.1124C120.182 48.5564 120.447 48.9592 120.785 49.295C121.144 49.6253 121.565 49.8814 122.024 50.0484C122.482 50.2154 122.969 50.29 123.457 50.268C124.022 50.2808 124.585 50.1942 125.12 50.0122H125.09ZM122.905 48.0061C122.704 47.8029 122.549 47.56 122.448 47.293C122.348 47.0261 122.305 46.741 122.322 46.4564C122.298 45.8926 122.492 45.3413 122.864 44.9167C123.331 44.4558 123.923 44.1434 124.567 44.019C125.49 43.8033 126.437 43.7056 127.385 43.7281V45.7342C127.39 46.2333 127.258 46.7243 127.003 47.1535C126.75 47.5791 126.389 47.9301 125.955 48.1706C125.522 48.4111 125.033 48.5326 124.537 48.5227C124.248 48.5445 123.957 48.5083 123.682 48.4161C123.406 48.3239 123.152 48.1777 122.935 47.986L122.905 48.0061ZM136.652 49.942C137.066 49.6964 137.411 49.3516 137.657 48.9389C137.957 48.4545 138.171 47.9217 138.29 47.3642C138.44 46.7283 138.633 46.1033 138.867 45.4935C138.997 45.1449 139.232 44.8452 139.54 44.6358C139.87 44.4539 140.231 44.338 140.605 44.2948C140.746 44.2948 140.942 44.2647 141.198 44.2547H141.987H142.65V47.329C142.671 47.6457 142.627 47.9634 142.519 48.2619C142.456 48.3567 142.37 48.4343 142.269 48.4877C142.168 48.5411 142.055 48.5687 141.941 48.5678L140.701 48.8035V49.932H147.17V48.8286L145.774 48.5377C145.674 48.5318 145.576 48.5029 145.489 48.4533C145.402 48.4037 145.328 48.3348 145.271 48.2519C145.165 47.9933 145.12 47.7133 145.141 47.4344V39.1542C145.117 38.8457 145.162 38.5357 145.271 38.2464C145.332 38.1529 145.414 38.0744 145.509 38.0171C145.605 37.9597 145.713 37.9249 145.824 37.9154L147.09 37.6797V36.5512H140.344C139.388 36.5315 138.436 36.6722 137.526 36.9675C136.816 37.1943 136.185 37.6188 135.708 38.1912C135.271 38.7666 135.047 39.4756 135.075 40.1973C135.055 40.8479 135.209 41.4921 135.522 42.063C135.843 42.5931 136.328 43.0049 136.903 43.2366C137.657 43.5387 138.454 43.7198 139.264 43.7732L139.159 43.8033C138.693 43.8814 138.243 44.0356 137.828 44.2597C137.446 44.4729 137.105 44.7533 136.823 45.0872C136.529 45.4472 136.292 45.8497 136.12 46.2809C135.927 46.7933 135.707 47.2955 135.462 47.7854C135.354 48.0401 135.181 48.2616 134.96 48.4274C134.737 48.5333 134.492 48.5833 134.246 48.5728C134.126 48.5724 134.007 48.559 133.89 48.5327C133.757 48.5 133.629 48.4512 133.508 48.3873L133.217 49.2549C133.531 49.5722 133.896 49.8349 134.297 50.0323C134.663 50.187 135.059 50.2622 135.457 50.2529C135.887 50.2492 136.309 50.1353 136.682 49.9219L136.652 49.942ZM138.455 42.3539C138.173 42.1064 137.952 41.7957 137.813 41.4471C137.673 41.0984 137.618 40.7218 137.652 40.3478C137.636 39.8472 137.765 39.3528 138.024 38.9235C138.276 38.5315 138.642 38.2255 139.073 38.0458C139.582 37.8353 140.13 37.7328 140.681 37.7449C141.153 37.7449 141.534 37.7449 141.816 37.7699C142.097 37.795 142.368 37.8151 142.629 37.8452V42.9658H140.947C140.08 43.0265 139.216 42.8048 138.486 42.3338L138.455 42.3539ZM162.354 49.9269V48.7785L160.119 48.4625C159.803 48.4073 159.617 48.302 159.552 48.1315C159.479 47.8705 159.448 47.5996 159.461 47.329V37.8H161.144C161.705 37.7758 162.267 37.8435 162.806 38.0006C163.17 38.1283 163.474 38.3854 163.66 38.7229C163.919 39.2042 164.134 39.7078 164.303 40.2274L164.755 41.5665L165.991 41.2756L165.308 36.5462H155.172L154.936 37.6997L156.251 37.9655C156.499 37.991 156.728 38.1072 156.894 38.2915C157.004 38.498 157.054 38.7305 157.04 38.9636V47.2538C157.052 47.5501 157.016 47.8464 156.935 48.1315C156.864 48.3371 156.673 48.4625 156.357 48.5126L155.091 48.7534V49.9069L162.354 49.9269ZM173.339 50.0323C173.83 49.8586 174.284 49.5968 174.68 49.2599C175.129 48.8785 175.508 48.422 175.801 47.9108C175.836 48.5725 176.102 49.2008 176.554 49.6862C177.038 50.1055 177.667 50.3181 178.307 50.278C178.744 50.266 179.174 50.1617 179.568 49.9721C179.999 49.7893 180.393 49.5273 180.728 49.1997L180.492 48.302C180.246 48.3722 180.025 48.4274 179.834 48.4625C179.642 48.4966 179.447 48.5134 179.251 48.5126C178.932 48.5356 178.617 48.433 178.372 48.2268C178.264 48.1114 178.18 47.9746 178.127 47.8252C178.075 47.6758 178.054 47.5171 178.066 47.3591V40.9145C178.097 39.9987 177.913 39.0883 177.528 38.2564C177.176 37.5667 176.601 37.0155 175.896 36.6917C174.215 36.0215 172.342 36.009 170.652 36.6566C169.951 36.9281 169.321 37.3551 168.809 37.9054C168.362 38.3657 168.108 38.9795 168.1 39.6206C168.09 39.8064 168.121 39.9922 168.189 40.1654C168.258 40.3385 168.363 40.4948 168.497 40.6236C168.809 40.8747 169.203 41 169.602 40.9747C169.967 40.9864 170.325 40.8652 170.607 40.6337C170.735 40.534 170.839 40.4061 170.909 40.26C170.98 40.1138 171.015 39.9533 171.014 39.7911C171.01 39.6796 170.988 39.5695 170.948 39.4651C170.884 39.2914 170.805 39.1236 170.712 38.9636C170.598 38.763 170.453 38.5222 170.275 38.2414C170.57 37.9654 170.929 37.7672 171.32 37.6646C171.791 37.5076 172.285 37.428 172.782 37.4289C173.331 37.4058 173.878 37.5178 174.374 37.7549C174.786 37.9746 175.111 38.3285 175.293 38.758C175.515 39.3176 175.619 39.9168 175.6 40.5183V42.4642C174.099 42.5032 172.607 42.7015 171.149 43.056C170.234 43.253 169.401 43.7257 168.763 44.4102C168.259 45.0747 168.003 45.8943 168.04 46.7272C168.018 47.2031 168.096 47.6784 168.269 48.1224C168.442 48.5664 168.706 48.9693 169.045 49.3051C169.404 49.6354 169.825 49.8914 170.283 50.0584C170.742 50.2254 171.229 50.3 171.717 50.278C172.279 50.2864 172.838 50.1964 173.369 50.0122L173.339 50.0323ZM171.154 48.0262C170.954 47.823 170.799 47.5801 170.698 47.3131C170.598 47.0461 170.555 46.7611 170.572 46.4764C170.548 45.9127 170.742 45.3614 171.114 44.9368C171.57 44.4737 172.151 44.1546 172.787 44.019C173.71 43.8033 174.657 43.7056 175.605 43.7281V45.7342C175.61 46.2333 175.478 46.7243 175.223 47.1535C174.975 47.5784 174.619 47.9305 174.191 48.1744C173.764 48.4182 173.279 48.5453 172.787 48.5427C172.496 48.5619 172.204 48.5224 171.929 48.4268C171.654 48.3312 171.401 48.1813 171.185 47.986L171.154 48.0262ZM188.508 49.947C189.666 49.9867 190.822 49.8168 191.919 49.4455C192.668 49.1885 193.317 48.7046 193.777 48.0613C194.169 47.4665 194.371 46.7669 194.355 46.0552C194.418 45.3628 194.207 44.6732 193.767 44.1343C193.329 43.6803 192.772 43.3573 192.16 43.2015C191.46 43.0093 190.741 42.8982 190.015 42.8705V42.8454C190.999 42.7631 191.933 42.3775 192.687 41.742C192.989 41.4702 193.228 41.137 193.389 40.765C193.55 40.393 193.63 39.9907 193.622 39.5855C193.661 38.923 193.439 38.2714 193.004 37.7699C192.53 37.2994 191.933 36.971 191.281 36.8221C190.459 36.6227 189.615 36.5266 188.77 36.5362H182.33L182.094 37.6646L183.491 37.9254C183.603 37.9305 183.712 37.9634 183.809 38.0212C183.905 38.079 183.986 38.1598 184.043 38.2564C184.128 38.5236 184.164 38.804 184.149 39.084V47.2789C184.17 47.5955 184.126 47.9132 184.018 48.2117C183.956 48.3049 183.873 48.3829 183.777 48.4402C183.68 48.4975 183.572 48.5325 183.46 48.5427L182.2 48.7785V49.9069L188.508 49.947ZM186.585 37.9104L187.378 37.8552C187.675 37.8552 187.966 37.8552 188.247 37.8552C188.948 37.8162 189.646 37.9799 190.256 38.3266C190.504 38.5153 190.699 38.7642 190.823 39.0495C190.947 39.3348 190.996 39.6471 190.965 39.9566C190.981 40.555 190.799 41.1421 190.447 41.6267C190.231 41.8725 189.961 42.0645 189.657 42.1873C189.354 42.31 189.026 42.3602 188.699 42.3338H186.615L186.585 37.9104ZM187.665 48.6631C187.298 48.6631 186.936 48.623 186.585 48.5879V43.7231H188.905C189.291 43.6912 189.679 43.736 190.047 43.8548C190.415 43.9736 190.756 44.1641 191.05 44.4152C191.273 44.6271 191.45 44.8825 191.57 45.1654C191.69 45.4484 191.751 45.7529 191.748 46.0602C191.773 46.5918 191.631 47.1178 191.341 47.5648C191.069 47.9601 190.684 48.2642 190.236 48.4374C189.755 48.6214 189.244 48.7149 188.729 48.7133C188.411 48.6698 188.066 48.638 187.695 48.618L187.665 48.6631ZM202.256 50.0573C202.747 49.8826 203.203 49.621 203.602 49.285C204.033 48.9048 204.398 48.4557 204.682 47.956C204.713 48.6175 204.978 49.2466 205.43 49.7314C205.915 50.1497 206.544 50.3622 207.183 50.3232C207.622 50.3118 208.054 50.2076 208.449 50.0172C208.879 49.8332 209.27 49.5713 209.604 49.2449L209.368 48.3471C209.122 48.4174 208.901 48.4725 208.71 48.5076C208.52 48.5415 208.326 48.5583 208.133 48.5578C207.812 48.5804 207.495 48.478 207.249 48.2719C207.142 48.1556 207.06 48.0186 207.008 47.8693C206.956 47.7201 206.935 47.5618 206.947 47.4043V40.9145C206.98 39.9981 206.794 39.0871 206.405 38.2564C206.052 37.5667 205.477 37.0155 204.772 36.6917C203.093 36.0213 201.222 36.0088 199.534 36.6566C198.832 36.9267 198.201 37.3539 197.69 37.9054C197.255 38.37 197.016 38.9843 197.022 39.6206C197.012 39.806 197.042 39.9913 197.11 40.1642C197.178 40.3371 197.281 40.4937 197.414 40.6236C197.725 40.8743 198.12 40.9995 198.519 40.9747C198.884 40.9864 199.241 40.8652 199.524 40.6337C199.701 40.5032 199.83 40.3182 199.892 40.107C199.954 39.8959 199.944 39.6703 199.865 39.4651C199.803 39.2905 199.724 39.1225 199.629 38.9636C199.519 38.763 199.373 38.5222 199.197 38.2414C199.491 37.9663 199.848 37.7682 200.237 37.6646C200.708 37.5076 201.202 37.428 201.698 37.4289C202.248 37.4058 202.795 37.5178 203.291 37.7549C203.703 37.9756 204.029 38.3291 204.215 38.758C204.435 39.3181 204.537 39.9171 204.516 40.5183V42.4642C203.016 42.5032 201.524 42.7015 200.066 43.056C199.151 43.2543 198.319 43.7267 197.68 44.4102C197.176 45.0747 196.92 45.8943 196.957 46.7272C196.935 47.2031 197.013 47.6784 197.186 48.1224C197.359 48.5664 197.623 48.9693 197.961 49.3051C198.321 49.6349 198.742 49.8907 199.2 50.0576C199.659 50.2246 200.146 50.2995 200.634 50.278C201.196 50.2864 201.755 50.1964 202.286 50.0122L202.256 50.0573ZM200.071 48.0512C199.871 47.8478 199.717 47.6047 199.617 47.3377C199.518 47.0707 199.475 46.7858 199.493 46.5015C199.47 45.9388 199.662 45.3883 200.031 44.9618C200.484 44.5177 201.056 44.2131 201.678 44.0842C202.602 43.8691 203.548 43.7714 204.496 43.7933V45.7994C204.504 46.2988 204.372 46.7905 204.114 47.2187C203.862 47.6436 203.501 47.994 203.069 48.2345C202.636 48.475 202.148 48.5969 201.653 48.5879C201.077 48.5991 200.519 48.3829 200.101 47.986L200.071 48.0512ZM217.561 49.9721V48.8687L216.164 48.5778C216.06 48.5692 215.958 48.5378 215.867 48.4858C215.776 48.4338 215.697 48.3625 215.637 48.2769C215.528 48.0155 215.483 47.7317 215.506 47.4494V43.8083H221.961V47.319C221.983 47.6356 221.938 47.9534 221.83 48.2519C221.767 48.3467 221.681 48.4243 221.58 48.4777C221.479 48.5311 221.367 48.5586 221.252 48.5578L220.012 48.7935V49.9219H226.466V48.8186L225.07 48.5277C224.971 48.5225 224.874 48.495 224.787 48.4473C224.7 48.3995 224.625 48.3327 224.568 48.2519C224.457 47.9907 224.413 47.7067 224.437 47.4243V39.1542C224.413 38.8457 224.458 38.5357 224.568 38.2464C224.628 38.1529 224.71 38.0744 224.805 38.0171C224.901 37.9597 225.009 37.9249 225.12 37.9154L226.386 37.6797V36.5512H220.142L219.906 37.6546L221.278 37.9405C221.386 37.9498 221.491 37.9818 221.587 38.0345C221.682 38.0873 221.765 38.1595 221.83 38.2464C221.937 38.5084 221.982 38.7917 221.961 39.0739V42.4392H215.536V39.1792C215.512 38.8625 215.556 38.5443 215.667 38.2464C215.728 38.1529 215.809 38.0744 215.905 38.0171C216.001 37.9597 216.108 37.9249 216.22 37.9154L217.485 37.6797V36.5512H211.267L211.031 37.6797L212.427 37.9405C212.532 37.9522 212.632 37.9855 212.723 38.0382C212.814 38.0908 212.893 38.1617 212.955 38.2464C213.063 38.5168 213.108 38.8086 213.085 39.099V47.2789C213.107 47.5955 213.063 47.9132 212.955 48.2117C212.893 48.3048 212.812 48.3828 212.716 48.4401C212.621 48.4974 212.513 48.5325 212.402 48.5427L211.136 48.7785V49.9069L217.561 49.9721ZM234.493 49.9721C235.75 50.0006 237.005 49.8313 238.21 49.4706C239.08 49.2236 239.852 48.7138 240.42 48.0111C240.935 47.2921 241.195 46.4219 241.158 45.5386C241.175 44.847 240.977 44.1671 240.591 43.5927C240.189 43.0314 239.637 42.5949 238.998 42.3338C238.222 42.0145 237.387 41.8608 236.547 41.8825C235.97 41.8825 235.447 41.8825 234.98 41.9376C234.513 41.9928 234.001 42.0279 233.443 42.0931V39.1792C233.418 38.8625 233.463 38.5443 233.574 38.2464C233.634 38.1529 233.716 38.0744 233.811 38.0171C233.907 37.9597 234.015 37.9249 234.126 37.9154L235.392 37.6797V36.5512H229.204L228.968 37.6797L230.364 37.9405C230.468 37.9522 230.569 37.9855 230.66 38.0382C230.751 38.0908 230.829 38.1617 230.891 38.2464C231 38.5168 231.045 38.8086 231.022 39.099V47.2789C231.044 47.5955 230.999 47.9132 230.891 48.2117C230.83 48.3043 230.748 48.3819 230.652 48.4392C230.557 48.4964 230.45 48.5318 230.339 48.5427L229.073 48.7785V49.9069L234.493 49.9721ZM234.297 48.7785C234.006 48.7484 233.719 48.7133 233.443 48.6581V43.2266C233.719 43.1915 234.021 43.1664 234.337 43.1513C234.654 43.1363 235.07 43.1313 235.472 43.1313C236.29 43.0854 237.097 43.3287 237.753 43.8184C238.031 44.0556 238.251 44.3536 238.396 44.6892C238.54 45.0249 238.605 45.3893 238.586 45.7542C238.612 46.1654 238.548 46.5772 238.397 46.9609C238.247 47.3446 238.015 47.691 237.717 47.976C237.004 48.5345 236.11 48.8113 235.206 48.7534C234.9 48.7534 234.618 48.7383 234.327 48.7133L234.297 48.7785ZM201.146 83.459C201.136 82.8531 200.979 82.2587 200.69 81.7261C200.4 81.1935 199.987 80.7385 199.483 80.3997C199.835 79.9577 200.062 79.4305 200.143 78.872C200.224 78.3134 200.155 77.7435 199.943 77.2203C199.731 76.6972 199.384 76.2395 198.937 75.8941C198.49 75.5486 197.959 75.3278 197.399 75.254C197.185 74.1894 196.583 73.2419 195.709 72.5956C194.836 71.9493 193.752 71.6503 192.67 71.7565C191.588 71.8628 190.584 72.3667 189.853 73.1706C189.122 73.9744 188.716 75.0208 188.714 76.1066V76.232C188.341 76.3465 188.001 76.551 187.725 76.8274C187.449 77.1038 187.245 77.4437 187.131 77.8171C187.018 78.1906 186.998 78.5863 187.073 78.9692C187.149 79.3522 187.317 79.7108 187.564 80.0135C186.856 80.4999 186.323 81.2001 186.043 82.0112C185.763 82.8223 185.751 83.7017 186.008 84.5203C186.266 85.3389 186.779 86.0535 187.473 86.5594C188.167 87.0652 189.005 87.3356 189.865 87.3308H192.728C192.733 87.3505 192.733 87.3712 192.728 87.391L192.421 91.9348C192.42 91.9436 192.422 91.9524 192.425 91.9606C192.428 91.9689 192.432 91.9764 192.439 91.9826C192.445 91.9888 192.452 91.9936 192.461 91.9966C192.469 91.9996 192.478 92.0008 192.487 92H194.998C195.007 92.0008 195.016 91.9996 195.024 91.9966C195.032 91.9936 195.04 91.9888 195.046 91.9826C195.052 91.9764 195.057 91.9689 195.06 91.9606C195.063 91.9524 195.064 91.9436 195.063 91.9348L194.777 87.391C194.77 87.3716 194.77 87.3502 194.777 87.3308H197.399C198.402 87.3308 199.364 86.9329 200.073 86.2247C200.783 85.5164 201.181 84.5559 201.181 83.5543V83.3938L201.146 83.459ZM67.7133 10.0305L65.0663 8.76167C64.6187 8.55038 64.1298 8.44076 63.6348 8.44069C63.6108 8.43999 63.5878 8.43116 63.5696 8.41566C63.5513 8.40016 63.5389 8.37892 63.5343 8.35543C63.1147 6.01309 61.8836 3.89266 60.0563 2.36519C58.229 0.837718 55.9219 0.000487241 53.5388 0C52.6517 0.048833 51.77 0.167902 50.9018 0.356084C50.8938 0.356084 50.8861 0.359254 50.8805 0.364897C50.8748 0.370541 50.8716 0.378195 50.8716 0.386175C50.8716 0.394156 50.8748 0.40181 50.8805 0.407453C50.8861 0.413097 50.8938 0.416267 50.9018 0.416267C52.5625 0.874133 54.0749 1.7566 55.2896 2.97651C56.5043 4.19643 57.3794 5.71161 57.8283 7.37244C57.8305 7.38375 57.8302 7.3954 57.8275 7.40659C57.8247 7.41777 57.8196 7.42825 57.8125 7.43729C57.8053 7.44633 57.7963 7.45372 57.7861 7.45898C57.7758 7.46423 57.7645 7.46721 57.753 7.46773C55.6936 7.46773 49.8972 5.01025 49.0031 4.72939C48.9959 4.72641 48.9878 4.72595 48.9802 4.72809C48.9726 4.73024 48.966 4.73486 48.9613 4.74122C48.9567 4.74758 48.9544 4.75531 48.9547 4.76317C48.9549 4.77103 48.9579 4.77856 48.963 4.78456L52.8055 10.0706C52.8178 10.0883 52.8244 10.1093 52.8244 10.1308C52.8244 10.1524 52.8178 10.1734 52.8055 10.191L48.963 15.4871C48.9579 15.4931 48.9549 15.5007 48.9547 15.5085C48.9544 15.5164 48.9567 15.5241 48.9613 15.5305C48.966 15.5368 48.9726 15.5415 48.9802 15.5436C48.9878 15.5457 48.9959 15.5453 49.0031 15.5423C49.8972 15.2564 55.6936 12.7939 57.753 12.804C57.7648 12.8035 57.7766 12.8059 57.7873 12.8109C57.7981 12.8158 57.8075 12.8232 57.8149 12.8325C57.8222 12.8418 57.8272 12.8527 57.8296 12.8643C57.8319 12.8759 57.8315 12.8879 57.8283 12.8993C57.38 14.5607 56.5045 16.0762 55.2886 17.2955C54.0727 18.5148 52.5587 19.3956 50.8968 19.8504C50.8902 19.853 50.8846 19.8575 50.8807 19.8633C50.8768 19.8691 50.8747 19.876 50.8747 19.883C50.8747 19.89 50.8768 19.8969 50.8807 19.9027C50.8846 19.9085 50.8902 19.913 50.8968 19.9156C51.7654 20.1013 52.647 20.2204 53.5338 20.2717C55.9186 20.2718 58.2273 19.4335 60.055 17.9038C61.8827 16.3742 63.1127 14.2509 63.5293 11.9062C63.5329 11.8823 63.5451 11.8605 63.5635 11.8448C63.582 11.8292 63.6055 11.8207 63.6297 11.821C64.1255 11.8174 64.6144 11.7044 65.0613 11.49L67.7083 10.2261C67.7281 10.2188 67.7453 10.2058 67.7575 10.1886C67.7698 10.1715 67.7767 10.1511 67.7772 10.13C67.7778 10.109 67.772 10.0882 67.7606 10.0705C67.7492 10.0527 67.7327 10.0388 67.7133 10.0305Z" fill="#272727"/>
</g>
<defs>
<clipPath id="clip0_194_37">
<rect width="280" height="92" fill="white"/>
</clipPath>
</defs>
</svg>
