<svg width="228" height="70" viewBox="0 0 228 70" fill="none" xmlns="http://www.w3.org/2000/svg">
<path d="M32.1809 0L0 19.016V21.9415L32.1809 3.80319L55 21.6489V19.016L32.1809 0Z" fill="white"/>
<path d="M32.1809 9.21539L0 25.5984V28.5239L32.1809 13.1649V9.21539Z" fill="white"/>
<path d="M32.1809 18.5771L0 32.4734V35.3989L32.1809 22.5266V18.5771Z" fill="white"/>
<path d="M0 41.9813V39.2021L32.1809 27.7925V31.742L0 41.9813Z" fill="white"/>
<path d="M32.1809 37.5931L0 46.3696V49.1489L32.1809 41.3962V37.5931Z" fill="white"/>
<path d="M32.1809 46.8085L0 53.0984V55.8776L32.1809 50.6117V46.8085Z" fill="white"/>
<path d="M32.1809 56.3165L0 59.6808V62.7526L32.1809 60.2659V56.3165Z" fill="white"/>
<path d="M32.1809 65.5319L0 66.5558V69.0425H32.1809H55V66.7021L32.1809 65.5319Z" fill="white"/>
<path d="M93.6367 36.418V37.6758C93.6367 39.1706 93.4499 40.5104 93.0762 41.6953C92.7025 42.8802 92.1647 43.8874 91.4629 44.7168C90.7611 45.5462 89.918 46.1797 88.9336 46.6172C87.9583 47.0547 86.8646 47.2734 85.6523 47.2734C84.4766 47.2734 83.3965 47.0547 82.4121 46.6172C81.4368 46.1797 80.5892 45.5462 79.8691 44.7168C79.1582 43.8874 78.6068 42.8802 78.2148 41.6953C77.8229 40.5104 77.627 39.1706 77.627 37.6758V36.418C77.627 34.9232 77.8184 33.5879 78.2012 32.4121C78.5931 31.2272 79.1445 30.2201 79.8555 29.3906C80.5664 28.5521 81.4095 27.9141 82.3848 27.4766C83.3691 27.0391 84.4492 26.8203 85.625 26.8203C86.8372 26.8203 87.931 27.0391 88.9062 27.4766C89.8906 27.9141 90.7337 28.5521 91.4355 29.3906C92.1465 30.2201 92.6888 31.2272 93.0625 32.4121C93.4453 33.5879 93.6367 34.9232 93.6367 36.418ZM91.0254 37.6758V36.3906C91.0254 35.2057 90.9023 34.1576 90.6562 33.2461C90.4193 32.3346 90.0684 31.569 89.6035 30.9492C89.1387 30.3294 88.569 29.86 87.8945 29.541C87.2292 29.222 86.4727 29.0625 85.625 29.0625C84.8047 29.0625 84.0618 29.222 83.3965 29.541C82.7402 29.86 82.1751 30.3294 81.7012 30.9492C81.2363 31.569 80.8763 32.3346 80.6211 33.2461C80.3659 34.1576 80.2383 35.2057 80.2383 36.3906V37.6758C80.2383 38.8698 80.3659 39.9271 80.6211 40.8477C80.8763 41.7591 81.2409 42.5293 81.7148 43.1582C82.1979 43.778 82.7676 44.2474 83.4238 44.5664C84.0892 44.8854 84.832 45.0449 85.6523 45.0449C86.5091 45.0449 87.2702 44.8854 87.9355 44.5664C88.6009 44.2474 89.1615 43.778 89.6172 43.1582C90.082 42.5293 90.4329 41.7591 90.6699 40.8477C90.9069 39.9271 91.0254 38.8698 91.0254 37.6758Z" fill="white"/>
<path d="M114.611 27.0938V47H111.986V29.2539H102.17V47H99.5309V27.0938H114.611Z" fill="white"/>
<path d="M128.572 27.0938V47H125.974V27.0938H128.572ZM134.97 27.0938V29.2539H119.589V27.0938H134.97Z" fill="white"/>
<path d="M142.491 42.4336L152.294 27.0938H154.933V47H152.294V31.6465L142.491 47H139.866V27.0938H142.491V42.4336Z" fill="white"/>
<path d="M162.385 27.0938H164.942L171.464 43.3223L177.971 27.0938H180.542L172.448 47H170.452L162.385 27.0938ZM161.551 27.0938H163.807L164.176 39.2344V47H161.551V27.0938ZM179.106 27.0938H181.362V47H178.737V39.2344L179.106 27.0938Z" fill="white"/>
<path d="M193.983 40.3965L199.246 27.0938H202.282L195.241 43.6777C195.04 44.1426 194.817 44.5938 194.571 45.0312C194.325 45.4596 194.024 45.8424 193.668 46.1797C193.313 46.5169 192.871 46.7858 192.342 46.9863C191.823 47.1868 191.176 47.2871 190.401 47.2871C190.182 47.2871 189.922 47.2734 189.621 47.2461C189.321 47.2279 189.125 47.2051 189.034 47.1777L189.116 45.0723C189.216 45.0905 189.412 45.1087 189.704 45.127C189.995 45.1361 190.209 45.1406 190.346 45.1406C190.866 45.1406 191.276 45.0358 191.577 44.8262C191.877 44.6165 192.119 44.3522 192.301 44.0332C192.493 43.7051 192.666 43.3724 192.821 43.0352L193.983 40.3965ZM189.512 27.0938L195.049 39.4941L195.705 41.9414L193.491 42.1055L186.559 27.0938H189.512Z" fill="white"/>
<path d="M208.08 27.0938H210.637L217.158 43.3223L223.666 27.0938H226.236L218.143 47H216.147L208.08 27.0938ZM207.246 27.0938H209.502L209.871 39.2344V47H207.246V27.0938ZM224.801 27.0938H227.057V47H224.432V39.2344L224.801 27.0938Z" fill="white"/>
<path d="M186.348 54.4688H187.443L190.238 61.4238L193.027 54.4688H194.129L190.66 63H189.805L186.348 54.4688ZM185.99 54.4688H186.957L187.115 59.6719V63H185.99V54.4688ZM193.514 54.4688H194.48V63H193.355V59.6719L193.514 54.4688Z" fill="white"/>
<path d="M197.604 54.4688H198.7L201.495 61.4238L204.284 54.4688H205.385L201.917 63H201.061L197.604 54.4688ZM197.247 54.4688H198.214L198.372 59.6719V63H197.247V54.4688ZM204.77 54.4688H205.737V63H204.612V59.6719L204.77 54.4688Z" fill="white"/>
<path d="M209.341 54.4688L211.392 57.7383L213.443 54.4688H214.761L212.066 58.6934L214.826 63H213.496L211.392 59.666L209.289 63H207.958L210.718 58.6934L208.023 54.4688H209.341Z" fill="white"/>
<path d="M218.125 54.4688V63H216.994V54.4688H218.125Z" fill="white"/>
<path d="M221.8 54.4688L223.85 57.7383L225.901 54.4688H227.22L224.524 58.6934L227.284 63H225.954L223.85 59.666L221.747 63H220.417L223.177 58.6934L220.481 54.4688H221.8Z" fill="white"/>
</svg>
