<svg width="52" height="26" viewBox="0 0 52 26" fill="none" xmlns="http://www.w3.org/2000/svg">
<path d="M2 11.5004C1.17157 11.5004 0.5 12.172 0.5 13.0004C0.5 13.8288 1.17157 14.5004 2 14.5004V11.5004ZM50 13.0004L51.1352 13.9808C51.6216 13.4177 51.6216 12.5831 51.1353 12.02L50 13.0004ZM41.6353 1.01959C41.0938 0.392608 40.1466 0.323283 39.5196 0.864748C38.8926 1.40621 38.8233 2.35343 39.3647 2.98041L41.6353 1.01959ZM39.3648 23.0196C38.8233 23.6465 38.8926 24.5937 39.5196 25.1352C40.1465 25.6767 41.0937 25.6074 41.6352 24.9804L39.3648 23.0196ZM2 14.5004H50V11.5004H2V14.5004ZM51.1353 12.02L41.6353 1.01959L39.3647 2.98041L48.8647 13.9808L51.1353 12.02ZM48.8648 12.0199L39.3648 23.0196L41.6352 24.9804L51.1352 13.9808L48.8648 12.0199Z" fill="white"/>
</svg>
