<svg width="70" height="70" viewBox="0 0 70 70" fill="none" xmlns="http://www.w3.org/2000/svg">
<path d="M0 6C0 2.68629 2.68629 0 6 0H64C67.3137 0 70 2.68629 70 6V64C70 67.3137 67.3137 70 64 70H6C2.68629 70 0 67.3137 0 64V6Z" fill="#374246"/>
<path fill-rule="evenodd" clip-rule="evenodd" d="M45.3989 29.1683C38.9237 24.9439 30.5643 24.9439 24.0891 29.1683L15.2454 34.938L24.0891 40.7077C30.5643 44.9322 38.9237 44.9322 45.3989 40.7077L54.2426 34.938L45.3989 29.1683ZM11.7093 36.213C11.6087 36.1507 11.5145 36.0758 11.4294 35.9889C11.3082 35.8657 11.2115 35.7245 11.1408 35.5725C11.0456 35.3694 10.9998 35.1528 11 34.938C11.0004 34.5517 11.1498 34.1715 11.4294 33.8871C11.5145 33.8002 11.6087 33.7254 11.7093 33.663L22.4499 26.6558C29.9212 21.7814 39.5668 21.7814 47.0381 26.6558L57.7787 33.663C57.8793 33.7254 57.9735 33.8002 58.0585 33.8871C58.1797 34.0103 58.2765 34.1516 58.3472 34.3035C58.5304 34.697 58.5393 35.1623 58.3472 35.5725C58.2765 35.7245 58.1797 35.8657 58.0585 35.9889C57.9735 36.0758 57.8793 36.1507 57.7787 36.213L47.0381 43.2203C39.5668 48.0946 29.9212 48.0946 22.4499 43.2203L11.7093 36.213ZM31.2441 34.707C31.2441 32.774 32.8111 31.207 34.7441 31.207C36.6771 31.207 38.2441 32.774 38.2441 34.707C38.2441 36.64 36.6771 38.207 34.7441 38.207C32.8111 38.207 31.2441 36.64 31.2441 34.707ZM34.7441 28.207C31.1543 28.207 28.2441 31.1172 28.2441 34.707C28.2441 38.2969 31.1543 41.207 34.7441 41.207C38.334 41.207 41.2441 38.2969 41.2441 34.707C41.2441 31.1172 38.334 28.207 34.7441 28.207Z" fill="white"/>
</svg>
