<svg width="70" height="70" viewBox="0 0 70 70" fill="none" xmlns="http://www.w3.org/2000/svg">
<path d="M0 6C0 2.68629 2.68629 0 6 0H64C67.3137 0 70 2.68629 70 6V64C70 67.3137 67.3137 70 64 70H6C2.68629 70 0 67.3137 0 64V6Z" fill="#374246"/>
<path d="M21.9041 32.7615L40.7812 15.5259C41.4912 14.8776 42.6177 15.507 42.4378 16.4514L39.2261 33.3129C39.1087 33.9291 39.5811 34.5 40.2085 34.5H46.4217C47.3347 34.5 47.7702 35.6229 47.0959 36.2385L28.2188 53.4741C27.5088 54.1224 26.3823 53.493 26.5622 52.5486L29.7739 35.6871C29.8913 35.0709 29.4189 34.5 28.7915 34.5H22.5783C21.6654 34.5 21.2298 33.3771 21.9041 32.7615Z" stroke="white" stroke-width="3" stroke-linecap="round"/>
<path d="M50 20L57 13" stroke="white" stroke-width="3" stroke-linecap="round"/>
<path d="M13 53L20 46" stroke="white" stroke-width="3" stroke-linecap="round"/>
<circle cx="13.5" cy="16.5" r="1.5" fill="white"/>
<circle cx="51.5" cy="49.5" r="1.5" fill="white"/>
<circle cx="18.5" cy="21.5" r="1.5" fill="white"/>
<circle cx="56.5" cy="54.5" r="1.5" fill="white"/>
</svg>
