<svg width="679" height="123" viewBox="0 0 679 123" fill="none" xmlns="http://www.w3.org/2000/svg">
<g opacity="0.2" clip-path="url(#clip0_1009_13285)">
<path d="M139 102.44C146.49 102.44 152.66 99.6701 156.57 95.6401C157.036 95.1791 157.641 94.8836 158.291 94.7987C158.941 94.7138 159.601 94.8442 160.17 95.1701L173.8 103C174.054 103.142 174.274 103.338 174.444 103.574C174.614 103.81 174.731 104.08 174.787 104.365C174.842 104.651 174.834 104.945 174.764 105.228C174.694 105.51 174.563 105.774 174.38 106C166.38 116.41 154.1 122.33 138.68 122.33C110.12 122.33 92.1001 102.78 92.1001 77.4501C92.1001 52.1201 110.29 32.5701 137 32.5701C162.16 32.5701 180 52.4601 180 77.4501C179.995 79.8943 179.804 82.3346 179.43 84.7501C179.36 85.2288 179.119 85.6659 178.751 85.9803C178.383 86.2947 177.914 86.4652 177.43 86.4601H116.43C116.269 86.4585 116.109 86.4961 115.966 86.5695C115.822 86.6429 115.698 86.75 115.605 86.8817C115.511 87.0133 115.451 87.1656 115.43 87.3256C115.408 87.4855 115.425 87.6483 115.48 87.8001C118.87 98.0601 127.93 102.44 139 102.44ZM156.76 69.4401C156.914 69.4446 157.067 69.4134 157.208 69.3489C157.348 69.2844 157.471 69.1883 157.568 69.0683C157.665 68.9482 157.732 68.8073 157.766 68.6567C157.799 68.5061 157.797 68.3498 157.76 68.2001C154.76 56.8701 145.85 52.2701 136.98 52.2701C125.71 52.2701 117.89 58.0801 115.03 68.1901C114.991 68.3405 114.988 68.4979 115.02 68.6498C115.053 68.8017 115.12 68.944 115.217 69.0653C115.314 69.1866 115.438 69.2836 115.579 69.3487C115.721 69.4137 115.875 69.445 116.03 69.4401H156.76Z" fill="white"/>
<path d="M217.1 55.9999V92.9999C217.1 101.66 222.99 102.3 234.21 101.78C234.481 101.766 234.752 101.808 235.006 101.902C235.26 101.997 235.493 102.142 235.689 102.329C235.886 102.516 236.042 102.741 236.149 102.991C236.255 103.24 236.31 103.509 236.31 103.78V119.78C236.312 120.277 236.129 120.758 235.796 121.128C235.464 121.498 235.005 121.73 234.51 121.78C205.13 124.63 195.17 115.53 195.17 93.0299V55.9999H182.38C181.849 55.9999 181.341 55.7892 180.966 55.4141C180.591 55.0391 180.38 54.5304 180.38 53.9999V36.9999C180.38 36.4695 180.591 35.9608 180.966 35.5857C181.341 35.2106 181.849 34.9999 182.38 34.9999H195.17V19.9999C195.17 19.3564 195.377 18.7299 195.761 18.2131C196.144 17.6963 196.684 17.3166 197.3 17.1299L214.52 11.9199C214.818 11.8295 215.134 11.8101 215.441 11.8633C215.749 11.9166 216.039 12.041 216.29 12.2265C216.541 12.4121 216.744 12.6538 216.885 12.9322C217.026 13.2106 217.099 13.518 217.1 13.8299V34.9999H234.31C234.84 34.9999 235.349 35.2106 235.724 35.5857C236.099 35.9608 236.31 36.4695 236.31 36.9999V53.9999C236.31 54.5304 236.099 55.0391 235.724 55.4141C235.349 55.7892 234.84 55.9999 234.31 55.9999H217.1Z" fill="white"/>
<path d="M327.62 37.0001V118C327.62 118.531 327.409 119.039 327.034 119.414C326.659 119.789 326.15 120 325.62 120H307.69C307.159 120 306.651 119.789 306.276 119.414C305.901 119.039 305.69 118.531 305.69 118V110C299.57 117.65 290.39 122.41 277.98 122.41C255.37 122.41 236.67 102.86 236.67 77.5301C236.67 52.2001 255.37 32.5701 278 32.5701C290.41 32.5701 299.59 37.3301 305.71 44.9801V37.0001C305.71 36.4696 305.921 35.9609 306.296 35.5859C306.671 35.2108 307.179 35.0001 307.71 35.0001H325.64C326.167 35.0053 326.67 35.2184 327.041 35.5929C327.412 35.9674 327.62 36.4731 327.62 37.0001V37.0001ZM305.69 77.5001C305.69 63.2201 295.69 53.5001 282.06 53.5001C268.63 53.5001 258.6 63.1901 258.6 77.5001C258.6 91.8101 268.6 101.5 282.06 101.5C295.66 101.42 305.69 91.7301 305.69 77.4501V77.5001Z" fill="white"/>
<path d="M335.25 13.8001C335.201 11.9678 335.519 10.1443 336.186 8.43702C336.853 6.72978 337.855 5.17349 339.134 3.86005C340.412 2.54661 341.941 1.50265 343.629 0.789816C345.318 0.0769787 347.132 -0.290283 348.965 -0.290283C350.798 -0.290283 352.612 0.0769787 354.301 0.789816C355.99 1.50265 357.518 2.54661 358.797 3.86005C360.075 5.17349 361.077 6.72978 361.744 8.43702C362.411 10.1443 362.73 11.9678 362.68 13.8001C362.584 17.3734 361.096 20.768 358.535 23.2613C355.973 25.7546 352.54 27.1497 348.965 27.1497C345.39 27.1497 341.957 25.7546 339.395 23.2613C336.834 20.768 335.347 17.3734 335.25 13.8001V13.8001ZM340 35.0001H357.94C358.471 35.0001 358.979 35.2108 359.354 35.5859C359.729 35.9609 359.94 36.4697 359.94 37.0001V118C359.94 118.531 359.729 119.039 359.354 119.414C358.979 119.789 358.471 120 357.94 120H340C339.47 120 338.961 119.789 338.586 119.414C338.211 119.039 338 118.531 338 118V37.0001C338 36.4697 338.211 35.9609 338.586 35.5859C338.961 35.2108 339.47 35.0001 340 35.0001Z" fill="white"/>
<path d="M372.13 2.0286e-07H390.05C390.57 -0.000233938 391.07 0.202224 391.443 0.564417C391.817 0.926609 392.034 1.42004 392.05 1.94V118C392.034 118.52 391.817 119.013 391.443 119.376C391.07 119.738 390.57 119.94 390.05 119.94H372.13C371.61 119.94 371.11 119.738 370.736 119.376C370.363 119.013 370.145 118.52 370.13 118V1.94C370.145 1.42004 370.363 0.926609 370.736 0.564417C371.11 0.202224 371.61 -0.000233938 372.13 2.0286e-07Z" fill="white"/>
<path d="M402.25 77.4501C402.25 52.1201 421.25 32.5701 447.13 32.5701C463.02 32.5701 476.91 40.5701 484.2 52.7201C484.34 52.9476 484.433 53.2009 484.474 53.465C484.515 53.7291 484.502 53.9987 484.437 54.2579C484.372 54.517 484.255 54.7604 484.094 54.9738C483.933 55.1872 483.731 55.3661 483.5 55.5001L468.92 64.0001C468.265 64.3866 467.487 64.5097 466.744 64.3444C466.002 64.1792 465.35 63.738 464.92 63.1101C461.13 57.5501 454.56 54.1101 446.92 54.1101C433.83 54.1101 424.14 63.8001 424.14 77.4001C424.14 90.8301 433.83 100.52 446.92 100.52C454.71 100.52 461.31 97.2201 465.09 91.6701C465.517 91.0535 466.159 90.6192 466.89 90.4526C467.621 90.286 468.388 90.3993 469.04 90.7701L483.75 99.1801C483.985 99.3139 484.191 99.4942 484.355 99.7099C484.518 99.9257 484.636 100.172 484.702 100.435C484.767 100.698 484.779 100.971 484.736 101.238C484.692 101.506 484.595 101.761 484.45 101.99C480.468 108.279 474.944 113.445 468.404 116.998C461.863 120.551 454.523 122.372 447.08 122.29C421.29 122.33 402.25 102.78 402.25 77.4501Z" fill="white"/>
<path d="M542.48 35.3199V55.5599C542.48 55.8321 542.425 56.1015 542.318 56.3516C542.211 56.6017 542.053 56.8273 541.856 57.0145C541.658 57.2017 541.425 57.3467 541.169 57.4404C540.914 57.5342 540.642 57.5749 540.37 57.5599C529.37 57.0399 516.64 62.5599 516.64 79.3199V118C516.64 118.53 516.429 119.039 516.054 119.414C515.679 119.789 515.17 120 514.64 120H496.71C496.18 120 495.671 119.789 495.296 119.414C494.921 119.039 494.71 118.53 494.71 118V36.9999C494.71 36.4695 494.921 35.9608 495.296 35.5857C495.671 35.2106 496.18 34.9999 496.71 34.9999H514.64C515.17 34.9999 515.679 35.2106 516.054 35.5857C516.429 35.9608 516.64 36.4695 516.64 36.9999V49.5699C520.77 38.7699 530.39 33.9099 540.37 33.3099C540.643 33.2949 540.915 33.3358 541.172 33.4302C541.428 33.5246 541.662 33.6705 541.859 33.8588C542.057 34.0471 542.214 34.2739 542.321 34.5251C542.428 34.7764 542.482 35.0469 542.48 35.3199V35.3199Z" fill="white"/>
<path d="M678.82 67.5899V118C678.82 118.53 678.609 119.039 678.234 119.414C677.859 119.789 677.351 120 676.82 120H658.89C658.36 120 657.851 119.789 657.476 119.414C657.101 119.039 656.89 118.53 656.89 118V69.12C656.89 59.12 651.79 52.97 642.61 52.97C632.92 52.97 626.8 59.43 626.8 72.18V118C626.8 118.53 626.589 119.039 626.214 119.414C625.839 119.789 625.331 120 624.8 120H606.87C606.34 120 605.831 119.789 605.456 119.414C605.081 119.039 604.87 118.53 604.87 118V69.12C604.87 59.12 599.77 52.97 590.59 52.97C581.24 52.97 574.59 59.43 574.59 72.18V118C574.59 118.53 574.379 119.039 574.004 119.414C573.629 119.789 573.121 120 572.59 120H554.68C554.15 120 553.641 119.789 553.266 119.414C552.891 119.039 552.68 118.53 552.68 118V36.9999C552.68 36.4695 552.891 35.9608 553.266 35.5857C553.641 35.2107 554.15 34.9999 554.68 34.9999H572.61C573.141 34.9999 573.649 35.2107 574.024 35.5857C574.399 35.9608 574.61 36.4695 574.61 36.9999V43.9999C579.37 36.8599 587.36 32.61 598.24 32.61C608.78 32.61 616.6 37.0299 621.36 44.8499C626.63 37.1999 635.13 32.61 646.69 32.61C666.07 32.57 678.82 46.3399 678.82 67.5899Z" fill="white"/>
<path d="M88.09 32.3999H15.57C11.4378 32.4078 7.4776 34.0549 4.55852 36.9796C1.63944 39.9043 -7.64085e-06 43.8677 0 47.9999H0V120.51C0 121.04 0.210714 121.549 0.585786 121.924C0.960859 122.299 1.46957 122.51 2 122.51H20.08C20.6104 122.51 21.1191 122.299 21.4942 121.924C21.8693 121.549 22.08 121.04 22.08 120.51V80.9999C22.0777 76.8619 20.792 72.8265 18.4 69.4499L11.07 59.0899L71.19 119.2C71.3761 119.389 71.5979 119.539 71.8426 119.641C72.0872 119.744 72.3498 119.797 72.615 119.797C72.8802 119.797 73.1428 119.744 73.3874 119.641C73.6321 119.539 73.8539 119.389 74.04 119.2L86.8 106.43C86.989 106.244 87.139 106.022 87.2415 105.777C87.3439 105.533 87.3967 105.27 87.3967 105.005C87.3967 104.74 87.3439 104.477 87.2415 104.232C87.139 103.988 86.989 103.766 86.8 103.58L26.74 43.5299L37 50.7999C40.3766 53.1919 44.412 54.4776 48.55 54.4799H88.09C88.6204 54.4799 89.1291 54.2692 89.5042 53.8941C89.8793 53.519 90.09 53.0103 90.09 52.4799V34.3999C90.09 33.8695 89.8793 33.3608 89.5042 32.9857C89.1291 32.6106 88.6204 32.3999 88.09 32.3999Z" fill="white"/>
<path d="M88.05 0H2C0.89543 0 0 0.89543 0 2V20.2C0 21.3046 0.89543 22.2 2 22.2H88.05C89.1546 22.2 90.05 21.3046 90.05 20.2V2C90.05 0.89543 89.1546 0 88.05 0Z" fill="white"/>
</g>
<defs>
<clipPath id="clip0_1009_13285">
<rect width="678.82" height="122.3" fill="white"/>
</clipPath>
</defs>
</svg>
