<svg width="503" height="47" viewBox="0 0 503 47" fill="none" xmlns="http://www.w3.org/2000/svg">
<g opacity="0.2" clip-path="url(#clip0_1009_13298)">
<path d="M47.98 45.78H66.986V1.61599H47.979L19.006 26.556V1.61499H0V45.78H19.006L47.98 20.846V45.78ZM140.273 45.78V1.61599H120.609V16.29H93.469V1.61499H73.809V45.78H93.469V30.32H120.609V45.78H140.273ZM213.57 45.78V1.61599H193.901V16.29H166.761V1.61499H147.097V45.78H166.761V30.32H193.901V45.78H213.57V45.78ZM219.737 24.22C219.737 40.06 231.536 46.432 254.607 46.432H256.704C279.774 46.432 291.579 40.061 291.579 24.221V23.179C291.579 7.33899 279.785 0.968994 256.704 0.968994H254.607C231.536 0.968994 219.737 7.33899 219.737 23.179V24.221V24.22ZM240.058 23.96V23.425C240.058 16.611 245.238 13.945 254.413 13.945H256.903C266.067 13.945 271.263 16.615 271.263 23.425V23.959C271.263 30.779 266.083 33.444 256.903 33.444H254.413C245.238 33.444 240.058 30.779 240.058 23.959V23.96ZM295.455 1.61499V15.905H318.817V45.781H338.475V15.906H361.81V1.61499H295.455V1.61499ZM477.26 45.78H502.627L479.988 23.313L501.942 1.62499H477.831L466.512 14.09L455.192 1.61499H429.825L451.656 24.221L429.173 45.781H453.289L465.283 33.188L477.26 45.78ZM367.599 45.86H425.427V33.915H387.317V28.415H419.772V19.068H387.317V13.525H425.432V1.67899H367.599V45.86V45.86Z" fill="white"/>
</g>
<defs>
<clipPath id="clip0_1009_13298">
<rect width="503" height="47" fill="white"/>
</clipPath>
</defs>
</svg>
