<svg width="46" height="61" viewBox="0 0 46 61" fill="none" xmlns="http://www.w3.org/2000/svg">
<g clip-path="url(#clip0_5_34)">
<g filter="url(#filter0_d_5_34)">
<path d="M15.1815 53.3876L33.8178 32.4779C34.1673 32.0859 34.3636 31.554 34.3636 30.9995C34.3636 30.4449 34.1672 29.9131 33.8177 29.521L15.1814 8.61243C14.4536 7.79586 13.2736 7.79586 12.5458 8.61243C11.8181 9.42886 11.818 10.7528 12.5458 11.5694L29.8643 30.9995L12.5458 50.4306C12.1819 50.8389 12 51.374 12 51.9092C12 52.4443 12.1819 52.9794 12.5459 53.3877C13.2737 54.2041 14.4537 54.2041 15.1815 53.3876Z" fill="white"/>
</g>
</g>
<defs>
<filter id="filter0_d_5_34" x="2" y="2" width="42.3636" height="66" filterUnits="userSpaceOnUse" color-interpolation-filters="sRGB">
<feFlood flood-opacity="0" result="BackgroundImageFix"/>
<feColorMatrix in="SourceAlpha" type="matrix" values="0 0 0 0 0 0 0 0 0 0 0 0 0 0 0 0 0 0 127 0" result="hardAlpha"/>
<feOffset dy="4"/>
<feGaussianBlur stdDeviation="5"/>
<feComposite in2="hardAlpha" operator="out"/>
<feColorMatrix type="matrix" values="0 0 0 0 0 0 0 0 0 0 0 0 0 0 0 0 0 0 0.25 0"/>
<feBlend mode="normal" in2="BackgroundImageFix" result="effect1_dropShadow_5_34"/>
<feBlend mode="normal" in="SourceGraphic" in2="effect1_dropShadow_5_34" result="shape"/>
</filter>
<clipPath id="clip0_5_34">
<rect width="61" height="46" fill="white" transform="translate(46) rotate(90)"/>
</clipPath>
</defs>
</svg>
