<svg width="85" height="85" viewBox="0 0 85 85" fill="none" xmlns="http://www.w3.org/2000/svg">
<g clip-path="url(#clip0_5_56)">
<path d="M83.4674 42.5108C81.8076 39.4476 78.9725 37.2161 75.4846 36.2271C74.2998 35.8911 73.0796 35.7206 71.8581 35.7206C69.7371 35.7206 67.7017 36.2352 65.8883 37.1555C65.8943 36.2004 65.8894 35.3056 65.8845 34.4769C65.8817 33.9697 65.8788 33.485 65.8788 33.0235C65.8788 31.7549 64.8502 30.7262 63.5815 30.7262H2.30934C1.04066 30.7262 0.0120536 31.7549 0.0120536 33.0235C0.0120536 33.4847 0.00918198 33.9697 0.00631036 34.4769C-0.0450915 43.4443 -0.140717 60.1359 14.6016 77.5809C15.0383 78.0972 15.6801 78.3953 16.3561 78.3953H49.5344C50.2107 78.3953 50.8525 78.0972 51.289 77.5809C52.6671 75.9504 53.9151 74.3262 55.0459 72.7147C58.0818 72.2521 79.519 68.4532 84.3306 52.9663C85.4597 49.3343 85.1528 45.621 83.4674 42.5108ZM17.4335 73.8007C4.86077 58.4439 4.55724 44.2047 4.59658 35.3211H61.2945C61.3339 44.2044 61.0304 58.4439 48.4576 73.8007H17.4335ZM79.9437 51.6026C76.9219 61.3276 64.9877 65.6382 58.4476 67.3031C63.5404 58.1857 65.1658 49.6947 65.6703 42.9292C67.2678 41.3033 69.4804 40.3151 71.8581 40.3151C72.6558 40.3151 73.4544 40.4271 74.2312 40.6471C76.5175 41.2955 78.3631 42.7348 79.4279 44.6995C80.5341 46.7412 80.7124 49.1281 79.9437 51.6026Z" fill="#FF9A24"/>
<path d="M20.8849 23.5475C20.8849 24.8162 21.9136 25.8448 23.1822 25.8448C24.4509 25.8448 25.4795 24.8162 25.4795 23.5475C25.4795 22.8405 25.5984 22.5881 25.835 22.0847C26.1699 21.3734 26.6282 20.3996 26.6282 18.6655C26.6282 16.9313 26.1699 15.9573 25.835 15.2463C25.5984 14.7429 25.4795 14.4904 25.4795 13.7835C25.4795 13.0767 25.5984 12.824 25.835 12.3209C26.1699 11.6099 26.6282 10.6362 26.6282 8.90229C26.6282 7.63361 25.5996 6.605 24.3309 6.605C23.0622 6.605 22.0336 7.63361 22.0336 8.90229C22.0336 9.60899 21.9147 9.86169 21.6781 10.3648C21.3433 11.0758 20.8849 12.0496 20.8849 13.7835C20.8849 15.5173 21.3433 16.4914 21.6781 17.2024C21.9147 17.7058 22.0336 17.9582 22.0336 18.6655C22.0336 19.3725 21.9147 19.6252 21.6781 20.1286C21.343 20.8396 20.8849 21.8136 20.8849 23.5475Z" fill="#FF9A24"/>
<path d="M30.0741 23.5475C30.0741 24.8162 31.1027 25.8448 32.3714 25.8448C33.6401 25.8448 34.6687 24.8162 34.6687 23.5475C34.6687 22.8405 34.7876 22.5881 35.0242 22.0847C35.359 21.3734 35.8173 20.3996 35.8173 18.6655C35.8173 16.9313 35.359 15.9573 35.0242 15.2463C34.7876 14.7429 34.6687 14.4904 34.6687 13.7835C34.6687 13.0767 34.7876 12.824 35.0242 12.3209C35.359 11.6099 35.8173 10.6362 35.8173 8.90229C35.8173 7.63361 34.7887 6.605 33.52 6.605C32.2514 6.605 31.2227 7.63361 31.2227 8.90229C31.2227 9.60899 31.1039 9.86169 30.8672 10.3648C30.5324 11.0758 30.0741 12.0496 30.0741 13.7835C30.0741 15.5173 30.5324 16.4914 30.8672 17.2024C31.1039 17.7058 31.2227 17.9582 31.2227 18.6655C31.2227 19.3725 31.1039 19.6252 30.8672 20.1286C30.5321 20.8396 30.0741 21.8136 30.0741 23.5475Z" fill="#FF9A24"/>
<path d="M39.2632 23.5475C39.2632 24.8162 40.2919 25.8448 41.5605 25.8448C42.8292 25.8448 43.8578 24.8162 43.8578 23.5475C43.8578 22.8405 43.9767 22.5881 44.2133 22.0847C44.5482 21.3734 45.0065 20.3996 45.0065 18.6655C45.0065 16.9313 44.5482 15.9573 44.2133 15.2463C43.9767 14.7429 43.8578 14.4904 43.8578 13.7835C43.8578 13.0767 43.9767 12.824 44.2133 12.3209C44.5482 11.6099 45.0065 10.6362 45.0065 8.90229C45.0065 7.63361 43.9779 6.605 42.7092 6.605C41.4405 6.605 40.4119 7.63361 40.4119 8.90229C40.4119 9.60899 40.293 9.86169 40.0564 10.3648C39.7216 11.0758 39.2632 12.0496 39.2632 13.7835C39.2632 15.5173 39.7216 16.4914 40.0564 17.2024C40.293 17.7058 40.4119 17.9582 40.4119 18.6655C40.4119 19.3725 40.293 19.6252 40.0564 20.1286C39.7213 20.8396 39.2632 21.8136 39.2632 23.5475Z" fill="#FF9A24"/>
</g>
<defs>
<clipPath id="clip0_5_56">
<rect width="85" height="85" fill="white"/>
</clipPath>
</defs>
</svg>
