<svg width="85" height="85" viewBox="0 0 85 85" fill="none" xmlns="http://www.w3.org/2000/svg">
<path d="M52.1975 55.7476H33.6311V66.3264H52.1975V55.7476ZM49.606 59.9492H41.4569V62.5408H49.606V63.7352H36.2226V62.5408H39.0381V59.9492H36.2226V58.3391H49.606V59.9492Z" fill="#FF9A24"/>
<path d="M55.4356 81.8149L51.9134 67.7236H46.8126V70.3151H49.89L51.6928 77.5283L46.9484 75.6321L38.8374 78.3352L33.8961 77.3459L35.9042 70.3151H38.5937L37.6635 74.0352L40.1776 74.6638L41.2647 70.3151H44.2211V67.7236H33.9494L30.6327 79.3353L37.2275 80.6558L36.3599 83.2584L38.8186 84.078L39.9454 80.6976L41.4569 80.1937V85H44.0483V79.3301L44.1123 79.3089L47.1282 84.3348L49.3503 83.0016L46.631 78.4693L46.8675 78.3906L55.4356 81.8149Z" fill="#FF9A24"/>
<path d="M44.2206 0H41.4564V2.5915H44.2206V0Z" fill="#FF9A24"/>
<path d="M67.8322 11.7768L52.5107 7.28256C52.5092 7.28223 52.5076 7.28173 52.5063 7.28123L51.7766 9.76798L51.7801 9.76897C53.2053 10.1893 54.0245 11.6901 53.6061 13.1163L51.7325 19.5035C51.0374 21.8733 52.0849 24.3473 54.1213 25.5484L53.2146 28.6391L45.8386 23.7306L44.0479 24.1162V20.9408C46.4211 20.42 48.2033 18.3023 48.2033 15.7749V9.11869C48.2033 7.63102 49.4137 6.42061 50.9014 6.42061V3.8291H34.9265V6.42061C36.4142 6.42061 37.6246 7.63102 37.6246 9.11869V15.7748C37.6246 18.1858 39.2469 20.224 41.4568 20.8583V24.6739L32 26.7099L30.8782 22.8859C32.9146 21.6846 33.9621 19.2106 33.267 16.8407L31.3934 10.4538C30.9752 9.02738 31.7942 7.5266 33.2194 7.10642L33.223 7.10542L32.4936 4.61867C32.4921 4.619 32.4904 4.6195 32.4891 4.62L17.18 9.11072C17.175 9.11222 17.17 9.11371 17.1647 9.1152L17.8942 11.602C19.3212 11.1836 20.8237 12.004 21.2425 13.4316L23.1162 19.8187C23.7919 22.1224 25.9062 23.6198 28.1943 23.6198C28.2597 23.6198 28.3256 23.6153 28.3912 23.6129L29.4603 27.2569L25.2538 28.1625L33.9925 54.4205H40.2477V51.829H35.8614L28.6254 30.0871L44.1029 26.7549L43.3266 34.2789L45.9045 34.5448L46.6439 27.3786L53.29 31.8014L58.1621 30.8511L50.015 51.829H42.8392V54.4205H51.7887L62.2793 27.4078L55.9127 28.6496L56.6093 26.2751C56.6749 26.2776 56.7408 26.2821 56.8062 26.2821C59.0938 26.2821 61.2086 24.7844 61.8843 22.481L63.7578 16.0938C64.1767 14.6663 65.6788 13.8453 67.1062 14.2643L67.8356 11.7776C67.8343 11.7773 67.8332 11.7769 67.8322 11.7768ZM28.951 20.9184C27.5236 21.3369 26.0215 20.5165 25.6026 19.0891L23.7289 12.702C23.4519 11.7572 22.9324 10.9477 22.2582 10.3218L28.8585 8.38557C28.6294 9.27657 28.6294 10.2383 28.9066 11.1831L30.7803 17.57C31.199 18.9976 30.3784 20.4997 28.951 20.9184ZM40.2163 15.7749V9.11869C40.2163 8.13389 39.9457 7.21101 39.4752 6.42061H46.3534C45.8827 7.21101 45.6123 8.13389 45.6123 9.11869V15.7748C45.6123 17.2624 44.402 18.4728 42.9142 18.4728C41.4265 18.4728 40.2163 17.2624 40.2163 15.7749ZM61.2709 15.3644L59.3974 21.7515C58.9785 23.1791 57.4761 23.9997 56.049 23.5811C54.6215 23.1623 53.8008 21.6603 54.2195 20.2328L56.093 13.8457C56.3701 12.9007 56.3703 11.939 56.1412 11.0481L62.7416 12.9844C62.0676 13.6101 61.5481 14.4196 61.2709 15.3644Z" fill="#FF9A24"/>
<path d="M62.5757 6.07373L60.0208 5.32422L59.2913 7.81103L61.8462 8.56054L62.5757 6.07373Z" fill="#FF9A24"/>
<path d="M25.7099 5.14672L24.9807 2.65991L22.4257 3.40916L23.1549 5.89596L25.7099 5.14672Z" fill="#FF9A24"/>
</svg>
