<svg width="85" height="85" viewBox="0 0 85 85" fill="none" xmlns="http://www.w3.org/2000/svg">
<path d="M25.9958 29.4738C26.2721 29.75 26.6347 29.8888 26.9974 29.8888C27.3601 29.8888 27.7227 29.75 27.999 29.4738C28.5529 28.9198 28.5529 28.0245 27.999 27.4706C26.5611 26.0313 26.5611 23.6909 27.999 22.2516C29.2315 21.0191 29.9115 19.3814 29.9115 17.6389C29.9115 15.8964 29.2329 14.2588 27.999 13.0263C27.4451 12.4723 26.5497 12.4723 25.9958 13.0263C25.4419 13.5802 25.4419 14.4755 25.9958 15.0294C26.6928 15.7264 27.0782 16.6529 27.0782 17.6389C27.0782 18.6249 26.6942 19.5514 25.9958 20.2484C23.4529 22.7913 23.4529 26.9308 25.9958 29.4738Z" fill="#FF9A24"/>
<path d="M57.1625 29.4738C57.4388 29.75 57.8014 29.8888 58.1641 29.8888C58.5268 29.8888 58.8894 29.75 59.1657 29.4738C59.7196 28.9198 59.7196 28.0245 59.1657 27.4706C57.7278 26.0313 57.7278 23.6909 59.1657 22.2516C60.3982 21.0191 61.0782 19.3814 61.0782 17.6389C61.0782 15.8964 60.3996 14.2588 59.1657 13.0263C58.6118 12.4723 57.7164 12.4723 57.1625 13.0263C56.6086 13.5802 56.6086 14.4755 57.1625 15.0294C57.8595 15.7264 58.2448 16.6529 58.2448 17.6389C58.2448 18.6249 57.8609 19.5514 57.1625 20.2484C54.6196 22.7913 54.6196 26.9308 57.1625 29.4738Z" fill="#FF9A24"/>
<path d="M41.5792 20.9738C41.8554 21.25 42.2181 21.3888 42.5807 21.3888C42.9434 21.3888 43.3061 21.25 43.5823 20.9738C44.1362 20.4198 44.1362 19.5245 43.5823 18.9706C42.1444 17.5313 42.1444 15.1909 43.5823 13.7516C44.8148 12.5191 45.4948 10.8814 45.4948 9.13892C45.4948 7.39642 44.8162 5.75875 43.5823 4.52625C43.0284 3.97233 42.1331 3.97233 41.5792 4.52625C41.0252 5.08017 41.0252 5.9755 41.5792 6.52942C42.2762 7.22642 42.6615 8.15292 42.6615 9.13892C42.6615 10.1249 42.2776 11.0514 41.5792 11.7484C39.0362 14.2913 39.0362 18.4308 41.5792 20.9738Z" fill="#FF9A24"/>
<path d="M35.9054 40.5308C36.0088 40.5308 36.1137 40.5195 36.2185 40.4968C38.2557 40.0378 40.3622 39.8055 42.4816 39.8055C42.4872 39.8055 42.4929 39.8055 42.5 39.8055C43.282 39.8055 43.9167 39.1723 43.9167 38.3903C43.9167 37.6068 43.2834 36.9722 42.5 36.9722C42.4943 36.9722 42.4872 36.9722 42.4802 36.9722C40.1526 36.9722 37.8363 37.2286 35.5952 37.7329C34.8316 37.9043 34.3527 38.6623 34.5242 39.4258C34.6743 40.0846 35.258 40.5308 35.9054 40.5308Z" fill="#FF9A24"/>
<path d="M13.9131 63.8648C13.9995 63.8818 14.0845 63.8888 14.1681 63.8888C14.8396 63.8888 15.436 63.41 15.5607 62.7272C17.0326 54.655 21.8974 47.4725 28.5742 43.5172C29.2471 43.1191 29.4695 42.2493 29.0714 41.5763C28.6719 40.9034 27.8035 40.681 27.1306 41.0791C19.7582 45.4467 14.3919 53.3488 12.7741 62.2172C12.6324 62.9878 13.1424 63.7245 13.9131 63.8648Z" fill="#FF9A24"/>
<path d="M78.8007 61.9381C76.2337 46.8633 64.4824 34.8854 49.5224 31.9841C49.5465 31.7574 49.5833 31.5293 49.5833 31.3041C49.5833 27.3983 46.4058 24.2207 42.5 24.2207C38.5942 24.2207 35.4167 27.3983 35.4167 31.3041C35.4167 31.5293 35.4521 31.7574 35.4776 31.9841C20.5176 34.8854 8.76633 46.8633 6.19933 61.9381C3.2385 63.614 0 66.0804 0 68.8472C0 76.0509 21.9753 80.8888 42.5 80.8888C63.0247 80.8888 85 76.0509 85 68.8472C85 66.0804 81.7615 63.614 78.8007 61.9381ZM38.2585 31.5492C38.2528 31.467 38.25 31.3848 38.25 31.3055C38.25 28.9623 40.1568 27.0555 42.5 27.0555C44.8432 27.0555 46.75 28.9623 46.75 31.3055C46.75 31.3862 46.7472 31.467 46.7415 31.5492C46.6749 31.5421 46.6083 31.5392 46.5432 31.5322C46.0558 31.4783 45.5657 31.4401 45.0727 31.4061C44.8913 31.3933 44.7114 31.3749 44.5301 31.365C43.8586 31.3282 43.1828 31.3069 42.5014 31.3069C41.82 31.3069 41.1442 31.3282 40.4727 31.365C40.2914 31.3749 40.1115 31.3933 39.9302 31.4061C39.4372 31.4401 38.947 31.4797 38.4597 31.5322C38.3917 31.5392 38.3251 31.5407 38.2585 31.5492ZM37.3986 34.5213C38.1593 34.408 38.9243 34.3258 39.6922 34.2635C39.8494 34.2507 40.0067 34.2394 40.1639 34.2281C41.7194 34.1232 43.282 34.1232 44.8375 34.2281C44.9947 34.2394 45.152 34.2507 45.3092 34.2635C46.0771 34.3258 46.8421 34.408 47.6028 34.5213C62.3617 36.7526 74.0336 48.5067 76.1515 63.3023C76.2167 63.7571 76.2691 64.2132 76.3158 64.6694C76.3314 64.8267 76.3527 64.9825 76.3668 65.1397C76.4221 65.7673 76.4632 66.3949 76.483 67.0225C54.2272 72.1806 30.7757 72.1806 8.51983 67.0225C8.54108 66.3949 8.58075 65.7673 8.636 65.1397C8.65017 64.9825 8.67 64.8267 8.687 64.6694C8.73375 64.2118 8.78617 63.7557 8.85133 63.3023C10.9678 48.5067 22.6397 36.7512 37.3986 34.5213ZM42.5 78.0555C18.2807 78.0555 2.83333 72.0077 2.83333 68.8472C2.83333 68.3046 3.50483 67.1089 5.75733 65.5492C5.75167 65.6299 5.7545 65.7092 5.74883 65.79C5.70067 66.5663 5.66667 67.3483 5.66667 68.1388V69.2552L6.75325 69.5172C18.4464 72.3222 30.4739 73.7276 42.5 73.7276C54.5261 73.7276 66.5536 72.3237 78.2467 69.5172L79.3333 69.2552V68.1388C79.3333 67.3483 79.2993 66.5677 79.2512 65.79C79.2455 65.7092 79.2483 65.6299 79.2427 65.5492C81.4952 67.1089 82.1667 68.3046 82.1667 68.8472C82.1667 72.0077 66.7193 78.0555 42.5 78.0555Z" fill="#FF9A24"/>
</svg>
