<svg width="35" height="35" viewBox="0 0 35 35" fill="none" xmlns="http://www.w3.org/2000/svg">
<path d="M9.13966 1.89121L11.4212 1.2035C13.5695 0.555941 15.8648 1.60245 16.7848 3.64895L18.2051 6.80824C18.9892 8.5526 18.576 10.6026 17.1773 11.907L14.6964 14.2204C14.6657 14.249 14.6405 14.283 14.6221 14.3207C14.3626 14.8511 14.7558 16.2682 15.9922 18.4096C17.3857 20.8232 18.4628 21.7783 18.9602 21.63L22.217 20.6343C24.0454 20.0753 26.0269 20.7419 27.1456 22.2924L29.1627 25.0879C30.4722 26.9027 30.2367 29.4064 28.6118 30.9453L26.877 32.5881C25.6517 33.7486 23.9359 34.2357 22.2836 33.8922C17.4492 32.8871 13.1179 28.9941 9.25324 22.3003C5.3848 15.6 4.18039 9.89767 5.73413 5.2059C6.26184 3.61239 7.53246 2.37566 9.13966 1.89121ZM9.73468 3.86525C8.77037 4.15592 8.00799 4.89796 7.69137 5.85406C6.35259 9.89671 7.43703 15.031 11.0388 21.2694C14.6371 27.5019 18.5374 31.0075 22.7033 31.8736C23.6946 32.0797 24.7241 31.7874 25.4593 31.0912L27.1941 29.4483C28.069 28.6197 28.1958 27.2715 27.4907 26.2943L25.4737 23.4988C24.8713 22.664 23.8043 22.305 22.8198 22.606L19.5561 23.6038C17.7498 24.1423 16.052 22.6368 14.2066 19.4405C12.6444 16.7346 12.1021 14.7801 12.7701 13.4146C12.8992 13.1508 13.0755 12.9128 13.2903 12.7125L15.7711 10.3991C16.5243 9.69674 16.7468 8.59288 16.3246 7.65361L14.9043 4.49432C14.4089 3.39236 13.173 2.82885 12.0162 3.17754L9.73468 3.86525Z" fill="#35464D"/>
</svg>
