<svg width="88" height="88" viewBox="0 0 88 88" fill="none" xmlns="http://www.w3.org/2000/svg">
<g opacity="0.4">
<path d="M41.0374 57.7757C41.0374 54.549 40.194 51.843 38.5074 49.6467C37.312 48.136 35.6914 47.1424 33.6417 46.6694C31.625 46.2 29.7184 46.167 27.995 46.5667C27.4084 43.0834 28.3617 39.3947 30.7817 35.486C33.2017 31.581 36.3367 28.6404 40.161 26.675L34.3677 18.3334C31.4344 19.7854 28.6477 21.626 26.081 23.8517C23.4777 26.0774 21.1677 28.6367 19.1144 31.5297C17.061 34.4227 15.521 37.6897 14.531 41.393C13.541 45.0964 13.2624 48.873 13.7354 52.7597C14.3514 57.893 16.0087 61.9997 18.7074 65.043C21.4024 68.123 24.7647 69.663 28.7834 69.663C32.3217 69.663 35.2587 68.5997 37.5834 66.4437C39.886 64.3317 41.03 61.4387 41.03 57.761L41.0374 57.772V57.7757ZM74.492 57.7757C74.492 54.549 73.6487 51.843 71.962 49.6467C70.7667 48.1067 69.1387 47.1094 67.0964 46.651C65.043 46.1964 63.1584 46.1744 61.4497 46.5704C60.863 43.1237 61.7797 39.4204 64.1997 35.497C66.6197 31.6104 69.751 28.677 73.5754 26.697L67.7967 18.3334C64.8634 19.7854 62.095 21.626 59.51 23.8517C56.914 26.0774 54.5967 28.6367 52.5654 31.5297C50.5267 34.4264 49.0087 37.6897 48.0187 41.393C47.0177 45.0597 46.7537 48.873 47.223 52.7597C47.828 57.893 49.478 61.9997 52.173 65.043C54.857 68.0974 58.2084 69.6264 62.227 69.6264C65.7727 69.6264 68.7097 68.563 71.0344 66.4144C73.3334 64.3024 74.4884 61.4094 74.4884 57.7317V57.7684L74.492 57.7757Z" fill="#35464D"/>
</g>
</svg>
