<svg width="85" height="85" viewBox="0 0 85 85" fill="none" xmlns="http://www.w3.org/2000/svg">
<g clip-path="url(#clip0_56_50)">
<path d="M42.6241 14.4116C24.7419 14.4116 10.1934 28.9601 10.1934 46.8423C10.1934 64.7248 24.7419 79.2732 42.6241 79.2732C60.5065 79.2732 75.0548 64.7248 75.0548 46.8423C75.0548 28.9599 60.5065 14.4116 42.6241 14.4116ZM42.6241 76.7483C26.1341 76.7483 12.7183 63.3325 12.7183 46.8423C12.7183 30.3521 26.1341 16.9366 42.6241 16.9366C59.1143 16.9366 72.5299 30.3521 72.5299 46.8423C72.5299 63.3325 59.1143 76.7483 42.6241 76.7483Z" fill="#FF9A24"/>
<path d="M42.6243 25.8889C31.0705 25.8889 21.6707 35.2886 21.6707 46.8423C21.6707 48.707 21.9161 50.5569 22.3999 52.3406L24.8366 51.6793C24.411 50.1113 24.1953 48.4837 24.1953 46.8421C24.1953 36.6806 32.4624 28.4137 42.6239 28.4137C45.5832 28.4137 48.4086 29.0932 51.0217 30.4336L52.174 28.1867C49.2011 26.6621 45.9881 25.8889 42.6243 25.8889Z" fill="#FF9A24"/>
<path d="M26.0248 54.8577L23.7519 55.9574C25.0765 58.6953 27.0267 61.1616 29.3915 63.0896L30.987 61.1327C28.906 59.4359 27.1901 57.2661 26.0248 54.8577Z" fill="#FF9A24"/>
<path d="M55.403 30.2356L53.862 32.2354C58.4318 35.757 61.0529 41.0809 61.0529 46.8422C61.0529 57.0037 52.7858 65.2708 42.6243 65.2708C39.0066 65.2708 35.5055 64.2234 32.4988 62.2425L31.1096 64.3507C34.5298 66.6044 38.5114 67.7957 42.6243 67.7957C54.1781 67.7957 63.5778 58.3961 63.5778 46.8422C63.5776 40.2918 60.598 34.2389 55.403 30.2356Z" fill="#FF9A24"/>
<path d="M10.6159 7.97852V22.5987H7.8328V7.97852H5.30786V22.5987H2.52494V7.97852H0V22.5987V24.7753V25.1236H0.00946291C0.168838 28.1589 2.39777 30.654 5.30803 31.2227V78.011H7.83296V31.2227C10.7431 30.6538 12.972 28.1589 13.1315 25.1235H13.141V24.7752V22.5985V7.97852H10.6159ZM6.57041 28.8207C4.45703 28.8207 2.71702 27.1915 2.53988 25.1235H10.6011C10.4236 27.1915 8.68363 28.8207 6.57041 28.8207Z" fill="#FF9A24"/>
<path d="M82.8962 7.01293C79.1632 9.2925 76.844 13.4258 76.844 17.7998V45.4269H82.4751V78.0107H85V45.4267V30.083V5.72681L82.8962 7.01293ZM82.4752 30.0828V42.9018H79.3689V17.7997C79.3689 15.0398 80.5224 12.4 82.4752 10.5122V30.0828Z" fill="#FF9A24"/>
</g>
<defs>
<clipPath id="clip0_56_50">
<rect width="85" height="85" fill="white"/>
</clipPath>
</defs>
</svg>
