<svg width="80" height="80" viewBox="0 0 80 80" fill="none" xmlns="http://www.w3.org/2000/svg">
<path d="M57.4189 4.25153V0H41.935V4.25153L23.8705 10.7033V19.355H22.58V29.6776C22.58 32.0763 24.2303 34.0788 26.4511 34.6555V38.7097H25.1607H16.1285V34.6555C18.3491 34.0788 19.9997 32.0763 19.9997 29.6776V19.355H9.67707V29.6776C9.67707 32.0763 11.3273 34.0788 13.5482 34.6555V38.7097H10.9675C10.2551 38.7097 9.67707 38.1316 9.67707 37.4192V36.1288H4.51578V38.7094H7.31719C7.85011 40.2113 9.28481 41.29 10.9675 41.29H12.258V42.5805C12.258 44.7147 13.9947 46.4516 16.1291 46.4516H19.0698L19.4788 47.676C20.0065 49.2594 21.4814 50.3224 23.1498 50.3224H29.2531C30.2867 50.3224 31.2595 49.9186 31.9898 49.1883L32.9034 48.2761V80H66.4518V65.4388L67.8609 80H75.4842V10.7033L57.4189 4.25153ZM56.2861 11.8454C56.9958 11.3642 57.4191 10.5654 57.4191 9.70735V6.99265L58.9169 7.52778L61.0692 17.209L56.3208 18.791L59.686 22.1561L51.628 36.4814L56.0899 11.9447C56.1543 11.9087 56.2242 11.8867 56.2861 11.8454ZM53.4679 11.9381L49.5905 33.2646L45.8821 11.9406L49.6769 10.422L53.4679 11.9381ZM50.9671 8.15732V7.50961L54.8382 6.73555V9.7057L50.9671 8.15732ZM44.5156 2.58065H54.8382V4.16014C54.6692 4.16014 54.5002 4.17032 54.3312 4.20528L49.6769 5.13569L45.0227 4.20418C44.8537 4.1706 44.6833 4.16041 44.5156 4.16041V2.58065ZM48.3865 7.50988V8.15869L44.5154 9.70708L44.5129 6.73555L48.3865 7.50988ZM40.4384 7.52778L41.9353 6.99238V9.70735C41.9353 10.564 42.3584 11.3628 43.0694 11.8429C43.1299 11.8842 43.1996 11.8996 43.2629 11.9357L47.4437 35.9768L39.6682 22.155L43.0333 18.7899L38.286 17.209L40.4384 7.52778ZM25.1607 29.6776V21.9356H30.322V29.6776C30.322 31.1007 29.1645 32.2582 27.7413 32.2582C26.3182 32.2582 25.1607 31.1007 25.1607 29.6776ZM12.2574 29.6776V21.9356H17.4187V29.6776C17.4187 31.1007 16.2612 32.2582 14.8381 32.2582C13.4149 32.2582 12.2574 31.1007 12.2574 29.6776ZM16.1285 43.8712C15.4161 43.871 14.8381 43.2929 14.8381 42.5808V41.2903H25.1607V42.5808C25.1607 43.2929 24.5826 43.8712 23.8702 43.8712H16.1285ZM32.9029 44.6271L30.1659 47.3639C29.9245 47.6053 29.593 47.7418 29.2536 47.7418H23.1504C22.5943 47.7418 22.1013 47.3884 21.9271 46.8593L21.7903 46.4516H23.8702C26.0044 46.4516 27.7413 44.7149 27.7413 42.5805V41.2903H31.6124H32.9029V44.6271ZM72.9027 77.4194H70.2035L66.4447 38.5844L63.8703 38.7097V77.4194H35.4832V38.7097H38.0639V36.129H32.9026V37.4195C32.9026 38.1316 32.3245 38.71 31.6121 38.71H29.0315V34.6558C31.2521 34.0791 32.9026 32.0765 32.9026 29.6778V19.3553H26.4511V12.5231L37.5646 8.55398L35.2614 18.9201L38.2549 19.9187L36.4588 21.7149L49.6769 45.2129L62.8937 21.7149L61.0976 19.9187L64.0911 18.9201L61.7879 8.5537L72.9027 12.5228V77.4194Z" fill="#FF9A24"/>
</svg>
