<svg width="46" height="78" viewBox="0 0 46 78" fill="none" xmlns="http://www.w3.org/2000/svg">
<g clip-path="url(#clip0_5_34)">
<g filter="url(#filter0_d_5_34)">
<path d="M15.1815 62.3876L33.8178 41.4779C34.1673 41.0859 34.3636 40.554 34.3636 39.9995C34.3636 39.4449 34.1672 38.9131 33.8177 38.521L15.1814 17.6124C14.4536 16.7959 13.2736 16.7959 12.5458 17.6124C11.8181 18.4289 11.818 19.7528 12.5458 20.5694L29.8643 39.9995L12.5458 59.4306C12.1819 59.8389 12 60.374 12 60.9092C12 61.4443 12.1819 61.9794 12.5459 62.3877C13.2737 63.2041 14.4537 63.2041 15.1815 62.3876Z" fill="white"/>
</g>
</g>
<defs>
<filter id="filter0_d_5_34" x="2" y="11" width="42.3636" height="66" filterUnits="userSpaceOnUse" color-interpolation-filters="sRGB">
<feFlood flood-opacity="0" result="BackgroundImageFix"/>
<feColorMatrix in="SourceAlpha" type="matrix" values="0 0 0 0 0 0 0 0 0 0 0 0 0 0 0 0 0 0 127 0" result="hardAlpha"/>
<feOffset dy="4"/>
<feGaussianBlur stdDeviation="5"/>
<feComposite in2="hardAlpha" operator="out"/>
<feColorMatrix type="matrix" values="0 0 0 0 0 0 0 0 0 0 0 0 0 0 0 0 0 0 0.25 0"/>
<feBlend mode="normal" in2="BackgroundImageFix" result="effect1_dropShadow_5_34"/>
<feBlend mode="normal" in="SourceGraphic" in2="effect1_dropShadow_5_34" result="shape"/>
</filter>
<clipPath id="clip0_5_34">
<rect width="78" height="46" fill="white" transform="translate(46) rotate(90)"/>
</clipPath>
</defs>
</svg>
