<svg width="50" height="50" viewBox="0 0 50 50" fill="none" xmlns="http://www.w3.org/2000/svg">
<path d="M0 25C0 38.7847 11.2153 50 25 50C38.7847 50 50 38.7847 50 25C50 11.2153 38.7847 0 25 0C11.2153 0 0 11.2153 0 25ZM47.502 25C47.502 37.4082 37.4082 47.502 25 47.502C12.5918 47.502 2.49796 37.4082 2.49796 25C2.49796 12.5918 12.5918 2.49796 25 2.49796C37.4082 2.49796 47.502 12.5918 47.502 25Z" fill="black"/>
<path d="M27.9567 18.8622L32.8507 23.7562H14.1516C13.4583 23.7562 12.8976 24.317 12.8976 25.0103C12.8976 25.7036 13.4583 26.2644 14.1516 26.2644H32.8405L27.9465 31.1583C27.7018 31.403 27.5795 31.7191 27.5795 32.0453C27.5795 32.3716 27.7018 32.6877 27.9465 32.9324C28.4359 33.4218 29.221 33.4218 29.7104 32.9324L36.7352 25.9075C37.2246 25.4181 37.2246 24.633 36.7352 24.1436L29.7104 17.1188C29.221 16.6294 28.4359 16.6294 27.9465 17.1188C27.4673 17.5776 27.4673 18.3728 27.9567 18.8622Z" fill="black"/>
</svg>
