<svg width="52" height="45" viewBox="0 0 52 45" fill="none" xmlns="http://www.w3.org/2000/svg">
<path d="M17.9996 20.4547H10.9996C10.1662 20.4547 9.45773 20.1565 8.87435 19.5599C8.29129 18.9632 7.99938 18.2388 7.99938 17.3863V16.364C7.99938 14.1054 8.78077 12.1772 10.3434 10.579C11.906 8.98139 13.7915 8.18223 15.9997 8.18223H17.9996C18.5411 8.18223 19.0097 7.97973 19.4057 7.57506C19.8015 7.17016 19.9994 6.69093 19.9994 6.13693V2.04564C19.9994 1.49175 19.8014 1.01208 19.4057 0.607178C19.0098 0.202841 18.5412 0 17.9996 0H15.9997C13.8329 0 11.7657 0.431876 9.79671 1.29439C7.82798 2.15747 6.1251 3.32414 4.68744 4.79451C3.24988 6.26421 2.10949 8.00593 1.26572 10.0197C0.421942 12.0332 0 14.148 0 16.3639V38.8634C0 40.5689 0.583057 42.0169 1.74972 43.2106C2.91649 44.4036 4.33347 45 6 45H18.0003C19.6668 45 21.0833 44.4036 22.2502 43.2106C23.4166 42.0169 24 40.5689 24 38.8634V26.5912C24 24.8861 23.4166 23.438 22.2494 22.2443C21.0831 21.0514 19.666 20.4547 17.9996 20.4547Z" fill="#1E1E1E"/>
<path d="M50.2511 22.2443C49.0847 21.0514 47.668 20.4547 46.001 20.4547H39.0008C38.1678 20.4547 37.4586 20.1565 36.8762 19.5599C36.2926 18.9632 36.0012 18.2388 36.0012 17.3863V16.364C36.0012 14.1054 36.7826 12.1772 38.3446 10.579C39.9067 8.98139 41.7922 8.18223 44.0016 8.18223H46.0011C46.5428 8.18223 47.0118 7.97973 47.4074 7.57506C47.8029 7.17016 48.0016 6.69093 48.0016 6.13693V2.04564C48.0016 1.49175 47.803 1.01208 47.4074 0.607178C47.0119 0.202841 46.5429 0 46.0011 0H44.0016C41.8335 0 39.7666 0.431876 37.797 1.29439C35.8285 2.15747 34.1261 3.32414 32.6883 4.79451C31.2506 6.26421 30.1096 8.00593 29.2661 10.0197C28.4225 12.0332 28 14.148 28 16.3639V38.8634C28 40.5689 28.5836 42.0169 29.75 43.2106C30.9165 44.4036 32.3332 45 34.0001 45H46.0004C47.6673 45 49.0839 44.4036 50.2503 43.2106C51.4176 42.0169 52 40.5689 52 38.8634V26.5912C52.0001 24.886 51.4176 23.438 50.2511 22.2443Z" fill="#1E1E1E"/>
</svg>
