<svg width="16" height="12" viewBox="0 0 16 12" fill="none" xmlns="http://www.w3.org/2000/svg">
<path d="M1.53568 3.69888C1.73808 3.83521 2.34818 4.24012 3.36602 4.91339C4.38389 5.58666 5.16365 6.10506 5.70532 6.46863C5.76484 6.50848 5.89127 6.59511 6.08469 6.72863C6.27815 6.86225 6.43889 6.97022 6.5668 7.05258C6.6948 7.13491 6.84953 7.22727 7.03117 7.32952C7.21274 7.43167 7.38389 7.50851 7.5446 7.55937C7.70535 7.61066 7.85414 7.63606 7.99102 7.63606H8.00901C8.14589 7.63606 8.29475 7.61063 8.45549 7.55937C8.61614 7.50851 8.78745 7.43158 8.96886 7.32952C9.15037 7.22715 9.30511 7.13488 9.43311 7.05258C9.56111 6.97022 9.72173 6.86225 9.91524 6.72863C10.1086 6.59499 10.2352 6.50848 10.2947 6.46863C10.8423 6.10506 12.2353 5.18173 14.4733 3.6987C14.9078 3.40905 15.2708 3.05955 15.5624 2.65043C15.8542 2.24149 16 1.8125 16 1.36368C16 0.988624 15.8586 0.667571 15.5758 0.400548C15.293 0.133466 14.9582 0 14.5714 0H1.42851C0.970209 0 0.617514 0.147706 0.370489 0.443117C0.123496 0.738588 0 1.10791 0 1.55106C0 1.90901 0.163745 2.2969 0.491077 2.71449C0.818379 3.13212 1.1667 3.46027 1.53568 3.69888Z" fill="#7E7E7E"/>
<path d="M15.107 4.61072C13.1549 5.87198 11.6725 6.85218 10.6608 7.55113C10.3215 7.78967 10.0462 7.97589 9.83487 8.10932C9.6235 8.24285 9.34239 8.37921 8.99113 8.51835C8.64 8.6577 8.31276 8.72716 8.00913 8.72716H7.99105C7.68749 8.72716 7.36006 8.6577 7.00893 8.51835C6.6578 8.37921 6.3765 8.24285 6.16519 8.10932C5.95394 7.97589 5.67862 7.78967 5.33937 7.55113C4.53575 6.98867 3.05661 6.0084 0.901877 4.61072C0.562505 4.39495 0.26191 4.14763 0 3.86927V10.6362C0 11.0114 0.139821 11.3323 0.419619 11.5993C0.699355 11.8665 1.03573 12 1.42861 12H14.5715C14.9643 12 15.3006 11.8665 15.5804 11.5993C15.8603 11.3322 16 11.0114 16 10.6362V3.86927C15.744 4.14187 15.4465 4.38919 15.107 4.61072Z" fill="#7E7E7E"/>
</svg>
