<svg width="15" height="18" viewBox="0 0 15 18" fill="none" xmlns="http://www.w3.org/2000/svg">
<path d="M7.27428 8.80319C9.32076 8.80319 10.9799 6.83255 10.9799 4.40162C10.9799 1.97064 10.4352 0 7.27428 0C4.11336 0 3.56853 1.97064 3.56853 4.40162C3.56853 6.83255 5.22769 8.80319 7.27428 8.80319Z" fill="#7E7E7E"/>
<path d="M0.275021 15.5239C0.273758 15.4821 0.27439 15.3757 0.275021 15.5239V15.5239Z" fill="#7E7E7E"/>
<path d="M14.2732 15.6397C14.2739 15.3581 14.2752 15.5991 14.2732 15.6397V15.6397Z" fill="#7E7E7E"/>
<path d="M14.2653 15.3461C14.1967 11.1114 13.6311 9.90472 9.30334 9.14091C9.30334 9.14091 8.69414 9.90004 7.27421 9.90004C5.85428 9.90004 5.24497 9.14091 5.24497 9.14091C0.96442 9.89639 0.364475 11.0852 0.28559 15.2086C0.279121 15.5453 0.276178 15.563 0.275021 15.5239C0.275284 15.5971 0.275545 15.7326 0.275545 15.9688C0.275545 15.9688 1.30589 18 7.27421 18C13.2424 18 14.2729 15.9688 14.2729 15.9688C14.2729 15.817 14.2731 15.7115 14.2732 15.6397C14.2721 15.6638 14.2697 15.617 14.2653 15.3461Z" fill="#7E7E7E"/>
</svg>
