<svg width="59" height="53" viewBox="0 0 59 53" fill="black" xmlns="http://www.w3.org/2000/svg">
<path d="M57.0765 40.9387C43.8893 40.9387 35.0051 36.3252 32.7019 28.2811C31.0402 22.4776 33.4138 16.7632 36.5657 14.7972C37.6493 14.1213 38.3076 14.0849 39.5811 14.0279C40.9201 14.1405 42.302 14.8224 43.6794 16.0657C46.3724 18.4964 46.1633 23.9684 46.025 27.5893C45.9433 29.7278 45.8941 31.0186 46.3348 31.9652C46.8363 33.0423 47.959 33.5635 49.1945 33.2934C51.0952 32.8777 53.1572 30.5992 54.4533 28.6054C56.3446 25.6958 57.3952 22.3363 57.4116 19.1456C57.4407 13.4847 55.191 8.70035 50.9059 5.30911C47.0705 2.27383 41.7556 0.573312 35.9408 0.520765C27.2588 0.441483 18.5478 3.92284 12.0492 10.0757C6.66951 15.1695 0.213603 24.5706 0.00848559 40.4318C-0.0424481 44.3681 0.158752 47.8367 0.0113665 50.4483C-0.0509755 51.5517 0.828265 52.4805 1.93198 52.4805C7.15706 52.4805 51.7298 52.4805 57.0765 52.4805C58.1388 52.4805 59.0001 51.6192 59.0001 50.5569V42.8623C59.0001 41.7999 58.1388 40.9387 57.0765 40.9387ZM3.91114 48.6332C3.92969 46.2252 3.81664 43.4778 3.85536 40.4817C4.19162 14.4909 22.4548 4.23385 35.9057 4.36822C44.7325 4.44796 53.6159 9.04202 53.564 19.1259C53.5431 23.2114 51.4319 26.5624 49.8484 28.2921C49.8552 28.1033 49.8622 27.9159 49.8691 27.7362C50.0348 23.3996 50.2851 16.8457 46.2569 13.2098C43.9633 11.1397 41.4709 10.1105 39.0313 10.1538C34.0949 10.0618 29.3031 11.2693 25.1307 13.6698C16.6743 18.5355 11.4983 27.7287 11.5228 37.2703C11.533 41.1903 12.4324 45.0622 14.1449 48.6332H3.91114ZM18.4976 48.6334C13.1559 39.472 14.8739 28.5485 21.7607 21.1798C20.3684 23.9211 19.5466 27.0144 19.3833 30.2418C19.121 35.4281 20.5763 40.4619 23.4811 44.4159C24.6833 46.0525 26.0989 47.4627 27.7004 48.6334H18.4976ZM55.1529 48.6334H37.8711C27.1987 47.0859 22.8233 38.3928 23.226 30.4362C23.4726 25.5608 25.5824 20.5897 29.7273 17.4113C28.1018 21.176 27.9016 25.4919 29.0034 29.3405C30.2764 33.7865 33.2086 37.535 37.483 40.1814C42.0206 42.9905 47.958 44.5266 55.153 44.7562L55.1529 48.6334Z" fill="white"/>
</svg>
