<svg width="90" height="90" viewBox="0 0 90 90" fill="none" xmlns="http://www.w3.org/2000/svg">
<path d="M68.3445 43.761L35.3445 21.261C34.884 20.949 34.29 20.9145 33.798 21.174C33.3075 21.4335 33 21.9435 33 22.5V67.5C33 68.0565 33.3075 68.5665 33.7995 68.826C34.0185 68.943 34.26 69 34.5 69C34.7955 69 35.091 68.9115 35.3445 68.739L68.3445 46.239C68.754 45.96 69 45.4965 69 45C69 44.5035 68.754 44.04 68.3445 43.761ZM36 64.6605V25.3395L64.8375 45L36 64.6605Z" fill="white"/>
<path d="M45 0C20.187 0 0 20.187 0 45C0 69.813 20.187 90 45 90C69.813 90 90 69.813 90 45C90 20.187 69.813 0 45 0ZM45 87C21.8415 87 3 68.1585 3 45C3 21.8415 21.8415 3 45 3C68.1585 3 87 21.8415 87 45C87 68.1585 68.1585 87 45 87Z" fill="white"/>
<path d="M36 64.6605V25.3395L64.8375 45L36 64.6605Z" fill="white"/>
</svg>
