<svg width="255" height="280" viewBox="0 0 255 280" fill="none" xmlns="http://www.w3.org/2000/svg">
<path opacity="0.52" d="M69.6028 64.3721H54.7668L44.5364 31.3955L34.6575 64.3721H19.927L2.06763 9.21191H16.7629L27.8372 45.8096L39.509 9.21191H49.8801L61.6575 45.6689L72.7668 9.21191H87.3215L69.6028 64.3721ZM73.1887 9.80957L61.6575 47.6025L49.4231 9.80957H39.9309L27.8372 47.7432L16.3059 9.80957H2.84106L20.3489 63.8096H34.2356L44.5364 29.4619L55.1887 63.8096H69.1458L86.5129 9.80957H73.1887ZM131.724 64.3721L128.032 54.1416H108.907L105.216 64.3721H89.8879L110.349 9.21191H126.837L147.263 64.3721H131.724ZM126.38 9.87988H110.771L90.7668 63.8096H104.794L108.45 53.5088H128.419L132.146 63.8096H146.49L126.38 9.87988ZM111.72 43.6299L118.4 24.4697L125.009 43.6299H111.72ZM118.4 26.2275L112.493 43.0674H124.236L118.4 26.2275ZM186.497 64.3721H172.962L150.075 9.21191H166.036L180.029 45.2119L193.704 9.21191H209.384L186.497 64.3721ZM194.126 9.80957L180.029 46.7939L165.685 9.80957H150.919L173.314 63.8096H186.146L208.54 9.80957H194.126ZM216.837 64.3721V9.21191H248.794V21.7627H231.251V30.6924H247.81V42.9268H231.251V52.1377H249.111V64.3721H216.837ZM248.513 52.7002H230.654V42.3291H247.212V31.2549H230.654V21.165H248.232V9.80957H217.4V63.8096H248.513V52.7002Z" fill="black"/>
<path opacity="0.52" d="M69.6028 128.372H54.7668L44.5364 95.3955L34.6575 128.372H19.927L2.06763 73.2119H16.7629L27.8372 109.81L39.509 73.2119H49.8801L61.6575 109.669L72.7668 73.2119H87.3215L69.6028 128.372ZM73.1887 73.8096L61.6575 111.603L49.4231 73.8096H39.9309L27.8372 111.743L16.3059 73.8096H2.84106L20.3489 127.81H34.2356L44.5364 93.4619L55.1887 127.81H69.1458L86.5129 73.8096H73.1887ZM131.724 128.372L128.032 118.142H108.907L105.216 128.372H89.8879L110.349 73.2119H126.837L147.263 128.372H131.724ZM126.38 73.8799H110.771L90.7668 127.81H104.794L108.45 117.509H128.419L132.146 127.81H146.49L126.38 73.8799ZM111.72 107.63L118.4 88.4697L125.009 107.63H111.72ZM118.4 90.2275L112.493 107.067H124.236L118.4 90.2275ZM186.497 128.372H172.962L150.075 73.2119H166.036L180.029 109.212L193.704 73.2119H209.384L186.497 128.372ZM194.126 73.8096L180.029 110.794L165.685 73.8096H150.919L173.314 127.81H186.146L208.54 73.8096H194.126ZM216.837 128.372V73.2119H248.794V85.7627H231.251V94.6924H247.81V106.927H231.251V116.138H249.111V128.372H216.837ZM248.513 116.7H230.654V106.329H247.212V95.2549H230.654V85.165H248.232V73.8096H217.4V127.81H248.513V116.7Z" fill="black" fill-opacity="0.75"/>
<path opacity="0.52" d="M69.6028 192.372H54.7668L44.5364 159.396L34.6575 192.372H19.927L2.06763 137.212H16.7629L27.8372 173.81L39.509 137.212H49.8801L61.6575 173.669L72.7668 137.212H87.3215L69.6028 192.372ZM73.1887 137.81L61.6575 175.603L49.4231 137.81H39.9309L27.8372 175.743L16.3059 137.81H2.84106L20.3489 191.81H34.2356L44.5364 157.462L55.1887 191.81H69.1458L86.5129 137.81H73.1887ZM131.724 192.372L128.032 182.142H108.907L105.216 192.372H89.8879L110.349 137.212H126.837L147.263 192.372H131.724ZM126.38 137.88H110.771L90.7668 191.81H104.794L108.45 181.509H128.419L132.146 191.81H146.49L126.38 137.88ZM111.72 171.63L118.4 152.47L125.009 171.63H111.72ZM118.4 154.228L112.493 171.067H124.236L118.4 154.228ZM186.497 192.372H172.962L150.075 137.212H166.036L180.029 173.212L193.704 137.212H209.384L186.497 192.372ZM194.126 137.81L180.029 174.794L165.685 137.81H150.919L173.314 191.81H186.146L208.54 137.81H194.126ZM216.837 192.372V137.212H248.794V149.763H231.251V158.692H247.81V170.927H231.251V180.138H249.111V192.372H216.837ZM248.513 180.7H230.654V170.329H247.212V159.255H230.654V149.165H248.232V137.81H217.4V191.81H248.513V180.7Z" fill="black" fill-opacity="0.5"/>
<path opacity="0.52" d="M69.6028 256.372H54.7668L44.5364 223.396L34.6575 256.372H19.927L2.06763 201.212H16.7629L27.8372 237.81L39.509 201.212H49.8801L61.6575 237.669L72.7668 201.212H87.3215L69.6028 256.372ZM73.1887 201.81L61.6575 239.603L49.4231 201.81H39.9309L27.8372 239.743L16.3059 201.81H2.84106L20.3489 255.81H34.2356L44.5364 221.462L55.1887 255.81H69.1458L86.5129 201.81H73.1887ZM131.724 256.372L128.032 246.142H108.907L105.216 256.372H89.8879L110.349 201.212H126.837L147.263 256.372H131.724ZM126.38 201.88H110.771L90.7668 255.81H104.794L108.45 245.509H128.419L132.146 255.81H146.49L126.38 201.88ZM111.72 235.63L118.4 216.47L125.009 235.63H111.72ZM118.4 218.228L112.493 235.067H124.236L118.4 218.228ZM186.497 256.372H172.962L150.075 201.212H166.036L180.029 237.212L193.704 201.212H209.384L186.497 256.372ZM194.126 201.81L180.029 238.794L165.685 201.81H150.919L173.314 255.81H186.146L208.54 201.81H194.126ZM216.837 256.372V201.212H248.794V213.763H231.251V222.692H247.81V234.927H231.251V244.138H249.111V256.372H216.837ZM248.513 244.7H230.654V234.329H247.212V223.255H230.654V213.165H248.232V201.81H217.4V255.81H248.513V244.7Z" fill="black" fill-opacity="0.25"/>
</svg>
