<svg width="588" height="88" viewBox="0 0 588 88" fill="none" xmlns="http://www.w3.org/2000/svg">
<path d="M0 87.5L0 0L75 0V12.5L87.5 12.5L87.5 50H75V62.5L25 62.5L25 87.5H0ZM25 50H62.5V12.5L25 12.5L25 50ZM112.5 87.5V75H100V62.5H112.5V50L162.5 50V37.5L112.5 37.5L112.5 25L175 25V37.5H187.5L187.5 87.5L112.5 87.5ZM125 75L162.5 75V62.5L125 62.5V75ZM287.5 0V12.5L225 12.5V37.5H237.5V50H225V75H262.5V37.5L237.5 37.5V25L275 25V37.5L287.5 37.5V75H275V87.5L212.5 87.5L212.5 75H200V12.5L212.5 12.5V0L287.5 0ZM312.5 87.5V75L300 75V37.5H312.5V25L375 25V37.5L387.5 37.5V75H375V87.5H312.5ZM325 75H362.5V37.5L325 37.5V75ZM437.5 87.5V37.5L412.5 37.5V25L487.5 25V37.5L462.5 37.5V87.5H437.5ZM500 87.5V25L525 25V50H550V87.5H500ZM562.5 87.5V25H587.5V87.5L562.5 87.5ZM525 75H537.5V62.5H525V75Z" fill="white"/>
</svg>
