<svg width="24" height="24" viewBox="0 0 24 24" fill="none" xmlns="http://www.w3.org/2000/svg">
<g clip-path="url(#clip0_47_198)">
<path d="M4.58049 15.6519C4.63723 16.2107 4.93957 16.712 5.36982 17.0505C5.12897 17.3339 4.98319 17.7004 4.98319 18.1005V19.6006C4.98319 20.2472 5.35636 20.8041 5.90334 21.0657C5.87235 21.2152 5.85593 21.3699 5.85593 21.5283C5.85593 22.7824 6.87615 23.8026 8.13012 23.8026C9.38414 23.8026 10.4044 22.7824 10.4044 21.5283C10.4044 21.4256 10.3969 21.3245 10.3836 21.2253H14.1243C14.111 21.3246 14.1035 21.4256 14.1035 21.5283C14.1035 22.7824 15.1237 23.8026 16.3778 23.8026C17.6317 23.8026 18.6519 22.7824 18.6519 21.5283C18.6519 20.2743 17.6317 19.2541 16.3778 19.2541C15.617 19.2541 14.9429 19.6299 14.5298 20.2052H9.97805C9.56495 19.6299 8.89079 19.2541 8.13007 19.2541C7.39923 19.2541 6.74825 19.601 6.33189 20.1385C6.13603 20.0385 6.00317 19.8357 6.00317 19.6007V18.1006C6.00317 17.7675 6.27438 17.4964 6.60776 17.4964C6.60932 17.4964 6.61082 17.4962 6.61238 17.4962C6.61549 17.4962 6.61859 17.4964 6.62165 17.4964H18.5474C19.5334 17.4964 20.5548 16.7654 20.8726 15.8321L23.9031 6.93411C24.0746 6.43065 24.0162 5.92302 23.743 5.54135C23.4698 5.15968 23.0081 4.94074 22.4762 4.94074H21.3886L18.111 1.64745C17.6014 1.13797 16.7755 1.13355 16.26 1.63365L10.7287 3.12148L9.24385 0.459155C9.10667 0.21316 8.79607 0.124993 8.54997 0.262126L5.58021 1.91841C5.46202 1.98428 5.37492 2.09446 5.338 2.2246C5.30103 2.35473 5.31731 2.4942 5.38323 2.61234L6.68179 4.94069H5.45158C5.12353 4.94069 4.81453 5.02449 4.54658 5.18159L4.30574 2.77366C4.27965 2.5129 4.06023 2.31437 3.7982 2.31437H0.510061C0.228361 2.31437 0 2.54273 0 2.82443C0 3.10613 0.228361 3.33449 0.510061 3.33449H3.33662L4.58049 15.6519ZM16.3778 20.2742C17.0693 20.2742 17.6319 20.8368 17.6319 21.5283C17.6319 22.2198 17.0693 22.7824 16.3778 22.7824C15.6864 22.7824 15.1237 22.2198 15.1237 21.5283C15.1237 20.8368 15.6864 20.2742 16.3778 20.2742ZM8.13017 20.2742C8.82167 20.2742 9.38429 20.8368 9.38429 21.5283C9.38429 22.2198 8.82167 22.7824 8.13017 22.7824C7.43867 22.7824 6.8761 22.2198 6.8761 21.5283C6.8761 20.8368 7.43867 20.2742 8.13017 20.2742ZM17.389 2.3679L19.9495 4.94069H14.395L16.9668 2.36882C17.0835 2.25219 17.2732 2.25219 17.389 2.3679ZM14.8141 3.07897L12.9524 4.94069H11.7433L11.241 4.04012L14.8141 3.07897ZM6.52251 2.5609L8.60137 1.4015L10.5753 4.94069H7.84978L6.52251 2.5609ZM22.9376 6.60514L19.9071 15.5032C19.7305 16.0215 19.0952 16.4762 18.5475 16.4762H6.6218C6.11645 16.4762 5.64637 16.0515 5.59536 15.5489L5.41514 13.7712H16.3813C16.663 13.7712 16.8914 13.5429 16.8914 13.2612C16.8914 12.9795 16.663 12.7511 16.3813 12.7511H5.31177L4.70815 6.79692C4.70815 6.79678 4.70815 6.79673 4.70815 6.79663L4.70805 6.79552C4.68508 6.56871 4.75075 6.35716 4.89308 6.19967C5.03226 6.04563 5.2306 5.96081 5.45158 5.96081H21.172C21.1737 5.96086 21.1753 5.96106 21.177 5.96106C21.1787 5.96106 21.1803 5.96086 21.182 5.96081H22.4764C22.6779 5.96081 22.8333 6.0227 22.9137 6.13506C22.9941 6.24737 23.0026 6.41433 22.9376 6.60514Z" fill="white"/>
</g>
<defs>
<clipPath id="clip0_47_198">
<rect width="24" height="24" fill="white"/>
</clipPath>
</defs>
</svg>
