<svg width="25" height="25" viewBox="0 0 25 25" fill="none" xmlns="http://www.w3.org/2000/svg">
<path d="M9.70533 13.7151C8.68549 13.8627 7.43818 14.1362 6.95086 14.6235C6.0681 15.5062 6.0681 16.9366 6.95086 17.8193C7.83361 18.7021 9.26395 18.7021 10.1467 17.8193C10.634 17.332 10.9074 16.0854 11.0551 15.0649H14.382C14.5296 16.0847 14.803 17.332 15.2903 17.8193C16.1731 18.7021 17.6034 18.7021 18.4862 17.8193C19.369 16.9366 19.369 15.5062 18.4862 14.6235C17.9989 14.1362 16.7523 13.8627 15.7317 13.7151V10.3882C16.7516 10.2406 17.9989 9.96716 18.4862 9.47984C19.369 8.59708 19.369 7.16674 18.4862 6.28399C17.6042 5.40123 16.1731 5.40123 15.2903 6.28399C14.803 6.77131 14.5296 8.01787 14.382 9.03846H11.0551C10.9074 8.01862 10.634 6.77131 10.1467 6.28399C9.26395 5.40123 7.83361 5.40123 6.95086 6.28399C6.0681 7.16674 6.0681 8.59708 6.95086 9.47984C7.43818 9.96716 8.68474 10.2406 9.70533 10.3882V13.7151ZM9.06435 16.7701C8.77211 17.0458 8.30663 17.0435 8.01664 16.7535C7.72892 16.4658 7.72289 16.0003 8.00007 15.7051C8.21097 15.5582 8.78943 15.3978 9.49669 15.272C9.3694 15.9785 9.20897 16.5615 9.06435 16.7701ZM17.437 15.7051C17.7142 15.9996 17.7081 16.4651 17.4204 16.7528C17.1304 17.0428 16.6649 17.045 16.3727 16.7694C16.2258 16.5585 16.0654 15.98 15.9396 15.2727C16.6454 15.4 17.2283 15.5605 17.437 15.7051ZM16.3719 7.33245C16.6634 7.05828 17.1289 7.05753 17.4197 7.34902C17.7074 7.63674 17.7134 8.10222 17.4362 8.39748C17.2253 8.54436 16.6469 8.70479 15.9404 8.83057C16.0669 8.12407 16.2273 7.54109 16.3719 7.33245ZM7.99932 8.39748C7.72214 8.10298 7.72817 7.6375 8.01589 7.34977C8.30813 7.05753 8.77361 7.05979 9.06435 7.3332C9.21123 7.5441 9.37166 8.12256 9.49744 8.82982C8.79094 8.70253 8.20796 8.5421 7.99932 8.39748ZM14.2246 10.5449V13.5577H11.2117V10.5449H14.2246ZM20.2502 3.01282H5.1861C4.35757 3.01282 3.67969 3.6907 3.67969 4.51923V19.5833C3.67969 20.4119 4.35757 21.0897 5.1861 21.0897H20.2502C21.0787 21.0897 21.7566 20.4119 21.7566 19.5833V4.51923C21.7566 3.6907 21.0787 3.01282 20.2502 3.01282ZM20.2502 19.5833H5.1861V4.51923H20.2502V19.5833Z" fill="black"/>
</svg>
