<svg width="24" height="24" viewBox="0 0 24 24" fill="none" xmlns="http://www.w3.org/2000/svg">
<g clip-path="url(#clip0_47_191)">
<path d="M6.57427 8.6181C5.90327 8.6181 5.27272 8.35588 4.79864 7.87972C3.82184 6.89846 3.82184 5.30213 4.79864 4.32124C5.27279 3.84493 5.90349 3.58264 6.57449 3.58264C7.24549 3.58264 7.87619 3.84493 8.35042 4.32124C9.32699 5.30228 9.32684 6.89846 8.35012 7.8795C7.87619 8.35581 7.24542 8.6181 6.57427 8.6181ZM6.57449 5.01902C6.28833 5.01902 6.01913 5.13109 5.81648 5.3347C5.39602 5.75687 5.39609 6.44401 5.81648 6.86634C6.01905 7.06973 6.28811 7.18172 6.57427 7.18172C6.8605 7.18172 7.12956 7.06965 7.33213 6.86619C7.75267 6.44379 7.75274 5.7568 7.3325 5.33463C7.12985 5.13109 6.86065 5.01902 6.57449 5.01902Z" fill="black"/>
<path d="M17.0401 24C16.4916 24 15.9759 23.7864 15.5881 23.3987C15.2002 23.0109 14.9865 22.4952 14.9865 21.9468C14.9865 21.3983 15.2002 20.8827 15.5881 20.4948L16.5337 19.5493L16.2355 19.2512L15.2897 20.1969C14.9018 20.5847 14.3862 20.7982 13.8377 20.7982C13.2893 20.7982 12.7736 20.5847 12.3857 20.1969C11.9979 19.809 11.7843 19.2934 11.7843 18.7449C11.7843 18.1965 11.9979 17.6808 12.3858 17.293L13.3315 16.3475L11.128 14.1444C10.1288 14.6231 9.02724 14.8741 7.91079 14.8741C5.92425 14.8741 4.05663 14.1006 2.65201 12.696C1.24709 11.2914 0.473389 9.42371 0.473389 7.43717C0.473389 5.45057 1.24709 3.58294 2.65201 2.17832C4.05678 0.773553 5.92462 0 7.91138 0C9.89814 0 11.7661 0.773553 13.1709 2.17832C15.4128 4.41986 15.9737 7.83295 14.6197 10.6533L22.8035 18.8362C23.2699 19.3024 23.5267 19.9223 23.5266 20.5818C23.5266 21.2412 23.2698 21.8611 22.8036 22.3274C22.3372 22.7937 21.7172 23.0504 21.0578 23.0504C20.4579 23.0504 19.8907 22.838 19.4422 22.4487L18.492 23.3987C18.1041 23.7864 17.5885 24 17.0401 24ZM16.2355 17.22L18.5652 19.5493L16.6036 21.5105C16.4871 21.6271 16.4229 21.782 16.4229 21.9468C16.4229 22.1115 16.4871 22.2665 16.6036 22.383C16.7202 22.4994 16.8752 22.5636 17.0401 22.5636C17.2049 22.5636 17.3599 22.4994 17.4765 22.383L19.4378 20.4218L20.3277 21.3117C20.5227 21.5067 20.782 21.614 21.0578 21.614C21.3337 21.614 21.593 21.5067 21.788 21.3117C21.983 21.1167 22.0904 20.8574 22.0904 20.5817C22.0904 20.306 21.983 20.0468 21.788 19.8519L12.8408 10.9058L13.1156 10.4288C14.4658 8.08438 14.071 5.10938 12.1554 3.19401C11.0217 2.0606 9.51456 1.43638 7.91138 1.43638C6.3082 1.43638 4.80111 2.06053 3.66755 3.19401C2.53392 4.32735 1.90969 5.83429 1.90969 7.43717C1.90969 9.04006 2.53399 10.5469 3.66755 11.6803C4.80096 12.8136 6.30791 13.4377 7.91079 13.4377C8.96284 13.4377 9.99779 13.162 10.9036 12.6404L11.3806 12.3658L15.3629 16.3475L13.4014 18.3087C13.2848 18.4252 13.2207 18.5802 13.2207 18.7449C13.2207 18.9097 13.2848 19.0646 13.4014 19.1812C13.5178 19.2976 13.6729 19.3618 13.8377 19.3618C14.0026 19.3618 14.1576 19.2976 14.2742 19.1811L16.2355 17.22Z" fill="black"/>
</g>
<defs>
<clipPath id="clip0_47_191">
<rect width="24" height="24" fill="white"/>
</clipPath>
</defs>
</svg>
