<svg width="31" height="31" viewBox="0 0 31 31" fill="none" xmlns="http://www.w3.org/2000/svg">
<path d="M4.53653 19.375H10.5554C10.4102 18.151 10.3334 16.8491 10.3334 15.5C10.3334 14.1509 10.4102 12.8491 10.5554 11.625H4.53653C4.10814 12.837 3.87504 14.1413 3.87504 15.5C3.87504 16.8587 4.10814 18.163 4.53653 19.375ZM5.08342 20.6667C6.621 23.7607 9.49647 26.0725 12.9529 26.8451C11.9465 25.4753 11.1757 23.298 10.7386 20.6667H5.08342ZM26.4636 19.375C26.8919 18.163 27.125 16.8587 27.125 15.5C27.125 14.1413 26.8919 12.837 26.4636 11.625H20.4447C20.5899 12.8491 20.6667 14.1509 20.6667 15.5C20.6667 16.8491 20.5899 18.151 20.4447 19.375H26.4636ZM25.9167 20.6667H20.2614C19.8243 23.298 19.0536 25.4753 18.0472 26.8451C21.5036 26.0725 24.3791 23.7607 25.9167 20.6667ZM11.8632 19.375H19.1369C19.2898 18.1639 19.375 16.8599 19.375 15.5C19.375 14.1401 19.2898 12.8361 19.1369 11.625H11.8632C11.7103 12.8361 11.625 14.1401 11.625 15.5C11.625 16.8599 11.7103 18.1639 11.8632 19.375ZM12.0577 20.6667C12.7322 24.5001 14.1026 27.125 15.5 27.125C16.8975 27.125 18.2679 24.5001 18.9424 20.6667H12.0577ZM5.08342 10.3333H10.7386C11.1757 7.70204 11.9465 5.52476 12.9529 4.15492C9.49647 4.92757 6.621 7.23936 5.08342 10.3333ZM25.9167 10.3333C24.3791 7.23936 21.5036 4.92757 18.0472 4.15492C19.0536 5.52476 19.8243 7.70204 20.2614 10.3333H25.9167ZM12.0577 10.3333H18.9424C18.2679 6.4999 16.8975 3.87501 15.5 3.87501C14.1026 3.87501 12.7322 6.4999 12.0577 10.3333ZM15.5 28.4167C8.36636 28.4167 2.58337 22.6337 2.58337 15.5C2.58337 8.36633 8.36636 2.58334 15.5 2.58334C22.6337 2.58334 28.4167 8.36633 28.4167 15.5C28.4167 22.6337 22.6337 28.4167 15.5 28.4167Z" fill="#000"/>
</svg>
